<?xml version="1.0" encoding="utf-8" standalone="no"?>
<!DOCTYPE svg PUBLIC "-//W3C//DTD SVG 1.1//EN"
  "http://www.w3.org/Graphics/SVG/1.1/DTD/svg11.dtd">
<svg xmlns:xlink="http://www.w3.org/1999/xlink" width="776.355514pt" height="650.649261pt" viewBox="0 0 776.355514 650.649261" xmlns="http://www.w3.org/2000/svg" version="1.1">
 <metadata>
  <rdf:RDF xmlns:dc="http://purl.org/dc/elements/1.1/" xmlns:cc="http://creativecommons.org/ns#" xmlns:rdf="http://www.w3.org/1999/02/22-rdf-syntax-ns#">
   <cc:Work>
    <dc:type rdf:resource="http://purl.org/dc/dcmitype/StillImage"/>
    <dc:date>2023-11-28T23:37:46.226395</dc:date>
    <dc:format>image/svg+xml</dc:format>
    <dc:creator>
     <cc:Agent>
      <dc:title>Matplotlib v3.6.3, https://matplotlib.org/</dc:title>
     </cc:Agent>
    </dc:creator>
   </cc:Work>
  </rdf:RDF>
 </metadata>
 <defs>
  <style type="text/css">*{stroke-linejoin: round; stroke-linecap: butt}</style>
 </defs>
 <g id="figure_1">
  <g id="patch_1">
   <path d="M 0 650.649261 
L 776.355514 650.649261 
L 776.355514 0 
L 0 0 
z
" style="fill: #ffffff"/>
  </g>
  <g id="axes_1">
   <g id="patch_2">
    <path d="M 60.675514 602.784 
L 774.915514 602.784 
L 774.915514 70.56 
L 60.675514 70.56 
z
" style="fill: #ffffff"/>
   </g>
   <g id="PolyCollection_1">
    <path d="M -469933.251752 322.488706 
L -469933.251752 347.301557 
L 93.140968 344.681775 
L 234.758068 349.760341 
L 317.598761 347.347683 
L 376.375168 346.889406 
L 421.965691 348.877082 
L 459.21586 352.265148 
L 490.71043 362.471152 
L 517.992267 385.342114 
L 542.056553 399.162997 
L 563.58279 422.251083 
L 583.05564 440.007484 
L 600.83296 454.813883 
L 617.186508 530.620475 
L 632.327529 521.869674 
L 646.423483 459.990847 
L 659.609367 464.414474 
L 671.995601 389.50058 
L 683.673653 321.236092 
L 694.720142 252.355251 
L 705.19989 206.079618 
L 715.168222 181.880162 
L 724.67274 178.789489 
L 733.754692 153.822109 
L 742.450059 156.567439 
L 742.450059 113.533957 
L 742.450059 113.533957 
L 733.754692 116.26441 
L 724.67274 141.843324 
L 715.168222 157.49203 
L 705.19989 185.997047 
L 694.720142 225.663939 
L 683.673653 281.724705 
L 671.995601 342.46947 
L 659.609367 404.175468 
L 646.423483 411.985983 
L 632.327529 463.097391 
L 617.186508 457.471561 
L 600.83296 404.275905 
L 583.05564 404.168011 
L 563.58279 387.86679 
L 542.056553 369.160147 
L 517.992267 350.23803 
L 490.71043 336.012469 
L 459.21586 324.886259 
L 421.965691 325.112333 
L 376.375168 321.372518 
L 317.598761 322.901175 
L 234.758068 323.940023 
L 93.140968 320.638701 
L -469933.251752 322.488706 
z
" clip-path="url(#pbf72950b7d)" style="fill: #ff0000; fill-opacity: 0.4; stroke: #ff0000; stroke-opacity: 0.4"/>
   </g>
   <g id="PolyCollection_2">
    <path d="M -469933.251752 311.036947 
L -469933.251752 360.814003 
L 93.140968 357.739211 
L 234.758068 363.872047 
L 317.598761 360.643276 
L 376.375168 360.820176 
L 421.965691 361.770609 
L 459.21586 367.312396 
L 490.71043 376.96479 
L 517.992267 405.18368 
L 542.056553 415.808947 
L 563.58279 441.634569 
L 583.05564 460.319537 
L 600.83296 485.086202 
L 617.186508 578.592 
L 632.327529 558.225508 
L 646.423483 488.467591 
L 659.609367 501.895328 
L 671.995601 417.296193 
L 683.673653 343.935559 
L 694.720142 266.988499 
L 705.19989 216.834585 
L 715.168222 195.141254 
L 724.67274 199.814353 
L 733.754692 175.243335 
L 742.450059 181.618353 
L 742.450059 94.752 
L 742.450059 94.752 
L 733.754692 99.598874 
L 724.67274 125.418615 
L 715.168222 146.221305 
L 705.19989 176.589365 
L 694.720142 213.417297 
L 683.673653 264.295859 
L 671.995601 322.186657 
L 659.609367 379.184445 
L 646.423483 391.34309 
L 632.327529 438.610972 
L 617.186508 428.223228 
L 600.83296 382.706215 
L 583.05564 388.181453 
L 563.58279 372.460946 
L 542.056553 355.534912 
L 517.992267 334.544286 
L 490.71043 323.863755 
L 459.21586 312.351013 
L 421.965691 314.108206 
L 376.375168 309.621735 
L 317.598761 311.60554 
L 234.758068 312.060776 
L 93.140968 309.515415 
L -469933.251752 311.036947 
z
" clip-path="url(#pbf72950b7d)" style="fill: #ff0000; fill-opacity: 0.2; stroke: #ff0000; stroke-opacity: 0.2"/>
   </g>
   <g id="matplotlib.axis_1">
    <g id="xtick_1">
     <g id="line2d_1">
      <defs>
       <path id="m75c8eb38b0" d="M 0 0 
L 0 3.5 
" style="stroke: #000000; stroke-width: 0.8"/>
      </defs>
      <g>
       <use xlink:href="#m75c8eb38b0" x="508.569968" y="602.784" style="stroke: #000000; stroke-width: 0.8"/>
      </g>
     </g>
     <g id="text_1">
      <!-- $\mathdefault{10^{0}}$ -->
      <g transform="translate(495.787017 623.620997) scale(0.2 -0.2)">
       <defs>
        <path id="CMSS17-31" d="M 1818 4288 
L 1696 4288 
C 1350 3949 947 3902 538 3891 
L 538 3520 
C 723 3526 1024 3539 1325 3673 
L 1325 371 
L 570 371 
L 570 0 
L 2573 0 
L 2573 371 
L 1818 371 
L 1818 4288 
z
" transform="scale(0.015625)"/>
        <path id="CMSS17-30" d="M 2758 2073 
C 2758 2439 2752 3120 2490 3647 
C 2227 4153 1805 4288 1504 4288 
C 1069 4288 698 4031 506 3621 
C 301 3191 243 2748 243 2073 
C 243 1611 262 1046 493 551 
C 755 6 1197 -128 1498 -128 
C 1894 -128 2278 83 2496 525 
C 2720 988 2758 1495 2758 2073 
z
M 1498 262 
C 1011 262 864 821 819 1007 
C 742 1328 730 1636 730 2144 
C 730 2542 730 2992 851 3345 
C 998 3756 1254 3897 1498 3897 
C 1971 3897 2125 3422 2176 3255 
C 2272 2915 2272 2516 2272 2144 
C 2272 1546 2272 262 1498 262 
z
" transform="scale(0.015625)"/>
       </defs>
       <use xlink:href="#CMSS17-31" transform="scale(0.996264)"/>
       <use xlink:href="#CMSS17-30" transform="translate(46.843624 0) scale(0.996264)"/>
       <use xlink:href="#CMSS17-30" transform="translate(93.687247 36.153639) scale(0.697382)"/>
      </g>
     </g>
    </g>
    <g id="xtick_2">
     <g id="line2d_2">
      <defs>
       <path id="m09a9d4c798" d="M 0 0 
L 0 2 
" style="stroke: #000000; stroke-width: 0.6"/>
      </defs>
      <g>
       <use xlink:href="#m09a9d4c798" x="179.745245" y="602.784" style="stroke: #000000; stroke-width: 0.6"/>
      </g>
     </g>
    </g>
    <g id="xtick_3">
     <g id="line2d_3">
      <g>
       <use xlink:href="#m09a9d4c798" x="262.585938" y="602.784" style="stroke: #000000; stroke-width: 0.6"/>
      </g>
     </g>
    </g>
    <g id="xtick_4">
     <g id="line2d_4">
      <g>
       <use xlink:href="#m09a9d4c798" x="321.362345" y="602.784" style="stroke: #000000; stroke-width: 0.6"/>
      </g>
     </g>
    </g>
    <g id="xtick_5">
     <g id="line2d_5">
      <g>
       <use xlink:href="#m09a9d4c798" x="366.952868" y="602.784" style="stroke: #000000; stroke-width: 0.6"/>
      </g>
     </g>
    </g>
    <g id="xtick_6">
     <g id="line2d_6">
      <g>
       <use xlink:href="#m09a9d4c798" x="404.203038" y="602.784" style="stroke: #000000; stroke-width: 0.6"/>
      </g>
     </g>
    </g>
    <g id="xtick_7">
     <g id="line2d_7">
      <g>
       <use xlink:href="#m09a9d4c798" x="435.697607" y="602.784" style="stroke: #000000; stroke-width: 0.6"/>
      </g>
     </g>
    </g>
    <g id="xtick_8">
     <g id="line2d_8">
      <g>
       <use xlink:href="#m09a9d4c798" x="462.979445" y="602.784" style="stroke: #000000; stroke-width: 0.6"/>
      </g>
     </g>
    </g>
    <g id="xtick_9">
     <g id="line2d_9">
      <g>
       <use xlink:href="#m09a9d4c798" x="487.04373" y="602.784" style="stroke: #000000; stroke-width: 0.6"/>
      </g>
     </g>
    </g>
    <g id="xtick_10">
     <g id="line2d_10">
      <g>
       <use xlink:href="#m09a9d4c798" x="650.187067" y="602.784" style="stroke: #000000; stroke-width: 0.6"/>
      </g>
     </g>
    </g>
    <g id="xtick_11">
     <g id="line2d_11">
      <g>
       <use xlink:href="#m09a9d4c798" x="733.02776" y="602.784" style="stroke: #000000; stroke-width: 0.6"/>
      </g>
     </g>
    </g>
    <g id="text_2">
     <!-- Angle $\theta$ -->
     <g transform="translate(387.140451 645.333627) scale(0.2 -0.2)">
      <defs>
       <path id="CMR17-41" d="M 2323 4441 
C 2291 4524 2278 4544 2214 4544 
C 2150 4544 2138 4524 2106 4441 
L 749 580 
C 627 236 371 166 147 166 
L 147 0 
C 262 12 518 12 640 12 
C 800 12 1056 12 1210 0 
L 1210 166 
C 909 179 864 382 864 459 
C 864 516 877 548 890 586 
L 1229 1536 
L 2906 1536 
L 3290 453 
C 3322 376 3322 363 3322 338 
C 3322 166 3046 166 2925 166 
L 2925 0 
C 3110 12 3443 12 3642 12 
C 3808 12 4128 12 4282 0 
L 4282 166 
C 3942 166 3827 166 3744 402 
L 2323 4441 
z
M 2067 3924 
L 2848 1702 
L 1286 1702 
L 2067 3924 
z
" transform="scale(0.015625)"/>
       <path id="CMR17-6e" d="M 2656 1954 
C 2656 2282 2592 2816 1837 2816 
C 1331 2816 1069 2424 973 2166 
L 966 2166 
L 966 2816 
L 211 2745 
L 211 2578 
C 589 2578 646 2540 646 2231 
L 646 443 
C 646 198 621 166 211 166 
L 211 0 
C 365 12 646 12 813 12 
C 979 12 1267 12 1421 0 
L 1421 166 
C 1011 166 986 192 986 443 
L 986 1678 
C 986 2269 1344 2713 1792 2713 
C 2266 2713 2317 2289 2317 1980 
L 2317 443 
C 2317 198 2291 166 1882 166 
L 1882 0 
C 2035 12 2317 12 2483 12 
C 2650 12 2938 12 3091 0 
L 3091 166 
C 2682 166 2656 192 2656 443 
L 2656 1954 
z
" transform="scale(0.015625)"/>
       <path id="CMR17-67" d="M 710 1165 
C 832 1068 1043 960 1299 960 
C 1805 960 2240 1359 2240 1895 
C 2240 2063 2189 2321 1997 2521 
C 2176 2713 2438 2777 2586 2777 
C 2611 2777 2650 2777 2682 2758 
C 2656 2751 2598 2726 2598 2623 
C 2598 2540 2656 2483 2739 2483 
C 2835 2483 2886 2547 2886 2630 
C 2886 2751 2790 2880 2586 2880 
C 2330 2880 2106 2758 1926 2591 
C 1734 2764 1504 2828 1299 2828 
C 794 2828 358 2431 358 1895 
C 358 1527 570 1294 634 1230 
C 442 1004 442 742 442 710 
C 442 544 506 300 723 166 
C 390 82 128 -184 128 -517 
C 128 -996 736 -1344 1466 -1344 
C 2170 -1344 2803 -1009 2803 -510 
C 2803 384 1856 384 1363 384 
C 1216 384 954 384 922 390 
C 723 422 589 601 589 825 
C 589 883 589 1024 710 1165 
z
M 1299 1068 
C 736 1068 736 1766 736 1895 
C 736 2024 736 2719 1299 2719 
C 1862 2719 1862 2024 1862 1895 
C 1862 1766 1862 1068 1299 1068 
z
M 1466 -1236 
C 826 -1236 384 -883 384 -517 
C 384 -311 493 -118 634 -11 
C 794 102 858 102 1293 102 
C 1818 102 2547 102 2547 -517 
C 2547 -883 2106 -1236 1466 -1236 
z
" transform="scale(0.015625)"/>
       <path id="CMR17-6c" d="M 979 4416 
L 218 4345 
L 218 4179 
C 595 4179 653 4141 653 3835 
L 653 439 
C 653 198 627 166 218 166 
L 218 0 
C 371 12 653 12 813 12 
C 979 12 1261 12 1414 0 
L 1414 166 
C 1005 166 979 191 979 439 
L 979 4416 
z
" transform="scale(0.015625)"/>
       <path id="CMR17-65" d="M 2438 1503 
C 2464 1529 2464 1542 2464 1606 
C 2464 2251 2118 2816 1389 2816 
C 710 2816 173 2175 173 1394 
C 173 554 781 -64 1459 -64 
C 2176 -64 2458 619 2458 755 
C 2458 800 2419 800 2406 800 
C 2362 800 2355 787 2330 709 
C 2189 270 1837 51 1504 51 
C 1229 51 954 206 781 490 
C 582 819 582 1200 582 1503 
L 2438 1503 
z
M 589 1600 
C 634 2511 1126 2713 1382 2713 
C 1818 2713 2112 2308 2118 1600 
L 589 1600 
z
" transform="scale(0.015625)"/>
       <path id="CMMI12-12" d="M 2835 3200 
C 2835 3849 2630 4480 2106 4480 
C 1210 4480 256 2615 256 1215 
C 256 922 320 -64 992 -64 
C 1862 -64 2835 1755 2835 3200 
z
M 896 2304 
C 992 2679 1126 3213 1382 3665 
C 1594 4046 1818 4351 2099 4351 
C 2310 4351 2451 4173 2451 3563 
C 2451 3334 2432 3016 2246 2304 
L 896 2304 
z
M 2202 2112 
C 2042 1488 1907 1088 1677 687 
C 1491 362 1267 64 998 64 
C 800 64 640 216 640 846 
C 640 1259 742 1692 845 2112 
L 2202 2112 
z
" transform="scale(0.015625)"/>
      </defs>
      <use xlink:href="#CMR17-41" transform="scale(0.996264)"/>
      <use xlink:href="#CMR17-6e" transform="translate(69.07243 0) scale(0.996264)"/>
      <use xlink:href="#CMR17-67" transform="translate(119.9678 0) scale(0.996264)"/>
      <use xlink:href="#CMR17-6c" transform="translate(165.658277 0) scale(0.996264)"/>
      <use xlink:href="#CMR17-65" transform="translate(190.529335 0) scale(0.996264)"/>
      <use xlink:href="#CMMI12-12" transform="translate(261.090962 0) scale(0.996264)"/>
     </g>
    </g>
   </g>
   <g id="matplotlib.axis_2">
    <g id="ytick_1">
     <g id="line2d_12">
      <defs>
       <path id="mc5e2b18133" d="M 0 0 
L -3.5 0 
" style="stroke: #000000; stroke-width: 0.8"/>
      </defs>
      <g>
       <use xlink:href="#mc5e2b18133" x="60.675514" y="597.445846" style="stroke: #000000; stroke-width: 0.8"/>
      </g>
     </g>
     <g id="text_3">
      <!-- $\mathdefault{10^{7}}$ -->
      <g transform="translate(28.109612 604.364344) scale(0.2 -0.2)">
       <defs>
        <path id="CMSS17-37" d="M 1389 3788 
C 1466 3788 1542 3795 1619 3795 
L 2355 3795 
C 1440 2715 915 1350 915 -64 
L 1427 -64 
C 1427 1305 1875 2695 2752 3807 
L 2752 4224 
L 250 4224 
L 250 3788 
L 1389 3788 
z
" transform="scale(0.015625)"/>
       </defs>
       <use xlink:href="#CMSS17-31" transform="scale(0.996264)"/>
       <use xlink:href="#CMSS17-30" transform="translate(46.843624 0) scale(0.996264)"/>
       <use xlink:href="#CMSS17-37" transform="translate(93.687247 36.153639) scale(0.697382)"/>
      </g>
     </g>
    </g>
    <g id="ytick_2">
     <g id="line2d_13">
      <g>
       <use xlink:href="#mc5e2b18133" x="60.675514" y="78.596309" style="stroke: #000000; stroke-width: 0.8"/>
      </g>
     </g>
     <g id="text_4">
      <!-- $\mathdefault{10^{8}}$ -->
      <g transform="translate(28.109612 85.514807) scale(0.2 -0.2)">
       <defs>
        <path id="CMSS17-38" d="M 1933 2246 
C 2419 2406 2669 2793 2669 3174 
C 2669 3774 2157 4288 1504 4288 
C 826 4288 333 3755 333 3174 
C 333 2799 576 2412 1069 2246 
C 442 2003 250 1516 250 1152 
C 250 448 819 -128 1498 -128 
C 2202 -128 2752 460 2752 1152 
C 2752 1574 2502 2022 1933 2246 
z
M 1504 2438 
C 1075 2438 787 2728 787 3167 
C 787 3613 1075 3897 1504 3897 
C 1901 3897 2214 3639 2214 3167 
C 2214 2703 1907 2438 1504 2438 
z
M 1504 268 
C 1139 268 749 518 749 1158 
C 749 1817 1184 2048 1498 2048 
C 1843 2048 2253 1804 2253 1158 
C 2253 492 1830 268 1504 268 
z
" transform="scale(0.015625)"/>
       </defs>
       <use xlink:href="#CMSS17-31" transform="scale(0.996264)"/>
       <use xlink:href="#CMSS17-30" transform="translate(46.843624 0) scale(0.996264)"/>
       <use xlink:href="#CMSS17-38" transform="translate(93.687247 36.153639) scale(0.697382)"/>
      </g>
     </g>
    </g>
    <g id="ytick_3">
     <g id="line2d_14">
      <defs>
       <path id="mae1e54c9f7" d="M 0 0 
L -2 0 
" style="stroke: #000000; stroke-width: 0.6"/>
      </defs>
      <g>
       <use xlink:href="#mae1e54c9f7" x="60.675514" y="441.256572" style="stroke: #000000; stroke-width: 0.6"/>
      </g>
     </g>
    </g>
    <g id="ytick_4">
     <g id="line2d_15">
      <g>
       <use xlink:href="#mae1e54c9f7" x="60.675514" y="349.891704" style="stroke: #000000; stroke-width: 0.6"/>
      </g>
     </g>
    </g>
    <g id="ytick_5">
     <g id="line2d_16">
      <g>
       <use xlink:href="#mae1e54c9f7" x="60.675514" y="285.067298" style="stroke: #000000; stroke-width: 0.6"/>
      </g>
     </g>
    </g>
    <g id="ytick_6">
     <g id="line2d_17">
      <g>
       <use xlink:href="#mae1e54c9f7" x="60.675514" y="234.785583" style="stroke: #000000; stroke-width: 0.6"/>
      </g>
     </g>
    </g>
    <g id="ytick_7">
     <g id="line2d_18">
      <g>
       <use xlink:href="#mae1e54c9f7" x="60.675514" y="193.70243" style="stroke: #000000; stroke-width: 0.6"/>
      </g>
     </g>
    </g>
    <g id="ytick_8">
     <g id="line2d_19">
      <g>
       <use xlink:href="#mae1e54c9f7" x="60.675514" y="158.967119" style="stroke: #000000; stroke-width: 0.6"/>
      </g>
     </g>
    </g>
    <g id="ytick_9">
     <g id="line2d_20">
      <g>
       <use xlink:href="#mae1e54c9f7" x="60.675514" y="128.878024" style="stroke: #000000; stroke-width: 0.6"/>
      </g>
     </g>
    </g>
    <g id="ytick_10">
     <g id="line2d_21">
      <g>
       <use xlink:href="#mae1e54c9f7" x="60.675514" y="102.337562" style="stroke: #000000; stroke-width: 0.6"/>
      </g>
     </g>
    </g>
    <g id="text_5">
     <!-- $B_{k_1, k_2}(\theta)$ [$h^{-6}\mathrm{Mpc}^6$] -->
     <g transform="translate(19.028705 412.441545) rotate(-90) scale(0.2 -0.2)">
      <defs>
       <path id="CMSSI17-42" d="M 1517 4416 
L 570 0 
L 2163 0 
C 3149 0 3942 721 3942 1378 
C 3942 1876 3526 2220 2995 2316 
C 3622 2470 4224 2906 4224 3475 
C 4224 4013 3693 4416 2944 4416 
L 1517 4416 
z
M 1958 4057 
L 2694 4057 
C 3354 4057 3725 3735 3725 3406 
C 3725 3052 3245 2496 2298 2496 
L 1619 2496 
L 1958 4057 
z
M 1165 358 
L 1536 2105 
L 2387 2105 
C 2982 2105 3430 1780 3430 1340 
C 3430 830 2810 358 2061 358 
L 1165 358 
z
" transform="scale(0.015625)"/>
       <path id="CMSSI17-6b" d="M 2054 1686 
L 3270 2735 
L 2656 2735 
L 1286 1552 
L 1901 4416 
L 1427 4416 
L 480 0 
L 947 0 
L 1139 891 
L 1664 1342 
L 2278 0 
L 2822 0 
L 2054 1686 
z
" transform="scale(0.015625)"/>
       <path id="CMSS17-2c" d="M 1088 6 
L 1088 512 
L 576 512 
L 576 0 
L 736 0 
L 570 -775 
L 826 -775 
L 1088 6 
z
" transform="scale(0.015625)"/>
       <path id="CMSS17-32" d="M 1651 1353 
C 1830 1538 2099 1761 2285 1984 
C 2464 2201 2701 2507 2701 2953 
C 2701 3655 2227 4288 1421 4288 
C 787 4288 422 3891 250 3272 
L 499 2928 
C 640 3508 838 3878 1338 3878 
C 1888 3878 2195 3431 2195 2940 
C 2195 2354 1747 1901 1408 1563 
C 1030 1187 659 805 301 409 
L 301 0 
L 2701 0 
L 2701 435 
L 1613 435 
C 1536 435 1459 428 1382 428 
L 742 428 
L 742 435 
L 1651 1353 
z
" transform="scale(0.015625)"/>
       <path id="CMSS17-28" d="M 1613 4800 
C 1267 4447 474 3627 474 1603 
C 474 -428 1267 -1242 1613 -1600 
L 2003 -1600 
C 1216 -781 960 366 960 1596 
C 960 2820 1203 3973 2003 4800 
L 1613 4800 
z
" transform="scale(0.015625)"/>
       <path id="CMSS17-29" d="M 723 -1600 
C 1069 -1248 1862 -428 1862 1596 
C 1862 3627 1069 4440 723 4800 
L 333 4800 
C 1120 3979 1376 2833 1376 1603 
C 1376 379 1133 -774 333 -1600 
L 723 -1600 
z
" transform="scale(0.015625)"/>
       <path id="CMR17-5b" d="M 1504 -1600 
L 1504 -1376 
L 902 -1376 
L 902 4575 
L 1504 4575 
L 1504 4800 
L 678 4800 
L 678 -1600 
L 1504 -1600 
z
" transform="scale(0.015625)"/>
       <path id="CMSSI17-68" d="M 3021 1891 
C 3046 2000 3053 2058 3053 2219 
C 3053 2623 2829 2816 2387 2816 
C 1850 2816 1478 2425 1459 2406 
L 1453 2406 
L 1894 4416 
L 1421 4416 
L 474 0 
L 960 0 
L 1254 1389 
C 1312 1666 1478 2425 2061 2425 
C 2400 2425 2547 2290 2547 2039 
C 2547 1949 2541 1923 2534 1891 
L 2131 0 
L 2618 0 
L 3021 1891 
z
" transform="scale(0.015625)"/>
       <path id="CMSY10-0" d="M 4218 1472 
C 4326 1472 4442 1472 4442 1600 
C 4442 1728 4326 1728 4218 1728 
L 755 1728 
C 646 1728 531 1728 531 1600 
C 531 1472 646 1472 755 1472 
L 4218 1472 
z
" transform="scale(0.015625)"/>
       <path id="CMSS17-36" d="M 2496 4159 
C 2227 4268 2035 4288 1856 4288 
C 1024 4288 250 3408 250 2023 
C 250 268 986 -128 1510 -128 
C 1798 -128 2086 -39 2362 281 
C 2643 619 2752 900 2752 1392 
C 2752 2183 2362 2886 1779 2886 
C 1357 2886 992 2662 768 2381 
C 832 3290 1254 3897 1862 3897 
C 2029 3897 2246 3871 2496 3760 
L 2496 4159 
z
M 774 1372 
C 774 1423 774 1455 781 1551 
C 781 2049 1069 2496 1536 2496 
C 1837 2496 1990 2336 2106 2138 
C 2240 1889 2246 1653 2246 1392 
C 2246 1143 2246 894 2099 638 
C 1978 441 1818 268 1510 268 
C 902 268 800 1117 774 1372 
z
" transform="scale(0.015625)"/>
       <path id="CMSS17-4d" d="M 3194 2373 
L 2886 1476 
C 2835 1311 2662 795 2624 592 
L 2618 592 
C 2598 719 2560 853 2458 1177 
C 2400 1368 2336 1565 2272 1743 
L 1325 4416 
L 576 4416 
L 576 0 
L 1075 0 
L 1075 3899 
L 1082 3899 
C 1082 3893 1139 3613 1530 2500 
L 2374 102 
L 2848 102 
L 3610 2233 
C 3661 2379 3821 2843 3891 3066 
C 3955 3257 4115 3728 4154 3912 
L 4160 3912 
L 4160 0 
L 4666 0 
L 4666 4416 
L 3923 4416 
L 3194 2373 
z
" transform="scale(0.015625)"/>
       <path id="CMSS17-70" d="M 966 275 
C 1178 70 1466 -64 1773 -64 
C 2368 -64 2880 553 2880 1382 
C 2880 2147 2496 2816 1946 2816 
C 1626 2816 1242 2700 954 2470 
L 954 2764 
L 480 2764 
L 480 -1280 
L 966 -1280 
L 966 275 
z
M 966 2088 
C 1018 2166 1235 2412 1587 2412 
C 2035 2412 2394 1946 2394 1382 
C 2394 741 1958 326 1530 326 
C 1402 326 1267 358 1139 468 
C 966 624 966 721 966 812 
L 966 2088 
z
" transform="scale(0.015625)"/>
       <path id="CMSS17-63" d="M 2464 2540 
C 2464 2585 2170 2713 2093 2739 
C 1882 2816 1613 2816 1542 2816 
C 710 2816 211 2092 211 1363 
C 211 595 768 -64 1517 -64 
C 1946 -64 2253 76 2502 243 
L 2464 665 
C 2189 454 1869 339 1523 339 
C 1024 339 698 774 698 1369 
C 698 1830 909 2412 1549 2412 
C 1901 2412 2099 2342 2394 2143 
L 2464 2540 
z
" transform="scale(0.015625)"/>
       <path id="CMR17-5d" d="M 915 4800 
L 90 4800 
L 90 4575 
L 691 4575 
L 691 -1376 
L 90 -1376 
L 90 -1600 
L 915 -1600 
L 915 4800 
z
" transform="scale(0.015625)"/>
      </defs>
      <use xlink:href="#CMSSI17-42" transform="scale(0.996264)"/>
      <use xlink:href="#CMSSI17-6b" transform="translate(62.33804 -14.943915) scale(0.697382)"/>
      <use xlink:href="#CMSS17-31" transform="translate(94.25964 -25.404611) scale(0.498132)"/>
      <use xlink:href="#CMSS17-2c" transform="translate(118.179584 -14.943915) scale(0.697382)"/>
      <use xlink:href="#CMSSI17-6b" transform="translate(136.396442 -14.943915) scale(0.697382)"/>
      <use xlink:href="#CMSS17-32" transform="translate(168.318041 -25.404611) scale(0.498132)"/>
      <use xlink:href="#CMSS17-28" transform="translate(192.736117 0) scale(0.996264)"/>
      <use xlink:href="#CMMI12-12" transform="translate(229.170031 0) scale(0.996264)"/>
      <use xlink:href="#CMSS17-29" transform="translate(277.339539 0) scale(0.996264)"/>
      <use xlink:href="#CMR17-5b" transform="translate(343.84942 0) scale(0.996264)"/>
      <use xlink:href="#CMSSI17-68" transform="translate(368.720478 0) scale(0.996264)"/>
      <use xlink:href="#CMSY10-0" transform="translate(419.073904 36.153639) scale(0.697382)"/>
      <use xlink:href="#CMSS17-36" transform="translate(473.314898 36.153639) scale(0.697382)"/>
      <use xlink:href="#CMSS17-4d" transform="translate(506.603411 0) scale(0.996264)"/>
      <use xlink:href="#CMSS17-70" transform="translate(588.279441 0) scale(0.996264)"/>
      <use xlink:href="#CMSS17-63" transform="translate(639.086823 0) scale(0.996264)"/>
      <use xlink:href="#CMSS17-36" transform="translate(680.725645 42.258523) scale(0.697382)"/>
      <use xlink:href="#CMR17-5d" transform="translate(714.014158 0) scale(0.996264)"/>
     </g>
    </g>
   </g>
   <g id="line2d_22">
    <path d="M -1 327.548305 
L 93.140968 327.547235 
L 234.758068 331.302698 
L 317.598761 325.156884 
L 376.375168 331.154271 
L 421.965691 331.82791 
L 459.21586 326.567359 
L 490.71043 347.482448 
L 517.992267 355.360426 
L 542.056553 380.655183 
L 563.58279 400.943058 
L 583.05564 428.122899 
L 600.83296 437.210621 
L 617.186508 497.173523 
L 632.327529 498.744419 
L 646.423483 441.569651 
L 659.609367 430.040524 
L 671.995601 346.698721 
L 683.673653 277.041568 
L 694.720142 224.387123 
L 705.19989 201.842768 
L 715.168222 179.496629 
L 724.67274 166.11956 
L 733.754692 138.627911 
L 742.450059 137.627095 
" clip-path="url(#pbf72950b7d)" style="fill: none; stroke: #000000; stroke-width: 1.5; stroke-linecap: square"/>
   </g>
   <g id="line2d_23">
    <path d="M -1 332.340159 
L 93.140968 332.339716 
L 234.758068 336.480549 
L 317.598761 334.793065 
L 376.375168 333.769961 
L 421.965691 336.681559 
L 459.21586 338.160129 
L 490.71043 348.853686 
L 517.992267 367.107166 
L 542.056553 383.662586 
L 563.58279 404.403722 
L 583.05564 421.37596 
L 600.83296 428.131017 
L 617.186508 491.090713 
L 632.327529 490.57279 
L 646.423483 434.71246 
L 659.609367 432.287955 
L 671.995601 364.760217 
L 683.673653 300.615484 
L 694.720142 238.614619 
L 705.19989 195.814677 
L 715.168222 169.356312 
L 724.67274 159.560032 
L 733.754692 134.261667 
L 742.450059 134.024956 
" clip-path="url(#pbf72950b7d)" style="fill: none; stroke-dasharray: 3.7,1.6; stroke-dashoffset: 0; stroke: #ff0000"/>
   </g>
   <g id="patch_3">
    <path d="M 60.675514 602.784 
L 60.675514 70.56 
" style="fill: none; stroke: #000000; stroke-width: 0.8; stroke-linejoin: miter; stroke-linecap: square"/>
   </g>
   <g id="patch_4">
    <path d="M 774.915514 602.784 
L 774.915514 70.56 
" style="fill: none; stroke: #000000; stroke-width: 0.8; stroke-linejoin: miter; stroke-linecap: square"/>
   </g>
   <g id="patch_5">
    <path d="M 60.675514 602.784 
L 774.915514 602.784 
" style="fill: none; stroke: #000000; stroke-width: 0.8; stroke-linejoin: miter; stroke-linecap: square"/>
   </g>
   <g id="patch_6">
    <path d="M 60.675514 70.56 
L 774.915514 70.56 
" style="fill: none; stroke: #000000; stroke-width: 0.8; stroke-linejoin: miter; stroke-linecap: square"/>
   </g>
   <g id="text_6">
    <!-- $k_1 = 0.1h \ \mathrm{Mpc}^{-1}$ -->
    <g transform="translate(96.387514 545.685966) scale(0.2 -0.2)">
     <defs>
      <path id="CMSS17-3d" d="M 4147 2048 
C 4243 2048 4339 2048 4339 2156 
C 4339 2272 4230 2272 4122 2272 
L 550 2272 
C 442 2272 333 2272 333 2156 
C 333 2048 429 2048 525 2048 
L 4147 2048 
z
M 4122 927 
C 4230 927 4339 927 4339 1043 
C 4339 1152 4243 1152 4147 1152 
L 525 1152 
C 429 1152 333 1152 333 1043 
C 333 927 442 927 550 927 
L 4122 927 
z
" transform="scale(0.015625)"/>
      <path id="CMSS17-2e" d="M 1088 512 
L 576 512 
L 576 0 
L 1088 0 
L 1088 512 
z
" transform="scale(0.015625)"/>
     </defs>
     <use xlink:href="#CMSSI17-6b" transform="scale(0.996264)"/>
     <use xlink:href="#CMSS17-31" transform="translate(45.602489 -14.943915) scale(0.697382)"/>
     <use xlink:href="#CMSS17-3d" transform="translate(106.565011 0) scale(0.996264)"/>
     <use xlink:href="#CMSS17-30" transform="translate(207.106955 0) scale(0.996264)"/>
     <use xlink:href="#CMSS17-2e" transform="translate(253.950578 0) scale(0.996264)"/>
     <use xlink:href="#CMSS17-31" transform="translate(279.974783 0) scale(0.996264)"/>
     <use xlink:href="#CMSSI17-68" transform="translate(326.818407 0) scale(0.996264)"/>
     <use xlink:href="#CMSS17-4d" transform="translate(407.247799 0) scale(0.996264)"/>
     <use xlink:href="#CMSS17-70" transform="translate(488.923829 0) scale(0.996264)"/>
     <use xlink:href="#CMSS17-63" transform="translate(539.731211 0) scale(0.996264)"/>
     <use xlink:href="#CMSY10-0" transform="translate(581.370033 42.258523) scale(0.697382)"/>
     <use xlink:href="#CMSS17-31" transform="translate(635.611027 42.258523) scale(0.697382)"/>
    </g>
   </g>
   <g id="text_7">
    <!-- $k_2 = 0.2h \ \mathrm{Mpc}^{-1}$ -->
    <g transform="translate(96.387514 569.296739) scale(0.2 -0.2)">
     <use xlink:href="#CMSSI17-6b" transform="scale(0.996264)"/>
     <use xlink:href="#CMSS17-32" transform="translate(45.602489 -14.943915) scale(0.697382)"/>
     <use xlink:href="#CMSS17-3d" transform="translate(106.565011 0) scale(0.996264)"/>
     <use xlink:href="#CMSS17-30" transform="translate(207.106955 0) scale(0.996264)"/>
     <use xlink:href="#CMSS17-2e" transform="translate(253.950578 0) scale(0.996264)"/>
     <use xlink:href="#CMSS17-32" transform="translate(279.974783 0) scale(0.996264)"/>
     <use xlink:href="#CMSSI17-68" transform="translate(326.818407 0) scale(0.996264)"/>
     <use xlink:href="#CMSS17-4d" transform="translate(407.247799 0) scale(0.996264)"/>
     <use xlink:href="#CMSS17-70" transform="translate(488.923829 0) scale(0.996264)"/>
     <use xlink:href="#CMSS17-63" transform="translate(539.731211 0) scale(0.996264)"/>
     <use xlink:href="#CMSY10-0" transform="translate(581.370033 42.258523) scale(0.697382)"/>
     <use xlink:href="#CMSS17-31" transform="translate(635.611027 42.258523) scale(0.697382)"/>
    </g>
   </g>
   <g id="legend_1">
    <g id="patch_7">
     <path d="M 74.675514 144.326299 
L 281.531467 144.326299 
Q 285.531467 144.326299 285.531467 140.326299 
L 285.531467 84.56 
Q 285.531467 80.56 281.531467 80.56 
L 74.675514 80.56 
Q 70.675514 80.56 70.675514 84.56 
L 70.675514 140.326299 
Q 70.675514 144.326299 74.675514 144.326299 
z
" style="fill: #ffffff; opacity: 0.8; stroke: #cccccc; stroke-linejoin: miter"/>
    </g>
    <g id="line2d_24">
     <path d="M 78.675514 95.56 
L 98.675514 95.56 
L 118.675514 95.56 
" style="fill: none; stroke: #000000; stroke-width: 1.5; stroke-linecap: square"/>
    </g>
    <g id="text_8">
     <!-- ground truth -->
     <g transform="translate(134.675514 102.56) scale(0.2 -0.2)">
      <defs>
       <path id="CMR17-72" d="M 960 1517 
C 960 2134 1222 2713 1702 2713 
C 1747 2713 1792 2707 1837 2687 
C 1837 2687 1696 2642 1696 2475 
C 1696 2321 1818 2257 1914 2257 
C 1990 2257 2131 2302 2131 2482 
C 2131 2687 1926 2816 1709 2816 
C 1222 2816 1011 2340 947 2115 
L 941 2115 
L 941 2816 
L 198 2745 
L 198 2578 
C 576 2578 634 2540 634 2231 
L 634 443 
C 634 198 608 166 198 166 
L 198 0 
C 352 12 646 12 813 12 
C 998 12 1325 12 1498 0 
L 1498 166 
C 1037 166 960 166 960 455 
L 960 1517 
z
" transform="scale(0.015625)"/>
       <path id="CMR17-6f" d="M 2758 1356 
C 2758 2176 2163 2816 1466 2816 
C 768 2816 173 2176 173 1356 
C 173 550 768 -64 1466 -64 
C 2163 -64 2758 550 2758 1356 
z
M 1466 51 
C 1165 51 909 230 762 480 
C 602 768 582 1126 582 1408 
C 582 1676 595 2009 762 2297 
C 890 2508 1139 2713 1466 2713 
C 1754 2713 1997 2553 2150 2329 
C 2349 2028 2349 1606 2349 1408 
C 2349 1158 2336 774 2163 467 
C 1984 172 1709 51 1466 51 
z
" transform="scale(0.015625)"/>
       <path id="CMR17-75" d="M 1882 2745 
L 1882 2579 
C 2259 2579 2317 2540 2317 2229 
L 2317 1053 
C 2317 510 2029 38 1555 38 
C 1030 38 986 355 986 691 
L 986 2816 
L 211 2745 
L 211 2579 
C 467 2579 640 2579 646 2320 
L 646 1079 
C 646 646 646 368 813 187 
C 896 103 1056 -64 1517 -64 
C 2061 -64 2272 400 2323 536 
L 2330 536 
L 2330 -64 
L 3091 -13 
L 3091 154 
C 2714 154 2656 193 2656 503 
L 2656 2816 
L 1882 2745 
z
" transform="scale(0.015625)"/>
       <path id="CMR17-64" d="M 1869 4345 
L 1869 4179 
C 2246 4179 2304 4141 2304 3843 
L 2304 2371 
C 2278 2403 2016 2816 1498 2816 
C 845 2816 211 2228 211 1376 
C 211 529 806 -64 1434 -64 
C 1978 -64 2259 361 2291 406 
L 2291 -64 
L 3066 -13 
L 3066 154 
C 2688 154 2630 193 2630 503 
L 2630 4416 
L 1869 4345 
z
M 2291 762 
C 2291 568 2176 393 2029 264 
C 1811 70 1594 38 1472 38 
C 1286 38 621 135 621 1369 
C 621 2636 1363 2713 1530 2713 
C 1824 2713 2061 2545 2208 2313 
C 2291 2177 2291 2157 2291 2041 
L 2291 762 
z
" transform="scale(0.015625)"/>
       <path id="CMR17-74" d="M 966 2585 
L 1862 2585 
L 1862 2752 
L 966 2752 
L 966 3968 
L 851 3968 
C 838 3292 614 2700 70 2687 
L 70 2585 
L 627 2585 
L 627 778 
C 627 655 627 -64 1370 -64 
C 1747 -64 1965 308 1965 784 
L 1965 1151 
L 1850 1151 
L 1850 790 
C 1850 347 1677 51 1408 51 
C 1222 51 966 179 966 765 
L 966 2585 
z
" transform="scale(0.015625)"/>
       <path id="CMR17-68" d="M 2656 1954 
C 2656 2282 2592 2816 1837 2816 
C 1312 2816 1056 2392 979 2179 
L 973 2179 
L 973 4416 
L 211 4345 
L 211 4179 
C 589 4179 646 4141 646 3843 
L 646 443 
C 646 198 621 166 211 166 
L 211 0 
C 365 12 646 12 813 12 
C 979 12 1267 12 1421 0 
L 1421 166 
C 1011 166 986 192 986 443 
L 986 1678 
C 986 2269 1344 2713 1792 2713 
C 2266 2713 2317 2289 2317 1980 
L 2317 443 
C 2317 198 2291 166 1882 166 
L 1882 0 
C 2035 12 2317 12 2483 12 
C 2650 12 2938 12 3091 0 
L 3091 166 
C 2682 166 2656 192 2656 443 
L 2656 1954 
z
" transform="scale(0.015625)"/>
      </defs>
      <use xlink:href="#CMR17-67" transform="scale(0.996264)"/>
      <use xlink:href="#CMR17-72" transform="translate(45.690477 0) scale(0.996264)"/>
      <use xlink:href="#CMR17-6f" transform="translate(80.971245 0) scale(0.996264)"/>
      <use xlink:href="#CMR17-75" transform="translate(126.661722 0) scale(0.996264)"/>
      <use xlink:href="#CMR17-6e" transform="translate(177.557092 0) scale(0.996264)"/>
      <use xlink:href="#CMR17-64" transform="translate(228.452462 0) scale(0.996264)"/>
      <use xlink:href="#CMR17-74" transform="translate(309.423798 0) scale(0.996264)"/>
      <use xlink:href="#CMR17-72" transform="translate(344.704566 0) scale(0.996264)"/>
      <use xlink:href="#CMR17-75" transform="translate(379.985333 0) scale(0.996264)"/>
      <use xlink:href="#CMR17-74" transform="translate(430.880703 0) scale(0.996264)"/>
      <use xlink:href="#CMR17-68" transform="translate(466.161471 0) scale(0.996264)"/>
     </g>
    </g>
    <g id="line2d_25">
     <path d="M 78.675514 124.361656 
L 98.675514 124.361656 
L 118.675514 124.361656 
" style="fill: none; stroke-dasharray: 5.55,2.4; stroke-dashoffset: 0; stroke: #ff0000; stroke-width: 1.5"/>
    </g>
    <g id="text_9">
     <!-- prediction (mean) -->
     <g transform="translate(134.675514 131.361656) scale(0.2 -0.2)">
      <defs>
       <path id="CMR17-70" d="M 1408 -1114 
C 998 -1114 973 -1088 973 -834 
L 973 380 
C 1158 109 1427 -64 1766 -64 
C 2406 -64 3053 503 3053 1382 
C 3053 2196 2496 2816 1837 2816 
C 1453 2816 1139 2603 960 2345 
L 960 2816 
L 198 2745 
L 198 2577 
C 576 2577 634 2539 634 2228 
L 634 -834 
C 634 -1081 608 -1114 198 -1114 
L 198 -1280 
C 352 -1268 634 -1268 800 -1268 
C 966 -1268 1254 -1268 1408 -1280 
L 1408 -1114 
z
M 973 2015 
C 973 2106 973 2241 1222 2481 
C 1254 2506 1472 2700 1792 2700 
C 2259 2700 2643 2112 2643 1376 
C 2643 639 2234 38 1728 38 
C 1498 38 1248 148 1056 451 
C 973 594 973 632 973 736 
L 973 2015 
z
" transform="scale(0.015625)"/>
       <path id="CMR17-69" d="M 992 3961 
C 992 4102 877 4224 730 4224 
C 589 4224 467 4108 467 3961 
C 467 3820 582 3699 730 3699 
C 870 3699 992 3814 992 3961 
z
M 243 2745 
L 243 2579 
C 602 2579 653 2540 653 2231 
L 653 443 
C 653 198 627 166 218 166 
L 218 0 
C 371 12 646 12 806 12 
C 960 12 1222 12 1370 0 
L 1370 166 
C 992 166 979 205 979 436 
L 979 2816 
L 243 2745 
z
" transform="scale(0.015625)"/>
       <path id="CMR17-63" d="M 2234 2240 
C 2112 2240 1933 2240 1933 2015 
C 1933 1836 2080 1785 2163 1785 
C 2208 1785 2394 1804 2394 2028 
C 2394 2476 1958 2816 1466 2816 
C 787 2816 211 2201 211 1379 
C 211 521 813 -64 1466 -64 
C 2259 -64 2458 676 2458 747 
C 2458 773 2451 792 2406 792 
C 2362 792 2355 786 2330 702 
C 2163 180 1798 51 1523 51 
C 1114 51 621 431 621 1385 
C 621 2358 1094 2700 1472 2700 
C 1722 2700 2093 2582 2234 2240 
z
" transform="scale(0.015625)"/>
       <path id="CMR17-28" d="M 1958 -1562 
C 1958 -1556 1958 -1543 1939 -1524 
C 1645 -1223 858 -403 858 1596 
C 858 3595 1632 4408 1946 4729 
C 1946 4735 1958 4748 1958 4767 
C 1958 4787 1939 4800 1914 4800 
C 1843 4800 1299 4325 986 3620 
C 666 2909 576 2218 576 1603 
C 576 1141 621 360 1005 -467 
C 1312 -1133 1837 -1600 1914 -1600 
C 1946 -1600 1958 -1588 1958 -1562 
z
" transform="scale(0.015625)"/>
       <path id="CMR17-6d" d="M 4326 1954 
C 4326 2276 4269 2816 3507 2816 
C 3072 2816 2771 2520 2656 2173 
L 2650 2173 
C 2573 2700 2195 2816 1837 2816 
C 1331 2816 1069 2424 973 2166 
L 966 2166 
L 966 2816 
L 211 2745 
L 211 2578 
C 589 2578 646 2540 646 2231 
L 646 443 
C 646 198 621 166 211 166 
L 211 0 
C 365 12 646 12 813 12 
C 979 12 1267 12 1421 0 
L 1421 166 
C 1011 166 986 192 986 443 
L 986 1678 
C 986 2269 1344 2713 1792 2713 
C 2266 2713 2317 2289 2317 1980 
L 2317 443 
C 2317 198 2291 166 1882 166 
L 1882 0 
C 2035 12 2317 12 2483 12 
C 2650 12 2938 12 3091 0 
L 3091 166 
C 2682 166 2656 192 2656 443 
L 2656 1678 
C 2656 2269 3014 2713 3462 2713 
C 3936 2713 3987 2289 3987 1980 
L 3987 443 
C 3987 198 3962 166 3552 166 
L 3552 0 
C 3706 12 3987 12 4154 12 
C 4320 12 4608 12 4762 0 
L 4762 166 
C 4352 166 4326 192 4326 443 
L 4326 1954 
z
" transform="scale(0.015625)"/>
       <path id="CMR17-61" d="M 2304 1656 
C 2304 2048 2304 2275 2035 2534 
C 1798 2751 1523 2816 1306 2816 
C 800 2816 435 2408 435 1977 
C 435 1740 627 1728 666 1728 
C 749 1728 896 1779 896 1958 
C 896 2118 774 2188 666 2188 
C 640 2188 608 2182 589 2176 
C 723 2594 1069 2713 1293 2713 
C 1613 2713 1965 2421 1965 1875 
L 1965 1632 
C 1587 1619 1133 1568 774 1373 
C 371 1147 256 822 256 576 
C 256 77 832 -64 1171 -64 
C 1523 -64 1850 135 1990 505 
C 2003 219 2182 -39 2464 -39 
C 2598 -39 2938 51 2938 563 
L 2938 926 
L 2822 926 
L 2822 557 
C 2822 161 2650 109 2566 109 
C 2304 109 2304 446 2304 732 
L 2304 1656 
z
M 1965 887 
C 1965 323 1568 38 1216 38 
C 896 38 646 278 646 576 
C 646 771 730 1114 1101 1322 
C 1408 1497 1760 1523 1965 1536 
L 1965 887 
z
" transform="scale(0.015625)"/>
       <path id="CMR17-29" d="M 1683 1596 
C 1683 2057 1638 2839 1254 3665 
C 947 4332 422 4800 346 4800 
C 326 4800 301 4793 301 4761 
C 301 4748 307 4742 314 4729 
C 621 4408 1402 3595 1402 1603 
C 1402 -396 627 -1210 314 -1530 
C 307 -1543 301 -1549 301 -1562 
C 301 -1594 326 -1600 346 -1600 
C 416 -1600 960 -1127 1274 -422 
C 1594 289 1683 981 1683 1596 
z
" transform="scale(0.015625)"/>
      </defs>
      <use xlink:href="#CMR17-70" transform="scale(0.996264)"/>
      <use xlink:href="#CMR17-72" transform="translate(50.89537 0) scale(0.996264)"/>
      <use xlink:href="#CMR17-65" transform="translate(86.176138 0) scale(0.996264)"/>
      <use xlink:href="#CMR17-64" transform="translate(126.661798 0) scale(0.996264)"/>
      <use xlink:href="#CMR17-69" transform="translate(177.557168 0) scale(0.996264)"/>
      <use xlink:href="#CMR17-63" transform="translate(202.428226 0) scale(0.996264)"/>
      <use xlink:href="#CMR17-74" transform="translate(242.913887 0) scale(0.996264)"/>
      <use xlink:href="#CMR17-69" transform="translate(278.194655 0) scale(0.996264)"/>
      <use xlink:href="#CMR17-6f" transform="translate(303.065713 0) scale(0.996264)"/>
      <use xlink:href="#CMR17-6e" transform="translate(348.75619 0) scale(0.996264)"/>
      <use xlink:href="#CMR17-28" transform="translate(429.727526 0) scale(0.996264)"/>
      <use xlink:href="#CMR17-6d" transform="translate(465.008294 0) scale(0.996264)"/>
      <use xlink:href="#CMR17-65" transform="translate(541.927884 0) scale(0.996264)"/>
      <use xlink:href="#CMR17-61" transform="translate(582.413544 0) scale(0.996264)"/>
      <use xlink:href="#CMR17-6e" transform="translate(628.104022 0) scale(0.996264)"/>
      <use xlink:href="#CMR17-29" transform="translate(678.999391 0) scale(0.996264)"/>
     </g>
    </g>
   </g>
  </g>
  <g id="text_10">
   <!-- $3\cdot 10^{12}\leq M_{\mathrm{vir}} [M_\odot]&lt;1\cdot 10^{13}$ -->
   <g transform="translate(265.247522 21.081265) scale(0.24 -0.24)">
    <defs>
     <path id="CMSS17-33" d="M 1005 2060 
L 1440 2060 
C 2042 2060 2214 1532 2214 1164 
C 2214 662 1933 268 1472 268 
C 1114 268 608 449 320 926 
C 275 700 275 687 250 533 
C 550 89 1037 -128 1485 -128 
C 2214 -128 2752 481 2752 1158 
C 2752 1667 2400 2092 1920 2252 
C 2304 2463 2586 2860 2586 3321 
C 2586 3859 2093 4288 1491 4288 
C 941 4288 512 3948 333 3583 
C 378 3519 493 3334 550 3238 
C 691 3615 1056 3897 1485 3897 
C 1843 3897 2080 3660 2080 3321 
C 2080 2969 1856 2585 1478 2496 
C 1453 2496 1056 2457 1005 2451 
L 1005 2060 
z
" transform="scale(0.015625)"/>
     <path id="CMSY10-1" d="M 1229 1619 
C 1229 1804 1075 1958 890 1958 
C 704 1958 550 1804 550 1619 
C 550 1433 704 1280 890 1280 
C 1075 1280 1229 1433 1229 1619 
z
" transform="scale(0.015625)"/>
     <path id="CMSY10-14" d="M 4320 3826 
C 4390 3858 4442 3890 4442 3967 
C 4442 4038 4390 4096 4314 4096 
C 4282 4096 4224 4070 4198 4057 
L 659 2381 
C 550 2329 531 2284 531 2233 
C 531 2175 570 2130 659 2092 
L 4198 422 
C 4282 377 4294 377 4314 377 
C 4384 377 4442 435 4442 505 
C 4442 563 4416 601 4307 653 
L 960 2233 
L 4320 3826 
z
M 4218 -896 
C 4326 -896 4442 -896 4442 -768 
C 4442 -640 4307 -640 4211 -640 
L 762 -640 
C 666 -640 531 -640 531 -768 
C 531 -896 646 -896 755 -896 
L 4218 -896 
z
" transform="scale(0.015625)"/>
     <path id="CMSSI17-4d" d="M 5613 4416 
L 4864 4416 
L 3802 2551 
L 3270 1590 
C 3104 1291 2822 783 2752 592 
L 2746 592 
C 2746 923 2688 1393 2643 1711 
L 2272 4416 
L 1523 4416 
L 576 0 
L 1075 0 
L 1920 3912 
L 1920 3842 
C 1920 3607 2022 2773 2093 2258 
L 2394 102 
L 2874 102 
L 3994 2067 
L 4518 3015 
C 4544 3060 4979 3855 4986 3893 
L 4992 3893 
L 4160 0 
L 4666 0 
L 5613 4416 
z
" transform="scale(0.015625)"/>
     <path id="CMSS17-76" d="M 2675 2752 
L 2176 2752 
L 1747 1555 
C 1613 1164 1421 627 1389 352 
L 1382 352 
C 1370 467 1318 633 1286 748 
C 1248 889 1197 1056 1158 1171 
L 595 2752 
L 83 2752 
L 1094 0 
L 1664 0 
L 2675 2752 
z
" transform="scale(0.015625)"/>
     <path id="CMSS17-69" d="M 979 4224 
L 442 4224 
L 442 3686 
L 979 3686 
L 979 4224 
z
M 947 2752 
L 474 2752 
L 474 0 
L 947 0 
L 947 2752 
z
" transform="scale(0.015625)"/>
     <path id="CMSS17-72" d="M 954 1369 
C 954 1974 1395 2379 1958 2392 
L 1958 2816 
C 1549 2809 1165 2604 934 2270 
L 934 2783 
L 480 2783 
L 480 0 
L 954 0 
L 954 1369 
z
" transform="scale(0.015625)"/>
     <path id="CMSS17-5b" d="M 1613 -1600 
L 1613 -1210 
L 1062 -1210 
L 1062 4409 
L 1613 4409 
L 1613 4800 
L 595 4800 
L 595 -1600 
L 1613 -1600 
z
" transform="scale(0.015625)"/>
     <path id="CMSY10-c" d="M 4621 1606 
C 4621 2787 3661 3744 2490 3744 
C 1299 3744 352 2774 352 1606 
C 352 419 1312 -545 2483 -545 
C 3674 -545 4621 432 4621 1606 
z
M 2490 -384 
C 1389 -384 512 516 512 1606 
C 512 2709 1408 3584 2483 3584 
C 3584 3584 4461 2690 4461 1606 
C 4461 497 3565 -384 2490 -384 
z
M 2925 1606 
C 2925 1849 2726 2048 2490 2048 
C 2234 2048 2048 1836 2048 1606 
C 2048 1363 2246 1164 2483 1164 
C 2739 1164 2925 1375 2925 1606 
z
" transform="scale(0.015625)"/>
     <path id="CMSS17-5d" d="M 1146 4800 
L 128 4800 
L 128 4409 
L 678 4409 
L 678 -1210 
L 128 -1210 
L 128 -1600 
L 1146 -1600 
L 1146 4800 
z
" transform="scale(0.015625)"/>
     <path id="CMMI12-3c" d="M 4218 3134 
C 4333 3186 4346 3231 4346 3270 
C 4346 3340 4294 3392 4224 3392 
C 4211 3392 4205 3385 4115 3347 
L 653 1738 
C 538 1687 525 1641 525 1603 
C 525 1557 531 1519 653 1460 
L 4115 -148 
C 4198 -186 4211 -192 4224 -192 
C 4294 -192 4346 -141 4346 -71 
C 4346 -32 4333 13 4218 65 
L 922 1596 
L 4218 3134 
z
" transform="scale(0.015625)"/>
    </defs>
    <use xlink:href="#CMSS17-33" transform="scale(0.996264)"/>
    <use xlink:href="#CMSY10-1" transform="translate(68.98283 0) scale(0.996264)"/>
    <use xlink:href="#CMSS17-31" transform="translate(118.796122 0) scale(0.996264)"/>
    <use xlink:href="#CMSS17-30" transform="translate(165.639746 0) scale(0.996264)"/>
    <use xlink:href="#CMSS17-31" transform="translate(212.483369 36.153639) scale(0.697382)"/>
    <use xlink:href="#CMSS17-32" transform="translate(245.273751 36.153639) scale(0.697382)"/>
    <use xlink:href="#CMSY10-14" transform="translate(306.236273 0) scale(0.996264)"/>
    <use xlink:href="#CMSSI17-4d" transform="translate(411.397749 0) scale(0.996264)"/>
    <use xlink:href="#CMSS17-76" transform="translate(493.073779 -14.943915) scale(0.697382)"/>
    <use xlink:href="#CMSS17-69" transform="translate(523.173734 -14.943915) scale(0.697382)"/>
    <use xlink:href="#CMSS17-72" transform="translate(538.700166 -14.943915) scale(0.697382)"/>
    <use xlink:href="#CMSS17-5b" transform="translate(562.445851 0) scale(0.996264)"/>
    <use xlink:href="#CMSSI17-4d" transform="translate(589.63129 0) scale(0.996264)"/>
    <use xlink:href="#CMSY10-c" transform="translate(671.30732 -14.943915) scale(0.697382)"/>
    <use xlink:href="#CMSS17-5d" transform="translate(726.046445 0) scale(0.996264)"/>
    <use xlink:href="#CMMI12-3c" transform="translate(780.905892 0) scale(0.996264)"/>
    <use xlink:href="#CMSS17-31" transform="translate(884.451997 0) scale(0.996264)"/>
    <use xlink:href="#CMSY10-1" transform="translate(953.434828 0) scale(0.996264)"/>
    <use xlink:href="#CMSS17-31" transform="translate(1003.248119 0) scale(0.996264)"/>
    <use xlink:href="#CMSS17-30" transform="translate(1050.091743 0) scale(0.996264)"/>
    <use xlink:href="#CMSS17-31" transform="translate(1096.935366 36.153639) scale(0.697382)"/>
    <use xlink:href="#CMSS17-33" transform="translate(1129.725748 36.153639) scale(0.697382)"/>
   </g>
  </g>
 </g>
 <defs>
  <clipPath id="pbf72950b7d">
   <rect x="60.675514" y="70.56" width="714.24" height="532.224"/>
  </clipPath>
 </defs>
</svg>
