<?xml version="1.0" encoding="utf-8" standalone="no"?>
<!DOCTYPE svg PUBLIC "-//W3C//DTD SVG 1.1//EN"
  "http://www.w3.org/Graphics/SVG/1.1/DTD/svg11.dtd">
<svg xmlns:xlink="http://www.w3.org/1999/xlink" width="776.239251pt" height="655.48998pt" viewBox="0 0 776.239251 655.48998" xmlns="http://www.w3.org/2000/svg" version="1.1">
 <metadata>
  <rdf:RDF xmlns:dc="http://purl.org/dc/elements/1.1/" xmlns:cc="http://creativecommons.org/ns#" xmlns:rdf="http://www.w3.org/1999/02/22-rdf-syntax-ns#">
   <cc:Work>
    <dc:type rdf:resource="http://purl.org/dc/dcmitype/StillImage"/>
    <dc:date>2023-11-28T23:37:45.747033</dc:date>
    <dc:format>image/svg+xml</dc:format>
    <dc:creator>
     <cc:Agent>
      <dc:title>Matplotlib v3.6.3, https://matplotlib.org/</dc:title>
     </cc:Agent>
    </dc:creator>
   </cc:Work>
  </rdf:RDF>
 </metadata>
 <defs>
  <style type="text/css">*{stroke-linejoin: round; stroke-linecap: butt}</style>
 </defs>
 <g id="figure_1">
  <g id="patch_1">
   <path d="M 0 655.48998 
L 776.239251 655.48998 
L 776.239251 0 
L 0 0 
z
" style="fill: #ffffff"/>
  </g>
  <g id="axes_1">
   <g id="patch_2">
    <path d="M 60.559251 602.784 
L 774.799251 602.784 
L 774.799251 70.56 
L 60.559251 70.56 
z
" style="fill: #ffffff"/>
   </g>
   <g id="PolyCollection_1">
    <path d="M 32.814788 113.718221 
L 32.814788 132.594697 
L 158.311418 135.923181 
L 242.162005 158.597678 
L 304.214189 213.095892 
L 354.260287 232.656157 
L 393.327491 261.915989 
L 427.694788 293.042125 
L 457.839963 318.278389 
L 484.818033 344.514333 
L 508.820023 350.290898 
L 530.27616 368.054135 
L 550.286122 389.543826 
L 569.061422 407.326895 
L 586.042873 417.730767 
L 601.831253 428.724779 
L 616.703938 438.334 
L 630.729678 452.709983 
L 644.006078 464.331771 
L 656.611951 467.109088 
L 668.587477 483.509698 
L 679.907354 490.486232 
L 690.673611 500.307007 
L 701.0925 507.839047 
L 711.004325 515.735721 
L 720.528874 523.081751 
L 729.764291 533.077827 
L 738.636884 537.928873 
L 747.106146 545.709948 
L 755.286784 551.366029 
L 763.178724 555.925581 
L 770.893165 560.187455 
L 778.359377 564.620609 
L 785.574433 569.76061 
L 792.579352 572.499614 
L 799.371796 577.005292 
L 806.017037 580.305606 
L 812.436878 584.32342 
L 818.666484 587.50838 
L 824.764245 591.509675 
L 830.641569 595.153807 
L 836.448345 598.593302 
L 842.176551 601.069012 
L 847.67871 603.532857 
L 852.999943 605.262663 
L 858.337444 608.090006 
L 863.609644 609.616112 
L 868.575681 613.755797 
L 873.412684 613.094355 
L 878.44531 618.420481 
L 883.583056 622.033999 
L 888.203433 621.962363 
L 891.888886 628.361398 
L 896.471462 638.847228 
L 901.201649 686.184655 
L 905.533265 351543.232587 
L 905.533265 478.236174 
L 905.533265 478.236174 
L 901.201649 578.788254 
L 896.471462 583.539926 
L 891.888886 596.770563 
L 888.203433 601.492186 
L 883.583056 607.398757 
L 878.44531 601.361956 
L 873.412684 601.661307 
L 868.575681 604.045391 
L 863.609644 600.882515 
L 858.337444 601.18436 
L 852.999943 597.72505 
L 847.67871 599.328902 
L 842.176551 596.548916 
L 836.448345 591.702076 
L 830.641569 589.385006 
L 824.764245 586.652016 
L 818.666484 583.256557 
L 812.436878 580.278826 
L 806.017037 576.60957 
L 799.371796 574.202532 
L 792.579352 568.395192 
L 785.574433 566.296837 
L 778.359377 560.713054 
L 770.893165 555.818109 
L 763.178724 552.759457 
L 755.286784 546.29884 
L 747.106146 542.014238 
L 738.636884 532.789831 
L 729.764291 530.036562 
L 720.528874 519.275044 
L 711.004325 512.207004 
L 701.0925 503.978491 
L 690.673611 496.14229 
L 679.907354 486.14961 
L 668.587477 479.309755 
L 656.611951 463.126688 
L 644.006078 459.597303 
L 630.729678 449.538032 
L 616.703938 432.783442 
L 601.831253 423.294723 
L 586.042873 412.713189 
L 569.061422 402.617172 
L 550.286122 384.710835 
L 530.27616 362.700231 
L 508.820023 343.857745 
L 484.818033 338.157901 
L 457.839963 312.971721 
L 427.694788 283.659365 
L 393.327491 254.979348 
L 354.260287 222.158778 
L 304.214189 204.852716 
L 242.162005 149.52642 
L 158.311418 126.594076 
L 32.814788 113.718221 
z
" clip-path="url(#p8230fd69aa)" style="fill: #ff0000; fill-opacity: 0.4; stroke: #ff0000; stroke-opacity: 0.4"/>
   </g>
   <g id="PolyCollection_2">
    <path d="M 32.814788 105.092205 
L 32.814788 142.991938 
L 158.311418 140.811693 
L 242.162005 163.344807 
L 304.214189 217.391469 
L 354.260287 238.18994 
L 393.327491 265.506785 
L 427.694788 297.960104 
L 457.839963 321.002876 
L 484.818033 347.795123 
L 508.820023 353.612576 
L 530.27616 370.803528 
L 550.286122 392.019214 
L 569.061422 409.737652 
L 586.042873 420.303085 
L 601.831253 431.514349 
L 616.703938 441.187208 
L 630.729678 454.321138 
L 644.006078 466.755495 
L 656.611951 469.140122 
L 668.587477 485.654018 
L 679.907354 492.701855 
L 690.673611 502.432967 
L 701.0925 509.806739 
L 711.004325 517.531292 
L 720.528874 525.021474 
L 729.764291 534.621595 
L 738.636884 540.565074 
L 747.106146 547.592066 
L 755.286784 553.96443 
L 763.178724 557.533729 
L 770.893165 562.420163 
L 778.359377 566.612725 
L 785.574433 571.522561 
L 792.579352 574.594162 
L 799.371796 578.426299 
L 806.017037 582.187892 
L 812.436878 586.386818 
L 818.666484 589.679754 
L 824.764245 593.998007 
L 830.641569 598.122469 
L 836.448345 602.159768 
L 842.176551 603.380501 
L 847.67871 605.679269 
L 852.999943 609.176481 
L 858.337444 611.664195 
L 863.609644 614.178655 
L 868.575681 618.854066 
L 873.412684 619.150526 
L 878.44531 627.726127 
L 883.583056 629.916561 
L 888.203433 633.333948 
L 891.888886 647.018553 
L 896.471462 676.507986 
L 901.201649 795.7363 
L 905.533265 351543.232587 
L 905.533265 411.508641 
L 905.533265 411.508641 
L 901.201649 544.469937 
L 896.471462 561.96653 
L 891.888886 583.139058 
L 888.203433 592.206154 
L 883.583056 600.577881 
L 878.44531 593.500905 
L 873.412684 596.251977 
L 868.575681 599.413388 
L 863.609644 596.697013 
L 858.337444 597.845765 
L 852.999943 594.091971 
L 847.67871 597.26975 
L 842.176551 594.338309 
L 836.448345 588.370221 
L 830.641569 586.580706 
L 824.764245 584.280205 
L 818.666484 581.174443 
L 812.436878 578.296195 
L 806.017037 574.794726 
L 799.371796 572.820302 
L 792.579352 566.383819 
L 785.574433 564.594116 
L 778.359377 558.796323 
L 770.893165 553.679665 
L 763.178724 551.200795 
L 755.286784 543.827234 
L 747.106146 540.199551 
L 738.636884 530.284048 
L 729.764291 528.538455 
L 720.528874 517.406865 
L 711.004325 510.472906 
L 701.0925 502.084381 
L 690.673611 494.101968 
L 679.907354 484.026843 
L 668.587477 477.252527 
L 656.611951 461.173955 
L 644.006078 457.284261 
L 630.729678 447.976545 
L 616.703938 430.082387 
L 601.831253 420.650768 
L 586.042873 410.265193 
L 569.061422 400.315944 
L 550.286122 382.350787 
L 530.27616 360.092395 
L 508.820023 340.740499 
L 484.818033 335.076692 
L 457.839963 310.386304 
L 427.694788 279.176663 
L 393.327491 251.626268 
L 354.260287 217.170072 
L 304.214189 200.89297 
L 242.162005 145.186099 
L 158.311418 122.135868 
L 32.814788 105.092205 
z
" clip-path="url(#p8230fd69aa)" style="fill: #ff0000; fill-opacity: 0.2; stroke: #ff0000; stroke-opacity: 0.2"/>
   </g>
   <g id="matplotlib.axis_1">
    <g id="xtick_1">
     <g id="line2d_1">
      <defs>
       <path id="mee2db720fe" d="M 0 0 
L 0 3.5 
" style="stroke: #000000; stroke-width: 0.8"/>
      </defs>
      <g>
       <use xlink:href="#mee2db720fe" x="443.602988" y="602.784" style="stroke: #000000; stroke-width: 0.8"/>
      </g>
     </g>
     <g id="text_1">
      <!-- $\mathdefault{10^{-1}}$ -->
      <g transform="translate(425.395943 623.620997) scale(0.2 -0.2)">
       <defs>
        <path id="CMSS17-31" d="M 1818 4288 
L 1696 4288 
C 1350 3949 947 3902 538 3891 
L 538 3520 
C 723 3526 1024 3539 1325 3673 
L 1325 371 
L 570 371 
L 570 0 
L 2573 0 
L 2573 371 
L 1818 371 
L 1818 4288 
z
" transform="scale(0.015625)"/>
        <path id="CMSS17-30" d="M 2758 2073 
C 2758 2439 2752 3120 2490 3647 
C 2227 4153 1805 4288 1504 4288 
C 1069 4288 698 4031 506 3621 
C 301 3191 243 2748 243 2073 
C 243 1611 262 1046 493 551 
C 755 6 1197 -128 1498 -128 
C 1894 -128 2278 83 2496 525 
C 2720 988 2758 1495 2758 2073 
z
M 1498 262 
C 1011 262 864 821 819 1007 
C 742 1328 730 1636 730 2144 
C 730 2542 730 2992 851 3345 
C 998 3756 1254 3897 1498 3897 
C 1971 3897 2125 3422 2176 3255 
C 2272 2915 2272 2516 2272 2144 
C 2272 1546 2272 262 1498 262 
z
" transform="scale(0.015625)"/>
        <path id="CMSY10-0" d="M 4218 1472 
C 4326 1472 4442 1472 4442 1600 
C 4442 1728 4326 1728 4218 1728 
L 755 1728 
C 646 1728 531 1728 531 1600 
C 531 1472 646 1472 755 1472 
L 4218 1472 
z
" transform="scale(0.015625)"/>
       </defs>
       <use xlink:href="#CMSS17-31" transform="scale(0.996264)"/>
       <use xlink:href="#CMSS17-30" transform="translate(46.843624 0) scale(0.996264)"/>
       <use xlink:href="#CMSY10-0" transform="translate(93.687247 36.153639) scale(0.697382)"/>
       <use xlink:href="#CMSS17-31" transform="translate(147.92824 36.153639) scale(0.697382)"/>
      </g>
     </g>
    </g>
    <g id="xtick_2">
     <g id="line2d_2">
      <defs>
       <path id="ma29c961d1a" d="M 0 0 
L 0 2 
" style="stroke: #000000; stroke-width: 0.6"/>
      </defs>
      <g>
       <use xlink:href="#ma29c961d1a" x="60.559251" y="602.784" style="stroke: #000000; stroke-width: 0.6"/>
      </g>
     </g>
    </g>
    <g id="xtick_3">
     <g id="line2d_3">
      <g>
       <use xlink:href="#ma29c961d1a" x="157.05932" y="602.784" style="stroke: #000000; stroke-width: 0.6"/>
      </g>
     </g>
    </g>
    <g id="xtick_4">
     <g id="line2d_4">
      <g>
       <use xlink:href="#ma29c961d1a" x="225.527209" y="602.784" style="stroke: #000000; stroke-width: 0.6"/>
      </g>
     </g>
    </g>
    <g id="xtick_5">
     <g id="line2d_5">
      <g>
       <use xlink:href="#ma29c961d1a" x="278.63503" y="602.784" style="stroke: #000000; stroke-width: 0.6"/>
      </g>
     </g>
    </g>
    <g id="xtick_6">
     <g id="line2d_6">
      <g>
       <use xlink:href="#ma29c961d1a" x="322.027279" y="602.784" style="stroke: #000000; stroke-width: 0.6"/>
      </g>
     </g>
    </g>
    <g id="xtick_7">
     <g id="line2d_7">
      <g>
       <use xlink:href="#ma29c961d1a" x="358.714903" y="602.784" style="stroke: #000000; stroke-width: 0.6"/>
      </g>
     </g>
    </g>
    <g id="xtick_8">
     <g id="line2d_8">
      <g>
       <use xlink:href="#ma29c961d1a" x="390.495168" y="602.784" style="stroke: #000000; stroke-width: 0.6"/>
      </g>
     </g>
    </g>
    <g id="xtick_9">
     <g id="line2d_9">
      <g>
       <use xlink:href="#ma29c961d1a" x="418.527348" y="602.784" style="stroke: #000000; stroke-width: 0.6"/>
      </g>
     </g>
    </g>
    <g id="xtick_10">
     <g id="line2d_10">
      <g>
       <use xlink:href="#ma29c961d1a" x="608.570947" y="602.784" style="stroke: #000000; stroke-width: 0.6"/>
      </g>
     </g>
    </g>
    <g id="xtick_11">
     <g id="line2d_11">
      <g>
       <use xlink:href="#ma29c961d1a" x="705.071016" y="602.784" style="stroke: #000000; stroke-width: 0.6"/>
      </g>
     </g>
    </g>
    <g id="xtick_12">
     <g id="line2d_12">
      <g>
       <use xlink:href="#ma29c961d1a" x="773.538905" y="602.784" style="stroke: #000000; stroke-width: 0.6"/>
      </g>
     </g>
    </g>
    <g id="text_2">
     <!-- $k$ [$h \ \mathrm{Mpc}^{-1}$] -->
     <g transform="translate(369.787145 649.085336) scale(0.2 -0.2)">
      <defs>
       <path id="CMSSI17-6b" d="M 2054 1686 
L 3270 2735 
L 2656 2735 
L 1286 1552 
L 1901 4416 
L 1427 4416 
L 480 0 
L 947 0 
L 1139 891 
L 1664 1342 
L 2278 0 
L 2822 0 
L 2054 1686 
z
" transform="scale(0.015625)"/>
       <path id="CMR17-5b" d="M 1504 -1600 
L 1504 -1376 
L 902 -1376 
L 902 4575 
L 1504 4575 
L 1504 4800 
L 678 4800 
L 678 -1600 
L 1504 -1600 
z
" transform="scale(0.015625)"/>
       <path id="CMSSI17-68" d="M 3021 1891 
C 3046 2000 3053 2058 3053 2219 
C 3053 2623 2829 2816 2387 2816 
C 1850 2816 1478 2425 1459 2406 
L 1453 2406 
L 1894 4416 
L 1421 4416 
L 474 0 
L 960 0 
L 1254 1389 
C 1312 1666 1478 2425 2061 2425 
C 2400 2425 2547 2290 2547 2039 
C 2547 1949 2541 1923 2534 1891 
L 2131 0 
L 2618 0 
L 3021 1891 
z
" transform="scale(0.015625)"/>
       <path id="CMSS17-4d" d="M 3194 2373 
L 2886 1476 
C 2835 1311 2662 795 2624 592 
L 2618 592 
C 2598 719 2560 853 2458 1177 
C 2400 1368 2336 1565 2272 1743 
L 1325 4416 
L 576 4416 
L 576 0 
L 1075 0 
L 1075 3899 
L 1082 3899 
C 1082 3893 1139 3613 1530 2500 
L 2374 102 
L 2848 102 
L 3610 2233 
C 3661 2379 3821 2843 3891 3066 
C 3955 3257 4115 3728 4154 3912 
L 4160 3912 
L 4160 0 
L 4666 0 
L 4666 4416 
L 3923 4416 
L 3194 2373 
z
" transform="scale(0.015625)"/>
       <path id="CMSS17-70" d="M 966 275 
C 1178 70 1466 -64 1773 -64 
C 2368 -64 2880 553 2880 1382 
C 2880 2147 2496 2816 1946 2816 
C 1626 2816 1242 2700 954 2470 
L 954 2764 
L 480 2764 
L 480 -1280 
L 966 -1280 
L 966 275 
z
M 966 2088 
C 1018 2166 1235 2412 1587 2412 
C 2035 2412 2394 1946 2394 1382 
C 2394 741 1958 326 1530 326 
C 1402 326 1267 358 1139 468 
C 966 624 966 721 966 812 
L 966 2088 
z
" transform="scale(0.015625)"/>
       <path id="CMSS17-63" d="M 2464 2540 
C 2464 2585 2170 2713 2093 2739 
C 1882 2816 1613 2816 1542 2816 
C 710 2816 211 2092 211 1363 
C 211 595 768 -64 1517 -64 
C 1946 -64 2253 76 2502 243 
L 2464 665 
C 2189 454 1869 339 1523 339 
C 1024 339 698 774 698 1369 
C 698 1830 909 2412 1549 2412 
C 1901 2412 2099 2342 2394 2143 
L 2464 2540 
z
" transform="scale(0.015625)"/>
       <path id="CMR17-5d" d="M 915 4800 
L 90 4800 
L 90 4575 
L 691 4575 
L 691 -1376 
L 90 -1376 
L 90 -1600 
L 915 -1600 
L 915 4800 
z
" transform="scale(0.015625)"/>
      </defs>
      <use xlink:href="#CMSSI17-6b" transform="scale(0.996264)"/>
      <use xlink:href="#CMR17-5b" transform="translate(83.753642 0) scale(0.996264)"/>
      <use xlink:href="#CMSSI17-68" transform="translate(108.624701 0) scale(0.996264)"/>
      <use xlink:href="#CMSS17-4d" transform="translate(189.054093 0) scale(0.996264)"/>
      <use xlink:href="#CMSS17-70" transform="translate(270.730123 0) scale(0.996264)"/>
      <use xlink:href="#CMSS17-63" transform="translate(321.537505 0) scale(0.996264)"/>
      <use xlink:href="#CMSY10-0" transform="translate(363.176327 42.258523) scale(0.697382)"/>
      <use xlink:href="#CMSS17-31" transform="translate(417.417321 42.258523) scale(0.697382)"/>
      <use xlink:href="#CMR17-5d" transform="translate(450.705834 0) scale(0.996264)"/>
     </g>
    </g>
   </g>
   <g id="matplotlib.axis_2">
    <g id="ytick_1">
     <g id="line2d_13">
      <defs>
       <path id="m08f42144d5" d="M 0 0 
L -3.5 0 
" style="stroke: #000000; stroke-width: 0.8"/>
      </defs>
      <g>
       <use xlink:href="#m08f42144d5" x="60.559251" y="602.784" style="stroke: #000000; stroke-width: 0.8"/>
      </g>
     </g>
     <g id="text_3">
      <!-- $\mathdefault{10^{3}}$ -->
      <g transform="translate(27.993349 609.702498) scale(0.2 -0.2)">
       <defs>
        <path id="CMSS17-33" d="M 1005 2060 
L 1440 2060 
C 2042 2060 2214 1532 2214 1164 
C 2214 662 1933 268 1472 268 
C 1114 268 608 449 320 926 
C 275 700 275 687 250 533 
C 550 89 1037 -128 1485 -128 
C 2214 -128 2752 481 2752 1158 
C 2752 1667 2400 2092 1920 2252 
C 2304 2463 2586 2860 2586 3321 
C 2586 3859 2093 4288 1491 4288 
C 941 4288 512 3948 333 3583 
C 378 3519 493 3334 550 3238 
C 691 3615 1056 3897 1485 3897 
C 1843 3897 2080 3660 2080 3321 
C 2080 2969 1856 2585 1478 2496 
C 1453 2496 1056 2457 1005 2451 
L 1005 2060 
z
" transform="scale(0.015625)"/>
       </defs>
       <use xlink:href="#CMSS17-31" transform="scale(0.996264)"/>
       <use xlink:href="#CMSS17-30" transform="translate(46.843624 0) scale(0.996264)"/>
       <use xlink:href="#CMSS17-33" transform="translate(93.687247 36.153639) scale(0.697382)"/>
      </g>
     </g>
    </g>
    <g id="ytick_2">
     <g id="line2d_14">
      <g>
       <use xlink:href="#m08f42144d5" x="60.559251" y="252.893224" style="stroke: #000000; stroke-width: 0.8"/>
      </g>
     </g>
     <g id="text_4">
      <!-- $\mathdefault{10^{4}}$ -->
      <g transform="translate(27.993349 259.811722) scale(0.2 -0.2)">
       <defs>
        <path id="CMSS17-34" d="M 2253 1088 
L 2835 1088 
L 2835 1478 
L 2253 1478 
L 2253 4224 
L 1690 4224 
L 166 1478 
L 166 1088 
L 1747 1088 
L 1747 0 
L 2253 0 
L 2253 1088 
z
M 659 1478 
C 1030 2139 1766 3474 1766 3927 
L 1766 1478 
L 659 1478 
z
" transform="scale(0.015625)"/>
       </defs>
       <use xlink:href="#CMSS17-31" transform="scale(0.996264)"/>
       <use xlink:href="#CMSS17-30" transform="translate(46.843624 0) scale(0.996264)"/>
       <use xlink:href="#CMSS17-34" transform="translate(93.687247 36.153639) scale(0.697382)"/>
      </g>
     </g>
    </g>
    <g id="ytick_3">
     <g id="line2d_15">
      <defs>
       <path id="m4c30c50cf1" d="M 0 0 
L -2 0 
" style="stroke: #000000; stroke-width: 0.6"/>
      </defs>
      <g>
       <use xlink:href="#m4c30c50cf1" x="60.559251" y="497.456381" style="stroke: #000000; stroke-width: 0.6"/>
      </g>
     </g>
    </g>
    <g id="ytick_4">
     <g id="line2d_16">
      <g>
       <use xlink:href="#m4c30c50cf1" x="60.559251" y="435.843674" style="stroke: #000000; stroke-width: 0.6"/>
      </g>
     </g>
    </g>
    <g id="ytick_5">
     <g id="line2d_17">
      <g>
       <use xlink:href="#m4c30c50cf1" x="60.559251" y="392.128762" style="stroke: #000000; stroke-width: 0.6"/>
      </g>
     </g>
    </g>
    <g id="ytick_6">
     <g id="line2d_18">
      <g>
       <use xlink:href="#m4c30c50cf1" x="60.559251" y="358.220843" style="stroke: #000000; stroke-width: 0.6"/>
      </g>
     </g>
    </g>
    <g id="ytick_7">
     <g id="line2d_19">
      <g>
       <use xlink:href="#m4c30c50cf1" x="60.559251" y="330.516055" style="stroke: #000000; stroke-width: 0.6"/>
      </g>
     </g>
    </g>
    <g id="ytick_8">
     <g id="line2d_20">
      <g>
       <use xlink:href="#m4c30c50cf1" x="60.559251" y="307.091991" style="stroke: #000000; stroke-width: 0.6"/>
      </g>
     </g>
    </g>
    <g id="ytick_9">
     <g id="line2d_21">
      <g>
       <use xlink:href="#m4c30c50cf1" x="60.559251" y="286.801143" style="stroke: #000000; stroke-width: 0.6"/>
      </g>
     </g>
    </g>
    <g id="ytick_10">
     <g id="line2d_22">
      <g>
       <use xlink:href="#m4c30c50cf1" x="60.559251" y="268.903348" style="stroke: #000000; stroke-width: 0.6"/>
      </g>
     </g>
    </g>
    <g id="ytick_11">
     <g id="line2d_23">
      <g>
       <use xlink:href="#m4c30c50cf1" x="60.559251" y="147.565605" style="stroke: #000000; stroke-width: 0.6"/>
      </g>
     </g>
    </g>
    <g id="ytick_12">
     <g id="line2d_24">
      <g>
       <use xlink:href="#m4c30c50cf1" x="60.559251" y="85.952898" style="stroke: #000000; stroke-width: 0.6"/>
      </g>
     </g>
    </g>
    <g id="text_5">
     <!-- $P(k)$ [$h^{-3}\mathrm{Mpc}^3$] -->
     <g transform="translate(19.028705 399.322817) rotate(-90) scale(0.2 -0.2)">
      <defs>
       <path id="CMSSI17-50" d="M 1498 1856 
L 2502 1856 
C 3373 1856 4198 2617 4198 3378 
C 4198 3912 3782 4416 3008 4416 
L 1517 4416 
L 570 0 
L 1107 0 
L 1498 1856 
z
M 1965 4057 
L 2797 4057 
C 3405 4057 3686 3743 3686 3340 
C 3686 2856 3270 2227 2400 2227 
L 1568 2227 
L 1965 4057 
z
" transform="scale(0.015625)"/>
       <path id="CMSS17-28" d="M 1613 4800 
C 1267 4447 474 3627 474 1603 
C 474 -428 1267 -1242 1613 -1600 
L 2003 -1600 
C 1216 -781 960 366 960 1596 
C 960 2820 1203 3973 2003 4800 
L 1613 4800 
z
" transform="scale(0.015625)"/>
       <path id="CMSS17-29" d="M 723 -1600 
C 1069 -1248 1862 -428 1862 1596 
C 1862 3627 1069 4440 723 4800 
L 333 4800 
C 1120 3979 1376 2833 1376 1603 
C 1376 379 1133 -774 333 -1600 
L 723 -1600 
z
" transform="scale(0.015625)"/>
      </defs>
      <use xlink:href="#CMSSI17-50" transform="scale(0.996264)"/>
      <use xlink:href="#CMSS17-28" transform="translate(68.162406 0) scale(0.996264)"/>
      <use xlink:href="#CMSSI17-6b" transform="translate(104.59632 0) scale(0.996264)"/>
      <use xlink:href="#CMSS17-29" transform="translate(158.273996 0) scale(0.996264)"/>
      <use xlink:href="#CMR17-5b" transform="translate(224.783876 0) scale(0.996264)"/>
      <use xlink:href="#CMSSI17-68" transform="translate(249.654935 0) scale(0.996264)"/>
      <use xlink:href="#CMSY10-0" transform="translate(300.008361 36.153639) scale(0.697382)"/>
      <use xlink:href="#CMSS17-33" transform="translate(354.249354 36.153639) scale(0.697382)"/>
      <use xlink:href="#CMSS17-4d" transform="translate(387.537868 0) scale(0.996264)"/>
      <use xlink:href="#CMSS17-70" transform="translate(469.213898 0) scale(0.996264)"/>
      <use xlink:href="#CMSS17-63" transform="translate(520.021279 0) scale(0.996264)"/>
      <use xlink:href="#CMSS17-33" transform="translate(561.660102 42.258523) scale(0.697382)"/>
      <use xlink:href="#CMR17-5d" transform="translate(594.948615 0) scale(0.996264)"/>
     </g>
    </g>
   </g>
   <g id="line2d_25">
    <path d="M 32.814788 117.045022 
L 158.311418 124.273183 
L 242.162005 142.488538 
L 304.214189 205.107076 
L 354.260287 222.721081 
L 393.327491 257.000584 
L 427.694788 289.429411 
L 457.839963 311.69029 
L 484.818033 338.506564 
L 508.820023 343.87398 
L 530.27616 366.780228 
L 550.286122 387.60727 
L 569.061422 408.846383 
L 586.042873 418.528682 
L 601.831253 433.914668 
L 616.703938 441.814406 
L 630.729678 458.285565 
L 644.006078 469.352527 
L 656.611951 470.284768 
L 668.587477 484.278376 
L 679.907354 489.575541 
L 690.673611 503.218484 
L 701.0925 513.445636 
L 711.004325 515.756533 
L 720.528874 520.134326 
L 729.764291 527.461653 
L 738.636884 531.371423 
L 747.106146 539.458578 
L 755.286784 534.844965 
L 763.178724 542.113592 
L 770.893165 547.515825 
L 777.239251 549.45806 
" clip-path="url(#p8230fd69aa)" style="fill: none; stroke: #000000; stroke-width: 1.5; stroke-linecap: square"/>
   </g>
   <g id="line2d_26">
    <path d="M 32.814788 122.863535 
L 158.311418 131.187046 
L 242.162005 153.994368 
L 304.214189 208.918415 
L 354.260287 227.316838 
L 393.327491 258.40809 
L 427.694788 288.278337 
L 457.839963 315.601891 
L 484.818033 341.302883 
L 508.820023 347.04028 
L 530.27616 365.353605 
L 550.286122 387.108117 
L 569.061422 404.953787 
L 586.042873 415.201269 
L 601.831253 425.985497 
L 616.703938 435.533379 
L 630.729678 451.115731 
L 644.006078 461.946099 
L 656.611951 465.104842 
L 668.587477 481.395216 
L 679.907354 488.302451 
L 690.673611 498.210381 
L 701.0925 505.896509 
L 711.004325 513.96112 
L 720.528874 521.166478 
L 729.764291 531.549586 
L 738.636884 535.337628 
L 747.106146 543.850858 
L 755.286784 548.811314 
L 763.178724 554.334273 
L 770.893165 557.987078 
L 777.239251 561.954071 
" clip-path="url(#p8230fd69aa)" style="fill: none; stroke-dasharray: 3.7,1.6; stroke-dashoffset: 0; stroke: #ff0000"/>
   </g>
   <g id="patch_3">
    <path d="M 60.559251 602.784 
L 60.559251 70.56 
" style="fill: none; stroke: #000000; stroke-width: 0.8; stroke-linejoin: miter; stroke-linecap: square"/>
   </g>
   <g id="patch_4">
    <path d="M 774.799251 602.784 
L 774.799251 70.56 
" style="fill: none; stroke: #000000; stroke-width: 0.8; stroke-linejoin: miter; stroke-linecap: square"/>
   </g>
   <g id="patch_5">
    <path d="M 60.559251 602.784 
L 774.799251 602.784 
" style="fill: none; stroke: #000000; stroke-width: 0.8; stroke-linejoin: miter; stroke-linecap: square"/>
   </g>
   <g id="patch_6">
    <path d="M 60.559251 70.56 
L 774.799251 70.56 
" style="fill: none; stroke: #000000; stroke-width: 0.8; stroke-linejoin: miter; stroke-linecap: square"/>
   </g>
   <g id="legend_1">
    <g id="patch_7">
     <path d="M 553.943298 144.326299 
L 760.799251 144.326299 
Q 764.799251 144.326299 764.799251 140.326299 
L 764.799251 84.56 
Q 764.799251 80.56 760.799251 80.56 
L 553.943298 80.56 
Q 549.943298 80.56 549.943298 84.56 
L 549.943298 140.326299 
Q 549.943298 144.326299 553.943298 144.326299 
z
" style="fill: #ffffff; opacity: 0.8; stroke: #cccccc; stroke-linejoin: miter"/>
    </g>
    <g id="line2d_27">
     <path d="M 557.943298 95.56 
L 577.943298 95.56 
L 597.943298 95.56 
" style="fill: none; stroke: #000000; stroke-width: 1.5; stroke-linecap: square"/>
    </g>
    <g id="text_6">
     <!-- ground truth -->
     <g transform="translate(613.943298 102.56) scale(0.2 -0.2)">
      <defs>
       <path id="CMR17-67" d="M 710 1165 
C 832 1068 1043 960 1299 960 
C 1805 960 2240 1359 2240 1895 
C 2240 2063 2189 2321 1997 2521 
C 2176 2713 2438 2777 2586 2777 
C 2611 2777 2650 2777 2682 2758 
C 2656 2751 2598 2726 2598 2623 
C 2598 2540 2656 2483 2739 2483 
C 2835 2483 2886 2547 2886 2630 
C 2886 2751 2790 2880 2586 2880 
C 2330 2880 2106 2758 1926 2591 
C 1734 2764 1504 2828 1299 2828 
C 794 2828 358 2431 358 1895 
C 358 1527 570 1294 634 1230 
C 442 1004 442 742 442 710 
C 442 544 506 300 723 166 
C 390 82 128 -184 128 -517 
C 128 -996 736 -1344 1466 -1344 
C 2170 -1344 2803 -1009 2803 -510 
C 2803 384 1856 384 1363 384 
C 1216 384 954 384 922 390 
C 723 422 589 601 589 825 
C 589 883 589 1024 710 1165 
z
M 1299 1068 
C 736 1068 736 1766 736 1895 
C 736 2024 736 2719 1299 2719 
C 1862 2719 1862 2024 1862 1895 
C 1862 1766 1862 1068 1299 1068 
z
M 1466 -1236 
C 826 -1236 384 -883 384 -517 
C 384 -311 493 -118 634 -11 
C 794 102 858 102 1293 102 
C 1818 102 2547 102 2547 -517 
C 2547 -883 2106 -1236 1466 -1236 
z
" transform="scale(0.015625)"/>
       <path id="CMR17-72" d="M 960 1517 
C 960 2134 1222 2713 1702 2713 
C 1747 2713 1792 2707 1837 2687 
C 1837 2687 1696 2642 1696 2475 
C 1696 2321 1818 2257 1914 2257 
C 1990 2257 2131 2302 2131 2482 
C 2131 2687 1926 2816 1709 2816 
C 1222 2816 1011 2340 947 2115 
L 941 2115 
L 941 2816 
L 198 2745 
L 198 2578 
C 576 2578 634 2540 634 2231 
L 634 443 
C 634 198 608 166 198 166 
L 198 0 
C 352 12 646 12 813 12 
C 998 12 1325 12 1498 0 
L 1498 166 
C 1037 166 960 166 960 455 
L 960 1517 
z
" transform="scale(0.015625)"/>
       <path id="CMR17-6f" d="M 2758 1356 
C 2758 2176 2163 2816 1466 2816 
C 768 2816 173 2176 173 1356 
C 173 550 768 -64 1466 -64 
C 2163 -64 2758 550 2758 1356 
z
M 1466 51 
C 1165 51 909 230 762 480 
C 602 768 582 1126 582 1408 
C 582 1676 595 2009 762 2297 
C 890 2508 1139 2713 1466 2713 
C 1754 2713 1997 2553 2150 2329 
C 2349 2028 2349 1606 2349 1408 
C 2349 1158 2336 774 2163 467 
C 1984 172 1709 51 1466 51 
z
" transform="scale(0.015625)"/>
       <path id="CMR17-75" d="M 1882 2745 
L 1882 2579 
C 2259 2579 2317 2540 2317 2229 
L 2317 1053 
C 2317 510 2029 38 1555 38 
C 1030 38 986 355 986 691 
L 986 2816 
L 211 2745 
L 211 2579 
C 467 2579 640 2579 646 2320 
L 646 1079 
C 646 646 646 368 813 187 
C 896 103 1056 -64 1517 -64 
C 2061 -64 2272 400 2323 536 
L 2330 536 
L 2330 -64 
L 3091 -13 
L 3091 154 
C 2714 154 2656 193 2656 503 
L 2656 2816 
L 1882 2745 
z
" transform="scale(0.015625)"/>
       <path id="CMR17-6e" d="M 2656 1954 
C 2656 2282 2592 2816 1837 2816 
C 1331 2816 1069 2424 973 2166 
L 966 2166 
L 966 2816 
L 211 2745 
L 211 2578 
C 589 2578 646 2540 646 2231 
L 646 443 
C 646 198 621 166 211 166 
L 211 0 
C 365 12 646 12 813 12 
C 979 12 1267 12 1421 0 
L 1421 166 
C 1011 166 986 192 986 443 
L 986 1678 
C 986 2269 1344 2713 1792 2713 
C 2266 2713 2317 2289 2317 1980 
L 2317 443 
C 2317 198 2291 166 1882 166 
L 1882 0 
C 2035 12 2317 12 2483 12 
C 2650 12 2938 12 3091 0 
L 3091 166 
C 2682 166 2656 192 2656 443 
L 2656 1954 
z
" transform="scale(0.015625)"/>
       <path id="CMR17-64" d="M 1869 4345 
L 1869 4179 
C 2246 4179 2304 4141 2304 3843 
L 2304 2371 
C 2278 2403 2016 2816 1498 2816 
C 845 2816 211 2228 211 1376 
C 211 529 806 -64 1434 -64 
C 1978 -64 2259 361 2291 406 
L 2291 -64 
L 3066 -13 
L 3066 154 
C 2688 154 2630 193 2630 503 
L 2630 4416 
L 1869 4345 
z
M 2291 762 
C 2291 568 2176 393 2029 264 
C 1811 70 1594 38 1472 38 
C 1286 38 621 135 621 1369 
C 621 2636 1363 2713 1530 2713 
C 1824 2713 2061 2545 2208 2313 
C 2291 2177 2291 2157 2291 2041 
L 2291 762 
z
" transform="scale(0.015625)"/>
       <path id="CMR17-74" d="M 966 2585 
L 1862 2585 
L 1862 2752 
L 966 2752 
L 966 3968 
L 851 3968 
C 838 3292 614 2700 70 2687 
L 70 2585 
L 627 2585 
L 627 778 
C 627 655 627 -64 1370 -64 
C 1747 -64 1965 308 1965 784 
L 1965 1151 
L 1850 1151 
L 1850 790 
C 1850 347 1677 51 1408 51 
C 1222 51 966 179 966 765 
L 966 2585 
z
" transform="scale(0.015625)"/>
       <path id="CMR17-68" d="M 2656 1954 
C 2656 2282 2592 2816 1837 2816 
C 1312 2816 1056 2392 979 2179 
L 973 2179 
L 973 4416 
L 211 4345 
L 211 4179 
C 589 4179 646 4141 646 3843 
L 646 443 
C 646 198 621 166 211 166 
L 211 0 
C 365 12 646 12 813 12 
C 979 12 1267 12 1421 0 
L 1421 166 
C 1011 166 986 192 986 443 
L 986 1678 
C 986 2269 1344 2713 1792 2713 
C 2266 2713 2317 2289 2317 1980 
L 2317 443 
C 2317 198 2291 166 1882 166 
L 1882 0 
C 2035 12 2317 12 2483 12 
C 2650 12 2938 12 3091 0 
L 3091 166 
C 2682 166 2656 192 2656 443 
L 2656 1954 
z
" transform="scale(0.015625)"/>
      </defs>
      <use xlink:href="#CMR17-67" transform="scale(0.996264)"/>
      <use xlink:href="#CMR17-72" transform="translate(45.690477 0) scale(0.996264)"/>
      <use xlink:href="#CMR17-6f" transform="translate(80.971245 0) scale(0.996264)"/>
      <use xlink:href="#CMR17-75" transform="translate(126.661722 0) scale(0.996264)"/>
      <use xlink:href="#CMR17-6e" transform="translate(177.557092 0) scale(0.996264)"/>
      <use xlink:href="#CMR17-64" transform="translate(228.452462 0) scale(0.996264)"/>
      <use xlink:href="#CMR17-74" transform="translate(309.423798 0) scale(0.996264)"/>
      <use xlink:href="#CMR17-72" transform="translate(344.704566 0) scale(0.996264)"/>
      <use xlink:href="#CMR17-75" transform="translate(379.985333 0) scale(0.996264)"/>
      <use xlink:href="#CMR17-74" transform="translate(430.880703 0) scale(0.996264)"/>
      <use xlink:href="#CMR17-68" transform="translate(466.161471 0) scale(0.996264)"/>
     </g>
    </g>
    <g id="line2d_28">
     <path d="M 557.943298 124.361656 
L 577.943298 124.361656 
L 597.943298 124.361656 
" style="fill: none; stroke-dasharray: 5.55,2.4; stroke-dashoffset: 0; stroke: #ff0000; stroke-width: 1.5"/>
    </g>
    <g id="text_7">
     <!-- prediction (mean) -->
     <g transform="translate(613.943298 131.361656) scale(0.2 -0.2)">
      <defs>
       <path id="CMR17-70" d="M 1408 -1114 
C 998 -1114 973 -1088 973 -834 
L 973 380 
C 1158 109 1427 -64 1766 -64 
C 2406 -64 3053 503 3053 1382 
C 3053 2196 2496 2816 1837 2816 
C 1453 2816 1139 2603 960 2345 
L 960 2816 
L 198 2745 
L 198 2577 
C 576 2577 634 2539 634 2228 
L 634 -834 
C 634 -1081 608 -1114 198 -1114 
L 198 -1280 
C 352 -1268 634 -1268 800 -1268 
C 966 -1268 1254 -1268 1408 -1280 
L 1408 -1114 
z
M 973 2015 
C 973 2106 973 2241 1222 2481 
C 1254 2506 1472 2700 1792 2700 
C 2259 2700 2643 2112 2643 1376 
C 2643 639 2234 38 1728 38 
C 1498 38 1248 148 1056 451 
C 973 594 973 632 973 736 
L 973 2015 
z
" transform="scale(0.015625)"/>
       <path id="CMR17-65" d="M 2438 1503 
C 2464 1529 2464 1542 2464 1606 
C 2464 2251 2118 2816 1389 2816 
C 710 2816 173 2175 173 1394 
C 173 554 781 -64 1459 -64 
C 2176 -64 2458 619 2458 755 
C 2458 800 2419 800 2406 800 
C 2362 800 2355 787 2330 709 
C 2189 270 1837 51 1504 51 
C 1229 51 954 206 781 490 
C 582 819 582 1200 582 1503 
L 2438 1503 
z
M 589 1600 
C 634 2511 1126 2713 1382 2713 
C 1818 2713 2112 2308 2118 1600 
L 589 1600 
z
" transform="scale(0.015625)"/>
       <path id="CMR17-69" d="M 992 3961 
C 992 4102 877 4224 730 4224 
C 589 4224 467 4108 467 3961 
C 467 3820 582 3699 730 3699 
C 870 3699 992 3814 992 3961 
z
M 243 2745 
L 243 2579 
C 602 2579 653 2540 653 2231 
L 653 443 
C 653 198 627 166 218 166 
L 218 0 
C 371 12 646 12 806 12 
C 960 12 1222 12 1370 0 
L 1370 166 
C 992 166 979 205 979 436 
L 979 2816 
L 243 2745 
z
" transform="scale(0.015625)"/>
       <path id="CMR17-63" d="M 2234 2240 
C 2112 2240 1933 2240 1933 2015 
C 1933 1836 2080 1785 2163 1785 
C 2208 1785 2394 1804 2394 2028 
C 2394 2476 1958 2816 1466 2816 
C 787 2816 211 2201 211 1379 
C 211 521 813 -64 1466 -64 
C 2259 -64 2458 676 2458 747 
C 2458 773 2451 792 2406 792 
C 2362 792 2355 786 2330 702 
C 2163 180 1798 51 1523 51 
C 1114 51 621 431 621 1385 
C 621 2358 1094 2700 1472 2700 
C 1722 2700 2093 2582 2234 2240 
z
" transform="scale(0.015625)"/>
       <path id="CMR17-28" d="M 1958 -1562 
C 1958 -1556 1958 -1543 1939 -1524 
C 1645 -1223 858 -403 858 1596 
C 858 3595 1632 4408 1946 4729 
C 1946 4735 1958 4748 1958 4767 
C 1958 4787 1939 4800 1914 4800 
C 1843 4800 1299 4325 986 3620 
C 666 2909 576 2218 576 1603 
C 576 1141 621 360 1005 -467 
C 1312 -1133 1837 -1600 1914 -1600 
C 1946 -1600 1958 -1588 1958 -1562 
z
" transform="scale(0.015625)"/>
       <path id="CMR17-6d" d="M 4326 1954 
C 4326 2276 4269 2816 3507 2816 
C 3072 2816 2771 2520 2656 2173 
L 2650 2173 
C 2573 2700 2195 2816 1837 2816 
C 1331 2816 1069 2424 973 2166 
L 966 2166 
L 966 2816 
L 211 2745 
L 211 2578 
C 589 2578 646 2540 646 2231 
L 646 443 
C 646 198 621 166 211 166 
L 211 0 
C 365 12 646 12 813 12 
C 979 12 1267 12 1421 0 
L 1421 166 
C 1011 166 986 192 986 443 
L 986 1678 
C 986 2269 1344 2713 1792 2713 
C 2266 2713 2317 2289 2317 1980 
L 2317 443 
C 2317 198 2291 166 1882 166 
L 1882 0 
C 2035 12 2317 12 2483 12 
C 2650 12 2938 12 3091 0 
L 3091 166 
C 2682 166 2656 192 2656 443 
L 2656 1678 
C 2656 2269 3014 2713 3462 2713 
C 3936 2713 3987 2289 3987 1980 
L 3987 443 
C 3987 198 3962 166 3552 166 
L 3552 0 
C 3706 12 3987 12 4154 12 
C 4320 12 4608 12 4762 0 
L 4762 166 
C 4352 166 4326 192 4326 443 
L 4326 1954 
z
" transform="scale(0.015625)"/>
       <path id="CMR17-61" d="M 2304 1656 
C 2304 2048 2304 2275 2035 2534 
C 1798 2751 1523 2816 1306 2816 
C 800 2816 435 2408 435 1977 
C 435 1740 627 1728 666 1728 
C 749 1728 896 1779 896 1958 
C 896 2118 774 2188 666 2188 
C 640 2188 608 2182 589 2176 
C 723 2594 1069 2713 1293 2713 
C 1613 2713 1965 2421 1965 1875 
L 1965 1632 
C 1587 1619 1133 1568 774 1373 
C 371 1147 256 822 256 576 
C 256 77 832 -64 1171 -64 
C 1523 -64 1850 135 1990 505 
C 2003 219 2182 -39 2464 -39 
C 2598 -39 2938 51 2938 563 
L 2938 926 
L 2822 926 
L 2822 557 
C 2822 161 2650 109 2566 109 
C 2304 109 2304 446 2304 732 
L 2304 1656 
z
M 1965 887 
C 1965 323 1568 38 1216 38 
C 896 38 646 278 646 576 
C 646 771 730 1114 1101 1322 
C 1408 1497 1760 1523 1965 1536 
L 1965 887 
z
" transform="scale(0.015625)"/>
       <path id="CMR17-29" d="M 1683 1596 
C 1683 2057 1638 2839 1254 3665 
C 947 4332 422 4800 346 4800 
C 326 4800 301 4793 301 4761 
C 301 4748 307 4742 314 4729 
C 621 4408 1402 3595 1402 1603 
C 1402 -396 627 -1210 314 -1530 
C 307 -1543 301 -1549 301 -1562 
C 301 -1594 326 -1600 346 -1600 
C 416 -1600 960 -1127 1274 -422 
C 1594 289 1683 981 1683 1596 
z
" transform="scale(0.015625)"/>
      </defs>
      <use xlink:href="#CMR17-70" transform="scale(0.996264)"/>
      <use xlink:href="#CMR17-72" transform="translate(50.89537 0) scale(0.996264)"/>
      <use xlink:href="#CMR17-65" transform="translate(86.176138 0) scale(0.996264)"/>
      <use xlink:href="#CMR17-64" transform="translate(126.661798 0) scale(0.996264)"/>
      <use xlink:href="#CMR17-69" transform="translate(177.557168 0) scale(0.996264)"/>
      <use xlink:href="#CMR17-63" transform="translate(202.428226 0) scale(0.996264)"/>
      <use xlink:href="#CMR17-74" transform="translate(242.913887 0) scale(0.996264)"/>
      <use xlink:href="#CMR17-69" transform="translate(278.194655 0) scale(0.996264)"/>
      <use xlink:href="#CMR17-6f" transform="translate(303.065713 0) scale(0.996264)"/>
      <use xlink:href="#CMR17-6e" transform="translate(348.75619 0) scale(0.996264)"/>
      <use xlink:href="#CMR17-28" transform="translate(429.727526 0) scale(0.996264)"/>
      <use xlink:href="#CMR17-6d" transform="translate(465.008294 0) scale(0.996264)"/>
      <use xlink:href="#CMR17-65" transform="translate(541.927884 0) scale(0.996264)"/>
      <use xlink:href="#CMR17-61" transform="translate(582.413544 0) scale(0.996264)"/>
      <use xlink:href="#CMR17-6e" transform="translate(628.104022 0) scale(0.996264)"/>
      <use xlink:href="#CMR17-29" transform="translate(678.999391 0) scale(0.996264)"/>
     </g>
    </g>
   </g>
  </g>
  <g id="text_8">
   <!-- $3\cdot 10^{12}\leq M_{\mathrm{vir}} [M_\odot]&lt;1\cdot 10^{13}$ -->
   <g transform="translate(265.131259 21.081265) scale(0.24 -0.24)">
    <defs>
     <path id="CMSY10-1" d="M 1229 1619 
C 1229 1804 1075 1958 890 1958 
C 704 1958 550 1804 550 1619 
C 550 1433 704 1280 890 1280 
C 1075 1280 1229 1433 1229 1619 
z
" transform="scale(0.015625)"/>
     <path id="CMSS17-32" d="M 1651 1353 
C 1830 1538 2099 1761 2285 1984 
C 2464 2201 2701 2507 2701 2953 
C 2701 3655 2227 4288 1421 4288 
C 787 4288 422 3891 250 3272 
L 499 2928 
C 640 3508 838 3878 1338 3878 
C 1888 3878 2195 3431 2195 2940 
C 2195 2354 1747 1901 1408 1563 
C 1030 1187 659 805 301 409 
L 301 0 
L 2701 0 
L 2701 435 
L 1613 435 
C 1536 435 1459 428 1382 428 
L 742 428 
L 742 435 
L 1651 1353 
z
" transform="scale(0.015625)"/>
     <path id="CMSY10-14" d="M 4320 3826 
C 4390 3858 4442 3890 4442 3967 
C 4442 4038 4390 4096 4314 4096 
C 4282 4096 4224 4070 4198 4057 
L 659 2381 
C 550 2329 531 2284 531 2233 
C 531 2175 570 2130 659 2092 
L 4198 422 
C 4282 377 4294 377 4314 377 
C 4384 377 4442 435 4442 505 
C 4442 563 4416 601 4307 653 
L 960 2233 
L 4320 3826 
z
M 4218 -896 
C 4326 -896 4442 -896 4442 -768 
C 4442 -640 4307 -640 4211 -640 
L 762 -640 
C 666 -640 531 -640 531 -768 
C 531 -896 646 -896 755 -896 
L 4218 -896 
z
" transform="scale(0.015625)"/>
     <path id="CMSSI17-4d" d="M 5613 4416 
L 4864 4416 
L 3802 2551 
L 3270 1590 
C 3104 1291 2822 783 2752 592 
L 2746 592 
C 2746 923 2688 1393 2643 1711 
L 2272 4416 
L 1523 4416 
L 576 0 
L 1075 0 
L 1920 3912 
L 1920 3842 
C 1920 3607 2022 2773 2093 2258 
L 2394 102 
L 2874 102 
L 3994 2067 
L 4518 3015 
C 4544 3060 4979 3855 4986 3893 
L 4992 3893 
L 4160 0 
L 4666 0 
L 5613 4416 
z
" transform="scale(0.015625)"/>
     <path id="CMSS17-76" d="M 2675 2752 
L 2176 2752 
L 1747 1555 
C 1613 1164 1421 627 1389 352 
L 1382 352 
C 1370 467 1318 633 1286 748 
C 1248 889 1197 1056 1158 1171 
L 595 2752 
L 83 2752 
L 1094 0 
L 1664 0 
L 2675 2752 
z
" transform="scale(0.015625)"/>
     <path id="CMSS17-69" d="M 979 4224 
L 442 4224 
L 442 3686 
L 979 3686 
L 979 4224 
z
M 947 2752 
L 474 2752 
L 474 0 
L 947 0 
L 947 2752 
z
" transform="scale(0.015625)"/>
     <path id="CMSS17-72" d="M 954 1369 
C 954 1974 1395 2379 1958 2392 
L 1958 2816 
C 1549 2809 1165 2604 934 2270 
L 934 2783 
L 480 2783 
L 480 0 
L 954 0 
L 954 1369 
z
" transform="scale(0.015625)"/>
     <path id="CMSS17-5b" d="M 1613 -1600 
L 1613 -1210 
L 1062 -1210 
L 1062 4409 
L 1613 4409 
L 1613 4800 
L 595 4800 
L 595 -1600 
L 1613 -1600 
z
" transform="scale(0.015625)"/>
     <path id="CMSY10-c" d="M 4621 1606 
C 4621 2787 3661 3744 2490 3744 
C 1299 3744 352 2774 352 1606 
C 352 419 1312 -545 2483 -545 
C 3674 -545 4621 432 4621 1606 
z
M 2490 -384 
C 1389 -384 512 516 512 1606 
C 512 2709 1408 3584 2483 3584 
C 3584 3584 4461 2690 4461 1606 
C 4461 497 3565 -384 2490 -384 
z
M 2925 1606 
C 2925 1849 2726 2048 2490 2048 
C 2234 2048 2048 1836 2048 1606 
C 2048 1363 2246 1164 2483 1164 
C 2739 1164 2925 1375 2925 1606 
z
" transform="scale(0.015625)"/>
     <path id="CMSS17-5d" d="M 1146 4800 
L 128 4800 
L 128 4409 
L 678 4409 
L 678 -1210 
L 128 -1210 
L 128 -1600 
L 1146 -1600 
L 1146 4800 
z
" transform="scale(0.015625)"/>
     <path id="CMMI12-3c" d="M 4218 3134 
C 4333 3186 4346 3231 4346 3270 
C 4346 3340 4294 3392 4224 3392 
C 4211 3392 4205 3385 4115 3347 
L 653 1738 
C 538 1687 525 1641 525 1603 
C 525 1557 531 1519 653 1460 
L 4115 -148 
C 4198 -186 4211 -192 4224 -192 
C 4294 -192 4346 -141 4346 -71 
C 4346 -32 4333 13 4218 65 
L 922 1596 
L 4218 3134 
z
" transform="scale(0.015625)"/>
    </defs>
    <use xlink:href="#CMSS17-33" transform="scale(0.996264)"/>
    <use xlink:href="#CMSY10-1" transform="translate(68.98283 0) scale(0.996264)"/>
    <use xlink:href="#CMSS17-31" transform="translate(118.796122 0) scale(0.996264)"/>
    <use xlink:href="#CMSS17-30" transform="translate(165.639746 0) scale(0.996264)"/>
    <use xlink:href="#CMSS17-31" transform="translate(212.483369 36.153639) scale(0.697382)"/>
    <use xlink:href="#CMSS17-32" transform="translate(245.273751 36.153639) scale(0.697382)"/>
    <use xlink:href="#CMSY10-14" transform="translate(306.236273 0) scale(0.996264)"/>
    <use xlink:href="#CMSSI17-4d" transform="translate(411.397749 0) scale(0.996264)"/>
    <use xlink:href="#CMSS17-76" transform="translate(493.073779 -14.943915) scale(0.697382)"/>
    <use xlink:href="#CMSS17-69" transform="translate(523.173734 -14.943915) scale(0.697382)"/>
    <use xlink:href="#CMSS17-72" transform="translate(538.700166 -14.943915) scale(0.697382)"/>
    <use xlink:href="#CMSS17-5b" transform="translate(562.445851 0) scale(0.996264)"/>
    <use xlink:href="#CMSSI17-4d" transform="translate(589.63129 0) scale(0.996264)"/>
    <use xlink:href="#CMSY10-c" transform="translate(671.30732 -14.943915) scale(0.697382)"/>
    <use xlink:href="#CMSS17-5d" transform="translate(726.046445 0) scale(0.996264)"/>
    <use xlink:href="#CMMI12-3c" transform="translate(780.905892 0) scale(0.996264)"/>
    <use xlink:href="#CMSS17-31" transform="translate(884.451997 0) scale(0.996264)"/>
    <use xlink:href="#CMSY10-1" transform="translate(953.434828 0) scale(0.996264)"/>
    <use xlink:href="#CMSS17-31" transform="translate(1003.248119 0) scale(0.996264)"/>
    <use xlink:href="#CMSS17-30" transform="translate(1050.091743 0) scale(0.996264)"/>
    <use xlink:href="#CMSS17-31" transform="translate(1096.935366 36.153639) scale(0.697382)"/>
    <use xlink:href="#CMSS17-33" transform="translate(1129.725748 36.153639) scale(0.697382)"/>
   </g>
  </g>
 </g>
 <defs>
  <clipPath id="p8230fd69aa">
   <rect x="60.559251" y="70.56" width="714.24" height="532.224"/>
  </clipPath>
 </defs>
</svg>
