<?xml version="1.0" encoding="utf-8" standalone="no"?>
<!DOCTYPE svg PUBLIC "-//W3C//DTD SVG 1.1//EN"
  "http://www.w3.org/Graphics/SVG/1.1/DTD/svg11.dtd">
<svg xmlns:xlink="http://www.w3.org/1999/xlink" width="323.661344pt" height="317.288466pt" viewBox="0 0 323.661344 317.288466" xmlns="http://www.w3.org/2000/svg" version="1.1">
 <metadata>
  <rdf:RDF xmlns:dc="http://purl.org/dc/elements/1.1/" xmlns:cc="http://creativecommons.org/ns#" xmlns:rdf="http://www.w3.org/1999/02/22-rdf-syntax-ns#">
   <cc:Work>
    <dc:type rdf:resource="http://purl.org/dc/dcmitype/StillImage"/>
    <dc:date>2024-03-27T18:06:34.911742</dc:date>
    <dc:format>image/svg+xml</dc:format>
    <dc:creator>
     <cc:Agent>
      <dc:title>Matplotlib v3.8.2, https://matplotlib.org/</dc:title>
     </cc:Agent>
    </dc:creator>
   </cc:Work>
  </rdf:RDF>
 </metadata>
 <defs>
  <style type="text/css">*{stroke-linejoin: round; stroke-linecap: butt}</style>
 </defs>
 <g id="figure_1">
  <g id="patch_1">
   <path d="M -0 317.288466 
L 323.661344 317.288466 
L 323.661344 0 
L -0 0 
z
" style="fill: #ffffff"/>
  </g>
  <g id="axes_1">
   <g id="patch_2">
    <path d="M 43.221344 278.64 
L 322.221344 278.64 
L 322.221344 1.44 
L 43.221344 1.44 
z
" style="fill: #ffffff"/>
   </g>
   <g id="matplotlib.axis_1">
    <g id="xtick_1">
     <g id="line2d_1">
      <defs>
       <path id="m91ea235ff9" d="M 0 0 
L 0 3.5 
" style="stroke: #000000; stroke-width: 0.8"/>
      </defs>
      <g>
       <use xlink:href="#m91ea235ff9" x="87.300182" y="278.64" style="stroke: #000000; stroke-width: 0.8"/>
      </g>
     </g>
     <g id="text_1">
      <!-- $\mathdefault{10^{-2}}$ -->
      <g transform="translate(78.357718 292.364767) scale(0.1 -0.1)">
       <defs>
        <path id="NimbusRomNo9L-Regu-31" d="M 1862 4352 
L 710 3776 
L 710 3686 
C 787 3718 858 3743 883 3756 
C 998 3801 1107 3826 1171 3826 
C 1306 3826 1363 3731 1363 3525 
L 1363 599 
C 1363 386 1312 238 1210 179 
C 1114 121 1024 102 755 96 
L 755 0 
L 2522 0 
L 2522 96 
C 2016 102 1914 167 1914 477 
L 1914 4339 
L 1862 4352 
z
" transform="scale(0.015625)"/>
        <path id="NimbusRomNo9L-Regu-30" d="M 1626 4352 
C 1274 4352 1005 4243 768 4019 
C 397 3661 154 2924 154 2176 
C 154 1478 365 729 666 371 
C 902 89 1229 -64 1600 -64 
C 1926 -64 2202 44 2432 268 
C 2803 620 3046 1363 3046 2137 
C 3046 3449 2464 4352 1626 4352 
z
M 1606 4185 
C 2144 4185 2432 3462 2432 2124 
C 2432 787 2150 102 1600 102 
C 1050 102 768 787 768 2118 
C 768 3475 1056 4185 1606 4185 
z
" transform="scale(0.015625)"/>
        <path id="txsy-0" d="M 3674 1472 
L 3674 1830 
L 397 1830 
L 397 1472 
L 3674 1472 
z
" transform="scale(0.015625)"/>
        <path id="NimbusRomNo9L-Regu-32" d="M 3040 879 
L 2957 912 
C 2720 544 2637 486 2349 486 
L 819 486 
L 1894 1621 
C 2464 2221 2714 2711 2714 3214 
C 2714 3858 2195 4352 1530 4352 
C 1178 4352 845 4211 608 3955 
C 403 3736 307 3530 198 3072 
L 333 3039 
C 589 3671 819 3878 1261 3878 
C 1798 3878 2163 3510 2163 2969 
C 2163 2466 1869 1866 1331 1292 
L 192 76 
L 192 0 
L 2688 0 
L 3040 879 
z
" transform="scale(0.015625)"/>
       </defs>
       <use xlink:href="#NimbusRomNo9L-Regu-31" transform="scale(0.996264)"/>
       <use xlink:href="#NimbusRomNo9L-Regu-30" transform="translate(49.8132 0) scale(0.996264)"/>
       <use xlink:href="#txsy-0" transform="translate(99.626401 36.164371) scale(0.697382)"/>
       <use xlink:href="#NimbusRomNo9L-Regu-32" transform="translate(143.979851 36.164371) scale(0.697382)"/>
      </g>
     </g>
    </g>
    <g id="xtick_2">
     <g id="line2d_2">
      <g>
       <use xlink:href="#m91ea235ff9" x="233.72691" y="278.64" style="stroke: #000000; stroke-width: 0.8"/>
      </g>
     </g>
     <g id="text_2">
      <!-- $\mathdefault{10^{-1}}$ -->
      <g transform="translate(224.784446 292.364767) scale(0.1 -0.1)">
       <use xlink:href="#NimbusRomNo9L-Regu-31" transform="scale(0.996264)"/>
       <use xlink:href="#NimbusRomNo9L-Regu-30" transform="translate(49.8132 0) scale(0.996264)"/>
       <use xlink:href="#txsy-0" transform="translate(99.626401 36.164371) scale(0.697382)"/>
       <use xlink:href="#NimbusRomNo9L-Regu-31" transform="translate(143.979851 36.164371) scale(0.697382)"/>
      </g>
     </g>
    </g>
    <g id="xtick_3">
     <g id="line2d_3">
      <defs>
       <path id="ma1100969fb" d="M 0 0 
L 0 2 
" style="stroke: #000000; stroke-width: 0.6"/>
      </defs>
      <g>
       <use xlink:href="#ma1100969fb" x="43.221344" y="278.64" style="stroke: #000000; stroke-width: 0.6"/>
      </g>
     </g>
    </g>
    <g id="xtick_4">
     <g id="line2d_4">
      <g>
       <use xlink:href="#ma1100969fb" x="54.815595" y="278.64" style="stroke: #000000; stroke-width: 0.6"/>
      </g>
     </g>
    </g>
    <g id="xtick_5">
     <g id="line2d_5">
      <g>
       <use xlink:href="#ma1100969fb" x="64.618394" y="278.64" style="stroke: #000000; stroke-width: 0.6"/>
      </g>
     </g>
    </g>
    <g id="xtick_6">
     <g id="line2d_6">
      <g>
       <use xlink:href="#ma1100969fb" x="73.109965" y="278.64" style="stroke: #000000; stroke-width: 0.6"/>
      </g>
     </g>
    </g>
    <g id="xtick_7">
     <g id="line2d_7">
      <g>
       <use xlink:href="#ma1100969fb" x="80.600062" y="278.64" style="stroke: #000000; stroke-width: 0.6"/>
      </g>
     </g>
    </g>
    <g id="xtick_8">
     <g id="line2d_8">
      <g>
       <use xlink:href="#ma1100969fb" x="131.379019" y="278.64" style="stroke: #000000; stroke-width: 0.6"/>
      </g>
     </g>
    </g>
    <g id="xtick_9">
     <g id="line2d_9">
      <g>
       <use xlink:href="#ma1100969fb" x="157.163486" y="278.64" style="stroke: #000000; stroke-width: 0.6"/>
      </g>
     </g>
    </g>
    <g id="xtick_10">
     <g id="line2d_10">
      <g>
       <use xlink:href="#ma1100969fb" x="175.457856" y="278.64" style="stroke: #000000; stroke-width: 0.6"/>
      </g>
     </g>
    </g>
    <g id="xtick_11">
     <g id="line2d_11">
      <g>
       <use xlink:href="#ma1100969fb" x="189.648072" y="278.64" style="stroke: #000000; stroke-width: 0.6"/>
      </g>
     </g>
    </g>
    <g id="xtick_12">
     <g id="line2d_12">
      <g>
       <use xlink:href="#ma1100969fb" x="201.242323" y="278.64" style="stroke: #000000; stroke-width: 0.6"/>
      </g>
     </g>
    </g>
    <g id="xtick_13">
     <g id="line2d_13">
      <g>
       <use xlink:href="#ma1100969fb" x="211.045123" y="278.64" style="stroke: #000000; stroke-width: 0.6"/>
      </g>
     </g>
    </g>
    <g id="xtick_14">
     <g id="line2d_14">
      <g>
       <use xlink:href="#ma1100969fb" x="219.536694" y="278.64" style="stroke: #000000; stroke-width: 0.6"/>
      </g>
     </g>
    </g>
    <g id="xtick_15">
     <g id="line2d_15">
      <g>
       <use xlink:href="#ma1100969fb" x="227.02679" y="278.64" style="stroke: #000000; stroke-width: 0.6"/>
      </g>
     </g>
    </g>
    <g id="xtick_16">
     <g id="line2d_16">
      <g>
       <use xlink:href="#ma1100969fb" x="277.805747" y="278.64" style="stroke: #000000; stroke-width: 0.6"/>
      </g>
     </g>
    </g>
    <g id="xtick_17">
     <g id="line2d_17">
      <g>
       <use xlink:href="#ma1100969fb" x="303.590214" y="278.64" style="stroke: #000000; stroke-width: 0.6"/>
      </g>
     </g>
    </g>
    <g id="xtick_18">
     <g id="line2d_18">
      <g>
       <use xlink:href="#ma1100969fb" x="321.884585" y="278.64" style="stroke: #000000; stroke-width: 0.6"/>
      </g>
     </g>
    </g>
    <g id="text_3">
     <!-- $k$ [$h \ \mathrm{Mpc}^{-1}$] -->
     <g transform="translate(143.605752 312.405384) scale(0.16 -0.16)">
      <defs>
       <path id="CMSSI17-6b" d="M 2054 1686 
L 3270 2735 
L 2656 2735 
L 1286 1552 
L 1901 4416 
L 1427 4416 
L 480 0 
L 947 0 
L 1139 891 
L 1664 1342 
L 2278 0 
L 2822 0 
L 2054 1686 
z
" transform="scale(0.015625)"/>
       <path id="NimbusRomNo9L-Regu-5b" d="M 1914 -832 
L 1363 -832 
C 1152 -832 1050 -724 1050 -501 
L 1050 3783 
C 1050 3981 1133 4063 1338 4063 
L 1914 4063 
L 1914 4224 
L 563 4224 
L 563 -993 
L 1914 -993 
L 1914 -832 
z
" transform="scale(0.015625)"/>
       <path id="CMSSI17-68" d="M 3021 1891 
C 3046 2000 3053 2058 3053 2219 
C 3053 2623 2829 2816 2387 2816 
C 1850 2816 1478 2425 1459 2406 
L 1453 2406 
L 1894 4416 
L 1421 4416 
L 474 0 
L 960 0 
L 1254 1389 
C 1312 1666 1478 2425 2061 2425 
C 2400 2425 2547 2290 2547 2039 
C 2547 1949 2541 1923 2534 1891 
L 2131 0 
L 2618 0 
L 3021 1891 
z
" transform="scale(0.015625)"/>
       <path id="NimbusRomNo9L-Regu-4d" d="M 4314 3656 
L 4314 765 
C 4314 236 4237 153 3731 121 
L 3731 0 
L 5523 0 
L 5523 121 
C 5056 153 4966 242 4966 695 
L 4966 3528 
C 4966 3981 5050 4064 5523 4102 
L 5523 4224 
L 4250 4224 
L 2835 1002 
L 1357 4224 
L 90 4224 
L 90 4102 
C 614 4070 698 3994 698 3528 
L 698 938 
C 698 281 608 159 77 121 
L 77 0 
L 1581 0 
L 1581 121 
C 1088 147 979 293 979 938 
L 979 3509 
L 2586 0 
L 2675 0 
L 4314 3656 
z
" transform="scale(0.015625)"/>
       <path id="NimbusRomNo9L-Regu-70" d="M 58 2515 
C 115 2521 160 2521 218 2521 
C 435 2521 480 2457 480 2157 
L 480 -839 
C 480 -1172 410 -1242 32 -1280 
L 32 -1389 
L 1581 -1389 
L 1581 -1280 
C 1101 -1274 1018 -1203 1018 -798 
L 1018 211 
C 1242 0 1395 -64 1664 -64 
C 2419 -64 3008 652 3008 1580 
C 3008 2374 2560 2944 1939 2944 
C 1581 2944 1299 2783 1018 2438 
L 1018 2931 
L 979 2944 
C 634 2809 410 2726 58 2617 
L 58 2515 
z
M 1018 2137 
C 1018 2329 1376 2559 1670 2559 
C 2144 2559 2458 2073 2458 1331 
C 2458 620 2144 140 1683 140 
C 1382 140 1018 371 1018 563 
L 1018 2137 
z
" transform="scale(0.015625)"/>
       <path id="NimbusRomNo9L-Regu-63" d="M 2547 998 
C 2240 550 2010 396 1645 396 
C 1062 396 653 908 653 1644 
C 653 2303 1005 2758 1523 2758 
C 1754 2758 1837 2687 1901 2451 
L 1939 2310 
C 1990 2131 2106 2015 2240 2015 
C 2406 2015 2547 2137 2547 2284 
C 2547 2643 2099 2944 1562 2944 
C 1248 2944 922 2815 659 2585 
C 339 2303 160 1868 160 1363 
C 160 531 666 -64 1376 -64 
C 1664 -64 1920 38 2150 236 
C 2323 390 2445 563 2637 940 
L 2547 998 
z
" transform="scale(0.015625)"/>
       <path id="NimbusRomNo9L-Regu-5d" d="M 218 -832 
L 218 -993 
L 1568 -993 
L 1568 4224 
L 218 4224 
L 218 4063 
L 768 4063 
C 979 4063 1082 3955 1082 3732 
L 1082 -552 
C 1082 -750 992 -832 794 -832 
L 218 -832 
z
" transform="scale(0.015625)"/>
      </defs>
      <use xlink:href="#CMSSI17-6b" transform="scale(0.996264)"/>
      <use xlink:href="#NimbusRomNo9L-Regu-5b" transform="translate(78.584276 0) scale(0.996264)"/>
      <use xlink:href="#CMSSI17-68" transform="translate(111.759886 0) scale(0.996264)"/>
      <use xlink:href="#NimbusRomNo9L-Regu-4d" transform="translate(187.019913 0) scale(0.996264)"/>
      <use xlink:href="#NimbusRomNo9L-Regu-70" transform="translate(275.587777 0) scale(0.996264)"/>
      <use xlink:href="#NimbusRomNo9L-Regu-63" transform="translate(325.400977 0) scale(0.996264)"/>
      <use xlink:href="#txsy-0" transform="translate(369.635124 39.73112) scale(0.697382)"/>
      <use xlink:href="#NimbusRomNo9L-Regu-31" transform="translate(413.988574 39.73112) scale(0.697382)"/>
      <use xlink:href="#NimbusRomNo9L-Regu-5d" transform="translate(449.355794 0) scale(0.996264)"/>
     </g>
    </g>
   </g>
   <g id="matplotlib.axis_2">
    <g id="ytick_1">
     <g id="line2d_19">
      <defs>
       <path id="m5629680194" d="M 0 0 
L -3.5 0 
" style="stroke: #000000; stroke-width: 0.8"/>
      </defs>
      <g>
       <use xlink:href="#m5629680194" x="43.221344" y="193.030673" style="stroke: #000000; stroke-width: 0.8"/>
      </g>
     </g>
     <g id="text_4">
      <!-- $\mathdefault{10^{3}}$ -->
      <g transform="translate(22.77178 196.393057) scale(0.1 -0.1)">
       <defs>
        <path id="NimbusRomNo9L-Regu-33" d="M 979 2137 
C 1357 2137 1504 2124 1658 2067 
C 2054 1926 2304 1561 2304 1120 
C 2304 582 1939 166 1466 166 
C 1293 166 1165 211 928 364 
C 736 480 627 524 518 524 
C 371 524 275 435 275 300 
C 275 76 550 -64 998 -64 
C 1491 -64 1997 102 2298 364 
C 2598 627 2765 998 2765 1427 
C 2765 1753 2662 2054 2477 2252 
C 2349 2393 2227 2470 1946 2592 
C 2387 2892 2547 3129 2547 3475 
C 2547 3993 2138 4352 1549 4352 
C 1229 4352 947 4243 717 4038 
C 525 3865 429 3699 288 3315 
L 384 3289 
C 646 3757 934 3967 1338 3967 
C 1754 3967 2042 3686 2042 3283 
C 2042 3052 1946 2822 1786 2662 
C 1594 2470 1414 2374 979 2220 
L 979 2137 
z
" transform="scale(0.015625)"/>
       </defs>
       <use xlink:href="#NimbusRomNo9L-Regu-31" transform="scale(0.996264)"/>
       <use xlink:href="#NimbusRomNo9L-Regu-30" transform="translate(49.8132 0) scale(0.996264)"/>
       <use xlink:href="#NimbusRomNo9L-Regu-33" transform="translate(99.626401 36.164371) scale(0.697382)"/>
      </g>
     </g>
    </g>
    <g id="ytick_2">
     <g id="line2d_20">
      <g>
       <use xlink:href="#m5629680194" x="43.221344" y="73.440474" style="stroke: #000000; stroke-width: 0.8"/>
      </g>
     </g>
     <g id="text_5">
      <!-- $\mathdefault{10^{4}}$ -->
      <g transform="translate(22.77178 76.802858) scale(0.1 -0.1)">
       <defs>
        <path id="NimbusRomNo9L-Regu-34" d="M 3021 1497 
L 2368 1497 
L 2368 4352 
L 2086 4352 
L 77 1497 
L 77 1088 
L 1875 1088 
L 1875 0 
L 2368 0 
L 2368 1088 
L 3021 1088 
L 3021 1497 
z
M 1869 1497 
L 333 1497 
L 1869 3697 
L 1869 1497 
z
" transform="scale(0.015625)"/>
       </defs>
       <use xlink:href="#NimbusRomNo9L-Regu-31" transform="scale(0.996264)"/>
       <use xlink:href="#NimbusRomNo9L-Regu-30" transform="translate(49.8132 0) scale(0.996264)"/>
       <use xlink:href="#NimbusRomNo9L-Regu-34" transform="translate(99.626401 36.164371) scale(0.697382)"/>
      </g>
     </g>
    </g>
    <g id="ytick_3">
     <g id="line2d_21">
      <defs>
       <path id="m9de8d3d6fd" d="M 0 0 
L -2 0 
" style="stroke: #000000; stroke-width: 0.6"/>
      </defs>
      <g>
       <use xlink:href="#m9de8d3d6fd" x="43.221344" y="276.620635" style="stroke: #000000; stroke-width: 0.6"/>
      </g>
     </g>
    </g>
    <g id="ytick_4">
     <g id="line2d_22">
      <g>
       <use xlink:href="#m9de8d3d6fd" x="43.221344" y="255.561846" style="stroke: #000000; stroke-width: 0.6"/>
      </g>
     </g>
    </g>
    <g id="ytick_5">
     <g id="line2d_23">
      <g>
       <use xlink:href="#m9de8d3d6fd" x="43.221344" y="240.620398" style="stroke: #000000; stroke-width: 0.6"/>
      </g>
     </g>
    </g>
    <g id="ytick_6">
     <g id="line2d_24">
      <g>
       <use xlink:href="#m9de8d3d6fd" x="43.221344" y="229.03091" style="stroke: #000000; stroke-width: 0.6"/>
      </g>
     </g>
    </g>
    <g id="ytick_7">
     <g id="line2d_25">
      <g>
       <use xlink:href="#m9de8d3d6fd" x="43.221344" y="219.561609" style="stroke: #000000; stroke-width: 0.6"/>
      </g>
     </g>
    </g>
    <g id="ytick_8">
     <g id="line2d_26">
      <g>
       <use xlink:href="#m9de8d3d6fd" x="43.221344" y="211.555429" style="stroke: #000000; stroke-width: 0.6"/>
      </g>
     </g>
    </g>
    <g id="ytick_9">
     <g id="line2d_27">
      <g>
       <use xlink:href="#m9de8d3d6fd" x="43.221344" y="204.620161" style="stroke: #000000; stroke-width: 0.6"/>
      </g>
     </g>
    </g>
    <g id="ytick_10">
     <g id="line2d_28">
      <g>
       <use xlink:href="#m9de8d3d6fd" x="43.221344" y="198.502821" style="stroke: #000000; stroke-width: 0.6"/>
      </g>
     </g>
    </g>
    <g id="ytick_11">
     <g id="line2d_29">
      <g>
       <use xlink:href="#m9de8d3d6fd" x="43.221344" y="157.030436" style="stroke: #000000; stroke-width: 0.6"/>
      </g>
     </g>
    </g>
    <g id="ytick_12">
     <g id="line2d_30">
      <g>
       <use xlink:href="#m9de8d3d6fd" x="43.221344" y="135.971647" style="stroke: #000000; stroke-width: 0.6"/>
      </g>
     </g>
    </g>
    <g id="ytick_13">
     <g id="line2d_31">
      <g>
       <use xlink:href="#m9de8d3d6fd" x="43.221344" y="121.030199" style="stroke: #000000; stroke-width: 0.6"/>
      </g>
     </g>
    </g>
    <g id="ytick_14">
     <g id="line2d_32">
      <g>
       <use xlink:href="#m9de8d3d6fd" x="43.221344" y="109.440711" style="stroke: #000000; stroke-width: 0.6"/>
      </g>
     </g>
    </g>
    <g id="ytick_15">
     <g id="line2d_33">
      <g>
       <use xlink:href="#m9de8d3d6fd" x="43.221344" y="99.97141" style="stroke: #000000; stroke-width: 0.6"/>
      </g>
     </g>
    </g>
    <g id="ytick_16">
     <g id="line2d_34">
      <g>
       <use xlink:href="#m9de8d3d6fd" x="43.221344" y="91.96523" style="stroke: #000000; stroke-width: 0.6"/>
      </g>
     </g>
    </g>
    <g id="ytick_17">
     <g id="line2d_35">
      <g>
       <use xlink:href="#m9de8d3d6fd" x="43.221344" y="85.029962" style="stroke: #000000; stroke-width: 0.6"/>
      </g>
     </g>
    </g>
    <g id="ytick_18">
     <g id="line2d_36">
      <g>
       <use xlink:href="#m9de8d3d6fd" x="43.221344" y="78.912622" style="stroke: #000000; stroke-width: 0.6"/>
      </g>
     </g>
    </g>
    <g id="ytick_19">
     <g id="line2d_37">
      <g>
       <use xlink:href="#m9de8d3d6fd" x="43.221344" y="37.440237" style="stroke: #000000; stroke-width: 0.6"/>
      </g>
     </g>
    </g>
    <g id="ytick_20">
     <g id="line2d_38">
      <g>
       <use xlink:href="#m9de8d3d6fd" x="43.221344" y="16.381448" style="stroke: #000000; stroke-width: 0.6"/>
      </g>
     </g>
    </g>
    <g id="ytick_21">
     <g id="line2d_39">
      <g>
       <use xlink:href="#m9de8d3d6fd" x="43.221344" y="1.44" style="stroke: #000000; stroke-width: 0.6"/>
      </g>
     </g>
    </g>
    <g id="text_6">
     <!-- $P(k)$ [$h^{-3}\mathrm{Mpc}^3$] -->
     <g transform="translate(15.328698 191.138131) rotate(-90) scale(0.16 -0.16)">
      <defs>
       <path id="CMSSI17-50" d="M 1498 1856 
L 2502 1856 
C 3373 1856 4198 2617 4198 3378 
C 4198 3912 3782 4416 3008 4416 
L 1517 4416 
L 570 0 
L 1107 0 
L 1498 1856 
z
M 1965 4057 
L 2797 4057 
C 3405 4057 3686 3743 3686 3340 
C 3686 2856 3270 2227 2400 2227 
L 1568 2227 
L 1965 4057 
z
" transform="scale(0.015625)"/>
       <path id="NimbusRomNo9L-Regu-28" d="M 1888 4352 
C 1414 4044 1222 3878 986 3583 
C 531 3027 307 2387 307 1638 
C 307 825 544 198 1107 -455 
C 1370 -762 1536 -903 1869 -1108 
L 1946 -1006 
C 1434 -602 1254 -378 1082 102 
C 928 530 858 1017 858 1657 
C 858 2329 941 2854 1114 3251 
C 1293 3647 1485 3878 1946 4249 
L 1888 4352 
z
" transform="scale(0.015625)"/>
       <path id="NimbusRomNo9L-Regu-29" d="M 243 -1108 
C 717 -801 909 -634 1146 -340 
C 1600 217 1824 857 1824 1606 
C 1824 2425 1587 3046 1024 3699 
C 762 4006 595 4147 262 4352 
L 186 4249 
C 698 3846 870 3622 1050 3142 
C 1203 2713 1274 2227 1274 1587 
C 1274 921 1190 390 1018 -1 
C 838 -404 646 -634 186 -1006 
L 243 -1108 
z
" transform="scale(0.015625)"/>
      </defs>
      <use xlink:href="#CMSSI17-50" transform="scale(0.996264)"/>
      <use xlink:href="#NimbusRomNo9L-Regu-28" transform="translate(68.162406 0) scale(0.996264)"/>
      <use xlink:href="#CMSSI17-6b" transform="translate(101.338015 0) scale(0.996264)"/>
      <use xlink:href="#NimbusRomNo9L-Regu-29" transform="translate(155.015691 0) scale(0.996264)"/>
      <use xlink:href="#NimbusRomNo9L-Regu-5b" transform="translate(213.097901 0) scale(0.996264)"/>
      <use xlink:href="#CMSSI17-68" transform="translate(246.273511 0) scale(0.996264)"/>
      <use xlink:href="#txsy-0" transform="translate(296.626937 36.164371) scale(0.697382)"/>
      <use xlink:href="#NimbusRomNo9L-Regu-33" transform="translate(340.980387 36.164371) scale(0.697382)"/>
      <use xlink:href="#NimbusRomNo9L-Regu-4d" transform="translate(376.347608 0) scale(0.996264)"/>
      <use xlink:href="#NimbusRomNo9L-Regu-70" transform="translate(464.915472 0) scale(0.996264)"/>
      <use xlink:href="#NimbusRomNo9L-Regu-63" transform="translate(514.728673 0) scale(0.996264)"/>
      <use xlink:href="#NimbusRomNo9L-Regu-33" transform="translate(558.962819 39.73112) scale(0.697382)"/>
      <use xlink:href="#NimbusRomNo9L-Regu-5d" transform="translate(594.330039 0) scale(0.996264)"/>
     </g>
    </g>
   </g>
   <g id="line2d_40">
    <path d="M 44.795305 47.354018 
L 113.826014 28.849174 
L 146.142765 26.75444 
L 167.46775 44.578084 
L 183.409346 57.226041 
L 196.144948 67.25158 
L 206.750636 73.328649 
L 215.83779 81.377042 
L 223.787292 91.776713 
L 230.852561 103.614661 
L 237.210764 113.08109 
L 242.990635 118.093114 
L 248.288667 122.803331 
L 253.179052 129.804818 
L 257.720063 136.477945 
L 261.958309 144.631891 
L 265.931651 150.566036 
L 269.671265 157.299494 
L 273.203127 161.765414 
L 276.549112 167.391624 
L 279.727808 172.504035 
L 282.755152 178.479939 
L 285.644902 184.649148 
L 288.409025 189.231404 
L 291.05799 194.856285 
L 293.60101 199.77925 
L 296.046234 205.387594 
L 298.400906 210.986098 
L 300.671495 215.328671 
L 302.863799 220.748537 
L 304.983036 226.026823 
L 307.033921 230.645685 
L 309.020725 235.959807 
L 310.947331 240.865413 
L 312.817281 245.263144 
L 314.633812 249.84476 
L 316.39989 254.041614 
L 318.118244 258.803245 
L 319.791385 262.935974 
L 321.42163 266.64545 
" clip-path="url(#pf7c1b44958)" style="fill: none; stroke: #1f77b4; stroke-width: 2; stroke-linecap: square"/>
   </g>
   <g id="patch_3">
    <path d="M 43.221344 278.64 
L 43.221344 1.44 
" style="fill: none; stroke: #000000; stroke-width: 0.5; stroke-linejoin: miter; stroke-linecap: square"/>
   </g>
   <g id="patch_4">
    <path d="M 322.221344 278.64 
L 322.221344 1.44 
" style="fill: none; stroke: #000000; stroke-width: 0.5; stroke-linejoin: miter; stroke-linecap: square"/>
   </g>
   <g id="patch_5">
    <path d="M 43.221344 278.64 
L 322.221344 278.64 
" style="fill: none; stroke: #000000; stroke-width: 0.5; stroke-linejoin: miter; stroke-linecap: square"/>
   </g>
   <g id="patch_6">
    <path d="M 43.221344 1.44 
L 322.221344 1.44 
" style="fill: none; stroke: #000000; stroke-width: 0.5; stroke-linejoin: miter; stroke-linecap: square"/>
   </g>
   <g id="legend_1">
    <g id="patch_7">
     <path d="M 220.812719 36.883082 
L 311.021344 36.883082 
Q 314.221344 36.883082 314.221344 33.683082 
L 314.221344 12.64 
Q 314.221344 9.44 311.021344 9.44 
L 220.812719 9.44 
Q 217.612719 9.44 217.612719 12.64 
L 217.612719 33.683082 
Q 217.612719 36.883082 220.812719 36.883082 
z
" style="fill: #ffffff; opacity: 0.8; stroke: #cccccc; stroke-linejoin: miter"/>
    </g>
    <g id="line2d_41">
     <path d="M 224.012719 21.44 
L 240.012719 21.44 
L 256.012719 21.44 
" style="fill: none; stroke: #1f77b4; stroke-width: 2; stroke-linecap: square"/>
    </g>
    <g id="text_7">
     <!-- $P_m(k)$ -->
     <g transform="translate(268.812719 27.04) scale(0.16 -0.16)">
      <defs>
       <path id="CMSSI17-6d" d="M 4691 1891 
C 4704 1942 4723 2097 4723 2213 
C 4723 2380 4723 2816 4058 2816 
C 3558 2816 3226 2502 3059 2335 
C 3008 2681 2765 2816 2394 2816 
C 1914 2816 1562 2508 1446 2386 
L 1530 2783 
L 1062 2783 
L 474 0 
L 960 0 
L 1254 1389 
C 1312 1672 1478 2425 2067 2425 
C 2362 2425 2554 2322 2554 2039 
C 2554 1949 2547 1923 2541 1891 
L 2138 0 
L 2624 0 
L 2918 1389 
C 2976 1672 3142 2425 3731 2425 
C 4026 2425 4218 2322 4218 2039 
C 4218 1949 4211 1923 4205 1891 
L 3802 0 
L 4288 0 
L 4691 1891 
z
" transform="scale(0.015625)"/>
      </defs>
      <use xlink:href="#CMSSI17-50" transform="scale(0.996264)"/>
      <use xlink:href="#CMSSI17-6d" transform="translate(59.735586 -14.943915) scale(0.697382)"/>
      <use xlink:href="#NimbusRomNo9L-Regu-28" transform="translate(113.697885 0) scale(0.996264)"/>
      <use xlink:href="#CMSSI17-6b" transform="translate(146.873495 0) scale(0.996264)"/>
      <use xlink:href="#NimbusRomNo9L-Regu-29" transform="translate(200.551171 0) scale(0.996264)"/>
     </g>
    </g>
   </g>
  </g>
 </g>
 <defs>
  <clipPath id="pf7c1b44958">
   <rect x="43.221344" y="1.44" width="279" height="277.2"/>
  </clipPath>
 </defs>
</svg>
