<?xml version="1.0" encoding="utf-8" standalone="no"?>
<!DOCTYPE svg PUBLIC "-//W3C//DTD SVG 1.1//EN"
  "http://www.w3.org/Graphics/SVG/1.1/DTD/svg11.dtd">
<svg xmlns:xlink="http://www.w3.org/1999/xlink" width="1035.66267pt" height="253.878046pt" viewBox="0 0 1035.66267 253.878046" xmlns="http://www.w3.org/2000/svg" version="1.1">
 <metadata>
  <rdf:RDF xmlns:dc="http://purl.org/dc/elements/1.1/" xmlns:cc="http://creativecommons.org/ns#" xmlns:rdf="http://www.w3.org/1999/02/22-rdf-syntax-ns#">
   <cc:Work>
    <dc:type rdf:resource="http://purl.org/dc/dcmitype/StillImage"/>
    <dc:date>2025-01-27T11:09:22.770503</dc:date>
    <dc:format>image/svg+xml</dc:format>
    <dc:creator>
     <cc:Agent>
      <dc:title>Matplotlib v3.9.2, https://matplotlib.org/</dc:title>
     </cc:Agent>
    </dc:creator>
   </cc:Work>
  </rdf:RDF>
 </metadata>
 <defs>
  <style type="text/css">*{stroke-linejoin: round; stroke-linecap: butt}</style>
 </defs>
 <g id="figure_1">
  <g id="patch_1">
   <path d="M 0 253.878046 
L 1035.66267 253.878046 
L 1035.66267 0 
L 0 0 
z
" style="fill: #ffffff"/>
  </g>
  <g id="axes_1">
   <g id="patch_2">
    <path d="M 4.32 226.08 
L 198.406957 226.08 
L 198.406957 4.32 
L 4.32 4.32 
z
" style="fill: #ffffff"/>
   </g>
   <g id="matplotlib.axis_1">
    <g id="xtick_1">
     <g id="line2d_1"/>
    </g>
    <g id="xtick_2">
     <g id="line2d_2"/>
    </g>
    <g id="xtick_3">
     <g id="line2d_3"/>
    </g>
    <g id="text_1">
     <!-- A -->
     <g transform="translate(94.889754 245.684586) scale(0.18 -0.18)">
      <defs>
       <path id="NimbusRomNo9L-Regu-41" d="M 4518 121 
C 4230 141 4166 205 3942 686 
L 2349 4288 
L 2221 4288 
L 890 1187 
C 480 238 403 134 96 121 
L 96 0 
L 1363 0 
L 1363 121 
C 1056 121 928 205 928 387 
C 928 465 947 556 979 641 
L 1274 1401 
L 2950 1401 
L 3213 777 
C 3290 602 3334 433 3334 342 
C 3334 179 3226 128 2886 121 
L 2886 0 
L 4518 0 
L 4518 121 
z
M 1382 1664 
L 2118 3392 
L 2861 1664 
L 1382 1664 
z
" transform="scale(0.015625)"/>
      </defs>
      <use xlink:href="#NimbusRomNo9L-Regu-41" transform="scale(0.996264)"/>
     </g>
    </g>
   </g>
   <g id="matplotlib.axis_2">
    <g id="ytick_1">
     <g id="line2d_4"/>
    </g>
    <g id="ytick_2">
     <g id="line2d_5"/>
    </g>
    <g id="ytick_3">
     <g id="line2d_6"/>
    </g>
    <g id="ytick_4">
     <g id="line2d_7"/>
    </g>
    <g id="ytick_5">
     <g id="line2d_8"/>
    </g>
    <g id="ytick_6">
     <g id="line2d_9"/>
    </g>
   </g>
   <g id="line2d_10">
    <path d="M 13.142134 226.08 
L 14.924384 226.08 
L 16.706633 226.08 
L 18.488883 226.08 
L 20.271132 226.08 
L 22.053381 226.08 
L 23.835631 226.08 
L 25.61788 226.08 
L 27.400129 226.08 
L 29.182379 226.079999 
L 30.964628 226.079996 
L 32.746877 226.079989 
L 34.529127 226.079968 
L 36.311376 226.07991 
L 38.093626 226.079752 
L 39.875875 226.079344 
L 41.658124 226.078326 
L 43.440374 226.075879 
L 45.222623 226.070215 
L 47.004872 226.057585 
L 48.787122 226.030462 
L 50.569371 225.974383 
L 52.351621 225.862767 
L 54.13387 225.648961 
L 55.916119 225.254897 
L 57.698369 224.556301 
L 59.480618 223.3655 
L 61.262867 221.414693 
L 63.045117 218.344825 
L 64.827366 213.707434 
L 66.609616 206.988105 
L 68.391865 197.659091 
L 70.174114 185.264364 
L 71.956364 169.532316 
L 73.738613 150.500721 
L 75.520862 128.628097 
L 77.303112 104.859082 
L 79.085361 80.613004 
L 80.86761 57.67653 
L 82.64986 38.002318 
L 84.432109 23.440945 
L 86.214359 15.45559 
L 87.996608 14.88 
L 89.778857 21.775098 
L 91.561107 35.418361 
L 93.343356 54.428534 
L 95.125605 76.995884 
L 96.907855 101.164913 
L 98.690104 125.10867 
L 100.472354 147.342628 
L 102.254603 166.847042 
L 104.036852 183.092164 
L 105.819102 195.982709 
L 107.601351 205.751333 
L 109.3836 212.833838 
L 111.16585 217.753339 
L 112.948099 221.030466 
L 114.730349 223.125857 
L 116.512598 224.41271 
L 118.294847 225.172199 
L 120.077097 225.603163 
L 121.859346 225.838371 
L 123.641595 225.961879 
L 125.423845 226.024294 
L 127.206094 226.054656 
L 128.988344 226.068876 
L 130.770593 226.07529 
L 132.552842 226.078076 
L 134.335092 226.079242 
L 136.117341 226.079712 
L 137.89959 226.079894 
L 139.68184 226.079963 
L 141.464089 226.079987 
L 143.246338 226.079996 
L 145.028588 226.079999 
L 146.810837 226.08 
L 148.593087 226.08 
L 150.375336 226.08 
L 152.157585 226.08 
L 153.939835 226.08 
L 155.722084 226.08 
L 157.504333 226.08 
L 159.286583 226.08 
L 161.068832 226.08 
L 162.851082 226.08 
L 164.633331 226.08 
L 166.41558 226.08 
L 168.19783 226.08 
L 169.980079 226.08 
L 171.762328 226.08 
L 173.544578 226.08 
L 175.326827 226.08 
L 177.109077 226.08 
L 178.891326 226.08 
L 180.673575 226.08 
L 182.455825 226.08 
L 184.238074 226.08 
L 186.020323 226.08 
L 187.802573 226.08 
L 189.584822 226.08 
" clip-path="url(#pe71c676889)" style="fill: none"/>
   </g>
   <g id="line2d_11">
    <path d="M 13.142134 226.050176 
L 14.924384 226.037762 
L 16.706633 226.020636 
L 18.488883 225.997202 
L 20.271132 225.965397 
L 22.053381 225.922582 
L 23.835631 225.865419 
L 25.61788 225.789726 
L 27.400129 225.690324 
L 29.182379 225.560867 
L 30.964628 225.39367 
L 32.746877 225.179535 
L 34.529127 224.907589 
L 36.311376 224.565141 
L 38.093626 224.137576 
L 39.875875 223.608303 
L 41.658124 222.958771 
L 43.440374 222.168571 
L 45.222623 221.215652 
L 47.004872 220.076657 
L 48.787122 218.727398 
L 50.569371 217.143483 
L 52.351621 215.301089 
L 54.13387 213.177887 
L 55.916119 210.754094 
L 57.698369 208.013634 
L 59.480618 204.945361 
L 61.262867 201.544314 
L 63.045117 197.81292 
L 64.827366 193.762107 
L 66.609616 189.412231 
L 68.391865 184.793764 
L 70.174114 179.947663 
L 71.956364 174.925367 
L 73.738613 169.788368 
L 75.520862 164.607331 
L 77.303112 159.460763 
L 79.085361 154.433233 
L 80.86761 149.613203 
L 82.64986 145.090531 
L 84.432109 140.953738 
L 86.214359 137.287163 
L 87.996608 134.168119 
L 89.778857 131.664188 
L 91.561107 129.830791 
L 93.343356 128.70915 
L 95.125605 128.324745 
L 96.907855 128.686356 
L 98.690104 129.785723 
L 100.472354 131.597866 
L 102.254603 134.082025 
L 104.036852 137.183185 
L 105.819102 140.834103 
L 107.601351 144.957723 
L 109.3836 149.469882 
L 111.16585 154.282142 
L 112.948099 159.304646 
L 114.730349 164.448851 
L 116.512598 169.630033 
L 118.294847 174.769473 
L 120.077097 179.796243 
L 121.859346 184.648553 
L 123.641595 189.27465 
L 125.423845 193.633253 
L 127.206094 197.693574 
L 128.988344 201.434954 
L 130.770593 204.846191 
L 132.552842 207.924611 
L 134.335092 210.67497 
L 136.117341 213.108241 
L 137.89959 215.240367 
L 139.68184 217.091036 
L 141.464089 218.682516 
L 143.246338 220.038597 
L 145.028588 221.183667 
L 146.810837 222.14193 
L 148.593087 222.936776 
L 150.375336 223.590303 
L 152.157585 224.122972 
L 153.939835 224.553394 
L 155.722084 224.898221 
L 157.504333 225.172128 
L 159.286583 225.387862 
L 161.068832 225.556351 
L 162.851082 225.686842 
L 164.633331 225.787064 
L 166.41558 225.8634 
L 168.19783 225.921064 
L 169.980079 225.964264 
L 171.762328 225.996365 
L 173.544578 226.020022 
L 175.326827 226.037315 
L 177.109077 226.049853 
L 178.891326 226.058871 
L 180.673575 226.065304 
L 182.455825 226.069856 
L 184.238074 226.073052 
L 186.020323 226.075277 
L 187.802573 226.076814 
L 189.584822 226.077867 
" clip-path="url(#pe71c676889)" style="fill: none; stroke-dasharray: 5.55,2.4; stroke-dashoffset: 0; stroke: #1f77b4; stroke-width: 1.5"/>
   </g>
   <g id="line2d_12">
    <path d="M 100.750043 226.08 
L 100.750043 4.32 
" clip-path="url(#pe71c676889)" style="fill: none; stroke-dasharray: 5.55,2.4; stroke-dashoffset: 0; stroke: #000000; stroke-width: 1.5"/>
   </g>
   <g id="patch_3">
    <path d="M 4.32 226.08 
L 4.32 4.32 
" style="fill: none; stroke: #000000; stroke-width: 0.8; stroke-linejoin: miter; stroke-linecap: square"/>
   </g>
   <g id="patch_4">
    <path d="M 198.406957 226.08 
L 198.406957 4.32 
" style="fill: none; stroke: #000000; stroke-width: 0.8; stroke-linejoin: miter; stroke-linecap: square"/>
   </g>
   <g id="patch_5">
    <path d="M 4.32 226.08 
L 198.406957 226.08 
" style="fill: none; stroke: #000000; stroke-width: 0.8; stroke-linejoin: miter; stroke-linecap: square"/>
   </g>
   <g id="patch_6">
    <path d="M 4.32 4.32 
L 198.406957 4.32 
" style="fill: none; stroke: #000000; stroke-width: 0.8; stroke-linejoin: miter; stroke-linecap: square"/>
   </g>
  </g>
  <g id="axes_2">
   <g id="patch_7">
    <path d="M 237.224348 226.08 
L 431.311304 226.08 
L 431.311304 4.32 
L 237.224348 4.32 
z
" style="fill: #ffffff"/>
   </g>
   <g id="matplotlib.axis_3">
    <g id="xtick_4">
     <g id="line2d_13"/>
    </g>
    <g id="xtick_5">
     <g id="line2d_14"/>
    </g>
    <g id="text_2">
     <!-- f -->
     <g transform="translate(331.282021 245.684586) scale(0.18 -0.18)">
      <defs>
       <path id="NimbusRomNo9L-Regu-66" d="M 1978 2880 
L 1190 2880 
L 1190 3611 
C 1190 3977 1312 4172 1555 4172 
C 1690 4172 1779 4109 1894 3926 
C 1997 3762 2074 3699 2182 3699 
C 2330 3699 2451 3813 2451 3958 
C 2451 4185 2170 4352 1786 4352 
C 1389 4352 1050 4179 883 3889 
C 717 3611 666 3384 659 2880 
L 134 2880 
L 134 2675 
L 659 2675 
L 659 665 
C 659 198 589 121 128 96 
L 128 0 
L 1792 0 
L 1792 96 
C 1267 115 1197 185 1197 665 
L 1197 2675 
L 1978 2675 
L 1978 2880 
z
" transform="scale(0.015625)"/>
      </defs>
      <use xlink:href="#NimbusRomNo9L-Regu-66" transform="scale(0.996264)"/>
     </g>
    </g>
   </g>
   <g id="matplotlib.axis_4">
    <g id="ytick_7">
     <g id="line2d_15"/>
    </g>
    <g id="ytick_8">
     <g id="line2d_16"/>
    </g>
    <g id="ytick_9">
     <g id="line2d_17"/>
    </g>
    <g id="ytick_10">
     <g id="line2d_18"/>
    </g>
   </g>
   <g id="line2d_19">
    <path d="M 246.046482 226.08 
L 247.828732 226.08 
L 249.610981 226.08 
L 251.39323 226.08 
L 253.17548 226.08 
L 254.957729 226.08 
L 256.739978 226.08 
L 258.522228 226.08 
L 260.304477 226.08 
L 262.086727 226.079999 
L 263.868976 226.079998 
L 265.651225 226.079995 
L 267.433475 226.079986 
L 269.215724 226.07996 
L 270.997973 226.079895 
L 272.780223 226.079731 
L 274.562472 226.07933 
L 276.344722 226.078385 
L 278.126971 226.076231 
L 279.90922 226.071474 
L 281.69147 226.061315 
L 283.473719 226.040329 
L 285.255968 225.998396 
L 287.038218 225.917369 
L 288.820467 225.765991 
L 290.602716 225.492598 
L 292.384966 225.015415 
L 294.167215 224.210707 
L 295.949465 222.900005 
L 297.731714 220.838839 
L 299.513963 217.710863 
L 301.296213 213.132498 
L 303.078462 206.673674 
L 304.860711 197.899236 
L 306.642961 186.432639 
L 308.42521 172.038439 
L 310.20746 154.713637 
L 311.989709 134.771476 
L 313.771958 112.89701 
L 315.554208 90.153828 
L 317.336457 67.927126 
L 319.118706 47.799775 
L 320.900956 31.373101 
L 322.683205 20.058955 
L 324.465455 14.88 
L 326.247704 16.317272 
L 328.029953 24.23648 
L 329.812203 37.908701 
L 331.594452 56.121052 
L 333.376701 77.354045 
L 335.158951 99.989728 
L 336.9412 122.511312 
L 338.72345 143.660979 
L 340.505699 162.535421 
L 342.287948 178.614108 
L 344.070198 191.729199 
L 345.852447 201.995138 
L 347.634696 209.719237 
L 349.416946 215.312497 
L 351.199195 219.214399 
L 352.981444 221.838747 
L 354.763694 223.541589 
L 356.545943 224.608089 
L 358.328193 225.253099 
L 360.110442 225.629933 
L 361.892691 225.84267 
L 363.674941 225.95875 
L 365.45719 226.019985 
L 367.239439 226.05122 
L 369.021689 226.066629 
L 370.803938 226.073981 
L 372.586188 226.077375 
L 374.368437 226.078891 
L 376.150686 226.079546 
L 377.932936 226.07982 
L 379.715185 226.079931 
L 381.497434 226.079974 
L 383.279684 226.079991 
L 385.061933 226.079997 
L 386.844183 226.079999 
L 388.626432 226.08 
L 390.408681 226.08 
L 392.190931 226.08 
L 393.97318 226.08 
L 395.755429 226.08 
L 397.537679 226.08 
L 399.319928 226.08 
L 401.102178 226.08 
L 402.884427 226.08 
L 404.666676 226.08 
L 406.448926 226.08 
L 408.231175 226.08 
L 410.013424 226.08 
L 411.795674 226.08 
L 413.577923 226.08 
L 415.360172 226.08 
L 417.142422 226.08 
L 418.924671 226.08 
L 420.706921 226.08 
L 422.48917 226.08 
" clip-path="url(#p2719012519)" style="fill: none"/>
   </g>
   <g id="line2d_20">
    <path d="M 246.046482 226.055276 
L 247.828732 226.0453 
L 249.610981 226.031642 
L 251.39323 226.013083 
L 253.17548 225.988051 
L 254.957729 225.954546 
L 256.739978 225.910037 
L 258.522228 225.851356 
L 260.304477 225.774581 
L 262.086727 225.674898 
L 263.868976 225.54646 
L 265.651225 225.382247 
L 267.433475 225.173915 
L 269.215724 224.911661 
L 270.997973 224.584104 
L 272.780223 224.178193 
L 274.562472 223.679153 
L 276.344722 223.070495 
L 278.126971 222.334082 
L 279.90922 221.450287 
L 281.69147 220.398243 
L 283.473719 219.156211 
L 285.255968 217.702052 
L 287.038218 216.013832 
L 288.820467 214.070543 
L 290.602716 211.852939 
L 292.384966 209.344462 
L 294.167215 206.532248 
L 295.949465 203.408168 
L 297.731714 199.969868 
L 299.513963 196.221761 
L 301.296213 192.17592 
L 303.078462 187.852808 
L 304.860711 183.281802 
L 306.642961 178.501447 
L 308.42521 173.559405 
L 310.20746 168.512059 
L 311.989709 163.423747 
L 313.771958 158.365637 
L 315.554208 153.414237 
L 317.336457 148.649595 
L 319.118706 144.153221 
L 320.900956 140.00582 
L 322.683205 136.284916 
L 324.465455 133.062452 
L 326.247704 130.402489 
L 328.029953 128.359088 
L 329.812203 126.974487 
L 331.594452 126.277649 
L 333.376701 126.283253 
L 335.158951 126.991179 
L 336.9412 128.386518 
L 338.72345 130.440086 
L 340.505699 133.109444 
L 342.287948 136.340358 
L 344.070198 140.068624 
L 345.852447 144.222191 
L 347.634696 148.723468 
L 349.416946 153.491716 
L 351.199195 158.445432 
L 352.981444 163.504609 
L 354.763694 168.592809 
L 356.545943 173.638965 
L 358.328193 178.578855 
L 360.110442 183.356231 
L 361.892691 187.923573 
L 363.674941 192.242482 
L 365.45719 196.283726 
L 367.239439 200.02698 
L 369.021689 203.4603 
L 370.803938 206.579386 
L 372.586188 209.386693 
L 374.368437 211.890434 
L 376.150686 214.103539 
L 377.932936 216.042615 
L 379.715185 217.726946 
L 381.497434 219.177559 
L 383.279684 220.416398 
L 385.061933 221.465598 
L 386.844183 222.34689 
L 388.626432 223.081122 
L 390.408681 223.687899 
L 392.190931 224.185334 
L 393.97318 224.589889 
L 395.755429 224.91631 
L 397.537679 225.177622 
L 399.319928 225.385179 
L 401.102178 225.548762 
L 402.884427 225.67669 
L 404.666676 225.775967 
L 406.448926 225.852419 
L 408.231175 225.910846 
L 410.013424 225.955158 
L 411.795674 225.98851 
L 413.577923 226.013424 
L 415.360172 226.031894 
L 417.142422 226.045485 
L 418.924671 226.05541 
L 420.706921 226.062605 
L 422.48917 226.067781 
" clip-path="url(#p2719012519)" style="fill: none; stroke-dasharray: 5.55,2.4; stroke-dashoffset: 0; stroke: #1f77b4; stroke-width: 1.5"/>
   </g>
   <g id="line2d_21">
    <path d="M 317.138063 226.08 
L 317.138063 4.32 
" clip-path="url(#p2719012519)" style="fill: none; stroke-dasharray: 5.55,2.4; stroke-dashoffset: 0; stroke: #000000; stroke-width: 1.5"/>
   </g>
   <g id="patch_8">
    <path d="M 237.224348 226.08 
L 237.224348 4.32 
" style="fill: none; stroke: #000000; stroke-width: 0.8; stroke-linejoin: miter; stroke-linecap: square"/>
   </g>
   <g id="patch_9">
    <path d="M 431.311304 226.08 
L 431.311304 4.32 
" style="fill: none; stroke: #000000; stroke-width: 0.8; stroke-linejoin: miter; stroke-linecap: square"/>
   </g>
   <g id="patch_10">
    <path d="M 237.224348 226.08 
L 431.311304 226.08 
" style="fill: none; stroke: #000000; stroke-width: 0.8; stroke-linejoin: miter; stroke-linecap: square"/>
   </g>
   <g id="patch_11">
    <path d="M 237.224348 4.32 
L 431.311304 4.32 
" style="fill: none; stroke: #000000; stroke-width: 0.8; stroke-linejoin: miter; stroke-linecap: square"/>
   </g>
  </g>
  <g id="axes_3">
   <g id="patch_12">
    <path d="M 470.128696 226.08 
L 664.215652 226.08 
L 664.215652 4.32 
L 470.128696 4.32 
z
" style="fill: #ffffff"/>
   </g>
   <g id="matplotlib.axis_5">
    <g id="xtick_6">
     <g id="line2d_22"/>
    </g>
    <g id="xtick_7">
     <g id="line2d_23"/>
    </g>
    <g id="xtick_8">
     <g id="line2d_24"/>
    </g>
    <g id="text_3">
     <!-- $\phi$ -->
     <g transform="translate(562.24067 245.684586) scale(0.18 -0.18)">
      <defs>
       <path id="rtxmi-1e" d="M 3360 1843 
C 3360 2310 3021 2707 2381 2790 
L 2758 4013 
L 2227 3929 
L 1939 2784 
C 934 2681 154 1849 154 902 
C 154 428 410 -45 1229 -90 
L 928 -1344 
L 1088 -1344 
L 1485 -84 
C 2534 0 3360 896 3360 1843 
z
M 2848 1894 
C 2848 806 2170 147 1542 89 
L 2317 2592 
C 2758 2432 2848 2054 2848 1894 
z
M 1894 2611 
L 1274 102 
C 845 224 691 614 691 883 
C 691 1868 1229 2521 1894 2611 
z
" transform="scale(0.015625)"/>
      </defs>
      <use xlink:href="#rtxmi-1e" transform="scale(0.996264)"/>
     </g>
    </g>
   </g>
   <g id="matplotlib.axis_6">
    <g id="ytick_11">
     <g id="line2d_25"/>
    </g>
    <g id="ytick_12">
     <g id="line2d_26"/>
    </g>
    <g id="ytick_13">
     <g id="line2d_27"/>
    </g>
    <g id="ytick_14">
     <g id="line2d_28"/>
    </g>
    <g id="ytick_15">
     <g id="line2d_29"/>
    </g>
    <g id="ytick_16">
     <g id="line2d_30"/>
    </g>
   </g>
   <g id="line2d_31">
    <path d="M 478.95083 226.08 
L 480.733079 226.08 
L 482.515329 226.08 
L 484.297578 226.08 
L 486.079828 226.08 
L 487.862077 226.08 
L 489.644326 226.08 
L 491.426576 226.08 
L 493.208825 226.08 
L 494.991074 226.08 
L 496.773324 226.08 
L 498.555573 226.08 
L 500.337822 226.08 
L 502.120072 226.08 
L 503.902321 226.08 
L 505.684571 226.08 
L 507.46682 226.08 
L 509.249069 226.08 
L 511.031319 226.08 
L 512.813568 226.08 
L 514.595817 226.08 
L 516.378067 226.079999 
L 518.160316 226.079998 
L 519.942566 226.079994 
L 521.724815 226.079983 
L 523.507064 226.079953 
L 525.289314 226.079871 
L 527.071563 226.079661 
L 528.853812 226.079136 
L 530.636062 226.077875 
L 532.418311 226.074945 
L 534.200561 226.068377 
L 535.98281 226.054164 
L 537.765059 226.024489 
L 539.547309 225.964706 
L 541.329558 225.848526 
L 543.111807 225.630773 
L 544.894057 225.237254 
L 546.676306 224.551745 
L 548.458556 223.40106 
L 550.240805 221.540603 
L 552.023054 218.644648 
L 553.805304 214.307387 
L 555.587553 208.061763 
L 557.369802 199.422478 
L 559.152052 187.956276 
L 560.934301 173.376566 
L 562.71655 155.651154 
L 564.4988 135.103278 
L 566.281049 112.480072 
L 568.063299 88.962184 
L 569.845548 66.095549 
L 571.627797 45.641286 
L 573.410047 29.359451 
L 575.192296 18.761627 
L 576.974545 14.88 
L 578.756795 18.101667 
L 580.539044 28.105009 
L 582.321294 43.912613 
L 584.103543 64.048675 
L 585.885792 86.765797 
L 587.668042 110.292983 
L 589.450291 133.05656 
L 591.23254 153.837464 
L 593.01479 171.84725 
L 594.797039 186.725144 
L 596.579289 198.474025 
L 598.361538 207.36129 
L 600.143787 213.810785 
L 601.926037 218.306337 
L 603.708286 221.31895 
L 605.490535 223.261307 
L 607.272785 224.466902 
L 609.055034 225.187636 
L 610.837284 225.60281 
L 612.619533 225.833334 
L 614.401782 225.956748 
L 616.184032 226.020468 
L 617.966281 226.052205 
L 619.74853 226.067455 
L 621.53078 226.074527 
L 623.313029 226.077692 
L 625.095278 226.079059 
L 626.877528 226.079629 
L 628.659777 226.079859 
L 630.442027 226.079948 
L 632.224276 226.079981 
L 634.006525 226.079994 
L 635.788775 226.079998 
L 637.571024 226.079999 
L 639.353273 226.08 
L 641.135523 226.08 
L 642.917772 226.08 
L 644.700022 226.08 
L 646.482271 226.08 
L 648.26452 226.08 
L 650.04677 226.08 
L 651.829019 226.08 
L 653.611268 226.08 
L 655.393518 226.08 
" clip-path="url(#p06bfe62c70)" style="fill: none"/>
   </g>
   <g id="line2d_32">
    <path d="M 478.95083 226.077171 
L 480.733079 226.075852 
L 482.515329 226.073961 
L 484.297578 226.071271 
L 486.079828 226.067472 
L 487.862077 226.062148 
L 489.644326 226.054742 
L 491.426576 226.044518 
L 493.208825 226.030511 
L 494.991074 226.011466 
L 496.773324 225.985768 
L 498.555573 225.951355 
L 500.337822 225.905626 
L 502.120072 225.845326 
L 503.902321 225.766422 
L 505.684571 225.663972 
L 507.46682 225.531981 
L 509.249069 225.363254 
L 511.031319 225.149254 
L 512.813568 224.879967 
L 514.595817 224.543787 
L 516.378067 224.127432 
L 518.160316 223.615907 
L 519.942566 222.99252 
L 521.724815 222.238971 
L 523.507064 221.335534 
L 525.289314 220.261336 
L 527.071563 218.994745 
L 528.853812 217.513883 
L 530.636062 215.797261 
L 532.418311 213.824533 
L 534.200561 211.577356 
L 535.98281 209.040346 
L 537.765059 206.202093 
L 539.547309 203.056211 
L 541.329558 199.602364 
L 543.111807 195.847234 
L 544.894057 191.805365 
L 546.676306 187.499836 
L 548.458556 182.962698 
L 550.240805 178.235134 
L 552.023054 173.367284 
L 553.805304 168.417734 
L 555.587553 163.452613 
L 557.369802 158.544339 
L 559.152052 153.770012 
L 560.934301 149.209502 
L 562.71655 144.943295 
L 564.4988 141.050169 
L 566.281049 137.604804 
L 568.063299 134.675405 
L 569.845548 132.32147 
L 571.627797 130.591774 
L 573.410047 129.522695 
L 575.192296 129.136942 
L 576.974545 129.44275 
L 578.756795 130.433587 
L 580.539044 132.088391 
L 582.321294 134.372311 
L 584.103543 137.237926 
L 585.885792 140.626885 
L 587.668042 144.471878 
L 589.450291 148.698858 
L 591.23254 153.229395 
L 593.01479 157.983081 
L 594.797039 162.879861 
L 596.579289 167.842212 
L 598.361538 172.797084 
L 600.143787 177.677547 
L 601.926037 182.424091 
L 603.708286 186.985563 
L 605.490535 191.319728 
L 607.272785 195.39348 
L 609.055034 199.182719 
L 610.837284 202.671941 
L 612.619533 205.853595 
L 614.401782 208.727252 
L 616.184032 211.298651 
L 617.966281 213.578671 
L 619.74853 215.58229 
L 621.53078 217.327559 
L 623.313029 218.834637 
L 625.095278 220.124924 
L 626.877528 221.220285 
L 628.659777 222.14241 
L 630.442027 222.912282 
L 632.224276 223.549777 
L 634.006525 224.07337 
L 635.788775 224.499945 
L 637.571024 224.844698 
L 639.353273 225.121106 
L 641.135523 225.340966 
L 642.917772 225.514472 
L 644.700022 225.650325 
L 646.482271 225.755867 
L 648.26452 225.837226 
L 650.04677 225.899459 
L 651.829019 225.946695 
L 653.611268 225.982273 
L 655.393518 226.008866 
" clip-path="url(#p06bfe62c70)" style="fill: none; stroke-dasharray: 5.55,2.4; stroke-dashoffset: 0; stroke: #1f77b4; stroke-width: 1.5"/>
   </g>
   <g id="line2d_33">
    <path d="M 583.629937 226.08 
L 583.629937 4.32 
" clip-path="url(#p06bfe62c70)" style="fill: none; stroke-dasharray: 5.55,2.4; stroke-dashoffset: 0; stroke: #000000; stroke-width: 1.5"/>
   </g>
   <g id="patch_13">
    <path d="M 470.128696 226.08 
L 470.128696 4.32 
" style="fill: none; stroke: #000000; stroke-width: 0.8; stroke-linejoin: miter; stroke-linecap: square"/>
   </g>
   <g id="patch_14">
    <path d="M 664.215652 226.08 
L 664.215652 4.32 
" style="fill: none; stroke: #000000; stroke-width: 0.8; stroke-linejoin: miter; stroke-linecap: square"/>
   </g>
   <g id="patch_15">
    <path d="M 470.128696 226.08 
L 664.215652 226.08 
" style="fill: none; stroke: #000000; stroke-width: 0.8; stroke-linejoin: miter; stroke-linecap: square"/>
   </g>
   <g id="patch_16">
    <path d="M 470.128696 4.32 
L 664.215652 4.32 
" style="fill: none; stroke: #000000; stroke-width: 0.8; stroke-linejoin: miter; stroke-linecap: square"/>
   </g>
  </g>
  <g id="axes_4">
   <g id="patch_17">
    <path d="M 703.033043 226.08 
L 897.12 226.08 
L 897.12 4.32 
L 703.033043 4.32 
z
" style="fill: #ffffff"/>
   </g>
   <g id="matplotlib.axis_7">
    <g id="xtick_9">
     <g id="line2d_34"/>
    </g>
    <g id="xtick_10">
     <g id="line2d_35"/>
    </g>
    <g id="xtick_11">
     <g id="line2d_36"/>
    </g>
    <g id="text_4">
     <!-- B -->
     <g transform="translate(794.095951 245.684586) scale(0.18 -0.18)">
      <defs>
       <path id="NimbusRomNo9L-Regu-42" d="M 109 4224 
L 109 4102 
C 646 4070 723 4000 723 3528 
L 723 695 
C 723 223 640 140 109 121 
L 109 0 
L 2246 0 
C 2746 0 3200 134 3437 351 
C 3667 555 3795 842 3795 1148 
C 3795 1429 3680 1684 3482 1869 
C 3290 2041 3117 2118 2701 2220 
C 3034 2303 3168 2367 3322 2500 
C 3482 2641 3578 2877 3578 3138 
C 3578 3853 3008 4224 1901 4224 
L 109 4224 
z
M 1376 2080 
C 1997 2080 2291 2048 2522 1952 
C 2886 1799 3059 1544 3059 1142 
C 3059 798 2925 549 2669 402 
C 2464 287 2202 236 1779 236 
C 1466 236 1376 294 1376 498 
L 1376 2080 
z
M 1376 2335 
L 1376 3795 
C 1376 3929 1421 3987 1517 3987 
L 1798 3987 
C 2534 3987 2925 3680 2925 3113 
C 2925 2615 2586 2335 1984 2335 
L 1376 2335 
z
" transform="scale(0.015625)"/>
      </defs>
      <use xlink:href="#NimbusRomNo9L-Regu-42" transform="scale(0.996264)"/>
     </g>
    </g>
   </g>
   <g id="matplotlib.axis_8">
    <g id="ytick_17">
     <g id="line2d_37"/>
    </g>
    <g id="ytick_18">
     <g id="line2d_38"/>
    </g>
    <g id="ytick_19">
     <g id="line2d_39"/>
    </g>
    <g id="ytick_20">
     <g id="line2d_40"/>
    </g>
   </g>
   <g id="line2d_41">
    <path d="M 711.855178 226.08 
L 713.637427 226.08 
L 715.419677 226.08 
L 717.201926 226.08 
L 718.984175 226.08 
L 720.766425 226.08 
L 722.548674 226.08 
L 724.330923 226.08 
L 726.113173 226.08 
L 727.895422 226.08 
L 729.677672 226.08 
L 731.459921 226.08 
L 733.24217 226.08 
L 735.02442 226.08 
L 736.806669 226.08 
L 738.588918 226.08 
L 740.371168 226.08 
L 742.153417 226.08 
L 743.935667 226.08 
L 745.717916 226.08 
L 747.500165 226.079999 
L 749.282415 226.079998 
L 751.064664 226.079993 
L 752.846913 226.079978 
L 754.629163 226.079934 
L 756.411412 226.079808 
L 758.193662 226.079464 
L 759.975911 226.078563 
L 761.75816 226.076293 
L 763.54041 226.070807 
L 765.322659 226.058081 
L 767.104908 226.029752 
L 768.887158 225.969247 
L 770.669407 225.845298 
L 772.451656 225.601798 
L 774.233906 225.143217 
L 776.016155 224.315597 
L 777.798405 222.884868 
L 779.580654 220.516965 
L 781.362903 216.76749 
L 783.145153 211.091653 
L 784.927402 202.886155 
L 786.709651 191.571685 
L 788.491901 176.716408 
L 790.27415 158.187506 
L 792.0564 136.302239 
L 793.838649 111.937394 
L 795.620898 86.552826 
L 797.403148 62.095871 
L 799.185397 40.779395 
L 800.967646 24.761419 
L 802.749896 15.787935 
L 804.532145 14.88 
L 806.314395 22.142569 
L 808.096644 36.744531 
L 809.878893 57.075209 
L 811.661143 81.036572 
L 813.443392 106.397929 
L 815.225641 131.130618 
L 817.007891 153.655219 
L 818.79014 172.965361 
L 820.57239 188.628149 
L 822.354639 200.689904 
L 824.136888 209.530404 
L 825.919138 215.708479 
L 827.701387 219.830727 
L 829.483636 222.459666 
L 831.265886 224.063493 
L 833.048135 225.000102 
L 834.830384 225.523971 
L 836.612634 225.804739 
L 838.394883 225.948984 
L 840.177133 226.020044 
L 841.959382 226.05362 
L 843.741631 226.06884 
L 845.523881 226.075461 
L 847.30613 226.078225 
L 849.088379 226.079333 
L 850.870629 226.079759 
L 852.652878 226.079916 
L 854.435128 226.079972 
L 856.217377 226.079991 
L 857.999626 226.079997 
L 859.781876 226.079999 
L 861.564125 226.08 
L 863.346374 226.08 
L 865.128624 226.08 
L 866.910873 226.08 
L 868.693123 226.08 
L 870.475372 226.08 
L 872.257621 226.08 
L 874.039871 226.08 
L 875.82212 226.08 
L 877.604369 226.08 
L 879.386619 226.08 
L 881.168868 226.08 
L 882.951117 226.08 
L 884.733367 226.08 
L 886.515616 226.08 
L 888.297866 226.08 
" clip-path="url(#p4aa0a6df37)" style="fill: none"/>
   </g>
   <g id="line2d_42">
    <path d="M 711.855178 226.07784 
L 713.637427 226.076716 
L 715.419677 226.075048 
L 717.201926 226.072596 
L 718.984175 226.069021 
L 720.766425 226.063855 
L 722.548674 226.056456 
L 724.330923 226.045952 
L 726.113173 226.031171 
L 727.895422 226.010556 
L 729.677672 225.982059 
L 731.459921 225.943018 
L 733.24217 225.890008 
L 735.02442 225.818676 
L 736.806669 225.723553 
L 738.588918 225.59785 
L 740.371168 225.433242 
L 742.153417 225.219656 
L 743.935667 224.945054 
L 745.717916 224.595263 
L 747.500165 224.153825 
L 749.282415 223.601929 
L 751.064664 222.918425 
L 752.846913 222.079953 
L 754.629163 221.061216 
L 756.411412 219.835413 
L 758.193662 218.374858 
L 759.975911 216.651786 
L 761.75816 214.639369 
L 763.54041 212.312905 
L 765.322659 209.651177 
L 767.104908 206.637936 
L 768.887158 203.263445 
L 770.669407 199.526023 
L 772.451656 195.433501 
L 774.233906 191.004493 
L 776.016155 186.269391 
L 777.798405 181.270976 
L 779.580654 176.064578 
L 781.362903 170.717694 
L 783.145153 165.309025 
L 784.927402 159.926927 
L 786.709651 154.66727 
L 788.491901 149.630784 
L 790.27415 144.919965 
L 792.0564 140.635679 
L 793.838649 136.873608 
L 795.620898 133.720721 
L 797.403148 131.251936 
L 799.185397 129.527167 
L 800.967646 128.588904 
L 802.749896 128.460479 
L 804.532145 129.145097 
L 806.314395 130.625704 
L 808.096644 132.865694 
L 809.878893 135.810415 
L 811.661143 139.389378 
L 813.443392 143.51907 
L 815.225641 148.106178 
L 817.007891 153.051083 
L 818.79014 158.251425 
L 820.57239 163.605569 
L 822.354639 169.015802 
L 824.136888 174.391144 
L 825.919138 179.649656 
L 827.701387 184.720176 
L 829.483636 189.543474 
L 831.265886 194.072805 
L 833.048135 198.273921 
L 834.830384 202.124585 
L 836.612634 205.613696 
L 838.394883 208.740086 
L 840.177133 211.511117 
L 841.959382 213.941156 
L 843.741631 216.050016 
L 845.523881 217.861456 
L 847.30613 219.40177 
L 849.088379 220.698546 
L 850.870629 221.779592 
L 852.652878 222.672063 
L 854.435128 223.401787 
L 856.217377 223.992769 
L 857.999626 224.466876 
L 859.781876 224.843663 
L 861.564125 225.140325 
L 863.346374 225.371744 
L 865.128624 225.550612 
L 866.910873 225.687599 
L 868.693123 225.791558 
L 870.475372 225.869739 
L 872.257621 225.928005 
L 874.039871 225.971038 
L 875.82212 226.002538 
L 877.604369 226.02539 
L 879.386619 226.04182 
L 881.168868 226.053529 
L 882.951117 226.0618 
L 884.733367 226.067591 
L 886.515616 226.07161 
L 888.297866 226.074374 
" clip-path="url(#p4aa0a6df37)" style="fill: none; stroke-dasharray: 5.55,2.4; stroke-dashoffset: 0; stroke: #1f77b4; stroke-width: 1.5"/>
   </g>
   <g id="line2d_43">
    <path d="M 798.891791 226.08 
L 798.891791 4.32 
" clip-path="url(#p4aa0a6df37)" style="fill: none; stroke-dasharray: 5.55,2.4; stroke-dashoffset: 0; stroke: #000000; stroke-width: 1.5"/>
   </g>
   <g id="patch_18">
    <path d="M 703.033043 226.08 
L 703.033043 4.32 
" style="fill: none; stroke: #000000; stroke-width: 0.8; stroke-linejoin: miter; stroke-linecap: square"/>
   </g>
   <g id="patch_19">
    <path d="M 897.12 226.08 
L 897.12 4.32 
" style="fill: none; stroke: #000000; stroke-width: 0.8; stroke-linejoin: miter; stroke-linecap: square"/>
   </g>
   <g id="patch_20">
    <path d="M 703.033043 226.08 
L 897.12 226.08 
" style="fill: none; stroke: #000000; stroke-width: 0.8; stroke-linejoin: miter; stroke-linecap: square"/>
   </g>
   <g id="patch_21">
    <path d="M 703.033043 4.32 
L 897.12 4.32 
" style="fill: none; stroke: #000000; stroke-width: 0.8; stroke-linejoin: miter; stroke-linecap: square"/>
   </g>
   <g id="legend_1">
    <g id="patch_22">
     <path d="M 908.32 173.318058 
L 1028.14267 173.318058 
Q 1031.34267 173.318058 1031.34267 170.118058 
L 1031.34267 126.4 
Q 1031.34267 123.2 1028.14267 123.2 
L 908.32 123.2 
Q 905.12 123.2 905.12 126.4 
L 905.12 170.118058 
Q 905.12 173.318058 908.32 173.318058 
z
" style="fill: #ffffff; opacity: 0.8; stroke: #cccccc; stroke-linejoin: miter"/>
    </g>
    <g id="line2d_44">
     <path d="M 911.52 135.2 
L 927.52 135.2 
L 943.52 135.2 
" style="fill: none; stroke-dasharray: 5.55,2.4; stroke-dashoffset: 0; stroke: #000000; stroke-width: 1.5"/>
    </g>
    <g id="text_5">
     <!-- Truth -->
     <g transform="translate(956.32 140.8) scale(0.16 -0.16)">
      <defs>
       <path id="NimbusRomNo9L-Regu-54" d="M 1626 3955 
L 1626 765 
C 1626 223 1555 153 1024 121 
L 1024 0 
L 2893 0 
L 2893 121 
C 2368 147 2278 230 2278 695 
L 2278 3955 
L 2624 3955 
C 3354 3955 3494 3840 3642 3138 
L 3795 3138 
L 3757 4224 
L 147 4224 
L 109 3138 
L 262 3138 
C 416 3834 563 3955 1280 3955 
L 1626 3955 
z
" transform="scale(0.015625)"/>
       <path id="NimbusRomNo9L-Regu-72" d="M 45 2496 
C 134 2515 192 2521 269 2521 
C 429 2521 486 2419 486 2137 
L 486 537 
C 486 217 442 172 32 96 
L 32 0 
L 1568 0 
L 1568 96 
C 1133 115 1024 211 1024 576 
L 1024 2016 
C 1024 2220 1299 2540 1472 2540 
C 1510 2540 1568 2508 1638 2444 
C 1741 2355 1811 2316 1894 2316 
C 2048 2316 2144 2425 2144 2604 
C 2144 2815 2010 2944 1792 2944 
C 1523 2944 1338 2796 1024 2342 
L 1024 2931 
L 992 2944 
C 653 2803 422 2720 45 2598 
L 45 2496 
z
" transform="scale(0.015625)"/>
       <path id="NimbusRomNo9L-Regu-75" d="M 3066 319 
L 3034 319 
C 2739 319 2669 390 2669 684 
L 2669 2880 
L 1658 2880 
L 1658 2771 
C 2054 2752 2131 2688 2131 2368 
L 2131 864 
C 2131 684 2099 595 2010 524 
C 1837 384 1638 307 1446 307 
C 1197 307 992 524 992 793 
L 992 2880 
L 58 2880 
L 58 2790 
C 365 2771 454 2675 454 2380 
L 454 768 
C 454 262 762 -64 1229 -64 
C 1466 -64 1715 38 1888 211 
L 2163 486 
L 2163 -45 
L 2189 -64 
C 2509 64 2739 134 3066 224 
L 3066 319 
z
" transform="scale(0.015625)"/>
       <path id="NimbusRomNo9L-Regu-74" d="M 1632 2880 
L 986 2880 
L 986 3622 
C 986 3686 979 3705 941 3705 
C 896 3648 858 3590 813 3526 
C 570 3174 294 2867 192 2841 
C 122 2796 83 2751 83 2719 
C 83 2700 90 2687 109 2675 
L 448 2675 
L 448 748 
C 448 211 640 -64 1018 -64 
C 1331 -64 1574 89 1786 422 
L 1702 492 
C 1568 332 1459 268 1318 268 
C 1082 268 986 441 986 844 
L 986 2675 
L 1632 2675 
L 1632 2880 
z
" transform="scale(0.015625)"/>
       <path id="NimbusRomNo9L-Regu-68" d="M 1005 2195 
C 1274 2489 1466 2598 1715 2598 
C 2035 2598 2195 2368 2195 1920 
L 2195 652 
C 2195 217 2131 134 1760 96 
L 1760 0 
L 3117 0 
L 3117 96 
C 2771 160 2733 211 2733 652 
L 2733 1926 
C 2733 2598 2464 2944 1946 2944 
C 1568 2944 1299 2790 1005 2406 
L 1005 4352 
L 973 4371 
C 755 4294 595 4243 237 4140 
L 64 4089 
L 64 3987 
C 90 3993 109 3993 141 3993 
C 416 3993 467 3942 467 3667 
L 467 652 
C 467 204 429 147 58 96 
L 58 0 
L 1440 0 
L 1440 96 
C 1069 134 1005 211 1005 652 
L 1005 2195 
z
" transform="scale(0.015625)"/>
      </defs>
      <use xlink:href="#NimbusRomNo9L-Regu-54" transform="scale(0.996264)"/>
      <use xlink:href="#NimbusRomNo9L-Regu-72" transform="translate(57.384828 0) scale(0.996264)"/>
      <use xlink:href="#NimbusRomNo9L-Regu-75" transform="translate(90.560438 0) scale(0.996264)"/>
      <use xlink:href="#NimbusRomNo9L-Regu-74" transform="translate(140.373639 0) scale(0.996264)"/>
      <use xlink:href="#NimbusRomNo9L-Regu-68" transform="translate(168.069766 0) scale(0.996264)"/>
     </g>
    </g>
    <g id="line2d_45">
     <path d="M 911.52 157.843082 
L 927.52 157.843082 
L 943.52 157.843082 
" style="fill: none; stroke-dasharray: 5.55,2.4; stroke-dashoffset: 0; stroke: #1f77b4; stroke-width: 1.5"/>
    </g>
    <g id="text_6">
     <!-- Noisy data -->
     <g transform="translate(956.32 163.443082) scale(0.16 -0.16)">
      <defs>
       <path id="NimbusRomNo9L-Regu-4e" d="M 3917 -64 
L 3917 3287 
C 3917 3669 3981 3905 4102 3988 
C 4192 4051 4282 4077 4525 4102 
L 4525 4224 
L 3021 4224 
L 3021 4102 
C 3264 4083 3354 4058 3450 4000 
C 3578 3911 3635 3682 3635 3287 
L 3635 1140 
L 1171 4224 
L 77 4224 
L 77 4102 
C 352 4102 442 4051 698 3752 
L 698 943 
C 698 281 608 160 77 121 
L 77 0 
L 1581 0 
L 1581 121 
C 1088 147 979 294 979 940 
L 979 3449 
L 3808 -64 
L 3917 -64 
z
" transform="scale(0.015625)"/>
       <path id="NimbusRomNo9L-Regu-6f" d="M 1600 2944 
C 768 2944 186 2329 186 1446 
C 186 582 781 -64 1587 -64 
C 2394 -64 3008 614 3008 1497 
C 3008 2336 2419 2944 1600 2944 
z
M 1517 2764 
C 2054 2764 2432 2150 2432 1273 
C 2432 550 2144 115 1664 115 
C 1414 115 1178 268 1043 524 
C 864 857 762 1305 762 1760 
C 762 2368 1062 2764 1517 2764 
z
" transform="scale(0.015625)"/>
       <path id="NimbusRomNo9L-Regu-69" d="M 1120 2944 
L 128 2592 
L 128 2496 
L 179 2502 
C 256 2515 339 2521 397 2521 
C 550 2521 608 2419 608 2137 
L 608 652 
C 608 192 544 121 102 96 
L 102 0 
L 1619 0 
L 1619 96 
C 1197 128 1146 192 1146 652 
L 1146 2924 
L 1120 2944 
z
M 819 4352 
C 646 4352 499 4204 499 4025 
C 499 3846 640 3699 819 3699 
C 1005 3699 1152 3839 1152 4025 
C 1152 4204 1005 4352 819 4352 
z
" transform="scale(0.015625)"/>
       <path id="NimbusRomNo9L-Regu-73" d="M 2016 2009 
L 1990 2880 
L 1920 2880 
L 1907 2867 
C 1850 2822 1843 2815 1818 2815 
C 1779 2815 1715 2828 1645 2860 
C 1504 2918 1363 2944 1197 2944 
C 691 2944 326 2617 326 2155 
C 326 1796 531 1539 1075 1231 
L 1446 1019 
C 1670 891 1779 737 1779 538 
C 1779 256 1574 76 1248 76 
C 1030 76 832 160 710 301 
C 576 461 518 609 435 974 
L 333 974 
L 333 -26 
L 416 -26 
C 461 38 486 51 563 51 
C 621 51 710 38 858 0 
C 1037 -39 1210 -64 1325 -64 
C 1818 -64 2227 307 2227 756 
C 2227 1077 2074 1289 1690 1520 
L 998 1930 
C 819 2033 723 2193 723 2366 
C 723 2623 922 2803 1216 2803 
C 1581 2803 1773 2585 1920 2014 
L 2016 2009 
z
" transform="scale(0.015625)"/>
       <path id="NimbusRomNo9L-Regu-79" d="M 3040 2880 
L 2176 2880 
L 2176 2783 
C 2381 2783 2483 2726 2483 2623 
C 2483 2597 2477 2559 2458 2514 
L 1837 741 
L 1101 2366 
C 1062 2456 1037 2540 1037 2610 
C 1037 2726 1133 2771 1408 2783 
L 1408 2880 
L 90 2880 
L 90 2790 
C 256 2764 365 2694 416 2585 
L 1146 1005 
L 1165 953 
L 1261 761 
C 1440 439 1542 208 1542 112 
C 1542 15 1395 -389 1286 -582 
C 1197 -749 1056 -871 966 -871 
C 928 -871 870 -858 806 -826 
C 685 -781 576 -755 467 -755 
C 320 -755 192 -884 192 -1037 
C 192 -1248 397 -1408 666 -1408 
C 1094 -1408 1402 -1050 1747 -126 
L 2733 2495 
C 2816 2700 2886 2764 3040 2783 
L 3040 2880 
z
" transform="scale(0.015625)"/>
       <path id="NimbusRomNo9L-Regu-64" d="M 2202 -64 
L 3142 268 
L 3142 371 
C 3027 364 3014 364 2995 364 
C 2765 364 2714 435 2714 729 
L 2714 4358 
L 2682 4371 
C 2374 4262 2150 4198 1741 4089 
L 1741 3987 
C 1792 3993 1830 3993 1882 3993 
C 2118 3993 2176 3929 2176 3667 
L 2176 2668 
C 1933 2873 1760 2944 1504 2944 
C 768 2944 173 2220 173 1312 
C 173 492 653 -64 1357 -64 
C 1715 -64 1958 64 2176 364 
L 2176 -45 
L 2202 -64 
z
M 2176 652 
C 2176 608 2131 531 2067 460 
C 1952 332 1792 268 1606 268 
C 1075 268 723 780 723 1568 
C 723 2291 1037 2764 1523 2764 
C 1862 2764 2176 2464 2176 2124 
L 2176 652 
z
" transform="scale(0.015625)"/>
       <path id="NimbusRomNo9L-Regu-61" d="M 2829 422 
C 2720 332 2643 300 2547 300 
C 2400 300 2355 390 2355 672 
L 2355 1920 
C 2355 2252 2323 2438 2227 2592 
C 2086 2822 1811 2944 1434 2944 
C 832 2944 358 2630 358 2227 
C 358 2080 486 1952 634 1952 
C 787 1952 922 2080 922 2220 
C 922 2246 915 2278 909 2323 
C 896 2380 890 2432 890 2476 
C 890 2649 1094 2790 1350 2790 
C 1664 2790 1837 2604 1837 2259 
L 1837 1868 
C 851 1472 742 1420 467 1177 
C 326 1049 237 832 237 620 
C 237 217 518 -64 909 -64 
C 1190 -64 1453 70 1843 403 
C 1875 70 1990 -64 2253 -64 
C 2470 -64 2605 12 2829 256 
L 2829 422 
z
M 1837 787 
C 1837 588 1805 531 1670 454 
C 1517 364 1338 307 1203 307 
C 979 307 800 524 800 800 
L 800 825 
C 800 1203 1062 1433 1837 1715 
L 1837 787 
z
" transform="scale(0.015625)"/>
      </defs>
      <use xlink:href="#NimbusRomNo9L-Regu-4e" transform="scale(0.996264)"/>
      <use xlink:href="#NimbusRomNo9L-Regu-6f" transform="translate(71.930274 0) scale(0.996264)"/>
      <use xlink:href="#NimbusRomNo9L-Regu-69" transform="translate(121.743474 0) scale(0.996264)"/>
      <use xlink:href="#NimbusRomNo9L-Regu-73" transform="translate(149.439601 0) scale(0.996264)"/>
      <use xlink:href="#NimbusRomNo9L-Regu-79" transform="translate(188.194265 0) scale(0.996264)"/>
      <use xlink:href="#NimbusRomNo9L-Regu-64" transform="translate(262.914066 0) scale(0.996264)"/>
      <use xlink:href="#NimbusRomNo9L-Regu-61" transform="translate(312.727267 0) scale(0.996264)"/>
      <use xlink:href="#NimbusRomNo9L-Regu-74" transform="translate(356.961413 0) scale(0.996264)"/>
      <use xlink:href="#NimbusRomNo9L-Regu-61" transform="translate(384.65754 0) scale(0.996264)"/>
     </g>
    </g>
   </g>
  </g>
 </g>
 <defs>
  <clipPath id="pe71c676889">
   <rect x="4.32" y="4.32" width="194.086957" height="221.76"/>
  </clipPath>
  <clipPath id="p2719012519">
   <rect x="237.224348" y="4.32" width="194.086957" height="221.76"/>
  </clipPath>
  <clipPath id="p06bfe62c70">
   <rect x="470.128696" y="4.32" width="194.086957" height="221.76"/>
  </clipPath>
  <clipPath id="p4aa0a6df37">
   <rect x="703.033043" y="4.32" width="194.086957" height="221.76"/>
  </clipPath>
 </defs>
</svg>
