<?xml version="1.0" encoding="utf-8" standalone="no"?>
<!DOCTYPE svg PUBLIC "-//W3C//DTD SVG 1.1//EN"
  "http://www.w3.org/Graphics/SVG/1.1/DTD/svg11.dtd">
<svg xmlns:xlink="http://www.w3.org/1999/xlink" width="1053.318857pt" height="243.551558pt" viewBox="0 0 1053.318857 243.551558" xmlns="http://www.w3.org/2000/svg" version="1.1">
 <metadata>
  <rdf:RDF xmlns:dc="http://purl.org/dc/elements/1.1/" xmlns:cc="http://creativecommons.org/ns#" xmlns:rdf="http://www.w3.org/1999/02/22-rdf-syntax-ns#">
   <cc:Work>
    <dc:type rdf:resource="http://purl.org/dc/dcmitype/StillImage"/>
    <dc:date>2025-01-23T15:08:05.493617</dc:date>
    <dc:format>image/svg+xml</dc:format>
    <dc:creator>
     <cc:Agent>
      <dc:title>Matplotlib v3.9.2, https://matplotlib.org/</dc:title>
     </cc:Agent>
    </dc:creator>
   </cc:Work>
  </rdf:RDF>
 </metadata>
 <defs>
  <style type="text/css">*{stroke-linejoin: round; stroke-linecap: butt}</style>
 </defs>
 <g id="figure_1">
  <g id="patch_1">
   <path d="M 0 243.551558 
L 1053.318857 243.551558 
L 1053.318857 0 
L 0 0 
z
" style="fill: #ffffff"/>
  </g>
  <g id="axes_1">
   <g id="patch_2">
    <path d="M 1.44 242.111558 
L 195.526957 242.111558 
L 195.526957 20.351558 
L 1.44 20.351558 
z
" style="fill: #ffffff"/>
   </g>
   <g id="PolyCollection_1">
    <path d="M 76.205361 242.111558 
L 76.205361 96.644561 
L 77.98761 73.708087 
L 79.76986 54.033876 
L 81.552109 39.472502 
L 83.334359 31.487148 
L 85.116608 30.911558 
L 86.898857 37.806656 
L 88.681107 51.449919 
L 90.463356 70.460092 
L 92.245605 93.027442 
L 92.245605 242.111558 
L 92.245605 242.111558 
L 90.463356 242.111558 
L 88.681107 242.111558 
L 86.898857 242.111558 
L 85.116608 242.111558 
L 83.334359 242.111558 
L 81.552109 242.111558 
L 79.76986 242.111558 
L 77.98761 242.111558 
L 76.205361 242.111558 
z
" clip-path="url(#p7a6bcb7ab5)" style="fill: #ff7f0e; fill-opacity: 0.3"/>
   </g>
   <g id="matplotlib.axis_1">
    <g id="xtick_1">
     <g id="line2d_1"/>
    </g>
    <g id="xtick_2">
     <g id="line2d_2"/>
    </g>
    <g id="xtick_3">
     <g id="line2d_3"/>
    </g>
   </g>
   <g id="matplotlib.axis_2">
    <g id="ytick_1">
     <g id="line2d_4"/>
    </g>
    <g id="ytick_2">
     <g id="line2d_5"/>
    </g>
    <g id="ytick_3">
     <g id="line2d_6"/>
    </g>
    <g id="ytick_4">
     <g id="line2d_7"/>
    </g>
    <g id="ytick_5">
     <g id="line2d_8"/>
    </g>
    <g id="ytick_6">
     <g id="line2d_9"/>
    </g>
   </g>
   <g id="line2d_10">
    <path d="M 10.262134 242.111558 
L 12.044384 242.111558 
L 13.826633 242.111558 
L 15.608883 242.111558 
L 17.391132 242.111558 
L 19.173381 242.111558 
L 20.955631 242.111558 
L 22.73788 242.111558 
L 24.520129 242.111558 
L 26.302379 242.111557 
L 28.084628 242.111554 
L 29.866877 242.111547 
L 31.649127 242.111526 
L 33.431376 242.111467 
L 35.213626 242.11131 
L 36.995875 242.110902 
L 38.778124 242.109884 
L 40.560374 242.107437 
L 42.342623 242.101773 
L 44.124872 242.089142 
L 45.907122 242.06202 
L 47.689371 242.005941 
L 49.471621 241.894325 
L 51.25387 241.680518 
L 53.036119 241.286455 
L 54.818369 240.587858 
L 56.600618 239.397057 
L 58.382867 237.446251 
L 60.165117 234.376383 
L 61.947366 229.738992 
L 63.729616 223.019663 
L 65.511865 213.690648 
L 67.294114 201.295922 
L 69.076364 185.563874 
L 70.858613 166.532279 
L 72.640862 144.659655 
L 74.423112 120.89064 
L 76.205361 96.644561 
L 77.98761 73.708087 
L 79.76986 54.033876 
L 81.552109 39.472502 
L 83.334359 31.487148 
L 85.116608 30.911558 
L 86.898857 37.806656 
L 88.681107 51.449919 
L 90.463356 70.460092 
L 92.245605 93.027442 
L 94.027855 117.196471 
L 95.810104 141.140228 
L 97.592354 163.374186 
L 99.374603 182.8786 
L 101.156852 199.123722 
L 102.939102 212.014266 
L 104.721351 221.782891 
L 106.5036 228.865396 
L 108.28585 233.784897 
L 110.068099 237.062023 
L 111.850349 239.157415 
L 113.632598 240.444267 
L 115.414847 241.203757 
L 117.197097 241.634721 
L 118.979346 241.869929 
L 120.761595 241.993437 
L 122.543845 242.055851 
L 124.326094 242.086213 
L 126.108344 242.100434 
L 127.890593 242.106848 
L 129.672842 242.109634 
L 131.455092 242.1108 
L 133.237341 242.11127 
L 135.01959 242.111452 
L 136.80184 242.11152 
L 138.584089 242.111545 
L 140.366338 242.111554 
L 142.148588 242.111557 
L 143.930837 242.111557 
L 145.713087 242.111558 
L 147.495336 242.111558 
L 149.277585 242.111558 
L 151.059835 242.111558 
L 152.842084 242.111558 
L 154.624333 242.111558 
L 156.406583 242.111558 
L 158.188832 242.111558 
L 159.971082 242.111558 
L 161.753331 242.111558 
L 163.53558 242.111558 
L 165.31783 242.111558 
L 167.100079 242.111558 
L 168.882328 242.111558 
L 170.664578 242.111558 
L 172.446827 242.111558 
L 174.229077 242.111558 
L 176.011326 242.111558 
L 177.793575 242.111558 
L 179.575825 242.111558 
L 181.358074 242.111558 
L 183.140323 242.111558 
L 184.922573 242.111558 
L 186.704822 242.111558 
" clip-path="url(#p7a6bcb7ab5)" style="fill: none; stroke: #ff7f0e; stroke-width: 1.5; stroke-linecap: square"/>
   </g>
   <g id="line2d_11">
    <path d="M 10.262134 242.081734 
L 12.044384 242.06932 
L 13.826633 242.052194 
L 15.608883 242.02876 
L 17.391132 241.996954 
L 19.173381 241.95414 
L 20.955631 241.896976 
L 22.73788 241.821284 
L 24.520129 241.721882 
L 26.302379 241.592425 
L 28.084628 241.425227 
L 29.866877 241.211093 
L 31.649127 240.939147 
L 33.431376 240.596698 
L 35.213626 240.169134 
L 36.995875 239.639861 
L 38.778124 238.990329 
L 40.560374 238.200129 
L 42.342623 237.24721 
L 44.124872 236.108215 
L 45.907122 234.758956 
L 47.689371 233.175041 
L 49.471621 231.332647 
L 51.25387 229.209445 
L 53.036119 226.785652 
L 54.818369 224.045191 
L 56.600618 220.976919 
L 58.382867 217.575871 
L 60.165117 213.844478 
L 61.947366 209.793665 
L 63.729616 205.443789 
L 65.511865 200.825322 
L 67.294114 195.979221 
L 69.076364 190.956925 
L 70.858613 185.819926 
L 72.640862 180.638889 
L 74.423112 175.49232 
L 76.205361 170.464791 
L 77.98761 165.644761 
L 79.76986 161.122089 
L 81.552109 156.985296 
L 83.334359 153.318721 
L 85.116608 150.199677 
L 86.898857 147.695746 
L 88.681107 145.862349 
L 90.463356 144.740708 
L 92.245605 144.356303 
L 94.027855 144.717914 
L 95.810104 145.817281 
L 97.592354 147.629423 
L 99.374603 150.113582 
L 101.156852 153.214743 
L 102.939102 156.86566 
L 104.721351 160.989281 
L 106.5036 165.50144 
L 108.28585 170.3137 
L 110.068099 175.336204 
L 111.850349 180.480409 
L 113.632598 185.661591 
L 115.414847 190.801031 
L 117.197097 195.8278 
L 118.979346 200.680111 
L 120.761595 205.306208 
L 122.543845 209.664811 
L 124.326094 213.725131 
L 126.108344 217.466511 
L 127.890593 220.877748 
L 129.672842 223.956169 
L 131.455092 226.706528 
L 133.237341 229.139799 
L 135.01959 231.271925 
L 136.80184 233.122594 
L 138.584089 234.714074 
L 140.366338 236.070155 
L 142.148588 237.215225 
L 143.930837 238.173488 
L 145.713087 238.968334 
L 147.495336 239.621861 
L 149.277585 240.15453 
L 151.059835 240.584952 
L 152.842084 240.929779 
L 154.624333 241.203685 
L 156.406583 241.41942 
L 158.188832 241.587909 
L 159.971082 241.7184 
L 161.753331 241.818622 
L 163.53558 241.894958 
L 165.31783 241.952622 
L 167.100079 241.995822 
L 168.882328 242.027922 
L 170.664578 242.05158 
L 172.446827 242.068873 
L 174.229077 242.081411 
L 176.011326 242.090429 
L 177.793575 242.096862 
L 179.575825 242.101414 
L 181.358074 242.10461 
L 183.140323 242.106835 
L 184.922573 242.108372 
L 186.704822 242.109425 
" clip-path="url(#p7a6bcb7ab5)" style="fill: none; stroke-dasharray: 5.55,2.4; stroke-dashoffset: 0; stroke: #1f77b4; stroke-width: 1.5"/>
   </g>
   <g id="line2d_12">
    <path d="M 97.870043 242.111558 
L 97.870043 20.351558 
" clip-path="url(#p7a6bcb7ab5)" style="fill: none; stroke-dasharray: 5.55,2.4; stroke-dashoffset: 0; stroke: #000000; stroke-width: 1.5"/>
   </g>
   <g id="patch_3">
    <path d="M 1.44 242.111558 
L 1.44 20.351558 
" style="fill: none; stroke: #000000; stroke-width: 0.8; stroke-linejoin: miter; stroke-linecap: square"/>
   </g>
   <g id="patch_4">
    <path d="M 195.526957 242.111558 
L 195.526957 20.351558 
" style="fill: none; stroke: #000000; stroke-width: 0.8; stroke-linejoin: miter; stroke-linecap: square"/>
   </g>
   <g id="patch_5">
    <path d="M 1.44 242.111558 
L 195.526957 242.111558 
" style="fill: none; stroke: #000000; stroke-width: 0.8; stroke-linejoin: miter; stroke-linecap: square"/>
   </g>
   <g id="patch_6">
    <path d="M 1.44 20.351558 
L 195.526957 20.351558 
" style="fill: none; stroke: #000000; stroke-width: 0.8; stroke-linejoin: miter; stroke-linecap: square"/>
   </g>
   <g id="text_1">
    <!-- A -->
    <g transform="translate(91.578175 14.351558) scale(0.192 -0.192)">
     <defs>
      <path id="NimbusRomNo9L-Regu-41" d="M 4518 121 
C 4230 141 4166 205 3942 686 
L 2349 4288 
L 2221 4288 
L 890 1187 
C 480 238 403 134 96 121 
L 96 0 
L 1363 0 
L 1363 121 
C 1056 121 928 205 928 387 
C 928 465 947 556 979 641 
L 1274 1401 
L 2950 1401 
L 3213 777 
C 3290 602 3334 433 3334 342 
C 3334 179 3226 128 2886 121 
L 2886 0 
L 4518 0 
L 4518 121 
z
M 1382 1664 
L 2118 3392 
L 2861 1664 
L 1382 1664 
z
" transform="scale(0.015625)"/>
     </defs>
     <use xlink:href="#NimbusRomNo9L-Regu-41" transform="scale(0.996264)"/>
    </g>
   </g>
  </g>
  <g id="axes_2">
   <g id="patch_7">
    <path d="M 234.344348 242.111558 
L 428.431304 242.111558 
L 428.431304 20.351558 
L 234.344348 20.351558 
z
" style="fill: #ffffff"/>
   </g>
   <g id="PolyCollection_2">
    <path d="M 312.674208 242.111558 
L 312.674208 106.185386 
L 314.456457 83.958683 
L 316.238706 63.831333 
L 318.020956 47.404659 
L 319.803205 36.090513 
L 321.585455 30.911558 
L 323.367704 32.34883 
L 325.149953 40.268037 
L 326.932203 53.940259 
L 328.714452 72.15261 
L 330.496701 93.385602 
L 330.496701 242.111558 
L 330.496701 242.111558 
L 328.714452 242.111558 
L 326.932203 242.111558 
L 325.149953 242.111558 
L 323.367704 242.111558 
L 321.585455 242.111558 
L 319.803205 242.111558 
L 318.020956 242.111558 
L 316.238706 242.111558 
L 314.456457 242.111558 
L 312.674208 242.111558 
z
" clip-path="url(#p37d993322d)" style="fill: #ff7f0e; fill-opacity: 0.3"/>
   </g>
   <g id="matplotlib.axis_3">
    <g id="xtick_4">
     <g id="line2d_13"/>
    </g>
    <g id="xtick_5">
     <g id="line2d_14"/>
    </g>
   </g>
   <g id="matplotlib.axis_4">
    <g id="ytick_7">
     <g id="line2d_15"/>
    </g>
    <g id="ytick_8">
     <g id="line2d_16"/>
    </g>
    <g id="ytick_9">
     <g id="line2d_17"/>
    </g>
    <g id="ytick_10">
     <g id="line2d_18"/>
    </g>
   </g>
   <g id="line2d_19">
    <path d="M 243.166482 242.111558 
L 244.948732 242.111558 
L 246.730981 242.111558 
L 248.51323 242.111558 
L 250.29548 242.111558 
L 252.077729 242.111558 
L 253.859978 242.111558 
L 255.642228 242.111558 
L 257.424477 242.111558 
L 259.206727 242.111557 
L 260.988976 242.111556 
L 262.771225 242.111553 
L 264.553475 242.111543 
L 266.335724 242.111518 
L 268.117973 242.111453 
L 269.900223 242.111288 
L 271.682472 242.110888 
L 273.464722 242.109943 
L 275.246971 242.107788 
L 277.02922 242.103032 
L 278.81147 242.092873 
L 280.593719 242.071887 
L 282.375968 242.029953 
L 284.158218 241.948927 
L 285.940467 241.797548 
L 287.722716 241.524156 
L 289.504966 241.046973 
L 291.287215 240.242265 
L 293.069465 238.931563 
L 294.851714 236.870397 
L 296.633963 233.74242 
L 298.416213 229.164056 
L 300.198462 222.705231 
L 301.980711 213.930794 
L 303.762961 202.464197 
L 305.54521 188.069997 
L 307.32746 170.745195 
L 309.109709 150.803034 
L 310.891958 128.928568 
L 312.674208 106.185386 
L 314.456457 83.958683 
L 316.238706 63.831333 
L 318.020956 47.404659 
L 319.803205 36.090513 
L 321.585455 30.911558 
L 323.367704 32.34883 
L 325.149953 40.268037 
L 326.932203 53.940259 
L 328.714452 72.15261 
L 330.496701 93.385602 
L 332.278951 116.021286 
L 334.0612 138.542869 
L 335.84345 159.692537 
L 337.625699 178.566978 
L 339.407948 194.645666 
L 341.190198 207.760757 
L 342.972447 218.026696 
L 344.754696 225.750795 
L 346.536946 231.344055 
L 348.319195 235.245957 
L 350.101444 237.870305 
L 351.883694 239.573147 
L 353.665943 240.639646 
L 355.448193 241.284657 
L 357.230442 241.661491 
L 359.012691 241.874227 
L 360.794941 241.990308 
L 362.57719 242.051543 
L 364.359439 242.082778 
L 366.141689 242.098186 
L 367.923938 242.105539 
L 369.706188 242.108933 
L 371.488437 242.110449 
L 373.270686 242.111104 
L 375.052936 242.111378 
L 376.835185 242.111489 
L 378.617434 242.111532 
L 380.399684 242.111549 
L 382.181933 242.111555 
L 383.964183 242.111557 
L 385.746432 242.111557 
L 387.528681 242.111558 
L 389.310931 242.111558 
L 391.09318 242.111558 
L 392.875429 242.111558 
L 394.657679 242.111558 
L 396.439928 242.111558 
L 398.222178 242.111558 
L 400.004427 242.111558 
L 401.786676 242.111558 
L 403.568926 242.111558 
L 405.351175 242.111558 
L 407.133424 242.111558 
L 408.915674 242.111558 
L 410.697923 242.111558 
L 412.480172 242.111558 
L 414.262422 242.111558 
L 416.044671 242.111558 
L 417.826921 242.111558 
L 419.60917 242.111558 
" clip-path="url(#p37d993322d)" style="fill: none; stroke: #ff7f0e; stroke-width: 1.5; stroke-linecap: square"/>
   </g>
   <g id="line2d_20">
    <path d="M 243.166482 242.086834 
L 244.948732 242.076858 
L 246.730981 242.0632 
L 248.51323 242.04464 
L 250.29548 242.019609 
L 252.077729 241.986104 
L 253.859978 241.941595 
L 255.642228 241.882914 
L 257.424477 241.806139 
L 259.206727 241.706455 
L 260.988976 241.578018 
L 262.771225 241.413805 
L 264.553475 241.205473 
L 266.335724 240.943219 
L 268.117973 240.615662 
L 269.900223 240.20975 
L 271.682472 239.710711 
L 273.464722 239.102053 
L 275.246971 238.36564 
L 277.02922 237.481845 
L 278.81147 236.429801 
L 280.593719 235.187769 
L 282.375968 233.733609 
L 284.158218 232.045389 
L 285.940467 230.102101 
L 287.722716 227.884497 
L 289.504966 225.37602 
L 291.287215 222.563806 
L 293.069465 219.439726 
L 294.851714 216.001425 
L 296.633963 212.253319 
L 298.416213 208.207478 
L 300.198462 203.884366 
L 301.980711 199.31336 
L 303.762961 194.533005 
L 305.54521 189.590963 
L 307.32746 184.543616 
L 309.109709 179.455305 
L 310.891958 174.397195 
L 312.674208 169.445795 
L 314.456457 164.681153 
L 316.238706 160.184778 
L 318.020956 156.037378 
L 319.803205 152.316474 
L 321.585455 149.09401 
L 323.367704 146.434046 
L 325.149953 144.390646 
L 326.932203 143.006045 
L 328.714452 142.309207 
L 330.496701 142.314811 
L 332.278951 143.022737 
L 334.0612 144.418076 
L 335.84345 146.471643 
L 337.625699 149.141002 
L 339.407948 152.371916 
L 341.190198 156.100182 
L 342.972447 160.253749 
L 344.754696 164.755026 
L 346.536946 169.523274 
L 348.319195 174.476989 
L 350.101444 179.536166 
L 351.883694 184.624367 
L 353.665943 189.670523 
L 355.448193 194.610413 
L 357.230442 199.387788 
L 359.012691 203.955131 
L 360.794941 208.27404 
L 362.57719 212.315284 
L 364.359439 216.058538 
L 366.141689 219.491857 
L 367.923938 222.610944 
L 369.706188 225.418251 
L 371.488437 227.921992 
L 373.270686 230.135096 
L 375.052936 232.074173 
L 376.835185 233.758504 
L 378.617434 235.209117 
L 380.399684 236.447956 
L 382.181933 237.497156 
L 383.964183 238.378448 
L 385.746432 239.11268 
L 387.528681 239.719457 
L 389.310931 240.216891 
L 391.09318 240.621446 
L 392.875429 240.947868 
L 394.657679 241.209179 
L 396.439928 241.416737 
L 398.222178 241.58032 
L 400.004427 241.708248 
L 401.786676 241.807525 
L 403.568926 241.883977 
L 405.351175 241.942404 
L 407.133424 241.986715 
L 408.915674 242.020068 
L 410.697923 242.044982 
L 412.480172 242.063452 
L 414.262422 242.077043 
L 416.044671 242.086968 
L 417.826921 242.094163 
L 419.60917 242.099339 
" clip-path="url(#p37d993322d)" style="fill: none; stroke-dasharray: 5.55,2.4; stroke-dashoffset: 0; stroke: #1f77b4; stroke-width: 1.5"/>
   </g>
   <g id="line2d_21">
    <path d="M 314.258063 242.111558 
L 314.258063 20.351558 
" clip-path="url(#p37d993322d)" style="fill: none; stroke-dasharray: 5.55,2.4; stroke-dashoffset: 0; stroke: #000000; stroke-width: 1.5"/>
   </g>
   <g id="patch_8">
    <path d="M 234.344348 242.111558 
L 234.344348 20.351558 
" style="fill: none; stroke: #000000; stroke-width: 0.8; stroke-linejoin: miter; stroke-linecap: square"/>
   </g>
   <g id="patch_9">
    <path d="M 428.431304 242.111558 
L 428.431304 20.351558 
" style="fill: none; stroke: #000000; stroke-width: 0.8; stroke-linejoin: miter; stroke-linecap: square"/>
   </g>
   <g id="patch_10">
    <path d="M 234.344348 242.111558 
L 428.431304 242.111558 
" style="fill: none; stroke: #000000; stroke-width: 0.8; stroke-linejoin: miter; stroke-linecap: square"/>
   </g>
   <g id="patch_11">
    <path d="M 234.344348 20.351558 
L 428.431304 20.351558 
" style="fill: none; stroke: #000000; stroke-width: 0.8; stroke-linejoin: miter; stroke-linecap: square"/>
   </g>
   <g id="text_2">
    <!-- f -->
    <g transform="translate(328.202969 14.351558) scale(0.192 -0.192)">
     <defs>
      <path id="NimbusRomNo9L-Regu-66" d="M 1978 2880 
L 1190 2880 
L 1190 3611 
C 1190 3977 1312 4172 1555 4172 
C 1690 4172 1779 4109 1894 3926 
C 1997 3762 2074 3699 2182 3699 
C 2330 3699 2451 3813 2451 3958 
C 2451 4185 2170 4352 1786 4352 
C 1389 4352 1050 4179 883 3889 
C 717 3611 666 3384 659 2880 
L 134 2880 
L 134 2675 
L 659 2675 
L 659 665 
C 659 198 589 121 128 96 
L 128 0 
L 1792 0 
L 1792 96 
C 1267 115 1197 185 1197 665 
L 1197 2675 
L 1978 2675 
L 1978 2880 
z
" transform="scale(0.015625)"/>
     </defs>
     <use xlink:href="#NimbusRomNo9L-Regu-66" transform="scale(0.996264)"/>
    </g>
   </g>
  </g>
  <g id="axes_3">
   <g id="patch_12">
    <path d="M 467.248696 242.111558 
L 661.335652 242.111558 
L 661.335652 20.351558 
L 467.248696 20.351558 
z
" style="fill: #ffffff"/>
   </g>
   <g id="PolyCollection_3">
    <path d="M 565.183299 242.111558 
L 565.183299 104.993742 
L 566.965548 82.127106 
L 568.747797 61.672844 
L 570.530047 45.391008 
L 572.312296 34.793185 
L 574.094545 30.911558 
L 575.876795 34.133224 
L 577.659044 44.136567 
L 579.441294 59.944171 
L 581.223543 80.080233 
L 583.005792 102.797355 
L 583.005792 242.111558 
L 583.005792 242.111558 
L 581.223543 242.111558 
L 579.441294 242.111558 
L 577.659044 242.111558 
L 575.876795 242.111558 
L 574.094545 242.111558 
L 572.312296 242.111558 
L 570.530047 242.111558 
L 568.747797 242.111558 
L 566.965548 242.111558 
L 565.183299 242.111558 
z
" clip-path="url(#pdc392054f3)" style="fill: #ff7f0e; fill-opacity: 0.3"/>
   </g>
   <g id="matplotlib.axis_5">
    <g id="xtick_6">
     <g id="line2d_22"/>
    </g>
    <g id="xtick_7">
     <g id="line2d_23"/>
    </g>
    <g id="xtick_8">
     <g id="line2d_24"/>
    </g>
   </g>
   <g id="matplotlib.axis_6">
    <g id="ytick_11">
     <g id="line2d_25"/>
    </g>
    <g id="ytick_12">
     <g id="line2d_26"/>
    </g>
    <g id="ytick_13">
     <g id="line2d_27"/>
    </g>
    <g id="ytick_14">
     <g id="line2d_28"/>
    </g>
    <g id="ytick_15">
     <g id="line2d_29"/>
    </g>
    <g id="ytick_16">
     <g id="line2d_30"/>
    </g>
   </g>
   <g id="line2d_31">
    <path d="M 476.07083 242.111558 
L 477.853079 242.111558 
L 479.635329 242.111558 
L 481.417578 242.111558 
L 483.199828 242.111558 
L 484.982077 242.111558 
L 486.764326 242.111558 
L 488.546576 242.111558 
L 490.328825 242.111558 
L 492.111074 242.111558 
L 493.893324 242.111558 
L 495.675573 242.111558 
L 497.457822 242.111558 
L 499.240072 242.111558 
L 501.022321 242.111558 
L 502.804571 242.111558 
L 504.58682 242.111558 
L 506.369069 242.111558 
L 508.151319 242.111558 
L 509.933568 242.111558 
L 511.715817 242.111558 
L 513.498067 242.111557 
L 515.280316 242.111556 
L 517.062566 242.111552 
L 518.844815 242.111541 
L 520.627064 242.111511 
L 522.409314 242.111429 
L 524.191563 242.111219 
L 525.973812 242.110694 
L 527.756062 242.109433 
L 529.538311 242.106503 
L 531.320561 242.099935 
L 533.10281 242.085722 
L 534.885059 242.056047 
L 536.667309 241.996264 
L 538.449558 241.880084 
L 540.231807 241.662331 
L 542.014057 241.268812 
L 543.796306 240.583303 
L 545.578556 239.432618 
L 547.360805 237.572161 
L 549.143054 234.676206 
L 550.925304 230.338945 
L 552.707553 224.093321 
L 554.489802 215.454036 
L 556.272052 203.987834 
L 558.054301 189.408124 
L 559.83655 171.682712 
L 561.6188 151.134836 
L 563.401049 128.51163 
L 565.183299 104.993742 
L 566.965548 82.127106 
L 568.747797 61.672844 
L 570.530047 45.391008 
L 572.312296 34.793185 
L 574.094545 30.911558 
L 575.876795 34.133224 
L 577.659044 44.136567 
L 579.441294 59.944171 
L 581.223543 80.080233 
L 583.005792 102.797355 
L 584.788042 126.324541 
L 586.570291 149.088118 
L 588.35254 169.869022 
L 590.13479 187.878808 
L 591.917039 202.756702 
L 593.699289 214.505583 
L 595.481538 223.392848 
L 597.263787 229.842342 
L 599.046037 234.337895 
L 600.828286 237.350508 
L 602.610535 239.292865 
L 604.392785 240.498459 
L 606.175034 241.219194 
L 607.957284 241.634368 
L 609.739533 241.864892 
L 611.521782 241.988306 
L 613.304032 242.052026 
L 615.086281 242.083763 
L 616.86853 242.099013 
L 618.65078 242.106085 
L 620.433029 242.10925 
L 622.215278 242.110617 
L 623.997528 242.111187 
L 625.779777 242.111417 
L 627.562027 242.111506 
L 629.344276 242.111539 
L 631.126525 242.111551 
L 632.908775 242.111556 
L 634.691024 242.111557 
L 636.473273 242.111558 
L 638.255523 242.111558 
L 640.037772 242.111558 
L 641.820022 242.111558 
L 643.602271 242.111558 
L 645.38452 242.111558 
L 647.16677 242.111558 
L 648.949019 242.111558 
L 650.731268 242.111558 
L 652.513518 242.111558 
" clip-path="url(#pdc392054f3)" style="fill: none; stroke: #ff7f0e; stroke-width: 1.5; stroke-linecap: square"/>
   </g>
   <g id="line2d_32">
    <path d="M 476.07083 242.108729 
L 477.853079 242.10741 
L 479.635329 242.105519 
L 481.417578 242.102829 
L 483.199828 242.09903 
L 484.982077 242.093706 
L 486.764326 242.0863 
L 488.546576 242.076076 
L 490.328825 242.062069 
L 492.111074 242.043024 
L 493.893324 242.017325 
L 495.675573 241.982913 
L 497.457822 241.937184 
L 499.240072 241.876884 
L 501.022321 241.79798 
L 502.804571 241.69553 
L 504.58682 241.563539 
L 506.369069 241.394812 
L 508.151319 241.180812 
L 509.933568 240.911525 
L 511.715817 240.575344 
L 513.498067 240.15899 
L 515.280316 239.647465 
L 517.062566 239.024078 
L 518.844815 238.270529 
L 520.627064 237.367092 
L 522.409314 236.292894 
L 524.191563 235.026302 
L 525.973812 233.545441 
L 527.756062 231.828819 
L 529.538311 229.856091 
L 531.320561 227.608914 
L 533.10281 225.071904 
L 534.885059 222.233651 
L 536.667309 219.087769 
L 538.449558 215.633922 
L 540.231807 211.878792 
L 542.014057 207.836922 
L 543.796306 203.531394 
L 545.578556 198.994256 
L 547.360805 194.266692 
L 549.143054 189.398842 
L 550.925304 184.449292 
L 552.707553 179.48417 
L 554.489802 174.575897 
L 556.272052 169.80157 
L 558.054301 165.24106 
L 559.83655 160.974853 
L 561.6188 157.081727 
L 563.401049 153.636361 
L 565.183299 150.706963 
L 566.965548 148.353028 
L 568.747797 146.623332 
L 570.530047 145.554253 
L 572.312296 145.1685 
L 574.094545 145.474307 
L 575.876795 146.465145 
L 577.659044 148.119949 
L 579.441294 150.403869 
L 581.223543 153.269484 
L 583.005792 156.658443 
L 584.788042 160.503436 
L 586.570291 164.730416 
L 588.35254 169.260953 
L 590.13479 174.014639 
L 591.917039 178.911419 
L 593.699289 183.87377 
L 595.481538 188.828641 
L 597.263787 193.709105 
L 599.046037 198.455649 
L 600.828286 203.017121 
L 602.610535 207.351286 
L 604.392785 211.425038 
L 606.175034 215.214277 
L 607.957284 218.703499 
L 609.739533 221.885153 
L 611.521782 224.75881 
L 613.304032 227.330208 
L 615.086281 229.610229 
L 616.86853 231.613848 
L 618.65078 233.359116 
L 620.433029 234.866195 
L 622.215278 236.156482 
L 623.997528 237.251843 
L 625.779777 238.173968 
L 627.562027 238.94384 
L 629.344276 239.581335 
L 631.126525 240.104928 
L 632.908775 240.531503 
L 634.691024 240.876255 
L 636.473273 241.152664 
L 638.255523 241.372524 
L 640.037772 241.54603 
L 641.820022 241.681883 
L 643.602271 241.787425 
L 645.38452 241.868784 
L 647.16677 241.931017 
L 648.949019 241.978252 
L 650.731268 242.013831 
L 652.513518 242.040424 
" clip-path="url(#pdc392054f3)" style="fill: none; stroke-dasharray: 5.55,2.4; stroke-dashoffset: 0; stroke: #1f77b4; stroke-width: 1.5"/>
   </g>
   <g id="line2d_33">
    <path d="M 580.749937 242.111558 
L 580.749937 20.351558 
" clip-path="url(#pdc392054f3)" style="fill: none; stroke-dasharray: 5.55,2.4; stroke-dashoffset: 0; stroke: #000000; stroke-width: 1.5"/>
   </g>
   <g id="patch_13">
    <path d="M 467.248696 242.111558 
L 467.248696 20.351558 
" style="fill: none; stroke: #000000; stroke-width: 0.8; stroke-linejoin: miter; stroke-linecap: square"/>
   </g>
   <g id="patch_14">
    <path d="M 661.335652 242.111558 
L 661.335652 20.351558 
" style="fill: none; stroke: #000000; stroke-width: 0.8; stroke-linejoin: miter; stroke-linecap: square"/>
   </g>
   <g id="patch_15">
    <path d="M 467.248696 242.111558 
L 661.335652 242.111558 
" style="fill: none; stroke: #000000; stroke-width: 0.8; stroke-linejoin: miter; stroke-linecap: square"/>
   </g>
   <g id="patch_16">
    <path d="M 467.248696 20.351558 
L 661.335652 20.351558 
" style="fill: none; stroke: #000000; stroke-width: 0.8; stroke-linejoin: miter; stroke-linecap: square"/>
   </g>
   <g id="text_3">
    <!-- $\phi$ -->
    <g transform="translate(559.031901 14.351558) scale(0.192 -0.192)">
     <defs>
      <path id="rtxmi-1e" d="M 3360 1843 
C 3360 2310 3021 2707 2381 2790 
L 2758 4013 
L 2227 3929 
L 1939 2784 
C 934 2681 154 1849 154 902 
C 154 428 410 -45 1229 -90 
L 928 -1344 
L 1088 -1344 
L 1485 -84 
C 2534 0 3360 896 3360 1843 
z
M 2848 1894 
C 2848 806 2170 147 1542 89 
L 2317 2592 
C 2758 2432 2848 2054 2848 1894 
z
M 1894 2611 
L 1274 102 
C 845 224 691 614 691 883 
C 691 1868 1229 2521 1894 2611 
z
" transform="scale(0.015625)"/>
     </defs>
     <use xlink:href="#rtxmi-1e" transform="scale(0.996264)"/>
    </g>
   </g>
  </g>
  <g id="axes_4">
   <g id="patch_17">
    <path d="M 700.153043 242.111558 
L 894.24 242.111558 
L 894.24 20.351558 
L 700.153043 20.351558 
z
" style="fill: #ffffff"/>
   </g>
   <g id="PolyCollection_4">
    <path d="M 792.740898 242.111558 
L 792.740898 102.584383 
L 794.523148 78.127429 
L 796.305397 56.810953 
L 798.087646 40.792977 
L 799.869896 31.819493 
L 801.652145 30.911558 
L 803.434395 38.174127 
L 805.216644 52.776089 
L 806.998893 73.106767 
L 808.781143 97.06813 
L 808.781143 242.111558 
L 808.781143 242.111558 
L 806.998893 242.111558 
L 805.216644 242.111558 
L 803.434395 242.111558 
L 801.652145 242.111558 
L 799.869896 242.111558 
L 798.087646 242.111558 
L 796.305397 242.111558 
L 794.523148 242.111558 
L 792.740898 242.111558 
z
" clip-path="url(#pa7535d5ca5)" style="fill: #ff7f0e; fill-opacity: 0.3"/>
   </g>
   <g id="matplotlib.axis_7">
    <g id="xtick_9">
     <g id="line2d_34"/>
    </g>
    <g id="xtick_10">
     <g id="line2d_35"/>
    </g>
    <g id="xtick_11">
     <g id="line2d_36"/>
    </g>
   </g>
   <g id="matplotlib.axis_8">
    <g id="ytick_17">
     <g id="line2d_37"/>
    </g>
    <g id="ytick_18">
     <g id="line2d_38"/>
    </g>
    <g id="ytick_19">
     <g id="line2d_39"/>
    </g>
    <g id="ytick_20">
     <g id="line2d_40"/>
    </g>
   </g>
   <g id="line2d_41">
    <path d="M 708.975178 242.111558 
L 710.757427 242.111558 
L 712.539677 242.111558 
L 714.321926 242.111558 
L 716.104175 242.111558 
L 717.886425 242.111558 
L 719.668674 242.111558 
L 721.450923 242.111558 
L 723.233173 242.111558 
L 725.015422 242.111558 
L 726.797672 242.111558 
L 728.579921 242.111558 
L 730.36217 242.111558 
L 732.14442 242.111558 
L 733.926669 242.111558 
L 735.708918 242.111558 
L 737.491168 242.111558 
L 739.273417 242.111558 
L 741.055667 242.111558 
L 742.837916 242.111558 
L 744.620165 242.111557 
L 746.402415 242.111556 
L 748.184664 242.111551 
L 749.966913 242.111536 
L 751.749163 242.111492 
L 753.531412 242.111366 
L 755.313662 242.111022 
L 757.095911 242.110121 
L 758.87816 242.107851 
L 760.66041 242.102365 
L 762.442659 242.089639 
L 764.224908 242.061309 
L 766.007158 242.000805 
L 767.789407 241.876856 
L 769.571656 241.633355 
L 771.353906 241.174775 
L 773.136155 240.347155 
L 774.918405 238.916426 
L 776.700654 236.548523 
L 778.482903 232.799048 
L 780.265153 227.12321 
L 782.047402 218.917713 
L 783.829651 207.603243 
L 785.611901 192.747966 
L 787.39415 174.219064 
L 789.1764 152.333796 
L 790.958649 127.968952 
L 792.740898 102.584383 
L 794.523148 78.127429 
L 796.305397 56.810953 
L 798.087646 40.792977 
L 799.869896 31.819493 
L 801.652145 30.911558 
L 803.434395 38.174127 
L 805.216644 52.776089 
L 806.998893 73.106767 
L 808.781143 97.06813 
L 810.563392 122.429487 
L 812.345641 147.162176 
L 814.127891 169.686777 
L 815.91014 188.996918 
L 817.69239 204.659707 
L 819.474639 216.721462 
L 821.256888 225.561962 
L 823.039138 231.740037 
L 824.821387 235.862284 
L 826.603636 238.491224 
L 828.385886 240.095051 
L 830.168135 241.03166 
L 831.950384 241.555528 
L 833.732634 241.836297 
L 835.514883 241.980542 
L 837.297133 242.051602 
L 839.079382 242.085178 
L 840.861631 242.100398 
L 842.643881 242.107019 
L 844.42613 242.109783 
L 846.208379 242.11089 
L 847.990629 242.111317 
L 849.772878 242.111474 
L 851.555128 242.11153 
L 853.337377 242.111549 
L 855.119626 242.111555 
L 856.901876 242.111557 
L 858.684125 242.111558 
L 860.466374 242.111558 
L 862.248624 242.111558 
L 864.030873 242.111558 
L 865.813123 242.111558 
L 867.595372 242.111558 
L 869.377621 242.111558 
L 871.159871 242.111558 
L 872.94212 242.111558 
L 874.724369 242.111558 
L 876.506619 242.111558 
L 878.288868 242.111558 
L 880.071117 242.111558 
L 881.853367 242.111558 
L 883.635616 242.111558 
L 885.417866 242.111558 
" clip-path="url(#pa7535d5ca5)" style="fill: none; stroke: #ff7f0e; stroke-width: 1.5; stroke-linecap: square"/>
   </g>
   <g id="line2d_42">
    <path d="M 708.975178 242.109398 
L 710.757427 242.108274 
L 712.539677 242.106606 
L 714.321926 242.104154 
L 716.104175 242.100579 
L 717.886425 242.095413 
L 719.668674 242.088014 
L 721.450923 242.07751 
L 723.233173 242.062729 
L 725.015422 242.042114 
L 726.797672 242.013617 
L 728.579921 241.974576 
L 730.36217 241.921566 
L 732.14442 241.850234 
L 733.926669 241.755111 
L 735.708918 241.629408 
L 737.491168 241.4648 
L 739.273417 241.251213 
L 741.055667 240.976612 
L 742.837916 240.626821 
L 744.620165 240.185383 
L 746.402415 239.633487 
L 748.184664 238.949983 
L 749.966913 238.111511 
L 751.749163 237.092774 
L 753.531412 235.866971 
L 755.313662 234.406416 
L 757.095911 232.683344 
L 758.87816 230.670927 
L 760.66041 228.344463 
L 762.442659 225.682735 
L 764.224908 222.669494 
L 766.007158 219.295002 
L 767.789407 215.557581 
L 769.571656 211.465059 
L 771.353906 207.036051 
L 773.136155 202.300949 
L 774.918405 197.302534 
L 776.700654 192.096136 
L 778.482903 186.749252 
L 780.265153 181.340583 
L 782.047402 175.958485 
L 783.829651 170.698828 
L 785.611901 165.662342 
L 787.39415 160.951523 
L 789.1764 156.667237 
L 790.958649 152.905166 
L 792.740898 149.752279 
L 794.523148 147.283494 
L 796.305397 145.558724 
L 798.087646 144.620462 
L 799.869896 144.492037 
L 801.652145 145.176655 
L 803.434395 146.657262 
L 805.216644 148.897252 
L 806.998893 151.841972 
L 808.781143 155.420936 
L 810.563392 159.550628 
L 812.345641 164.137735 
L 814.127891 169.08264 
L 815.91014 174.282983 
L 817.69239 179.637127 
L 819.474639 185.04736 
L 821.256888 190.422702 
L 823.039138 195.681213 
L 824.821387 200.751734 
L 826.603636 205.575032 
L 828.385886 210.104363 
L 830.168135 214.305479 
L 831.950384 218.156143 
L 833.732634 221.645254 
L 835.514883 224.771644 
L 837.297133 227.542675 
L 839.079382 229.972713 
L 840.861631 232.081574 
L 842.643881 233.893013 
L 844.42613 235.433328 
L 846.208379 236.730104 
L 847.990629 237.81115 
L 849.772878 238.703621 
L 851.555128 239.433345 
L 853.337377 240.024327 
L 855.119626 240.498434 
L 856.901876 240.875221 
L 858.684125 241.171883 
L 860.466374 241.403302 
L 862.248624 241.582169 
L 864.030873 241.719156 
L 865.813123 241.823116 
L 867.595372 241.901297 
L 869.377621 241.959563 
L 871.159871 242.002596 
L 872.94212 242.034096 
L 874.724369 242.056947 
L 876.506619 242.073378 
L 878.288868 242.085087 
L 880.071117 242.093358 
L 881.853367 242.099149 
L 883.635616 242.103167 
L 885.417866 242.105932 
" clip-path="url(#pa7535d5ca5)" style="fill: none; stroke-dasharray: 5.55,2.4; stroke-dashoffset: 0; stroke: #1f77b4; stroke-width: 1.5"/>
   </g>
   <g id="line2d_43">
    <path d="M 796.011791 242.111558 
L 796.011791 20.351558 
" clip-path="url(#pa7535d5ca5)" style="fill: none; stroke-dasharray: 5.55,2.4; stroke-dashoffset: 0; stroke: #000000; stroke-width: 1.5"/>
   </g>
   <g id="patch_18">
    <path d="M 700.153043 242.111558 
L 700.153043 20.351558 
" style="fill: none; stroke: #000000; stroke-width: 0.8; stroke-linejoin: miter; stroke-linecap: square"/>
   </g>
   <g id="patch_19">
    <path d="M 894.24 242.111558 
L 894.24 20.351558 
" style="fill: none; stroke: #000000; stroke-width: 0.8; stroke-linejoin: miter; stroke-linecap: square"/>
   </g>
   <g id="patch_20">
    <path d="M 700.153043 242.111558 
L 894.24 242.111558 
" style="fill: none; stroke: #000000; stroke-width: 0.8; stroke-linejoin: miter; stroke-linecap: square"/>
   </g>
   <g id="patch_21">
    <path d="M 700.153043 20.351558 
L 894.24 20.351558 
" style="fill: none; stroke: #000000; stroke-width: 0.8; stroke-linejoin: miter; stroke-linecap: square"/>
   </g>
   <g id="text_4">
    <!-- B -->
    <g transform="translate(790.817253 14.351558) scale(0.192 -0.192)">
     <defs>
      <path id="NimbusRomNo9L-Regu-42" d="M 109 4224 
L 109 4102 
C 646 4070 723 4000 723 3528 
L 723 695 
C 723 223 640 140 109 121 
L 109 0 
L 2246 0 
C 2746 0 3200 134 3437 351 
C 3667 555 3795 842 3795 1148 
C 3795 1429 3680 1684 3482 1869 
C 3290 2041 3117 2118 2701 2220 
C 3034 2303 3168 2367 3322 2500 
C 3482 2641 3578 2877 3578 3138 
C 3578 3853 3008 4224 1901 4224 
L 109 4224 
z
M 1376 2080 
C 1997 2080 2291 2048 2522 1952 
C 2886 1799 3059 1544 3059 1142 
C 3059 798 2925 549 2669 402 
C 2464 287 2202 236 1779 236 
C 1466 236 1376 294 1376 498 
L 1376 2080 
z
M 1376 2335 
L 1376 3795 
C 1376 3929 1421 3987 1517 3987 
L 1798 3987 
C 2534 3987 2925 3680 2925 3113 
C 2925 2615 2586 2335 1984 2335 
L 1376 2335 
z
" transform="scale(0.015625)"/>
     </defs>
     <use xlink:href="#NimbusRomNo9L-Regu-42" transform="scale(0.996264)"/>
    </g>
   </g>
   <g id="legend_1">
    <g id="patch_22">
     <path d="M 905.44 211.992697 
L 1048.678857 211.992697 
Q 1051.878857 211.992697 1051.878857 208.792697 
L 1051.878857 142.431558 
Q 1051.878857 139.231558 1048.678857 139.231558 
L 905.44 139.231558 
Q 902.24 139.231558 902.24 142.431558 
L 902.24 208.792697 
Q 902.24 211.992697 905.44 211.992697 
z
" style="fill: #ffffff; opacity: 0.8; stroke: #cccccc; stroke-linejoin: miter"/>
    </g>
    <g id="line2d_44">
     <path d="M 908.64 151.231558 
L 924.64 151.231558 
L 940.64 151.231558 
" style="fill: none; stroke-dasharray: 5.55,2.4; stroke-dashoffset: 0; stroke: #000000; stroke-width: 1.5"/>
    </g>
    <g id="text_5">
     <!-- Truth -->
     <g transform="translate(953.44 156.831558) scale(0.16 -0.16)">
      <defs>
       <path id="NimbusRomNo9L-Regu-54" d="M 1626 3955 
L 1626 765 
C 1626 223 1555 153 1024 121 
L 1024 0 
L 2893 0 
L 2893 121 
C 2368 147 2278 230 2278 695 
L 2278 3955 
L 2624 3955 
C 3354 3955 3494 3840 3642 3138 
L 3795 3138 
L 3757 4224 
L 147 4224 
L 109 3138 
L 262 3138 
C 416 3834 563 3955 1280 3955 
L 1626 3955 
z
" transform="scale(0.015625)"/>
       <path id="NimbusRomNo9L-Regu-72" d="M 45 2496 
C 134 2515 192 2521 269 2521 
C 429 2521 486 2419 486 2137 
L 486 537 
C 486 217 442 172 32 96 
L 32 0 
L 1568 0 
L 1568 96 
C 1133 115 1024 211 1024 576 
L 1024 2016 
C 1024 2220 1299 2540 1472 2540 
C 1510 2540 1568 2508 1638 2444 
C 1741 2355 1811 2316 1894 2316 
C 2048 2316 2144 2425 2144 2604 
C 2144 2815 2010 2944 1792 2944 
C 1523 2944 1338 2796 1024 2342 
L 1024 2931 
L 992 2944 
C 653 2803 422 2720 45 2598 
L 45 2496 
z
" transform="scale(0.015625)"/>
       <path id="NimbusRomNo9L-Regu-75" d="M 3066 319 
L 3034 319 
C 2739 319 2669 390 2669 684 
L 2669 2880 
L 1658 2880 
L 1658 2771 
C 2054 2752 2131 2688 2131 2368 
L 2131 864 
C 2131 684 2099 595 2010 524 
C 1837 384 1638 307 1446 307 
C 1197 307 992 524 992 793 
L 992 2880 
L 58 2880 
L 58 2790 
C 365 2771 454 2675 454 2380 
L 454 768 
C 454 262 762 -64 1229 -64 
C 1466 -64 1715 38 1888 211 
L 2163 486 
L 2163 -45 
L 2189 -64 
C 2509 64 2739 134 3066 224 
L 3066 319 
z
" transform="scale(0.015625)"/>
       <path id="NimbusRomNo9L-Regu-74" d="M 1632 2880 
L 986 2880 
L 986 3622 
C 986 3686 979 3705 941 3705 
C 896 3648 858 3590 813 3526 
C 570 3174 294 2867 192 2841 
C 122 2796 83 2751 83 2719 
C 83 2700 90 2687 109 2675 
L 448 2675 
L 448 748 
C 448 211 640 -64 1018 -64 
C 1331 -64 1574 89 1786 422 
L 1702 492 
C 1568 332 1459 268 1318 268 
C 1082 268 986 441 986 844 
L 986 2675 
L 1632 2675 
L 1632 2880 
z
" transform="scale(0.015625)"/>
       <path id="NimbusRomNo9L-Regu-68" d="M 1005 2195 
C 1274 2489 1466 2598 1715 2598 
C 2035 2598 2195 2368 2195 1920 
L 2195 652 
C 2195 217 2131 134 1760 96 
L 1760 0 
L 3117 0 
L 3117 96 
C 2771 160 2733 211 2733 652 
L 2733 1926 
C 2733 2598 2464 2944 1946 2944 
C 1568 2944 1299 2790 1005 2406 
L 1005 4352 
L 973 4371 
C 755 4294 595 4243 237 4140 
L 64 4089 
L 64 3987 
C 90 3993 109 3993 141 3993 
C 416 3993 467 3942 467 3667 
L 467 652 
C 467 204 429 147 58 96 
L 58 0 
L 1440 0 
L 1440 96 
C 1069 134 1005 211 1005 652 
L 1005 2195 
z
" transform="scale(0.015625)"/>
      </defs>
      <use xlink:href="#NimbusRomNo9L-Regu-54" transform="scale(0.996264)"/>
      <use xlink:href="#NimbusRomNo9L-Regu-72" transform="translate(57.384828 0) scale(0.996264)"/>
      <use xlink:href="#NimbusRomNo9L-Regu-75" transform="translate(90.560438 0) scale(0.996264)"/>
      <use xlink:href="#NimbusRomNo9L-Regu-74" transform="translate(140.373639 0) scale(0.996264)"/>
      <use xlink:href="#NimbusRomNo9L-Regu-68" transform="translate(168.069766 0) scale(0.996264)"/>
     </g>
    </g>
    <g id="line2d_45">
     <path d="M 908.64 173.87464 
L 924.64 173.87464 
L 940.64 173.87464 
" style="fill: none; stroke-dasharray: 5.55,2.4; stroke-dashoffset: 0; stroke: #1f77b4; stroke-width: 1.5"/>
    </g>
    <g id="text_6">
     <!-- Noisy data -->
     <g transform="translate(953.44 179.47464) scale(0.16 -0.16)">
      <defs>
       <path id="NimbusRomNo9L-Regu-4e" d="M 3917 -64 
L 3917 3287 
C 3917 3669 3981 3905 4102 3988 
C 4192 4051 4282 4077 4525 4102 
L 4525 4224 
L 3021 4224 
L 3021 4102 
C 3264 4083 3354 4058 3450 4000 
C 3578 3911 3635 3682 3635 3287 
L 3635 1140 
L 1171 4224 
L 77 4224 
L 77 4102 
C 352 4102 442 4051 698 3752 
L 698 943 
C 698 281 608 160 77 121 
L 77 0 
L 1581 0 
L 1581 121 
C 1088 147 979 294 979 940 
L 979 3449 
L 3808 -64 
L 3917 -64 
z
" transform="scale(0.015625)"/>
       <path id="NimbusRomNo9L-Regu-6f" d="M 1600 2944 
C 768 2944 186 2329 186 1446 
C 186 582 781 -64 1587 -64 
C 2394 -64 3008 614 3008 1497 
C 3008 2336 2419 2944 1600 2944 
z
M 1517 2764 
C 2054 2764 2432 2150 2432 1273 
C 2432 550 2144 115 1664 115 
C 1414 115 1178 268 1043 524 
C 864 857 762 1305 762 1760 
C 762 2368 1062 2764 1517 2764 
z
" transform="scale(0.015625)"/>
       <path id="NimbusRomNo9L-Regu-69" d="M 1120 2944 
L 128 2592 
L 128 2496 
L 179 2502 
C 256 2515 339 2521 397 2521 
C 550 2521 608 2419 608 2137 
L 608 652 
C 608 192 544 121 102 96 
L 102 0 
L 1619 0 
L 1619 96 
C 1197 128 1146 192 1146 652 
L 1146 2924 
L 1120 2944 
z
M 819 4352 
C 646 4352 499 4204 499 4025 
C 499 3846 640 3699 819 3699 
C 1005 3699 1152 3839 1152 4025 
C 1152 4204 1005 4352 819 4352 
z
" transform="scale(0.015625)"/>
       <path id="NimbusRomNo9L-Regu-73" d="M 2016 2009 
L 1990 2880 
L 1920 2880 
L 1907 2867 
C 1850 2822 1843 2815 1818 2815 
C 1779 2815 1715 2828 1645 2860 
C 1504 2918 1363 2944 1197 2944 
C 691 2944 326 2617 326 2155 
C 326 1796 531 1539 1075 1231 
L 1446 1019 
C 1670 891 1779 737 1779 538 
C 1779 256 1574 76 1248 76 
C 1030 76 832 160 710 301 
C 576 461 518 609 435 974 
L 333 974 
L 333 -26 
L 416 -26 
C 461 38 486 51 563 51 
C 621 51 710 38 858 0 
C 1037 -39 1210 -64 1325 -64 
C 1818 -64 2227 307 2227 756 
C 2227 1077 2074 1289 1690 1520 
L 998 1930 
C 819 2033 723 2193 723 2366 
C 723 2623 922 2803 1216 2803 
C 1581 2803 1773 2585 1920 2014 
L 2016 2009 
z
" transform="scale(0.015625)"/>
       <path id="NimbusRomNo9L-Regu-79" d="M 3040 2880 
L 2176 2880 
L 2176 2783 
C 2381 2783 2483 2726 2483 2623 
C 2483 2597 2477 2559 2458 2514 
L 1837 741 
L 1101 2366 
C 1062 2456 1037 2540 1037 2610 
C 1037 2726 1133 2771 1408 2783 
L 1408 2880 
L 90 2880 
L 90 2790 
C 256 2764 365 2694 416 2585 
L 1146 1005 
L 1165 953 
L 1261 761 
C 1440 439 1542 208 1542 112 
C 1542 15 1395 -389 1286 -582 
C 1197 -749 1056 -871 966 -871 
C 928 -871 870 -858 806 -826 
C 685 -781 576 -755 467 -755 
C 320 -755 192 -884 192 -1037 
C 192 -1248 397 -1408 666 -1408 
C 1094 -1408 1402 -1050 1747 -126 
L 2733 2495 
C 2816 2700 2886 2764 3040 2783 
L 3040 2880 
z
" transform="scale(0.015625)"/>
       <path id="NimbusRomNo9L-Regu-64" d="M 2202 -64 
L 3142 268 
L 3142 371 
C 3027 364 3014 364 2995 364 
C 2765 364 2714 435 2714 729 
L 2714 4358 
L 2682 4371 
C 2374 4262 2150 4198 1741 4089 
L 1741 3987 
C 1792 3993 1830 3993 1882 3993 
C 2118 3993 2176 3929 2176 3667 
L 2176 2668 
C 1933 2873 1760 2944 1504 2944 
C 768 2944 173 2220 173 1312 
C 173 492 653 -64 1357 -64 
C 1715 -64 1958 64 2176 364 
L 2176 -45 
L 2202 -64 
z
M 2176 652 
C 2176 608 2131 531 2067 460 
C 1952 332 1792 268 1606 268 
C 1075 268 723 780 723 1568 
C 723 2291 1037 2764 1523 2764 
C 1862 2764 2176 2464 2176 2124 
L 2176 652 
z
" transform="scale(0.015625)"/>
       <path id="NimbusRomNo9L-Regu-61" d="M 2829 422 
C 2720 332 2643 300 2547 300 
C 2400 300 2355 390 2355 672 
L 2355 1920 
C 2355 2252 2323 2438 2227 2592 
C 2086 2822 1811 2944 1434 2944 
C 832 2944 358 2630 358 2227 
C 358 2080 486 1952 634 1952 
C 787 1952 922 2080 922 2220 
C 922 2246 915 2278 909 2323 
C 896 2380 890 2432 890 2476 
C 890 2649 1094 2790 1350 2790 
C 1664 2790 1837 2604 1837 2259 
L 1837 1868 
C 851 1472 742 1420 467 1177 
C 326 1049 237 832 237 620 
C 237 217 518 -64 909 -64 
C 1190 -64 1453 70 1843 403 
C 1875 70 1990 -64 2253 -64 
C 2470 -64 2605 12 2829 256 
L 2829 422 
z
M 1837 787 
C 1837 588 1805 531 1670 454 
C 1517 364 1338 307 1203 307 
C 979 307 800 524 800 800 
L 800 825 
C 800 1203 1062 1433 1837 1715 
L 1837 787 
z
" transform="scale(0.015625)"/>
      </defs>
      <use xlink:href="#NimbusRomNo9L-Regu-4e" transform="scale(0.996264)"/>
      <use xlink:href="#NimbusRomNo9L-Regu-6f" transform="translate(71.930274 0) scale(0.996264)"/>
      <use xlink:href="#NimbusRomNo9L-Regu-69" transform="translate(121.743474 0) scale(0.996264)"/>
      <use xlink:href="#NimbusRomNo9L-Regu-73" transform="translate(149.439601 0) scale(0.996264)"/>
      <use xlink:href="#NimbusRomNo9L-Regu-79" transform="translate(188.194265 0) scale(0.996264)"/>
      <use xlink:href="#NimbusRomNo9L-Regu-64" transform="translate(262.914066 0) scale(0.996264)"/>
      <use xlink:href="#NimbusRomNo9L-Regu-61" transform="translate(312.727267 0) scale(0.996264)"/>
      <use xlink:href="#NimbusRomNo9L-Regu-74" transform="translate(356.961413 0) scale(0.996264)"/>
      <use xlink:href="#NimbusRomNo9L-Regu-61" transform="translate(384.65754 0) scale(0.996264)"/>
     </g>
    </g>
    <g id="line2d_46">
     <path d="M 908.64 196.549615 
L 924.64 196.549615 
L 940.64 196.549615 
" style="fill: none; stroke: #ff7f0e; stroke-width: 1.5; stroke-linecap: square"/>
    </g>
    <g id="text_7">
     <!-- Improved data -->
     <g transform="translate(953.44 202.149615) scale(0.16 -0.16)">
      <defs>
       <path id="NimbusRomNo9L-Regu-49" d="M 736 695 
C 736 217 653 140 115 121 
L 115 0 
L 2016 0 
L 2016 121 
C 1491 140 1389 230 1389 695 
L 1389 3528 
C 1389 3994 1478 4077 2016 4102 
L 2016 4224 
L 115 4224 
L 115 4102 
C 659 4070 736 4000 736 3528 
L 736 695 
z
" transform="scale(0.015625)"/>
       <path id="NimbusRomNo9L-Regu-6d" d="M 122 2547 
C 205 2566 256 2572 326 2572 
C 493 2572 550 2470 550 2163 
L 550 544 
C 550 198 461 102 102 96 
L 102 0 
L 1523 0 
L 1523 96 
C 1184 108 1088 179 1088 428 
L 1088 2233 
C 1088 2246 1139 2310 1184 2355 
C 1344 2502 1619 2611 1843 2611 
C 2125 2611 2266 2387 2266 1939 
L 2266 550 
C 2266 192 2195 121 1830 96 
L 1830 0 
L 3264 0 
L 3264 96 
C 2899 102 2803 211 2803 608 
L 2803 2220 
C 2995 2496 3206 2611 3501 2611 
C 3866 2611 3981 2438 3981 1907 
L 3981 556 
C 3981 192 3930 140 3558 96 
L 3558 0 
L 4960 0 
L 4960 96 
L 4794 108 
C 4602 121 4518 236 4518 486 
L 4518 1804 
C 4518 2560 4269 2944 3776 2944 
C 3405 2944 3078 2777 2733 2406 
C 2618 2771 2400 2944 2054 2944 
C 1773 2944 1594 2854 1062 2451 
L 1062 2931 
L 1018 2944 
C 691 2822 474 2751 122 2655 
L 122 2547 
z
" transform="scale(0.015625)"/>
       <path id="NimbusRomNo9L-Regu-70" d="M 58 2515 
C 115 2521 160 2521 218 2521 
C 435 2521 480 2457 480 2157 
L 480 -839 
C 480 -1172 410 -1242 32 -1280 
L 32 -1389 
L 1581 -1389 
L 1581 -1280 
C 1101 -1274 1018 -1203 1018 -798 
L 1018 211 
C 1242 0 1395 -64 1664 -64 
C 2419 -64 3008 652 3008 1580 
C 3008 2374 2560 2944 1939 2944 
C 1581 2944 1299 2783 1018 2438 
L 1018 2931 
L 979 2944 
C 634 2809 410 2726 58 2617 
L 58 2515 
z
M 1018 2137 
C 1018 2329 1376 2559 1670 2559 
C 2144 2559 2458 2073 2458 1331 
C 2458 620 2144 140 1683 140 
C 1382 140 1018 371 1018 563 
L 1018 2137 
z
" transform="scale(0.015625)"/>
       <path id="NimbusRomNo9L-Regu-76" d="M 3053 2880 
L 2163 2880 
L 2163 2783 
C 2368 2764 2464 2701 2464 2580 
C 2464 2517 2451 2454 2426 2390 
L 1792 748 
L 1139 2371 
C 1101 2460 1082 2549 1082 2606 
C 1082 2720 1152 2764 1376 2783 
L 1376 2880 
L 122 2880 
L 122 2783 
C 365 2771 410 2707 704 2054 
L 1472 235 
C 1485 197 1504 152 1523 102 
C 1562 -13 1600 -64 1638 -64 
C 1677 -64 1722 19 1818 254 
L 2637 2289 
C 2822 2720 2861 2764 3053 2783 
L 3053 2880 
z
" transform="scale(0.015625)"/>
       <path id="NimbusRomNo9L-Regu-65" d="M 2611 1052 
C 2304 564 2029 377 1619 377 
C 1254 377 979 564 794 930 
C 678 1174 634 1386 621 1779 
L 2592 1779 
C 2541 2193 2477 2377 2317 2580 
C 2125 2809 1830 2944 1498 2944 
C 1178 2944 877 2828 634 2612 
C 333 2351 160 1900 160 1374 
C 160 486 621 -64 1357 -64 
C 1965 -64 2445 313 2714 1007 
L 2611 1052 
z
M 634 1984 
C 704 2478 922 2713 1312 2713 
C 1702 2713 1856 2535 1939 1984 
L 634 1984 
z
" transform="scale(0.015625)"/>
      </defs>
      <use xlink:href="#NimbusRomNo9L-Regu-49" transform="scale(0.996264)"/>
      <use xlink:href="#NimbusRomNo9L-Regu-6d" transform="translate(33.17561 0) scale(0.996264)"/>
      <use xlink:href="#NimbusRomNo9L-Regu-70" transform="translate(110.684938 0) scale(0.996264)"/>
      <use xlink:href="#NimbusRomNo9L-Regu-72" transform="translate(160.498138 0) scale(0.996264)"/>
      <use xlink:href="#NimbusRomNo9L-Regu-6f" transform="translate(193.673748 0) scale(0.996264)"/>
      <use xlink:href="#NimbusRomNo9L-Regu-76" transform="translate(241.992507 0) scale(0.996264)"/>
      <use xlink:href="#NimbusRomNo9L-Regu-65" transform="translate(290.311266 0) scale(0.996264)"/>
      <use xlink:href="#NimbusRomNo9L-Regu-64" transform="translate(334.545412 0) scale(0.996264)"/>
      <use xlink:href="#NimbusRomNo9L-Regu-64" transform="translate(409.265213 0) scale(0.996264)"/>
      <use xlink:href="#NimbusRomNo9L-Regu-61" transform="translate(459.078413 0) scale(0.996264)"/>
      <use xlink:href="#NimbusRomNo9L-Regu-74" transform="translate(503.31256 0) scale(0.996264)"/>
      <use xlink:href="#NimbusRomNo9L-Regu-61" transform="translate(531.008687 0) scale(0.996264)"/>
     </g>
    </g>
   </g>
  </g>
 </g>
 <defs>
  <clipPath id="p7a6bcb7ab5">
   <rect x="1.44" y="20.351558" width="194.086957" height="221.76"/>
  </clipPath>
  <clipPath id="p37d993322d">
   <rect x="234.344348" y="20.351558" width="194.086957" height="221.76"/>
  </clipPath>
  <clipPath id="pdc392054f3">
   <rect x="467.248696" y="20.351558" width="194.086957" height="221.76"/>
  </clipPath>
  <clipPath id="pa7535d5ca5">
   <rect x="700.153043" y="20.351558" width="194.086957" height="221.76"/>
  </clipPath>
 </defs>
</svg>
