<?xml version="1.0" encoding="utf-8" standalone="no"?>
<!DOCTYPE svg PUBLIC "-//W3C//DTD SVG 1.1//EN"
  "http://www.w3.org/Graphics/SVG/1.1/DTD/svg11.dtd">
<svg xmlns:xlink="http://www.w3.org/1999/xlink" width="1059.078857pt" height="253.878046pt" viewBox="0 0 1059.078857 253.878046" xmlns="http://www.w3.org/2000/svg" version="1.1">
 <metadata>
  <rdf:RDF xmlns:dc="http://purl.org/dc/elements/1.1/" xmlns:cc="http://creativecommons.org/ns#" xmlns:rdf="http://www.w3.org/1999/02/22-rdf-syntax-ns#">
   <cc:Work>
    <dc:type rdf:resource="http://purl.org/dc/dcmitype/StillImage"/>
    <dc:date>2025-01-27T11:11:58.928431</dc:date>
    <dc:format>image/svg+xml</dc:format>
    <dc:creator>
     <cc:Agent>
      <dc:title>Matplotlib v3.9.2, https://matplotlib.org/</dc:title>
     </cc:Agent>
    </dc:creator>
   </cc:Work>
  </rdf:RDF>
 </metadata>
 <defs>
  <style type="text/css">*{stroke-linejoin: round; stroke-linecap: butt}</style>
 </defs>
 <g id="figure_1">
  <g id="patch_1">
   <path d="M 0 253.878046 
L 1059.078857 253.878046 
L 1059.078857 0 
L 0 0 
z
" style="fill: #ffffff"/>
  </g>
  <g id="axes_1">
   <g id="patch_2">
    <path d="M 4.32 226.08 
L 198.406957 226.08 
L 198.406957 4.32 
L 4.32 4.32 
z
" style="fill: #ffffff"/>
   </g>
   <g id="matplotlib.axis_1">
    <g id="xtick_1">
     <g id="line2d_1"/>
    </g>
    <g id="xtick_2">
     <g id="line2d_2"/>
    </g>
    <g id="xtick_3">
     <g id="line2d_3"/>
    </g>
    <g id="text_1">
     <!-- A -->
     <g transform="translate(94.889754 245.684586) scale(0.18 -0.18)">
      <defs>
       <path id="NimbusRomNo9L-Regu-41" d="M 4518 121 
C 4230 141 4166 205 3942 686 
L 2349 4288 
L 2221 4288 
L 890 1187 
C 480 238 403 134 96 121 
L 96 0 
L 1363 0 
L 1363 121 
C 1056 121 928 205 928 387 
C 928 465 947 556 979 641 
L 1274 1401 
L 2950 1401 
L 3213 777 
C 3290 602 3334 433 3334 342 
C 3334 179 3226 128 2886 121 
L 2886 0 
L 4518 0 
L 4518 121 
z
M 1382 1664 
L 2118 3392 
L 2861 1664 
L 1382 1664 
z
" transform="scale(0.015625)"/>
      </defs>
      <use xlink:href="#NimbusRomNo9L-Regu-41" transform="scale(0.996264)"/>
     </g>
    </g>
   </g>
   <g id="matplotlib.axis_2">
    <g id="ytick_1">
     <g id="line2d_4"/>
    </g>
    <g id="ytick_2">
     <g id="line2d_5"/>
    </g>
    <g id="ytick_3">
     <g id="line2d_6"/>
    </g>
    <g id="ytick_4">
     <g id="line2d_7"/>
    </g>
   </g>
   <g id="line2d_8">
    <path d="M 13.142134 226.058511 
L 14.924384 226.049567 
L 16.706633 226.037227 
L 18.488883 226.020342 
L 20.271132 225.997426 
L 22.053381 225.966577 
L 23.835631 225.925389 
L 25.61788 225.870851 
L 27.400129 225.79923 
L 29.182379 225.705953 
L 30.964628 225.585484 
L 32.746877 225.431195 
L 34.529127 225.235252 
L 36.311376 224.98851 
L 38.093626 224.68044 
L 39.875875 224.299088 
L 41.658124 223.831085 
L 43.440374 223.261728 
L 45.222623 222.575129 
L 47.004872 221.754458 
L 48.787122 220.782287 
L 50.569371 219.641041 
L 52.351621 218.313555 
L 54.13387 216.783741 
L 55.916119 215.037344 
L 57.698369 213.062782 
L 59.480618 210.852023 
L 61.262867 208.401493 
L 63.045117 205.712941 
L 64.827366 202.79424 
L 66.609616 199.660058 
L 68.391865 196.332349 
L 70.174114 192.840626 
L 71.956364 189.221951 
L 73.738613 185.520628 
L 75.520862 181.787576 
L 77.303112 178.079359 
L 79.085361 174.456912 
L 80.86761 170.983974 
L 82.64986 167.725288 
L 84.432109 164.744637 
L 86.214359 162.102788 
L 87.996608 159.855447 
L 89.778857 158.051309 
L 91.561107 156.730306 
L 93.343356 155.922139 
L 95.125605 155.645167 
L 96.907855 155.905715 
L 98.690104 156.697834 
L 100.472354 158.003523 
L 102.254603 159.793414 
L 104.036852 162.02787 
L 105.819102 164.658437 
L 107.601351 167.629597 
L 109.3836 170.880708 
L 111.16585 174.348048 
L 112.948099 177.966874 
L 114.730349 181.673387 
L 116.512598 185.406545 
L 118.294847 189.109625 
L 120.077097 192.731524 
L 121.859346 196.227722 
L 123.641595 199.560927 
L 125.423845 202.701398 
L 127.206094 205.626949 
L 128.988344 208.322696 
L 130.770593 210.780568 
L 132.552842 212.998639 
L 134.335092 214.980334 
L 136.117341 216.733559 
L 137.89959 218.269804 
L 139.68184 219.603252 
L 141.464089 220.749948 
L 143.246338 221.727035 
L 145.028588 222.552083 
L 146.810837 223.242533 
L 148.593087 223.815238 
L 150.375336 224.286118 
L 152.157585 224.669918 
L 153.939835 224.980047 
L 155.722084 225.228502 
L 157.504333 225.425858 
L 159.286583 225.581299 
L 161.068832 225.702699 
L 162.851082 225.796721 
L 164.633331 225.868933 
L 166.41558 225.923935 
L 168.19783 225.965483 
L 169.980079 225.99661 
L 171.762328 226.019739 
L 173.544578 226.036784 
L 175.326827 226.049244 
L 177.109077 226.058279 
L 178.891326 226.064776 
L 180.673575 226.069411 
L 182.455825 226.072691 
L 184.238074 226.074994 
L 186.020323 226.076597 
L 187.802573 226.077704 
L 189.584822 226.078463 
" clip-path="url(#p7158dbba7b)" style="fill: none; stroke-dasharray: 1.5,2.475; stroke-dashoffset: 0; stroke: #1f77b4; stroke-width: 1.5"/>
   </g>
   <g id="line2d_9">
    <path d="M 13.142134 226.08 
L 14.924384 226.08 
L 16.706633 226.08 
L 18.488883 226.08 
L 20.271132 226.08 
L 22.053381 226.08 
L 23.835631 226.08 
L 25.61788 226.08 
L 27.400129 226.08 
L 29.182379 226.079999 
L 30.964628 226.079997 
L 32.746877 226.079992 
L 34.529127 226.079977 
L 36.311376 226.079935 
L 38.093626 226.079821 
L 39.875875 226.079527 
L 41.658124 226.078794 
L 43.440374 226.077031 
L 45.222623 226.07295 
L 47.004872 226.063849 
L 48.787122 226.044307 
L 50.569371 226.003901 
L 52.351621 225.923479 
L 54.13387 225.769427 
L 55.916119 225.485495 
L 57.698369 224.982141 
L 59.480618 224.124142 
L 61.262867 222.718543 
L 63.045117 220.506634 
L 64.827366 217.165292 
L 66.609616 212.323865 
L 68.391865 205.602103 
L 70.174114 196.671427 
L 71.956364 185.336137 
L 73.738613 171.62345 
L 75.520862 155.863738 
L 77.303112 138.737635 
L 79.085361 121.267797 
L 80.86761 104.741557 
L 82.64986 90.565851 
L 84.432109 80.074058 
L 86.214359 74.320432 
L 87.996608 73.905707 
L 89.778857 78.873778 
L 91.561107 88.704053 
L 93.343356 102.401304 
L 95.125605 118.661581 
L 96.907855 136.075904 
L 98.690104 153.327913 
L 100.472354 169.347974 
L 102.254603 183.401338 
L 104.036852 195.106309 
L 105.819102 204.394233 
L 107.601351 211.432744 
L 109.3836 216.535846 
L 111.16585 220.080456 
L 112.948099 222.441698 
L 114.730349 223.951475 
L 116.512598 224.87868 
L 118.294847 225.425909 
L 120.077097 225.736428 
L 121.859346 225.905901 
L 123.641595 225.994891 
L 125.423845 226.039862 
L 127.206094 226.061739 
L 128.988344 226.071985 
L 130.770593 226.076606 
L 132.552842 226.078614 
L 134.335092 226.079454 
L 136.117341 226.079792 
L 137.89959 226.079924 
L 139.68184 226.079973 
L 141.464089 226.079991 
L 143.246338 226.079997 
L 145.028588 226.079999 
L 146.810837 226.08 
L 148.593087 226.08 
L 150.375336 226.08 
L 152.157585 226.08 
L 153.939835 226.08 
L 155.722084 226.08 
L 157.504333 226.08 
L 159.286583 226.08 
L 161.068832 226.08 
L 162.851082 226.08 
L 164.633331 226.08 
L 166.41558 226.08 
L 168.19783 226.08 
L 169.980079 226.08 
L 171.762328 226.08 
L 173.544578 226.08 
L 175.326827 226.08 
L 177.109077 226.08 
L 178.891326 226.08 
L 180.673575 226.08 
L 182.455825 226.08 
L 184.238074 226.08 
L 186.020323 226.08 
L 187.802573 226.08 
L 189.584822 226.08 
" clip-path="url(#p7158dbba7b)" style="fill: none; stroke-dasharray: 5.55,2.4; stroke-dashoffset: 0; stroke: #ff7f0e; stroke-width: 1.5"/>
   </g>
   <g id="line2d_10">
    <path d="M 13.142134 226.08 
L 14.924384 226.08 
L 16.706633 226.08 
L 18.488883 226.08 
L 20.271132 226.08 
L 22.053381 226.08 
L 23.835631 226.08 
L 25.61788 226.08 
L 27.400129 226.08 
L 29.182379 226.08 
L 30.964628 226.08 
L 32.746877 226.08 
L 34.529127 226.08 
L 36.311376 226.08 
L 38.093626 226.08 
L 39.875875 226.08 
L 41.658124 226.08 
L 43.440374 226.08 
L 45.222623 226.08 
L 47.004872 226.08 
L 48.787122 226.08 
L 50.569371 226.08 
L 52.351621 226.08 
L 54.13387 226.079998 
L 55.916119 226.079991 
L 57.698369 226.07996 
L 59.480618 226.079834 
L 61.262867 226.079356 
L 63.045117 226.077665 
L 64.827366 226.072091 
L 66.609616 226.054995 
L 68.391865 226.006216 
L 70.174114 225.876779 
L 71.956364 225.557557 
L 73.738613 224.826363 
L 75.520862 223.272188 
L 77.303112 220.210147 
L 79.085361 214.626197 
L 80.86761 205.21899 
L 82.64986 190.616295 
L 84.432109 169.807523 
L 86.214359 142.736618 
L 87.996608 110.86491 
L 89.778857 77.414305 
L 91.561107 47.029588 
L 93.343356 24.79888 
L 95.125605 14.88 
L 96.907855 19.23361 
L 98.690104 36.991493 
L 100.472354 64.738727 
L 102.254603 97.584185 
L 104.036852 130.559707 
L 105.819102 159.8026 
L 107.601351 183.156173 
L 109.3836 200.132557 
L 111.16585 211.439569 
L 112.948099 218.369611 
L 114.730349 222.289802 
L 116.512598 224.340956 
L 118.294847 225.335229 
L 120.077097 225.782287 
L 121.859346 225.96892 
L 123.641595 226.041315 
L 125.423845 226.067425 
L 127.206094 226.076185 
L 128.988344 226.07892 
L 130.770593 226.079714 
L 132.552842 226.07993 
L 134.335092 226.079984 
L 136.117341 226.079997 
L 137.89959 226.079999 
L 139.68184 226.08 
L 141.464089 226.08 
L 143.246338 226.08 
L 145.028588 226.08 
L 146.810837 226.08 
L 148.593087 226.08 
L 150.375336 226.08 
L 152.157585 226.08 
L 153.939835 226.08 
L 155.722084 226.08 
L 157.504333 226.08 
L 159.286583 226.08 
L 161.068832 226.08 
L 162.851082 226.08 
L 164.633331 226.08 
L 166.41558 226.08 
L 168.19783 226.08 
L 169.980079 226.08 
L 171.762328 226.08 
L 173.544578 226.08 
L 175.326827 226.08 
L 177.109077 226.08 
L 178.891326 226.08 
L 180.673575 226.08 
L 182.455825 226.08 
L 184.238074 226.08 
L 186.020323 226.08 
L 187.802573 226.08 
L 189.584822 226.08 
" clip-path="url(#p7158dbba7b)" style="fill: none"/>
   </g>
   <g id="line2d_11">
    <path d="M 100.750043 226.08 
L 100.750043 4.32 
" clip-path="url(#p7158dbba7b)" style="fill: none; stroke-dasharray: 5.55,2.4; stroke-dashoffset: 0; stroke: #000000; stroke-width: 1.5"/>
   </g>
   <g id="patch_3">
    <path d="M 4.32 226.08 
L 4.32 4.32 
" style="fill: none; stroke: #000000; stroke-width: 0.8; stroke-linejoin: miter; stroke-linecap: square"/>
   </g>
   <g id="patch_4">
    <path d="M 198.406957 226.08 
L 198.406957 4.32 
" style="fill: none; stroke: #000000; stroke-width: 0.8; stroke-linejoin: miter; stroke-linecap: square"/>
   </g>
   <g id="patch_5">
    <path d="M 4.32 226.08 
L 198.406957 226.08 
" style="fill: none; stroke: #000000; stroke-width: 0.8; stroke-linejoin: miter; stroke-linecap: square"/>
   </g>
   <g id="patch_6">
    <path d="M 4.32 4.32 
L 198.406957 4.32 
" style="fill: none; stroke: #000000; stroke-width: 0.8; stroke-linejoin: miter; stroke-linecap: square"/>
   </g>
  </g>
  <g id="axes_2">
   <g id="patch_7">
    <path d="M 237.224348 226.08 
L 431.311304 226.08 
L 431.311304 4.32 
L 237.224348 4.32 
z
" style="fill: #ffffff"/>
   </g>
   <g id="matplotlib.axis_3">
    <g id="xtick_4">
     <g id="line2d_12"/>
    </g>
    <g id="xtick_5">
     <g id="line2d_13"/>
    </g>
    <g id="text_2">
     <!-- f -->
     <g transform="translate(331.282021 245.684586) scale(0.18 -0.18)">
      <defs>
       <path id="NimbusRomNo9L-Regu-66" d="M 1978 2880 
L 1190 2880 
L 1190 3611 
C 1190 3977 1312 4172 1555 4172 
C 1690 4172 1779 4109 1894 3926 
C 1997 3762 2074 3699 2182 3699 
C 2330 3699 2451 3813 2451 3958 
C 2451 4185 2170 4352 1786 4352 
C 1389 4352 1050 4179 883 3889 
C 717 3611 666 3384 659 2880 
L 134 2880 
L 134 2675 
L 659 2675 
L 659 665 
C 659 198 589 121 128 96 
L 128 0 
L 1792 0 
L 1792 96 
C 1267 115 1197 185 1197 665 
L 1197 2675 
L 1978 2675 
L 1978 2880 
z
" transform="scale(0.015625)"/>
      </defs>
      <use xlink:href="#NimbusRomNo9L-Regu-66" transform="scale(0.996264)"/>
     </g>
    </g>
   </g>
   <g id="matplotlib.axis_4">
    <g id="ytick_5">
     <g id="line2d_14"/>
    </g>
    <g id="ytick_6">
     <g id="line2d_15"/>
    </g>
    <g id="ytick_7">
     <g id="line2d_16"/>
    </g>
    <g id="ytick_8">
     <g id="line2d_17"/>
    </g>
    <g id="ytick_9">
     <g id="line2d_18"/>
    </g>
   </g>
   <g id="line2d_19">
    <path d="M 246.046482 226.058216 
L 247.828732 226.049426 
L 249.610981 226.037392 
L 251.39323 226.021039 
L 253.17548 225.998984 
L 254.957729 225.969463 
L 256.739978 225.930246 
L 258.522228 225.878543 
L 260.304477 225.810896 
L 262.086727 225.723065 
L 263.868976 225.609899 
L 265.651225 225.465212 
L 267.433475 225.281651 
L 269.215724 225.050579 
L 270.997973 224.761969 
L 272.780223 224.404321 
L 274.562472 223.964619 
L 276.344722 223.428332 
L 278.126971 222.77948 
L 279.90922 222.000769 
L 281.69147 221.073816 
L 283.473719 219.979464 
L 285.255968 218.698207 
L 287.038218 217.21072 
L 288.820467 215.498492 
L 290.602716 213.544566 
L 292.384966 211.334352 
L 294.167215 208.856516 
L 295.949465 206.103896 
L 297.731714 203.074416 
L 299.513963 199.771967 
L 301.296213 196.207185 
L 303.078462 192.3981 
L 304.860711 188.370596 
L 306.642961 184.158635 
L 308.42521 179.804213 
L 310.20746 175.357006 
L 311.989709 170.873705 
L 313.771958 166.417015 
L 315.554208 162.054347 
L 317.336457 157.85623 
L 319.118706 153.894484 
L 320.900956 150.240218 
L 322.683205 146.961737 
L 324.465455 144.122431 
L 326.247704 141.778743 
L 328.029953 139.978306 
L 329.812203 138.758338 
L 331.594452 138.144355 
L 333.376701 138.149293 
L 335.158951 138.773045 
L 336.9412 140.002475 
L 338.72345 141.811869 
L 340.505699 144.163836 
L 342.287948 147.010587 
L 344.070198 150.295555 
L 345.852447 153.955254 
L 347.634696 157.92132 
L 349.416946 162.122613 
L 351.199195 166.487322 
L 352.981444 170.944952 
L 354.763694 175.428155 
L 356.545943 179.874313 
L 358.328193 184.226839 
L 360.110442 188.436175 
L 361.892691 192.460451 
L 363.674941 196.265833 
L 365.45719 199.826565 
L 367.239439 203.124738 
L 369.021689 206.149829 
L 370.803938 208.89805 
L 372.586188 211.371562 
L 374.368437 213.577603 
L 376.150686 215.527565 
L 377.932936 217.236081 
L 379.715185 218.720141 
L 381.497434 219.998274 
L 383.279684 221.089812 
L 385.061933 222.01426 
L 386.844183 222.790765 
L 388.626432 223.437695 
L 390.408681 223.972325 
L 392.190931 224.410613 
L 393.97318 224.767066 
L 395.755429 225.054675 
L 397.537679 225.284916 
L 399.319928 225.467795 
L 401.102178 225.611927 
L 402.884427 225.724645 
L 404.666676 225.812117 
L 406.448926 225.879479 
L 408.231175 225.930959 
L 410.013424 225.970002 
L 411.795674 225.999388 
L 413.577923 226.02134 
L 415.360172 226.037614 
L 417.142422 226.049589 
L 418.924671 226.058334 
L 420.706921 226.064673 
L 422.48917 226.069234 
" clip-path="url(#p8fe4c390c3)" style="fill: none; stroke-dasharray: 1.5,2.475; stroke-dashoffset: 0; stroke: #1f77b4; stroke-width: 1.5"/>
   </g>
   <g id="line2d_20">
    <path d="M 246.046482 226.08 
L 247.828732 226.08 
L 249.610981 226.08 
L 251.39323 226.08 
L 253.17548 226.08 
L 254.957729 226.08 
L 256.739978 226.08 
L 258.522228 226.08 
L 260.304477 226.08 
L 262.086727 226.079999 
L 263.868976 226.079998 
L 265.651225 226.079995 
L 267.433475 226.079987 
L 269.215724 226.079965 
L 270.997973 226.079908 
L 272.780223 226.079763 
L 274.562472 226.07941 
L 276.344722 226.078577 
L 278.126971 226.076679 
L 279.90922 226.072488 
L 281.69147 226.063537 
L 283.473719 226.045046 
L 285.255968 226.008099 
L 287.038218 225.936707 
L 288.820467 225.803327 
L 290.602716 225.562441 
L 292.384966 225.141996 
L 294.167215 224.43297 
L 295.949465 223.278113 
L 297.731714 221.462024 
L 299.513963 218.70597 
L 301.296213 214.671983 
L 303.078462 208.981126 
L 304.860711 201.249987 
L 306.642961 191.146792 
L 308.42521 178.464093 
L 310.20746 163.199246 
L 311.989709 145.628248 
L 313.771958 126.354701 
L 315.554208 106.315731 
L 317.336457 86.73183 
L 319.118706 68.997662 
L 320.900956 54.524154 
L 322.683205 44.555283 
L 324.465455 39.992117 
L 326.247704 41.258494 
L 328.029953 48.236092 
L 329.812203 60.282658 
L 331.594452 76.329522 
L 333.376701 95.037868 
L 335.158951 114.982122 
L 336.9412 134.825843 
L 338.72345 153.460771 
L 340.505699 170.091003 
L 342.287948 184.257901 
L 344.070198 195.81358 
L 345.852447 204.858878 
L 347.634696 211.664566 
L 349.416946 216.592775 
L 351.199195 220.030733 
L 352.981444 222.343041 
L 354.763694 223.843412 
L 356.545943 224.783102 
L 358.328193 225.351419 
L 360.110442 225.683447 
L 361.892691 225.870889 
L 363.674941 225.973167 
L 365.45719 226.027121 
L 367.239439 226.054642 
L 369.021689 226.068218 
L 370.803938 226.074697 
L 372.586188 226.077687 
L 374.368437 226.079023 
L 376.150686 226.0796 
L 377.932936 226.079841 
L 379.715185 226.079939 
L 381.497434 226.079977 
L 383.279684 226.079992 
L 385.061933 226.079997 
L 386.844183 226.079999 
L 388.626432 226.08 
L 390.408681 226.08 
L 392.190931 226.08 
L 393.97318 226.08 
L 395.755429 226.08 
L 397.537679 226.08 
L 399.319928 226.08 
L 401.102178 226.08 
L 402.884427 226.08 
L 404.666676 226.08 
L 406.448926 226.08 
L 408.231175 226.08 
L 410.013424 226.08 
L 411.795674 226.08 
L 413.577923 226.08 
L 415.360172 226.08 
L 417.142422 226.08 
L 418.924671 226.08 
L 420.706921 226.08 
L 422.48917 226.08 
" clip-path="url(#p8fe4c390c3)" style="fill: none; stroke-dasharray: 5.55,2.4; stroke-dashoffset: 0; stroke: #ff7f0e; stroke-width: 1.5"/>
   </g>
   <g id="line2d_21">
    <path d="M 246.046482 226.08 
L 247.828732 226.08 
L 249.610981 226.08 
L 251.39323 226.08 
L 253.17548 226.08 
L 254.957729 226.08 
L 256.739978 226.08 
L 258.522228 226.08 
L 260.304477 226.08 
L 262.086727 226.08 
L 263.868976 226.079999 
L 265.651225 226.079998 
L 267.433475 226.079992 
L 269.215724 226.079975 
L 270.997973 226.079923 
L 272.780223 226.079775 
L 274.562472 226.079365 
L 276.344722 226.078279 
L 278.126971 226.075524 
L 279.90922 226.068821 
L 281.69147 226.053194 
L 283.473719 226.018282 
L 285.255968 225.943563 
L 287.038218 225.790409 
L 288.820467 225.489832 
L 290.602716 224.925211 
L 292.384966 223.910468 
L 294.167215 222.166493 
L 295.949465 219.301984 
L 297.731714 214.808662 
L 299.513963 208.083633 
L 301.296213 198.491336 
L 303.078462 185.471875 
L 304.860711 168.690602 
L 306.642961 148.207009 
L 308.42521 124.623822 
L 310.20746 99.166859 
L 311.989709 73.649756 
L 313.771958 50.29891 
L 315.554208 31.450074 
L 317.336457 19.16902 
L 319.118706 14.88 
L 320.900956 19.094108 
L 322.683205 31.309117 
L 324.465455 50.107916 
L 326.247704 73.428887 
L 328.029953 98.936948 
L 329.812203 124.40323 
L 331.594452 148.009437 
L 333.376701 168.524169 
L 335.158951 185.339363 
L 336.9412 198.391289 
L 338.72345 208.011831 
L 340.505699 214.759595 
L 342.287948 219.270013 
L 344.070198 222.14661 
L 345.852447 223.898656 
L 347.634696 224.918503 
L 349.416946 225.486189 
L 351.199195 225.788516 
L 352.981444 225.942622 
L 354.763694 226.017833 
L 356.545943 226.052989 
L 358.328193 226.068732 
L 360.110442 226.075487 
L 361.892691 226.078264 
L 363.674941 226.079359 
L 365.45719 226.079773 
L 367.239439 226.079923 
L 369.021689 226.079975 
L 370.803938 226.079992 
L 372.586188 226.079998 
L 374.368437 226.079999 
L 376.150686 226.08 
L 377.932936 226.08 
L 379.715185 226.08 
L 381.497434 226.08 
L 383.279684 226.08 
L 385.061933 226.08 
L 386.844183 226.08 
L 388.626432 226.08 
L 390.408681 226.08 
L 392.190931 226.08 
L 393.97318 226.08 
L 395.755429 226.08 
L 397.537679 226.08 
L 399.319928 226.08 
L 401.102178 226.08 
L 402.884427 226.08 
L 404.666676 226.08 
L 406.448926 226.08 
L 408.231175 226.08 
L 410.013424 226.08 
L 411.795674 226.08 
L 413.577923 226.08 
L 415.360172 226.08 
L 417.142422 226.08 
L 418.924671 226.08 
L 420.706921 226.08 
L 422.48917 226.08 
" clip-path="url(#p8fe4c390c3)" style="fill: none"/>
   </g>
   <g id="line2d_22">
    <path d="M 317.138063 226.08 
L 317.138063 4.32 
" clip-path="url(#p8fe4c390c3)" style="fill: none; stroke-dasharray: 5.55,2.4; stroke-dashoffset: 0; stroke: #000000; stroke-width: 1.5"/>
   </g>
   <g id="patch_8">
    <path d="M 237.224348 226.08 
L 237.224348 4.32 
" style="fill: none; stroke: #000000; stroke-width: 0.8; stroke-linejoin: miter; stroke-linecap: square"/>
   </g>
   <g id="patch_9">
    <path d="M 431.311304 226.08 
L 431.311304 4.32 
" style="fill: none; stroke: #000000; stroke-width: 0.8; stroke-linejoin: miter; stroke-linecap: square"/>
   </g>
   <g id="patch_10">
    <path d="M 237.224348 226.08 
L 431.311304 226.08 
" style="fill: none; stroke: #000000; stroke-width: 0.8; stroke-linejoin: miter; stroke-linecap: square"/>
   </g>
   <g id="patch_11">
    <path d="M 237.224348 4.32 
L 431.311304 4.32 
" style="fill: none; stroke: #000000; stroke-width: 0.8; stroke-linejoin: miter; stroke-linecap: square"/>
   </g>
  </g>
  <g id="axes_3">
   <g id="patch_12">
    <path d="M 470.128696 226.08 
L 664.215652 226.08 
L 664.215652 4.32 
L 470.128696 4.32 
z
" style="fill: #ffffff"/>
   </g>
   <g id="matplotlib.axis_5">
    <g id="xtick_6">
     <g id="line2d_23"/>
    </g>
    <g id="xtick_7">
     <g id="line2d_24"/>
    </g>
    <g id="xtick_8">
     <g id="line2d_25"/>
    </g>
    <g id="text_3">
     <!-- $\phi$ -->
     <g transform="translate(562.24067 245.684586) scale(0.18 -0.18)">
      <defs>
       <path id="rtxmi-1e" d="M 3360 1843 
C 3360 2310 3021 2707 2381 2790 
L 2758 4013 
L 2227 3929 
L 1939 2784 
C 934 2681 154 1849 154 902 
C 154 428 410 -45 1229 -90 
L 928 -1344 
L 1088 -1344 
L 1485 -84 
C 2534 0 3360 896 3360 1843 
z
M 2848 1894 
C 2848 806 2170 147 1542 89 
L 2317 2592 
C 2758 2432 2848 2054 2848 1894 
z
M 1894 2611 
L 1274 102 
C 845 224 691 614 691 883 
C 691 1868 1229 2521 1894 2611 
z
" transform="scale(0.015625)"/>
      </defs>
      <use xlink:href="#rtxmi-1e" transform="scale(0.996264)"/>
     </g>
    </g>
   </g>
   <g id="matplotlib.axis_6">
    <g id="ytick_10">
     <g id="line2d_26"/>
    </g>
    <g id="ytick_11">
     <g id="line2d_27"/>
    </g>
    <g id="ytick_12">
     <g id="line2d_28"/>
    </g>
    <g id="ytick_13">
     <g id="line2d_29"/>
    </g>
   </g>
   <g id="line2d_30">
    <path d="M 478.95083 226.078364 
L 480.733079 226.0776 
L 482.515329 226.076506 
L 484.297578 226.07495 
L 486.079828 226.072752 
L 487.862077 226.069672 
L 489.644326 226.065387 
L 491.426576 226.059473 
L 493.208825 226.051369 
L 494.991074 226.040351 
L 496.773324 226.025483 
L 498.555573 226.005574 
L 500.337822 225.979118 
L 502.120072 225.944232 
L 503.902321 225.898583 
L 505.684571 225.839311 
L 507.46682 225.762949 
L 509.249069 225.665334 
L 511.031319 225.541527 
L 512.813568 225.385734 
L 514.595817 225.19124 
L 516.378067 224.950363 
L 518.160316 224.654426 
L 519.942566 224.293771 
L 521.724815 223.857814 
L 523.507064 223.33514 
L 525.289314 222.713674 
L 527.071563 221.980901 
L 528.853812 221.124164 
L 530.636062 220.131032 
L 532.418311 218.989731 
L 534.200561 217.689651 
L 535.98281 216.22189 
L 537.765059 214.57985 
L 539.547309 212.759833 
L 541.329558 210.761647 
L 543.111807 208.589157 
L 544.894057 206.250776 
L 546.676306 203.759859 
L 548.458556 201.134946 
L 550.240805 198.399864 
L 552.023054 195.583622 
L 553.805304 192.720113 
L 555.587553 189.847595 
L 557.369802 187.007966 
L 559.152052 184.24583 
L 560.934301 181.607396 
L 562.71655 179.139227 
L 564.4988 176.886901 
L 566.281049 174.893622 
L 568.063299 173.19885 
L 569.845548 171.837005 
L 571.627797 170.836308 
L 573.410047 170.217804 
L 575.192296 169.994631 
L 576.974545 170.171553 
L 578.756795 170.744791 
L 580.539044 171.70216 
L 582.321294 173.023498 
L 584.103543 174.681369 
L 585.885792 176.642014 
L 587.668042 178.866494 
L 589.450291 181.311968 
L 591.23254 183.933062 
L 593.01479 186.683256 
L 594.797039 189.516236 
L 596.579289 192.387151 
L 598.361538 195.253739 
L 600.143787 198.077279 
L 601.926037 200.823341 
L 603.708286 203.462332 
L 605.490535 205.969817 
L 607.272785 208.326642 
L 609.055034 210.518866 
L 610.837284 212.537518 
L 612.619533 214.37823 
L 614.401782 216.040754 
L 616.184032 217.528408 
L 617.966281 218.84749 
L 619.74853 220.006662 
L 621.53078 221.016369 
L 623.313029 221.888273 
L 625.095278 222.634754 
L 626.877528 223.268464 
L 628.659777 223.801949 
L 630.442027 224.247351 
L 632.224276 224.616166 
L 634.006525 224.919086 
L 635.788775 225.165876 
L 637.571024 225.365329 
L 639.353273 225.525242 
L 641.135523 225.65244 
L 642.917772 225.75282 
L 644.700022 225.831416 
L 646.482271 225.892476 
L 648.26452 225.939546 
L 650.04677 225.97555 
L 651.829019 226.002878 
L 653.611268 226.023461 
L 655.393518 226.038846 
" clip-path="url(#p402adab83d)" style="fill: none; stroke-dasharray: 1.5,2.475; stroke-dashoffset: 0; stroke: #1f77b4; stroke-width: 1.5"/>
   </g>
   <g id="line2d_31">
    <path d="M 478.95083 226.08 
L 480.733079 226.08 
L 482.515329 226.08 
L 484.297578 226.08 
L 486.079828 226.08 
L 487.862077 226.08 
L 489.644326 226.08 
L 491.426576 226.08 
L 493.208825 226.08 
L 494.991074 226.08 
L 496.773324 226.08 
L 498.555573 226.08 
L 500.337822 226.08 
L 502.120072 226.08 
L 503.902321 226.08 
L 505.684571 226.08 
L 507.46682 226.08 
L 509.249069 226.08 
L 511.031319 226.08 
L 512.813568 226.08 
L 514.595817 226.08 
L 516.378067 226.08 
L 518.160316 226.079999 
L 519.942566 226.079997 
L 521.724815 226.07999 
L 523.507064 226.079973 
L 525.289314 226.079925 
L 527.071563 226.079804 
L 528.853812 226.0795 
L 530.636062 226.078771 
L 532.418311 226.077076 
L 534.200561 226.073275 
L 535.98281 226.065053 
L 537.765059 226.047885 
L 539.547309 226.013298 
L 541.329558 225.946083 
L 543.111807 225.820105 
L 544.894057 225.592438 
L 546.676306 225.195845 
L 548.458556 224.530128 
L 550.240805 223.45378 
L 552.023054 221.778357 
L 553.805304 219.269081 
L 555.587553 215.655742 
L 557.369802 210.657576 
L 559.152052 204.023927 
L 560.934301 195.588992 
L 562.71655 185.334145 
L 564.4988 173.446391 
L 566.281049 160.357977 
L 568.063299 146.751955 
L 569.845548 133.522707 
L 571.627797 121.689112 
L 573.410047 112.269431 
L 575.192296 106.138173 
L 576.974545 103.8925 
L 578.756795 105.75636 
L 580.539044 111.543687 
L 582.321294 120.689007 
L 584.103543 132.338511 
L 585.885792 145.481258 
L 587.668042 159.09266 
L 589.450291 172.262284 
L 591.23254 184.284854 
L 593.01479 194.704223 
L 594.797039 203.311669 
L 596.579289 210.108858 
L 598.361538 215.250491 
L 600.143787 218.981777 
L 601.926037 221.58263 
L 603.708286 223.325546 
L 605.490535 224.449275 
L 607.272785 225.146759 
L 609.055034 225.563732 
L 610.837284 225.803927 
L 612.619533 225.937294 
L 614.401782 226.008694 
L 616.184032 226.045559 
L 617.966281 226.063919 
L 619.74853 226.072742 
L 621.53078 226.076834 
L 623.313029 226.078665 
L 625.095278 226.079456 
L 626.877528 226.079785 
L 628.659777 226.079918 
L 630.442027 226.07997 
L 632.224276 226.079989 
L 634.006525 226.079996 
L 635.788775 226.079999 
L 637.571024 226.08 
L 639.353273 226.08 
L 641.135523 226.08 
L 642.917772 226.08 
L 644.700022 226.08 
L 646.482271 226.08 
L 648.26452 226.08 
L 650.04677 226.08 
L 651.829019 226.08 
L 653.611268 226.08 
L 655.393518 226.08 
" clip-path="url(#p402adab83d)" style="fill: none; stroke-dasharray: 5.55,2.4; stroke-dashoffset: 0; stroke: #ff7f0e; stroke-width: 1.5"/>
   </g>
   <g id="line2d_32">
    <path d="M 478.95083 226.08 
L 480.733079 226.08 
L 482.515329 226.08 
L 484.297578 226.08 
L 486.079828 226.08 
L 487.862077 226.08 
L 489.644326 226.08 
L 491.426576 226.08 
L 493.208825 226.08 
L 494.991074 226.08 
L 496.773324 226.08 
L 498.555573 226.08 
L 500.337822 226.08 
L 502.120072 226.08 
L 503.902321 226.08 
L 505.684571 226.08 
L 507.46682 226.08 
L 509.249069 226.08 
L 511.031319 226.08 
L 512.813568 226.08 
L 514.595817 226.08 
L 516.378067 226.08 
L 518.160316 226.08 
L 519.942566 226.08 
L 521.724815 226.08 
L 523.507064 226.08 
L 525.289314 226.08 
L 527.071563 226.08 
L 528.853812 226.08 
L 530.636062 226.08 
L 532.418311 226.08 
L 534.200561 226.08 
L 535.98281 226.08 
L 537.765059 226.08 
L 539.547309 226.08 
L 541.329558 226.08 
L 543.111807 226.08 
L 544.894057 226.08 
L 546.676306 226.079999 
L 548.458556 226.079995 
L 550.240805 226.079969 
L 552.023054 226.079819 
L 553.805304 226.07906 
L 555.587553 226.075591 
L 557.369802 226.061352 
L 559.152052 226.008885 
L 560.934301 225.835441 
L 562.71655 225.321609 
L 564.4988 223.959255 
L 566.281049 220.732276 
L 568.063299 213.919958 
L 569.845548 201.146297 
L 571.627797 179.977545 
L 573.410047 149.211768 
L 575.192296 110.50729 
L 576.974545 69.387119 
L 578.756795 34.509423 
L 580.539044 14.88 
L 582.321294 16.11612 
L 584.103543 37.853471 
L 585.885792 73.919249 
L 587.668042 115.159958 
L 589.450291 153.167335 
L 591.23254 182.860326 
L 593.01479 202.978213 
L 594.797039 214.944872 
L 596.579289 221.240166 
L 598.361538 224.18307 
L 600.143787 225.409564 
L 601.926037 225.866327 
L 603.708286 226.018592 
L 605.490535 226.064086 
L 607.272785 226.076281 
L 609.055034 226.079216 
L 610.837284 226.079851 
L 612.619533 226.079974 
L 614.401782 226.079996 
L 616.184032 226.079999 
L 617.966281 226.08 
L 619.74853 226.08 
L 621.53078 226.08 
L 623.313029 226.08 
L 625.095278 226.08 
L 626.877528 226.08 
L 628.659777 226.08 
L 630.442027 226.08 
L 632.224276 226.08 
L 634.006525 226.08 
L 635.788775 226.08 
L 637.571024 226.08 
L 639.353273 226.08 
L 641.135523 226.08 
L 642.917772 226.08 
L 644.700022 226.08 
L 646.482271 226.08 
L 648.26452 226.08 
L 650.04677 226.08 
L 651.829019 226.08 
L 653.611268 226.08 
L 655.393518 226.08 
" clip-path="url(#p402adab83d)" style="fill: none"/>
   </g>
   <g id="line2d_33">
    <path d="M 583.629937 226.08 
L 583.629937 4.32 
" clip-path="url(#p402adab83d)" style="fill: none; stroke-dasharray: 5.55,2.4; stroke-dashoffset: 0; stroke: #000000; stroke-width: 1.5"/>
   </g>
   <g id="patch_13">
    <path d="M 470.128696 226.08 
L 470.128696 4.32 
" style="fill: none; stroke: #000000; stroke-width: 0.8; stroke-linejoin: miter; stroke-linecap: square"/>
   </g>
   <g id="patch_14">
    <path d="M 664.215652 226.08 
L 664.215652 4.32 
" style="fill: none; stroke: #000000; stroke-width: 0.8; stroke-linejoin: miter; stroke-linecap: square"/>
   </g>
   <g id="patch_15">
    <path d="M 470.128696 226.08 
L 664.215652 226.08 
" style="fill: none; stroke: #000000; stroke-width: 0.8; stroke-linejoin: miter; stroke-linecap: square"/>
   </g>
   <g id="patch_16">
    <path d="M 470.128696 4.32 
L 664.215652 4.32 
" style="fill: none; stroke: #000000; stroke-width: 0.8; stroke-linejoin: miter; stroke-linecap: square"/>
   </g>
  </g>
  <g id="axes_4">
   <g id="patch_17">
    <path d="M 703.033043 226.08 
L 897.12 226.08 
L 897.12 4.32 
L 703.033043 4.32 
z
" style="fill: #ffffff"/>
   </g>
   <g id="matplotlib.axis_7">
    <g id="xtick_9">
     <g id="line2d_34"/>
    </g>
    <g id="xtick_10">
     <g id="line2d_35"/>
    </g>
    <g id="xtick_11">
     <g id="line2d_36"/>
    </g>
    <g id="text_4">
     <!-- B -->
     <g transform="translate(794.095951 245.684586) scale(0.18 -0.18)">
      <defs>
       <path id="NimbusRomNo9L-Regu-42" d="M 109 4224 
L 109 4102 
C 646 4070 723 4000 723 3528 
L 723 695 
C 723 223 640 140 109 121 
L 109 0 
L 2246 0 
C 2746 0 3200 134 3437 351 
C 3667 555 3795 842 3795 1148 
C 3795 1429 3680 1684 3482 1869 
C 3290 2041 3117 2118 2701 2220 
C 3034 2303 3168 2367 3322 2500 
C 3482 2641 3578 2877 3578 3138 
C 3578 3853 3008 4224 1901 4224 
L 109 4224 
z
M 1376 2080 
C 1997 2080 2291 2048 2522 1952 
C 2886 1799 3059 1544 3059 1142 
C 3059 798 2925 549 2669 402 
C 2464 287 2202 236 1779 236 
C 1466 236 1376 294 1376 498 
L 1376 2080 
z
M 1376 2335 
L 1376 3795 
C 1376 3929 1421 3987 1517 3987 
L 1798 3987 
C 2534 3987 2925 3680 2925 3113 
C 2925 2615 2586 2335 1984 2335 
L 1376 2335 
z
" transform="scale(0.015625)"/>
      </defs>
      <use xlink:href="#NimbusRomNo9L-Regu-42" transform="scale(0.996264)"/>
     </g>
    </g>
   </g>
   <g id="matplotlib.axis_8">
    <g id="ytick_14">
     <g id="line2d_37"/>
    </g>
    <g id="ytick_15">
     <g id="line2d_38"/>
    </g>
    <g id="ytick_16">
     <g id="line2d_39"/>
    </g>
    <g id="ytick_17">
     <g id="line2d_40"/>
    </g>
    <g id="ytick_18">
     <g id="line2d_41"/>
    </g>
   </g>
   <g id="line2d_42">
    <path d="M 711.855178 226.078364 
L 713.637427 226.077512 
L 715.419677 226.076249 
L 717.201926 226.074391 
L 718.984175 226.071682 
L 720.766425 226.067768 
L 722.548674 226.062163 
L 724.330923 226.054205 
L 726.113173 226.043007 
L 727.895422 226.027389 
L 729.677672 226.0058 
L 731.459921 225.976222 
L 733.24217 225.936061 
L 735.02442 225.88202 
L 736.806669 225.809955 
L 738.588918 225.714722 
L 740.371168 225.590015 
L 742.153417 225.428201 
L 743.935667 225.220162 
L 745.717916 224.95516 
L 747.500165 224.620725 
L 749.282415 224.202607 
L 751.064664 223.684783 
L 752.846913 223.049554 
L 754.629163 222.277756 
L 756.411412 221.349085 
L 758.193662 220.242565 
L 759.975911 218.937161 
L 761.75816 217.412549 
L 763.54041 215.650013 
L 765.322659 213.633482 
L 767.104908 211.350643 
L 768.887158 208.794119 
L 770.669407 205.962639 
L 772.451656 202.862134 
L 774.233906 199.506707 
L 776.016155 195.919381 
L 777.798405 192.132569 
L 779.580654 188.188189 
L 781.362903 184.137375 
L 783.145153 180.039754 
L 784.927402 175.962263 
L 786.709651 171.977533 
L 788.491901 168.161879 
L 790.27415 164.59295 
L 792.0564 161.347164 
L 793.838649 158.49701 
L 795.620898 156.108374 
L 797.403148 154.238017 
L 799.185397 152.931327 
L 800.967646 152.220497 
L 802.749896 152.123202 
L 804.532145 152.64187 
L 806.314395 153.763581 
L 808.096644 155.460604 
L 809.878893 157.691531 
L 811.661143 160.402964 
L 813.443392 163.531629 
L 815.225641 167.006833 
L 817.007891 170.753106 
L 818.79014 174.692898 
L 820.57239 178.749211 
L 822.354639 182.848018 
L 824.136888 186.920391 
L 825.919138 190.904252 
L 827.701387 194.745692 
L 829.483636 198.399835 
L 831.265886 201.831268 
L 833.048135 205.014043 
L 834.830384 207.931317 
L 836.612634 210.574676 
L 838.394883 212.943237 
L 840.177133 215.042577 
L 841.959382 216.88358 
L 843.741631 218.481259 
L 845.523881 219.85361 
L 847.30613 221.020556 
L 849.088379 222.002997 
L 850.870629 222.822 
L 852.652878 223.498138 
L 854.435128 224.050979 
L 856.217377 224.498708 
L 857.999626 224.857893 
L 859.781876 225.143348 
L 861.564125 225.3681 
L 863.346374 225.543424 
L 865.128624 225.678934 
L 866.910873 225.782716 
L 868.693123 225.861476 
L 870.475372 225.920706 
L 872.257621 225.964848 
L 874.039871 225.99745 
L 875.82212 226.021315 
L 877.604369 226.038627 
L 879.386619 226.051075 
L 881.168868 226.059946 
L 882.951117 226.066212 
L 884.733367 226.070599 
L 886.515616 226.073643 
L 888.297866 226.075738 
" clip-path="url(#p2d62f98631)" style="fill: none; stroke-dasharray: 1.5,2.475; stroke-dashoffset: 0; stroke: #1f77b4; stroke-width: 1.5"/>
   </g>
   <g id="line2d_43">
    <path d="M 711.855178 226.08 
L 713.637427 226.08 
L 715.419677 226.08 
L 717.201926 226.08 
L 718.984175 226.08 
L 720.766425 226.08 
L 722.548674 226.08 
L 724.330923 226.08 
L 726.113173 226.08 
L 727.895422 226.08 
L 729.677672 226.08 
L 731.459921 226.08 
L 733.24217 226.08 
L 735.02442 226.08 
L 736.806669 226.08 
L 738.588918 226.08 
L 740.371168 226.08 
L 742.153417 226.08 
L 743.935667 226.08 
L 745.717916 226.08 
L 747.500165 226.08 
L 749.282415 226.079998 
L 751.064664 226.079995 
L 752.846913 226.079983 
L 754.629163 226.07995 
L 756.411412 226.079855 
L 758.193662 226.079594 
L 759.975911 226.078911 
L 761.75816 226.077192 
L 763.54041 226.073035 
L 765.322659 226.063394 
L 767.104908 226.041932 
L 768.887158 225.996094 
L 770.669407 225.902189 
L 772.451656 225.717713 
L 774.233906 225.370291 
L 776.016155 224.743284 
L 777.798405 223.65936 
L 779.580654 221.865431 
L 781.362903 219.024819 
L 783.145153 214.72479 
L 784.927402 208.508284 
L 786.709651 199.936412 
L 788.491901 188.682016 
L 790.27415 174.644473 
L 792.0564 158.064139 
L 793.838649 139.60527 
L 795.620898 120.373856 
L 797.403148 101.845205 
L 799.185397 85.695788 
L 800.967646 73.560529 
L 802.749896 66.762194 
L 804.532145 66.07434 
L 806.314395 71.576481 
L 808.096644 82.638965 
L 809.878893 98.041539 
L 811.661143 116.194729 
L 813.443392 135.408557 
L 815.225641 154.146106 
L 817.007891 171.210801 
L 818.79014 185.840213 
L 820.57239 197.706382 
L 822.354639 206.844398 
L 824.136888 213.541984 
L 825.919138 218.222509 
L 827.701387 221.345534 
L 829.483636 223.337226 
L 831.265886 224.552289 
L 833.048135 225.261867 
L 834.830384 225.658751 
L 836.612634 225.871461 
L 838.394883 225.980742 
L 840.177133 226.034577 
L 841.959382 226.060014 
L 843.741631 226.071545 
L 845.523881 226.076561 
L 847.30613 226.078655 
L 849.088379 226.079494 
L 850.870629 226.079817 
L 852.652878 226.079936 
L 854.435128 226.079979 
L 856.217377 226.079993 
L 857.999626 226.079998 
L 859.781876 226.079999 
L 861.564125 226.08 
L 863.346374 226.08 
L 865.128624 226.08 
L 866.910873 226.08 
L 868.693123 226.08 
L 870.475372 226.08 
L 872.257621 226.08 
L 874.039871 226.08 
L 875.82212 226.08 
L 877.604369 226.08 
L 879.386619 226.08 
L 881.168868 226.08 
L 882.951117 226.08 
L 884.733367 226.08 
L 886.515616 226.08 
L 888.297866 226.08 
" clip-path="url(#p2d62f98631)" style="fill: none; stroke-dasharray: 5.55,2.4; stroke-dashoffset: 0; stroke: #ff7f0e; stroke-width: 1.5"/>
   </g>
   <g id="line2d_44">
    <path d="M 711.855178 226.08 
L 713.637427 226.08 
L 715.419677 226.08 
L 717.201926 226.08 
L 718.984175 226.08 
L 720.766425 226.08 
L 722.548674 226.08 
L 724.330923 226.08 
L 726.113173 226.08 
L 727.895422 226.08 
L 729.677672 226.08 
L 731.459921 226.08 
L 733.24217 226.08 
L 735.02442 226.08 
L 736.806669 226.08 
L 738.588918 226.08 
L 740.371168 226.08 
L 742.153417 226.08 
L 743.935667 226.08 
L 745.717916 226.08 
L 747.500165 226.08 
L 749.282415 226.08 
L 751.064664 226.08 
L 752.846913 226.08 
L 754.629163 226.08 
L 756.411412 226.08 
L 758.193662 226.08 
L 759.975911 226.08 
L 761.75816 226.079999 
L 763.54041 226.079995 
L 765.322659 226.079977 
L 767.104908 226.0799 
L 768.887158 226.079602 
L 770.669407 226.078516 
L 772.451656 226.074841 
L 774.233906 226.063265 
L 776.016155 226.029331 
L 777.798405 225.936823 
L 779.580654 225.702413 
L 781.362903 225.150657 
L 783.145153 223.945229 
L 784.927402 221.503407 
L 786.709651 216.923084 
L 788.491901 208.980946 
L 790.27415 196.280372 
L 792.0564 177.610836 
L 793.838649 152.504009 
L 795.620898 121.842825 
L 797.403148 88.255933 
L 799.185397 56.003856 
L 800.967646 30.20561 
L 802.749896 15.543292 
L 804.532145 14.88 
L 806.314395 28.348476 
L 808.096644 53.307813 
L 809.878893 85.18757 
L 811.661143 118.849729 
L 813.443392 149.913664 
L 815.225641 175.58776 
L 817.007891 194.84064 
L 818.79014 208.041703 
L 820.57239 216.359136 
L 822.354639 221.190887 
L 824.136888 223.785061 
L 825.919138 225.074624 
L 827.701387 225.668944 
L 829.483636 225.923148 
L 831.265886 226.024141 
L 833.048135 226.061434 
L 834.830384 226.074241 
L 836.612634 226.078333 
L 838.394883 226.07955 
L 840.177133 226.079886 
L 841.959382 226.079973 
L 843.741631 226.079994 
L 845.523881 226.079999 
L 847.30613 226.08 
L 849.088379 226.08 
L 850.870629 226.08 
L 852.652878 226.08 
L 854.435128 226.08 
L 856.217377 226.08 
L 857.999626 226.08 
L 859.781876 226.08 
L 861.564125 226.08 
L 863.346374 226.08 
L 865.128624 226.08 
L 866.910873 226.08 
L 868.693123 226.08 
L 870.475372 226.08 
L 872.257621 226.08 
L 874.039871 226.08 
L 875.82212 226.08 
L 877.604369 226.08 
L 879.386619 226.08 
L 881.168868 226.08 
L 882.951117 226.08 
L 884.733367 226.08 
L 886.515616 226.08 
L 888.297866 226.08 
" clip-path="url(#p2d62f98631)" style="fill: none"/>
   </g>
   <g id="line2d_45">
    <path d="M 798.891791 226.08 
L 798.891791 4.32 
" clip-path="url(#p2d62f98631)" style="fill: none; stroke-dasharray: 5.55,2.4; stroke-dashoffset: 0; stroke: #000000; stroke-width: 1.5"/>
   </g>
   <g id="patch_18">
    <path d="M 703.033043 226.08 
L 703.033043 4.32 
" style="fill: none; stroke: #000000; stroke-width: 0.8; stroke-linejoin: miter; stroke-linecap: square"/>
   </g>
   <g id="patch_19">
    <path d="M 897.12 226.08 
L 897.12 4.32 
" style="fill: none; stroke: #000000; stroke-width: 0.8; stroke-linejoin: miter; stroke-linecap: square"/>
   </g>
   <g id="patch_20">
    <path d="M 703.033043 226.08 
L 897.12 226.08 
" style="fill: none; stroke: #000000; stroke-width: 0.8; stroke-linejoin: miter; stroke-linecap: square"/>
   </g>
   <g id="patch_21">
    <path d="M 703.033043 4.32 
L 897.12 4.32 
" style="fill: none; stroke: #000000; stroke-width: 0.8; stroke-linejoin: miter; stroke-linecap: square"/>
   </g>
   <g id="legend_1">
    <g id="patch_22">
     <path d="M 908.32 195.96114 
L 1051.558857 195.96114 
Q 1054.758857 195.96114 1054.758857 192.76114 
L 1054.758857 126.4 
Q 1054.758857 123.2 1051.558857 123.2 
L 908.32 123.2 
Q 905.12 123.2 905.12 126.4 
L 905.12 192.76114 
Q 905.12 195.96114 908.32 195.96114 
z
" style="fill: #ffffff; opacity: 0.8; stroke: #cccccc; stroke-linejoin: miter"/>
    </g>
    <g id="line2d_46">
     <path d="M 911.52 135.2 
L 927.52 135.2 
L 943.52 135.2 
" style="fill: none; stroke-dasharray: 5.55,2.4; stroke-dashoffset: 0; stroke: #000000; stroke-width: 1.5"/>
    </g>
    <g id="text_5">
     <!-- Truth -->
     <g transform="translate(956.32 140.8) scale(0.16 -0.16)">
      <defs>
       <path id="NimbusRomNo9L-Regu-54" d="M 1626 3955 
L 1626 765 
C 1626 223 1555 153 1024 121 
L 1024 0 
L 2893 0 
L 2893 121 
C 2368 147 2278 230 2278 695 
L 2278 3955 
L 2624 3955 
C 3354 3955 3494 3840 3642 3138 
L 3795 3138 
L 3757 4224 
L 147 4224 
L 109 3138 
L 262 3138 
C 416 3834 563 3955 1280 3955 
L 1626 3955 
z
" transform="scale(0.015625)"/>
       <path id="NimbusRomNo9L-Regu-72" d="M 45 2496 
C 134 2515 192 2521 269 2521 
C 429 2521 486 2419 486 2137 
L 486 537 
C 486 217 442 172 32 96 
L 32 0 
L 1568 0 
L 1568 96 
C 1133 115 1024 211 1024 576 
L 1024 2016 
C 1024 2220 1299 2540 1472 2540 
C 1510 2540 1568 2508 1638 2444 
C 1741 2355 1811 2316 1894 2316 
C 2048 2316 2144 2425 2144 2604 
C 2144 2815 2010 2944 1792 2944 
C 1523 2944 1338 2796 1024 2342 
L 1024 2931 
L 992 2944 
C 653 2803 422 2720 45 2598 
L 45 2496 
z
" transform="scale(0.015625)"/>
       <path id="NimbusRomNo9L-Regu-75" d="M 3066 319 
L 3034 319 
C 2739 319 2669 390 2669 684 
L 2669 2880 
L 1658 2880 
L 1658 2771 
C 2054 2752 2131 2688 2131 2368 
L 2131 864 
C 2131 684 2099 595 2010 524 
C 1837 384 1638 307 1446 307 
C 1197 307 992 524 992 793 
L 992 2880 
L 58 2880 
L 58 2790 
C 365 2771 454 2675 454 2380 
L 454 768 
C 454 262 762 -64 1229 -64 
C 1466 -64 1715 38 1888 211 
L 2163 486 
L 2163 -45 
L 2189 -64 
C 2509 64 2739 134 3066 224 
L 3066 319 
z
" transform="scale(0.015625)"/>
       <path id="NimbusRomNo9L-Regu-74" d="M 1632 2880 
L 986 2880 
L 986 3622 
C 986 3686 979 3705 941 3705 
C 896 3648 858 3590 813 3526 
C 570 3174 294 2867 192 2841 
C 122 2796 83 2751 83 2719 
C 83 2700 90 2687 109 2675 
L 448 2675 
L 448 748 
C 448 211 640 -64 1018 -64 
C 1331 -64 1574 89 1786 422 
L 1702 492 
C 1568 332 1459 268 1318 268 
C 1082 268 986 441 986 844 
L 986 2675 
L 1632 2675 
L 1632 2880 
z
" transform="scale(0.015625)"/>
       <path id="NimbusRomNo9L-Regu-68" d="M 1005 2195 
C 1274 2489 1466 2598 1715 2598 
C 2035 2598 2195 2368 2195 1920 
L 2195 652 
C 2195 217 2131 134 1760 96 
L 1760 0 
L 3117 0 
L 3117 96 
C 2771 160 2733 211 2733 652 
L 2733 1926 
C 2733 2598 2464 2944 1946 2944 
C 1568 2944 1299 2790 1005 2406 
L 1005 4352 
L 973 4371 
C 755 4294 595 4243 237 4140 
L 64 4089 
L 64 3987 
C 90 3993 109 3993 141 3993 
C 416 3993 467 3942 467 3667 
L 467 652 
C 467 204 429 147 58 96 
L 58 0 
L 1440 0 
L 1440 96 
C 1069 134 1005 211 1005 652 
L 1005 2195 
z
" transform="scale(0.015625)"/>
      </defs>
      <use xlink:href="#NimbusRomNo9L-Regu-54" transform="scale(0.996264)"/>
      <use xlink:href="#NimbusRomNo9L-Regu-72" transform="translate(57.384828 0) scale(0.996264)"/>
      <use xlink:href="#NimbusRomNo9L-Regu-75" transform="translate(90.560438 0) scale(0.996264)"/>
      <use xlink:href="#NimbusRomNo9L-Regu-74" transform="translate(140.373639 0) scale(0.996264)"/>
      <use xlink:href="#NimbusRomNo9L-Regu-68" transform="translate(168.069766 0) scale(0.996264)"/>
     </g>
    </g>
    <g id="line2d_47">
     <path d="M 911.52 157.843082 
L 927.52 157.843082 
L 943.52 157.843082 
" style="fill: none; stroke-dasharray: 1.5,2.475; stroke-dashoffset: 0; stroke: #1f77b4; stroke-width: 1.5"/>
    </g>
    <g id="text_6">
     <!-- Noisy data -->
     <g transform="translate(956.32 163.443082) scale(0.16 -0.16)">
      <defs>
       <path id="NimbusRomNo9L-Regu-4e" d="M 3917 -64 
L 3917 3287 
C 3917 3669 3981 3905 4102 3988 
C 4192 4051 4282 4077 4525 4102 
L 4525 4224 
L 3021 4224 
L 3021 4102 
C 3264 4083 3354 4058 3450 4000 
C 3578 3911 3635 3682 3635 3287 
L 3635 1140 
L 1171 4224 
L 77 4224 
L 77 4102 
C 352 4102 442 4051 698 3752 
L 698 943 
C 698 281 608 160 77 121 
L 77 0 
L 1581 0 
L 1581 121 
C 1088 147 979 294 979 940 
L 979 3449 
L 3808 -64 
L 3917 -64 
z
" transform="scale(0.015625)"/>
       <path id="NimbusRomNo9L-Regu-6f" d="M 1600 2944 
C 768 2944 186 2329 186 1446 
C 186 582 781 -64 1587 -64 
C 2394 -64 3008 614 3008 1497 
C 3008 2336 2419 2944 1600 2944 
z
M 1517 2764 
C 2054 2764 2432 2150 2432 1273 
C 2432 550 2144 115 1664 115 
C 1414 115 1178 268 1043 524 
C 864 857 762 1305 762 1760 
C 762 2368 1062 2764 1517 2764 
z
" transform="scale(0.015625)"/>
       <path id="NimbusRomNo9L-Regu-69" d="M 1120 2944 
L 128 2592 
L 128 2496 
L 179 2502 
C 256 2515 339 2521 397 2521 
C 550 2521 608 2419 608 2137 
L 608 652 
C 608 192 544 121 102 96 
L 102 0 
L 1619 0 
L 1619 96 
C 1197 128 1146 192 1146 652 
L 1146 2924 
L 1120 2944 
z
M 819 4352 
C 646 4352 499 4204 499 4025 
C 499 3846 640 3699 819 3699 
C 1005 3699 1152 3839 1152 4025 
C 1152 4204 1005 4352 819 4352 
z
" transform="scale(0.015625)"/>
       <path id="NimbusRomNo9L-Regu-73" d="M 2016 2009 
L 1990 2880 
L 1920 2880 
L 1907 2867 
C 1850 2822 1843 2815 1818 2815 
C 1779 2815 1715 2828 1645 2860 
C 1504 2918 1363 2944 1197 2944 
C 691 2944 326 2617 326 2155 
C 326 1796 531 1539 1075 1231 
L 1446 1019 
C 1670 891 1779 737 1779 538 
C 1779 256 1574 76 1248 76 
C 1030 76 832 160 710 301 
C 576 461 518 609 435 974 
L 333 974 
L 333 -26 
L 416 -26 
C 461 38 486 51 563 51 
C 621 51 710 38 858 0 
C 1037 -39 1210 -64 1325 -64 
C 1818 -64 2227 307 2227 756 
C 2227 1077 2074 1289 1690 1520 
L 998 1930 
C 819 2033 723 2193 723 2366 
C 723 2623 922 2803 1216 2803 
C 1581 2803 1773 2585 1920 2014 
L 2016 2009 
z
" transform="scale(0.015625)"/>
       <path id="NimbusRomNo9L-Regu-79" d="M 3040 2880 
L 2176 2880 
L 2176 2783 
C 2381 2783 2483 2726 2483 2623 
C 2483 2597 2477 2559 2458 2514 
L 1837 741 
L 1101 2366 
C 1062 2456 1037 2540 1037 2610 
C 1037 2726 1133 2771 1408 2783 
L 1408 2880 
L 90 2880 
L 90 2790 
C 256 2764 365 2694 416 2585 
L 1146 1005 
L 1165 953 
L 1261 761 
C 1440 439 1542 208 1542 112 
C 1542 15 1395 -389 1286 -582 
C 1197 -749 1056 -871 966 -871 
C 928 -871 870 -858 806 -826 
C 685 -781 576 -755 467 -755 
C 320 -755 192 -884 192 -1037 
C 192 -1248 397 -1408 666 -1408 
C 1094 -1408 1402 -1050 1747 -126 
L 2733 2495 
C 2816 2700 2886 2764 3040 2783 
L 3040 2880 
z
" transform="scale(0.015625)"/>
       <path id="NimbusRomNo9L-Regu-64" d="M 2202 -64 
L 3142 268 
L 3142 371 
C 3027 364 3014 364 2995 364 
C 2765 364 2714 435 2714 729 
L 2714 4358 
L 2682 4371 
C 2374 4262 2150 4198 1741 4089 
L 1741 3987 
C 1792 3993 1830 3993 1882 3993 
C 2118 3993 2176 3929 2176 3667 
L 2176 2668 
C 1933 2873 1760 2944 1504 2944 
C 768 2944 173 2220 173 1312 
C 173 492 653 -64 1357 -64 
C 1715 -64 1958 64 2176 364 
L 2176 -45 
L 2202 -64 
z
M 2176 652 
C 2176 608 2131 531 2067 460 
C 1952 332 1792 268 1606 268 
C 1075 268 723 780 723 1568 
C 723 2291 1037 2764 1523 2764 
C 1862 2764 2176 2464 2176 2124 
L 2176 652 
z
" transform="scale(0.015625)"/>
       <path id="NimbusRomNo9L-Regu-61" d="M 2829 422 
C 2720 332 2643 300 2547 300 
C 2400 300 2355 390 2355 672 
L 2355 1920 
C 2355 2252 2323 2438 2227 2592 
C 2086 2822 1811 2944 1434 2944 
C 832 2944 358 2630 358 2227 
C 358 2080 486 1952 634 1952 
C 787 1952 922 2080 922 2220 
C 922 2246 915 2278 909 2323 
C 896 2380 890 2432 890 2476 
C 890 2649 1094 2790 1350 2790 
C 1664 2790 1837 2604 1837 2259 
L 1837 1868 
C 851 1472 742 1420 467 1177 
C 326 1049 237 832 237 620 
C 237 217 518 -64 909 -64 
C 1190 -64 1453 70 1843 403 
C 1875 70 1990 -64 2253 -64 
C 2470 -64 2605 12 2829 256 
L 2829 422 
z
M 1837 787 
C 1837 588 1805 531 1670 454 
C 1517 364 1338 307 1203 307 
C 979 307 800 524 800 800 
L 800 825 
C 800 1203 1062 1433 1837 1715 
L 1837 787 
z
" transform="scale(0.015625)"/>
      </defs>
      <use xlink:href="#NimbusRomNo9L-Regu-4e" transform="scale(0.996264)"/>
      <use xlink:href="#NimbusRomNo9L-Regu-6f" transform="translate(71.930274 0) scale(0.996264)"/>
      <use xlink:href="#NimbusRomNo9L-Regu-69" transform="translate(121.743474 0) scale(0.996264)"/>
      <use xlink:href="#NimbusRomNo9L-Regu-73" transform="translate(149.439601 0) scale(0.996264)"/>
      <use xlink:href="#NimbusRomNo9L-Regu-79" transform="translate(188.194265 0) scale(0.996264)"/>
      <use xlink:href="#NimbusRomNo9L-Regu-64" transform="translate(262.914066 0) scale(0.996264)"/>
      <use xlink:href="#NimbusRomNo9L-Regu-61" transform="translate(312.727267 0) scale(0.996264)"/>
      <use xlink:href="#NimbusRomNo9L-Regu-74" transform="translate(356.961413 0) scale(0.996264)"/>
      <use xlink:href="#NimbusRomNo9L-Regu-61" transform="translate(384.65754 0) scale(0.996264)"/>
     </g>
    </g>
    <g id="line2d_48">
     <path d="M 911.52 180.518058 
L 927.52 180.518058 
L 943.52 180.518058 
" style="fill: none; stroke-dasharray: 5.55,2.4; stroke-dashoffset: 0; stroke: #ff7f0e; stroke-width: 1.5"/>
    </g>
    <g id="text_7">
     <!-- Improved data -->
     <g transform="translate(956.32 186.118058) scale(0.16 -0.16)">
      <defs>
       <path id="NimbusRomNo9L-Regu-49" d="M 736 695 
C 736 217 653 140 115 121 
L 115 0 
L 2016 0 
L 2016 121 
C 1491 140 1389 230 1389 695 
L 1389 3528 
C 1389 3994 1478 4077 2016 4102 
L 2016 4224 
L 115 4224 
L 115 4102 
C 659 4070 736 4000 736 3528 
L 736 695 
z
" transform="scale(0.015625)"/>
       <path id="NimbusRomNo9L-Regu-6d" d="M 122 2547 
C 205 2566 256 2572 326 2572 
C 493 2572 550 2470 550 2163 
L 550 544 
C 550 198 461 102 102 96 
L 102 0 
L 1523 0 
L 1523 96 
C 1184 108 1088 179 1088 428 
L 1088 2233 
C 1088 2246 1139 2310 1184 2355 
C 1344 2502 1619 2611 1843 2611 
C 2125 2611 2266 2387 2266 1939 
L 2266 550 
C 2266 192 2195 121 1830 96 
L 1830 0 
L 3264 0 
L 3264 96 
C 2899 102 2803 211 2803 608 
L 2803 2220 
C 2995 2496 3206 2611 3501 2611 
C 3866 2611 3981 2438 3981 1907 
L 3981 556 
C 3981 192 3930 140 3558 96 
L 3558 0 
L 4960 0 
L 4960 96 
L 4794 108 
C 4602 121 4518 236 4518 486 
L 4518 1804 
C 4518 2560 4269 2944 3776 2944 
C 3405 2944 3078 2777 2733 2406 
C 2618 2771 2400 2944 2054 2944 
C 1773 2944 1594 2854 1062 2451 
L 1062 2931 
L 1018 2944 
C 691 2822 474 2751 122 2655 
L 122 2547 
z
" transform="scale(0.015625)"/>
       <path id="NimbusRomNo9L-Regu-70" d="M 58 2515 
C 115 2521 160 2521 218 2521 
C 435 2521 480 2457 480 2157 
L 480 -839 
C 480 -1172 410 -1242 32 -1280 
L 32 -1389 
L 1581 -1389 
L 1581 -1280 
C 1101 -1274 1018 -1203 1018 -798 
L 1018 211 
C 1242 0 1395 -64 1664 -64 
C 2419 -64 3008 652 3008 1580 
C 3008 2374 2560 2944 1939 2944 
C 1581 2944 1299 2783 1018 2438 
L 1018 2931 
L 979 2944 
C 634 2809 410 2726 58 2617 
L 58 2515 
z
M 1018 2137 
C 1018 2329 1376 2559 1670 2559 
C 2144 2559 2458 2073 2458 1331 
C 2458 620 2144 140 1683 140 
C 1382 140 1018 371 1018 563 
L 1018 2137 
z
" transform="scale(0.015625)"/>
       <path id="NimbusRomNo9L-Regu-76" d="M 3053 2880 
L 2163 2880 
L 2163 2783 
C 2368 2764 2464 2701 2464 2580 
C 2464 2517 2451 2454 2426 2390 
L 1792 748 
L 1139 2371 
C 1101 2460 1082 2549 1082 2606 
C 1082 2720 1152 2764 1376 2783 
L 1376 2880 
L 122 2880 
L 122 2783 
C 365 2771 410 2707 704 2054 
L 1472 235 
C 1485 197 1504 152 1523 102 
C 1562 -13 1600 -64 1638 -64 
C 1677 -64 1722 19 1818 254 
L 2637 2289 
C 2822 2720 2861 2764 3053 2783 
L 3053 2880 
z
" transform="scale(0.015625)"/>
       <path id="NimbusRomNo9L-Regu-65" d="M 2611 1052 
C 2304 564 2029 377 1619 377 
C 1254 377 979 564 794 930 
C 678 1174 634 1386 621 1779 
L 2592 1779 
C 2541 2193 2477 2377 2317 2580 
C 2125 2809 1830 2944 1498 2944 
C 1178 2944 877 2828 634 2612 
C 333 2351 160 1900 160 1374 
C 160 486 621 -64 1357 -64 
C 1965 -64 2445 313 2714 1007 
L 2611 1052 
z
M 634 1984 
C 704 2478 922 2713 1312 2713 
C 1702 2713 1856 2535 1939 1984 
L 634 1984 
z
" transform="scale(0.015625)"/>
      </defs>
      <use xlink:href="#NimbusRomNo9L-Regu-49" transform="scale(0.996264)"/>
      <use xlink:href="#NimbusRomNo9L-Regu-6d" transform="translate(33.17561 0) scale(0.996264)"/>
      <use xlink:href="#NimbusRomNo9L-Regu-70" transform="translate(110.684938 0) scale(0.996264)"/>
      <use xlink:href="#NimbusRomNo9L-Regu-72" transform="translate(160.498138 0) scale(0.996264)"/>
      <use xlink:href="#NimbusRomNo9L-Regu-6f" transform="translate(193.673748 0) scale(0.996264)"/>
      <use xlink:href="#NimbusRomNo9L-Regu-76" transform="translate(241.992507 0) scale(0.996264)"/>
      <use xlink:href="#NimbusRomNo9L-Regu-65" transform="translate(290.311266 0) scale(0.996264)"/>
      <use xlink:href="#NimbusRomNo9L-Regu-64" transform="translate(334.545412 0) scale(0.996264)"/>
      <use xlink:href="#NimbusRomNo9L-Regu-64" transform="translate(409.265213 0) scale(0.996264)"/>
      <use xlink:href="#NimbusRomNo9L-Regu-61" transform="translate(459.078413 0) scale(0.996264)"/>
      <use xlink:href="#NimbusRomNo9L-Regu-74" transform="translate(503.31256 0) scale(0.996264)"/>
      <use xlink:href="#NimbusRomNo9L-Regu-61" transform="translate(531.008687 0) scale(0.996264)"/>
     </g>
    </g>
   </g>
  </g>
 </g>
 <defs>
  <clipPath id="p7158dbba7b">
   <rect x="4.32" y="4.32" width="194.086957" height="221.76"/>
  </clipPath>
  <clipPath id="p8fe4c390c3">
   <rect x="237.224348" y="4.32" width="194.086957" height="221.76"/>
  </clipPath>
  <clipPath id="p402adab83d">
   <rect x="470.128696" y="4.32" width="194.086957" height="221.76"/>
  </clipPath>
  <clipPath id="p2d62f98631">
   <rect x="703.033043" y="4.32" width="194.086957" height="221.76"/>
  </clipPath>
 </defs>
</svg>
