<?xml version="1.0" encoding="utf-8" standalone="no"?>
<!DOCTYPE svg PUBLIC "-//W3C//DTD SVG 1.1//EN"
  "http://www.w3.org/Graphics/SVG/1.1/DTD/svg11.dtd">
<svg xmlns:xlink="http://www.w3.org/1999/xlink" width="1066.612998pt" height="243.551558pt" viewBox="0 0 1066.612998 243.551558" xmlns="http://www.w3.org/2000/svg" version="1.1">
 <metadata>
  <rdf:RDF xmlns:dc="http://purl.org/dc/elements/1.1/" xmlns:cc="http://creativecommons.org/ns#" xmlns:rdf="http://www.w3.org/1999/02/22-rdf-syntax-ns#">
   <cc:Work>
    <dc:type rdf:resource="http://purl.org/dc/dcmitype/StillImage"/>
    <dc:date>2025-01-23T15:20:47.499218</dc:date>
    <dc:format>image/svg+xml</dc:format>
    <dc:creator>
     <cc:Agent>
      <dc:title>Matplotlib v3.9.2, https://matplotlib.org/</dc:title>
     </cc:Agent>
    </dc:creator>
   </cc:Work>
  </rdf:RDF>
 </metadata>
 <defs>
  <style type="text/css">*{stroke-linejoin: round; stroke-linecap: butt}</style>
 </defs>
 <g id="figure_1">
  <g id="patch_1">
   <path d="M 0 243.551558 
L 1066.612998 243.551558 
L 1066.612998 0 
L 0 0 
z
" style="fill: #ffffff"/>
  </g>
  <g id="axes_1">
   <g id="patch_2">
    <path d="M 1.44 242.111558 
L 195.526957 242.111558 
L 195.526957 20.351558 
L 1.44 20.351558 
z
" style="fill: #ffffff"/>
   </g>
   <g id="PolyCollection_1">
    <path d="M 86.898857 242.111558 
L 86.898857 93.445863 
L 88.681107 63.061146 
L 90.463356 40.830438 
L 92.245605 30.911558 
L 94.027855 35.265168 
L 95.810104 53.02305 
L 97.592354 80.770285 
L 99.374603 113.615743 
L 99.374603 242.111558 
L 99.374603 242.111558 
L 97.592354 242.111558 
L 95.810104 242.111558 
L 94.027855 242.111558 
L 92.245605 242.111558 
L 90.463356 242.111558 
L 88.681107 242.111558 
L 86.898857 242.111558 
z
" clip-path="url(#pb3ae4590de)" style="fill: #2ca02c; fill-opacity: 0.3"/>
   </g>
   <g id="matplotlib.axis_1">
    <g id="xtick_1">
     <g id="line2d_1"/>
    </g>
    <g id="xtick_2">
     <g id="line2d_2"/>
    </g>
    <g id="xtick_3">
     <g id="line2d_3"/>
    </g>
   </g>
   <g id="matplotlib.axis_2">
    <g id="ytick_1">
     <g id="line2d_4"/>
    </g>
    <g id="ytick_2">
     <g id="line2d_5"/>
    </g>
    <g id="ytick_3">
     <g id="line2d_6"/>
    </g>
    <g id="ytick_4">
     <g id="line2d_7"/>
    </g>
   </g>
   <g id="line2d_8">
    <path d="M 10.262134 242.090069 
L 12.044384 242.081125 
L 13.826633 242.068785 
L 15.608883 242.0519 
L 17.391132 242.028984 
L 19.173381 241.998134 
L 20.955631 241.956947 
L 22.73788 241.902409 
L 24.520129 241.830787 
L 26.302379 241.737511 
L 28.084628 241.617042 
L 29.866877 241.462753 
L 31.649127 241.26681 
L 33.431376 241.020068 
L 35.213626 240.711998 
L 36.995875 240.330645 
L 38.778124 239.862643 
L 40.560374 239.293286 
L 42.342623 238.606687 
L 44.124872 237.786016 
L 45.907122 236.813845 
L 47.689371 235.672599 
L 49.471621 234.345113 
L 51.25387 232.815299 
L 53.036119 231.068902 
L 54.818369 229.094339 
L 56.600618 226.883581 
L 58.382867 224.433051 
L 60.165117 221.744499 
L 61.947366 218.825798 
L 63.729616 215.691615 
L 65.511865 212.363907 
L 67.294114 208.872184 
L 69.076364 205.253508 
L 70.858613 201.552186 
L 72.640862 197.819134 
L 74.423112 194.110917 
L 76.205361 190.48847 
L 77.98761 187.015532 
L 79.76986 183.756846 
L 81.552109 180.776195 
L 83.334359 178.134346 
L 85.116608 175.887005 
L 86.898857 174.082867 
L 88.681107 172.761864 
L 90.463356 171.953697 
L 92.245605 171.676725 
L 94.027855 171.937273 
L 95.810104 172.729391 
L 97.592354 174.035081 
L 99.374603 175.824972 
L 101.156852 178.059427 
L 102.939102 180.689995 
L 104.721351 183.661155 
L 106.5036 186.912266 
L 108.28585 190.379606 
L 110.068099 193.998432 
L 111.850349 197.704945 
L 113.632598 201.438102 
L 115.414847 205.141183 
L 117.197097 208.763082 
L 118.979346 212.25928 
L 120.761595 215.592485 
L 122.543845 218.732956 
L 124.326094 221.658507 
L 126.108344 224.354254 
L 127.890593 226.812126 
L 129.672842 229.030197 
L 131.455092 231.011892 
L 133.237341 232.765117 
L 135.01959 234.301361 
L 136.80184 235.63481 
L 138.584089 236.781506 
L 140.366338 237.758593 
L 142.148588 238.583641 
L 143.930837 239.274091 
L 145.713087 239.846795 
L 147.495336 240.317676 
L 149.277585 240.701476 
L 151.059835 241.011604 
L 152.842084 241.26006 
L 154.624333 241.457416 
L 156.406583 241.612857 
L 158.188832 241.734257 
L 159.971082 241.828279 
L 161.753331 241.900491 
L 163.53558 241.955493 
L 165.31783 241.997041 
L 167.100079 242.028168 
L 168.882328 242.051297 
L 170.664578 242.068342 
L 172.446827 242.080802 
L 174.229077 242.089837 
L 176.011326 242.096334 
L 177.793575 242.100969 
L 179.575825 242.104249 
L 181.358074 242.106551 
L 183.140323 242.108155 
L 184.922573 242.109262 
L 186.704822 242.110021 
" clip-path="url(#pb3ae4590de)" style="fill: none; stroke-dasharray: 1.5,2.475; stroke-dashoffset: 0; stroke: #1f77b4; stroke-width: 1.5"/>
   </g>
   <g id="line2d_9">
    <path d="M 10.262134 242.111558 
L 12.044384 242.111558 
L 13.826633 242.111558 
L 15.608883 242.111558 
L 17.391132 242.111558 
L 19.173381 242.111558 
L 20.955631 242.111558 
L 22.73788 242.111558 
L 24.520129 242.111558 
L 26.302379 242.111557 
L 28.084628 242.111555 
L 29.866877 242.11155 
L 31.649127 242.111535 
L 33.431376 242.111493 
L 35.213626 242.111379 
L 36.995875 242.111085 
L 38.778124 242.110352 
L 40.560374 242.108589 
L 42.342623 242.104508 
L 44.124872 242.095407 
L 45.907122 242.075864 
L 47.689371 242.035459 
L 49.471621 241.955037 
L 51.25387 241.800984 
L 53.036119 241.517053 
L 54.818369 241.013699 
L 56.600618 240.1557 
L 58.382867 238.750101 
L 60.165117 236.538192 
L 61.947366 233.196849 
L 63.729616 228.355423 
L 65.511865 221.633661 
L 67.294114 212.702985 
L 69.076364 201.367695 
L 70.858613 187.655008 
L 72.640862 171.895296 
L 74.423112 154.769193 
L 76.205361 137.299355 
L 77.98761 120.773115 
L 79.76986 106.597409 
L 81.552109 96.105616 
L 83.334359 90.35199 
L 85.116608 89.937265 
L 86.898857 94.905336 
L 88.681107 104.73561 
L 90.463356 118.432862 
L 92.245605 134.693139 
L 94.027855 152.107462 
L 95.810104 169.359471 
L 97.592354 185.379531 
L 99.374603 199.432895 
L 101.156852 211.137867 
L 102.939102 220.425791 
L 104.721351 227.464302 
L 106.5036 232.567404 
L 108.28585 236.112014 
L 110.068099 238.473256 
L 111.850349 239.983032 
L 113.632598 240.910238 
L 115.414847 241.457467 
L 117.197097 241.767986 
L 118.979346 241.937459 
L 120.761595 242.026449 
L 122.543845 242.07142 
L 124.326094 242.093297 
L 126.108344 242.103543 
L 127.890593 242.108164 
L 129.672842 242.110172 
L 131.455092 242.111012 
L 133.237341 242.11135 
L 135.01959 242.111482 
L 136.80184 242.111531 
L 138.584089 242.111549 
L 140.366338 242.111555 
L 142.148588 242.111557 
L 143.930837 242.111558 
L 145.713087 242.111558 
L 147.495336 242.111558 
L 149.277585 242.111558 
L 151.059835 242.111558 
L 152.842084 242.111558 
L 154.624333 242.111558 
L 156.406583 242.111558 
L 158.188832 242.111558 
L 159.971082 242.111558 
L 161.753331 242.111558 
L 163.53558 242.111558 
L 165.31783 242.111558 
L 167.100079 242.111558 
L 168.882328 242.111558 
L 170.664578 242.111558 
L 172.446827 242.111558 
L 174.229077 242.111558 
L 176.011326 242.111558 
L 177.793575 242.111558 
L 179.575825 242.111558 
L 181.358074 242.111558 
L 183.140323 242.111558 
L 184.922573 242.111558 
L 186.704822 242.111558 
" clip-path="url(#pb3ae4590de)" style="fill: none; stroke-dasharray: 5.55,2.4; stroke-dashoffset: 0; stroke: #ff7f0e; stroke-width: 1.5"/>
   </g>
   <g id="line2d_10">
    <path d="M 10.262134 242.111558 
L 12.044384 242.111558 
L 13.826633 242.111558 
L 15.608883 242.111558 
L 17.391132 242.111558 
L 19.173381 242.111558 
L 20.955631 242.111558 
L 22.73788 242.111558 
L 24.520129 242.111558 
L 26.302379 242.111558 
L 28.084628 242.111558 
L 29.866877 242.111558 
L 31.649127 242.111558 
L 33.431376 242.111558 
L 35.213626 242.111558 
L 36.995875 242.111558 
L 38.778124 242.111558 
L 40.560374 242.111558 
L 42.342623 242.111558 
L 44.124872 242.111558 
L 45.907122 242.111558 
L 47.689371 242.111558 
L 49.471621 242.111557 
L 51.25387 242.111556 
L 53.036119 242.111549 
L 54.818369 242.111518 
L 56.600618 242.111392 
L 58.382867 242.110914 
L 60.165117 242.109223 
L 61.947366 242.103649 
L 63.729616 242.086553 
L 65.511865 242.037774 
L 67.294114 241.908337 
L 69.076364 241.589115 
L 70.858613 240.857921 
L 72.640862 239.303746 
L 74.423112 236.241704 
L 76.205361 230.657755 
L 77.98761 221.250548 
L 79.76986 206.647853 
L 81.552109 185.839081 
L 83.334359 158.768176 
L 85.116608 126.896468 
L 86.898857 93.445863 
L 88.681107 63.061146 
L 90.463356 40.830438 
L 92.245605 30.911558 
L 94.027855 35.265168 
L 95.810104 53.02305 
L 97.592354 80.770285 
L 99.374603 113.615743 
L 101.156852 146.591265 
L 102.939102 175.834158 
L 104.721351 199.187731 
L 106.5036 216.164115 
L 108.28585 227.471127 
L 110.068099 234.401168 
L 111.850349 238.32136 
L 113.632598 240.372513 
L 115.414847 241.366787 
L 117.197097 241.813845 
L 118.979346 242.000478 
L 120.761595 242.072873 
L 122.543845 242.098983 
L 124.326094 242.107743 
L 126.108344 242.110477 
L 127.890593 242.111272 
L 129.672842 242.111487 
L 131.455092 242.111542 
L 133.237341 242.111554 
L 135.01959 242.111557 
L 136.80184 242.111558 
L 138.584089 242.111558 
L 140.366338 242.111558 
L 142.148588 242.111558 
L 143.930837 242.111558 
L 145.713087 242.111558 
L 147.495336 242.111558 
L 149.277585 242.111558 
L 151.059835 242.111558 
L 152.842084 242.111558 
L 154.624333 242.111558 
L 156.406583 242.111558 
L 158.188832 242.111558 
L 159.971082 242.111558 
L 161.753331 242.111558 
L 163.53558 242.111558 
L 165.31783 242.111558 
L 167.100079 242.111558 
L 168.882328 242.111558 
L 170.664578 242.111558 
L 172.446827 242.111558 
L 174.229077 242.111558 
L 176.011326 242.111558 
L 177.793575 242.111558 
L 179.575825 242.111558 
L 181.358074 242.111558 
L 183.140323 242.111558 
L 184.922573 242.111558 
L 186.704822 242.111558 
" clip-path="url(#pb3ae4590de)" style="fill: none; stroke: #2ca02c; stroke-width: 1.5; stroke-linecap: square"/>
   </g>
   <g id="line2d_11">
    <path d="M 97.870043 242.111558 
L 97.870043 20.351558 
" clip-path="url(#pb3ae4590de)" style="fill: none; stroke-dasharray: 5.55,2.4; stroke-dashoffset: 0; stroke: #000000; stroke-width: 1.5"/>
   </g>
   <g id="patch_3">
    <path d="M 1.44 242.111558 
L 1.44 20.351558 
" style="fill: none; stroke: #000000; stroke-width: 0.8; stroke-linejoin: miter; stroke-linecap: square"/>
   </g>
   <g id="patch_4">
    <path d="M 195.526957 242.111558 
L 195.526957 20.351558 
" style="fill: none; stroke: #000000; stroke-width: 0.8; stroke-linejoin: miter; stroke-linecap: square"/>
   </g>
   <g id="patch_5">
    <path d="M 1.44 242.111558 
L 195.526957 242.111558 
" style="fill: none; stroke: #000000; stroke-width: 0.8; stroke-linejoin: miter; stroke-linecap: square"/>
   </g>
   <g id="patch_6">
    <path d="M 1.44 20.351558 
L 195.526957 20.351558 
" style="fill: none; stroke: #000000; stroke-width: 0.8; stroke-linejoin: miter; stroke-linecap: square"/>
   </g>
   <g id="text_1">
    <!-- A -->
    <g transform="translate(91.578175 14.351558) scale(0.192 -0.192)">
     <defs>
      <path id="NimbusRomNo9L-Regu-41" d="M 4518 121 
C 4230 141 4166 205 3942 686 
L 2349 4288 
L 2221 4288 
L 890 1187 
C 480 238 403 134 96 121 
L 96 0 
L 1363 0 
L 1363 121 
C 1056 121 928 205 928 387 
C 928 465 947 556 979 641 
L 1274 1401 
L 2950 1401 
L 3213 777 
C 3290 602 3334 433 3334 342 
C 3334 179 3226 128 2886 121 
L 2886 0 
L 4518 0 
L 4518 121 
z
M 1382 1664 
L 2118 3392 
L 2861 1664 
L 1382 1664 
z
" transform="scale(0.015625)"/>
     </defs>
     <use xlink:href="#NimbusRomNo9L-Regu-41" transform="scale(0.996264)"/>
    </g>
   </g>
  </g>
  <g id="axes_2">
   <g id="patch_7">
    <path d="M 234.344348 242.111558 
L 428.431304 242.111558 
L 428.431304 20.351558 
L 234.344348 20.351558 
z
" style="fill: #ffffff"/>
   </g>
   <g id="PolyCollection_2">
    <path d="M 309.109709 242.111558 
L 309.109709 89.681314 
L 310.891958 66.330468 
L 312.674208 47.481632 
L 314.456457 35.200578 
L 316.238706 30.911558 
L 318.020956 35.125666 
L 319.803205 47.340675 
L 321.585455 66.139474 
L 323.367704 89.460445 
L 323.367704 242.111558 
L 323.367704 242.111558 
L 321.585455 242.111558 
L 319.803205 242.111558 
L 318.020956 242.111558 
L 316.238706 242.111558 
L 314.456457 242.111558 
L 312.674208 242.111558 
L 310.891958 242.111558 
L 309.109709 242.111558 
z
" clip-path="url(#pdbc2164372)" style="fill: #2ca02c; fill-opacity: 0.3"/>
   </g>
   <g id="matplotlib.axis_3">
    <g id="xtick_4">
     <g id="line2d_12"/>
    </g>
    <g id="xtick_5">
     <g id="line2d_13"/>
    </g>
   </g>
   <g id="matplotlib.axis_4">
    <g id="ytick_5">
     <g id="line2d_14"/>
    </g>
    <g id="ytick_6">
     <g id="line2d_15"/>
    </g>
    <g id="ytick_7">
     <g id="line2d_16"/>
    </g>
    <g id="ytick_8">
     <g id="line2d_17"/>
    </g>
    <g id="ytick_9">
     <g id="line2d_18"/>
    </g>
   </g>
   <g id="line2d_19">
    <path d="M 243.166482 242.089774 
L 244.948732 242.080984 
L 246.730981 242.06895 
L 248.51323 242.052597 
L 250.29548 242.030542 
L 252.077729 242.001021 
L 253.859978 241.961804 
L 255.642228 241.9101 
L 257.424477 241.842454 
L 259.206727 241.754623 
L 260.988976 241.641457 
L 262.771225 241.496769 
L 264.553475 241.313209 
L 266.335724 241.082137 
L 268.117973 240.793527 
L 269.900223 240.435879 
L 271.682472 239.996177 
L 273.464722 239.45989 
L 275.246971 238.811038 
L 277.02922 238.032327 
L 278.81147 237.105374 
L 280.593719 236.011022 
L 282.375968 234.729765 
L 284.158218 233.242278 
L 285.940467 231.53005 
L 287.722716 229.576124 
L 289.504966 227.36591 
L 291.287215 224.888074 
L 293.069465 222.135454 
L 294.851714 219.105974 
L 296.633963 215.803525 
L 298.416213 212.238743 
L 300.198462 208.429658 
L 301.980711 204.402154 
L 303.762961 200.190193 
L 305.54521 195.83577 
L 307.32746 191.388564 
L 309.109709 186.905263 
L 310.891958 182.448572 
L 312.674208 178.085905 
L 314.456457 173.887788 
L 316.238706 169.926042 
L 318.020956 166.271776 
L 319.803205 162.993295 
L 321.585455 160.153989 
L 323.367704 157.8103 
L 325.149953 156.009864 
L 326.932203 154.789896 
L 328.714452 154.175913 
L 330.496701 154.18085 
L 332.278951 154.804603 
L 334.0612 156.034033 
L 335.84345 157.843427 
L 337.625699 160.195394 
L 339.407948 163.042145 
L 341.190198 166.327113 
L 342.972447 169.986812 
L 344.754696 173.952877 
L 346.536946 178.154171 
L 348.319195 182.51888 
L 350.101444 186.97651 
L 351.883694 191.459713 
L 353.665943 195.905871 
L 355.448193 200.258397 
L 357.230442 204.467733 
L 359.012691 208.492009 
L 360.794941 212.297391 
L 362.57719 215.858122 
L 364.359439 219.156296 
L 366.141689 222.181387 
L 367.923938 224.929607 
L 369.706188 227.40312 
L 371.488437 229.609161 
L 373.270686 231.559122 
L 375.052936 233.267639 
L 376.835185 234.751699 
L 378.617434 236.029832 
L 380.399684 237.12137 
L 382.181933 238.045818 
L 383.964183 238.822323 
L 385.746432 239.469253 
L 387.528681 240.003883 
L 389.310931 240.442171 
L 391.09318 240.798624 
L 392.875429 241.086233 
L 394.657679 241.316474 
L 396.439928 241.499353 
L 398.222178 241.643485 
L 400.004427 241.756203 
L 401.786676 241.843675 
L 403.568926 241.911037 
L 405.351175 241.962517 
L 407.133424 242.001559 
L 408.915674 242.030946 
L 410.697923 242.052898 
L 412.480172 242.069172 
L 414.262422 242.081147 
L 416.044671 242.089892 
L 417.826921 242.096231 
L 419.60917 242.100792 
" clip-path="url(#pdbc2164372)" style="fill: none; stroke-dasharray: 1.5,2.475; stroke-dashoffset: 0; stroke: #1f77b4; stroke-width: 1.5"/>
   </g>
   <g id="line2d_20">
    <path d="M 243.166482 242.111558 
L 244.948732 242.111558 
L 246.730981 242.111558 
L 248.51323 242.111558 
L 250.29548 242.111558 
L 252.077729 242.111558 
L 253.859978 242.111558 
L 255.642228 242.111558 
L 257.424477 242.111558 
L 259.206727 242.111557 
L 260.988976 242.111556 
L 262.771225 242.111553 
L 264.553475 242.111545 
L 266.335724 242.111523 
L 268.117973 242.111465 
L 269.900223 242.111321 
L 271.682472 242.110968 
L 273.464722 242.110135 
L 275.246971 242.108237 
L 277.02922 242.104045 
L 278.81147 242.095095 
L 280.593719 242.076604 
L 282.375968 242.039656 
L 284.158218 241.968264 
L 285.940467 241.834885 
L 287.722716 241.593999 
L 289.504966 241.173554 
L 291.287215 240.464528 
L 293.069465 239.309671 
L 294.851714 237.493582 
L 296.633963 234.737528 
L 298.416213 230.703541 
L 300.198462 225.012684 
L 301.980711 217.281545 
L 303.762961 207.17835 
L 305.54521 194.49565 
L 307.32746 179.230803 
L 309.109709 161.659806 
L 310.891958 142.386259 
L 312.674208 122.347289 
L 314.456457 102.763387 
L 316.238706 85.02922 
L 318.020956 70.555712 
L 319.803205 60.586841 
L 321.585455 56.023675 
L 323.367704 57.290052 
L 325.149953 64.26765 
L 326.932203 76.314216 
L 328.714452 92.36108 
L 330.496701 111.069426 
L 332.278951 131.01368 
L 334.0612 150.857401 
L 335.84345 169.492329 
L 337.625699 186.12256 
L 339.407948 200.289459 
L 341.190198 211.845138 
L 342.972447 220.890436 
L 344.754696 227.696124 
L 346.536946 232.624333 
L 348.319195 236.062291 
L 350.101444 238.374599 
L 351.883694 239.874969 
L 353.665943 240.81466 
L 355.448193 241.382977 
L 357.230442 241.715004 
L 359.012691 241.902446 
L 360.794941 242.004725 
L 362.57719 242.058679 
L 364.359439 242.0862 
L 366.141689 242.099776 
L 367.923938 242.106255 
L 369.706188 242.109245 
L 371.488437 242.110581 
L 373.270686 242.111158 
L 375.052936 242.111399 
L 376.835185 242.111497 
L 378.617434 242.111535 
L 380.399684 242.11155 
L 382.181933 242.111555 
L 383.964183 242.111557 
L 385.746432 242.111558 
L 387.528681 242.111558 
L 389.310931 242.111558 
L 391.09318 242.111558 
L 392.875429 242.111558 
L 394.657679 242.111558 
L 396.439928 242.111558 
L 398.222178 242.111558 
L 400.004427 242.111558 
L 401.786676 242.111558 
L 403.568926 242.111558 
L 405.351175 242.111558 
L 407.133424 242.111558 
L 408.915674 242.111558 
L 410.697923 242.111558 
L 412.480172 242.111558 
L 414.262422 242.111558 
L 416.044671 242.111558 
L 417.826921 242.111558 
L 419.60917 242.111558 
" clip-path="url(#pdbc2164372)" style="fill: none; stroke-dasharray: 5.55,2.4; stroke-dashoffset: 0; stroke: #ff7f0e; stroke-width: 1.5"/>
   </g>
   <g id="line2d_21">
    <path d="M 243.166482 242.111558 
L 244.948732 242.111558 
L 246.730981 242.111558 
L 248.51323 242.111558 
L 250.29548 242.111558 
L 252.077729 242.111558 
L 253.859978 242.111558 
L 255.642228 242.111558 
L 257.424477 242.111558 
L 259.206727 242.111558 
L 260.988976 242.111557 
L 262.771225 242.111555 
L 264.553475 242.11155 
L 266.335724 242.111533 
L 268.117973 242.111481 
L 269.900223 242.111333 
L 271.682472 242.110923 
L 273.464722 242.109837 
L 275.246971 242.107082 
L 277.02922 242.100379 
L 278.81147 242.084752 
L 280.593719 242.04984 
L 282.375968 241.975121 
L 284.158218 241.821967 
L 285.940467 241.52139 
L 287.722716 240.956769 
L 289.504966 239.942025 
L 291.287215 238.198051 
L 293.069465 235.333542 
L 294.851714 230.840219 
L 296.633963 224.11519 
L 298.416213 214.522894 
L 300.198462 201.503432 
L 301.980711 184.72216 
L 303.762961 164.238567 
L 305.54521 140.65538 
L 307.32746 115.198417 
L 309.109709 89.681314 
L 310.891958 66.330468 
L 312.674208 47.481632 
L 314.456457 35.200578 
L 316.238706 30.911558 
L 318.020956 35.125666 
L 319.803205 47.340675 
L 321.585455 66.139474 
L 323.367704 89.460445 
L 325.149953 114.968506 
L 326.932203 140.434788 
L 328.714452 164.040995 
L 330.496701 184.555726 
L 332.278951 201.370921 
L 334.0612 214.422846 
L 335.84345 224.043389 
L 337.625699 230.791152 
L 339.407948 235.301571 
L 341.190198 238.178168 
L 342.972447 239.930213 
L 344.754696 240.950061 
L 346.536946 241.517747 
L 348.319195 241.820074 
L 350.101444 241.97418 
L 351.883694 242.049391 
L 353.665943 242.084547 
L 355.448193 242.10029 
L 357.230442 242.107045 
L 359.012691 242.109822 
L 360.794941 242.110917 
L 362.57719 242.111331 
L 364.359439 242.111481 
L 366.141689 242.111533 
L 367.923938 242.11155 
L 369.706188 242.111555 
L 371.488437 242.111557 
L 373.270686 242.111558 
L 375.052936 242.111558 
L 376.835185 242.111558 
L 378.617434 242.111558 
L 380.399684 242.111558 
L 382.181933 242.111558 
L 383.964183 242.111558 
L 385.746432 242.111558 
L 387.528681 242.111558 
L 389.310931 242.111558 
L 391.09318 242.111558 
L 392.875429 242.111558 
L 394.657679 242.111558 
L 396.439928 242.111558 
L 398.222178 242.111558 
L 400.004427 242.111558 
L 401.786676 242.111558 
L 403.568926 242.111558 
L 405.351175 242.111558 
L 407.133424 242.111558 
L 408.915674 242.111558 
L 410.697923 242.111558 
L 412.480172 242.111558 
L 414.262422 242.111558 
L 416.044671 242.111558 
L 417.826921 242.111558 
L 419.60917 242.111558 
" clip-path="url(#pdbc2164372)" style="fill: none; stroke: #2ca02c; stroke-width: 1.5; stroke-linecap: square"/>
   </g>
   <g id="line2d_22">
    <path d="M 314.258063 242.111558 
L 314.258063 20.351558 
" clip-path="url(#pdbc2164372)" style="fill: none; stroke-dasharray: 5.55,2.4; stroke-dashoffset: 0; stroke: #000000; stroke-width: 1.5"/>
   </g>
   <g id="patch_8">
    <path d="M 234.344348 242.111558 
L 234.344348 20.351558 
" style="fill: none; stroke: #000000; stroke-width: 0.8; stroke-linejoin: miter; stroke-linecap: square"/>
   </g>
   <g id="patch_9">
    <path d="M 428.431304 242.111558 
L 428.431304 20.351558 
" style="fill: none; stroke: #000000; stroke-width: 0.8; stroke-linejoin: miter; stroke-linecap: square"/>
   </g>
   <g id="patch_10">
    <path d="M 234.344348 242.111558 
L 428.431304 242.111558 
" style="fill: none; stroke: #000000; stroke-width: 0.8; stroke-linejoin: miter; stroke-linecap: square"/>
   </g>
   <g id="patch_11">
    <path d="M 234.344348 20.351558 
L 428.431304 20.351558 
" style="fill: none; stroke: #000000; stroke-width: 0.8; stroke-linejoin: miter; stroke-linecap: square"/>
   </g>
   <g id="text_2">
    <!-- f -->
    <g transform="translate(328.202969 14.351558) scale(0.192 -0.192)">
     <defs>
      <path id="NimbusRomNo9L-Regu-66" d="M 1978 2880 
L 1190 2880 
L 1190 3611 
C 1190 3977 1312 4172 1555 4172 
C 1690 4172 1779 4109 1894 3926 
C 1997 3762 2074 3699 2182 3699 
C 2330 3699 2451 3813 2451 3958 
C 2451 4185 2170 4352 1786 4352 
C 1389 4352 1050 4179 883 3889 
C 717 3611 666 3384 659 2880 
L 134 2880 
L 134 2675 
L 659 2675 
L 659 665 
C 659 198 589 121 128 96 
L 128 0 
L 1792 0 
L 1792 96 
C 1267 115 1197 185 1197 665 
L 1197 2675 
L 1978 2675 
L 1978 2880 
z
" transform="scale(0.015625)"/>
     </defs>
     <use xlink:href="#NimbusRomNo9L-Regu-66" transform="scale(0.996264)"/>
    </g>
   </g>
  </g>
  <g id="axes_3">
   <g id="patch_12">
    <path d="M 467.248696 242.111558 
L 661.335652 242.111558 
L 661.335652 20.351558 
L 467.248696 20.351558 
z
" style="fill: #ffffff"/>
   </g>
   <g id="PolyCollection_3">
    <path d="M 574.094545 242.111558 
L 574.094545 85.418676 
L 575.876795 50.540981 
L 577.659044 30.911558 
L 579.441294 32.147678 
L 581.223543 53.885029 
L 583.005792 89.950806 
L 583.005792 242.111558 
L 583.005792 242.111558 
L 581.223543 242.111558 
L 579.441294 242.111558 
L 577.659044 242.111558 
L 575.876795 242.111558 
L 574.094545 242.111558 
z
" clip-path="url(#p9393a036af)" style="fill: #2ca02c; fill-opacity: 0.3"/>
   </g>
   <g id="matplotlib.axis_5">
    <g id="xtick_6">
     <g id="line2d_23"/>
    </g>
    <g id="xtick_7">
     <g id="line2d_24"/>
    </g>
    <g id="xtick_8">
     <g id="line2d_25"/>
    </g>
   </g>
   <g id="matplotlib.axis_6">
    <g id="ytick_10">
     <g id="line2d_26"/>
    </g>
    <g id="ytick_11">
     <g id="line2d_27"/>
    </g>
    <g id="ytick_12">
     <g id="line2d_28"/>
    </g>
    <g id="ytick_13">
     <g id="line2d_29"/>
    </g>
   </g>
   <g id="line2d_30">
    <path d="M 476.07083 242.109921 
L 477.853079 242.109158 
L 479.635329 242.108064 
L 481.417578 242.106508 
L 483.199828 242.10431 
L 484.982077 242.10123 
L 486.764326 242.096945 
L 488.546576 242.09103 
L 490.328825 242.082927 
L 492.111074 242.071908 
L 493.893324 242.057041 
L 495.675573 242.037132 
L 497.457822 242.010676 
L 499.240072 241.97579 
L 501.022321 241.930141 
L 502.804571 241.870869 
L 504.58682 241.794507 
L 506.369069 241.696892 
L 508.151319 241.573085 
L 509.933568 241.417292 
L 511.715817 241.222798 
L 513.498067 240.981921 
L 515.280316 240.685983 
L 517.062566 240.325329 
L 518.844815 239.889371 
L 520.627064 239.366698 
L 522.409314 238.745232 
L 524.191563 238.012459 
L 525.973812 237.155722 
L 527.756062 236.162589 
L 529.538311 235.021289 
L 531.320561 233.721208 
L 533.10281 232.253448 
L 534.885059 230.611408 
L 536.667309 228.791391 
L 538.449558 226.793205 
L 540.231807 224.620714 
L 542.014057 222.282334 
L 543.796306 219.791417 
L 545.578556 217.166504 
L 547.360805 214.431422 
L 549.143054 211.61518 
L 550.925304 208.751671 
L 552.707553 205.879153 
L 554.489802 203.039524 
L 556.272052 200.277388 
L 558.054301 197.638954 
L 559.83655 195.170785 
L 561.6188 192.918459 
L 563.401049 190.92518 
L 565.183299 189.230407 
L 566.965548 187.868563 
L 568.747797 186.867866 
L 570.530047 186.249362 
L 572.312296 186.026189 
L 574.094545 186.203111 
L 575.876795 186.776349 
L 577.659044 187.733718 
L 579.441294 189.055056 
L 581.223543 190.712926 
L 583.005792 192.673572 
L 584.788042 194.898052 
L 586.570291 197.343526 
L 588.35254 199.96462 
L 590.13479 202.714814 
L 591.917039 205.547794 
L 593.699289 208.418708 
L 595.481538 211.285297 
L 597.263787 214.108836 
L 599.046037 216.854899 
L 600.828286 219.49389 
L 602.610535 222.001375 
L 604.392785 224.3582 
L 606.175034 226.550424 
L 607.957284 228.569076 
L 609.739533 230.409788 
L 611.521782 232.072311 
L 613.304032 233.559966 
L 615.086281 234.879048 
L 616.86853 236.03822 
L 618.65078 237.047927 
L 620.433029 237.919831 
L 622.215278 238.666312 
L 623.997528 239.300022 
L 625.779777 239.833507 
L 627.562027 240.278908 
L 629.344276 240.647724 
L 631.126525 240.950643 
L 632.908775 241.197434 
L 634.691024 241.396887 
L 636.473273 241.5568 
L 638.255523 241.683998 
L 640.037772 241.784378 
L 641.820022 241.862974 
L 643.602271 241.924034 
L 645.38452 241.971104 
L 647.16677 242.007108 
L 648.949019 242.034435 
L 650.731268 242.055019 
L 652.513518 242.070404 
" clip-path="url(#p9393a036af)" style="fill: none; stroke-dasharray: 1.5,2.475; stroke-dashoffset: 0; stroke: #1f77b4; stroke-width: 1.5"/>
   </g>
   <g id="line2d_31">
    <path d="M 476.07083 242.111558 
L 477.853079 242.111558 
L 479.635329 242.111558 
L 481.417578 242.111558 
L 483.199828 242.111558 
L 484.982077 242.111558 
L 486.764326 242.111558 
L 488.546576 242.111558 
L 490.328825 242.111558 
L 492.111074 242.111558 
L 493.893324 242.111558 
L 495.675573 242.111558 
L 497.457822 242.111558 
L 499.240072 242.111558 
L 501.022321 242.111558 
L 502.804571 242.111558 
L 504.58682 242.111558 
L 506.369069 242.111558 
L 508.151319 242.111558 
L 509.933568 242.111558 
L 511.715817 242.111558 
L 513.498067 242.111558 
L 515.280316 242.111557 
L 517.062566 242.111555 
L 518.844815 242.111548 
L 520.627064 242.111531 
L 522.409314 242.111483 
L 524.191563 242.111362 
L 525.973812 242.111058 
L 527.756062 242.110328 
L 529.538311 242.108633 
L 531.320561 242.104833 
L 533.10281 242.096611 
L 534.885059 242.079442 
L 536.667309 242.044856 
L 538.449558 241.977641 
L 540.231807 241.851663 
L 542.014057 241.623996 
L 543.796306 241.227402 
L 545.578556 240.561686 
L 547.360805 239.485338 
L 549.143054 237.809915 
L 550.925304 235.300639 
L 552.707553 231.6873 
L 554.489802 226.689134 
L 556.272052 220.055485 
L 558.054301 211.62055 
L 559.83655 201.365703 
L 561.6188 189.477949 
L 563.401049 176.389535 
L 565.183299 162.783512 
L 566.965548 149.554265 
L 568.747797 137.72067 
L 570.530047 128.300989 
L 572.312296 122.169731 
L 574.094545 119.924057 
L 575.876795 121.787918 
L 577.659044 127.575245 
L 579.441294 136.720565 
L 581.223543 148.370069 
L 583.005792 161.512816 
L 584.788042 175.124218 
L 586.570291 188.293842 
L 588.35254 200.316412 
L 590.13479 210.735781 
L 591.917039 219.343227 
L 593.699289 226.140416 
L 595.481538 231.282049 
L 597.263787 235.013335 
L 599.046037 237.614188 
L 600.828286 239.357103 
L 602.610535 240.480833 
L 604.392785 241.178317 
L 606.175034 241.59529 
L 607.957284 241.835485 
L 609.739533 241.968852 
L 611.521782 242.040252 
L 613.304032 242.077117 
L 615.086281 242.095477 
L 616.86853 242.1043 
L 618.65078 242.108392 
L 620.433029 242.110223 
L 622.215278 242.111014 
L 623.997528 242.111343 
L 625.779777 242.111476 
L 627.562027 242.111528 
L 629.344276 242.111547 
L 631.126525 242.111554 
L 632.908775 242.111557 
L 634.691024 242.111557 
L 636.473273 242.111558 
L 638.255523 242.111558 
L 640.037772 242.111558 
L 641.820022 242.111558 
L 643.602271 242.111558 
L 645.38452 242.111558 
L 647.16677 242.111558 
L 648.949019 242.111558 
L 650.731268 242.111558 
L 652.513518 242.111558 
" clip-path="url(#p9393a036af)" style="fill: none; stroke-dasharray: 5.55,2.4; stroke-dashoffset: 0; stroke: #ff7f0e; stroke-width: 1.5"/>
   </g>
   <g id="line2d_32">
    <path d="M 476.07083 242.111558 
L 477.853079 242.111558 
L 479.635329 242.111558 
L 481.417578 242.111558 
L 483.199828 242.111558 
L 484.982077 242.111558 
L 486.764326 242.111558 
L 488.546576 242.111558 
L 490.328825 242.111558 
L 492.111074 242.111558 
L 493.893324 242.111558 
L 495.675573 242.111558 
L 497.457822 242.111558 
L 499.240072 242.111558 
L 501.022321 242.111558 
L 502.804571 242.111558 
L 504.58682 242.111558 
L 506.369069 242.111558 
L 508.151319 242.111558 
L 509.933568 242.111558 
L 511.715817 242.111558 
L 513.498067 242.111558 
L 515.280316 242.111558 
L 517.062566 242.111558 
L 518.844815 242.111558 
L 520.627064 242.111558 
L 522.409314 242.111558 
L 524.191563 242.111558 
L 525.973812 242.111558 
L 527.756062 242.111558 
L 529.538311 242.111558 
L 531.320561 242.111558 
L 533.10281 242.111558 
L 534.885059 242.111558 
L 536.667309 242.111558 
L 538.449558 242.111558 
L 540.231807 242.111558 
L 542.014057 242.111558 
L 543.796306 242.111557 
L 545.578556 242.111553 
L 547.360805 242.111527 
L 549.143054 242.111377 
L 550.925304 242.110618 
L 552.707553 242.107149 
L 554.489802 242.09291 
L 556.272052 242.040443 
L 558.054301 241.866999 
L 559.83655 241.353166 
L 561.6188 239.990813 
L 563.401049 236.763834 
L 565.183299 229.951515 
L 566.965548 217.177854 
L 568.747797 196.009102 
L 570.530047 165.243326 
L 572.312296 126.538848 
L 574.094545 85.418676 
L 575.876795 50.540981 
L 577.659044 30.911558 
L 579.441294 32.147678 
L 581.223543 53.885029 
L 583.005792 89.950806 
L 584.788042 131.191516 
L 586.570291 169.198893 
L 588.35254 198.891884 
L 590.13479 219.009771 
L 591.917039 230.97643 
L 593.699289 237.271724 
L 595.481538 240.214628 
L 597.263787 241.441121 
L 599.046037 241.897885 
L 600.828286 242.05015 
L 602.610535 242.095643 
L 604.392785 242.107839 
L 606.175034 242.110774 
L 607.957284 242.111409 
L 609.739533 242.111532 
L 611.521782 242.111554 
L 613.304032 242.111557 
L 615.086281 242.111558 
L 616.86853 242.111558 
L 618.65078 242.111558 
L 620.433029 242.111558 
L 622.215278 242.111558 
L 623.997528 242.111558 
L 625.779777 242.111558 
L 627.562027 242.111558 
L 629.344276 242.111558 
L 631.126525 242.111558 
L 632.908775 242.111558 
L 634.691024 242.111558 
L 636.473273 242.111558 
L 638.255523 242.111558 
L 640.037772 242.111558 
L 641.820022 242.111558 
L 643.602271 242.111558 
L 645.38452 242.111558 
L 647.16677 242.111558 
L 648.949019 242.111558 
L 650.731268 242.111558 
L 652.513518 242.111558 
" clip-path="url(#p9393a036af)" style="fill: none; stroke: #2ca02c; stroke-width: 1.5; stroke-linecap: square"/>
   </g>
   <g id="line2d_33">
    <path d="M 580.749937 242.111558 
L 580.749937 20.351558 
" clip-path="url(#p9393a036af)" style="fill: none; stroke-dasharray: 5.55,2.4; stroke-dashoffset: 0; stroke: #000000; stroke-width: 1.5"/>
   </g>
   <g id="patch_13">
    <path d="M 467.248696 242.111558 
L 467.248696 20.351558 
" style="fill: none; stroke: #000000; stroke-width: 0.8; stroke-linejoin: miter; stroke-linecap: square"/>
   </g>
   <g id="patch_14">
    <path d="M 661.335652 242.111558 
L 661.335652 20.351558 
" style="fill: none; stroke: #000000; stroke-width: 0.8; stroke-linejoin: miter; stroke-linecap: square"/>
   </g>
   <g id="patch_15">
    <path d="M 467.248696 242.111558 
L 661.335652 242.111558 
" style="fill: none; stroke: #000000; stroke-width: 0.8; stroke-linejoin: miter; stroke-linecap: square"/>
   </g>
   <g id="patch_16">
    <path d="M 467.248696 20.351558 
L 661.335652 20.351558 
" style="fill: none; stroke: #000000; stroke-width: 0.8; stroke-linejoin: miter; stroke-linecap: square"/>
   </g>
   <g id="text_3">
    <!-- $\phi$ -->
    <g transform="translate(559.031901 14.351558) scale(0.192 -0.192)">
     <defs>
      <path id="rtxmi-1e" d="M 3360 1843 
C 3360 2310 3021 2707 2381 2790 
L 2758 4013 
L 2227 3929 
L 1939 2784 
C 934 2681 154 1849 154 902 
C 154 428 410 -45 1229 -90 
L 928 -1344 
L 1088 -1344 
L 1485 -84 
C 2534 0 3360 896 3360 1843 
z
M 2848 1894 
C 2848 806 2170 147 1542 89 
L 2317 2592 
C 2758 2432 2848 2054 2848 1894 
z
M 1894 2611 
L 1274 102 
C 845 224 691 614 691 883 
C 691 1868 1229 2521 1894 2611 
z
" transform="scale(0.015625)"/>
     </defs>
     <use xlink:href="#rtxmi-1e" transform="scale(0.996264)"/>
    </g>
   </g>
  </g>
  <g id="axes_4">
   <g id="patch_17">
    <path d="M 700.153043 242.111558 
L 894.24 242.111558 
L 894.24 20.351558 
L 700.153043 20.351558 
z
" style="fill: #ffffff"/>
   </g>
   <g id="PolyCollection_4">
    <path d="M 794.523148 242.111558 
L 794.523148 104.287491 
L 796.305397 72.035414 
L 798.087646 46.237168 
L 799.869896 31.57485 
L 801.652145 30.911558 
L 803.434395 44.380033 
L 805.216644 69.339371 
L 806.998893 101.219128 
L 806.998893 242.111558 
L 806.998893 242.111558 
L 805.216644 242.111558 
L 803.434395 242.111558 
L 801.652145 242.111558 
L 799.869896 242.111558 
L 798.087646 242.111558 
L 796.305397 242.111558 
L 794.523148 242.111558 
z
" clip-path="url(#p99f183003e)" style="fill: #2ca02c; fill-opacity: 0.3"/>
   </g>
   <g id="matplotlib.axis_7">
    <g id="xtick_9">
     <g id="line2d_34"/>
    </g>
    <g id="xtick_10">
     <g id="line2d_35"/>
    </g>
    <g id="xtick_11">
     <g id="line2d_36"/>
    </g>
   </g>
   <g id="matplotlib.axis_8">
    <g id="ytick_14">
     <g id="line2d_37"/>
    </g>
    <g id="ytick_15">
     <g id="line2d_38"/>
    </g>
    <g id="ytick_16">
     <g id="line2d_39"/>
    </g>
    <g id="ytick_17">
     <g id="line2d_40"/>
    </g>
    <g id="ytick_18">
     <g id="line2d_41"/>
    </g>
   </g>
   <g id="line2d_42">
    <path d="M 708.975178 242.109922 
L 710.757427 242.10907 
L 712.539677 242.107806 
L 714.321926 242.105948 
L 716.104175 242.10324 
L 717.886425 242.099326 
L 719.668674 242.093721 
L 721.450923 242.085763 
L 723.233173 242.074565 
L 725.015422 242.058947 
L 726.797672 242.037358 
L 728.579921 242.00778 
L 730.36217 241.967619 
L 732.14442 241.913578 
L 733.926669 241.841513 
L 735.708918 241.74628 
L 737.491168 241.621573 
L 739.273417 241.459759 
L 741.055667 241.25172 
L 742.837916 240.986718 
L 744.620165 240.652283 
L 746.402415 240.234165 
L 748.184664 239.71634 
L 749.966913 239.081112 
L 751.749163 238.309314 
L 753.531412 237.380643 
L 755.313662 236.274122 
L 757.095911 234.968719 
L 758.87816 233.444107 
L 760.66041 231.681571 
L 762.442659 229.66504 
L 764.224908 227.3822 
L 766.007158 224.825677 
L 767.789407 221.994197 
L 769.571656 218.893692 
L 771.353906 215.538264 
L 773.136155 211.950939 
L 774.918405 208.164127 
L 776.700654 204.219747 
L 778.482903 200.168933 
L 780.265153 196.071312 
L 782.047402 191.993821 
L 783.829651 188.009091 
L 785.611901 184.193437 
L 787.39415 180.624508 
L 789.1764 177.378722 
L 790.958649 174.528567 
L 792.740898 172.139932 
L 794.523148 170.269574 
L 796.305397 168.962885 
L 798.087646 168.252055 
L 799.869896 168.15476 
L 801.652145 168.673428 
L 803.434395 169.795139 
L 805.216644 171.492162 
L 806.998893 173.723089 
L 808.781143 176.434521 
L 810.563392 179.563186 
L 812.345641 183.038391 
L 814.127891 186.784663 
L 815.91014 190.724456 
L 817.69239 194.780769 
L 819.474639 198.879576 
L 821.256888 202.951949 
L 823.039138 206.93581 
L 824.821387 210.777249 
L 826.603636 214.431392 
L 828.385886 217.862826 
L 830.168135 221.045601 
L 831.950384 223.962874 
L 833.732634 226.606234 
L 835.514883 228.974795 
L 837.297133 231.074135 
L 839.079382 232.915138 
L 840.861631 234.512816 
L 842.643881 235.885168 
L 844.42613 237.052114 
L 846.208379 238.034555 
L 847.990629 238.853558 
L 849.772878 239.529696 
L 851.555128 240.082537 
L 853.337377 240.530266 
L 855.119626 240.889451 
L 856.901876 241.174906 
L 858.684125 241.399658 
L 860.466374 241.574981 
L 862.248624 241.710492 
L 864.030873 241.814273 
L 865.813123 241.893033 
L 867.595372 241.952264 
L 869.377621 241.996406 
L 871.159871 242.029008 
L 872.94212 242.052873 
L 874.724369 242.070185 
L 876.506619 242.082633 
L 878.288868 242.091504 
L 880.071117 242.09777 
L 881.853367 242.102157 
L 883.635616 242.105201 
L 885.417866 242.107296 
" clip-path="url(#p99f183003e)" style="fill: none; stroke-dasharray: 1.5,2.475; stroke-dashoffset: 0; stroke: #1f77b4; stroke-width: 1.5"/>
   </g>
   <g id="line2d_43">
    <path d="M 708.975178 242.111558 
L 710.757427 242.111558 
L 712.539677 242.111558 
L 714.321926 242.111558 
L 716.104175 242.111558 
L 717.886425 242.111558 
L 719.668674 242.111558 
L 721.450923 242.111558 
L 723.233173 242.111558 
L 725.015422 242.111558 
L 726.797672 242.111558 
L 728.579921 242.111558 
L 730.36217 242.111558 
L 732.14442 242.111558 
L 733.926669 242.111558 
L 735.708918 242.111558 
L 737.491168 242.111558 
L 739.273417 242.111558 
L 741.055667 242.111558 
L 742.837916 242.111558 
L 744.620165 242.111557 
L 746.402415 242.111556 
L 748.184664 242.111553 
L 749.966913 242.111541 
L 751.749163 242.111508 
L 753.531412 242.111412 
L 755.313662 242.111152 
L 757.095911 242.110469 
L 758.87816 242.108749 
L 760.66041 242.104593 
L 762.442659 242.094952 
L 764.224908 242.073489 
L 766.007158 242.027651 
L 767.789407 241.933747 
L 769.571656 241.74927 
L 771.353906 241.401849 
L 773.136155 240.774842 
L 774.918405 239.690918 
L 776.700654 237.896989 
L 778.482903 235.056376 
L 780.265153 230.756348 
L 782.047402 224.539842 
L 783.829651 215.96797 
L 785.611901 204.713574 
L 787.39415 190.676031 
L 789.1764 174.095696 
L 790.958649 155.636828 
L 792.740898 136.405414 
L 794.523148 117.876763 
L 796.305397 101.727346 
L 798.087646 89.592087 
L 799.869896 82.793752 
L 801.652145 82.105898 
L 803.434395 87.608039 
L 805.216644 98.670523 
L 806.998893 114.073097 
L 808.781143 132.226287 
L 810.563392 151.440115 
L 812.345641 170.177664 
L 814.127891 187.242359 
L 815.91014 201.871771 
L 817.69239 213.73794 
L 819.474639 222.875956 
L 821.256888 229.573541 
L 823.039138 234.254067 
L 824.821387 237.377092 
L 826.603636 239.368784 
L 828.385886 240.583847 
L 830.168135 241.293424 
L 831.950384 241.690309 
L 833.732634 241.903019 
L 835.514883 242.0123 
L 837.297133 242.066135 
L 839.079382 242.091572 
L 840.861631 242.103103 
L 842.643881 242.108119 
L 844.42613 242.110213 
L 846.208379 242.111052 
L 847.990629 242.111375 
L 849.772878 242.111494 
L 851.555128 242.111537 
L 853.337377 242.111551 
L 855.119626 242.111556 
L 856.901876 242.111557 
L 858.684125 242.111558 
L 860.466374 242.111558 
L 862.248624 242.111558 
L 864.030873 242.111558 
L 865.813123 242.111558 
L 867.595372 242.111558 
L 869.377621 242.111558 
L 871.159871 242.111558 
L 872.94212 242.111558 
L 874.724369 242.111558 
L 876.506619 242.111558 
L 878.288868 242.111558 
L 880.071117 242.111558 
L 881.853367 242.111558 
L 883.635616 242.111558 
L 885.417866 242.111558 
" clip-path="url(#p99f183003e)" style="fill: none; stroke-dasharray: 5.55,2.4; stroke-dashoffset: 0; stroke: #ff7f0e; stroke-width: 1.5"/>
   </g>
   <g id="line2d_44">
    <path d="M 708.975178 242.111558 
L 710.757427 242.111558 
L 712.539677 242.111558 
L 714.321926 242.111558 
L 716.104175 242.111558 
L 717.886425 242.111558 
L 719.668674 242.111558 
L 721.450923 242.111558 
L 723.233173 242.111558 
L 725.015422 242.111558 
L 726.797672 242.111558 
L 728.579921 242.111558 
L 730.36217 242.111558 
L 732.14442 242.111558 
L 733.926669 242.111558 
L 735.708918 242.111558 
L 737.491168 242.111558 
L 739.273417 242.111558 
L 741.055667 242.111558 
L 742.837916 242.111558 
L 744.620165 242.111558 
L 746.402415 242.111558 
L 748.184664 242.111558 
L 749.966913 242.111558 
L 751.749163 242.111558 
L 753.531412 242.111558 
L 755.313662 242.111558 
L 757.095911 242.111558 
L 758.87816 242.111557 
L 760.66041 242.111553 
L 762.442659 242.111535 
L 764.224908 242.111458 
L 766.007158 242.111159 
L 767.789407 242.110074 
L 769.571656 242.106399 
L 771.353906 242.094823 
L 773.136155 242.060888 
L 774.918405 241.968381 
L 776.700654 241.733971 
L 778.482903 241.182215 
L 780.265153 239.976787 
L 782.047402 237.534965 
L 783.829651 232.954642 
L 785.611901 225.012504 
L 787.39415 212.31193 
L 789.1764 193.642394 
L 790.958649 168.535567 
L 792.740898 137.874383 
L 794.523148 104.287491 
L 796.305397 72.035414 
L 798.087646 46.237168 
L 799.869896 31.57485 
L 801.652145 30.911558 
L 803.434395 44.380033 
L 805.216644 69.339371 
L 806.998893 101.219128 
L 808.781143 134.881286 
L 810.563392 165.945222 
L 812.345641 191.619318 
L 814.127891 210.872198 
L 815.91014 224.073261 
L 817.69239 232.390694 
L 819.474639 237.222445 
L 821.256888 239.816618 
L 823.039138 241.106182 
L 824.821387 241.700502 
L 826.603636 241.954706 
L 828.385886 242.055699 
L 830.168135 242.092992 
L 831.950384 242.105799 
L 833.732634 242.109891 
L 835.514883 242.111107 
L 837.297133 242.111444 
L 839.079382 242.111531 
L 840.861631 242.111552 
L 842.643881 242.111557 
L 844.42613 242.111558 
L 846.208379 242.111558 
L 847.990629 242.111558 
L 849.772878 242.111558 
L 851.555128 242.111558 
L 853.337377 242.111558 
L 855.119626 242.111558 
L 856.901876 242.111558 
L 858.684125 242.111558 
L 860.466374 242.111558 
L 862.248624 242.111558 
L 864.030873 242.111558 
L 865.813123 242.111558 
L 867.595372 242.111558 
L 869.377621 242.111558 
L 871.159871 242.111558 
L 872.94212 242.111558 
L 874.724369 242.111558 
L 876.506619 242.111558 
L 878.288868 242.111558 
L 880.071117 242.111558 
L 881.853367 242.111558 
L 883.635616 242.111558 
L 885.417866 242.111558 
" clip-path="url(#p99f183003e)" style="fill: none; stroke: #2ca02c; stroke-width: 1.5; stroke-linecap: square"/>
   </g>
   <g id="line2d_45">
    <path d="M 796.011791 242.111558 
L 796.011791 20.351558 
" clip-path="url(#p99f183003e)" style="fill: none; stroke-dasharray: 5.55,2.4; stroke-dashoffset: 0; stroke: #000000; stroke-width: 1.5"/>
   </g>
   <g id="patch_18">
    <path d="M 700.153043 242.111558 
L 700.153043 20.351558 
" style="fill: none; stroke: #000000; stroke-width: 0.8; stroke-linejoin: miter; stroke-linecap: square"/>
   </g>
   <g id="patch_19">
    <path d="M 894.24 242.111558 
L 894.24 20.351558 
" style="fill: none; stroke: #000000; stroke-width: 0.8; stroke-linejoin: miter; stroke-linecap: square"/>
   </g>
   <g id="patch_20">
    <path d="M 700.153043 242.111558 
L 894.24 242.111558 
" style="fill: none; stroke: #000000; stroke-width: 0.8; stroke-linejoin: miter; stroke-linecap: square"/>
   </g>
   <g id="patch_21">
    <path d="M 700.153043 20.351558 
L 894.24 20.351558 
" style="fill: none; stroke: #000000; stroke-width: 0.8; stroke-linejoin: miter; stroke-linecap: square"/>
   </g>
   <g id="text_4">
    <!-- B -->
    <g transform="translate(790.817253 14.351558) scale(0.192 -0.192)">
     <defs>
      <path id="NimbusRomNo9L-Regu-42" d="M 109 4224 
L 109 4102 
C 646 4070 723 4000 723 3528 
L 723 695 
C 723 223 640 140 109 121 
L 109 0 
L 2246 0 
C 2746 0 3200 134 3437 351 
C 3667 555 3795 842 3795 1148 
C 3795 1429 3680 1684 3482 1869 
C 3290 2041 3117 2118 2701 2220 
C 3034 2303 3168 2367 3322 2500 
C 3482 2641 3578 2877 3578 3138 
C 3578 3853 3008 4224 1901 4224 
L 109 4224 
z
M 1376 2080 
C 1997 2080 2291 2048 2522 1952 
C 2886 1799 3059 1544 3059 1142 
C 3059 798 2925 549 2669 402 
C 2464 287 2202 236 1779 236 
C 1466 236 1376 294 1376 498 
L 1376 2080 
z
M 1376 2335 
L 1376 3795 
C 1376 3929 1421 3987 1517 3987 
L 1798 3987 
C 2534 3987 2925 3680 2925 3113 
C 2925 2615 2586 2335 1984 2335 
L 1376 2335 
z
" transform="scale(0.015625)"/>
     </defs>
     <use xlink:href="#NimbusRomNo9L-Regu-42" transform="scale(0.996264)"/>
    </g>
   </g>
   <g id="legend_1">
    <g id="patch_22">
     <path d="M 905.44 234.63578 
L 1061.972998 234.63578 
Q 1065.172998 234.63578 1065.172998 231.43578 
L 1065.172998 142.431558 
Q 1065.172998 139.231558 1061.972998 139.231558 
L 905.44 139.231558 
Q 902.24 139.231558 902.24 142.431558 
L 902.24 231.43578 
Q 902.24 234.63578 905.44 234.63578 
z
" style="fill: #ffffff; opacity: 0.8; stroke: #cccccc; stroke-linejoin: miter"/>
    </g>
    <g id="line2d_46">
     <path d="M 908.64 151.231558 
L 924.64 151.231558 
L 940.64 151.231558 
" style="fill: none; stroke-dasharray: 5.55,2.4; stroke-dashoffset: 0; stroke: #000000; stroke-width: 1.5"/>
    </g>
    <g id="text_5">
     <!-- Truth -->
     <g transform="translate(953.44 156.831558) scale(0.16 -0.16)">
      <defs>
       <path id="NimbusRomNo9L-Regu-54" d="M 1626 3955 
L 1626 765 
C 1626 223 1555 153 1024 121 
L 1024 0 
L 2893 0 
L 2893 121 
C 2368 147 2278 230 2278 695 
L 2278 3955 
L 2624 3955 
C 3354 3955 3494 3840 3642 3138 
L 3795 3138 
L 3757 4224 
L 147 4224 
L 109 3138 
L 262 3138 
C 416 3834 563 3955 1280 3955 
L 1626 3955 
z
" transform="scale(0.015625)"/>
       <path id="NimbusRomNo9L-Regu-72" d="M 45 2496 
C 134 2515 192 2521 269 2521 
C 429 2521 486 2419 486 2137 
L 486 537 
C 486 217 442 172 32 96 
L 32 0 
L 1568 0 
L 1568 96 
C 1133 115 1024 211 1024 576 
L 1024 2016 
C 1024 2220 1299 2540 1472 2540 
C 1510 2540 1568 2508 1638 2444 
C 1741 2355 1811 2316 1894 2316 
C 2048 2316 2144 2425 2144 2604 
C 2144 2815 2010 2944 1792 2944 
C 1523 2944 1338 2796 1024 2342 
L 1024 2931 
L 992 2944 
C 653 2803 422 2720 45 2598 
L 45 2496 
z
" transform="scale(0.015625)"/>
       <path id="NimbusRomNo9L-Regu-75" d="M 3066 319 
L 3034 319 
C 2739 319 2669 390 2669 684 
L 2669 2880 
L 1658 2880 
L 1658 2771 
C 2054 2752 2131 2688 2131 2368 
L 2131 864 
C 2131 684 2099 595 2010 524 
C 1837 384 1638 307 1446 307 
C 1197 307 992 524 992 793 
L 992 2880 
L 58 2880 
L 58 2790 
C 365 2771 454 2675 454 2380 
L 454 768 
C 454 262 762 -64 1229 -64 
C 1466 -64 1715 38 1888 211 
L 2163 486 
L 2163 -45 
L 2189 -64 
C 2509 64 2739 134 3066 224 
L 3066 319 
z
" transform="scale(0.015625)"/>
       <path id="NimbusRomNo9L-Regu-74" d="M 1632 2880 
L 986 2880 
L 986 3622 
C 986 3686 979 3705 941 3705 
C 896 3648 858 3590 813 3526 
C 570 3174 294 2867 192 2841 
C 122 2796 83 2751 83 2719 
C 83 2700 90 2687 109 2675 
L 448 2675 
L 448 748 
C 448 211 640 -64 1018 -64 
C 1331 -64 1574 89 1786 422 
L 1702 492 
C 1568 332 1459 268 1318 268 
C 1082 268 986 441 986 844 
L 986 2675 
L 1632 2675 
L 1632 2880 
z
" transform="scale(0.015625)"/>
       <path id="NimbusRomNo9L-Regu-68" d="M 1005 2195 
C 1274 2489 1466 2598 1715 2598 
C 2035 2598 2195 2368 2195 1920 
L 2195 652 
C 2195 217 2131 134 1760 96 
L 1760 0 
L 3117 0 
L 3117 96 
C 2771 160 2733 211 2733 652 
L 2733 1926 
C 2733 2598 2464 2944 1946 2944 
C 1568 2944 1299 2790 1005 2406 
L 1005 4352 
L 973 4371 
C 755 4294 595 4243 237 4140 
L 64 4089 
L 64 3987 
C 90 3993 109 3993 141 3993 
C 416 3993 467 3942 467 3667 
L 467 652 
C 467 204 429 147 58 96 
L 58 0 
L 1440 0 
L 1440 96 
C 1069 134 1005 211 1005 652 
L 1005 2195 
z
" transform="scale(0.015625)"/>
      </defs>
      <use xlink:href="#NimbusRomNo9L-Regu-54" transform="scale(0.996264)"/>
      <use xlink:href="#NimbusRomNo9L-Regu-72" transform="translate(57.384828 0) scale(0.996264)"/>
      <use xlink:href="#NimbusRomNo9L-Regu-75" transform="translate(90.560438 0) scale(0.996264)"/>
      <use xlink:href="#NimbusRomNo9L-Regu-74" transform="translate(140.373639 0) scale(0.996264)"/>
      <use xlink:href="#NimbusRomNo9L-Regu-68" transform="translate(168.069766 0) scale(0.996264)"/>
     </g>
    </g>
    <g id="line2d_47">
     <path d="M 908.64 173.87464 
L 924.64 173.87464 
L 940.64 173.87464 
" style="fill: none; stroke-dasharray: 1.5,2.475; stroke-dashoffset: 0; stroke: #1f77b4; stroke-width: 1.5"/>
    </g>
    <g id="text_6">
     <!-- Noisy data -->
     <g transform="translate(953.44 179.47464) scale(0.16 -0.16)">
      <defs>
       <path id="NimbusRomNo9L-Regu-4e" d="M 3917 -64 
L 3917 3287 
C 3917 3669 3981 3905 4102 3988 
C 4192 4051 4282 4077 4525 4102 
L 4525 4224 
L 3021 4224 
L 3021 4102 
C 3264 4083 3354 4058 3450 4000 
C 3578 3911 3635 3682 3635 3287 
L 3635 1140 
L 1171 4224 
L 77 4224 
L 77 4102 
C 352 4102 442 4051 698 3752 
L 698 943 
C 698 281 608 160 77 121 
L 77 0 
L 1581 0 
L 1581 121 
C 1088 147 979 294 979 940 
L 979 3449 
L 3808 -64 
L 3917 -64 
z
" transform="scale(0.015625)"/>
       <path id="NimbusRomNo9L-Regu-6f" d="M 1600 2944 
C 768 2944 186 2329 186 1446 
C 186 582 781 -64 1587 -64 
C 2394 -64 3008 614 3008 1497 
C 3008 2336 2419 2944 1600 2944 
z
M 1517 2764 
C 2054 2764 2432 2150 2432 1273 
C 2432 550 2144 115 1664 115 
C 1414 115 1178 268 1043 524 
C 864 857 762 1305 762 1760 
C 762 2368 1062 2764 1517 2764 
z
" transform="scale(0.015625)"/>
       <path id="NimbusRomNo9L-Regu-69" d="M 1120 2944 
L 128 2592 
L 128 2496 
L 179 2502 
C 256 2515 339 2521 397 2521 
C 550 2521 608 2419 608 2137 
L 608 652 
C 608 192 544 121 102 96 
L 102 0 
L 1619 0 
L 1619 96 
C 1197 128 1146 192 1146 652 
L 1146 2924 
L 1120 2944 
z
M 819 4352 
C 646 4352 499 4204 499 4025 
C 499 3846 640 3699 819 3699 
C 1005 3699 1152 3839 1152 4025 
C 1152 4204 1005 4352 819 4352 
z
" transform="scale(0.015625)"/>
       <path id="NimbusRomNo9L-Regu-73" d="M 2016 2009 
L 1990 2880 
L 1920 2880 
L 1907 2867 
C 1850 2822 1843 2815 1818 2815 
C 1779 2815 1715 2828 1645 2860 
C 1504 2918 1363 2944 1197 2944 
C 691 2944 326 2617 326 2155 
C 326 1796 531 1539 1075 1231 
L 1446 1019 
C 1670 891 1779 737 1779 538 
C 1779 256 1574 76 1248 76 
C 1030 76 832 160 710 301 
C 576 461 518 609 435 974 
L 333 974 
L 333 -26 
L 416 -26 
C 461 38 486 51 563 51 
C 621 51 710 38 858 0 
C 1037 -39 1210 -64 1325 -64 
C 1818 -64 2227 307 2227 756 
C 2227 1077 2074 1289 1690 1520 
L 998 1930 
C 819 2033 723 2193 723 2366 
C 723 2623 922 2803 1216 2803 
C 1581 2803 1773 2585 1920 2014 
L 2016 2009 
z
" transform="scale(0.015625)"/>
       <path id="NimbusRomNo9L-Regu-79" d="M 3040 2880 
L 2176 2880 
L 2176 2783 
C 2381 2783 2483 2726 2483 2623 
C 2483 2597 2477 2559 2458 2514 
L 1837 741 
L 1101 2366 
C 1062 2456 1037 2540 1037 2610 
C 1037 2726 1133 2771 1408 2783 
L 1408 2880 
L 90 2880 
L 90 2790 
C 256 2764 365 2694 416 2585 
L 1146 1005 
L 1165 953 
L 1261 761 
C 1440 439 1542 208 1542 112 
C 1542 15 1395 -389 1286 -582 
C 1197 -749 1056 -871 966 -871 
C 928 -871 870 -858 806 -826 
C 685 -781 576 -755 467 -755 
C 320 -755 192 -884 192 -1037 
C 192 -1248 397 -1408 666 -1408 
C 1094 -1408 1402 -1050 1747 -126 
L 2733 2495 
C 2816 2700 2886 2764 3040 2783 
L 3040 2880 
z
" transform="scale(0.015625)"/>
       <path id="NimbusRomNo9L-Regu-64" d="M 2202 -64 
L 3142 268 
L 3142 371 
C 3027 364 3014 364 2995 364 
C 2765 364 2714 435 2714 729 
L 2714 4358 
L 2682 4371 
C 2374 4262 2150 4198 1741 4089 
L 1741 3987 
C 1792 3993 1830 3993 1882 3993 
C 2118 3993 2176 3929 2176 3667 
L 2176 2668 
C 1933 2873 1760 2944 1504 2944 
C 768 2944 173 2220 173 1312 
C 173 492 653 -64 1357 -64 
C 1715 -64 1958 64 2176 364 
L 2176 -45 
L 2202 -64 
z
M 2176 652 
C 2176 608 2131 531 2067 460 
C 1952 332 1792 268 1606 268 
C 1075 268 723 780 723 1568 
C 723 2291 1037 2764 1523 2764 
C 1862 2764 2176 2464 2176 2124 
L 2176 652 
z
" transform="scale(0.015625)"/>
       <path id="NimbusRomNo9L-Regu-61" d="M 2829 422 
C 2720 332 2643 300 2547 300 
C 2400 300 2355 390 2355 672 
L 2355 1920 
C 2355 2252 2323 2438 2227 2592 
C 2086 2822 1811 2944 1434 2944 
C 832 2944 358 2630 358 2227 
C 358 2080 486 1952 634 1952 
C 787 1952 922 2080 922 2220 
C 922 2246 915 2278 909 2323 
C 896 2380 890 2432 890 2476 
C 890 2649 1094 2790 1350 2790 
C 1664 2790 1837 2604 1837 2259 
L 1837 1868 
C 851 1472 742 1420 467 1177 
C 326 1049 237 832 237 620 
C 237 217 518 -64 909 -64 
C 1190 -64 1453 70 1843 403 
C 1875 70 1990 -64 2253 -64 
C 2470 -64 2605 12 2829 256 
L 2829 422 
z
M 1837 787 
C 1837 588 1805 531 1670 454 
C 1517 364 1338 307 1203 307 
C 979 307 800 524 800 800 
L 800 825 
C 800 1203 1062 1433 1837 1715 
L 1837 787 
z
" transform="scale(0.015625)"/>
      </defs>
      <use xlink:href="#NimbusRomNo9L-Regu-4e" transform="scale(0.996264)"/>
      <use xlink:href="#NimbusRomNo9L-Regu-6f" transform="translate(71.930274 0) scale(0.996264)"/>
      <use xlink:href="#NimbusRomNo9L-Regu-69" transform="translate(121.743474 0) scale(0.996264)"/>
      <use xlink:href="#NimbusRomNo9L-Regu-73" transform="translate(149.439601 0) scale(0.996264)"/>
      <use xlink:href="#NimbusRomNo9L-Regu-79" transform="translate(188.194265 0) scale(0.996264)"/>
      <use xlink:href="#NimbusRomNo9L-Regu-64" transform="translate(262.914066 0) scale(0.996264)"/>
      <use xlink:href="#NimbusRomNo9L-Regu-61" transform="translate(312.727267 0) scale(0.996264)"/>
      <use xlink:href="#NimbusRomNo9L-Regu-74" transform="translate(356.961413 0) scale(0.996264)"/>
      <use xlink:href="#NimbusRomNo9L-Regu-61" transform="translate(384.65754 0) scale(0.996264)"/>
     </g>
    </g>
    <g id="line2d_48">
     <path d="M 908.64 196.549615 
L 924.64 196.549615 
L 940.64 196.549615 
" style="fill: none; stroke-dasharray: 5.55,2.4; stroke-dashoffset: 0; stroke: #ff7f0e; stroke-width: 1.5"/>
    </g>
    <g id="text_7">
     <!-- Improved data -->
     <g transform="translate(953.44 202.149615) scale(0.16 -0.16)">
      <defs>
       <path id="NimbusRomNo9L-Regu-49" d="M 736 695 
C 736 217 653 140 115 121 
L 115 0 
L 2016 0 
L 2016 121 
C 1491 140 1389 230 1389 695 
L 1389 3528 
C 1389 3994 1478 4077 2016 4102 
L 2016 4224 
L 115 4224 
L 115 4102 
C 659 4070 736 4000 736 3528 
L 736 695 
z
" transform="scale(0.015625)"/>
       <path id="NimbusRomNo9L-Regu-6d" d="M 122 2547 
C 205 2566 256 2572 326 2572 
C 493 2572 550 2470 550 2163 
L 550 544 
C 550 198 461 102 102 96 
L 102 0 
L 1523 0 
L 1523 96 
C 1184 108 1088 179 1088 428 
L 1088 2233 
C 1088 2246 1139 2310 1184 2355 
C 1344 2502 1619 2611 1843 2611 
C 2125 2611 2266 2387 2266 1939 
L 2266 550 
C 2266 192 2195 121 1830 96 
L 1830 0 
L 3264 0 
L 3264 96 
C 2899 102 2803 211 2803 608 
L 2803 2220 
C 2995 2496 3206 2611 3501 2611 
C 3866 2611 3981 2438 3981 1907 
L 3981 556 
C 3981 192 3930 140 3558 96 
L 3558 0 
L 4960 0 
L 4960 96 
L 4794 108 
C 4602 121 4518 236 4518 486 
L 4518 1804 
C 4518 2560 4269 2944 3776 2944 
C 3405 2944 3078 2777 2733 2406 
C 2618 2771 2400 2944 2054 2944 
C 1773 2944 1594 2854 1062 2451 
L 1062 2931 
L 1018 2944 
C 691 2822 474 2751 122 2655 
L 122 2547 
z
" transform="scale(0.015625)"/>
       <path id="NimbusRomNo9L-Regu-70" d="M 58 2515 
C 115 2521 160 2521 218 2521 
C 435 2521 480 2457 480 2157 
L 480 -839 
C 480 -1172 410 -1242 32 -1280 
L 32 -1389 
L 1581 -1389 
L 1581 -1280 
C 1101 -1274 1018 -1203 1018 -798 
L 1018 211 
C 1242 0 1395 -64 1664 -64 
C 2419 -64 3008 652 3008 1580 
C 3008 2374 2560 2944 1939 2944 
C 1581 2944 1299 2783 1018 2438 
L 1018 2931 
L 979 2944 
C 634 2809 410 2726 58 2617 
L 58 2515 
z
M 1018 2137 
C 1018 2329 1376 2559 1670 2559 
C 2144 2559 2458 2073 2458 1331 
C 2458 620 2144 140 1683 140 
C 1382 140 1018 371 1018 563 
L 1018 2137 
z
" transform="scale(0.015625)"/>
       <path id="NimbusRomNo9L-Regu-76" d="M 3053 2880 
L 2163 2880 
L 2163 2783 
C 2368 2764 2464 2701 2464 2580 
C 2464 2517 2451 2454 2426 2390 
L 1792 748 
L 1139 2371 
C 1101 2460 1082 2549 1082 2606 
C 1082 2720 1152 2764 1376 2783 
L 1376 2880 
L 122 2880 
L 122 2783 
C 365 2771 410 2707 704 2054 
L 1472 235 
C 1485 197 1504 152 1523 102 
C 1562 -13 1600 -64 1638 -64 
C 1677 -64 1722 19 1818 254 
L 2637 2289 
C 2822 2720 2861 2764 3053 2783 
L 3053 2880 
z
" transform="scale(0.015625)"/>
       <path id="NimbusRomNo9L-Regu-65" d="M 2611 1052 
C 2304 564 2029 377 1619 377 
C 1254 377 979 564 794 930 
C 678 1174 634 1386 621 1779 
L 2592 1779 
C 2541 2193 2477 2377 2317 2580 
C 2125 2809 1830 2944 1498 2944 
C 1178 2944 877 2828 634 2612 
C 333 2351 160 1900 160 1374 
C 160 486 621 -64 1357 -64 
C 1965 -64 2445 313 2714 1007 
L 2611 1052 
z
M 634 1984 
C 704 2478 922 2713 1312 2713 
C 1702 2713 1856 2535 1939 1984 
L 634 1984 
z
" transform="scale(0.015625)"/>
      </defs>
      <use xlink:href="#NimbusRomNo9L-Regu-49" transform="scale(0.996264)"/>
      <use xlink:href="#NimbusRomNo9L-Regu-6d" transform="translate(33.17561 0) scale(0.996264)"/>
      <use xlink:href="#NimbusRomNo9L-Regu-70" transform="translate(110.684938 0) scale(0.996264)"/>
      <use xlink:href="#NimbusRomNo9L-Regu-72" transform="translate(160.498138 0) scale(0.996264)"/>
      <use xlink:href="#NimbusRomNo9L-Regu-6f" transform="translate(193.673748 0) scale(0.996264)"/>
      <use xlink:href="#NimbusRomNo9L-Regu-76" transform="translate(241.992507 0) scale(0.996264)"/>
      <use xlink:href="#NimbusRomNo9L-Regu-65" transform="translate(290.311266 0) scale(0.996264)"/>
      <use xlink:href="#NimbusRomNo9L-Regu-64" transform="translate(334.545412 0) scale(0.996264)"/>
      <use xlink:href="#NimbusRomNo9L-Regu-64" transform="translate(409.265213 0) scale(0.996264)"/>
      <use xlink:href="#NimbusRomNo9L-Regu-61" transform="translate(459.078413 0) scale(0.996264)"/>
      <use xlink:href="#NimbusRomNo9L-Regu-74" transform="translate(503.31256 0) scale(0.996264)"/>
      <use xlink:href="#NimbusRomNo9L-Regu-61" transform="translate(531.008687 0) scale(0.996264)"/>
     </g>
    </g>
    <g id="line2d_49">
     <path d="M 908.64 219.192697 
L 924.64 219.192697 
L 940.64 219.192697 
" style="fill: none; stroke: #2ca02c; stroke-width: 1.5; stroke-linecap: square"/>
    </g>
    <g id="text_8">
     <!-- Improved model -->
     <g transform="translate(953.44 224.792697) scale(0.16 -0.16)">
      <defs>
       <path id="NimbusRomNo9L-Regu-6c" d="M 122 3987 
L 160 3987 
C 230 3993 307 4000 358 4000 
C 563 4000 627 3910 627 3609 
L 627 556 
C 627 211 538 128 134 96 
L 134 0 
L 1645 0 
L 1645 96 
C 1242 121 1165 185 1165 537 
L 1165 4358 
L 1139 4371 
C 806 4262 563 4198 122 4089 
L 122 3987 
z
" transform="scale(0.015625)"/>
      </defs>
      <use xlink:href="#NimbusRomNo9L-Regu-49" transform="scale(0.996264)"/>
      <use xlink:href="#NimbusRomNo9L-Regu-6d" transform="translate(33.17561 0) scale(0.996264)"/>
      <use xlink:href="#NimbusRomNo9L-Regu-70" transform="translate(110.684938 0) scale(0.996264)"/>
      <use xlink:href="#NimbusRomNo9L-Regu-72" transform="translate(160.498138 0) scale(0.996264)"/>
      <use xlink:href="#NimbusRomNo9L-Regu-6f" transform="translate(193.673748 0) scale(0.996264)"/>
      <use xlink:href="#NimbusRomNo9L-Regu-76" transform="translate(241.992507 0) scale(0.996264)"/>
      <use xlink:href="#NimbusRomNo9L-Regu-65" transform="translate(290.311266 0) scale(0.996264)"/>
      <use xlink:href="#NimbusRomNo9L-Regu-64" transform="translate(334.545412 0) scale(0.996264)"/>
      <use xlink:href="#NimbusRomNo9L-Regu-6d" transform="translate(409.265213 0) scale(0.996264)"/>
      <use xlink:href="#NimbusRomNo9L-Regu-6f" transform="translate(486.774541 0) scale(0.996264)"/>
      <use xlink:href="#NimbusRomNo9L-Regu-64" transform="translate(536.587741 0) scale(0.996264)"/>
      <use xlink:href="#NimbusRomNo9L-Regu-65" transform="translate(586.400942 0) scale(0.996264)"/>
      <use xlink:href="#NimbusRomNo9L-Regu-6c" transform="translate(630.635088 0) scale(0.996264)"/>
     </g>
    </g>
   </g>
  </g>
 </g>
 <defs>
  <clipPath id="pb3ae4590de">
   <rect x="1.44" y="20.351558" width="194.086957" height="221.76"/>
  </clipPath>
  <clipPath id="pdbc2164372">
   <rect x="234.344348" y="20.351558" width="194.086957" height="221.76"/>
  </clipPath>
  <clipPath id="p9393a036af">
   <rect x="467.248696" y="20.351558" width="194.086957" height="221.76"/>
  </clipPath>
  <clipPath id="p99f183003e">
   <rect x="700.153043" y="20.351558" width="194.086957" height="221.76"/>
  </clipPath>
 </defs>
</svg>
