<?xml version="1.0" encoding="utf-8" standalone="no"?>
<!DOCTYPE svg PUBLIC "-//W3C//DTD SVG 1.1//EN"
  "http://www.w3.org/Graphics/SVG/1.1/DTD/svg11.dtd">
<svg xmlns:xlink="http://www.w3.org/1999/xlink" width="470.16pt" height="258.556pt" viewBox="0 0 470.16 258.556" xmlns="http://www.w3.org/2000/svg" version="1.1">
 <metadata>
  <rdf:RDF xmlns:dc="http://purl.org/dc/elements/1.1/" xmlns:cc="http://creativecommons.org/ns#" xmlns:rdf="http://www.w3.org/1999/02/22-rdf-syntax-ns#">
   <cc:Work>
    <dc:type rdf:resource="http://purl.org/dc/dcmitype/StillImage"/>
    <dc:date>2025-01-26T17:23:02.429213</dc:date>
    <dc:format>image/svg+xml</dc:format>
    <dc:creator>
     <cc:Agent>
      <dc:title>Matplotlib v3.9.2, https://matplotlib.org/</dc:title>
     </cc:Agent>
    </dc:creator>
   </cc:Work>
  </rdf:RDF>
 </metadata>
 <defs>
  <style type="text/css">*{stroke-linejoin: round; stroke-linecap: butt}</style>
 </defs>
 <g id="figure_1">
  <g id="patch_1">
   <path d="M 0 258.556 
L 470.16 258.556 
L 470.16 0 
L 0 0 
z
" style="fill: #ffffff"/>
  </g>
  <g id="axes_1">
   <g id="patch_2">
    <path d="M 48.244279 193.570965 
L 251.949509 193.570965 
L 251.949509 18.389729 
L 48.244279 18.389729 
z
" style="fill: #ffffff"/>
   </g>
   <g id="matplotlib.axis_1">
    <g id="xtick_1">
     <g id="line2d_1">
      <defs>
       <path id="ma22065d6a6" d="M 0 0 
L 0 3.5 
" style="stroke: #000000; stroke-width: 0.8"/>
      </defs>
      <g>
       <use xlink:href="#ma22065d6a6" x="173.054864" y="193.570965" style="stroke: #000000; stroke-width: 0.8"/>
      </g>
     </g>
     <g id="text_1">
      <!-- $\mathdefault{10^{-1}}$ -->
      <g transform="translate(164.1124 207.295732) scale(0.1 -0.1)">
       <defs>
        <path id="NimbusRomNo9L-Regu-31" d="M 1862 4352 
L 710 3776 
L 710 3686 
C 787 3718 858 3743 883 3756 
C 998 3801 1107 3826 1171 3826 
C 1306 3826 1363 3731 1363 3525 
L 1363 599 
C 1363 386 1312 238 1210 179 
C 1114 121 1024 102 755 96 
L 755 0 
L 2522 0 
L 2522 96 
C 2016 102 1914 167 1914 477 
L 1914 4339 
L 1862 4352 
z
" transform="scale(0.015625)"/>
        <path id="NimbusRomNo9L-Regu-30" d="M 1626 4352 
C 1274 4352 1005 4243 768 4019 
C 397 3661 154 2924 154 2176 
C 154 1478 365 729 666 371 
C 902 89 1229 -64 1600 -64 
C 1926 -64 2202 44 2432 268 
C 2803 620 3046 1363 3046 2137 
C 3046 3449 2464 4352 1626 4352 
z
M 1606 4185 
C 2144 4185 2432 3462 2432 2124 
C 2432 787 2150 102 1600 102 
C 1050 102 768 787 768 2118 
C 768 3475 1056 4185 1606 4185 
z
" transform="scale(0.015625)"/>
        <path id="txsy-0" d="M 3674 1472 
L 3674 1830 
L 397 1830 
L 397 1472 
L 3674 1472 
z
" transform="scale(0.015625)"/>
       </defs>
       <use xlink:href="#NimbusRomNo9L-Regu-31" transform="scale(0.996264)"/>
       <use xlink:href="#NimbusRomNo9L-Regu-30" transform="translate(49.8132 0) scale(0.996264)"/>
       <use xlink:href="#txsy-0" transform="translate(99.626401 36.164371) scale(0.697382)"/>
       <use xlink:href="#NimbusRomNo9L-Regu-31" transform="translate(143.979851 36.164371) scale(0.697382)"/>
      </g>
     </g>
    </g>
    <g id="xtick_2">
     <g id="line2d_2">
      <defs>
       <path id="m73eb526da2" d="M 0 0 
L 0 2 
" style="stroke: #000000; stroke-width: 0.6"/>
      </defs>
      <g>
       <use xlink:href="#m73eb526da2" x="78.314335" y="193.570965" style="stroke: #000000; stroke-width: 0.6"/>
      </g>
     </g>
    </g>
    <g id="xtick_3">
     <g id="line2d_3">
      <g>
       <use xlink:href="#m73eb526da2" x="102.182282" y="193.570965" style="stroke: #000000; stroke-width: 0.6"/>
      </g>
     </g>
    </g>
    <g id="xtick_4">
     <g id="line2d_4">
      <g>
       <use xlink:href="#m73eb526da2" x="119.11686" y="193.570965" style="stroke: #000000; stroke-width: 0.6"/>
      </g>
     </g>
    </g>
    <g id="xtick_5">
     <g id="line2d_5">
      <g>
       <use xlink:href="#m73eb526da2" x="132.252339" y="193.570965" style="stroke: #000000; stroke-width: 0.6"/>
      </g>
     </g>
    </g>
    <g id="xtick_6">
     <g id="line2d_6">
      <g>
       <use xlink:href="#m73eb526da2" x="142.984807" y="193.570965" style="stroke: #000000; stroke-width: 0.6"/>
      </g>
     </g>
    </g>
    <g id="xtick_7">
     <g id="line2d_7">
      <g>
       <use xlink:href="#m73eb526da2" x="152.058979" y="193.570965" style="stroke: #000000; stroke-width: 0.6"/>
      </g>
     </g>
    </g>
    <g id="xtick_8">
     <g id="line2d_8">
      <g>
       <use xlink:href="#m73eb526da2" x="159.919385" y="193.570965" style="stroke: #000000; stroke-width: 0.6"/>
      </g>
     </g>
    </g>
    <g id="xtick_9">
     <g id="line2d_9">
      <g>
       <use xlink:href="#m73eb526da2" x="166.852754" y="193.570965" style="stroke: #000000; stroke-width: 0.6"/>
      </g>
     </g>
    </g>
    <g id="xtick_10">
     <g id="line2d_10">
      <g>
       <use xlink:href="#m73eb526da2" x="213.857388" y="193.570965" style="stroke: #000000; stroke-width: 0.6"/>
      </g>
     </g>
    </g>
    <g id="xtick_11">
     <g id="line2d_11">
      <g>
       <use xlink:href="#m73eb526da2" x="237.725335" y="193.570965" style="stroke: #000000; stroke-width: 0.6"/>
      </g>
     </g>
    </g>
    <g id="text_2">
     <!-- $k$ [$h \ \mathrm{Mpc}^{-1}$] -->
     <g transform="translate(125.434913 222.128081) scale(0.1 -0.1)">
      <defs>
       <path id="CMSSI17-6b" d="M 2054 1686 
L 3270 2735 
L 2656 2735 
L 1286 1552 
L 1901 4416 
L 1427 4416 
L 480 0 
L 947 0 
L 1139 891 
L 1664 1342 
L 2278 0 
L 2822 0 
L 2054 1686 
z
" transform="scale(0.015625)"/>
       <path id="NimbusRomNo9L-Regu-5b" d="M 1914 -832 
L 1363 -832 
C 1152 -832 1050 -724 1050 -501 
L 1050 3783 
C 1050 3981 1133 4063 1338 4063 
L 1914 4063 
L 1914 4224 
L 563 4224 
L 563 -993 
L 1914 -993 
L 1914 -832 
z
" transform="scale(0.015625)"/>
       <path id="CMSSI17-68" d="M 3021 1891 
C 3046 2000 3053 2058 3053 2219 
C 3053 2623 2829 2816 2387 2816 
C 1850 2816 1478 2425 1459 2406 
L 1453 2406 
L 1894 4416 
L 1421 4416 
L 474 0 
L 960 0 
L 1254 1389 
C 1312 1666 1478 2425 2061 2425 
C 2400 2425 2547 2290 2547 2039 
C 2547 1949 2541 1923 2534 1891 
L 2131 0 
L 2618 0 
L 3021 1891 
z
" transform="scale(0.015625)"/>
       <path id="NimbusRomNo9L-Regu-4d" d="M 4314 3656 
L 4314 765 
C 4314 236 4237 153 3731 121 
L 3731 0 
L 5523 0 
L 5523 121 
C 5056 153 4966 242 4966 695 
L 4966 3528 
C 4966 3981 5050 4064 5523 4102 
L 5523 4224 
L 4250 4224 
L 2835 1002 
L 1357 4224 
L 90 4224 
L 90 4102 
C 614 4070 698 3994 698 3528 
L 698 938 
C 698 281 608 159 77 121 
L 77 0 
L 1581 0 
L 1581 121 
C 1088 147 979 293 979 938 
L 979 3509 
L 2586 0 
L 2675 0 
L 4314 3656 
z
" transform="scale(0.015625)"/>
       <path id="NimbusRomNo9L-Regu-70" d="M 58 2515 
C 115 2521 160 2521 218 2521 
C 435 2521 480 2457 480 2157 
L 480 -839 
C 480 -1172 410 -1242 32 -1280 
L 32 -1389 
L 1581 -1389 
L 1581 -1280 
C 1101 -1274 1018 -1203 1018 -798 
L 1018 211 
C 1242 0 1395 -64 1664 -64 
C 2419 -64 3008 652 3008 1580 
C 3008 2374 2560 2944 1939 2944 
C 1581 2944 1299 2783 1018 2438 
L 1018 2931 
L 979 2944 
C 634 2809 410 2726 58 2617 
L 58 2515 
z
M 1018 2137 
C 1018 2329 1376 2559 1670 2559 
C 2144 2559 2458 2073 2458 1331 
C 2458 620 2144 140 1683 140 
C 1382 140 1018 371 1018 563 
L 1018 2137 
z
" transform="scale(0.015625)"/>
       <path id="NimbusRomNo9L-Regu-63" d="M 2547 998 
C 2240 550 2010 396 1645 396 
C 1062 396 653 908 653 1644 
C 653 2303 1005 2758 1523 2758 
C 1754 2758 1837 2687 1901 2451 
L 1939 2310 
C 1990 2131 2106 2015 2240 2015 
C 2406 2015 2547 2137 2547 2284 
C 2547 2643 2099 2944 1562 2944 
C 1248 2944 922 2815 659 2585 
C 339 2303 160 1868 160 1363 
C 160 531 666 -64 1376 -64 
C 1664 -64 1920 38 2150 236 
C 2323 390 2445 563 2637 940 
L 2547 998 
z
" transform="scale(0.015625)"/>
       <path id="NimbusRomNo9L-Regu-5d" d="M 218 -832 
L 218 -993 
L 1568 -993 
L 1568 4224 
L 218 4224 
L 218 4063 
L 768 4063 
C 979 4063 1082 3955 1082 3732 
L 1082 -552 
C 1082 -750 992 -832 794 -832 
L 218 -832 
z
" transform="scale(0.015625)"/>
      </defs>
      <use xlink:href="#CMSSI17-6b" transform="scale(0.996264)"/>
      <use xlink:href="#NimbusRomNo9L-Regu-5b" transform="translate(78.584276 0) scale(0.996264)"/>
      <use xlink:href="#CMSSI17-68" transform="translate(111.759886 0) scale(0.996264)"/>
      <use xlink:href="#NimbusRomNo9L-Regu-4d" transform="translate(187.019913 0) scale(0.996264)"/>
      <use xlink:href="#NimbusRomNo9L-Regu-70" transform="translate(275.587777 0) scale(0.996264)"/>
      <use xlink:href="#NimbusRomNo9L-Regu-63" transform="translate(325.400977 0) scale(0.996264)"/>
      <use xlink:href="#txsy-0" transform="translate(369.635124 39.73112) scale(0.697382)"/>
      <use xlink:href="#NimbusRomNo9L-Regu-31" transform="translate(413.988574 39.73112) scale(0.697382)"/>
      <use xlink:href="#NimbusRomNo9L-Regu-5d" transform="translate(449.355794 0) scale(0.996264)"/>
     </g>
    </g>
   </g>
   <g id="matplotlib.axis_2">
    <g id="ytick_1">
     <g id="line2d_12">
      <defs>
       <path id="m40da89d1cf" d="M 0 0 
L -3.5 0 
" style="stroke: #000000; stroke-width: 0.8"/>
      </defs>
      <g>
       <use xlink:href="#m40da89d1cf" x="48.244279" y="185.485677" style="stroke: #000000; stroke-width: 0.8"/>
      </g>
     </g>
     <g id="text_3">
      <!-- $\mathdefault{−0.75}$ -->
      <g transform="translate(17.196686 188.848061) scale(0.1 -0.1)">
       <defs>
        <path id="CMSS17-2e" d="M 1088 512 
L 576 512 
L 576 0 
L 1088 0 
L 1088 512 
z
" transform="scale(0.015625)"/>
        <path id="NimbusRomNo9L-Regu-37" d="M 2874 4224 
L 506 4224 
L 128 3283 
L 237 3232 
C 512 3667 627 3750 979 3750 
L 2368 3750 
L 1101 -64 
L 1517 -64 
L 2874 4121 
L 2874 4224 
z
" transform="scale(0.015625)"/>
        <path id="NimbusRomNo9L-Regu-35" d="M 1158 3718 
L 2413 3718 
C 2515 3718 2541 3731 2560 3775 
L 2803 4345 
L 2746 4390 
C 2650 4256 2586 4224 2451 4224 
L 1114 4224 
L 416 2717 
C 410 2705 410 2698 410 2686 
C 410 2654 435 2635 486 2635 
C 691 2635 947 2591 1210 2508 
C 1946 2274 2285 1882 2285 1255 
C 2285 647 1894 172 1395 172 
C 1267 172 1158 217 966 356 
C 762 502 614 565 480 565 
C 294 565 205 489 205 331 
C 205 89 506 -64 986 -64 
C 1523 -64 1984 108 2304 432 
C 2598 717 2733 1078 2733 1559 
C 2733 2015 2611 2306 2291 2622 
C 2010 2901 1645 3047 890 3180 
L 1158 3718 
z
" transform="scale(0.015625)"/>
       </defs>
       <use xlink:href="#txsy-0" transform="scale(0.996264)"/>
       <use xlink:href="#NimbusRomNo9L-Regu-30" transform="translate(63.362352 0) scale(0.996264)"/>
       <use xlink:href="#CMSS17-2e" transform="translate(113.175552 0) scale(0.996264)"/>
       <use xlink:href="#NimbusRomNo9L-Regu-37" transform="translate(139.199757 0) scale(0.996264)"/>
       <use xlink:href="#NimbusRomNo9L-Regu-35" transform="translate(189.012957 0) scale(0.996264)"/>
      </g>
     </g>
    </g>
    <g id="ytick_2">
     <g id="line2d_13">
      <g>
       <use xlink:href="#m40da89d1cf" x="48.244279" y="163.026545" style="stroke: #000000; stroke-width: 0.8"/>
      </g>
     </g>
     <g id="text_4">
      <!-- $\mathdefault{−0.50}$ -->
      <g transform="translate(17.196686 166.388928) scale(0.1 -0.1)">
       <use xlink:href="#txsy-0" transform="scale(0.996264)"/>
       <use xlink:href="#NimbusRomNo9L-Regu-30" transform="translate(63.362352 0) scale(0.996264)"/>
       <use xlink:href="#CMSS17-2e" transform="translate(113.175552 0) scale(0.996264)"/>
       <use xlink:href="#NimbusRomNo9L-Regu-35" transform="translate(139.199757 0) scale(0.996264)"/>
       <use xlink:href="#NimbusRomNo9L-Regu-30" transform="translate(189.012957 0) scale(0.996264)"/>
      </g>
     </g>
    </g>
    <g id="ytick_3">
     <g id="line2d_14">
      <g>
       <use xlink:href="#m40da89d1cf" x="48.244279" y="140.567412" style="stroke: #000000; stroke-width: 0.8"/>
      </g>
     </g>
     <g id="text_5">
      <!-- $\mathdefault{−0.25}$ -->
      <g transform="translate(17.196686 143.929795) scale(0.1 -0.1)">
       <defs>
        <path id="NimbusRomNo9L-Regu-32" d="M 3040 879 
L 2957 912 
C 2720 544 2637 486 2349 486 
L 819 486 
L 1894 1621 
C 2464 2221 2714 2711 2714 3214 
C 2714 3858 2195 4352 1530 4352 
C 1178 4352 845 4211 608 3955 
C 403 3736 307 3530 198 3072 
L 333 3039 
C 589 3671 819 3878 1261 3878 
C 1798 3878 2163 3510 2163 2969 
C 2163 2466 1869 1866 1331 1292 
L 192 76 
L 192 0 
L 2688 0 
L 3040 879 
z
" transform="scale(0.015625)"/>
       </defs>
       <use xlink:href="#txsy-0" transform="scale(0.996264)"/>
       <use xlink:href="#NimbusRomNo9L-Regu-30" transform="translate(63.362352 0) scale(0.996264)"/>
       <use xlink:href="#CMSS17-2e" transform="translate(113.175552 0) scale(0.996264)"/>
       <use xlink:href="#NimbusRomNo9L-Regu-32" transform="translate(139.199757 0) scale(0.996264)"/>
       <use xlink:href="#NimbusRomNo9L-Regu-35" transform="translate(189.012957 0) scale(0.996264)"/>
      </g>
     </g>
    </g>
    <g id="ytick_4">
     <g id="line2d_15">
      <g>
       <use xlink:href="#m40da89d1cf" x="48.244279" y="118.108279" style="stroke: #000000; stroke-width: 0.8"/>
      </g>
     </g>
     <g id="text_6">
      <!-- $\mathdefault{0.00}$ -->
      <g transform="translate(23.53291 121.470662) scale(0.1 -0.1)">
       <use xlink:href="#NimbusRomNo9L-Regu-30" transform="scale(0.996264)"/>
       <use xlink:href="#CMSS17-2e" transform="translate(49.8132 0) scale(0.996264)"/>
       <use xlink:href="#NimbusRomNo9L-Regu-30" transform="translate(75.837405 0) scale(0.996264)"/>
       <use xlink:href="#NimbusRomNo9L-Regu-30" transform="translate(125.650606 0) scale(0.996264)"/>
      </g>
     </g>
    </g>
    <g id="ytick_5">
     <g id="line2d_16">
      <g>
       <use xlink:href="#m40da89d1cf" x="48.244279" y="95.649146" style="stroke: #000000; stroke-width: 0.8"/>
      </g>
     </g>
     <g id="text_7">
      <!-- $\mathdefault{0.25}$ -->
      <g transform="translate(23.53291 99.01153) scale(0.1 -0.1)">
       <use xlink:href="#NimbusRomNo9L-Regu-30" transform="scale(0.996264)"/>
       <use xlink:href="#CMSS17-2e" transform="translate(49.8132 0) scale(0.996264)"/>
       <use xlink:href="#NimbusRomNo9L-Regu-32" transform="translate(75.837405 0) scale(0.996264)"/>
       <use xlink:href="#NimbusRomNo9L-Regu-35" transform="translate(125.650606 0) scale(0.996264)"/>
      </g>
     </g>
    </g>
    <g id="ytick_6">
     <g id="line2d_17">
      <g>
       <use xlink:href="#m40da89d1cf" x="48.244279" y="73.190013" style="stroke: #000000; stroke-width: 0.8"/>
      </g>
     </g>
     <g id="text_8">
      <!-- $\mathdefault{0.50}$ -->
      <g transform="translate(23.53291 76.552397) scale(0.1 -0.1)">
       <use xlink:href="#NimbusRomNo9L-Regu-30" transform="scale(0.996264)"/>
       <use xlink:href="#CMSS17-2e" transform="translate(49.8132 0) scale(0.996264)"/>
       <use xlink:href="#NimbusRomNo9L-Regu-35" transform="translate(75.837405 0) scale(0.996264)"/>
       <use xlink:href="#NimbusRomNo9L-Regu-30" transform="translate(125.650606 0) scale(0.996264)"/>
      </g>
     </g>
    </g>
    <g id="ytick_7">
     <g id="line2d_18">
      <g>
       <use xlink:href="#m40da89d1cf" x="48.244279" y="50.730881" style="stroke: #000000; stroke-width: 0.8"/>
      </g>
     </g>
     <g id="text_9">
      <!-- $\mathdefault{0.75}$ -->
      <g transform="translate(23.53291 54.093264) scale(0.1 -0.1)">
       <use xlink:href="#NimbusRomNo9L-Regu-30" transform="scale(0.996264)"/>
       <use xlink:href="#CMSS17-2e" transform="translate(49.8132 0) scale(0.996264)"/>
       <use xlink:href="#NimbusRomNo9L-Regu-37" transform="translate(75.837405 0) scale(0.996264)"/>
       <use xlink:href="#NimbusRomNo9L-Regu-35" transform="translate(125.650606 0) scale(0.996264)"/>
      </g>
     </g>
    </g>
    <g id="ytick_8">
     <g id="line2d_19">
      <g>
       <use xlink:href="#m40da89d1cf" x="48.244279" y="28.271748" style="stroke: #000000; stroke-width: 0.8"/>
      </g>
     </g>
     <g id="text_10">
      <!-- $\mathdefault{1.00}$ -->
      <g transform="translate(23.53291 31.634131) scale(0.1 -0.1)">
       <use xlink:href="#NimbusRomNo9L-Regu-31" transform="scale(0.996264)"/>
       <use xlink:href="#CMSS17-2e" transform="translate(49.8132 0) scale(0.996264)"/>
       <use xlink:href="#NimbusRomNo9L-Regu-30" transform="translate(75.837405 0) scale(0.996264)"/>
       <use xlink:href="#NimbusRomNo9L-Regu-30" transform="translate(125.650606 0) scale(0.996264)"/>
      </g>
     </g>
    </g>
    <g id="text_11">
     <!-- $r(k)$ -->
     <g transform="translate(11.044767 114.390178) rotate(-90) scale(0.1 -0.1)">
      <defs>
       <path id="CMSSI17-72" d="M 1190 1125 
C 1286 1556 1325 1761 1619 2044 
C 1728 2147 2016 2379 2464 2392 
L 2554 2816 
C 1952 2803 1600 2450 1414 2270 
L 1523 2783 
L 1069 2783 
L 480 0 
L 954 0 
L 1190 1125 
z
" transform="scale(0.015625)"/>
       <path id="NimbusRomNo9L-Regu-28" d="M 1888 4352 
C 1414 4044 1222 3878 986 3583 
C 531 3027 307 2387 307 1638 
C 307 825 544 198 1107 -455 
C 1370 -762 1536 -903 1869 -1108 
L 1946 -1006 
C 1434 -602 1254 -378 1082 102 
C 928 530 858 1017 858 1657 
C 858 2329 941 2854 1114 3251 
C 1293 3647 1485 3878 1946 4249 
L 1888 4352 
z
" transform="scale(0.015625)"/>
       <path id="NimbusRomNo9L-Regu-29" d="M 243 -1108 
C 717 -801 909 -634 1146 -340 
C 1600 217 1824 857 1824 1606 
C 1824 2425 1587 3046 1024 3699 
C 762 4006 595 4147 262 4352 
L 186 4249 
C 698 3846 870 3622 1050 3142 
C 1203 2713 1274 2227 1274 1587 
C 1274 921 1190 390 1018 -1 
C 838 -404 646 -634 186 -1006 
L 243 -1108 
z
" transform="scale(0.015625)"/>
      </defs>
      <use xlink:href="#CMSSI17-72" transform="scale(0.996264)"/>
      <use xlink:href="#NimbusRomNo9L-Regu-28" transform="translate(42.327174 0) scale(0.996264)"/>
      <use xlink:href="#CMSSI17-6b" transform="translate(75.502784 0) scale(0.996264)"/>
      <use xlink:href="#NimbusRomNo9L-Regu-29" transform="translate(129.18046 0) scale(0.996264)"/>
     </g>
    </g>
   </g>
   <g id="line2d_20">
    <path d="M 30.649605 148.148687 
L 61.689447 171.231985 
L 82.42872 184.643259 
L 97.776463 181.036476 
L 110.154667 186.511093 
L 119.817396 181.780302 
L 128.317667 184.707546 
L 135.773656 182.633117 
L 142.446306 181.932028 
L 148.382863 181.730844 
L 153.68974 174.905521 
L 158.638925 173.331418 
L 163.282733 172.355745 
L 167.482859 166.587535 
L 171.387894 159.647291 
L 175.066445 157.612696 
L 178.535517 152.634576 
L 181.819249 149.105936 
L 184.937136 145.321697 
L 187.899116 144.689585 
L 190.698929 143.335758 
L 193.361813 139.802503 
L 195.93878 137.758721 
L 198.390332 132.84537 
L 200.746096 130.449131 
L 203.030348 129.832057 
L 205.22486 127.357472 
L 207.319614 126.734519 
L 209.34298 124.827451 
L 211.294942 124.470116 
L 213.203001 123.961742 
L 215.050134 123.313832 
L 216.83977 121.819476 
L 218.575753 122.579005 
L 220.257256 119.985353 
L 221.895374 121.300216 
L 223.479184 120.554243 
L 225.027524 119.811457 
L 226.540376 119.049068 
L 228.00814 119.890181 
L 229.444855 118.097285 
L 230.849127 118.835859 
L 232.22591 118.488346 
L 233.569972 118.777952 
L 234.878474 118.916181 
L 236.151938 118.169917 
L 237.399691 117.703156 
L 238.628485 117.595769 
L 239.831465 117.93079 
L 241.010214 118.601731 
L 242.168194 117.330071 
L 243.303141 117.817097 
L 244.417103 117.510206 
L 245.502049 118.481702 
L 246.571647 118.050113 
L 247.624737 118.383487 
L 248.652341 117.941347 
L 249.667839 117.809525 
L 250.666595 117.35475 
L 251.650633 118.176872 
L 252.616656 117.571542 
L 253.562802 118.176926 
L 254.501712 118.083856 
L 255.421042 117.437757 
L 256.326364 117.701844 
L 257.218966 118.742109 
L 258.094135 117.848273 
L 258.96278 117.898442 
L 259.816391 117.835965 
L 260.653989 118.737187 
L 261.482364 117.764252 
L 262.300895 118.515449 
L 263.109796 118.35285 
L 263.906638 118.261074 
L 264.694044 117.838326 
L 265.467999 118.588296 
L 266.227398 118.85423 
L 266.982788 117.962087 
L 267.730364 118.45562 
L 268.462366 117.758181 
L 269.18531 118.767405 
L 269.90631 118.143962 
L 270.617988 118.123223 
L 271.319839 117.492322 
L 272.008887 118.433418 
L 272.689437 118.699411 
L 273.367719 119.191301 
L 274.037955 117.714747 
L 274.693546 116.705392 
L 275.351514 118.184057 
L 275.999842 119.775783 
L 276.633435 116.744703 
L 277.264771 117.148593 
L 277.901346 118.630411 
L 278.527914 117.995186 
L 279.123868 116.26436 
L 279.731002 119.845128 
L 280.347879 118.579017 
L 280.932912 117.743882 
L 281.503715 118.290138 
L 282.10059 117.67938 
L 282.719011 117.834162 
L 283.288606 119.05605 
L 283.776348 115.369276 
L 284.34529 119.064176 
L 284.967123 111.924297 
L 285.556132 117.531998 
L 285.983532 117.131542 
L 286.48462 131.45897 
L 287.077692 171.954855 
" clip-path="url(#pfa495fe65b)" style="fill: none; stroke: #1c5a62; stroke-opacity: 0.4; stroke-linecap: square"/>
   </g>
   <g id="line2d_21">
    <path d="M 30.649605 28.342443 
L 61.689447 28.502731 
L 82.42872 28.589257 
L 97.776463 29.203369 
L 110.154667 29.305186 
L 119.817396 30.018467 
L 128.317667 30.448336 
L 135.773656 31.132969 
L 142.446306 31.826023 
L 148.382863 31.715596 
L 153.68974 33.187436 
L 158.638925 33.424396 
L 163.282733 33.998801 
L 167.482859 35.509124 
L 171.387894 36.670432 
L 175.066445 38.419993 
L 178.535517 39.185938 
L 181.819249 40.015898 
L 184.937136 41.049011 
L 187.899116 41.702536 
L 190.698929 42.742949 
L 193.361813 44.545914 
L 195.93878 46.197521 
L 198.390332 47.879554 
L 200.746096 50.080108 
L 203.030348 52.79099 
L 205.22486 54.062867 
L 207.319614 56.086064 
L 209.34298 56.575447 
L 211.294942 59.206884 
L 213.203001 61.014766 
L 215.050134 63.341677 
L 216.83977 64.559654 
L 218.575753 67.725762 
L 220.257256 71.201375 
L 221.895374 73.169374 
L 223.479184 75.553556 
L 225.027524 76.552604 
L 226.540376 79.022601 
L 228.00814 81.598329 
L 229.444855 82.46672 
L 230.849127 85.553527 
L 232.22591 87.765868 
L 233.569972 88.682613 
L 234.878474 90.934288 
L 236.151938 92.894227 
L 237.399691 95.286062 
L 238.628485 95.974939 
L 239.831465 97.179269 
L 241.010214 98.676088 
L 242.168194 100.57345 
L 243.303141 101.678443 
L 244.417103 103.005389 
L 245.502049 103.076254 
L 246.571647 104.89771 
L 247.624737 105.932658 
L 248.652341 107.174013 
L 249.667839 107.262924 
L 250.666595 108.140857 
L 251.650633 109.531483 
L 252.616656 109.402966 
L 253.562802 110.015561 
L 254.501712 111.37814 
L 255.421042 111.81379 
L 256.326364 112.241193 
L 257.218966 113.230912 
L 258.094135 113.057534 
L 258.96278 114.236244 
L 259.816391 113.736317 
L 260.653989 114.973435 
L 261.482364 115.070795 
L 262.300895 114.291336 
L 263.109796 115.391442 
L 263.906638 116.080128 
L 264.694044 115.939637 
L 265.467999 116.0187 
L 266.227398 115.298659 
L 266.982788 116.202462 
L 267.730364 116.479625 
L 268.462366 115.55824 
L 269.18531 114.770441 
L 269.90631 117.111106 
L 270.617988 117.150831 
L 271.319839 116.735689 
L 272.008887 117.270338 
L 272.689437 117.357455 
L 273.367719 117.529859 
L 274.037955 117.364056 
L 274.693546 117.682708 
L 275.351514 118.008217 
L 275.999842 117.809865 
L 276.633435 115.377241 
L 277.264771 118.346696 
L 277.901346 117.365907 
L 278.527914 117.309513 
L 279.123868 118.499381 
L 279.731002 117.238148 
L 280.347879 115.118102 
L 280.932912 118.566805 
L 281.503715 114.476222 
L 282.10059 114.831427 
L 282.719011 118.017625 
L 283.288606 118.909891 
L 283.776348 113.273051 
L 284.34529 115.718295 
L 284.967123 118.103824 
L 285.556132 104.241524 
L 285.983532 119.474774 
L 286.48462 104.993394 
L 287.077692 55.733644 
" clip-path="url(#pfa495fe65b)" style="fill: none; stroke-dasharray: 3.7,1.6; stroke-dashoffset: 0; stroke: #f9ac92; stroke-opacity: 0.8"/>
   </g>
   <g id="line2d_22">
    <path d="M 30.649605 148.314164 
L 61.689447 171.012769 
L 82.42872 184.635939 
L 97.776463 181.050751 
L 110.154667 186.463689 
L 119.817396 181.760262 
L 128.317667 184.686984 
L 135.773656 182.610236 
L 142.446306 181.914016 
L 148.382863 181.750687 
L 153.68974 174.853781 
L 158.638925 173.306998 
L 163.282733 172.339269 
L 167.482859 166.599121 
L 171.387894 159.651234 
L 175.066445 157.667769 
L 178.535517 152.648747 
L 181.819249 149.118496 
L 184.937136 145.359787 
L 187.899116 144.692566 
L 190.698929 143.296402 
L 193.361813 139.801096 
L 195.93878 137.809216 
L 198.390332 132.844343 
L 200.746096 130.469837 
L 203.030348 129.84211 
L 205.22486 127.351232 
L 207.319614 126.753382 
L 209.34298 124.850278 
L 211.294942 124.455847 
L 213.203001 123.945365 
L 215.050134 123.319878 
L 216.83977 121.799336 
L 218.575753 122.550659 
L 220.257256 119.982854 
L 221.895374 121.321865 
L 223.479184 120.560474 
L 225.027524 119.8216 
L 226.540376 119.049466 
L 228.00814 119.887793 
L 229.444855 118.0933 
L 230.849127 118.855241 
L 232.22591 118.492284 
L 233.569972 118.765346 
L 234.878474 118.931265 
L 236.151938 118.16196 
L 237.399691 117.693022 
L 238.628485 117.603042 
L 239.831465 117.938551 
L 241.010214 118.59828 
L 242.168194 117.335782 
L 243.303141 117.840945 
L 244.417103 117.507399 
L 245.502049 118.473816 
L 246.571647 118.045979 
L 247.624737 118.390712 
L 248.652341 117.936076 
L 249.667839 117.823293 
L 250.666595 117.350126 
L 251.650633 118.173198 
L 252.616656 117.566139 
L 253.562802 118.163771 
L 254.501712 118.077566 
L 255.421042 117.4592 
L 256.326364 117.700777 
L 257.218966 118.737012 
L 258.094135 117.852879 
L 258.96278 117.902138 
L 259.816391 117.82739 
L 260.653989 118.730301 
L 261.482364 117.773761 
L 262.300895 118.522548 
L 263.109796 118.352056 
L 263.906638 118.271164 
L 264.694044 117.83872 
L 265.467999 118.569877 
L 266.227398 118.849733 
L 266.982788 117.956935 
L 267.730364 118.445327 
L 268.462366 117.739597 
L 269.18531 118.777809 
L 269.90631 118.16009 
L 270.617988 118.128517 
L 271.319839 117.484949 
L 272.008887 118.429708 
L 272.689437 118.700118 
L 273.367719 119.206153 
L 274.037955 117.712314 
L 274.693546 116.713687 
L 275.351514 118.17691 
L 275.999842 119.755596 
L 276.633435 116.690636 
L 277.264771 117.13975 
L 277.901346 118.626263 
L 278.527914 117.991519 
L 279.123868 116.294694 
L 279.731002 119.846275 
L 280.347879 118.55942 
L 280.932912 117.70185 
L 281.503715 118.341622 
L 282.10059 117.651867 
L 282.719011 117.822106 
L 283.288606 119.040757 
L 283.776348 115.368895 
L 284.34529 119.022574 
L 284.967123 111.902405 
L 285.556132 117.743176 
L 285.983532 117.120505 
L 286.48462 131.043209 
L 287.077692 171.769268 
" clip-path="url(#pfa495fe65b)" style="fill: none; stroke: #1c5a62; stroke-opacity: 0.4; stroke-linecap: square"/>
   </g>
   <g id="line2d_23">
    <path d="M 30.649605 28.324296 
L 61.689447 28.490736 
L 82.42872 28.583645 
L 97.776463 29.205222 
L 110.154667 29.428642 
L 119.817396 30.121285 
L 128.317667 30.488368 
L 135.773656 31.029023 
L 142.446306 31.800647 
L 148.382863 31.712943 
L 153.68974 33.050147 
L 158.638925 33.436847 
L 163.282733 34.052372 
L 167.482859 35.38424 
L 171.387894 36.474845 
L 175.066445 38.175216 
L 178.535517 39.247114 
L 181.819249 40.087056 
L 184.937136 41.022063 
L 187.899116 41.859104 
L 190.698929 42.735231 
L 193.361813 44.333882 
L 195.93878 46.047031 
L 198.390332 48.04672 
L 200.746096 49.632392 
L 203.030348 52.993408 
L 205.22486 53.707946 
L 207.319614 56.137984 
L 209.34298 56.6751 
L 211.294942 59.186553 
L 213.203001 61.162537 
L 215.050134 62.7754 
L 216.83977 64.637623 
L 218.575753 67.809871 
L 220.257256 70.940281 
L 221.895374 73.151153 
L 223.479184 75.588739 
L 225.027524 76.189837 
L 226.540376 78.613676 
L 228.00814 81.675283 
L 229.444855 82.193808 
L 230.849127 85.417707 
L 232.22591 87.454327 
L 233.569972 88.183035 
L 234.878474 91.069688 
L 236.151938 92.722563 
L 237.399691 94.659643 
L 238.628485 95.649919 
L 239.831465 97.603481 
L 241.010214 98.569098 
L 242.168194 100.626843 
L 243.303141 102.163147 
L 244.417103 102.591827 
L 245.502049 102.915923 
L 246.571647 105.179988 
L 247.624737 105.779209 
L 248.652341 107.307217 
L 249.667839 107.341406 
L 250.666595 108.375362 
L 251.650633 109.565831 
L 252.616656 109.197646 
L 253.562802 110.043354 
L 254.501712 111.452336 
L 255.421042 111.547175 
L 256.326364 112.419004 
L 257.218966 113.104834 
L 258.094135 112.956779 
L 258.96278 114.494083 
L 259.816391 113.89226 
L 260.653989 114.705683 
L 261.482364 114.985118 
L 262.300895 114.131706 
L 263.109796 114.968041 
L 263.906638 115.806212 
L 264.694044 116.358696 
L 265.467999 115.845479 
L 266.227398 115.663688 
L 266.982788 116.469259 
L 267.730364 116.394618 
L 268.462366 115.926209 
L 269.18531 114.797955 
L 269.90631 116.987903 
L 270.617988 117.241835 
L 271.319839 116.908325 
L 272.008887 117.360805 
L 272.689437 117.176369 
L 273.367719 117.22557 
L 274.037955 116.72331 
L 274.693546 117.705656 
L 275.351514 117.724928 
L 275.999842 117.522578 
L 276.633435 115.398955 
L 277.264771 117.365002 
L 277.901346 118.258548 
L 278.527914 117.569671 
L 279.123868 119.426316 
L 279.731002 118.266371 
L 280.347879 117.378649 
L 280.932912 118.401127 
L 281.503715 113.860167 
L 282.10059 116.044309 
L 282.719011 119.497435 
L 283.288606 119.529172 
L 283.776348 113.664092 
L 284.34529 116.148165 
L 284.967123 114.57867 
L 285.556132 109.946971 
L 285.983532 118.793459 
L 286.48462 116.141132 
L 287.077692 33.3007 
" clip-path="url(#pfa495fe65b)" style="fill: none; stroke-dasharray: 3.7,1.6; stroke-dashoffset: 0; stroke: #f9ac92; stroke-opacity: 0.8"/>
   </g>
   <g id="line2d_24">
    <path d="M 30.649605 147.964431 
L 61.689447 170.921363 
L 82.42872 184.536633 
L 97.776463 181.133033 
L 110.154667 186.517883 
L 119.817396 181.763074 
L 128.317667 184.759903 
L 135.773656 182.563623 
L 142.446306 181.891279 
L 148.382863 181.753584 
L 153.68974 174.88692 
L 158.638925 173.348108 
L 163.282733 172.35128 
L 167.482859 166.583531 
L 171.387894 159.64594 
L 175.066445 157.68754 
L 178.535517 152.609712 
L 181.819249 149.134534 
L 184.937136 145.338158 
L 187.899116 144.696505 
L 190.698929 143.329378 
L 193.361813 139.82639 
L 195.93878 137.830189 
L 198.390332 132.876865 
L 200.746096 130.449742 
L 203.030348 129.835587 
L 205.22486 127.341682 
L 207.319614 126.764591 
L 209.34298 124.884772 
L 211.294942 124.440892 
L 213.203001 123.96221 
L 215.050134 123.317422 
L 216.83977 121.801257 
L 218.575753 122.535088 
L 220.257256 119.980706 
L 221.895374 121.315998 
L 223.479184 120.576433 
L 225.027524 119.804415 
L 226.540376 119.045039 
L 228.00814 119.88998 
L 229.444855 118.09506 
L 230.849127 118.846902 
L 232.22591 118.489825 
L 233.569972 118.761248 
L 234.878474 118.930427 
L 236.151938 118.166908 
L 237.399691 117.690957 
L 238.628485 117.615643 
L 239.831465 117.936166 
L 241.010214 118.601313 
L 242.168194 117.344526 
L 243.303141 117.856586 
L 244.417103 117.495166 
L 245.502049 118.48098 
L 246.571647 118.04274 
L 247.624737 118.399561 
L 248.652341 117.932999 
L 249.667839 117.81921 
L 250.666595 117.342867 
L 251.650633 118.159818 
L 252.616656 117.563174 
L 253.562802 118.161278 
L 254.501712 118.078171 
L 255.421042 117.449654 
L 256.326364 117.706733 
L 257.218966 118.7529 
L 258.094135 117.845868 
L 258.96278 117.904177 
L 259.816391 117.825195 
L 260.653989 118.727973 
L 261.482364 117.768057 
L 262.300895 118.512647 
L 263.109796 118.344821 
L 263.906638 118.276763 
L 264.694044 117.837156 
L 265.467999 118.576706 
L 266.227398 118.859809 
L 266.982788 117.938449 
L 267.730364 118.454682 
L 268.462366 117.757248 
L 269.18531 118.772548 
L 269.90631 118.1674 
L 270.617988 118.137308 
L 271.319839 117.481065 
L 272.008887 118.41896 
L 272.689437 118.687002 
L 273.367719 119.201435 
L 274.037955 117.717857 
L 274.693546 116.713361 
L 275.351514 118.173004 
L 275.999842 119.740161 
L 276.633435 116.697988 
L 277.264771 117.131815 
L 277.901346 118.625144 
L 278.527914 117.993943 
L 279.123868 116.299769 
L 279.731002 119.82381 
L 280.347879 118.559936 
L 280.932912 117.708451 
L 281.503715 118.396295 
L 282.10059 117.617481 
L 282.719011 117.760701 
L 283.288606 119.005764 
L 283.776348 115.426555 
L 284.34529 119.020851 
L 284.967123 111.854559 
L 285.556132 117.782286 
L 285.983532 117.180738 
L 286.48462 130.930764 
L 287.077692 170.840887 
" clip-path="url(#pfa495fe65b)" style="fill: none; stroke: #1c5a62; stroke-opacity: 0.4; stroke-linecap: square"/>
   </g>
   <g id="line2d_25">
    <path d="M 30.649605 28.328638 
L 61.689447 28.487363 
L 82.42872 28.567446 
L 97.776463 29.221932 
L 110.154667 29.4251 
L 119.817396 30.053146 
L 128.317667 30.407365 
L 135.773656 31.128963 
L 142.446306 31.719051 
L 148.382863 31.728454 
L 153.68974 33.083539 
L 158.638925 33.330667 
L 163.282733 34.040659 
L 167.482859 35.229 
L 171.387894 36.604316 
L 175.066445 38.058631 
L 178.535517 39.059168 
L 181.819249 40.125302 
L 184.937136 40.882198 
L 187.899116 41.791685 
L 190.698929 42.760468 
L 193.361813 44.471307 
L 195.93878 45.947529 
L 198.390332 47.922618 
L 200.746096 49.606141 
L 203.030348 53.286858 
L 205.22486 53.801918 
L 207.319614 56.228102 
L 209.34298 56.717043 
L 211.294942 59.16186 
L 213.203001 61.327295 
L 215.050134 62.582533 
L 216.83977 64.62943 
L 218.575753 67.631722 
L 220.257256 70.968596 
L 221.895374 73.193975 
L 223.479184 75.685388 
L 225.027524 76.461901 
L 226.540376 78.782549 
L 228.00814 81.512593 
L 229.444855 81.894502 
L 230.849127 85.334643 
L 232.22591 87.237259 
L 233.569972 88.301863 
L 234.878474 91.020472 
L 236.151938 92.474054 
L 237.399691 94.461098 
L 238.628485 95.714331 
L 239.831465 97.822979 
L 241.010214 98.733583 
L 242.168194 100.806119 
L 243.303141 102.159733 
L 244.417103 102.737355 
L 245.502049 102.777381 
L 246.571647 105.292546 
L 247.624737 105.761984 
L 248.652341 107.265982 
L 249.667839 107.310353 
L 250.666595 108.263134 
L 251.650633 109.370309 
L 252.616656 109.569862 
L 253.562802 110.089296 
L 254.501712 111.532204 
L 255.421042 111.746293 
L 256.326364 112.23705 
L 257.218966 113.236054 
L 258.094135 113.035346 
L 258.96278 114.40066 
L 259.816391 114.024753 
L 260.653989 114.448768 
L 261.482364 114.926992 
L 262.300895 114.067984 
L 263.109796 114.858864 
L 263.906638 116.097767 
L 264.694044 116.383616 
L 265.467999 115.526493 
L 266.227398 115.440179 
L 266.982788 116.395836 
L 267.730364 116.150548 
L 268.462366 115.714994 
L 269.18531 114.911395 
L 269.90631 116.933121 
L 270.617988 117.011113 
L 271.319839 116.621991 
L 272.008887 117.547856 
L 272.689437 117.217761 
L 273.367719 117.882937 
L 274.037955 116.465423 
L 274.693546 117.673678 
L 275.351514 118.101261 
L 275.999842 117.195613 
L 276.633435 115.669297 
L 277.264771 117.45227 
L 277.901346 117.895432 
L 278.527914 117.541376 
L 279.123868 119.69447 
L 279.731002 118.554376 
L 280.347879 117.122962 
L 280.932912 119.179998 
L 281.503715 114.173206 
L 282.10059 116.69715 
L 282.719011 119.586413 
L 283.288606 119.28251 
L 283.776348 114.387463 
L 284.34529 116.544744 
L 284.967123 114.275227 
L 285.556132 108.340547 
L 285.983532 114.592534 
L 286.48462 116.31182 
L 287.077692 40.775075 
" clip-path="url(#pfa495fe65b)" style="fill: none; stroke-dasharray: 3.7,1.6; stroke-dashoffset: 0; stroke: #f9ac92; stroke-opacity: 0.8"/>
   </g>
   <g id="line2d_26">
    <path d="M 30.649605 148.750967 
L 61.689447 170.97971 
L 82.42872 184.435273 
L 97.776463 181.134243 
L 110.154667 186.508016 
L 119.817396 181.754479 
L 128.317667 184.74387 
L 135.773656 182.558692 
L 142.446306 181.913988 
L 148.382863 181.773638 
L 153.68974 174.885574 
L 158.638925 173.333074 
L 163.282733 172.360824 
L 167.482859 166.589341 
L 171.387894 159.615791 
L 175.066445 157.734237 
L 178.535517 152.620534 
L 181.819249 149.09329 
L 184.937136 145.357324 
L 187.899116 144.704496 
L 190.698929 143.324598 
L 193.361813 139.859009 
L 195.93878 137.865175 
L 198.390332 132.919956 
L 200.746096 130.459968 
L 203.030348 129.808032 
L 205.22486 127.350962 
L 207.319614 126.748495 
L 209.34298 124.864247 
L 211.294942 124.465413 
L 213.203001 123.960542 
L 215.050134 123.331587 
L 216.83977 121.800735 
L 218.575753 122.531235 
L 220.257256 119.990479 
L 221.895374 121.311091 
L 223.479184 120.585406 
L 225.027524 119.815146 
L 226.540376 119.043311 
L 228.00814 119.873428 
L 229.444855 118.088838 
L 230.849127 118.818822 
L 232.22591 118.485761 
L 233.569972 118.757138 
L 234.878474 118.945194 
L 236.151938 118.154837 
L 237.399691 117.698619 
L 238.628485 117.626607 
L 239.831465 117.934063 
L 241.010214 118.590609 
L 242.168194 117.351155 
L 243.303141 117.844347 
L 244.417103 117.489599 
L 245.502049 118.500978 
L 246.571647 118.030128 
L 247.624737 118.402956 
L 248.652341 117.922309 
L 249.667839 117.816401 
L 250.666595 117.356664 
L 251.650633 118.153419 
L 252.616656 117.567671 
L 253.562802 118.146878 
L 254.501712 118.07581 
L 255.421042 117.450447 
L 256.326364 117.698452 
L 257.218966 118.760189 
L 258.094135 117.83533 
L 258.96278 117.901787 
L 259.816391 117.829093 
L 260.653989 118.725276 
L 261.482364 117.773985 
L 262.300895 118.500107 
L 263.109796 118.343933 
L 263.906638 118.266175 
L 264.694044 117.83879 
L 265.467999 118.58527 
L 266.227398 118.850988 
L 266.982788 117.949095 
L 267.730364 118.456655 
L 268.462366 117.743205 
L 269.18531 118.767314 
L 269.90631 118.171595 
L 270.617988 118.111847 
L 271.319839 117.46967 
L 272.008887 118.407891 
L 272.689437 118.698386 
L 273.367719 119.187231 
L 274.037955 117.725966 
L 274.693546 116.69815 
L 275.351514 118.169657 
L 275.999842 119.757414 
L 276.633435 116.712783 
L 277.264771 117.109948 
L 277.901346 118.61737 
L 278.527914 117.962222 
L 279.123868 116.2926 
L 279.731002 119.842626 
L 280.347879 118.567271 
L 280.932912 117.675012 
L 281.503715 118.394428 
L 282.10059 117.611816 
L 282.719011 117.746076 
L 283.288606 119.02876 
L 283.776348 115.465198 
L 284.34529 119.009482 
L 284.967123 111.85941 
L 285.556132 117.700981 
L 285.983532 117.477834 
L 286.48462 131.18397 
L 287.077692 170.556898 
" clip-path="url(#pfa495fe65b)" style="fill: none; stroke: #1c5a62; stroke-opacity: 0.4; stroke-linecap: square"/>
   </g>
   <g id="line2d_27">
    <path d="M 30.649605 28.33102 
L 61.689447 28.480089 
L 82.42872 28.573867 
L 97.776463 29.220124 
L 110.154667 29.36844 
L 119.817396 30.087156 
L 128.317667 30.487724 
L 135.773656 31.006281 
L 142.446306 31.653927 
L 148.382863 31.760561 
L 153.68974 32.958667 
L 158.638925 33.206834 
L 163.282733 33.866435 
L 167.482859 35.128311 
L 171.387894 36.454979 
L 175.066445 37.851261 
L 178.535517 38.985576 
L 181.819249 40.122942 
L 184.937136 40.845392 
L 187.899116 41.637869 
L 190.698929 42.926811 
L 193.361813 44.156564 
L 195.93878 45.708962 
L 198.390332 48.494867 
L 200.746096 49.748764 
L 203.030348 52.762246 
L 205.22486 53.399137 
L 207.319614 55.978936 
L 209.34298 56.489855 
L 211.294942 59.329937 
L 213.203001 61.271859 
L 215.050134 62.776927 
L 216.83977 64.916384 
L 218.575753 66.995393 
L 220.257256 70.971557 
L 221.895374 73.363935 
L 223.479184 75.615199 
L 225.027524 76.777385 
L 226.540376 78.944167 
L 228.00814 82.025487 
L 229.444855 81.838199 
L 230.849127 85.191799 
L 232.22591 87.444297 
L 233.569972 88.542591 
L 234.878474 90.908874 
L 236.151938 92.812874 
L 237.399691 94.633953 
L 238.628485 96.033298 
L 239.831465 97.821023 
L 241.010214 98.754795 
L 242.168194 100.875284 
L 243.303141 102.558183 
L 244.417103 102.455268 
L 245.502049 102.746344 
L 246.571647 104.951452 
L 247.624737 105.548717 
L 248.652341 107.008924 
L 249.667839 107.52049 
L 250.666595 108.348432 
L 251.650633 109.161688 
L 252.616656 109.534333 
L 253.562802 110.175499 
L 254.501712 111.594435 
L 255.421042 112.02136 
L 256.326364 112.247194 
L 257.218966 113.664061 
L 258.094135 112.790132 
L 258.96278 114.086774 
L 259.816391 113.78979 
L 260.653989 114.263707 
L 261.482364 114.810707 
L 262.300895 114.316802 
L 263.109796 114.800962 
L 263.906638 116.059287 
L 264.694044 115.972942 
L 265.467999 115.553856 
L 266.227398 115.649538 
L 266.982788 116.362505 
L 267.730364 115.987987 
L 268.462366 115.945117 
L 269.18531 115.034878 
L 269.90631 116.998894 
L 270.617988 117.267269 
L 271.319839 116.409616 
L 272.008887 117.331336 
L 272.689437 117.174038 
L 273.367719 118.176438 
L 274.037955 116.563253 
L 274.693546 117.64314 
L 275.351514 117.96468 
L 275.999842 117.316494 
L 276.633435 115.767829 
L 277.264771 117.508104 
L 277.901346 118.012941 
L 278.527914 117.567098 
L 279.123868 118.95791 
L 279.731002 118.546068 
L 280.347879 117.426579 
L 280.932912 118.401469 
L 281.503715 113.999656 
L 282.10059 116.864809 
L 282.719011 119.798509 
L 283.288606 119.405106 
L 283.776348 114.894089 
L 284.34529 115.916391 
L 284.967123 115.527555 
L 285.556132 107.099927 
L 285.983532 113.305319 
L 286.48462 112.923246 
L 287.077692 33.874639 
" clip-path="url(#pfa495fe65b)" style="fill: none; stroke-dasharray: 3.7,1.6; stroke-dashoffset: 0; stroke: #f9ac92; stroke-opacity: 0.8"/>
   </g>
   <g id="line2d_28">
    <path d="M 30.649605 147.819531 
L 61.689447 171.374239 
L 82.42872 184.387477 
L 97.776463 181.11947 
L 110.154667 186.611862 
L 119.817396 181.721698 
L 128.317667 184.732234 
L 135.773656 182.575512 
L 142.446306 181.924337 
L 148.382863 181.777687 
L 153.68974 174.878018 
L 158.638925 173.359796 
L 163.282733 172.377711 
L 167.482859 166.577155 
L 171.387894 159.583454 
L 175.066445 157.692842 
L 178.535517 152.629542 
L 181.819249 149.053017 
L 184.937136 145.354447 
L 187.899116 144.701066 
L 190.698929 143.303257 
L 193.361813 139.82469 
L 195.93878 137.847723 
L 198.390332 132.899355 
L 200.746096 130.437894 
L 203.030348 129.849317 
L 205.22486 127.389082 
L 207.319614 126.763963 
L 209.34298 124.860758 
L 211.294942 124.443915 
L 213.203001 123.976915 
L 215.050134 123.327923 
L 216.83977 121.783994 
L 218.575753 122.559714 
L 220.257256 119.980901 
L 221.895374 121.320849 
L 223.479184 120.566939 
L 225.027524 119.856546 
L 226.540376 119.071615 
L 228.00814 119.875915 
L 229.444855 118.106936 
L 230.849127 118.841358 
L 232.22591 118.493742 
L 233.569972 118.743898 
L 234.878474 118.942954 
L 236.151938 118.146415 
L 237.399691 117.701138 
L 238.628485 117.611842 
L 239.831465 117.952624 
L 241.010214 118.595886 
L 242.168194 117.361019 
L 243.303141 117.841025 
L 244.417103 117.480938 
L 245.502049 118.483022 
L 246.571647 118.021502 
L 247.624737 118.397248 
L 248.652341 117.917681 
L 249.667839 117.815455 
L 250.666595 117.377425 
L 251.650633 118.164299 
L 252.616656 117.565169 
L 253.562802 118.141567 
L 254.501712 118.093157 
L 255.421042 117.459457 
L 256.326364 117.688926 
L 257.218966 118.768575 
L 258.094135 117.841287 
L 258.96278 117.904328 
L 259.816391 117.835645 
L 260.653989 118.723396 
L 261.482364 117.782155 
L 262.300895 118.498897 
L 263.109796 118.346924 
L 263.906638 118.254908 
L 264.694044 117.821384 
L 265.467999 118.579005 
L 266.227398 118.848987 
L 266.982788 117.963174 
L 267.730364 118.436466 
L 268.462366 117.736133 
L 269.18531 118.780608 
L 269.90631 118.177227 
L 270.617988 118.105196 
L 271.319839 117.437177 
L 272.008887 118.394294 
L 272.689437 118.691165 
L 273.367719 119.167405 
L 274.037955 117.698236 
L 274.693546 116.718479 
L 275.351514 118.1444 
L 275.999842 119.739871 
L 276.633435 116.689674 
L 277.264771 117.108095 
L 277.901346 118.641905 
L 278.527914 117.956962 
L 279.123868 116.296504 
L 279.731002 119.825731 
L 280.347879 118.663405 
L 280.932912 117.769454 
L 281.503715 118.442682 
L 282.10059 117.671812 
L 282.719011 117.772475 
L 283.288606 118.943682 
L 283.776348 115.524307 
L 284.34529 118.95846 
L 284.967123 112.027916 
L 285.556132 117.760193 
L 285.983532 117.396771 
L 286.48462 130.822131 
L 287.077692 172.185999 
" clip-path="url(#pfa495fe65b)" style="fill: none; stroke: #1c5a62; stroke-opacity: 0.4; stroke-linecap: square"/>
   </g>
   <g id="line2d_29">
    <path d="M 30.649605 28.329456 
L 61.689447 28.478144 
L 82.42872 28.589985 
L 97.776463 29.230078 
L 110.154667 29.390661 
L 119.817396 30.196053 
L 128.317667 30.437198 
L 135.773656 31.119432 
L 142.446306 31.671589 
L 148.382863 31.646481 
L 153.68974 33.07371 
L 158.638925 33.398304 
L 163.282733 33.940403 
L 167.482859 35.253572 
L 171.387894 36.552175 
L 175.066445 37.978031 
L 178.535517 39.010217 
L 181.819249 40.024862 
L 184.937136 40.903983 
L 187.899116 41.57177 
L 190.698929 43.212823 
L 193.361813 44.341379 
L 195.93878 45.81767 
L 198.390332 48.511327 
L 200.746096 50.041823 
L 203.030348 52.344082 
L 205.22486 53.388583 
L 207.319614 55.857584 
L 209.34298 56.665837 
L 211.294942 59.277257 
L 213.203001 61.146943 
L 215.050134 62.741497 
L 216.83977 64.918549 
L 218.575753 67.3744 
L 220.257256 70.859852 
L 221.895374 73.336893 
L 223.479184 75.525339 
L 225.027524 76.909034 
L 226.540376 79.208056 
L 228.00814 81.991237 
L 229.444855 82.053911 
L 230.849127 85.035154 
L 232.22591 87.022303 
L 233.569972 88.486621 
L 234.878474 90.877681 
L 236.151938 92.739525 
L 237.399691 94.666079 
L 238.628485 96.075051 
L 239.831465 97.882041 
L 241.010214 98.697848 
L 242.168194 100.356173 
L 243.303141 102.479296 
L 244.417103 102.44741 
L 245.502049 102.527564 
L 246.571647 104.812404 
L 247.624737 105.684722 
L 248.652341 106.989817 
L 249.667839 107.493657 
L 250.666595 108.416456 
L 251.650633 109.189445 
L 252.616656 109.533625 
L 253.562802 110.35337 
L 254.501712 111.30594 
L 255.421042 111.901367 
L 256.326364 112.301834 
L 257.218966 113.600649 
L 258.094135 112.677435 
L 258.96278 114.044847 
L 259.816391 113.576118 
L 260.653989 114.513282 
L 261.482364 114.780989 
L 262.300895 114.357994 
L 263.109796 114.845237 
L 263.906638 115.879321 
L 264.694044 115.728024 
L 265.467999 115.477676 
L 266.227398 115.557933 
L 266.982788 116.229145 
L 267.730364 116.387715 
L 268.462366 116.098549 
L 269.18531 115.22298 
L 269.90631 116.907861 
L 270.617988 117.204559 
L 271.319839 116.28853 
L 272.008887 117.18307 
L 272.689437 117.700973 
L 273.367719 118.159562 
L 274.037955 116.201137 
L 274.693546 117.221294 
L 275.351514 117.826324 
L 275.999842 117.380296 
L 276.633435 115.693533 
L 277.264771 117.675301 
L 277.901346 117.445482 
L 278.527914 117.748293 
L 279.123868 119.399948 
L 279.731002 118.627912 
L 280.347879 116.970209 
L 280.932912 118.31652 
L 281.503715 113.874747 
L 282.10059 117.760973 
L 282.719011 119.06701 
L 283.288606 119.761614 
L 283.776348 115.020326 
L 284.34529 116.654965 
L 284.967123 113.883965 
L 285.556132 109.436515 
L 285.983532 107.587103 
L 286.48462 111.132763 
L 287.077692 42.895203 
" clip-path="url(#pfa495fe65b)" style="fill: none; stroke-dasharray: 3.7,1.6; stroke-dashoffset: 0; stroke: #f9ac92; stroke-opacity: 0.8"/>
   </g>
   <g id="line2d_30">
    <path d="M 48.244279 118.108279 
L 251.949509 118.108279 
" clip-path="url(#pfa495fe65b)" style="fill: none; stroke: #000000; stroke-width: 0.5; stroke-linecap: square"/>
   </g>
   <g id="patch_3">
    <path d="M 48.244279 193.570965 
L 48.244279 18.389729 
" style="fill: none; stroke: #000000; stroke-width: 0.5; stroke-linejoin: miter; stroke-linecap: square"/>
   </g>
   <g id="patch_4">
    <path d="M 251.949509 193.570965 
L 251.949509 18.389729 
" style="fill: none; stroke: #000000; stroke-width: 0.5; stroke-linejoin: miter; stroke-linecap: square"/>
   </g>
   <g id="patch_5">
    <path d="M 48.244279 193.570965 
L 251.949509 193.570965 
" style="fill: none; stroke: #000000; stroke-width: 0.5; stroke-linejoin: miter; stroke-linecap: square"/>
   </g>
   <g id="patch_6">
    <path d="M 48.244279 18.389729 
L 251.949509 18.389729 
" style="fill: none; stroke: #000000; stroke-width: 0.5; stroke-linejoin: miter; stroke-linecap: square"/>
   </g>
   <g id="text_12">
    <!-- $\xi_(x)$ -->
    <g transform="translate(140.692212 12.389729) scale(0.12 -0.12)">
     <defs>
      <path id="rtxmi-18" d="M 2982 3814 
C 2982 3904 2950 3961 2842 3961 
C 2400 3961 2170 3552 1920 3552 
C 1741 3552 1696 3718 1696 3846 
C 1696 4019 1907 4153 2003 4204 
L 1670 4204 
C 1664 4204 1446 4070 1446 3852 
C 1446 3571 1606 3526 1741 3456 
L 1741 3449 
C 1734 3449 666 3178 666 2496 
C 666 1952 1318 1920 1325 1920 
L 1325 1894 
C 1318 1894 -45 1619 -45 632 
C -45 38 435 -129 934 -129 
C 1395 -129 1811 -142 1811 -470 
C 1811 -889 1331 -1191 998 -1191 
C 755 -1191 742 -974 742 -896 
C 672 -929 435 -1040 435 -1184 
C 435 -1293 602 -1344 710 -1344 
C 1472 -1344 2054 -955 2054 -240 
C 2054 211 1581 256 1286 256 
C 832 256 589 453 589 784 
C 589 1473 1267 1792 1670 1792 
C 2029 1792 2189 1721 2291 1721 
C 2451 1721 2611 1811 2611 2022 
C 2611 2139 2592 2197 2451 2197 
C 2272 2197 2080 2035 1632 2035 
C 1254 2035 1216 2295 1216 2470 
C 1216 3074 1869 3379 1875 3379 
C 2074 3340 2234 3328 2368 3328 
C 2886 3328 2982 3584 2982 3814 
z
" transform="scale(0.015625)"/>
      <path id="CMSSI17-78" d="M 1888 1420 
L 3245 2752 
L 2682 2752 
L 1811 1856 
C 1786 1830 1760 1804 1747 1785 
L 1184 2752 
L 621 2752 
L 1440 1420 
L 0 0 
L 557 0 
L 1600 1126 
L 2195 0 
L 2758 0 
L 1888 1420 
z
" transform="scale(0.015625)"/>
     </defs>
     <use xlink:href="#rtxmi-18" transform="scale(0.996264)"/>
     <use xlink:href="#NimbusRomNo9L-Regu-28" transform="translate(43.536765 -14.943915) scale(0.697382)"/>
     <use xlink:href="#CMSSI17-78" transform="translate(67.257717 0) scale(0.996264)"/>
     <use xlink:href="#NimbusRomNo9L-Regu-29" transform="translate(119.113748 0) scale(0.996264)"/>
    </g>
   </g>
  </g>
  <g id="axes_2">
   <g id="patch_7">
    <path d="M 262.13477 193.570965 
L 465.84 193.570965 
L 465.84 18.389729 
L 262.13477 18.389729 
z
" style="fill: #ffffff"/>
   </g>
   <g id="matplotlib.axis_3">
    <g id="xtick_12">
     <g id="line2d_31">
      <g>
       <use xlink:href="#ma22065d6a6" x="386.945355" y="193.570965" style="stroke: #000000; stroke-width: 0.8"/>
      </g>
     </g>
     <g id="text_13">
      <!-- $\mathdefault{10^{-1}}$ -->
      <g transform="translate(378.002891 207.295732) scale(0.1 -0.1)">
       <use xlink:href="#NimbusRomNo9L-Regu-31" transform="scale(0.996264)"/>
       <use xlink:href="#NimbusRomNo9L-Regu-30" transform="translate(49.8132 0) scale(0.996264)"/>
       <use xlink:href="#txsy-0" transform="translate(99.626401 36.164371) scale(0.697382)"/>
       <use xlink:href="#NimbusRomNo9L-Regu-31" transform="translate(143.979851 36.164371) scale(0.697382)"/>
      </g>
     </g>
    </g>
    <g id="xtick_13">
     <g id="line2d_32">
      <g>
       <use xlink:href="#m73eb526da2" x="292.204827" y="193.570965" style="stroke: #000000; stroke-width: 0.6"/>
      </g>
     </g>
    </g>
    <g id="xtick_14">
     <g id="line2d_33">
      <g>
       <use xlink:href="#m73eb526da2" x="316.072774" y="193.570965" style="stroke: #000000; stroke-width: 0.6"/>
      </g>
     </g>
    </g>
    <g id="xtick_15">
     <g id="line2d_34">
      <g>
       <use xlink:href="#m73eb526da2" x="333.007351" y="193.570965" style="stroke: #000000; stroke-width: 0.6"/>
      </g>
     </g>
    </g>
    <g id="xtick_16">
     <g id="line2d_35">
      <g>
       <use xlink:href="#m73eb526da2" x="346.14283" y="193.570965" style="stroke: #000000; stroke-width: 0.6"/>
      </g>
     </g>
    </g>
    <g id="xtick_17">
     <g id="line2d_36">
      <g>
       <use xlink:href="#m73eb526da2" x="356.875298" y="193.570965" style="stroke: #000000; stroke-width: 0.6"/>
      </g>
     </g>
    </g>
    <g id="xtick_18">
     <g id="line2d_37">
      <g>
       <use xlink:href="#m73eb526da2" x="365.94947" y="193.570965" style="stroke: #000000; stroke-width: 0.6"/>
      </g>
     </g>
    </g>
    <g id="xtick_19">
     <g id="line2d_38">
      <g>
       <use xlink:href="#m73eb526da2" x="373.809876" y="193.570965" style="stroke: #000000; stroke-width: 0.6"/>
      </g>
     </g>
    </g>
    <g id="xtick_20">
     <g id="line2d_39">
      <g>
       <use xlink:href="#m73eb526da2" x="380.743245" y="193.570965" style="stroke: #000000; stroke-width: 0.6"/>
      </g>
     </g>
    </g>
    <g id="xtick_21">
     <g id="line2d_40">
      <g>
       <use xlink:href="#m73eb526da2" x="427.74788" y="193.570965" style="stroke: #000000; stroke-width: 0.6"/>
      </g>
     </g>
    </g>
    <g id="xtick_22">
     <g id="line2d_41">
      <g>
       <use xlink:href="#m73eb526da2" x="451.615826" y="193.570965" style="stroke: #000000; stroke-width: 0.6"/>
      </g>
     </g>
    </g>
    <g id="text_14">
     <!-- $k$ [$h \ \mathrm{Mpc}^{-1}$] -->
     <g transform="translate(339.325404 222.128081) scale(0.1 -0.1)">
      <use xlink:href="#CMSSI17-6b" transform="scale(0.996264)"/>
      <use xlink:href="#NimbusRomNo9L-Regu-5b" transform="translate(78.584276 0) scale(0.996264)"/>
      <use xlink:href="#CMSSI17-68" transform="translate(111.759886 0) scale(0.996264)"/>
      <use xlink:href="#NimbusRomNo9L-Regu-4d" transform="translate(187.019913 0) scale(0.996264)"/>
      <use xlink:href="#NimbusRomNo9L-Regu-70" transform="translate(275.587777 0) scale(0.996264)"/>
      <use xlink:href="#NimbusRomNo9L-Regu-63" transform="translate(325.400977 0) scale(0.996264)"/>
      <use xlink:href="#txsy-0" transform="translate(369.635124 39.73112) scale(0.697382)"/>
      <use xlink:href="#NimbusRomNo9L-Regu-31" transform="translate(413.988574 39.73112) scale(0.697382)"/>
      <use xlink:href="#NimbusRomNo9L-Regu-5d" transform="translate(449.355794 0) scale(0.996264)"/>
     </g>
    </g>
   </g>
   <g id="matplotlib.axis_4">
    <g id="ytick_9">
     <g id="line2d_42">
      <g>
       <use xlink:href="#m40da89d1cf" x="262.13477" y="185.485677" style="stroke: #000000; stroke-width: 0.8"/>
      </g>
     </g>
    </g>
    <g id="ytick_10">
     <g id="line2d_43">
      <g>
       <use xlink:href="#m40da89d1cf" x="262.13477" y="163.026545" style="stroke: #000000; stroke-width: 0.8"/>
      </g>
     </g>
    </g>
    <g id="ytick_11">
     <g id="line2d_44">
      <g>
       <use xlink:href="#m40da89d1cf" x="262.13477" y="140.567412" style="stroke: #000000; stroke-width: 0.8"/>
      </g>
     </g>
    </g>
    <g id="ytick_12">
     <g id="line2d_45">
      <g>
       <use xlink:href="#m40da89d1cf" x="262.13477" y="118.108279" style="stroke: #000000; stroke-width: 0.8"/>
      </g>
     </g>
    </g>
    <g id="ytick_13">
     <g id="line2d_46">
      <g>
       <use xlink:href="#m40da89d1cf" x="262.13477" y="95.649146" style="stroke: #000000; stroke-width: 0.8"/>
      </g>
     </g>
    </g>
    <g id="ytick_14">
     <g id="line2d_47">
      <g>
       <use xlink:href="#m40da89d1cf" x="262.13477" y="73.190013" style="stroke: #000000; stroke-width: 0.8"/>
      </g>
     </g>
    </g>
    <g id="ytick_15">
     <g id="line2d_48">
      <g>
       <use xlink:href="#m40da89d1cf" x="262.13477" y="50.730881" style="stroke: #000000; stroke-width: 0.8"/>
      </g>
     </g>
    </g>
    <g id="ytick_16">
     <g id="line2d_49">
      <g>
       <use xlink:href="#m40da89d1cf" x="262.13477" y="28.271748" style="stroke: #000000; stroke-width: 0.8"/>
      </g>
     </g>
    </g>
   </g>
   <g id="line2d_50">
    <path d="M 244.540096 72.408001 
L 275.579938 56.81782 
L 296.319212 49.507665 
L 311.666954 51.263214 
L 324.045159 46.046219 
L 333.707887 48.192963 
L 342.208159 47.275243 
L 349.664148 48.870312 
L 356.336797 48.744846 
L 362.273355 47.397332 
L 367.580231 52.856053 
L 372.529416 53.929309 
L 377.173225 54.1575 
L 381.37335 58.794828 
L 385.278386 62.873674 
L 388.956937 66.653841 
L 392.426008 71.303336 
L 395.709741 73.285926 
L 398.827627 76.435342 
L 401.789607 77.325687 
L 404.589421 79.616229 
L 407.252304 82.985509 
L 409.829271 84.326521 
L 412.280823 87.283823 
L 414.636587 90.915966 
L 416.920839 93.690682 
L 419.115351 95.36997 
L 421.210105 96.089336 
L 423.233472 97.607791 
L 425.185433 98.552196 
L 427.093493 99.967294 
L 428.940626 102.302195 
L 430.730262 104.516677 
L 432.466244 104.671284 
L 434.147747 105.127379 
L 435.785865 106.712845 
L 437.369676 107.389035 
L 438.918015 108.727948 
L 440.430867 108.484992 
L 441.898632 108.615956 
L 443.335346 110.272778 
L 444.739618 111.456153 
L 446.116402 110.526464 
L 447.460463 110.765722 
L 448.768965 110.478435 
L 450.04243 112.51074 
L 451.290182 111.517857 
L 452.518976 111.750253 
L 453.721956 112.265052 
L 454.900705 112.324767 
L 456.058685 112.072322 
L 457.193633 113.279856 
L 458.307594 112.911302 
L 459.392541 113.981523 
L 460.462138 113.658703 
L 461.515228 114.31862 
L 462.542833 114.187099 
L 463.55833 114.438877 
L 464.557087 114.25077 
L 465.541124 114.779129 
L 466.507148 114.068121 
L 467.453293 114.214648 
L 468.392204 114.425796 
L 469.311534 115.150305 
L 470.216856 115.971426 
L 471.109457 115.735031 
L 471.16 115.776966 
" clip-path="url(#pfe5bb76b67)" style="fill: none; stroke: #1c5a62; stroke-opacity: 0.4; stroke-linecap: square"/>
   </g>
   <g id="line2d_51">
    <path d="M 244.540096 28.404431 
L 275.579938 28.548947 
L 296.319212 28.625155 
L 311.666954 29.142855 
L 324.045159 29.277988 
L 333.707887 29.988723 
L 342.208159 30.122075 
L 349.664148 30.711576 
L 356.336797 31.238407 
L 362.273355 31.226976 
L 367.580231 32.469913 
L 372.529416 32.612767 
L 377.173225 33.1784 
L 381.37335 34.389509 
L 385.278386 35.232393 
L 388.956937 36.976973 
L 392.426008 37.195451 
L 395.709741 38.191248 
L 398.827627 39.162636 
L 401.789607 39.762155 
L 404.589421 40.348757 
L 407.252304 41.782941 
L 409.829271 43.288502 
L 412.280823 44.784876 
L 414.636587 46.320232 
L 416.920839 47.228563 
L 419.115351 48.930787 
L 421.210105 50.050949 
L 423.233472 50.945234 
L 425.185433 52.342329 
L 427.093493 54.008992 
L 428.940626 55.46951 
L 430.730262 57.674125 
L 432.466244 59.373076 
L 434.147747 60.471664 
L 435.785865 61.827322 
L 437.369676 64.047481 
L 438.918015 65.373408 
L 440.430867 66.488774 
L 441.898632 68.546659 
L 443.335346 69.60018 
L 444.739618 72.581592 
L 446.116402 72.582001 
L 447.460463 74.822917 
L 448.768965 76.021422 
L 450.04243 77.568764 
L 451.290182 77.530736 
L 452.518976 79.622856 
L 453.721956 81.596366 
L 454.900705 81.998952 
L 456.058685 83.519625 
L 457.193633 84.815838 
L 458.307594 85.343273 
L 459.392541 86.214003 
L 460.462138 88.542315 
L 461.515228 87.575261 
L 462.542833 89.205411 
L 463.55833 90.548857 
L 464.557087 90.680264 
L 465.541124 90.995964 
L 466.507148 91.37841 
L 467.453293 93.167383 
L 468.392204 93.486409 
L 469.311534 94.085754 
L 470.216856 96.292191 
L 471.109457 98.612329 
L 471.16 98.639815 
" clip-path="url(#pfe5bb76b67)" style="fill: none; stroke-dasharray: 3.7,1.6; stroke-dashoffset: 0; stroke: #f9ac92; stroke-opacity: 0.8"/>
   </g>
   <g id="line2d_52">
    <path d="M 244.540096 72.383543 
L 275.579938 57.034074 
L 296.319212 49.56244 
L 311.666954 51.276258 
L 324.045159 46.078249 
L 333.707887 48.249214 
L 342.208159 47.240702 
L 349.664148 48.872446 
L 356.336797 48.749882 
L 362.273355 47.377324 
L 367.580231 52.871061 
L 372.529416 53.929559 
L 377.173225 54.162037 
L 381.37335 58.76842 
L 385.278386 62.850783 
L 388.956937 66.604159 
L 392.426008 71.299345 
L 395.709741 73.260972 
L 398.827627 76.367761 
L 401.789607 77.312077 
L 404.589421 79.630834 
L 407.252304 82.970746 
L 409.829271 84.289227 
L 412.280823 87.329267 
L 414.636587 90.915116 
L 416.920839 93.675534 
L 419.115351 95.358477 
L 421.210105 96.079731 
L 423.233472 97.573934 
L 425.185433 98.549859 
L 427.093493 99.998668 
L 428.940626 102.284212 
L 430.730262 104.53057 
L 432.466244 104.666162 
L 434.147747 105.149366 
L 435.785865 106.713187 
L 437.369676 107.365618 
L 438.918015 108.729646 
L 440.430867 108.499143 
L 441.898632 108.597129 
L 443.335346 110.266302 
L 444.739618 111.475184 
L 446.116402 110.519023 
L 447.460463 110.797793 
L 448.768965 110.48958 
L 450.04243 112.485267 
L 451.290182 111.516098 
L 452.518976 111.743618 
L 453.721956 112.261711 
L 454.900705 112.334797 
L 456.058685 112.101446 
L 457.193633 113.25907 
L 458.307594 112.88674 
L 459.392541 113.985468 
L 460.462138 113.668015 
L 461.515228 114.28729 
L 462.542833 114.184317 
L 463.55833 114.428714 
L 464.557087 114.258352 
L 465.541124 114.76883 
L 466.507148 114.065005 
L 467.453293 114.251918 
L 468.392204 114.400136 
L 469.311534 115.151813 
L 470.216856 115.963894 
L 471.109457 115.746069 
L 471.16 115.787495 
" clip-path="url(#pfe5bb76b67)" style="fill: none; stroke: #1c5a62; stroke-opacity: 0.4; stroke-linecap: square"/>
   </g>
   <g id="line2d_53">
    <path d="M 244.540096 28.380063 
L 275.579938 28.566447 
L 296.319212 28.623646 
L 311.666954 29.203749 
L 324.045159 29.308052 
L 333.707887 30.044536 
L 342.208159 30.138322 
L 349.664148 30.741565 
L 356.336797 31.276732 
L 362.273355 31.228377 
L 367.580231 32.311414 
L 372.529416 32.577059 
L 377.173225 33.327464 
L 381.37335 34.312424 
L 385.278386 35.117363 
L 388.956937 36.670865 
L 392.426008 37.273081 
L 395.709741 38.258434 
L 398.827627 38.947021 
L 401.789607 39.737864 
L 404.589421 40.331242 
L 407.252304 41.660017 
L 409.829271 43.17301 
L 412.280823 44.626435 
L 414.636587 45.758498 
L 416.920839 47.497149 
L 419.115351 48.531205 
L 421.210105 50.435717 
L 423.233472 50.920055 
L 425.185433 52.139069 
L 427.093493 54.213594 
L 428.940626 55.082826 
L 430.730262 57.117461 
L 432.466244 59.492915 
L 434.147747 60.323166 
L 435.785865 62.01332 
L 437.369676 64.106578 
L 438.918015 65.497924 
L 440.430867 66.319785 
L 441.898632 68.742219 
L 443.335346 69.848925 
L 444.739618 72.654262 
L 446.116402 72.771818 
L 447.460463 74.866594 
L 448.768965 75.84023 
L 450.04243 77.689816 
L 451.290182 77.977978 
L 452.518976 79.748707 
L 453.721956 81.602055 
L 454.900705 82.067762 
L 456.058685 83.099103 
L 457.193633 84.232312 
L 458.307594 84.979145 
L 459.392541 85.667824 
L 460.462138 87.949737 
L 461.515228 87.530017 
L 462.542833 88.795433 
L 463.55833 90.239138 
L 464.557087 90.688036 
L 465.541124 91.447596 
L 466.507148 91.353852 
L 467.453293 93.516983 
L 468.392204 93.067925 
L 469.311534 93.630988 
L 470.216856 96.334848 
L 471.109457 97.900704 
L 471.16 97.964613 
" clip-path="url(#pfe5bb76b67)" style="fill: none; stroke-dasharray: 3.7,1.6; stroke-dashoffset: 0; stroke: #f9ac92; stroke-opacity: 0.8"/>
   </g>
   <g id="line2d_54">
    <path d="M 244.540096 72.579344 
L 275.579938 57.054077 
L 296.319212 49.612474 
L 311.666954 51.237803 
L 324.045159 46.023581 
L 333.707887 48.217329 
L 342.208159 47.178187 
L 349.664148 48.884616 
L 356.336797 48.743221 
L 362.273355 47.364933 
L 367.580231 52.836626 
L 372.529416 53.898412 
L 377.173225 54.167104 
L 381.37335 58.794092 
L 385.278386 62.861057 
L 388.956937 66.617951 
L 392.426008 71.289734 
L 395.709741 73.253993 
L 398.827627 76.3976 
L 401.789607 77.31561 
L 404.589421 79.597982 
L 407.252304 82.954992 
L 409.829271 84.295863 
L 412.280823 87.282094 
L 414.636587 90.930724 
L 416.920839 93.69467 
L 419.115351 95.359782 
L 421.210105 96.049013 
L 423.233472 97.562421 
L 425.185433 98.568162 
L 427.093493 99.984132 
L 428.940626 102.249699 
L 430.730262 104.526877 
L 432.466244 104.651666 
L 434.147747 105.142806 
L 435.785865 106.703642 
L 437.369676 107.358583 
L 438.918015 108.716937 
L 440.430867 108.470578 
L 441.898632 108.620488 
L 443.335346 110.265663 
L 444.739618 111.447183 
L 446.116402 110.539896 
L 447.460463 110.77524 
L 448.768965 110.474851 
L 450.04243 112.468908 
L 451.290182 111.519581 
L 452.518976 111.735193 
L 453.721956 112.265365 
L 454.900705 112.326462 
L 456.058685 112.088763 
L 457.193633 113.242701 
L 458.307594 112.894362 
L 459.392541 113.976187 
L 460.462138 113.678534 
L 461.515228 114.296611 
L 462.542833 114.189185 
L 463.55833 114.44544 
L 464.557087 114.182889 
L 465.541124 114.738169 
L 466.507148 114.039921 
L 467.453293 114.228252 
L 468.392204 114.398468 
L 469.311534 115.137231 
L 470.216856 115.947618 
L 471.109457 115.715669 
L 471.16 115.758019 
" clip-path="url(#pfe5bb76b67)" style="fill: none; stroke: #1c5a62; stroke-opacity: 0.4; stroke-linecap: square"/>
   </g>
   <g id="line2d_55">
    <path d="M 244.540096 28.360981 
L 275.579938 28.543381 
L 296.319212 28.600964 
L 311.666954 29.224232 
L 324.045159 29.361177 
L 333.707887 29.980927 
L 342.208159 30.085979 
L 349.664148 30.787486 
L 356.336797 31.258257 
L 362.273355 31.264641 
L 367.580231 32.289036 
L 372.529416 32.532221 
L 377.173225 33.165093 
L 381.37335 34.182343 
L 385.278386 35.084235 
L 388.956937 36.593663 
L 392.426008 37.10934 
L 395.709741 38.317202 
L 398.827627 38.923169 
L 401.789607 39.606082 
L 404.589421 40.44757 
L 407.252304 41.698775 
L 409.829271 43.177396 
L 412.280823 44.681514 
L 414.636587 45.785395 
L 416.920839 48.012779 
L 419.115351 48.583201 
L 421.210105 50.077147 
L 423.233472 50.79353 
L 425.185433 52.346332 
L 427.093493 54.288221 
L 428.940626 55.240712 
L 430.730262 57.182502 
L 432.466244 59.609878 
L 434.147747 60.450766 
L 435.785865 61.938735 
L 437.369676 64.427121 
L 438.918015 65.299093 
L 440.430867 66.657095 
L 441.898632 68.701471 
L 443.335346 69.386637 
L 444.739618 72.229279 
L 446.116402 72.896498 
L 447.460463 74.876417 
L 448.768965 75.485133 
L 450.04243 77.607729 
L 451.290182 77.387262 
L 452.518976 79.690213 
L 453.721956 81.677473 
L 454.900705 82.290862 
L 456.058685 82.922458 
L 457.193633 84.405132 
L 458.307594 84.994867 
L 459.392541 85.945146 
L 460.462138 87.885059 
L 461.515228 87.606703 
L 462.542833 88.924425 
L 463.55833 90.129271 
L 464.557087 90.479831 
L 465.541124 91.503077 
L 466.507148 91.472732 
L 467.453293 93.688668 
L 468.392204 93.083484 
L 469.311534 94.008357 
L 470.216856 96.41266 
L 471.109457 98.27107 
L 471.16 98.332236 
" clip-path="url(#pfe5bb76b67)" style="fill: none; stroke-dasharray: 3.7,1.6; stroke-dashoffset: 0; stroke: #f9ac92; stroke-opacity: 0.8"/>
   </g>
   <g id="line2d_56">
    <path d="M 244.540096 71.731995 
L 275.579938 56.999476 
L 296.319212 49.674743 
L 311.666954 51.234401 
L 324.045159 46.054686 
L 333.707887 48.180103 
L 342.208159 47.174914 
L 349.664148 48.887956 
L 356.336797 48.725212 
L 362.273355 47.348592 
L 367.580231 52.836756 
L 372.529416 53.929155 
L 377.173225 54.170018 
L 381.37335 58.792796 
L 385.278386 62.876455 
L 388.956937 66.542636 
L 392.426008 71.317797 
L 395.709741 73.270798 
L 398.827627 76.40059 
L 401.789607 77.313111 
L 404.589421 79.564629 
L 407.252304 82.926313 
L 409.829271 84.238288 
L 412.280823 87.273876 
L 414.636587 90.91914 
L 416.920839 93.681202 
L 419.115351 95.305305 
L 421.210105 96.070441 
L 423.233472 97.590638 
L 425.185433 98.578075 
L 427.093493 99.962404 
L 428.940626 102.25194 
L 430.730262 104.505488 
L 432.466244 104.631978 
L 434.147747 105.137337 
L 435.785865 106.667701 
L 437.369676 107.34407 
L 438.918015 108.730005 
L 440.430867 108.451087 
L 441.898632 108.596651 
L 443.335346 110.261842 
L 444.739618 111.439165 
L 446.116402 110.537934 
L 447.460463 110.722632 
L 448.768965 110.472228 
L 450.04243 112.528123 
L 451.290182 111.508957 
L 452.518976 111.745769 
L 453.721956 112.269967 
L 454.900705 112.332078 
L 456.058685 112.046605 
L 457.193633 113.213112 
L 458.307594 112.867056 
L 459.392541 113.991825 
L 460.462138 113.705177 
L 461.515228 114.280698 
L 462.542833 114.180531 
L 463.55833 114.474792 
L 464.557087 114.184674 
L 465.541124 114.736349 
L 466.507148 114.045745 
L 467.453293 114.26132 
L 468.392204 114.434188 
L 469.311534 115.123551 
L 470.216856 115.9757 
L 471.109457 115.720951 
L 471.16 115.761457 
" clip-path="url(#pfe5bb76b67)" style="fill: none; stroke: #1c5a62; stroke-opacity: 0.4; stroke-linecap: square"/>
   </g>
   <g id="line2d_57">
    <path d="M 244.540096 28.383661 
L 275.579938 28.508832 
L 296.319212 28.620092 
L 311.666954 29.199521 
L 324.045159 29.332665 
L 333.707887 29.995314 
L 342.208159 30.150499 
L 349.664148 30.625875 
L 356.336797 31.17682 
L 362.273355 31.318668 
L 367.580231 32.237768 
L 372.529416 32.479407 
L 377.173225 32.947406 
L 381.37335 34.173677 
L 385.278386 35.015922 
L 388.956937 36.489202 
L 392.426008 37.11945 
L 395.709741 38.334677 
L 398.827627 39.125241 
L 401.789607 39.402258 
L 404.589421 40.497715 
L 407.252304 41.614083 
L 409.829271 43.104923 
L 412.280823 44.767646 
L 414.636587 45.927802 
L 416.920839 47.508182 
L 419.115351 48.695307 
L 421.210105 49.765419 
L 423.233472 50.738809 
L 425.185433 52.602998 
L 427.093493 54.363038 
L 428.940626 55.387431 
L 430.730262 57.271319 
L 432.466244 59.754669 
L 434.147747 60.463988 
L 435.785865 61.946201 
L 437.369676 63.894754 
L 438.918015 65.288005 
L 440.430867 66.956942 
L 441.898632 68.581272 
L 443.335346 69.820348 
L 444.739618 72.358518 
L 446.116402 72.918043 
L 447.460463 74.884213 
L 448.768965 75.474641 
L 450.04243 77.724234 
L 451.290182 77.594643 
L 452.518976 79.444265 
L 453.721956 81.764978 
L 454.900705 82.168134 
L 456.058685 83.357364 
L 457.193633 84.339344 
L 458.307594 85.377755 
L 459.392541 86.038336 
L 460.462138 87.805868 
L 461.515228 87.448368 
L 462.542833 89.097134 
L 463.55833 89.974002 
L 464.557087 90.159914 
L 465.541124 91.665926 
L 466.507148 91.476863 
L 467.453293 93.454312 
L 468.392204 93.043713 
L 469.311534 94.100292 
L 470.216856 96.315553 
L 471.109457 98.449718 
L 471.16 98.511833 
" clip-path="url(#pfe5bb76b67)" style="fill: none; stroke-dasharray: 3.7,1.6; stroke-dashoffset: 0; stroke: #f9ac92; stroke-opacity: 0.8"/>
   </g>
   <g id="line2d_58">
    <path d="M 244.540096 72.40968 
L 275.579938 56.635159 
L 296.319212 49.723192 
L 311.666954 51.224771 
L 324.045159 45.985914 
L 333.707887 48.19656 
L 342.208159 47.166608 
L 349.664148 48.870198 
L 356.336797 48.69754 
L 362.273355 47.360165 
L 367.580231 52.828336 
L 372.529416 53.917932 
L 377.173225 54.133044 
L 381.37335 58.804595 
L 385.278386 62.886129 
L 388.956937 66.566432 
L 392.426008 71.266429 
L 395.709741 73.31075 
L 398.827627 76.392767 
L 401.789607 77.31034 
L 404.589421 79.544327 
L 407.252304 82.913858 
L 409.829271 84.191453 
L 412.280823 87.28931 
L 414.636587 90.908866 
L 416.920839 93.588961 
L 419.115351 95.28811 
L 421.210105 96.076051 
L 423.233472 97.598114 
L 425.185433 98.525473 
L 427.093493 99.972915 
L 428.940626 102.242275 
L 430.730262 104.476605 
L 432.466244 104.614179 
L 434.147747 105.160504 
L 435.785865 106.667552 
L 437.369676 107.336535 
L 438.918015 108.762878 
L 440.430867 108.475231 
L 441.898632 108.577841 
L 443.335346 110.241482 
L 444.739618 111.452024 
L 446.116402 110.544045 
L 447.460463 110.738676 
L 448.768965 110.515718 
L 450.04243 112.542664 
L 451.290182 111.502067 
L 452.518976 111.745402 
L 453.721956 112.251576 
L 454.900705 112.3442 
L 456.058685 112.019003 
L 457.193633 113.21516 
L 458.307594 112.871599 
L 459.392541 113.928167 
L 460.462138 113.717864 
L 461.515228 114.306188 
L 462.542833 114.161684 
L 463.55833 114.47261 
L 464.557087 114.131899 
L 465.541124 114.758424 
L 466.507148 114.052426 
L 467.453293 114.246396 
L 468.392204 114.454643 
L 469.311534 115.131494 
L 470.216856 115.948312 
L 471.109457 115.68943 
L 471.16 115.73242 
" clip-path="url(#pfe5bb76b67)" style="fill: none; stroke: #1c5a62; stroke-opacity: 0.4; stroke-linecap: square"/>
   </g>
   <g id="line2d_59">
    <path d="M 244.540096 28.389821 
L 275.579938 28.548651 
L 296.319212 28.623167 
L 311.666954 29.179672 
L 324.045159 29.291298 
L 333.707887 30.080528 
L 342.208159 30.084367 
L 349.664148 30.707112 
L 356.336797 31.174838 
L 362.273355 31.133051 
L 367.580231 32.383003 
L 372.529416 32.668153 
L 377.173225 33.178178 
L 381.37335 34.282376 
L 385.278386 35.02721 
L 388.956937 36.782261 
L 392.426008 37.380682 
L 395.709741 38.225821 
L 398.827627 39.167737 
L 401.789607 39.34466 
L 404.589421 40.686363 
L 407.252304 41.700146 
L 409.829271 42.82096 
L 412.280823 44.75217 
L 414.636587 45.99498 
L 416.920839 47.638657 
L 419.115351 48.514141 
L 421.210105 49.843119 
L 423.233472 51.152259 
L 425.185433 52.460847 
L 427.093493 54.429915 
L 428.940626 55.616067 
L 430.730262 57.241511 
L 432.466244 59.613865 
L 434.147747 60.362607 
L 435.785865 61.838108 
L 437.369676 63.776199 
L 438.918015 65.215119 
L 440.430867 66.918297 
L 441.898632 68.433909 
L 443.335346 70.136956 
L 444.739618 72.009738 
L 446.116402 72.641918 
L 447.460463 74.678489 
L 448.768965 75.457347 
L 450.04243 77.705375 
L 451.290182 77.688789 
L 452.518976 79.461569 
L 453.721956 81.58004 
L 454.900705 82.231268 
L 456.058685 83.934062 
L 457.193633 84.342385 
L 458.307594 85.230065 
L 459.392541 85.899895 
L 460.462138 87.662749 
L 461.515228 87.640708 
L 462.542833 88.892945 
L 463.55833 89.980749 
L 464.557087 90.255016 
L 465.541124 91.551746 
L 466.507148 91.419672 
L 467.453293 93.593901 
L 468.392204 92.859587 
L 469.311534 94.099439 
L 470.216856 96.061112 
L 471.109457 98.042152 
L 471.16 98.142525 
" clip-path="url(#pfe5bb76b67)" style="fill: none; stroke-dasharray: 3.7,1.6; stroke-dashoffset: 0; stroke: #f9ac92; stroke-opacity: 0.8"/>
   </g>
   <g id="line2d_60">
    <path d="M 262.13477 118.108279 
L 465.84 118.108279 
" clip-path="url(#pfe5bb76b67)" style="fill: none; stroke: #000000; stroke-width: 0.5; stroke-linecap: square"/>
   </g>
   <g id="patch_8">
    <path d="M 262.13477 193.570965 
L 262.13477 18.389729 
" style="fill: none; stroke: #000000; stroke-width: 0.5; stroke-linejoin: miter; stroke-linecap: square"/>
   </g>
   <g id="patch_9">
    <path d="M 465.84 193.570965 
L 465.84 18.389729 
" style="fill: none; stroke: #000000; stroke-width: 0.5; stroke-linejoin: miter; stroke-linecap: square"/>
   </g>
   <g id="patch_10">
    <path d="M 262.13477 193.570965 
L 465.84 193.570965 
" style="fill: none; stroke: #000000; stroke-width: 0.5; stroke-linejoin: miter; stroke-linecap: square"/>
   </g>
   <g id="patch_11">
    <path d="M 262.13477 18.389729 
L 465.84 18.389729 
" style="fill: none; stroke: #000000; stroke-width: 0.5; stroke-linejoin: miter; stroke-linecap: square"/>
   </g>
   <g id="text_15">
    <!-- $\delta_{\rm h}(x)$ -->
    <g transform="translate(351.759292 12.389729) scale(0.12 -0.12)">
     <defs>
      <path id="rtxmi-e" d="M 2957 3857 
C 2957 4057 2662 4224 2138 4224 
C 1626 4224 1210 3935 1210 3542 
C 1210 3117 1651 2653 1651 2647 
C 1645 2647 115 2395 115 933 
C 115 495 339 -103 986 -103 
C 1894 -103 2618 733 2618 1783 
C 2618 2853 1453 2988 1453 3613 
C 1453 3903 1792 4025 1997 4025 
C 2598 4025 2464 3658 2733 3658 
C 2867 3658 2957 3748 2957 3857 
z
M 2106 1571 
C 2106 740 1574 64 1139 64 
C 781 64 653 553 653 914 
C 653 2402 1766 2511 1773 2511 
C 1773 2505 2106 2093 2106 1571 
z
" transform="scale(0.015625)"/>
      <path id="NimbusRomNo9L-Regu-68" d="M 1005 2195 
C 1274 2489 1466 2598 1715 2598 
C 2035 2598 2195 2368 2195 1920 
L 2195 652 
C 2195 217 2131 134 1760 96 
L 1760 0 
L 3117 0 
L 3117 96 
C 2771 160 2733 211 2733 652 
L 2733 1926 
C 2733 2598 2464 2944 1946 2944 
C 1568 2944 1299 2790 1005 2406 
L 1005 4352 
L 973 4371 
C 755 4294 595 4243 237 4140 
L 64 4089 
L 64 3987 
C 90 3993 109 3993 141 3993 
C 416 3993 467 3942 467 3667 
L 467 652 
C 467 204 429 147 58 96 
L 58 0 
L 1440 0 
L 1440 96 
C 1069 134 1005 211 1005 652 
L 1005 2195 
z
" transform="scale(0.015625)"/>
     </defs>
     <use xlink:href="#rtxmi-e" transform="scale(0.996264)"/>
     <use xlink:href="#NimbusRomNo9L-Regu-68" transform="translate(46.326292 -14.943915) scale(0.697382)"/>
     <use xlink:href="#NimbusRomNo9L-Regu-28" transform="translate(81.693512 0) scale(0.996264)"/>
     <use xlink:href="#CMSSI17-78" transform="translate(114.869122 0) scale(0.996264)"/>
     <use xlink:href="#NimbusRomNo9L-Regu-29" transform="translate(166.725153 0) scale(0.996264)"/>
    </g>
   </g>
  </g>
  <g id="legend_1">
   <g id="patch_12">
    <path d="M 144.255721 254.236 
L 325.904279 254.236 
Q 327.904279 254.236 327.904279 252.236 
L 327.904279 239.084081 
Q 327.904279 237.084081 325.904279 237.084081 
L 144.255721 237.084081 
Q 142.255721 237.084081 142.255721 239.084081 
L 142.255721 252.236 
Q 142.255721 254.236 144.255721 254.236 
z
" style="fill: #ffffff; opacity: 0.8; stroke: #cccccc; stroke-linejoin: miter"/>
   </g>
   <g id="line2d_61">
    <path d="M 146.255721 244.584081 
L 156.255721 244.584081 
L 166.255721 244.584081 
" style="fill: none; stroke: #1c5a62; stroke-linecap: square"/>
   </g>
   <g id="text_16">
    <!-- $\texttt{BORG}$ -->
    <g transform="translate(174.255721 248.084081) scale(0.1 -0.1)">
     <defs>
      <path id="txtt-42" d="M 3104 1027 
C 3104 1575 2650 1964 2138 2073 
C 2573 2188 2931 2590 2931 3049 
C 2931 3718 2291 3987 1709 3987 
L 179 3987 
L 179 3584 
L 582 3584 
L 582 403 
L 179 403 
L 179 0 
L 1638 0 
C 2323 0 3104 192 3104 1027 
z
M 2394 2959 
C 2394 2424 1747 2240 1306 2240 
L 1126 2240 
L 1126 3584 
L 1523 3584 
C 1907 3584 2394 3418 2394 2959 
z
M 2534 1040 
C 2534 600 2144 403 1747 403 
L 1126 403 
L 1126 1875 
L 1318 1875 
C 1805 1875 2534 1620 2534 1040 
z
" transform="scale(0.015625)"/>
      <path id="txtt-4f" d="M 3187 2006 
C 3187 2945 2726 4096 1677 4096 
C 621 4096 166 2951 166 2006 
C 166 1054 614 -64 1677 -64 
C 2733 -64 3187 1061 3187 2006 
z
M 2618 2006 
C 2618 1393 2445 332 1677 332 
C 909 332 742 1393 742 2006 
C 742 2619 909 3686 1677 3686 
C 2445 3686 2618 2619 2618 2006 
z
" transform="scale(0.015625)"/>
      <path id="txtt-52" d="M 3328 0 
L 3328 403 
L 3014 403 
L 2093 1843 
C 2554 2067 2886 2486 2886 3025 
C 2886 3795 2131 3987 1536 3987 
L 154 3987 
L 154 3584 
L 557 3584 
L 557 403 
L 154 403 
L 154 0 
L 1498 0 
L 1498 403 
L 1094 403 
L 1094 1708 
L 1581 1708 
L 2682 0 
L 3328 0 
z
M 2310 2936 
C 2310 2422 1818 2112 1376 2112 
L 1094 2112 
L 1094 3584 
L 1446 3584 
C 1837 3584 2310 3450 2310 2936 
z
" transform="scale(0.015625)"/>
      <path id="txtt-47" d="M 3251 1452 
L 3251 1856 
L 1984 1856 
L 1984 1452 
L 2515 1452 
L 2515 397 
C 2400 377 2278 364 2163 364 
C 1344 364 762 1214 762 2033 
C 762 2764 1210 3686 2003 3686 
C 2202 3686 2406 3654 2598 3597 
L 2598 3273 
L 3002 3273 
L 3002 3929 
C 2682 4025 2349 4096 2016 4096 
C 915 4096 192 3088 192 2002 
C 192 918 941 -64 2016 -64 
C 2368 -64 2714 0 3046 102 
L 3046 1452 
L 3251 1452 
z
" transform="scale(0.015625)"/>
     </defs>
     <use xlink:href="#txtt-42" transform="scale(0.996264)"/>
     <use xlink:href="#txtt-4f" transform="translate(52.303815 0) scale(0.996264)"/>
     <use xlink:href="#txtt-52" transform="translate(104.60763 0) scale(0.996264)"/>
     <use xlink:href="#txtt-47" transform="translate(156.911445 0) scale(0.996264)"/>
    </g>
   </g>
   <g id="line2d_62">
    <path d="M 215.177205 244.584081 
L 225.177205 244.584081 
L 235.177205 244.584081 
" style="fill: none; stroke-dasharray: 3.7,1.6; stroke-dashoffset: 0; stroke: #f9ac92"/>
   </g>
   <g id="text_17">
    <!-- $\texttt{BORG}\ \&amp; \ \texttt{Robin-Pip}$ -->
    <g transform="translate(243.177205 248.084081) scale(0.1 -0.1)">
     <defs>
      <path id="NimbusRomNo9L-Regu-26" d="M 4550 2749 
L 3168 2749 
L 3168 2614 
C 3488 2582 3578 2518 3578 2326 
C 3578 2050 3405 1704 2995 1159 
C 2637 1602 2432 1929 2150 2480 
C 2586 2685 2746 2794 2925 2993 
C 3059 3140 3142 3364 3142 3576 
C 3142 4031 2784 4352 2278 4352 
C 1728 4352 1293 3916 1293 3364 
C 1293 3121 1344 2916 1517 2435 
L 1274 2294 
C 595 1903 269 1448 269 909 
C 269 300 685 -64 1363 -64 
C 1882 -64 2266 96 2746 518 
C 3149 102 3462 -64 3834 -64 
C 4243 -64 4608 204 4800 659 
L 4704 730 
C 4499 473 4358 390 4128 390 
C 3770 390 3437 589 3142 980 
C 3424 1358 3584 1595 3782 1941 
L 3949 2236 
C 4102 2499 4230 2576 4550 2615 
L 4550 2749 
z
M 2054 2685 
C 1862 3089 1798 3333 1798 3621 
C 1798 3929 1997 4147 2291 4147 
C 2586 4147 2803 3916 2803 3602 
C 2803 3243 2579 2967 2054 2685 
z
M 1613 2214 
C 1997 1484 2221 1132 2586 684 
C 2208 384 1952 268 1683 268 
C 1235 268 858 678 858 1171 
C 858 1580 1056 1856 1613 2214 
z
" transform="scale(0.015625)"/>
      <path id="txtt-6f" d="M 3066 1472 
C 3066 2343 2611 3008 1677 3008 
C 749 3008 282 2343 282 1472 
C 282 600 749 -64 1677 -64 
C 2611 -64 3066 600 3066 1472 
z
M 2502 1472 
C 2502 943 2310 332 1677 332 
C 1043 332 858 950 858 1472 
C 858 1993 1043 2604 1677 2604 
C 2310 2604 2502 2000 2502 1472 
z
" transform="scale(0.015625)"/>
      <path id="txtt-62" d="M 3078 1567 
C 3078 2248 2803 3008 1997 3008 
C 1574 3008 1248 2732 1030 2388 
L 1030 4288 
L 90 4288 
L 90 3884 
L 493 3884 
L 493 -26 
L 902 -26 
L 1030 332 
C 1235 96 1530 -64 1843 -64 
C 2726 -64 3078 816 3078 1567 
z
M 2509 1510 
C 2509 1032 2374 332 1766 332 
C 1472 332 1222 530 1030 733 
L 1030 1980 
C 1229 2267 1517 2547 1888 2547 
C 2438 2547 2509 1930 2509 1510 
z
" transform="scale(0.015625)"/>
      <path id="txtt-69" d="M 2016 3609 
L 2016 4288 
L 1344 4288 
L 1344 3609 
L 2016 3609 
z
M 2790 0 
L 2790 403 
L 1946 403 
L 1946 2944 
L 531 2944 
L 531 2540 
L 1408 2540 
L 1408 403 
L 467 403 
L 467 0 
L 2790 0 
z
" transform="scale(0.015625)"/>
      <path id="txtt-6e" d="M 3290 0 
L 3290 403 
L 2842 403 
L 2842 2017 
C 2842 2585 2630 3014 1997 3014 
C 1549 3014 1274 2758 1056 2394 
L 1056 2944 
L 70 2944 
L 70 2540 
L 518 2540 
L 518 403 
L 70 403 
L 70 0 
L 1504 0 
L 1504 403 
L 1056 403 
L 1056 1928 
C 1242 2183 1478 2502 1830 2502 
C 2246 2502 2298 2209 2298 1864 
L 2298 0 
L 3290 0 
z
" transform="scale(0.015625)"/>
      <path id="txtt-2d" d="M 2784 1472 
L 2784 1830 
L 576 1830 
L 576 1472 
L 2784 1472 
z
" transform="scale(0.015625)"/>
      <path id="txtt-50" d="M 3110 2876 
C 3110 3763 2438 3987 1715 3987 
L 179 3987 
L 179 3584 
L 582 3584 
L 582 403 
L 179 403 
L 179 0 
L 1523 0 
L 1523 403 
L 1120 403 
L 1120 1576 
C 1946 1576 3110 1760 3110 2876 
z
M 2541 2863 
C 2541 2232 1971 1977 1453 1977 
L 1120 1977 
L 1120 3584 
L 1651 3584 
C 2080 3584 2541 3399 2541 2863 
z
" transform="scale(0.015625)"/>
      <path id="txtt-70" d="M 3091 1570 
C 3091 2253 2822 3014 2016 3014 
C 1594 3014 1261 2739 1050 2394 
L 1050 2944 
L 128 2944 
L 128 2540 
L 512 2540 
L 512 -685 
L 128 -685 
L 128 -1088 
L 1434 -1088 
L 1434 -685 
L 1050 -685 
L 1050 332 
C 1254 83 1536 -64 1856 -64 
C 2739 -64 3091 817 3091 1570 
z
M 2528 1513 
C 2528 1028 2394 332 1779 332 
C 1491 332 1235 530 1050 734 
L 1050 1985 
C 1248 2272 1530 2553 1901 2553 
C 2451 2553 2528 1934 2528 1513 
z
" transform="scale(0.015625)"/>
     </defs>
     <use xlink:href="#txtt-42" transform="scale(0.996264)"/>
     <use xlink:href="#txtt-4f" transform="translate(52.303815 0) scale(0.996264)"/>
     <use xlink:href="#txtt-52" transform="translate(104.60763 0) scale(0.996264)"/>
     <use xlink:href="#txtt-47" transform="translate(156.911445 0) scale(0.996264)"/>
     <use xlink:href="#NimbusRomNo9L-Regu-26" transform="translate(234.12186 0) scale(0.996264)"/>
     <use xlink:href="#txtt-52" transform="translate(336.537788 0) scale(0.996264)"/>
     <use xlink:href="#txtt-6f" transform="translate(388.841603 0) scale(0.996264)"/>
     <use xlink:href="#txtt-62" transform="translate(441.145418 0) scale(0.996264)"/>
     <use xlink:href="#txtt-69" transform="translate(493.449233 0) scale(0.996264)"/>
     <use xlink:href="#txtt-6e" transform="translate(545.753048 0) scale(0.996264)"/>
     <use xlink:href="#txtt-2d" transform="translate(598.056863 0) scale(0.996264)"/>
     <use xlink:href="#txtt-50" transform="translate(650.360677 0) scale(0.996264)"/>
     <use xlink:href="#txtt-69" transform="translate(702.664492 0) scale(0.996264)"/>
     <use xlink:href="#txtt-70" transform="translate(754.968307 0) scale(0.996264)"/>
    </g>
   </g>
  </g>
 </g>
 <defs>
  <clipPath id="pfa495fe65b">
   <rect x="48.244279" y="18.389729" width="203.70523" height="175.181236"/>
  </clipPath>
  <clipPath id="pfe5bb76b67">
   <rect x="262.13477" y="18.389729" width="203.70523" height="175.181236"/>
  </clipPath>
 </defs>
</svg>
