<?xml version="1.0" encoding="utf-8" standalone="no"?>
<!DOCTYPE svg PUBLIC "-//W3C//DTD SVG 1.1//EN"
  "http://www.w3.org/Graphics/SVG/1.1/DTD/svg11.dtd">
<svg xmlns:xlink="http://www.w3.org/1999/xlink" width="723.710726pt" height="327.020767pt" viewBox="0 0 723.710726 327.020767" xmlns="http://www.w3.org/2000/svg" version="1.1">
 <metadata>
  <rdf:RDF xmlns:dc="http://purl.org/dc/elements/1.1/" xmlns:cc="http://creativecommons.org/ns#" xmlns:rdf="http://www.w3.org/1999/02/22-rdf-syntax-ns#">
   <cc:Work>
    <dc:type rdf:resource="http://purl.org/dc/dcmitype/StillImage"/>
    <dc:date>2025-01-27T11:21:33.938994</dc:date>
    <dc:format>image/svg+xml</dc:format>
    <dc:creator>
     <cc:Agent>
      <dc:title>Matplotlib v3.9.2, https://matplotlib.org/</dc:title>
     </cc:Agent>
    </dc:creator>
   </cc:Work>
  </rdf:RDF>
 </metadata>
 <defs>
  <style type="text/css">*{stroke-linejoin: round; stroke-linecap: butt}</style>
 </defs>
 <g id="figure_1">
  <g id="patch_1">
   <path d="M 0 327.020767 
L 723.710726 327.020767 
L 723.710726 0 
L 0 0 
z
" style="fill: #ffffff"/>
  </g>
  <g id="axes_1">
   <g id="patch_2">
    <path d="M 49.790726 281.52 
L 719.390726 281.52 
L 719.390726 4.32 
L 49.790726 4.32 
z
" style="fill: #ffffff"/>
   </g>
   <g id="PathCollection_1">
    <defs>
     <path id="m4e96ea71cc" d="M 0 1.581139 
C 0.419323 1.581139 0.821528 1.41454 1.118034 1.118034 
C 1.41454 0.821528 1.581139 0.419323 1.581139 0 
C 1.581139 -0.419323 1.41454 -0.821528 1.118034 -1.118034 
C 0.821528 -1.41454 0.419323 -1.581139 0 -1.581139 
C -0.419323 -1.581139 -0.821528 -1.41454 -1.118034 -1.118034 
C -1.41454 -0.821528 -1.581139 -0.419323 -1.581139 0 
C -1.581139 0.419323 -1.41454 0.821528 -1.118034 1.118034 
C -0.821528 1.41454 -0.419323 1.581139 0 1.581139 
z
" style="stroke: #1f77b4"/>
    </defs>
    <g clip-path="url(#p298d2d31b5)">
     <use xlink:href="#m4e96ea71cc" x="80.227089" y="135.633552" style="fill: #1f77b4; stroke: #1f77b4"/>
     <use xlink:href="#m4e96ea71cc" x="82.664436" y="119.656865" style="fill: #1f77b4; stroke: #1f77b4"/>
     <use xlink:href="#m4e96ea71cc" x="85.101782" y="114.814528" style="fill: #1f77b4; stroke: #1f77b4"/>
     <use xlink:href="#m4e96ea71cc" x="87.539129" y="110.323703" style="fill: #1f77b4; stroke: #1f77b4"/>
     <use xlink:href="#m4e96ea71cc" x="89.976475" y="103.632687" style="fill: #1f77b4; stroke: #1f77b4"/>
     <use xlink:href="#m4e96ea71cc" x="92.413821" y="101.977803" style="fill: #1f77b4; stroke: #1f77b4"/>
     <use xlink:href="#m4e96ea71cc" x="94.851168" y="103.128169" style="fill: #1f77b4; stroke: #1f77b4"/>
     <use xlink:href="#m4e96ea71cc" x="97.288514" y="114.818103" style="fill: #1f77b4; stroke: #1f77b4"/>
     <use xlink:href="#m4e96ea71cc" x="99.725861" y="98.773684" style="fill: #1f77b4; stroke: #1f77b4"/>
     <use xlink:href="#m4e96ea71cc" x="102.163207" y="94.380467" style="fill: #1f77b4; stroke: #1f77b4"/>
     <use xlink:href="#m4e96ea71cc" x="104.600554" y="97.713402" style="fill: #1f77b4; stroke: #1f77b4"/>
     <use xlink:href="#m4e96ea71cc" x="107.0379" y="93.242787" style="fill: #1f77b4; stroke: #1f77b4"/>
     <use xlink:href="#m4e96ea71cc" x="109.475247" y="96.821709" style="fill: #1f77b4; stroke: #1f77b4"/>
     <use xlink:href="#m4e96ea71cc" x="111.912593" y="108.160218" style="fill: #1f77b4; stroke: #1f77b4"/>
     <use xlink:href="#m4e96ea71cc" x="114.349939" y="114.836936" style="fill: #1f77b4; stroke: #1f77b4"/>
     <use xlink:href="#m4e96ea71cc" x="116.787286" y="117.894814" style="fill: #1f77b4; stroke: #1f77b4"/>
     <use xlink:href="#m4e96ea71cc" x="119.224632" y="133.799604" style="fill: #1f77b4; stroke: #1f77b4"/>
     <use xlink:href="#m4e96ea71cc" x="121.661979" y="128.787002" style="fill: #1f77b4; stroke: #1f77b4"/>
     <use xlink:href="#m4e96ea71cc" x="124.099325" y="140.992119" style="fill: #1f77b4; stroke: #1f77b4"/>
     <use xlink:href="#m4e96ea71cc" x="126.536672" y="145.613927" style="fill: #1f77b4; stroke: #1f77b4"/>
     <use xlink:href="#m4e96ea71cc" x="128.974018" y="158.133978" style="fill: #1f77b4; stroke: #1f77b4"/>
     <use xlink:href="#m4e96ea71cc" x="131.411364" y="166.840872" style="fill: #1f77b4; stroke: #1f77b4"/>
     <use xlink:href="#m4e96ea71cc" x="133.848711" y="157.449856" style="fill: #1f77b4; stroke: #1f77b4"/>
     <use xlink:href="#m4e96ea71cc" x="136.286057" y="187.001029" style="fill: #1f77b4; stroke: #1f77b4"/>
     <use xlink:href="#m4e96ea71cc" x="138.723404" y="185.196103" style="fill: #1f77b4; stroke: #1f77b4"/>
     <use xlink:href="#m4e96ea71cc" x="141.16075" y="196.997843" style="fill: #1f77b4; stroke: #1f77b4"/>
     <use xlink:href="#m4e96ea71cc" x="143.598097" y="204.472451" style="fill: #1f77b4; stroke: #1f77b4"/>
     <use xlink:href="#m4e96ea71cc" x="146.035443" y="208.328198" style="fill: #1f77b4; stroke: #1f77b4"/>
     <use xlink:href="#m4e96ea71cc" x="148.47279" y="211.145696" style="fill: #1f77b4; stroke: #1f77b4"/>
     <use xlink:href="#m4e96ea71cc" x="150.910136" y="222.897486" style="fill: #1f77b4; stroke: #1f77b4"/>
     <use xlink:href="#m4e96ea71cc" x="153.347482" y="228.372636" style="fill: #1f77b4; stroke: #1f77b4"/>
     <use xlink:href="#m4e96ea71cc" x="155.784829" y="216.137189" style="fill: #1f77b4; stroke: #1f77b4"/>
     <use xlink:href="#m4e96ea71cc" x="158.222175" y="229.396334" style="fill: #1f77b4; stroke: #1f77b4"/>
     <use xlink:href="#m4e96ea71cc" x="160.659522" y="220.922978" style="fill: #1f77b4; stroke: #1f77b4"/>
     <use xlink:href="#m4e96ea71cc" x="163.096868" y="241.404604" style="fill: #1f77b4; stroke: #1f77b4"/>
     <use xlink:href="#m4e96ea71cc" x="165.534215" y="225.969357" style="fill: #1f77b4; stroke: #1f77b4"/>
     <use xlink:href="#m4e96ea71cc" x="167.971561" y="230.668653" style="fill: #1f77b4; stroke: #1f77b4"/>
     <use xlink:href="#m4e96ea71cc" x="170.408907" y="209.682443" style="fill: #1f77b4; stroke: #1f77b4"/>
     <use xlink:href="#m4e96ea71cc" x="172.846254" y="225.167888" style="fill: #1f77b4; stroke: #1f77b4"/>
     <use xlink:href="#m4e96ea71cc" x="175.2836" y="213.186991" style="fill: #1f77b4; stroke: #1f77b4"/>
     <use xlink:href="#m4e96ea71cc" x="177.720947" y="209.792731" style="fill: #1f77b4; stroke: #1f77b4"/>
     <use xlink:href="#m4e96ea71cc" x="180.158293" y="199.101999" style="fill: #1f77b4; stroke: #1f77b4"/>
     <use xlink:href="#m4e96ea71cc" x="182.59564" y="193.088459" style="fill: #1f77b4; stroke: #1f77b4"/>
     <use xlink:href="#m4e96ea71cc" x="185.032986" y="176.480005" style="fill: #1f77b4; stroke: #1f77b4"/>
     <use xlink:href="#m4e96ea71cc" x="187.470333" y="184.633063" style="fill: #1f77b4; stroke: #1f77b4"/>
     <use xlink:href="#m4e96ea71cc" x="189.907679" y="179.225411" style="fill: #1f77b4; stroke: #1f77b4"/>
     <use xlink:href="#m4e96ea71cc" x="192.345025" y="170.295138" style="fill: #1f77b4; stroke: #1f77b4"/>
     <use xlink:href="#m4e96ea71cc" x="194.782372" y="153.812482" style="fill: #1f77b4; stroke: #1f77b4"/>
     <use xlink:href="#m4e96ea71cc" x="197.219718" y="142.78463" style="fill: #1f77b4; stroke: #1f77b4"/>
     <use xlink:href="#m4e96ea71cc" x="199.657065" y="151.376411" style="fill: #1f77b4; stroke: #1f77b4"/>
     <use xlink:href="#m4e96ea71cc" x="202.094411" y="131.43173" style="fill: #1f77b4; stroke: #1f77b4"/>
     <use xlink:href="#m4e96ea71cc" x="204.531758" y="130.878258" style="fill: #1f77b4; stroke: #1f77b4"/>
     <use xlink:href="#m4e96ea71cc" x="206.969104" y="117.365791" style="fill: #1f77b4; stroke: #1f77b4"/>
     <use xlink:href="#m4e96ea71cc" x="209.40645" y="119.021818" style="fill: #1f77b4; stroke: #1f77b4"/>
     <use xlink:href="#m4e96ea71cc" x="211.843797" y="101.446528" style="fill: #1f77b4; stroke: #1f77b4"/>
     <use xlink:href="#m4e96ea71cc" x="214.281143" y="109.847482" style="fill: #1f77b4; stroke: #1f77b4"/>
     <use xlink:href="#m4e96ea71cc" x="216.71849" y="112.286494" style="fill: #1f77b4; stroke: #1f77b4"/>
     <use xlink:href="#m4e96ea71cc" x="219.155836" y="84.234512" style="fill: #1f77b4; stroke: #1f77b4"/>
     <use xlink:href="#m4e96ea71cc" x="221.593183" y="99.459999" style="fill: #1f77b4; stroke: #1f77b4"/>
     <use xlink:href="#m4e96ea71cc" x="224.030529" y="112.053499" style="fill: #1f77b4; stroke: #1f77b4"/>
     <use xlink:href="#m4e96ea71cc" x="226.467876" y="87.384806" style="fill: #1f77b4; stroke: #1f77b4"/>
     <use xlink:href="#m4e96ea71cc" x="228.905222" y="88.864681" style="fill: #1f77b4; stroke: #1f77b4"/>
     <use xlink:href="#m4e96ea71cc" x="231.342568" y="98.106397" style="fill: #1f77b4; stroke: #1f77b4"/>
     <use xlink:href="#m4e96ea71cc" x="233.779915" y="103.674038" style="fill: #1f77b4; stroke: #1f77b4"/>
     <use xlink:href="#m4e96ea71cc" x="236.217261" y="102.495492" style="fill: #1f77b4; stroke: #1f77b4"/>
     <use xlink:href="#m4e96ea71cc" x="238.654608" y="103.055103" style="fill: #1f77b4; stroke: #1f77b4"/>
     <use xlink:href="#m4e96ea71cc" x="241.091954" y="140.118441" style="fill: #1f77b4; stroke: #1f77b4"/>
     <use xlink:href="#m4e96ea71cc" x="243.529301" y="135.403779" style="fill: #1f77b4; stroke: #1f77b4"/>
     <use xlink:href="#m4e96ea71cc" x="245.966647" y="132.045863" style="fill: #1f77b4; stroke: #1f77b4"/>
     <use xlink:href="#m4e96ea71cc" x="248.403993" y="141.6731" style="fill: #1f77b4; stroke: #1f77b4"/>
     <use xlink:href="#m4e96ea71cc" x="250.84134" y="159.745403" style="fill: #1f77b4; stroke: #1f77b4"/>
     <use xlink:href="#m4e96ea71cc" x="253.278686" y="164.70237" style="fill: #1f77b4; stroke: #1f77b4"/>
     <use xlink:href="#m4e96ea71cc" x="255.716033" y="173.224154" style="fill: #1f77b4; stroke: #1f77b4"/>
     <use xlink:href="#m4e96ea71cc" x="258.153379" y="161.696518" style="fill: #1f77b4; stroke: #1f77b4"/>
     <use xlink:href="#m4e96ea71cc" x="260.590726" y="177.127175" style="fill: #1f77b4; stroke: #1f77b4"/>
     <use xlink:href="#m4e96ea71cc" x="263.028072" y="193.651354" style="fill: #1f77b4; stroke: #1f77b4"/>
     <use xlink:href="#m4e96ea71cc" x="265.465418" y="183.134161" style="fill: #1f77b4; stroke: #1f77b4"/>
     <use xlink:href="#m4e96ea71cc" x="267.902765" y="213.409371" style="fill: #1f77b4; stroke: #1f77b4"/>
     <use xlink:href="#m4e96ea71cc" x="270.340111" y="212.253606" style="fill: #1f77b4; stroke: #1f77b4"/>
     <use xlink:href="#m4e96ea71cc" x="272.777458" y="215.794456" style="fill: #1f77b4; stroke: #1f77b4"/>
     <use xlink:href="#m4e96ea71cc" x="275.214804" y="227.385128" style="fill: #1f77b4; stroke: #1f77b4"/>
     <use xlink:href="#m4e96ea71cc" x="277.652151" y="229.272945" style="fill: #1f77b4; stroke: #1f77b4"/>
     <use xlink:href="#m4e96ea71cc" x="280.089497" y="231.743106" style="fill: #1f77b4; stroke: #1f77b4"/>
     <use xlink:href="#m4e96ea71cc" x="282.526844" y="234.168451" style="fill: #1f77b4; stroke: #1f77b4"/>
     <use xlink:href="#m4e96ea71cc" x="284.96419" y="235.212417" style="fill: #1f77b4; stroke: #1f77b4"/>
     <use xlink:href="#m4e96ea71cc" x="287.401536" y="215.797156" style="fill: #1f77b4; stroke: #1f77b4"/>
     <use xlink:href="#m4e96ea71cc" x="289.838883" y="228.775717" style="fill: #1f77b4; stroke: #1f77b4"/>
     <use xlink:href="#m4e96ea71cc" x="292.276229" y="219.089918" style="fill: #1f77b4; stroke: #1f77b4"/>
     <use xlink:href="#m4e96ea71cc" x="294.713576" y="207.973638" style="fill: #1f77b4; stroke: #1f77b4"/>
     <use xlink:href="#m4e96ea71cc" x="297.150922" y="208.746744" style="fill: #1f77b4; stroke: #1f77b4"/>
     <use xlink:href="#m4e96ea71cc" x="299.588269" y="219.48248" style="fill: #1f77b4; stroke: #1f77b4"/>
     <use xlink:href="#m4e96ea71cc" x="302.025615" y="205.917695" style="fill: #1f77b4; stroke: #1f77b4"/>
     <use xlink:href="#m4e96ea71cc" x="304.462961" y="203.795039" style="fill: #1f77b4; stroke: #1f77b4"/>
     <use xlink:href="#m4e96ea71cc" x="306.900308" y="172.89505" style="fill: #1f77b4; stroke: #1f77b4"/>
     <use xlink:href="#m4e96ea71cc" x="309.337654" y="186.568472" style="fill: #1f77b4; stroke: #1f77b4"/>
     <use xlink:href="#m4e96ea71cc" x="311.775001" y="158.224161" style="fill: #1f77b4; stroke: #1f77b4"/>
     <use xlink:href="#m4e96ea71cc" x="314.212347" y="126.960512" style="fill: #1f77b4; stroke: #1f77b4"/>
     <use xlink:href="#m4e96ea71cc" x="316.649694" y="172.22912" style="fill: #1f77b4; stroke: #1f77b4"/>
     <use xlink:href="#m4e96ea71cc" x="319.08704" y="128.041371" style="fill: #1f77b4; stroke: #1f77b4"/>
     <use xlink:href="#m4e96ea71cc" x="321.524387" y="147.802686" style="fill: #1f77b4; stroke: #1f77b4"/>
     <use xlink:href="#m4e96ea71cc" x="323.961733" y="139.609786" style="fill: #1f77b4; stroke: #1f77b4"/>
     <use xlink:href="#m4e96ea71cc" x="326.399079" y="135.993494" style="fill: #1f77b4; stroke: #1f77b4"/>
     <use xlink:href="#m4e96ea71cc" x="328.836426" y="151.970705" style="fill: #1f77b4; stroke: #1f77b4"/>
     <use xlink:href="#m4e96ea71cc" x="331.273772" y="116.730643" style="fill: #1f77b4; stroke: #1f77b4"/>
     <use xlink:href="#m4e96ea71cc" x="333.711119" y="106.938662" style="fill: #1f77b4; stroke: #1f77b4"/>
     <use xlink:href="#m4e96ea71cc" x="336.148465" y="113.340675" style="fill: #1f77b4; stroke: #1f77b4"/>
     <use xlink:href="#m4e96ea71cc" x="338.585812" y="101.235182" style="fill: #1f77b4; stroke: #1f77b4"/>
     <use xlink:href="#m4e96ea71cc" x="341.023158" y="113.832726" style="fill: #1f77b4; stroke: #1f77b4"/>
     <use xlink:href="#m4e96ea71cc" x="343.460504" y="91.70354" style="fill: #1f77b4; stroke: #1f77b4"/>
     <use xlink:href="#m4e96ea71cc" x="345.897851" y="87.313851" style="fill: #1f77b4; stroke: #1f77b4"/>
     <use xlink:href="#m4e96ea71cc" x="348.335197" y="102.409911" style="fill: #1f77b4; stroke: #1f77b4"/>
     <use xlink:href="#m4e96ea71cc" x="350.772544" y="96.772122" style="fill: #1f77b4; stroke: #1f77b4"/>
     <use xlink:href="#m4e96ea71cc" x="353.20989" y="106.881379" style="fill: #1f77b4; stroke: #1f77b4"/>
     <use xlink:href="#m4e96ea71cc" x="355.647237" y="104.712451" style="fill: #1f77b4; stroke: #1f77b4"/>
     <use xlink:href="#m4e96ea71cc" x="358.084583" y="119.033643" style="fill: #1f77b4; stroke: #1f77b4"/>
     <use xlink:href="#m4e96ea71cc" x="360.52193" y="154.904959" style="fill: #1f77b4; stroke: #1f77b4"/>
     <use xlink:href="#m4e96ea71cc" x="362.959276" y="145.49102" style="fill: #1f77b4; stroke: #1f77b4"/>
     <use xlink:href="#m4e96ea71cc" x="365.396622" y="154.801867" style="fill: #1f77b4; stroke: #1f77b4"/>
     <use xlink:href="#m4e96ea71cc" x="367.833969" y="120.462329" style="fill: #1f77b4; stroke: #1f77b4"/>
     <use xlink:href="#m4e96ea71cc" x="370.271315" y="160.109792" style="fill: #1f77b4; stroke: #1f77b4"/>
     <use xlink:href="#m4e96ea71cc" x="372.708662" y="132.274767" style="fill: #1f77b4; stroke: #1f77b4"/>
     <use xlink:href="#m4e96ea71cc" x="375.146008" y="165.81398" style="fill: #1f77b4; stroke: #1f77b4"/>
     <use xlink:href="#m4e96ea71cc" x="377.583355" y="174.976099" style="fill: #1f77b4; stroke: #1f77b4"/>
     <use xlink:href="#m4e96ea71cc" x="380.020701" y="168.134743" style="fill: #1f77b4; stroke: #1f77b4"/>
     <use xlink:href="#m4e96ea71cc" x="382.458047" y="188.407073" style="fill: #1f77b4; stroke: #1f77b4"/>
     <use xlink:href="#m4e96ea71cc" x="384.895394" y="187.999238" style="fill: #1f77b4; stroke: #1f77b4"/>
     <use xlink:href="#m4e96ea71cc" x="387.33274" y="176.212231" style="fill: #1f77b4; stroke: #1f77b4"/>
     <use xlink:href="#m4e96ea71cc" x="389.770087" y="175.043342" style="fill: #1f77b4; stroke: #1f77b4"/>
     <use xlink:href="#m4e96ea71cc" x="392.207433" y="238.000187" style="fill: #1f77b4; stroke: #1f77b4"/>
     <use xlink:href="#m4e96ea71cc" x="394.64478" y="224.643185" style="fill: #1f77b4; stroke: #1f77b4"/>
     <use xlink:href="#m4e96ea71cc" x="397.082126" y="229.052773" style="fill: #1f77b4; stroke: #1f77b4"/>
     <use xlink:href="#m4e96ea71cc" x="399.519473" y="217.328123" style="fill: #1f77b4; stroke: #1f77b4"/>
     <use xlink:href="#m4e96ea71cc" x="401.956819" y="236.32237" style="fill: #1f77b4; stroke: #1f77b4"/>
     <use xlink:href="#m4e96ea71cc" x="404.394165" y="223.565021" style="fill: #1f77b4; stroke: #1f77b4"/>
     <use xlink:href="#m4e96ea71cc" x="406.831512" y="240.507995" style="fill: #1f77b4; stroke: #1f77b4"/>
     <use xlink:href="#m4e96ea71cc" x="409.268858" y="218.4065" style="fill: #1f77b4; stroke: #1f77b4"/>
     <use xlink:href="#m4e96ea71cc" x="411.706205" y="249.912749" style="fill: #1f77b4; stroke: #1f77b4"/>
     <use xlink:href="#m4e96ea71cc" x="414.143551" y="198.682832" style="fill: #1f77b4; stroke: #1f77b4"/>
     <use xlink:href="#m4e96ea71cc" x="416.580898" y="210.096282" style="fill: #1f77b4; stroke: #1f77b4"/>
     <use xlink:href="#m4e96ea71cc" x="419.018244" y="231.570119" style="fill: #1f77b4; stroke: #1f77b4"/>
     <use xlink:href="#m4e96ea71cc" x="421.45559" y="197.242405" style="fill: #1f77b4; stroke: #1f77b4"/>
     <use xlink:href="#m4e96ea71cc" x="423.892937" y="197.175146" style="fill: #1f77b4; stroke: #1f77b4"/>
     <use xlink:href="#m4e96ea71cc" x="426.330283" y="182.531154" style="fill: #1f77b4; stroke: #1f77b4"/>
     <use xlink:href="#m4e96ea71cc" x="428.76763" y="202.426661" style="fill: #1f77b4; stroke: #1f77b4"/>
     <use xlink:href="#m4e96ea71cc" x="431.204976" y="190.821168" style="fill: #1f77b4; stroke: #1f77b4"/>
     <use xlink:href="#m4e96ea71cc" x="433.642323" y="163.295613" style="fill: #1f77b4; stroke: #1f77b4"/>
     <use xlink:href="#m4e96ea71cc" x="436.079669" y="148.929925" style="fill: #1f77b4; stroke: #1f77b4"/>
     <use xlink:href="#m4e96ea71cc" x="438.517016" y="146.063109" style="fill: #1f77b4; stroke: #1f77b4"/>
     <use xlink:href="#m4e96ea71cc" x="440.954362" y="124.113793" style="fill: #1f77b4; stroke: #1f77b4"/>
     <use xlink:href="#m4e96ea71cc" x="443.391708" y="127.719072" style="fill: #1f77b4; stroke: #1f77b4"/>
     <use xlink:href="#m4e96ea71cc" x="445.829055" y="140.591048" style="fill: #1f77b4; stroke: #1f77b4"/>
     <use xlink:href="#m4e96ea71cc" x="448.266401" y="121.256304" style="fill: #1f77b4; stroke: #1f77b4"/>
     <use xlink:href="#m4e96ea71cc" x="450.703748" y="127.828977" style="fill: #1f77b4; stroke: #1f77b4"/>
     <use xlink:href="#m4e96ea71cc" x="453.141094" y="88.808877" style="fill: #1f77b4; stroke: #1f77b4"/>
     <use xlink:href="#m4e96ea71cc" x="455.578441" y="116.553804" style="fill: #1f77b4; stroke: #1f77b4"/>
     <use xlink:href="#m4e96ea71cc" x="458.015787" y="76.022285" style="fill: #1f77b4; stroke: #1f77b4"/>
     <use xlink:href="#m4e96ea71cc" x="460.453133" y="103.864227" style="fill: #1f77b4; stroke: #1f77b4"/>
     <use xlink:href="#m4e96ea71cc" x="462.89048" y="72.702638" style="fill: #1f77b4; stroke: #1f77b4"/>
     <use xlink:href="#m4e96ea71cc" x="465.327826" y="112.158281" style="fill: #1f77b4; stroke: #1f77b4"/>
     <use xlink:href="#m4e96ea71cc" x="467.765173" y="112.973576" style="fill: #1f77b4; stroke: #1f77b4"/>
     <use xlink:href="#m4e96ea71cc" x="470.202519" y="96.371236" style="fill: #1f77b4; stroke: #1f77b4"/>
     <use xlink:href="#m4e96ea71cc" x="472.639866" y="141.537741" style="fill: #1f77b4; stroke: #1f77b4"/>
     <use xlink:href="#m4e96ea71cc" x="475.077212" y="132.601125" style="fill: #1f77b4; stroke: #1f77b4"/>
     <use xlink:href="#m4e96ea71cc" x="477.514559" y="94.063902" style="fill: #1f77b4; stroke: #1f77b4"/>
     <use xlink:href="#m4e96ea71cc" x="479.951905" y="94.946945" style="fill: #1f77b4; stroke: #1f77b4"/>
     <use xlink:href="#m4e96ea71cc" x="482.389251" y="116.697895" style="fill: #1f77b4; stroke: #1f77b4"/>
     <use xlink:href="#m4e96ea71cc" x="484.826598" y="131.166174" style="fill: #1f77b4; stroke: #1f77b4"/>
     <use xlink:href="#m4e96ea71cc" x="487.263944" y="113.511491" style="fill: #1f77b4; stroke: #1f77b4"/>
     <use xlink:href="#m4e96ea71cc" x="489.701291" y="142.700532" style="fill: #1f77b4; stroke: #1f77b4"/>
     <use xlink:href="#m4e96ea71cc" x="492.138637" y="140.497983" style="fill: #1f77b4; stroke: #1f77b4"/>
     <use xlink:href="#m4e96ea71cc" x="494.575984" y="159.427954" style="fill: #1f77b4; stroke: #1f77b4"/>
     <use xlink:href="#m4e96ea71cc" x="497.01333" y="185.847657" style="fill: #1f77b4; stroke: #1f77b4"/>
     <use xlink:href="#m4e96ea71cc" x="499.450676" y="159.618409" style="fill: #1f77b4; stroke: #1f77b4"/>
     <use xlink:href="#m4e96ea71cc" x="501.888023" y="181.099036" style="fill: #1f77b4; stroke: #1f77b4"/>
     <use xlink:href="#m4e96ea71cc" x="504.325369" y="201.099208" style="fill: #1f77b4; stroke: #1f77b4"/>
     <use xlink:href="#m4e96ea71cc" x="506.762716" y="190.857304" style="fill: #1f77b4; stroke: #1f77b4"/>
     <use xlink:href="#m4e96ea71cc" x="509.200062" y="204.64376" style="fill: #1f77b4; stroke: #1f77b4"/>
     <use xlink:href="#m4e96ea71cc" x="511.637409" y="168.017776" style="fill: #1f77b4; stroke: #1f77b4"/>
     <use xlink:href="#m4e96ea71cc" x="514.074755" y="206.353262" style="fill: #1f77b4; stroke: #1f77b4"/>
     <use xlink:href="#m4e96ea71cc" x="516.512102" y="203.55161" style="fill: #1f77b4; stroke: #1f77b4"/>
     <use xlink:href="#m4e96ea71cc" x="518.949448" y="228.509976" style="fill: #1f77b4; stroke: #1f77b4"/>
     <use xlink:href="#m4e96ea71cc" x="521.386794" y="223.834471" style="fill: #1f77b4; stroke: #1f77b4"/>
     <use xlink:href="#m4e96ea71cc" x="523.824141" y="217.827559" style="fill: #1f77b4; stroke: #1f77b4"/>
     <use xlink:href="#m4e96ea71cc" x="526.261487" y="244.284802" style="fill: #1f77b4; stroke: #1f77b4"/>
     <use xlink:href="#m4e96ea71cc" x="528.698834" y="244.4608" style="fill: #1f77b4; stroke: #1f77b4"/>
     <use xlink:href="#m4e96ea71cc" x="531.13618" y="228.555173" style="fill: #1f77b4; stroke: #1f77b4"/>
     <use xlink:href="#m4e96ea71cc" x="533.573527" y="246.116087" style="fill: #1f77b4; stroke: #1f77b4"/>
     <use xlink:href="#m4e96ea71cc" x="536.010873" y="207.853994" style="fill: #1f77b4; stroke: #1f77b4"/>
     <use xlink:href="#m4e96ea71cc" x="538.448219" y="231.364264" style="fill: #1f77b4; stroke: #1f77b4"/>
     <use xlink:href="#m4e96ea71cc" x="540.885566" y="230.67053" style="fill: #1f77b4; stroke: #1f77b4"/>
     <use xlink:href="#m4e96ea71cc" x="543.322912" y="178.977157" style="fill: #1f77b4; stroke: #1f77b4"/>
     <use xlink:href="#m4e96ea71cc" x="545.760259" y="172.217469" style="fill: #1f77b4; stroke: #1f77b4"/>
     <use xlink:href="#m4e96ea71cc" x="548.197605" y="217.800443" style="fill: #1f77b4; stroke: #1f77b4"/>
     <use xlink:href="#m4e96ea71cc" x="550.634952" y="188.837517" style="fill: #1f77b4; stroke: #1f77b4"/>
     <use xlink:href="#m4e96ea71cc" x="553.072298" y="171.045048" style="fill: #1f77b4; stroke: #1f77b4"/>
     <use xlink:href="#m4e96ea71cc" x="555.509645" y="132.192355" style="fill: #1f77b4; stroke: #1f77b4"/>
     <use xlink:href="#m4e96ea71cc" x="557.946991" y="139.778541" style="fill: #1f77b4; stroke: #1f77b4"/>
     <use xlink:href="#m4e96ea71cc" x="560.384337" y="166.136208" style="fill: #1f77b4; stroke: #1f77b4"/>
     <use xlink:href="#m4e96ea71cc" x="562.821684" y="157.57861" style="fill: #1f77b4; stroke: #1f77b4"/>
     <use xlink:href="#m4e96ea71cc" x="565.25903" y="128.137603" style="fill: #1f77b4; stroke: #1f77b4"/>
     <use xlink:href="#m4e96ea71cc" x="567.696377" y="105.899069" style="fill: #1f77b4; stroke: #1f77b4"/>
     <use xlink:href="#m4e96ea71cc" x="570.133723" y="115.685465" style="fill: #1f77b4; stroke: #1f77b4"/>
     <use xlink:href="#m4e96ea71cc" x="572.57107" y="141.695613" style="fill: #1f77b4; stroke: #1f77b4"/>
     <use xlink:href="#m4e96ea71cc" x="575.008416" y="116.026557" style="fill: #1f77b4; stroke: #1f77b4"/>
     <use xlink:href="#m4e96ea71cc" x="577.445762" y="136.002125" style="fill: #1f77b4; stroke: #1f77b4"/>
     <use xlink:href="#m4e96ea71cc" x="579.883109" y="123.715957" style="fill: #1f77b4; stroke: #1f77b4"/>
     <use xlink:href="#m4e96ea71cc" x="582.320455" y="105.748392" style="fill: #1f77b4; stroke: #1f77b4"/>
     <use xlink:href="#m4e96ea71cc" x="584.757802" y="93.499395" style="fill: #1f77b4; stroke: #1f77b4"/>
     <use xlink:href="#m4e96ea71cc" x="587.195148" y="87.386127" style="fill: #1f77b4; stroke: #1f77b4"/>
     <use xlink:href="#m4e96ea71cc" x="589.632495" y="128.740067" style="fill: #1f77b4; stroke: #1f77b4"/>
     <use xlink:href="#m4e96ea71cc" x="592.069841" y="105.364313" style="fill: #1f77b4; stroke: #1f77b4"/>
     <use xlink:href="#m4e96ea71cc" x="594.507188" y="82.564181" style="fill: #1f77b4; stroke: #1f77b4"/>
     <use xlink:href="#m4e96ea71cc" x="596.944534" y="145.323801" style="fill: #1f77b4; stroke: #1f77b4"/>
     <use xlink:href="#m4e96ea71cc" x="599.38188" y="136.122388" style="fill: #1f77b4; stroke: #1f77b4"/>
     <use xlink:href="#m4e96ea71cc" x="601.819227" y="111.516726" style="fill: #1f77b4; stroke: #1f77b4"/>
     <use xlink:href="#m4e96ea71cc" x="604.256573" y="106.338952" style="fill: #1f77b4; stroke: #1f77b4"/>
     <use xlink:href="#m4e96ea71cc" x="606.69392" y="107.751111" style="fill: #1f77b4; stroke: #1f77b4"/>
     <use xlink:href="#m4e96ea71cc" x="609.131266" y="125.152464" style="fill: #1f77b4; stroke: #1f77b4"/>
     <use xlink:href="#m4e96ea71cc" x="611.568613" y="155.29926" style="fill: #1f77b4; stroke: #1f77b4"/>
     <use xlink:href="#m4e96ea71cc" x="614.005959" y="170.757525" style="fill: #1f77b4; stroke: #1f77b4"/>
     <use xlink:href="#m4e96ea71cc" x="616.443305" y="136.480578" style="fill: #1f77b4; stroke: #1f77b4"/>
     <use xlink:href="#m4e96ea71cc" x="618.880652" y="157.979527" style="fill: #1f77b4; stroke: #1f77b4"/>
     <use xlink:href="#m4e96ea71cc" x="621.317998" y="169.04805" style="fill: #1f77b4; stroke: #1f77b4"/>
     <use xlink:href="#m4e96ea71cc" x="623.755345" y="201.959368" style="fill: #1f77b4; stroke: #1f77b4"/>
     <use xlink:href="#m4e96ea71cc" x="626.192691" y="191.864718" style="fill: #1f77b4; stroke: #1f77b4"/>
     <use xlink:href="#m4e96ea71cc" x="628.630038" y="189.669634" style="fill: #1f77b4; stroke: #1f77b4"/>
     <use xlink:href="#m4e96ea71cc" x="631.067384" y="204.937682" style="fill: #1f77b4; stroke: #1f77b4"/>
     <use xlink:href="#m4e96ea71cc" x="633.504731" y="210.297344" style="fill: #1f77b4; stroke: #1f77b4"/>
     <use xlink:href="#m4e96ea71cc" x="635.942077" y="210.2965" style="fill: #1f77b4; stroke: #1f77b4"/>
     <use xlink:href="#m4e96ea71cc" x="638.379423" y="178.266592" style="fill: #1f77b4; stroke: #1f77b4"/>
     <use xlink:href="#m4e96ea71cc" x="640.81677" y="206.475148" style="fill: #1f77b4; stroke: #1f77b4"/>
     <use xlink:href="#m4e96ea71cc" x="643.254116" y="236.255178" style="fill: #1f77b4; stroke: #1f77b4"/>
     <use xlink:href="#m4e96ea71cc" x="645.691463" y="218.557845" style="fill: #1f77b4; stroke: #1f77b4"/>
     <use xlink:href="#m4e96ea71cc" x="648.128809" y="205.514075" style="fill: #1f77b4; stroke: #1f77b4"/>
     <use xlink:href="#m4e96ea71cc" x="650.566156" y="264.065679" style="fill: #1f77b4; stroke: #1f77b4"/>
     <use xlink:href="#m4e96ea71cc" x="653.003502" y="235.059855" style="fill: #1f77b4; stroke: #1f77b4"/>
     <use xlink:href="#m4e96ea71cc" x="655.440848" y="238.965068" style="fill: #1f77b4; stroke: #1f77b4"/>
     <use xlink:href="#m4e96ea71cc" x="657.878195" y="213.899348" style="fill: #1f77b4; stroke: #1f77b4"/>
     <use xlink:href="#m4e96ea71cc" x="660.315541" y="250.236255" style="fill: #1f77b4; stroke: #1f77b4"/>
     <use xlink:href="#m4e96ea71cc" x="662.752888" y="213.604713" style="fill: #1f77b4; stroke: #1f77b4"/>
     <use xlink:href="#m4e96ea71cc" x="665.190234" y="185.344959" style="fill: #1f77b4; stroke: #1f77b4"/>
     <use xlink:href="#m4e96ea71cc" x="667.627581" y="167.846682" style="fill: #1f77b4; stroke: #1f77b4"/>
     <use xlink:href="#m4e96ea71cc" x="670.064927" y="228.151021" style="fill: #1f77b4; stroke: #1f77b4"/>
     <use xlink:href="#m4e96ea71cc" x="672.502274" y="183.357345" style="fill: #1f77b4; stroke: #1f77b4"/>
     <use xlink:href="#m4e96ea71cc" x="674.93962" y="133.080537" style="fill: #1f77b4; stroke: #1f77b4"/>
     <use xlink:href="#m4e96ea71cc" x="677.376966" y="160.897451" style="fill: #1f77b4; stroke: #1f77b4"/>
     <use xlink:href="#m4e96ea71cc" x="679.814313" y="157.395842" style="fill: #1f77b4; stroke: #1f77b4"/>
     <use xlink:href="#m4e96ea71cc" x="682.251659" y="149.17613" style="fill: #1f77b4; stroke: #1f77b4"/>
     <use xlink:href="#m4e96ea71cc" x="684.689006" y="131.828768" style="fill: #1f77b4; stroke: #1f77b4"/>
     <use xlink:href="#m4e96ea71cc" x="687.126352" y="151.294733" style="fill: #1f77b4; stroke: #1f77b4"/>
    </g>
   </g>
   <g id="matplotlib.axis_1">
    <g id="xtick_1">
     <g id="line2d_1">
      <defs>
       <path id="mad72460e02" d="M 0 0 
L 0 3.5 
" style="stroke: #000000; stroke-width: 0.8"/>
      </defs>
      <g>
       <use xlink:href="#mad72460e02" x="80.227089" y="281.52" style="stroke: #000000; stroke-width: 0.8"/>
      </g>
     </g>
     <g id="text_1">
      <!-- $\mathdefault{0}$ -->
      <g transform="translate(76.242033 299.279639) scale(0.16 -0.16)">
       <defs>
        <path id="NimbusRomNo9L-Regu-30" d="M 1626 4352 
C 1274 4352 1005 4243 768 4019 
C 397 3661 154 2924 154 2176 
C 154 1478 365 729 666 371 
C 902 89 1229 -64 1600 -64 
C 1926 -64 2202 44 2432 268 
C 2803 620 3046 1363 3046 2137 
C 3046 3449 2464 4352 1626 4352 
z
M 1606 4185 
C 2144 4185 2432 3462 2432 2124 
C 2432 787 2150 102 1600 102 
C 1050 102 768 787 768 2118 
C 768 3475 1056 4185 1606 4185 
z
" transform="scale(0.015625)"/>
       </defs>
       <use xlink:href="#NimbusRomNo9L-Regu-30" transform="scale(0.996264)"/>
      </g>
     </g>
    </g>
    <g id="xtick_2">
     <g id="line2d_2">
      <g>
       <use xlink:href="#mad72460e02" x="201.972544" y="281.52" style="stroke: #000000; stroke-width: 0.8"/>
      </g>
     </g>
     <g id="text_2">
      <!-- $\mathdefault{20}$ -->
      <g transform="translate(194.002432 299.279639) scale(0.16 -0.16)">
       <defs>
        <path id="NimbusRomNo9L-Regu-32" d="M 3040 879 
L 2957 912 
C 2720 544 2637 486 2349 486 
L 819 486 
L 1894 1621 
C 2464 2221 2714 2711 2714 3214 
C 2714 3858 2195 4352 1530 4352 
C 1178 4352 845 4211 608 3955 
C 403 3736 307 3530 198 3072 
L 333 3039 
C 589 3671 819 3878 1261 3878 
C 1798 3878 2163 3510 2163 2969 
C 2163 2466 1869 1866 1331 1292 
L 192 76 
L 192 0 
L 2688 0 
L 3040 879 
z
" transform="scale(0.015625)"/>
       </defs>
       <use xlink:href="#NimbusRomNo9L-Regu-32" transform="scale(0.996264)"/>
       <use xlink:href="#NimbusRomNo9L-Regu-30" transform="translate(49.8132 0) scale(0.996264)"/>
      </g>
     </g>
    </g>
    <g id="xtick_3">
     <g id="line2d_3">
      <g>
       <use xlink:href="#mad72460e02" x="323.717998" y="281.52" style="stroke: #000000; stroke-width: 0.8"/>
      </g>
     </g>
     <g id="text_3">
      <!-- $\mathdefault{40}$ -->
      <g transform="translate(315.747886 299.279639) scale(0.16 -0.16)">
       <defs>
        <path id="NimbusRomNo9L-Regu-34" d="M 3021 1497 
L 2368 1497 
L 2368 4352 
L 2086 4352 
L 77 1497 
L 77 1088 
L 1875 1088 
L 1875 0 
L 2368 0 
L 2368 1088 
L 3021 1088 
L 3021 1497 
z
M 1869 1497 
L 333 1497 
L 1869 3697 
L 1869 1497 
z
" transform="scale(0.015625)"/>
       </defs>
       <use xlink:href="#NimbusRomNo9L-Regu-34" transform="scale(0.996264)"/>
       <use xlink:href="#NimbusRomNo9L-Regu-30" transform="translate(49.8132 0) scale(0.996264)"/>
      </g>
     </g>
    </g>
    <g id="xtick_4">
     <g id="line2d_4">
      <g>
       <use xlink:href="#mad72460e02" x="445.463453" y="281.52" style="stroke: #000000; stroke-width: 0.8"/>
      </g>
     </g>
     <g id="text_4">
      <!-- $\mathdefault{60}$ -->
      <g transform="translate(437.493341 299.279639) scale(0.16 -0.16)">
       <defs>
        <path id="NimbusRomNo9L-Regu-36" d="M 2854 4390 
C 2125 4326 1754 4204 1286 3878 
C 595 3385 218 2655 218 1801 
C 218 1248 390 688 666 369 
C 909 89 1254 -64 1651 -64 
C 2445 -64 2995 541 2995 1420 
C 2995 2234 2528 2752 1792 2752 
C 1510 2752 1376 2707 973 2463 
C 1146 3430 1862 4121 2867 4288 
L 2854 4390 
z
M 1549 2457 
C 2099 2457 2419 1999 2419 1203 
C 2419 503 2170 115 1722 115 
C 1158 115 813 713 813 1700 
C 813 2024 864 2203 992 2298 
C 1126 2400 1325 2457 1549 2457 
z
" transform="scale(0.015625)"/>
       </defs>
       <use xlink:href="#NimbusRomNo9L-Regu-36" transform="scale(0.996264)"/>
       <use xlink:href="#NimbusRomNo9L-Regu-30" transform="translate(49.8132 0) scale(0.996264)"/>
      </g>
     </g>
    </g>
    <g id="xtick_5">
     <g id="line2d_5">
      <g>
       <use xlink:href="#mad72460e02" x="567.208907" y="281.52" style="stroke: #000000; stroke-width: 0.8"/>
      </g>
     </g>
     <g id="text_5">
      <!-- $\mathdefault{80}$ -->
      <g transform="translate(559.238795 299.279639) scale(0.16 -0.16)">
       <defs>
        <path id="NimbusRomNo9L-Regu-38" d="M 1856 2400 
C 2490 2739 2714 3008 2714 3443 
C 2714 3968 2253 4352 1613 4352 
C 915 4352 397 3923 397 3341 
C 397 2924 518 2739 1190 2150 
C 499 1625 358 1427 358 992 
C 358 371 864 -64 1587 -64 
C 2355 -64 2848 358 2848 1017 
C 2848 1510 2630 1824 1856 2400 
z
M 1741 1740 
C 2208 1408 2362 1177 2362 819 
C 2362 403 2074 115 1658 115 
C 1171 115 845 486 845 1043 
C 845 1452 986 1721 1357 2022 
L 1741 1740 
z
M 1670 2515 
C 1101 2886 870 3180 870 3539 
C 870 3910 1158 4172 1562 4172 
C 1997 4172 2272 3891 2272 3449 
C 2272 3084 2093 2796 1728 2553 
C 1696 2534 1696 2534 1670 2515 
z
" transform="scale(0.015625)"/>
       </defs>
       <use xlink:href="#NimbusRomNo9L-Regu-38" transform="scale(0.996264)"/>
       <use xlink:href="#NimbusRomNo9L-Regu-30" transform="translate(49.8132 0) scale(0.996264)"/>
      </g>
     </g>
    </g>
    <g id="xtick_6">
     <g id="line2d_6">
      <g>
       <use xlink:href="#mad72460e02" x="688.954362" y="281.52" style="stroke: #000000; stroke-width: 0.8"/>
      </g>
     </g>
     <g id="text_6">
      <!-- $\mathdefault{100}$ -->
      <g transform="translate(676.999194 299.279639) scale(0.16 -0.16)">
       <defs>
        <path id="NimbusRomNo9L-Regu-31" d="M 1862 4352 
L 710 3776 
L 710 3686 
C 787 3718 858 3743 883 3756 
C 998 3801 1107 3826 1171 3826 
C 1306 3826 1363 3731 1363 3525 
L 1363 599 
C 1363 386 1312 238 1210 179 
C 1114 121 1024 102 755 96 
L 755 0 
L 2522 0 
L 2522 96 
C 2016 102 1914 167 1914 477 
L 1914 4339 
L 1862 4352 
z
" transform="scale(0.015625)"/>
       </defs>
       <use xlink:href="#NimbusRomNo9L-Regu-31" transform="scale(0.996264)"/>
       <use xlink:href="#NimbusRomNo9L-Regu-30" transform="translate(49.8132 0) scale(0.996264)"/>
       <use xlink:href="#NimbusRomNo9L-Regu-30" transform="translate(99.626401 0) scale(0.996264)"/>
      </g>
     </g>
    </g>
    <g id="text_7">
     <!-- Time $t$ -->
     <g transform="translate(360.690096 318.827308) scale(0.18 -0.18)">
      <defs>
       <path id="NimbusRomNo9L-Regu-54" d="M 1626 3955 
L 1626 765 
C 1626 223 1555 153 1024 121 
L 1024 0 
L 2893 0 
L 2893 121 
C 2368 147 2278 230 2278 695 
L 2278 3955 
L 2624 3955 
C 3354 3955 3494 3840 3642 3138 
L 3795 3138 
L 3757 4224 
L 147 4224 
L 109 3138 
L 262 3138 
C 416 3834 563 3955 1280 3955 
L 1626 3955 
z
" transform="scale(0.015625)"/>
       <path id="NimbusRomNo9L-Regu-69" d="M 1120 2944 
L 128 2592 
L 128 2496 
L 179 2502 
C 256 2515 339 2521 397 2521 
C 550 2521 608 2419 608 2137 
L 608 652 
C 608 192 544 121 102 96 
L 102 0 
L 1619 0 
L 1619 96 
C 1197 128 1146 192 1146 652 
L 1146 2924 
L 1120 2944 
z
M 819 4352 
C 646 4352 499 4204 499 4025 
C 499 3846 640 3699 819 3699 
C 1005 3699 1152 3839 1152 4025 
C 1152 4204 1005 4352 819 4352 
z
" transform="scale(0.015625)"/>
       <path id="NimbusRomNo9L-Regu-6d" d="M 122 2547 
C 205 2566 256 2572 326 2572 
C 493 2572 550 2470 550 2163 
L 550 544 
C 550 198 461 102 102 96 
L 102 0 
L 1523 0 
L 1523 96 
C 1184 108 1088 179 1088 428 
L 1088 2233 
C 1088 2246 1139 2310 1184 2355 
C 1344 2502 1619 2611 1843 2611 
C 2125 2611 2266 2387 2266 1939 
L 2266 550 
C 2266 192 2195 121 1830 96 
L 1830 0 
L 3264 0 
L 3264 96 
C 2899 102 2803 211 2803 608 
L 2803 2220 
C 2995 2496 3206 2611 3501 2611 
C 3866 2611 3981 2438 3981 1907 
L 3981 556 
C 3981 192 3930 140 3558 96 
L 3558 0 
L 4960 0 
L 4960 96 
L 4794 108 
C 4602 121 4518 236 4518 486 
L 4518 1804 
C 4518 2560 4269 2944 3776 2944 
C 3405 2944 3078 2777 2733 2406 
C 2618 2771 2400 2944 2054 2944 
C 1773 2944 1594 2854 1062 2451 
L 1062 2931 
L 1018 2944 
C 691 2822 474 2751 122 2655 
L 122 2547 
z
" transform="scale(0.015625)"/>
       <path id="NimbusRomNo9L-Regu-65" d="M 2611 1052 
C 2304 564 2029 377 1619 377 
C 1254 377 979 564 794 930 
C 678 1174 634 1386 621 1779 
L 2592 1779 
C 2541 2193 2477 2377 2317 2580 
C 2125 2809 1830 2944 1498 2944 
C 1178 2944 877 2828 634 2612 
C 333 2351 160 1900 160 1374 
C 160 486 621 -64 1357 -64 
C 1965 -64 2445 313 2714 1007 
L 2611 1052 
z
M 634 1984 
C 704 2478 922 2713 1312 2713 
C 1702 2713 1856 2535 1939 1984 
L 634 1984 
z
" transform="scale(0.015625)"/>
       <path id="CMSSI17-74" d="M 1574 2380 
L 2406 2380 
L 2483 2752 
L 1651 2752 
L 1824 3520 
L 1370 3520 
L 1197 2752 
L 691 2752 
L 614 2380 
L 1107 2380 
C 1062 2161 813 996 794 893 
C 736 609 723 551 723 410 
C 723 6 915 -64 1101 -64 
C 1549 -64 1920 115 2042 172 
L 2022 551 
C 1811 397 1600 339 1440 339 
C 1293 339 1222 429 1222 622 
C 1222 693 1229 732 1242 783 
L 1574 2380 
z
" transform="scale(0.015625)"/>
      </defs>
      <use xlink:href="#NimbusRomNo9L-Regu-54" transform="scale(0.996264)"/>
      <use xlink:href="#NimbusRomNo9L-Regu-69" transform="translate(57.384828 0) scale(0.996264)"/>
      <use xlink:href="#NimbusRomNo9L-Regu-6d" transform="translate(85.080956 0) scale(0.996264)"/>
      <use xlink:href="#NimbusRomNo9L-Regu-65" transform="translate(162.590283 0) scale(0.996264)"/>
      <use xlink:href="#CMSSI17-74" transform="translate(231.73103 0) scale(0.996264)"/>
     </g>
    </g>
   </g>
   <g id="matplotlib.axis_2">
    <g id="ytick_1">
     <g id="line2d_7">
      <defs>
       <path id="mc02812d2f8" d="M 0 0 
L -3.5 0 
" style="stroke: #000000; stroke-width: 0.8"/>
      </defs>
      <g>
       <use xlink:href="#mc02812d2f8" x="49.790726" y="261.83716" style="stroke: #000000; stroke-width: 0.8"/>
      </g>
     </g>
     <g id="text_8">
      <!-- $\mathdefault{−4}$ -->
      <g transform="translate(24.682636 267.216979) scale(0.16 -0.16)">
       <defs>
        <path id="txsy-0" d="M 3674 1472 
L 3674 1830 
L 397 1830 
L 397 1472 
L 3674 1472 
z
" transform="scale(0.015625)"/>
       </defs>
       <use xlink:href="#txsy-0" transform="scale(0.996264)"/>
       <use xlink:href="#NimbusRomNo9L-Regu-34" transform="translate(63.362352 0) scale(0.996264)"/>
      </g>
     </g>
    </g>
    <g id="ytick_2">
     <g id="line2d_8">
      <g>
       <use xlink:href="#mc02812d2f8" x="49.790726" y="229.032426" style="stroke: #000000; stroke-width: 0.8"/>
      </g>
     </g>
     <g id="text_9">
      <!-- $\mathdefault{−2}$ -->
      <g transform="translate(24.682636 234.412246) scale(0.16 -0.16)">
       <use xlink:href="#txsy-0" transform="scale(0.996264)"/>
       <use xlink:href="#NimbusRomNo9L-Regu-32" transform="translate(63.362352 0) scale(0.996264)"/>
      </g>
     </g>
    </g>
    <g id="ytick_3">
     <g id="line2d_9">
      <g>
       <use xlink:href="#mc02812d2f8" x="49.790726" y="196.227692" style="stroke: #000000; stroke-width: 0.8"/>
      </g>
     </g>
     <g id="text_10">
      <!-- $\mathdefault{0}$ -->
      <g transform="translate(34.820614 201.607512) scale(0.16 -0.16)">
       <use xlink:href="#NimbusRomNo9L-Regu-30" transform="scale(0.996264)"/>
      </g>
     </g>
    </g>
    <g id="ytick_4">
     <g id="line2d_10">
      <g>
       <use xlink:href="#mc02812d2f8" x="49.790726" y="163.422959" style="stroke: #000000; stroke-width: 0.8"/>
      </g>
     </g>
     <g id="text_11">
      <!-- $\mathdefault{2}$ -->
      <g transform="translate(34.820614 168.802778) scale(0.16 -0.16)">
       <use xlink:href="#NimbusRomNo9L-Regu-32" transform="scale(0.996264)"/>
      </g>
     </g>
    </g>
    <g id="ytick_5">
     <g id="line2d_11">
      <g>
       <use xlink:href="#mc02812d2f8" x="49.790726" y="130.618225" style="stroke: #000000; stroke-width: 0.8"/>
      </g>
     </g>
     <g id="text_12">
      <!-- $\mathdefault{4}$ -->
      <g transform="translate(34.820614 135.998044) scale(0.16 -0.16)">
       <use xlink:href="#NimbusRomNo9L-Regu-34" transform="scale(0.996264)"/>
      </g>
     </g>
    </g>
    <g id="ytick_6">
     <g id="line2d_12">
      <g>
       <use xlink:href="#mc02812d2f8" x="49.790726" y="97.813491" style="stroke: #000000; stroke-width: 0.8"/>
      </g>
     </g>
     <g id="text_13">
      <!-- $\mathdefault{6}$ -->
      <g transform="translate(34.820614 103.193311) scale(0.16 -0.16)">
       <use xlink:href="#NimbusRomNo9L-Regu-36" transform="scale(0.996264)"/>
      </g>
     </g>
    </g>
    <g id="ytick_7">
     <g id="line2d_13">
      <g>
       <use xlink:href="#mc02812d2f8" x="49.790726" y="65.008757" style="stroke: #000000; stroke-width: 0.8"/>
      </g>
     </g>
     <g id="text_14">
      <!-- $\mathdefault{8}$ -->
      <g transform="translate(34.820614 70.388577) scale(0.16 -0.16)">
       <use xlink:href="#NimbusRomNo9L-Regu-38" transform="scale(0.996264)"/>
      </g>
     </g>
    </g>
    <g id="ytick_8">
     <g id="line2d_14">
      <g>
       <use xlink:href="#mc02812d2f8" x="49.790726" y="32.204024" style="stroke: #000000; stroke-width: 0.8"/>
      </g>
     </g>
     <g id="text_15">
      <!-- $\mathdefault{10}$ -->
      <g transform="translate(26.850501 37.583843) scale(0.16 -0.16)">
       <use xlink:href="#NimbusRomNo9L-Regu-31" transform="scale(0.996264)"/>
       <use xlink:href="#NimbusRomNo9L-Regu-30" transform="translate(49.8132 0) scale(0.996264)"/>
      </g>
     </g>
    </g>
    <g id="text_16">
     <!-- Intensity $I(t)$ -->
     <g transform="translate(16.7733 189.720382) rotate(-90) scale(0.18 -0.18)">
      <defs>
       <path id="NimbusRomNo9L-Regu-49" d="M 736 695 
C 736 217 653 140 115 121 
L 115 0 
L 2016 0 
L 2016 121 
C 1491 140 1389 230 1389 695 
L 1389 3528 
C 1389 3994 1478 4077 2016 4102 
L 2016 4224 
L 115 4224 
L 115 4102 
C 659 4070 736 4000 736 3528 
L 736 695 
z
" transform="scale(0.015625)"/>
       <path id="NimbusRomNo9L-Regu-6e" d="M 102 2547 
C 141 2566 205 2572 275 2572 
C 454 2572 512 2476 512 2163 
L 512 576 
C 512 211 442 121 115 96 
L 115 0 
L 1472 0 
L 1472 96 
C 1146 121 1050 198 1050 428 
L 1050 2227 
C 1357 2515 1498 2591 1709 2591 
C 2022 2591 2176 2393 2176 1971 
L 2176 633 
C 2176 230 2093 121 1773 96 
L 1773 0 
L 3104 0 
L 3104 96 
C 2790 128 2714 204 2714 518 
L 2714 1984 
C 2714 2585 2432 2944 1958 2944 
C 1664 2944 1466 2835 1030 2425 
L 1030 2931 
L 986 2944 
C 672 2828 454 2758 102 2655 
L 102 2547 
z
" transform="scale(0.015625)"/>
       <path id="NimbusRomNo9L-Regu-74" d="M 1632 2880 
L 986 2880 
L 986 3622 
C 986 3686 979 3705 941 3705 
C 896 3648 858 3590 813 3526 
C 570 3174 294 2867 192 2841 
C 122 2796 83 2751 83 2719 
C 83 2700 90 2687 109 2675 
L 448 2675 
L 448 748 
C 448 211 640 -64 1018 -64 
C 1331 -64 1574 89 1786 422 
L 1702 492 
C 1568 332 1459 268 1318 268 
C 1082 268 986 441 986 844 
L 986 2675 
L 1632 2675 
L 1632 2880 
z
" transform="scale(0.015625)"/>
       <path id="NimbusRomNo9L-Regu-73" d="M 2016 2009 
L 1990 2880 
L 1920 2880 
L 1907 2867 
C 1850 2822 1843 2815 1818 2815 
C 1779 2815 1715 2828 1645 2860 
C 1504 2918 1363 2944 1197 2944 
C 691 2944 326 2617 326 2155 
C 326 1796 531 1539 1075 1231 
L 1446 1019 
C 1670 891 1779 737 1779 538 
C 1779 256 1574 76 1248 76 
C 1030 76 832 160 710 301 
C 576 461 518 609 435 974 
L 333 974 
L 333 -26 
L 416 -26 
C 461 38 486 51 563 51 
C 621 51 710 38 858 0 
C 1037 -39 1210 -64 1325 -64 
C 1818 -64 2227 307 2227 756 
C 2227 1077 2074 1289 1690 1520 
L 998 1930 
C 819 2033 723 2193 723 2366 
C 723 2623 922 2803 1216 2803 
C 1581 2803 1773 2585 1920 2014 
L 2016 2009 
z
" transform="scale(0.015625)"/>
       <path id="NimbusRomNo9L-Regu-79" d="M 3040 2880 
L 2176 2880 
L 2176 2783 
C 2381 2783 2483 2726 2483 2623 
C 2483 2597 2477 2559 2458 2514 
L 1837 741 
L 1101 2366 
C 1062 2456 1037 2540 1037 2610 
C 1037 2726 1133 2771 1408 2783 
L 1408 2880 
L 90 2880 
L 90 2790 
C 256 2764 365 2694 416 2585 
L 1146 1005 
L 1165 953 
L 1261 761 
C 1440 439 1542 208 1542 112 
C 1542 15 1395 -389 1286 -582 
C 1197 -749 1056 -871 966 -871 
C 928 -871 870 -858 806 -826 
C 685 -781 576 -755 467 -755 
C 320 -755 192 -884 192 -1037 
C 192 -1248 397 -1408 666 -1408 
C 1094 -1408 1402 -1050 1747 -126 
L 2733 2495 
C 2816 2700 2886 2764 3040 2783 
L 3040 2880 
z
" transform="scale(0.015625)"/>
       <path id="CMSSI17-49" d="M 2042 4416 
L 1504 4416 
L 557 0 
L 1094 0 
L 2042 4416 
z
" transform="scale(0.015625)"/>
       <path id="NimbusRomNo9L-Regu-28" d="M 1888 4352 
C 1414 4044 1222 3878 986 3583 
C 531 3027 307 2387 307 1638 
C 307 825 544 198 1107 -455 
C 1370 -762 1536 -903 1869 -1108 
L 1946 -1006 
C 1434 -602 1254 -378 1082 102 
C 928 530 858 1017 858 1657 
C 858 2329 941 2854 1114 3251 
C 1293 3647 1485 3878 1946 4249 
L 1888 4352 
z
" transform="scale(0.015625)"/>
       <path id="NimbusRomNo9L-Regu-29" d="M 243 -1108 
C 717 -801 909 -634 1146 -340 
C 1600 217 1824 857 1824 1606 
C 1824 2425 1587 3046 1024 3699 
C 762 4006 595 4147 262 4352 
L 186 4249 
C 698 3846 870 3622 1050 3142 
C 1203 2713 1274 2227 1274 1587 
C 1274 921 1190 390 1018 -1 
C 838 -404 646 -634 186 -1006 
L 243 -1108 
z
" transform="scale(0.015625)"/>
      </defs>
      <use xlink:href="#NimbusRomNo9L-Regu-49" transform="scale(0.996264)"/>
      <use xlink:href="#NimbusRomNo9L-Regu-6e" transform="translate(33.17561 0) scale(0.996264)"/>
      <use xlink:href="#NimbusRomNo9L-Regu-74" transform="translate(82.98881 0) scale(0.996264)"/>
      <use xlink:href="#NimbusRomNo9L-Regu-65" transform="translate(110.684938 0) scale(0.996264)"/>
      <use xlink:href="#NimbusRomNo9L-Regu-6e" transform="translate(154.919084 0) scale(0.996264)"/>
      <use xlink:href="#NimbusRomNo9L-Regu-73" transform="translate(204.732284 0) scale(0.996264)"/>
      <use xlink:href="#NimbusRomNo9L-Regu-69" transform="translate(243.486948 0) scale(0.996264)"/>
      <use xlink:href="#NimbusRomNo9L-Regu-74" transform="translate(271.183076 0) scale(0.996264)"/>
      <use xlink:href="#NimbusRomNo9L-Regu-79" transform="translate(298.879203 0) scale(0.996264)"/>
      <use xlink:href="#CMSSI17-49" transform="translate(373.599004 0) scale(0.996264)"/>
      <use xlink:href="#NimbusRomNo9L-Regu-28" transform="translate(412.787283 0) scale(0.996264)"/>
      <use xlink:href="#CMSSI17-74" transform="translate(445.962893 0) scale(0.996264)"/>
      <use xlink:href="#NimbusRomNo9L-Regu-29" transform="translate(486.828704 0) scale(0.996264)"/>
     </g>
    </g>
   </g>
   <g id="line2d_15">
    <path d="M 80.227089 131.968104 
L 82.664436 124.993043 
L 85.101782 118.625256 
L 87.539129 112.965364 
L 89.367138 109.239278 
L 91.195148 105.99509 
L 93.023158 103.261654 
L 94.851168 101.063286 
L 96.069841 99.904817 
L 97.288514 98.997528 
L 98.507188 98.345008 
L 99.725861 97.949831 
L 100.944534 97.813569 
L 102.163207 97.936754 
L 103.38188 98.318909 
L 104.600554 98.958508 
L 105.819227 99.853025 
L 107.0379 100.998925 
L 108.256573 102.39168 
L 110.084583 104.931352 
L 111.912593 107.991239 
L 113.740603 111.544132 
L 115.568613 115.558408 
L 118.005959 121.566276 
L 120.443305 128.235565 
L 123.489989 137.340885 
L 127.146008 149.095767 
L 140.551414 193.235848 
L 143.598097 202.01992 
L 146.035443 208.371189 
L 148.47279 214.012185 
L 150.300799 217.722727 
L 152.128809 220.950317 
L 153.956819 223.666288 
L 155.175492 225.180558 
L 156.394165 226.450621 
L 157.612839 227.471444 
L 158.831512 228.238995 
L 160.050185 228.750223 
L 161.268858 229.003124 
L 162.487532 228.996691 
L 163.706205 228.730948 
L 164.924878 228.206955 
L 166.143551 227.426773 
L 167.362224 226.393491 
L 168.580898 225.111191 
L 169.799571 223.584955 
L 171.627581 220.851676 
L 173.45559 217.607621 
L 175.2836 213.88166 
L 177.11161 209.706919 
L 179.548957 203.507223 
L 181.986303 196.674134 
L 185.032986 187.40731 
L 188.689006 175.527216 
L 200.266401 137.153285 
L 203.313084 128.063043 
L 205.750431 121.408913 
L 208.187777 115.418721 
L 210.015787 111.419125 
L 211.843797 107.882047 
L 213.671807 104.838952 
L 215.499817 102.316893 
L 216.71849 100.936254 
L 217.937163 99.802703 
L 219.155836 98.920762 
L 220.374509 98.293873 
L 221.593183 97.924537 
L 222.811856 97.814219 
L 224.030529 97.963339 
L 225.249202 98.371319 
L 226.467876 99.036548 
L 227.686549 99.956375 
L 228.905222 101.127186 
L 230.123895 102.54432 
L 231.951905 105.119453 
L 233.779915 108.213074 
L 235.607925 111.797791 
L 237.435934 115.841632 
L 239.873281 121.884867 
L 242.310627 128.584549 
L 245.35731 137.720068 
L 249.01333 149.498765 
L 261.809399 191.75623 
L 264.856082 200.673057 
L 267.293428 207.154682 
L 269.730775 212.945248 
L 271.558785 216.77917 
L 273.386794 220.138549 
L 275.214804 222.993512 
L 277.042814 225.318658 
L 278.261487 226.564002 
L 279.480161 227.559648 
L 280.698834 228.301694 
L 281.917507 228.787167 
L 283.13618 229.014159 
L 284.354853 228.981776 
L 285.573527 228.690148 
L 286.7922 228.140419 
L 288.010873 227.334771 
L 289.229546 226.276387 
L 290.448219 224.969451 
L 291.666893 223.419133 
L 293.494903 220.650978 
L 295.322912 217.373848 
L 297.150922 213.616887 
L 298.978932 209.413504 
L 301.416278 203.179715 
L 303.853625 196.317738 
L 306.900308 187.022736 
L 310.556328 175.121402 
L 322.133723 136.775667 
L 325.180406 127.716147 
L 327.617753 121.092793 
L 330.055099 115.138352 
L 331.883109 111.168539 
L 333.711119 107.663458 
L 335.539129 104.654339 
L 337.367138 102.167851 
L 338.585812 100.811677 
L 339.804485 99.703131 
L 341.023158 98.846539 
L 342.241831 98.245326 
L 343.460504 97.90184 
L 344.679178 97.817457 
L 345.897851 97.992504 
L 347.116524 98.426302 
L 348.335197 99.117123 
L 349.553871 100.062228 
L 350.772544 101.257895 
L 351.991217 102.699415 
L 353.819227 105.30987 
L 355.647237 108.437168 
L 357.475247 112.053421 
L 359.303256 116.126623 
L 361.740603 122.20514 
L 364.177949 128.934942 
L 367.224632 138.100275 
L 370.880652 149.902326 
L 383.676721 192.127894 
L 386.723404 201.012042 
L 389.16075 207.461459 
L 391.598097 213.214976 
L 393.426106 217.018235 
L 395.254116 220.344901 
L 397.082126 223.165251 
L 398.910136 225.45431 
L 400.128809 226.674856 
L 401.347482 227.645342 
L 402.566156 228.361831 
L 403.784829 228.821514 
L 405.003502 229.022599 
L 406.222175 228.964264 
L 407.440848 228.646764 
L 408.659522 228.07133 
L 409.878195 227.24022 
L 411.096868 226.156808 
L 412.315541 224.825285 
L 413.534215 223.250948 
L 415.362224 220.448079 
L 417.190234 217.137978 
L 419.018244 213.350209 
L 420.846254 209.118314 
L 423.2836 202.850687 
L 425.720947 195.960016 
L 428.76763 186.637262 
L 432.423649 174.715156 
L 443.391708 138.292224 
L 446.438391 129.112054 
L 448.875738 122.367173 
L 451.313084 116.271058 
L 453.141094 112.183144 
L 454.969104 108.550874 
L 456.797114 105.406705 
L 458.625124 102.778457 
L 459.843797 101.324712 
L 461.06247 100.116531 
L 462.281143 99.158693 
L 463.499817 98.454983 
L 464.71849 98.008194 
L 465.937163 97.820077 
L 467.155836 97.891375 
L 468.374509 98.221816 
L 469.593183 98.810091 
L 470.811856 99.65388 
L 472.030529 100.749834 
L 473.249202 102.093675 
L 474.467876 103.679951 
L 476.295885 106.50021 
L 478.123895 109.826677 
L 479.951905 113.629889 
L 481.779915 117.875878 
L 484.217261 124.160329 
L 486.654608 131.065218 
L 489.701291 140.401739 
L 493.966647 154.372703 
L 503.716033 186.828603 
L 506.762716 196.137607 
L 509.200062 203.014104 
L 511.637409 209.264979 
L 514.074755 214.791448 
L 515.902765 218.407869 
L 517.730775 221.535328 
L 519.558785 224.145892 
L 520.777458 225.587486 
L 521.996131 226.783255 
L 523.214804 227.72847 
L 524.433477 228.419392 
L 525.652151 228.853288 
L 526.870824 229.028445 
L 528.089497 228.944171 
L 529.30817 228.600783 
L 530.526844 227.99966 
L 531.745517 227.143201 
L 532.96419 226.034706 
L 534.182863 224.678645 
L 536.010873 222.192329 
L 537.838883 219.183276 
L 539.666893 215.678363 
L 541.494903 211.708703 
L 543.932249 205.754313 
L 546.369595 199.131182 
L 549.416278 190.071733 
L 553.072298 178.353439 
L 559.775001 155.80695 
L 564.649694 139.82469 
L 567.696377 130.529633 
L 570.133723 123.667489 
L 572.57107 117.43357 
L 574.399079 113.230035 
L 576.227089 109.472992 
L 578.055099 106.195705 
L 579.883109 103.427442 
L 581.711119 101.192728 
L 582.929792 100.009419 
L 584.148465 99.076835 
L 585.367138 98.398693 
L 586.585812 97.977722 
L 587.804485 97.815525 
L 589.023158 97.912766 
L 590.241831 98.269079 
L 591.460504 98.883033 
L 592.679178 99.752178 
L 593.897851 100.873167 
L 595.116524 102.241481 
L 596.944534 104.74566 
L 598.772544 107.771642 
L 600.600554 111.292647 
L 602.428563 115.277218 
L 604.86591 121.249437 
L 607.303256 127.887996 
L 610.349939 136.962845 
L 614.005959 148.693453 
L 620.708662 171.243851 
L 625.583355 187.213616 
L 628.630038 196.494632 
L 631.067384 203.342456 
L 633.504731 209.559265 
L 635.33274 213.748503 
L 637.16075 217.490068 
L 638.98876 220.750836 
L 640.81677 223.501682 
L 642.64478 225.718246 
L 643.863453 226.889116 
L 645.082126 227.809056 
L 646.300799 228.474399 
L 647.519473 228.882465 
L 648.738146 229.031691 
L 649.956819 228.921478 
L 651.175492 228.55224 
L 652.394165 227.92546 
L 653.612839 227.043637 
L 654.831512 225.910168 
L 656.050185 224.529626 
L 657.878195 222.007669 
L 659.706205 218.964731 
L 661.534215 215.427739 
L 663.362224 211.428303 
L 665.799571 205.438225 
L 668.236917 198.784313 
L 671.2836 189.69415 
L 674.93962 177.951344 
L 682.251659 153.353875 
L 686.517016 139.440146 
L 688.954362 131.968025 
L 688.954362 131.968025 
" clip-path="url(#p298d2d31b5)" style="fill: none; stroke: #ff0000; stroke-width: 0.5; stroke-linecap: square"/>
   </g>
   <g id="patch_3">
    <path d="M 49.790726 281.52 
L 49.790726 4.32 
" style="fill: none; stroke: #000000; stroke-width: 0.8; stroke-linejoin: miter; stroke-linecap: square"/>
   </g>
   <g id="patch_4">
    <path d="M 719.390726 281.52 
L 719.390726 4.32 
" style="fill: none; stroke: #000000; stroke-width: 0.8; stroke-linejoin: miter; stroke-linecap: square"/>
   </g>
   <g id="patch_5">
    <path d="M 49.790726 281.52 
L 719.390726 281.52 
" style="fill: none; stroke: #000000; stroke-width: 0.8; stroke-linejoin: miter; stroke-linecap: square"/>
   </g>
   <g id="patch_6">
    <path d="M 49.790726 4.32 
L 719.390726 4.32 
" style="fill: none; stroke: #000000; stroke-width: 0.8; stroke-linejoin: miter; stroke-linecap: square"/>
   </g>
   <g id="legend_1">
    <g id="patch_7">
     <path d="M 62.390726 69.702796 
L 287.841267 69.702796 
Q 291.441267 69.702796 291.441267 66.102796 
L 291.441267 16.92 
Q 291.441267 13.32 287.841267 13.32 
L 62.390726 13.32 
Q 58.790726 13.32 58.790726 16.92 
L 58.790726 66.102796 
Q 58.790726 69.702796 62.390726 69.702796 
z
" style="fill: #ffffff; opacity: 0.8; stroke: #cccccc; stroke-linejoin: miter"/>
    </g>
    <g id="PathCollection_2">
     <g>
      <use xlink:href="#m4e96ea71cc" x="83.990726" y="28.395" style="fill: #1f77b4; stroke: #1f77b4"/>
     </g>
    </g>
    <g id="text_17">
     <!-- Improved Observations -->
     <g transform="translate(116.390726 33.12) scale(0.18 -0.18)">
      <defs>
       <path id="NimbusRomNo9L-Regu-70" d="M 58 2515 
C 115 2521 160 2521 218 2521 
C 435 2521 480 2457 480 2157 
L 480 -839 
C 480 -1172 410 -1242 32 -1280 
L 32 -1389 
L 1581 -1389 
L 1581 -1280 
C 1101 -1274 1018 -1203 1018 -798 
L 1018 211 
C 1242 0 1395 -64 1664 -64 
C 2419 -64 3008 652 3008 1580 
C 3008 2374 2560 2944 1939 2944 
C 1581 2944 1299 2783 1018 2438 
L 1018 2931 
L 979 2944 
C 634 2809 410 2726 58 2617 
L 58 2515 
z
M 1018 2137 
C 1018 2329 1376 2559 1670 2559 
C 2144 2559 2458 2073 2458 1331 
C 2458 620 2144 140 1683 140 
C 1382 140 1018 371 1018 563 
L 1018 2137 
z
" transform="scale(0.015625)"/>
       <path id="NimbusRomNo9L-Regu-72" d="M 45 2496 
C 134 2515 192 2521 269 2521 
C 429 2521 486 2419 486 2137 
L 486 537 
C 486 217 442 172 32 96 
L 32 0 
L 1568 0 
L 1568 96 
C 1133 115 1024 211 1024 576 
L 1024 2016 
C 1024 2220 1299 2540 1472 2540 
C 1510 2540 1568 2508 1638 2444 
C 1741 2355 1811 2316 1894 2316 
C 2048 2316 2144 2425 2144 2604 
C 2144 2815 2010 2944 1792 2944 
C 1523 2944 1338 2796 1024 2342 
L 1024 2931 
L 992 2944 
C 653 2803 422 2720 45 2598 
L 45 2496 
z
" transform="scale(0.015625)"/>
       <path id="NimbusRomNo9L-Regu-6f" d="M 1600 2944 
C 768 2944 186 2329 186 1446 
C 186 582 781 -64 1587 -64 
C 2394 -64 3008 614 3008 1497 
C 3008 2336 2419 2944 1600 2944 
z
M 1517 2764 
C 2054 2764 2432 2150 2432 1273 
C 2432 550 2144 115 1664 115 
C 1414 115 1178 268 1043 524 
C 864 857 762 1305 762 1760 
C 762 2368 1062 2764 1517 2764 
z
" transform="scale(0.015625)"/>
       <path id="NimbusRomNo9L-Regu-76" d="M 3053 2880 
L 2163 2880 
L 2163 2783 
C 2368 2764 2464 2701 2464 2580 
C 2464 2517 2451 2454 2426 2390 
L 1792 748 
L 1139 2371 
C 1101 2460 1082 2549 1082 2606 
C 1082 2720 1152 2764 1376 2783 
L 1376 2880 
L 122 2880 
L 122 2783 
C 365 2771 410 2707 704 2054 
L 1472 235 
C 1485 197 1504 152 1523 102 
C 1562 -13 1600 -64 1638 -64 
C 1677 -64 1722 19 1818 254 
L 2637 2289 
C 2822 2720 2861 2764 3053 2783 
L 3053 2880 
z
" transform="scale(0.015625)"/>
       <path id="NimbusRomNo9L-Regu-64" d="M 2202 -64 
L 3142 268 
L 3142 371 
C 3027 364 3014 364 2995 364 
C 2765 364 2714 435 2714 729 
L 2714 4358 
L 2682 4371 
C 2374 4262 2150 4198 1741 4089 
L 1741 3987 
C 1792 3993 1830 3993 1882 3993 
C 2118 3993 2176 3929 2176 3667 
L 2176 2668 
C 1933 2873 1760 2944 1504 2944 
C 768 2944 173 2220 173 1312 
C 173 492 653 -64 1357 -64 
C 1715 -64 1958 64 2176 364 
L 2176 -45 
L 2202 -64 
z
M 2176 652 
C 2176 608 2131 531 2067 460 
C 1952 332 1792 268 1606 268 
C 1075 268 723 780 723 1568 
C 723 2291 1037 2764 1523 2764 
C 1862 2764 2176 2464 2176 2124 
L 2176 652 
z
" transform="scale(0.015625)"/>
       <path id="NimbusRomNo9L-Regu-4f" d="M 2310 4352 
C 1088 4352 218 3430 218 2144 
C 218 1542 422 960 768 588 
C 1139 185 1709 -64 2272 -64 
C 3533 -64 4403 832 4403 2118 
C 4403 2752 4218 3296 3866 3680 
C 3462 4121 2925 4352 2310 4352 
z
M 2310 4121 
C 2605 4121 2899 4006 3130 3801 
C 3475 3488 3674 2886 3674 2124 
C 3674 1747 3590 1305 3462 972 
C 3405 812 3296 652 3149 505 
C 2925 281 2637 166 2298 166 
C 2003 166 1715 281 1491 480 
C 1158 774 947 1420 947 2131 
C 947 2784 1126 3405 1395 3705 
C 1645 3981 1958 4121 2310 4121 
z
" transform="scale(0.015625)"/>
       <path id="NimbusRomNo9L-Regu-62" d="M 979 4358 
L 947 4371 
C 678 4275 506 4224 205 4140 
L 19 4089 
L 19 3987 
C 58 3993 83 3993 128 3993 
C 384 3993 442 3936 442 3667 
L 442 345 
C 442 147 986 -64 1498 -64 
C 2342 -64 2995 639 2995 1555 
C 2995 2342 2509 2944 1869 2944 
C 1478 2944 1107 2713 979 2399 
L 979 4358 
z
M 979 2060 
C 979 2310 1280 2540 1613 2540 
C 2112 2540 2432 2041 2432 1260 
C 2432 550 2125 140 1600 140 
C 1267 140 979 287 979 447 
L 979 2060 
z
" transform="scale(0.015625)"/>
       <path id="NimbusRomNo9L-Regu-61" d="M 2829 422 
C 2720 332 2643 300 2547 300 
C 2400 300 2355 390 2355 672 
L 2355 1920 
C 2355 2252 2323 2438 2227 2592 
C 2086 2822 1811 2944 1434 2944 
C 832 2944 358 2630 358 2227 
C 358 2080 486 1952 634 1952 
C 787 1952 922 2080 922 2220 
C 922 2246 915 2278 909 2323 
C 896 2380 890 2432 890 2476 
C 890 2649 1094 2790 1350 2790 
C 1664 2790 1837 2604 1837 2259 
L 1837 1868 
C 851 1472 742 1420 467 1177 
C 326 1049 237 832 237 620 
C 237 217 518 -64 909 -64 
C 1190 -64 1453 70 1843 403 
C 1875 70 1990 -64 2253 -64 
C 2470 -64 2605 12 2829 256 
L 2829 422 
z
M 1837 787 
C 1837 588 1805 531 1670 454 
C 1517 364 1338 307 1203 307 
C 979 307 800 524 800 800 
L 800 825 
C 800 1203 1062 1433 1837 1715 
L 1837 787 
z
" transform="scale(0.015625)"/>
      </defs>
      <use xlink:href="#NimbusRomNo9L-Regu-49" transform="scale(0.996264)"/>
      <use xlink:href="#NimbusRomNo9L-Regu-6d" transform="translate(33.17561 0) scale(0.996264)"/>
      <use xlink:href="#NimbusRomNo9L-Regu-70" transform="translate(110.684938 0) scale(0.996264)"/>
      <use xlink:href="#NimbusRomNo9L-Regu-72" transform="translate(160.498138 0) scale(0.996264)"/>
      <use xlink:href="#NimbusRomNo9L-Regu-6f" transform="translate(193.673748 0) scale(0.996264)"/>
      <use xlink:href="#NimbusRomNo9L-Regu-76" transform="translate(241.992507 0) scale(0.996264)"/>
      <use xlink:href="#NimbusRomNo9L-Regu-65" transform="translate(290.311266 0) scale(0.996264)"/>
      <use xlink:href="#NimbusRomNo9L-Regu-64" transform="translate(334.545412 0) scale(0.996264)"/>
      <use xlink:href="#NimbusRomNo9L-Regu-4f" transform="translate(409.265213 0) scale(0.996264)"/>
      <use xlink:href="#NimbusRomNo9L-Regu-62" transform="translate(481.195486 0) scale(0.996264)"/>
      <use xlink:href="#NimbusRomNo9L-Regu-73" transform="translate(531.008687 0) scale(0.996264)"/>
      <use xlink:href="#NimbusRomNo9L-Regu-65" transform="translate(569.763351 0) scale(0.996264)"/>
      <use xlink:href="#NimbusRomNo9L-Regu-72" transform="translate(613.997497 0) scale(0.996264)"/>
      <use xlink:href="#NimbusRomNo9L-Regu-76" transform="translate(647.173107 0) scale(0.996264)"/>
      <use xlink:href="#NimbusRomNo9L-Regu-61" transform="translate(694.495678 0) scale(0.996264)"/>
      <use xlink:href="#NimbusRomNo9L-Regu-74" transform="translate(738.729824 0) scale(0.996264)"/>
      <use xlink:href="#NimbusRomNo9L-Regu-69" transform="translate(766.425952 0) scale(0.996264)"/>
      <use xlink:href="#NimbusRomNo9L-Regu-6f" transform="translate(794.122079 0) scale(0.996264)"/>
      <use xlink:href="#NimbusRomNo9L-Regu-6e" transform="translate(843.935279 0) scale(0.996264)"/>
      <use xlink:href="#NimbusRomNo9L-Regu-73" transform="translate(893.74848 0) scale(0.996264)"/>
     </g>
    </g>
    <g id="line2d_16">
     <path d="M 65.990726 52.29346 
L 83.990726 52.29346 
L 101.990726 52.29346 
" style="fill: none; stroke: #ff0000; stroke-width: 0.5; stroke-linecap: square"/>
    </g>
    <g id="text_18">
     <!-- True Signal -->
     <g transform="translate(116.390726 58.59346) scale(0.18 -0.18)">
      <defs>
       <path id="NimbusRomNo9L-Regu-75" d="M 3066 319 
L 3034 319 
C 2739 319 2669 390 2669 684 
L 2669 2880 
L 1658 2880 
L 1658 2771 
C 2054 2752 2131 2688 2131 2368 
L 2131 864 
C 2131 684 2099 595 2010 524 
C 1837 384 1638 307 1446 307 
C 1197 307 992 524 992 793 
L 992 2880 
L 58 2880 
L 58 2790 
C 365 2771 454 2675 454 2380 
L 454 768 
C 454 262 762 -64 1229 -64 
C 1466 -64 1715 38 1888 211 
L 2163 486 
L 2163 -45 
L 2189 -64 
C 2509 64 2739 134 3066 224 
L 3066 319 
z
" transform="scale(0.015625)"/>
       <path id="NimbusRomNo9L-Regu-53" d="M 2861 4313 
L 2726 4313 
C 2701 4166 2630 4095 2522 4095 
C 2458 4095 2349 4121 2240 4172 
C 2003 4300 1766 4352 1562 4352 
C 1286 4352 1005 4243 794 4057 
C 570 3859 454 3590 454 3257 
C 454 2745 736 2387 1453 2009 
C 1914 1766 2246 1504 2406 1260 
C 2464 1177 2496 1043 2496 889 
C 2496 460 2176 166 1709 166 
C 1139 166 736 518 416 1299 
L 269 1299 
L 461 -58 
L 602 -58 
C 608 38 685 128 781 128 
C 851 128 960 102 1082 57 
C 1325 -13 1581 -64 1837 -64 
C 2573 -64 3142 441 3142 1100 
C 3142 1625 2790 2041 1946 2496 
C 1274 2867 1005 3148 1005 3494 
C 1005 3846 1274 4089 1670 4089 
C 1958 4089 2227 3968 2451 3737 
C 2650 3533 2739 3366 2842 2988 
L 3002 2988 
L 2861 4313 
z
" transform="scale(0.015625)"/>
       <path id="NimbusRomNo9L-Regu-67" d="M 3008 2438 
L 3008 2688 
L 2515 2688 
C 2387 2688 2291 2734 2163 2796 
L 2022 2847 
C 1850 2911 1677 2944 1510 2944 
C 915 2944 442 2438 442 1877 
C 442 1489 614 1255 1037 1049 
C 915 934 800 826 762 794 
C 550 610 467 483 467 356 
C 467 223 544 147 806 19 
C 352 -316 179 -529 179 -767 
C 179 -1108 678 -1389 1286 -1389 
C 1766 -1389 2266 -1223 2598 -954 
C 2842 -754 2950 -548 2950 -303 
C 2950 96 2650 363 2176 382 
L 1350 420 
C 1011 432 851 490 851 591 
C 851 718 1062 941 1235 992 
C 1293 985 1338 979 1357 979 
C 1478 966 1562 960 1600 960 
C 1837 960 2093 1056 2291 1224 
C 2502 1397 2598 1612 2598 1920 
C 2598 2099 2566 2241 2477 2438 
L 3008 2438 
z
M 941 0 
C 1152 -46 1664 -84 1978 -84 
C 2560 -84 2771 -168 2771 -400 
C 2771 -773 2285 -1024 1562 -1024 
C 998 -1024 627 -838 627 -554 
C 627 -406 672 -322 941 0 
z
M 973 2130 
C 973 2495 1152 2764 1446 2764 
C 1645 2764 1811 2611 1914 2419 
C 2029 2204 2106 1920 2106 1680 
C 2106 1335 1920 1120 1626 1120 
C 1242 1120 973 1520 973 2111 
L 973 2130 
z
" transform="scale(0.015625)"/>
       <path id="NimbusRomNo9L-Regu-6c" d="M 122 3987 
L 160 3987 
C 230 3993 307 4000 358 4000 
C 563 4000 627 3910 627 3609 
L 627 556 
C 627 211 538 128 134 96 
L 134 0 
L 1645 0 
L 1645 96 
C 1242 121 1165 185 1165 537 
L 1165 4358 
L 1139 4371 
C 806 4262 563 4198 122 4089 
L 122 3987 
z
" transform="scale(0.015625)"/>
      </defs>
      <use xlink:href="#NimbusRomNo9L-Regu-54" transform="scale(0.996264)"/>
      <use xlink:href="#NimbusRomNo9L-Regu-72" transform="translate(57.384828 0) scale(0.996264)"/>
      <use xlink:href="#NimbusRomNo9L-Regu-75" transform="translate(90.560438 0) scale(0.996264)"/>
      <use xlink:href="#NimbusRomNo9L-Regu-65" transform="translate(140.373639 0) scale(0.996264)"/>
      <use xlink:href="#NimbusRomNo9L-Regu-53" transform="translate(209.514385 0) scale(0.996264)"/>
      <use xlink:href="#NimbusRomNo9L-Regu-69" transform="translate(264.90664 0) scale(0.996264)"/>
      <use xlink:href="#NimbusRomNo9L-Regu-67" transform="translate(292.602767 0) scale(0.996264)"/>
      <use xlink:href="#NimbusRomNo9L-Regu-6e" transform="translate(342.415968 0) scale(0.996264)"/>
      <use xlink:href="#NimbusRomNo9L-Regu-61" transform="translate(392.229168 0) scale(0.996264)"/>
      <use xlink:href="#NimbusRomNo9L-Regu-6c" transform="translate(436.463314 0) scale(0.996264)"/>
     </g>
    </g>
   </g>
  </g>
 </g>
 <defs>
  <clipPath id="p298d2d31b5">
   <rect x="49.790726" y="4.32" width="669.6" height="277.2"/>
  </clipPath>
 </defs>
</svg>
