<svg xmlns="http://www.w3.org/2000/svg" xmlns:xlink="http://www.w3.org/1999/xlink" width="2000" zoomAndPan="magnify" viewBox="0 0 1500 956.249975" height="1275" preserveAspectRatio="xMidYMid meet" version="1.0"><defs><clipPath id="6c7533d7c9"><path d="M 0.585938 0 L 1499.410156 0 L 1499.410156 955.5 L 0.585938 955.5 Z M 0.585938 0 " clip-rule="nonzero"/></clipPath><clipPath id="1bce108f06"><path d="M 11.703125 415.589844 L 135.742188 415.589844 L 135.742188 539.632812 L 11.703125 539.632812 Z M 11.703125 415.589844 " clip-rule="nonzero"/></clipPath><clipPath id="c14bb20d41"><path d="M 278.300781 334.800781 L 402.339844 334.800781 L 402.339844 458.84375 L 278.300781 458.84375 Z M 278.300781 334.800781 " clip-rule="nonzero"/></clipPath><clipPath id="931b81115f"><path d="M 278.300781 496.960938 L 402.339844 496.960938 L 402.339844 621 L 278.300781 621 Z M 278.300781 496.960938 " clip-rule="nonzero"/></clipPath><clipPath id="1ea3e69b32"><path d="M 278.300781 821.449219 L 402.339844 821.449219 L 402.339844 945.488281 L 278.300781 945.488281 Z M 278.300781 821.449219 " clip-rule="nonzero"/></clipPath><clipPath id="5f4ae2a65f"><path d="M 278.300781 659.203125 L 402.339844 659.203125 L 402.339844 783.246094 L 278.300781 783.246094 Z M 278.300781 659.203125 " clip-rule="nonzero"/></clipPath><clipPath id="3c7d5ab8dc"><path d="M 278.300781 10.3125 L 402.339844 10.3125 L 402.339844 134.355469 L 278.300781 134.355469 Z M 278.300781 10.3125 " clip-rule="nonzero"/></clipPath><clipPath id="346d6f0d14"><path d="M 278.300781 172.558594 L 402.339844 172.558594 L 402.339844 296.597656 L 278.300781 296.597656 Z M 278.300781 172.558594 " clip-rule="nonzero"/></clipPath><clipPath id="b94172d208"><path d="M 544.984375 334.800781 L 669.027344 334.800781 L 669.027344 458.84375 L 544.984375 458.84375 Z M 544.984375 334.800781 " clip-rule="nonzero"/></clipPath><clipPath id="ed4bbd889b"><path d="M 544.917969 172.644531 L 668.960938 172.644531 L 668.960938 296.6875 L 544.917969 296.6875 Z M 544.917969 172.644531 " clip-rule="nonzero"/></clipPath><clipPath id="7e67ba1471"><path d="M 544.984375 497.046875 L 669.027344 497.046875 L 669.027344 621.089844 L 544.984375 621.089844 Z M 544.984375 497.046875 " clip-rule="nonzero"/></clipPath><clipPath id="a4c14b790e"><path d="M 544.984375 659.601562 L 669.027344 659.601562 L 669.027344 783.644531 L 544.984375 783.644531 Z M 544.984375 659.601562 " clip-rule="nonzero"/></clipPath><clipPath id="883f8a8bcf"><path d="M 743.480469 123.035156 L 1492.894531 123.035156 L 1492.894531 868 L 743.480469 868 Z M 743.480469 123.035156 " clip-rule="nonzero"/></clipPath><clipPath id="9571abc338"><path d="M 826.328125 133 L 1487.964844 133 L 1487.964844 785.773438 L 826.328125 785.773438 Z M 826.328125 133 " clip-rule="nonzero"/></clipPath><clipPath id="f7e0927e3b"><path d="M 826.328125 209 L 1311 209 L 1311 785.773438 L 826.328125 785.773438 Z M 826.328125 209 " clip-rule="nonzero"/></clipPath><clipPath id="dbacec0bd7"><path d="M 882 400 L 1487.964844 400 L 1487.964844 785.773438 L 882 785.773438 Z M 882 400 " clip-rule="nonzero"/></clipPath></defs><g clip-path="url(#6c7533d7c9)"><path fill="#ffffff" d="M 0.585938 0 L 1499.414062 0 L 1499.414062 955.5 L 0.585938 955.5 Z M 0.585938 0 " fill-opacity="1" fill-rule="nonzero"/><path fill="#ffffff" d="M 0.585938 0 L 1499.414062 0 L 1499.414062 955.5 L 0.585938 955.5 Z M 0.585938 0 " fill-opacity="1" fill-rule="nonzero"/></g><path fill="#ffffff" d="M 73.722656 533.992188 C 88.675781 533.992188 103.019531 528.050781 113.589844 517.480469 C 124.164062 506.90625 130.105469 492.5625 130.105469 477.609375 C 130.105469 462.660156 124.164062 448.316406 113.589844 437.742188 C 103.019531 427.167969 88.675781 421.230469 73.722656 421.230469 C 58.769531 421.230469 44.425781 427.167969 33.855469 437.742188 C 23.28125 448.316406 17.339844 462.660156 17.339844 477.609375 C 17.339844 492.5625 23.28125 506.90625 33.855469 517.480469 C 44.425781 528.050781 58.769531 533.992188 73.722656 533.992188 Z M 73.722656 533.992188 " fill-opacity="1" fill-rule="nonzero"/><g clip-path="url(#1bce108f06)"><path stroke-linecap="butt" transform="matrix(0.645793, 0, 0, 0.645793, 10.772328, 414.6605)" fill="none" stroke-linejoin="miter" d="M 97.477541 184.783143 C 120.632208 184.783143 142.843267 175.582973 159.211221 159.21502 C 175.585224 142.841017 184.785393 120.629957 184.785393 97.475291 C 184.785393 74.326673 175.585224 52.115614 159.211221 35.741611 C 142.843267 19.367608 120.632208 10.173488 97.477541 10.173488 C 74.322875 10.173488 52.111815 19.367608 35.743862 35.741611 C 19.369859 52.115614 10.16969 74.326673 10.16969 97.475291 C 10.16969 120.629957 19.369859 142.841017 35.743862 159.21502 C 52.111815 175.582973 74.322875 184.783143 97.477541 184.783143 Z M 97.477541 184.783143 " stroke="#000000" stroke-width="8" stroke-opacity="1" stroke-miterlimit="4"/></g><path fill="#000000" d="M 97.507812 462.34375 L 97.015625 462.34375 C 88.492188 462.34375 86.078125 467.042969 83.917969 474.148438 C 82.429688 478.964844 81.695312 487.742188 75.015625 488.109375 L 86.949219 449.800781 L 79.097656 451.105469 L 69.890625 488.175781 C 67.851562 487.925781 66.058594 485.394531 66.058594 482.179688 C 66.058594 478.105469 68.78125 473.839844 68.78125 468.828125 C 68.78125 464.386719 66.925781 462.410156 61.054688 462.410156 L 60.746094 463.578125 C 62.039062 463.886719 62.542969 464.8125 62.542969 466.609375 C 62.542969 471.300781 59.386719 476.128906 59.386719 481.003906 C 59.386719 488.234375 65.875 490.210938 69.339844 490.773438 L 66.058594 503.554688 L 70.015625 503.554688 L 74.339844 490.832031 C 80.210938 490.578125 87.679688 488.234375 90.277344 478.90625 C 90.894531 476.804688 92.441406 463.953125 97.257812 463.703125 Z M 97.507812 462.34375 " fill-opacity="1" fill-rule="nonzero"/><path fill="#ffffff" d="M 340.320312 453.207031 C 355.273438 453.207031 369.617188 447.265625 380.1875 436.691406 C 390.761719 426.117188 396.703125 411.777344 396.703125 396.824219 C 396.703125 381.871094 390.761719 367.527344 380.1875 356.953125 C 369.617188 346.382812 355.273438 340.441406 340.320312 340.441406 C 325.367188 340.441406 311.027344 346.382812 300.453125 356.953125 C 289.878906 367.527344 283.9375 381.871094 283.9375 396.824219 C 283.9375 411.777344 289.878906 426.117188 300.453125 436.691406 C 311.027344 447.265625 325.367188 453.207031 340.320312 453.207031 Z M 340.320312 453.207031 " fill-opacity="1" fill-rule="nonzero"/><g clip-path="url(#c14bb20d41)"><path stroke-linecap="butt" transform="matrix(0.645793, 0, 0, 0.645793, 277.370065, 333.872434)" fill="none" stroke-linejoin="miter" d="M 97.477423 184.787663 C 120.632091 184.787663 142.843153 175.587493 159.211108 159.213489 C 175.585112 142.839485 184.785282 120.634473 184.785282 97.479805 C 184.785282 74.325136 175.585112 52.114075 159.211108 35.740071 C 142.843153 19.372116 120.632091 10.171946 97.477423 10.171946 C 74.322755 10.171946 52.117743 19.372116 35.743739 35.740071 C 19.369735 52.114075 10.169565 74.325136 10.169565 97.479805 C 10.169565 120.634473 19.369735 142.839485 35.743739 159.213489 C 52.117743 175.587493 74.322755 184.787663 97.477423 184.787663 Z M 97.477423 184.787663 " stroke="#000000" stroke-width="8" stroke-opacity="1" stroke-miterlimit="4"/></g><path fill="#ffffff" d="M 340.320312 615.363281 C 355.273438 615.363281 369.617188 609.421875 380.1875 598.847656 C 390.761719 588.273438 396.703125 573.933594 396.703125 558.980469 C 396.703125 544.027344 390.761719 529.683594 380.1875 519.113281 C 369.617188 508.539062 355.273438 502.597656 340.320312 502.597656 C 325.367188 502.597656 311.027344 508.539062 300.453125 519.113281 C 289.878906 529.683594 283.9375 544.027344 283.9375 558.980469 C 283.9375 573.933594 289.878906 588.273438 300.453125 598.847656 C 311.027344 609.421875 325.367188 615.363281 340.320312 615.363281 Z M 340.320312 615.363281 " fill-opacity="1" fill-rule="nonzero"/><g clip-path="url(#931b81115f)"><path stroke-linecap="butt" transform="matrix(0.645793, 0, 0, 0.645793, 277.370065, 496.0293)" fill="none" stroke-linejoin="miter" d="M 97.477423 184.786709 C 120.632091 184.786709 142.843153 175.586539 159.211108 159.212535 C 175.585112 142.838531 184.785282 120.633518 184.785282 97.47885 C 184.785282 74.324182 175.585112 52.113121 159.211108 35.745166 C 142.843153 19.371162 120.632091 10.170992 97.477423 10.170992 C 74.322755 10.170992 52.117743 19.371162 35.743739 35.745166 C 19.369735 52.113121 10.169565 74.324182 10.169565 97.47885 C 10.169565 120.633518 19.369735 142.838531 35.743739 159.212535 C 52.117743 175.586539 74.322755 184.786709 97.477423 184.786709 Z M 97.477423 184.786709 " stroke="#000000" stroke-width="8" stroke-opacity="1" stroke-miterlimit="4"/></g><path fill="#ffffff" d="M 340.320312 939.851562 C 355.273438 939.851562 369.617188 933.910156 380.1875 923.335938 C 390.761719 912.765625 396.703125 898.421875 396.703125 883.46875 C 396.703125 868.515625 390.761719 854.171875 380.1875 843.601562 C 369.617188 833.027344 355.273438 827.085938 340.320312 827.085938 C 325.367188 827.085938 311.027344 833.027344 300.453125 843.601562 C 289.878906 854.171875 283.9375 868.515625 283.9375 883.46875 C 283.9375 898.421875 289.878906 912.765625 300.453125 923.335938 C 311.027344 933.910156 325.367188 939.851562 340.320312 939.851562 Z M 340.320312 939.851562 " fill-opacity="1" fill-rule="nonzero"/><g clip-path="url(#1ea3e69b32)"><path stroke-linecap="butt" transform="matrix(0.645793, 0, 0, 0.645793, 277.370065, 820.518153)" fill="none" stroke-linejoin="miter" d="M 97.477423 184.785823 C 120.632091 184.785823 142.843153 175.585653 159.211108 159.211649 C 175.585112 142.843694 184.785282 120.632633 184.785282 97.477965 C 184.785282 74.323297 175.585112 52.112235 159.211108 35.74428 C 142.843153 19.370276 120.632091 10.170106 97.477423 10.170106 C 74.322755 10.170106 52.117743 19.370276 35.743739 35.74428 C 19.369735 52.112235 10.169565 74.323297 10.169565 97.477965 C 10.169565 120.632633 19.369735 142.843694 35.743739 159.211649 C 52.117743 175.585653 74.322755 184.785823 97.477423 184.785823 Z M 97.477423 184.785823 " stroke="#000000" stroke-width="8" stroke-opacity="1" stroke-miterlimit="4"/></g><path fill="#ffffff" d="M 340.320312 777.605469 C 355.273438 777.605469 369.617188 771.664062 380.1875 761.09375 C 390.761719 750.519531 396.703125 736.175781 396.703125 721.222656 C 396.703125 706.269531 390.761719 691.929688 380.1875 681.355469 C 369.617188 670.78125 355.273438 664.84375 340.320312 664.84375 C 325.367188 664.84375 311.027344 670.78125 300.453125 681.355469 C 289.878906 691.929688 283.9375 706.269531 283.9375 721.222656 C 283.9375 736.175781 289.878906 750.519531 300.453125 761.09375 C 311.027344 771.664062 325.367188 777.605469 340.320312 777.605469 Z M 340.320312 777.605469 " fill-opacity="1" fill-rule="nonzero"/><g clip-path="url(#5f4ae2a65f)"><path stroke-linecap="butt" transform="matrix(0.645793, 0, 0, 0.645793, 277.370065, 658.273702)" fill="none" stroke-linejoin="miter" d="M 97.477423 184.783279 C 120.632091 184.783279 142.843153 175.583109 159.211108 159.215154 C 175.585112 142.84115 184.785282 120.630089 184.785282 97.47542 C 184.785282 74.320752 175.585112 52.11574 159.211108 35.741736 C 142.843153 19.367732 120.632091 10.173611 97.477423 10.173611 C 74.322755 10.173611 52.117743 19.367732 35.743739 35.741736 C 19.369735 52.11574 10.169565 74.320752 10.169565 97.47542 C 10.169565 120.630089 19.369735 142.84115 35.743739 159.215154 C 52.117743 175.583109 74.322755 184.783279 97.477423 184.783279 Z M 97.477423 184.783279 " stroke="#000000" stroke-width="8" stroke-opacity="1" stroke-miterlimit="4"/></g><path fill="#ffffff" d="M 340.320312 128.714844 C 355.273438 128.714844 369.617188 122.777344 380.1875 112.203125 C 390.761719 101.628906 396.703125 87.285156 396.703125 72.335938 C 396.703125 57.382812 390.761719 43.039062 380.1875 32.464844 C 369.617188 21.894531 355.273438 15.953125 340.320312 15.953125 C 325.367188 15.953125 311.027344 21.894531 300.453125 32.464844 C 289.878906 43.039062 283.9375 57.382812 283.9375 72.335938 C 283.9375 87.285156 289.878906 101.628906 300.453125 112.203125 C 311.027344 122.777344 325.367188 128.714844 340.320312 128.714844 Z M 340.320312 128.714844 " fill-opacity="1" fill-rule="nonzero"/><g clip-path="url(#3c7d5ab8dc)"><path stroke-linecap="butt" transform="matrix(0.645793, 0, 0, 0.645793, 277.370065, 9.383601)" fill="none" stroke-linejoin="miter" d="M 97.477423 184.782468 C 120.632091 184.782468 142.843153 175.588347 159.211108 159.214343 C 175.585112 142.840339 184.785282 120.629278 184.785282 97.480658 C 184.785282 74.32599 175.585112 52.114929 159.211108 35.740925 C 142.843153 19.37297 120.632091 10.1728 97.477423 10.1728 C 74.322755 10.1728 52.117743 19.37297 35.743739 35.740925 C 19.369735 52.114929 10.169565 74.32599 10.169565 97.480658 C 10.169565 120.629278 19.369735 142.840339 35.743739 159.214343 C 52.117743 175.588347 74.322755 184.782468 97.477423 184.782468 Z M 97.477423 184.782468 " stroke="#000000" stroke-width="8" stroke-opacity="1" stroke-miterlimit="4"/></g><path fill="#ffffff" d="M 340.320312 290.960938 C 355.273438 290.960938 369.617188 285.019531 380.1875 274.445312 C 390.761719 263.875 396.703125 249.53125 396.703125 234.578125 C 396.703125 219.625 390.761719 205.285156 380.1875 194.710938 C 369.617188 184.136719 355.273438 178.195312 340.320312 178.195312 C 325.367188 178.195312 311.027344 184.136719 300.453125 194.710938 C 289.878906 205.285156 283.9375 219.625 283.9375 234.578125 C 283.9375 249.53125 289.878906 263.875 300.453125 274.445312 C 311.027344 285.019531 325.367188 290.960938 340.320312 290.960938 Z M 340.320312 290.960938 " fill-opacity="1" fill-rule="nonzero"/><g clip-path="url(#346d6f0d14)"><path stroke-linecap="butt" transform="matrix(0.645793, 0, 0, 0.645793, 277.370065, 171.628005)" fill="none" stroke-linejoin="miter" d="M 97.477423 184.785085 C 120.632091 184.785085 142.843153 175.584915 159.211108 159.210911 C 175.585112 142.842956 184.785282 120.631895 184.785282 97.477227 C 184.785282 74.322558 175.585112 52.117546 159.211108 35.743542 C 142.843153 19.369538 120.632091 10.169368 97.477423 10.169368 C 74.322755 10.169368 52.117743 19.369538 35.743739 35.743542 C 19.369735 52.117546 10.169565 74.322558 10.169565 97.477227 C 10.169565 120.631895 19.369735 142.842956 35.743739 159.210911 C 52.117743 175.584915 74.322755 184.785085 97.477423 184.785085 Z M 97.477423 184.785085 " stroke="#000000" stroke-width="8" stroke-opacity="1" stroke-miterlimit="4"/></g><path fill="#ffffff" d="M 607.003906 453.207031 C 621.957031 453.207031 636.300781 447.265625 646.875 436.691406 C 657.445312 426.117188 663.386719 411.777344 663.386719 396.824219 C 663.386719 381.871094 657.445312 367.527344 646.875 356.953125 C 636.300781 346.382812 621.957031 340.441406 607.003906 340.441406 C 592.050781 340.441406 577.710938 346.382812 567.136719 356.953125 C 556.5625 367.527344 550.621094 381.871094 550.621094 396.824219 C 550.621094 411.777344 556.5625 426.117188 567.136719 436.691406 C 577.710938 447.265625 592.050781 453.207031 607.003906 453.207031 Z M 607.003906 453.207031 " fill-opacity="1" fill-rule="nonzero"/><g clip-path="url(#b94172d208)"><path stroke-linecap="butt" transform="matrix(0.645793, 0, 0, 0.645793, 544.054525, 333.872434)" fill="none" stroke-linejoin="miter" d="M 97.476083 184.787663 C 120.630751 184.787663 142.841812 175.587493 159.215816 159.213489 C 175.583771 142.839485 184.783941 120.634473 184.783941 97.479805 C 184.783941 74.325136 175.583771 52.114075 159.215816 35.740071 C 142.841812 19.372116 120.630751 10.171946 97.476083 10.171946 C 74.321415 10.171946 52.116402 19.372116 35.742398 35.740071 C 19.368394 52.114075 10.168225 74.325136 10.168225 97.479805 C 10.168225 120.634473 19.368394 142.839485 35.742398 159.213489 C 52.116402 175.587493 74.321415 184.787663 97.476083 184.787663 Z M 97.476083 184.787663 " stroke="#000000" stroke-width="8" stroke-opacity="1" stroke-miterlimit="4"/></g><path fill="#000000" d="M 628.730469 383.039062 L 622.988281 383.910156 C 622.0625 386.390625 619.097656 392.085938 617.863281 394.132812 C 618.113281 392.578125 618.230469 391.160156 618.230469 389.796875 C 618.230469 384.527344 616.007812 381.371094 609.832031 381.371094 C 598.457031 381.371094 591.855469 392.703125 591.855469 400.136719 C 591.855469 405.59375 595.003906 410.410156 602.289062 410.410156 C 607.542969 410.410156 610.574219 407.136719 610.574219 407.070312 L 610.632812 407.070312 C 610.632812 407.136719 610.882812 410.292969 615.574219 410.292969 C 620.277344 410.292969 623.730469 404.964844 623.730469 403.167969 C 623.730469 402.859375 623.605469 402.617188 623.296875 402.617188 C 622.3125 402.617188 620.332031 407.878906 617.371094 407.878906 C 616.257812 407.878906 615.949219 406.761719 615.949219 405.398438 C 615.949219 403.785156 616.441406 401.808594 616.683594 401.191406 C 618.046875 399.335938 628.730469 383.109375 628.730469 383.039062 Z M 612.550781 391.160156 C 612.550781 396.113281 610.632812 403.417969 610.324219 404.414062 C 609.832031 405.089844 607.175781 408.804688 603.59375 408.804688 C 600.746094 408.804688 599.386719 406.085938 599.386719 399.828125 C 599.386719 397.039062 600.503906 383.039062 608.777344 383.039062 C 612.242188 383.039062 612.550781 387.441406 612.550781 389.921875 Z M 612.550781 391.160156 " fill-opacity="1" fill-rule="nonzero"/><path fill="#ffffff" d="M 606.941406 291.046875 C 621.894531 291.046875 636.234375 285.109375 646.808594 274.535156 C 657.382812 263.960938 663.324219 249.617188 663.324219 234.667969 C 663.324219 219.714844 657.382812 205.371094 646.808594 194.796875 C 636.234375 184.222656 621.894531 178.285156 606.941406 178.285156 C 591.988281 178.285156 577.644531 184.222656 567.070312 194.796875 C 556.5 205.371094 550.558594 219.714844 550.558594 234.667969 C 550.558594 249.617188 556.5 263.960938 567.070312 274.535156 C 577.644531 285.109375 591.988281 291.046875 606.941406 291.046875 Z M 606.941406 291.046875 " fill-opacity="1" fill-rule="nonzero"/><g clip-path="url(#ed4bbd889b)"><path stroke-linecap="butt" transform="matrix(0.645793, 0, 0, 0.645793, 543.989655, 171.715579)" fill="none" stroke-linejoin="miter" d="M 97.479744 184.782536 C 120.634411 184.782536 142.839421 175.588416 159.213424 159.214413 C 175.587427 142.840411 184.787596 120.629351 184.787596 97.480733 C 184.787596 74.326067 175.587427 52.115007 159.213424 35.741005 C 142.839421 19.367002 120.634411 10.172881 97.479744 10.172881 C 74.325078 10.172881 52.114018 19.367002 35.740015 35.741005 C 19.372062 52.115007 10.171892 74.326067 10.171892 97.480733 C 10.171892 120.629351 19.372062 142.840411 35.740015 159.214413 C 52.114018 175.588416 74.325078 184.782536 97.479744 184.782536 Z M 97.479744 184.782536 " stroke="#000000" stroke-width="8" stroke-opacity="1" stroke-miterlimit="4"/></g><path fill="#000000" d="M 596.046875 207.828125 L 615.265625 207.828125 L 615.265625 204.488281 L 596.046875 204.488281 Z M 596.046875 207.828125 " fill-opacity="1" fill-rule="nonzero"/><path fill="#000000" d="M 627.125 214.023438 L 622.308594 214.023438 L 614.210938 251.925781 L 614.152344 251.925781 C 613.714844 249.773438 613.15625 247.628906 612.539062 245.167969 L 604.699219 214.023438 L 597.09375 214.023438 L 587.949219 256.65625 L 592.769531 256.65625 L 600.867188 218.765625 L 600.925781 218.765625 C 601.234375 220.425781 602.101562 223.679688 603.648438 229.945312 L 610.375 256.65625 L 617.984375 256.65625 Z M 627.125 214.023438 " fill-opacity="1" fill-rule="nonzero"/><path fill="#ffffff" d="M 607.003906 615.449219 C 621.957031 615.449219 636.300781 609.507812 646.875 598.9375 C 657.445312 588.363281 663.386719 574.019531 663.386719 559.066406 C 663.386719 544.113281 657.445312 529.773438 646.875 519.199219 C 636.300781 508.625 621.957031 502.683594 607.003906 502.683594 C 592.050781 502.683594 577.710938 508.625 567.136719 519.199219 C 556.5625 529.773438 550.621094 544.113281 550.621094 559.066406 C 550.621094 574.019531 556.5625 588.363281 567.136719 598.9375 C 577.710938 609.507812 592.050781 615.449219 607.003906 615.449219 Z M 607.003906 615.449219 " fill-opacity="1" fill-rule="nonzero"/><g clip-path="url(#7e67ba1471)"><path stroke-linecap="butt" transform="matrix(0.645793, 0, 0, 0.645793, 544.054525, 496.116831)" fill="none" stroke-linejoin="miter" d="M 97.476076 184.784227 C 120.630742 184.784227 142.841802 175.584058 159.215804 159.216104 C 175.583758 142.842101 184.783927 120.631041 184.783927 97.476375 C 184.783927 74.321708 175.583758 52.116698 159.215804 35.742695 C 142.841802 19.368692 120.630742 10.168523 97.476076 10.168523 C 74.321409 10.168523 52.116398 19.368692 35.742396 35.742695 C 19.368393 52.116698 10.168224 74.321708 10.168224 97.476375 C 10.168224 120.631041 19.368393 142.842101 35.742396 159.216104 C 52.116398 175.584058 74.321409 184.784227 97.476076 184.784227 Z M 97.476076 184.784227 " stroke="#000000" stroke-width="8" stroke-opacity="1" stroke-miterlimit="4"/></g><path fill="#000000" d="M 620.429688 543.613281 L 612.890625 544.917969 L 607.695312 565.171875 C 607.695312 565.421875 604.480469 569.070312 601.335938 569.070312 C 598.804688 569.070312 597.878906 567.402344 597.878906 564.613281 C 597.878906 559.96875 600.347656 552.351562 602.628906 543.808594 L 595.832031 544.984375 C 592.375 558.046875 589.59375 571.417969 584.710938 585.011719 L 592.25 585.011719 L 595.832031 570.683594 L 595.898438 570.683594 C 595.898438 570.742188 596.953125 572.59375 599.914062 572.59375 C 603.679688 572.59375 607.570312 568.269531 607.570312 568.203125 C 607.570312 568.269531 607.570312 572.652344 613.441406 572.652344 C 617.832031 572.652344 619.6875 568.886719 619.6875 567.152344 C 619.6875 566.589844 619.503906 566.222656 619.195312 566.222656 C 618.324219 566.222656 617.648438 570.066406 615.542969 570.066406 C 614.984375 570.066406 614.742188 569.449219 614.742188 568.511719 C 614.742188 566.910156 615.417969 564.175781 615.980469 561.890625 Z M 620.429688 543.613281 " fill-opacity="1" fill-rule="nonzero"/><path fill="#ffffff" d="M 607.003906 778.003906 C 621.957031 778.003906 636.300781 772.066406 646.875 761.492188 C 657.445312 750.917969 663.386719 736.574219 663.386719 721.625 C 663.386719 706.671875 657.445312 692.328125 646.875 681.753906 C 636.300781 671.183594 621.957031 665.242188 607.003906 665.242188 C 592.050781 665.242188 577.710938 671.183594 567.136719 681.753906 C 556.5625 692.328125 550.621094 706.671875 550.621094 721.625 C 550.621094 736.574219 556.5625 750.917969 567.136719 761.492188 C 577.710938 772.066406 592.050781 778.003906 607.003906 778.003906 Z M 607.003906 778.003906 " fill-opacity="1" fill-rule="nonzero"/><g clip-path="url(#a4c14b790e)"><path stroke-linecap="butt" transform="matrix(0.645793, 0, 0, 0.645793, 544.054525, 658.672821)" fill="none" stroke-linejoin="miter" d="M 97.476076 184.78221 C 120.630742 184.78221 142.841802 175.588089 159.215804 159.214087 C 175.583758 142.840084 184.783927 120.629024 184.783927 97.480407 C 184.783927 74.32574 175.583758 52.114681 159.215804 35.740678 C 142.841802 19.372724 120.630742 10.172555 97.476076 10.172555 C 74.321409 10.172555 52.116398 19.372724 35.742396 35.740678 C 19.368393 52.114681 10.168224 74.32574 10.168224 97.480407 C 10.168224 120.629024 19.368393 142.840084 35.742396 159.214087 C 52.116398 175.588089 74.321409 184.78221 97.476076 184.78221 Z M 97.476076 184.78221 " stroke="#000000" stroke-width="8" stroke-opacity="1" stroke-miterlimit="4"/></g><path fill="#000000" d="M 632.992188 708.425781 L 610.3125 708.425781 C 600.246094 708.425781 591.410156 716.476562 591.410156 726.941406 C 591.410156 733.503906 595.246094 737.464844 602.28125 737.464844 C 610.566406 737.464844 620.574219 729.914062 620.574219 718.773438 C 620.574219 716.476562 619.832031 714.246094 619.832031 714.1875 L 631.386719 714.1875 Z M 613.402344 718.832031 C 613.402344 727.5 609.328125 735.804688 603.152344 735.804688 C 599.132812 735.804688 598.882812 730.53125 598.882812 727.625 C 598.882812 716.042969 604.511719 710.347656 608.710938 710.347656 C 611.492188 710.347656 613.402344 712.519531 613.402344 718.832031 Z M 613.402344 718.832031 " fill-opacity="1" fill-rule="nonzero"/><path stroke-linecap="butt" transform="matrix(0.245347, -0.708113, 0.708113, 0.245347, 135.445495, 477.212124)" fill="none" stroke-linejoin="miter" d="M 0.000293904 2.002102 L 572.681566 1.999795 " stroke="#000000" stroke-width="4" stroke-opacity="1" stroke-miterlimit="4"/><path stroke-linecap="butt" transform="matrix(0.374803, -0.648954, 0.648954, 0.374803, 135.565694, 476.955645)" fill="none" stroke-linejoin="miter" d="M -0.00227077 2.000818 L 374.880417 2.001746 " stroke="#000000" stroke-width="4" stroke-opacity="1" stroke-miterlimit="4"/><path stroke-linecap="butt" transform="matrix(0.649183, -0.374407, 0.374407, 0.649183, 136.114858, 476.405684)" fill="none" stroke-linejoin="miter" d="M 0.000165152 1.998671 L 216.43771 1.999453 " stroke="#000000" stroke-width="4" stroke-opacity="1" stroke-miterlimit="4"/><path stroke-linecap="butt" transform="matrix(0.649008, 0.37471, -0.37471, 0.649008, 137.613287, 476.410169)" fill="none" stroke-linejoin="miter" d="M -0.00144572 1.999058 L 216.496019 2.000912 " stroke="#000000" stroke-width="4" stroke-opacity="1" stroke-miterlimit="4"/><path stroke-linecap="butt" transform="matrix(0.371337, 0.650944, -0.650944, 0.371337, 138.165979, 476.964206)" fill="none" stroke-linejoin="miter" d="M -0.000359696 2.00104 L 376.112018 2.001367 " stroke="#000000" stroke-width="4" stroke-opacity="1" stroke-miterlimit="4"/><path stroke-linecap="butt" transform="matrix(0.2453, 0.708129, -0.708129, 0.2453, 138.277717, 477.219918)" fill="none" stroke-linejoin="miter" d="M 0.00132644 1.997886 L 572.790973 1.999495 " stroke="#000000" stroke-width="4" stroke-opacity="1" stroke-miterlimit="4"/><path stroke-linecap="butt" transform="matrix(0.487143, 0.569482, -0.569482, 0.487143, 404.105938, 71.212848)" fill="none" stroke-linejoin="miter" d="M 0.00191189 1.998515 L 287.891597 2.000928 " stroke="#000000" stroke-width="4" stroke-opacity="1" stroke-miterlimit="4"/><path stroke-linecap="butt" transform="matrix(0.749411, 0.00129314, -0.00129314, 0.749411, 402.971459, 232.92859)" fill="none" stroke-linejoin="miter" d="M -0.000168107 1.997825 L 188.173653 2.001507 " stroke="#000000" stroke-width="4" stroke-opacity="1" stroke-miterlimit="4"/><path stroke-linecap="butt" transform="matrix(0.749412, -0.000000000000000929, 0.000000000000000929, 0.749412, 402.968893, 395.173002)" fill="none" stroke-linejoin="miter" d="M -0.000191419 2.000065 L 188.261945 2.000065 " stroke="#000000" stroke-width="4" stroke-opacity="1" stroke-miterlimit="4"/><path stroke-linecap="butt" transform="matrix(0.749411, 0.00129254, -0.00129254, 0.749411, 402.971459, 557.329873)" fill="none" stroke-linejoin="miter" d="M -0.000167253 1.99924 L 188.262256 1.997706 " stroke="#000000" stroke-width="4" stroke-opacity="1" stroke-miterlimit="4"/><path stroke-linecap="butt" transform="matrix(0.749406, 0.00294747, -0.00294747, 0.749406, 402.974793, 719.574323)" fill="none" stroke-linejoin="miter" d="M -0.000191641 2.001445 L 188.263408 2.001159 " stroke="#000000" stroke-width="4" stroke-opacity="1" stroke-miterlimit="4"/><path stroke-linecap="butt" transform="matrix(0.492714, -0.564669, 0.564669, 0.492714, 401.839523, 882.332139)" fill="none" stroke-linejoin="miter" d="M 0.00106959 1.998869 L 286.343065 2.000935 " stroke="#000000" stroke-width="4" stroke-opacity="1" stroke-miterlimit="4"/><path stroke-linecap="butt" transform="matrix(0.299005, -0.687179, 0.687179, 0.299005, 401.593066, 882.717253)" fill="none" stroke-linejoin="miter" d="M -0.00069237 2.002231 L 471.850536 2.002276 " stroke="#000000" stroke-width="4" stroke-opacity="1" stroke-miterlimit="4"/><path stroke-linecap="butt" transform="matrix(0.208673, -0.719774, 0.719774, 0.208673, 401.525123, 882.894546)" fill="none" stroke-linejoin="miter" d="M -0.00071513 2.000448 L 676.107142 2.001279 " stroke="#000000" stroke-width="4" stroke-opacity="1" stroke-miterlimit="4"/><path stroke-linecap="butt" transform="matrix(0.159209, -0.732305, 0.732305, 0.159209, 401.501293, 882.995411)" fill="none" stroke-linejoin="miter" d="M 0.00143196 1.998242 L 885.759255 2.002328 " stroke="#000000" stroke-width="4" stroke-opacity="1" stroke-miterlimit="4"/><path stroke-linecap="butt" transform="matrix(0.298816, 0.687261, -0.687261, 0.298816, 404.341721, 71.587928)" fill="none" stroke-linejoin="miter" d="M 0.00319823 1.999134 L 472.150751 1.998466 " stroke="#000000" stroke-width="4" stroke-opacity="1" stroke-miterlimit="4"/><path stroke-linecap="butt" transform="matrix(0.208577, 0.719802, -0.719802, 0.208577, 404.404455, 71.771197)" fill="none" stroke-linejoin="miter" d="M -0.00109264 1.999695 L 676.4222 1.99991 " stroke="#000000" stroke-width="4" stroke-opacity="1" stroke-miterlimit="4"/><path stroke-linecap="butt" transform="matrix(0.159092, 0.732331, -0.732331, 0.159092, 404.431578, 71.867258)" fill="none" stroke-linejoin="miter" d="M -0.0018904 1.997086 L 886.816616 2.001855 " stroke="#000000" stroke-width="4" stroke-opacity="1" stroke-miterlimit="4"/><path stroke-linecap="butt" transform="matrix(0.491755, 0.565504, -0.565504, 0.491755, 404.098407, 233.447132)" fill="none" stroke-linejoin="miter" d="M 0.000221166 1.997802 L 286.904267 1.99896 " stroke="#000000" stroke-width="4" stroke-opacity="1" stroke-miterlimit="4"/><path stroke-linecap="butt" transform="matrix(0.298696, 0.687313, -0.687313, 0.298696, 404.341097, 233.833666)" fill="none" stroke-linejoin="miter" d="M -0.00254234 2.001262 L 472.336226 2.00084 " stroke="#000000" stroke-width="4" stroke-opacity="1" stroke-miterlimit="4"/><path stroke-linecap="butt" transform="matrix(0.208454, 0.719837, -0.719837, 0.208454, 404.406374, 234.013379)" fill="none" stroke-linejoin="miter" d="M -0.00145562 2.002156 L 676.822333 2.002713 " stroke="#000000" stroke-width="4" stroke-opacity="1" stroke-miterlimit="4"/><path stroke-linecap="butt" transform="matrix(0.492047, -0.565251, 0.565251, 0.492047, 401.837533, 395.685883)" fill="none" stroke-linejoin="miter" d="M -0.00128412 2.002384 L 286.600788 1.998634 " stroke="#000000" stroke-width="4" stroke-opacity="1" stroke-miterlimit="4"/><path stroke-linecap="butt" transform="matrix(0.491487, 0.565738, -0.565738, 0.491487, 404.098767, 395.692293)" fill="none" stroke-linejoin="miter" d="M 0.00179585 1.998981 L 287.059263 1.997141 " stroke="#000000" stroke-width="4" stroke-opacity="1" stroke-miterlimit="4"/><path stroke-linecap="butt" transform="matrix(0.298455, 0.687418, -0.687418, 0.298455, 404.343375, 396.075371)" fill="none" stroke-linejoin="miter" d="M -0.0003847 1.999527 L 472.720869 1.999614 " stroke="#000000" stroke-width="4" stroke-opacity="1" stroke-miterlimit="4"/><path stroke-linecap="butt" transform="matrix(0.298957, -0.6872, 0.6872, 0.298957, 401.593244, 558.22888)" fill="none" stroke-linejoin="miter" d="M -0.0010386 2.002063 L 471.709647 1.999359 " stroke="#000000" stroke-width="4" stroke-opacity="1" stroke-miterlimit="4"/><path stroke-linecap="butt" transform="matrix(0.491906, -0.565373, 0.565373, 0.491906, 401.837943, 557.844437)" fill="none" stroke-linejoin="miter" d="M 0.000179488 1.999952 L 286.813793 2.000796 " stroke="#000000" stroke-width="4" stroke-opacity="1" stroke-miterlimit="4"/><path stroke-linecap="butt" transform="matrix(0.490799, 0.566335, -0.566335, 0.490799, 404.10047, 557.849425)" fill="none" stroke-linejoin="miter" d="M 0.00184677 1.999923 L 287.460892 1.997487 " stroke="#000000" stroke-width="4" stroke-opacity="1" stroke-miterlimit="4"/><path stroke-linecap="butt" transform="matrix(0.492176, -0.565139, 0.565139, 0.492176, 401.838499, 720.088504)" fill="none" stroke-linejoin="miter" d="M -0.00139568 2.001168 L 286.65887 1.998982 " stroke="#000000" stroke-width="4" stroke-opacity="1" stroke-miterlimit="4"/><path stroke-linecap="butt" transform="matrix(0.196345, 0.723234, -0.723234, 0.196345, 671.343178, 234.282347)" fill="none" stroke-linejoin="miter" d="M 0.00156306 1.998036 L 320.700907 2.001912 " stroke="#000000" stroke-width="4" stroke-opacity="1" stroke-miterlimit="4"/><path stroke-linecap="round" transform="matrix(0.196345, 0.723234, -0.723234, 0.196345, 671.343178, 234.282347)" fill-opacity="1" fill="#000000" fill-rule="nonzero" stroke-linejoin="round" d="M 333.702068 1.999178 C 333.698598 5.314504 331.014527 7.999315 327.697835 8.000876 C 324.38754 7.998771 321.697698 5.313335 321.701168 1.998009 C 321.698242 -1.313653 324.387343 -3.997098 327.699004 -4.000024 C 331.015696 -4.001585 333.699142 -1.312483 333.702068 1.999178 " stroke="#000000" stroke-width="4" stroke-opacity="1" stroke-miterlimit="4"/><path stroke-linecap="butt" transform="matrix(0.474815, 0.579801, -0.579801, 0.474815, 670.811635, 395.724934)" fill="none" stroke-linejoin="miter" d="M 0.00152062 2.000708 L 124.335984 2.001918 " stroke="#000000" stroke-width="4" stroke-opacity="1" stroke-miterlimit="4"/><path stroke-linecap="round" transform="matrix(0.474815, 0.579801, -0.579801, 0.474815, 670.811635, 395.724934)" fill-opacity="1" fill="#000000" fill-rule="nonzero" stroke-linejoin="round" d="M 137.340379 2.00002 C 137.336701 5.311722 134.652033 7.997661 131.337029 7.998015 C 128.022025 7.998369 125.336086 5.313701 125.335731 1.998697 C 125.33941 -1.313004 128.024078 -3.998944 131.339082 -3.999298 C 134.654086 -3.999652 137.340025 -1.314984 137.340379 2.00002 " stroke="#000000" stroke-width="4" stroke-opacity="1" stroke-miterlimit="4"/><path stroke-linecap="butt" transform="matrix(0.470583, -0.583241, 0.583241, 0.470583, 668.797478, 558.128878)" fill="none" stroke-linejoin="miter" d="M 0.000460139 2.001142 L 124.928657 2.001168 " stroke="#000000" stroke-width="4" stroke-opacity="1" stroke-miterlimit="4"/><path stroke-linecap="round" transform="matrix(0.470583, -0.583241, 0.583241, 0.470583, 668.797478, 558.128878)" fill-opacity="1" fill="#000000" fill-rule="nonzero" stroke-linejoin="round" d="M 137.928221 2.000855 C 137.929787 5.314847 135.240746 8.00018 131.926755 8.001746 C 128.61682 8.000038 125.92743 5.314271 125.925864 2.000279 C 125.931628 -1.312929 128.613339 -3.999045 131.927331 -4.000611 C 135.241322 -4.002177 137.926655 -1.313136 137.928221 2.000855 " stroke="#000000" stroke-width="4" stroke-opacity="1" stroke-miterlimit="4"/><path stroke-linecap="butt" transform="matrix(0.195132, -0.723562, 0.723562, 0.195132, 668.513445, 721.232167)" fill="none" stroke-linejoin="miter" d="M 0.00185163 2.00001 L 322.452276 2.001907 " stroke="#000000" stroke-width="4" stroke-opacity="1" stroke-miterlimit="4"/><path stroke-linecap="round" transform="matrix(0.195132, -0.723562, 0.723562, 0.195132, 668.513445, 721.232167)" fill-opacity="1" fill="#000000" fill-rule="nonzero" stroke-linejoin="round" d="M 335.451661 1.999911 C 335.454607 5.313881 332.766658 7.998481 329.452688 8.001427 C 326.137361 7.99934 323.452761 5.311391 323.451172 2.002454 C 323.453259 -1.312873 326.139851 -4.002506 329.455178 -4.000419 C 332.764115 -4.002008 335.453748 -1.315416 335.451661 1.999911 " stroke="#000000" stroke-width="4" stroke-opacity="1" stroke-miterlimit="4"/><g clip-path="url(#883f8a8bcf)"><path fill="#ffffff" d="M 743.480469 867.980469 L 1492.894531 867.980469 L 1492.894531 123.753906 L 743.480469 123.753906 Z M 743.480469 867.980469 " fill-opacity="1" fill-rule="nonzero"/></g><path fill="#ffffff" d="M 826.328125 785.769531 L 1487.964844 785.769531 L 1487.964844 128.679688 L 826.328125 128.679688 Z M 826.328125 785.769531 " fill-opacity="1" fill-rule="nonzero"/><path fill="#000000" d="M 1184.238281 810.546875 L 1177.453125 810.546875 L 1167.832031 827.4375 L 1163.011719 836.140625 C 1161.507812 838.847656 1158.953125 843.449219 1158.320312 845.175781 L 1158.265625 845.175781 C 1158.265625 842.179688 1157.738281 837.921875 1157.332031 835.042969 L 1153.96875 810.546875 L 1147.183594 810.546875 L 1138.605469 850.539062 L 1143.125 850.539062 L 1150.78125 815.109375 L 1150.78125 815.746094 C 1150.78125 817.875 1151.703125 825.425781 1152.347656 830.089844 L 1155.074219 849.613281 L 1159.425781 849.613281 L 1169.570312 831.820312 L 1174.316406 823.234375 C 1174.554688 822.828125 1178.496094 815.628906 1178.558594 815.285156 L 1178.613281 815.285156 L 1171.074219 850.539062 L 1175.660156 850.539062 Z M 1184.238281 810.546875 " fill-opacity="1" fill-rule="nonzero"/><path fill="#000000" d="M 771.007812 518.546875 C 770.019531 518.320312 769.496094 518.257812 768.035156 518.257812 C 764.375 518.257812 762.628906 520.285156 762.628906 524.289062 C 762.628906 529.214844 766.289062 532.574219 766.523438 532.8125 L 762.925781 532.050781 L 762.925781 536.289062 L 788.140625 541.613281 L 788.140625 537.210938 L 775.554688 534.550781 C 773.046875 534.023438 766.171875 532.519531 766.171875 527.242188 C 766.171875 524.171875 767.394531 522.839844 769.667969 522.839844 C 770.484375 522.839844 770.71875 522.894531 771.007812 522.957031 L 788.140625 526.609375 L 788.140625 522.195312 Z M 771.007812 518.546875 " fill-opacity="1" fill-rule="nonzero"/><path fill="#000000" d="M 748.710938 499.523438 C 751.503906 503.816406 753.007812 505.554688 755.679688 507.691406 C 760.714844 511.8125 766.515625 513.839844 773.300781 513.839844 C 780.667969 513.839844 786.347656 511.695312 792.261719 506.597656 C 795.042969 504.214844 796.320312 502.710938 798.179688 499.695312 L 797.253906 499 C 793.59375 503.636719 791.566406 505.265625 787.214844 506.824219 C 783.339844 508.21875 778.925781 508.851562 773.128906 508.851562 C 767.039062 508.851562 762.285156 508.101562 758.6875 506.535156 C 755.097656 504.914062 753.007812 503.171875 749.644531 499 Z M 748.710938 499.523438 " fill-opacity="1" fill-rule="nonzero"/><path fill="#000000" d="M 748.132812 446.496094 L 748.132812 453.28125 L 765.027344 462.898438 L 773.734375 467.714844 C 776.445312 469.21875 781.046875 471.773438 782.777344 472.40625 L 782.777344 472.460938 C 779.777344 472.460938 775.519531 472.984375 772.640625 473.394531 L 748.132812 476.753906 L 748.132812 483.535156 L 788.140625 492.113281 L 788.140625 487.59375 L 752.699219 479.941406 L 753.332031 479.941406 C 755.460938 479.941406 763.019531 479.015625 767.683594 478.375 L 787.214844 475.648438 L 787.214844 471.300781 L 769.414062 461.160156 L 760.824219 456.414062 C 760.417969 456.175781 753.214844 452.238281 752.871094 452.175781 L 752.871094 452.121094 L 788.140625 459.65625 L 788.140625 455.074219 Z M 748.132812 446.496094 " fill-opacity="1" fill-rule="nonzero"/><path fill="#000000" d="M 797.417969 431.007812 L 797.417969 427.765625 L 748.710938 427.765625 L 748.710938 431.007812 Z M 797.417969 431.007812 " fill-opacity="1" fill-rule="nonzero"/><path fill="#000000" d="M 763.851562 388.003906 C 763.96875 397.050781 773.128906 398.617188 779.625 400.410156 C 785.359375 401.976562 786.980469 406.324219 786.980469 409.566406 L 752.542969 398.90625 L 753.296875 403.714844 L 787.042969 412.054688 C 787.042969 414.726562 786.109375 417.453125 781.761719 417.453125 C 778.285156 417.453125 774.226562 414.898438 769.125 414.898438 C 765.589844 414.898438 763.851562 416.808594 763.851562 420.867188 L 764.546875 421.039062 C 764.546875 420.578125 764.839844 419.191406 768.082031 419.191406 C 770.746094 419.191406 777.59375 421.972656 780.667969 421.972656 C 787.742188 421.972656 789.363281 414.898438 789.363281 412.699219 L 800.316406 415.425781 L 800.316406 414.03125 L 789.300781 410.261719 C 789.300781 404.992188 786.980469 397.628906 778.347656 395.246094 L 770.808594 393.164062 C 768.425781 392.53125 764.722656 390.210938 764.601562 388.183594 Z M 763.851562 388.003906 " fill-opacity="1" fill-rule="nonzero"/><path fill="#000000" d="M 798.179688 385.644531 C 795.398438 381.351562 793.882812 379.613281 791.222656 377.464844 C 786.175781 373.355469 780.375 371.328125 773.589844 371.328125 C 766.171875 371.328125 760.542969 373.472656 754.628906 378.570312 C 751.847656 380.945312 750.570312 382.457031 748.710938 385.472656 L 749.644531 386.160156 C 753.296875 381.523438 755.324219 379.964844 759.675781 378.335938 C 763.5625 376.949219 767.964844 376.308594 773.761719 376.308594 C 779.796875 376.308594 784.605469 377.066406 788.148438 378.625 C 791.800781 380.253906 793.882812 381.996094 797.253906 386.160156 Z M 798.179688 385.644531 " fill-opacity="1" fill-rule="nonzero"/><g clip-path="url(#9571abc338)"><path stroke-linecap="square" transform="matrix(3.422442, 0, 0, 3.420992, 743.48097, 123.755219)" fill="none" stroke-linejoin="round" d="M -0.999981 34.893323 L 1.362641 31.907393 L 5.461277 27.104784 L 9.559913 22.762339 L 13.658549 18.877775 L 17.757185 15.454517 L 21.855821 12.48914 L 25.954457 9.98507 L 30.053093 7.940021 L 34.151729 6.353996 L 38.250365 5.228134 L 40.300253 4.837623 L 42.349001 4.561296 L 44.398889 4.400295 L 46.447637 4.354621 L 48.497525 4.424274 L 50.546273 4.608111 L 52.596161 4.906133 L 54.644909 5.319482 L 56.694797 5.848157 L 60.793433 7.250346 L 64.892069 9.111557 L 68.990705 11.43179 L 73.089341 14.211046 L 77.187977 17.448183 L 81.286613 21.142058 L 85.385249 25.289247 L 89.483885 29.880614 L 93.582521 34.901316 L 97.681157 40.315956 L 103.829681 49.014547 L 109.977064 57.890125 L 114.0757 63.36985 L 116.125589 65.809977 L 118.174336 67.978345 L 120.224225 69.839555 L 122.272972 71.384475 L 124.322861 72.629088 L 126.371608 73.614502 L 128.421497 74.396667 L 132.520133 75.597891 L 138.667516 77.254711 L 142.766152 78.661467 L 146.864788 80.479287 L 148.914676 81.567468 L 150.963424 82.780109 L 155.06206 85.600472 L 159.160696 88.957502 L 163.259331 92.860336 L 167.357967 97.314682 L 171.456603 102.322823 L 175.555239 107.884761 L 179.653875 114.002778 L 183.752511 120.676874 L 187.851147 127.907051 L 191.949783 135.692164 L 196.048419 144.0345 L 200.147055 152.931773 L 204.245691 162.386267 L 208.345468 172.396841 L 212.444104 182.962353 L 216.54274 194.085086 L 219.970254 203.82961 " stroke="#3c6d56" stroke-width="2.2" stroke-opacity="1" stroke-miterlimit="4"/></g><g clip-path="url(#f7e0927e3b)"><path fill="#103f60" d="M 737.375 315.605469 L 745.460938 305.394531 C 745.488281 305.363281 745.515625 305.328125 745.542969 305.296875 L 753.523438 295.945312 L 758.730469 300.386719 L 750.75 309.738281 L 748.144531 307.519531 L 750.828125 309.640625 L 742.742188 319.851562 Z M 760.808594 287.546875 L 773.710938 273.882812 C 773.753906 273.835938 773.800781 273.789062 773.847656 273.746094 L 778.585938 269.257812 L 783.292969 274.226562 L 778.554688 278.710938 L 776.199219 276.230469 L 778.6875 278.578125 L 765.785156 292.242188 Z M 786.535156 261.730469 L 787.875 260.460938 C 787.925781 260.410156 787.976562 260.363281 788.03125 260.316406 L 802.058594 248.605469 C 802.121094 248.554688 802.183594 248.503906 802.25 248.457031 L 806.464844 245.410156 L 810.476562 250.953125 L 806.261719 254 L 804.253906 251.230469 L 806.449219 253.855469 L 792.421875 265.570312 L 790.226562 262.941406 L 792.582031 265.425781 L 791.242188 266.695312 Z M 815.339844 238.996094 L 816.277344 238.316406 C 816.347656 238.265625 816.421875 238.214844 816.496094 238.167969 L 830.523438 229.601562 C 830.609375 229.550781 830.695312 229.503906 830.78125 229.457031 L 837.699219 226.007812 L 840.753906 232.132812 L 833.835938 235.582031 L 832.308594 232.519531 L 834.09375 235.4375 L 820.066406 244.007812 L 818.28125 241.089844 L 820.289062 243.859375 L 819.351562 244.539062 Z M 847.902344 221.25 L 859.128906 216.90625 C 859.238281 216.867188 859.347656 216.832031 859.457031 216.800781 L 872.273438 213.28125 L 874.085938 219.878906 L 861.269531 223.398438 L 860.363281 220.097656 L 861.597656 223.289062 L 850.375 227.628906 Z M 883.480469 211.179688 L 887.960938 210.574219 C 888.027344 210.566406 888.089844 210.5625 888.152344 210.554688 L 895.164062 210.003906 C 895.230469 210 895.292969 209.996094 895.355469 209.996094 L 902.371094 209.839844 C 902.433594 209.835938 902.496094 209.835938 902.5625 209.839844 L 909.3125 210.066406 L 909.082031 216.90625 L 902.332031 216.679688 L 902.445312 213.257812 L 902.523438 216.679688 L 895.507812 216.835938 L 895.433594 213.417969 L 895.699219 216.828125 L 888.6875 217.378906 L 888.417969 213.964844 L 888.875 217.355469 L 884.394531 217.960938 Z M 920.574219 211.265625 L 923.980469 211.761719 C 924.042969 211.769531 924.105469 211.78125 924.164062 211.792969 L 931.179688 213.207031 C 931.238281 213.21875 931.296875 213.234375 931.355469 213.25 L 938.371094 215.054688 C 938.457031 215.078125 938.539062 215.105469 938.621094 215.132812 L 945.703125 217.554688 L 943.488281 224.027344 L 936.40625 221.605469 L 937.515625 218.367188 L 936.660156 221.679688 L 929.648438 219.875 L 930.5 216.5625 L 929.824219 219.914062 L 922.8125 218.5 L 923.488281 215.144531 L 922.992188 218.53125 L 919.585938 218.035156 Z M 956.246094 221.542969 L 966.984375 226.417969 C 967.078125 226.460938 967.167969 226.503906 967.257812 226.554688 L 979.03125 233.21875 L 975.65625 239.175781 L 963.882812 232.507812 L 965.570312 229.53125 L 964.15625 232.648438 L 953.414062 227.773438 Z M 988.4375 239.335938 L 995.546875 244.152344 C 995.613281 244.199219 995.683594 244.25 995.746094 244.300781 L 1008.878906 254.675781 L 1004.632812 260.042969 L 991.503906 249.667969 L 993.625 246.984375 L 991.703125 249.816406 L 984.597656 244.996094 Z M 1017.226562 262.097656 L 1023.972656 268.1875 C 1024.023438 268.230469 1024.070312 268.277344 1024.117188 268.324219 L 1035.515625 279.886719 L 1030.640625 284.6875 L 1019.242188 273.128906 L 1021.679688 270.726562 L 1019.386719 273.265625 L 1012.640625 267.179688 Z M 1043.046875 288.070312 L 1052.292969 298.484375 C 1052.328125 298.527344 1052.363281 298.566406 1052.398438 298.609375 L 1059.554688 307.472656 L 1054.226562 311.769531 L 1047.070312 302.90625 L 1049.734375 300.757812 L 1047.175781 303.027344 L 1037.929688 292.613281 Z M 1066.519531 316.105469 L 1080.539062 335.042969 C 1080.566406 335.078125 1080.589844 335.109375 1080.613281 335.148438 L 1081.605469 336.597656 L 1075.957031 340.457031 L 1074.964844 339.007812 L 1077.789062 337.078125 L 1075.039062 339.113281 L 1061.019531 320.175781 Z M 1087.785156 345.636719 L 1094.640625 355.664062 C 1094.664062 355.695312 1094.683594 355.730469 1094.707031 355.761719 L 1101.765625 366.878906 L 1095.988281 370.546875 L 1088.925781 359.429688 L 1091.816406 357.59375 L 1088.992188 359.523438 L 1082.132812 349.496094 Z M 1107.636719 376.121094 L 1108.734375 377.851562 C 1108.753906 377.882812 1108.769531 377.910156 1108.789062 377.941406 L 1120.652344 397.957031 L 1114.765625 401.445312 L 1102.898438 381.429688 L 1105.84375 379.6875 L 1102.953125 381.519531 L 1101.855469 379.789062 Z M 1126.121094 407.550781 L 1136.890625 426.921875 C 1136.90625 426.949219 1136.917969 426.972656 1136.929688 427 L 1138.394531 429.792969 L 1132.328125 432.964844 L 1130.867188 430.167969 L 1133.898438 428.582031 L 1130.90625 430.246094 L 1120.140625 410.875 Z M 1143.46875 439.492188 L 1150.957031 453.804688 C 1150.972656 453.828125 1150.984375 453.851562 1150.996094 453.875 L 1155.054688 462.089844 L 1148.917969 465.121094 L 1144.859375 456.90625 L 1147.925781 455.390625 L 1144.894531 456.976562 L 1137.40625 442.664062 Z M 1159.90625 471.90625 L 1165.023438 482.257812 L 1170.894531 494.792969 L 1164.695312 497.695312 L 1158.886719 485.285156 L 1153.769531 474.9375 Z M 1175.539062 504.707031 L 1179.082031 512.273438 L 1186.003906 527.832031 L 1179.75 530.613281 L 1172.882812 515.171875 L 1169.339844 507.609375 Z M 1190.457031 537.835938 L 1193.136719 543.859375 L 1200.464844 561.152344 L 1194.164062 563.820312 L 1186.882812 546.636719 L 1184.203125 540.613281 Z M 1204.738281 571.234375 L 1207.1875 577.011719 L 1214.351562 594.714844 L 1208.003906 597.277344 L 1200.882812 579.679688 L 1198.4375 573.902344 Z M 1218.457031 604.863281 L 1221.234375 611.730469 L 1227.71875 628.480469 L 1221.335938 630.949219 L 1214.890625 614.296875 L 1212.113281 607.429688 Z M 1231.671875 638.6875 L 1235.28125 648.019531 L 1240.625 662.421875 L 1234.207031 664.800781 L 1228.898438 650.488281 L 1225.289062 641.15625 Z M 1244.433594 672.683594 L 1249.328125 685.878906 L 1253.113281 696.511719 L 1246.667969 698.808594 L 1242.910156 688.257812 L 1238.015625 675.0625 Z M 1256.789062 706.824219 L 1263.371094 725.308594 L 1265.230469 730.738281 L 1258.753906 732.953125 L 1256.921875 727.601562 L 1250.339844 709.121094 Z M 1268.777344 741.09375 L 1276.980469 765.046875 L 1270.503906 767.261719 L 1262.300781 743.308594 Z M 1280.414062 775.492188 L 1288.277344 799.554688 L 1281.769531 801.679688 L 1273.90625 777.617188 Z M 1291.679688 809.960938 L 1298.46875 830.734375 L 1299.515625 834.078125 L 1292.980469 836.121094 L 1291.960938 832.859375 L 1285.171875 812.085938 Z M 1302.78125 844.527344 L 1310.339844 868.6875 L 1303.808594 870.730469 L 1296.25 846.570312 Z M 1302.78125 844.527344 " fill-opacity="1" fill-rule="nonzero"/></g><g clip-path="url(#dbacec0bd7)"><path fill="#103f60" d="M 882.84375 870.308594 L 890.929688 846.316406 L 897.417969 848.5 L 889.332031 872.492188 Z M 894.523438 835.929688 L 902.910156 812.042969 L 909.371094 814.308594 L 900.984375 838.195312 Z M 906.570312 801.667969 L 915.328125 777.914062 L 921.75 780.28125 L 912.992188 804.035156 Z M 919.113281 767.644531 L 920.277344 764.488281 L 928.238281 743.96875 L 934.621094 746.441406 L 926.699219 766.855469 L 925.535156 770.007812 Z M 932.199219 733.761719 L 934.324219 728.289062 L 941.71875 710.234375 L 948.054688 712.828125 L 940.707031 730.761719 L 938.582031 736.234375 Z M 945.867188 700.101562 L 948.375 693.984375 L 955.84375 676.757812 L 962.125 679.480469 L 954.710938 696.578125 L 952.203125 702.695312 Z M 960.203125 666.714844 L 962.429688 661.578125 C 962.441406 661.554688 962.449219 661.53125 962.460938 661.507812 L 970.714844 643.601562 L 976.929688 646.464844 L 968.679688 664.371094 L 965.570312 662.9375 L 968.710938 664.300781 L 966.480469 669.4375 Z M 975.296875 633.65625 L 976.488281 631.066406 C 976.5 631.042969 976.511719 631.015625 976.527344 630.992188 L 986.4375 610.828125 L 992.578125 613.847656 L 982.667969 634.007812 L 979.597656 632.5 L 982.707031 633.929688 L 981.511719 636.519531 Z M 991.347656 600.9375 L 1003.148438 578.539062 L 1009.203125 581.726562 L 997.40625 604.125 Z M 1008.511719 568.875 L 1018.703125 550.90625 C 1018.722656 550.875 1018.742188 550.839844 1018.761719 550.804688 L 1021.203125 546.832031 L 1027.039062 550.410156 L 1024.597656 554.386719 L 1021.679688 552.59375 L 1024.65625 554.28125 L 1014.46875 572.25 Z M 1026.9375 537.503906 L 1032.789062 527.976562 C 1032.8125 527.9375 1032.839844 527.898438 1032.863281 527.863281 L 1040.734375 516.121094 L 1046.421875 519.925781 L 1038.550781 531.667969 L 1035.707031 529.765625 L 1038.625 531.554688 L 1032.769531 541.082031 Z M 1046.832031 507.023438 L 1046.890625 506.933594 C 1046.917969 506.890625 1046.949219 506.851562 1046.980469 506.808594 L 1061.007812 487.785156 C 1061.042969 487.738281 1061.078125 487.691406 1061.113281 487.644531 L 1062.109375 486.429688 L 1067.40625 490.765625 L 1066.410156 491.980469 L 1063.761719 489.8125 L 1066.515625 491.84375 L 1052.488281 510.867188 L 1049.734375 508.839844 L 1052.578125 510.742188 L 1052.515625 510.832031 Z M 1069.050781 477.960938 L 1075.140625 470.523438 C 1075.183594 470.472656 1075.226562 470.421875 1075.273438 470.375 L 1085.917969 458.824219 L 1090.953125 463.460938 L 1080.304688 475.007812 L 1077.789062 472.691406 L 1080.4375 474.859375 L 1074.34375 482.292969 Z M 1093.78125 450.886719 L 1103.488281 441.675781 C 1103.550781 441.613281 1103.617188 441.554688 1103.683594 441.5 L 1112.941406 433.964844 L 1117.265625 439.273438 L 1108.003906 446.808594 L 1105.84375 444.15625 L 1108.199219 446.636719 L 1098.496094 455.847656 Z M 1121.796875 427.167969 L 1124.898438 424.960938 C 1124.941406 424.929688 1124.988281 424.898438 1125.03125 424.871094 L 1132.042969 420.351562 C 1132.09375 420.320312 1132.140625 420.292969 1132.1875 420.265625 L 1139.203125 416.222656 C 1139.253906 416.191406 1139.308594 416.164062 1139.359375 416.136719 L 1143.886719 413.832031 L 1146.992188 419.929688 L 1142.464844 422.234375 L 1140.914062 419.183594 L 1142.621094 422.148438 L 1135.609375 426.191406 L 1133.898438 423.226562 L 1135.753906 426.101562 L 1128.738281 430.621094 L 1126.886719 427.746094 L 1128.871094 430.53125 L 1125.769531 432.738281 Z M 1154.207031 409.148438 L 1160.757812 406.703125 C 1160.824219 406.679688 1160.886719 406.660156 1160.953125 406.636719 L 1167.96875 404.496094 C 1168.035156 404.476562 1168.105469 404.457031 1168.175781 404.441406 L 1175.191406 402.777344 C 1175.261719 402.757812 1175.335938 402.746094 1175.410156 402.730469 L 1179.148438 402.097656 L 1180.292969 408.84375 L 1176.554688 409.476562 L 1175.980469 406.105469 L 1176.773438 409.433594 L 1169.757812 411.097656 L 1168.96875 407.769531 L 1169.964844 411.042969 L 1162.953125 413.183594 L 1161.953125 409.910156 L 1163.148438 413.113281 L 1156.601562 415.558594 Z M 1190.472656 400.765625 L 1196.90625 400.546875 C 1196.984375 400.542969 1197.0625 400.542969 1197.136719 400.546875 L 1204.152344 400.785156 C 1204.230469 400.785156 1204.304688 400.792969 1204.382812 400.800781 L 1211.394531 401.511719 C 1211.472656 401.519531 1211.546875 401.53125 1211.621094 401.542969 L 1216.375 402.347656 L 1215.230469 409.09375 L 1210.476562 408.289062 L 1211.050781 404.917969 L 1210.703125 408.320312 L 1203.6875 407.605469 L 1204.035156 404.203125 L 1203.917969 407.621094 L 1196.90625 407.382812 L 1197.023438 403.964844 L 1197.136719 407.382812 L 1190.707031 407.601562 Z M 1227.464844 404.921875 L 1233.089844 406.636719 C 1233.15625 406.660156 1233.222656 406.679688 1233.289062 406.703125 L 1240.300781 409.320312 C 1240.363281 409.34375 1240.425781 409.367188 1240.484375 409.394531 L 1247.5 412.488281 C 1247.558594 412.511719 1247.613281 412.539062 1247.671875 412.570312 L 1251.496094 414.515625 L 1248.390625 420.613281 L 1244.566406 418.667969 L 1246.117188 415.617188 L 1244.738281 418.746094 L 1237.722656 415.65625 L 1239.105469 412.527344 L 1237.90625 415.730469 L 1230.894531 413.113281 L 1232.089844 409.910156 L 1231.089844 413.183594 L 1225.464844 411.464844 Z M 1261.230469 419.902344 L 1261.855469 420.265625 C 1261.902344 420.292969 1261.953125 420.320312 1262 420.351562 L 1269.011719 424.871094 C 1269.058594 424.898438 1269.101562 424.929688 1269.144531 424.960938 L 1276.160156 429.953125 C 1276.21875 429.996094 1276.277344 430.039062 1276.332031 430.085938 L 1282.265625 434.914062 L 1277.945312 440.21875 L 1272.011719 435.394531 L 1274.171875 432.738281 L 1272.1875 435.527344 L 1265.171875 430.53125 L 1267.160156 427.746094 L 1265.304688 430.621094 L 1258.292969 426.101562 L 1260.144531 423.226562 L 1258.4375 426.191406 L 1257.8125 425.832031 Z M 1290.929688 442.027344 L 1304.585938 454.992188 C 1304.640625 455.042969 1304.695312 455.097656 1304.746094 455.152344 L 1309.144531 459.929688 L 1304.109375 464.5625 L 1299.710938 459.789062 L 1302.226562 457.472656 L 1299.871094 459.953125 L 1286.214844 446.988281 Z M 1316.566406 467.980469 L 1318.773438 470.375 C 1318.816406 470.421875 1318.859375 470.472656 1318.902344 470.523438 L 1332.886719 487.589844 L 1327.589844 491.925781 L 1313.605469 474.859375 L 1316.253906 472.691406 L 1313.738281 475.007812 L 1311.53125 472.613281 Z M 1339.492188 496.539062 L 1347.066406 506.808594 C 1347.09375 506.851562 1347.125 506.890625 1347.152344 506.933594 L 1354.144531 517.367188 L 1348.460938 521.175781 L 1341.46875 510.742188 L 1344.308594 508.839844 L 1341.554688 510.867188 L 1333.984375 500.597656 Z M 1360.242188 526.460938 L 1361.179688 527.863281 C 1361.207031 527.898438 1361.230469 527.9375 1361.253906 527.976562 L 1373.625 548.109375 L 1367.792969 551.691406 L 1355.421875 531.554688 L 1358.335938 529.765625 L 1355.496094 531.667969 L 1354.554688 530.269531 Z M 1379.183594 557.679688 L 1389.371094 575.640625 C 1389.386719 575.671875 1389.402344 575.703125 1389.421875 575.734375 L 1391.597656 579.867188 L 1385.539062 583.054688 L 1383.363281 578.921875 L 1386.390625 577.328125 L 1383.414062 579.015625 L 1373.230469 561.054688 Z M 1396.699219 589.554688 L 1403.449219 602.367188 C 1403.464844 602.394531 1403.476562 602.425781 1403.492188 602.453125 L 1408.269531 612.175781 L 1402.128906 615.195312 L 1397.347656 605.46875 L 1400.417969 603.960938 L 1397.390625 605.554688 L 1390.640625 592.742188 Z M 1413.101562 622 L 1417.519531 630.992188 C 1417.53125 631.015625 1417.542969 631.042969 1417.554688 631.066406 L 1423.960938 644.964844 L 1417.742188 647.828125 L 1411.339844 633.929688 L 1414.445312 632.5 L 1411.375 634.007812 L 1406.957031 625.019531 Z M 1428.542969 654.90625 L 1431.582031 661.507812 C 1431.59375 661.53125 1431.605469 661.554688 1431.613281 661.578125 L 1438.796875 678.136719 L 1432.515625 680.859375 L 1425.335938 664.300781 L 1428.472656 662.9375 L 1425.367188 664.371094 L 1422.324219 657.769531 Z M 1443.152344 688.179688 L 1445.640625 693.917969 L 1452.894531 711.625 L 1446.558594 714.214844 L 1439.363281 696.640625 L 1436.875 690.902344 Z M 1457.042969 721.753906 L 1459.695312 728.230469 L 1466.347656 745.367188 L 1459.964844 747.84375 L 1453.363281 730.820312 L 1450.710938 724.347656 Z M 1470.308594 755.574219 L 1473.746094 764.433594 L 1479.238281 779.324219 L 1472.816406 781.691406 L 1467.367188 766.910156 L 1463.925781 758.046875 Z M 1483.023438 789.597656 L 1487.796875 802.539062 L 1491.636719 813.457031 L 1485.179688 815.726562 L 1481.371094 804.902344 L 1476.601562 791.960938 Z M 1495.273438 823.78125 L 1499.546875 835.921875 L 1493.089844 838.195312 L 1488.816406 826.054688 Z M 1495.273438 823.78125 " fill-opacity="1" fill-rule="nonzero"/></g><path stroke-linecap="square" transform="matrix(3.422442, 0, 0, 3.420992, 743.48097, 123.755219)" fill="none" stroke-linejoin="miter" d="M 24.20703 193.515304 L 24.20703 1.439485 " stroke="#000000" stroke-width="0.5" stroke-opacity="1" stroke-miterlimit="4"/><path stroke-linecap="square" transform="matrix(3.422442, 0, 0, 3.420992, 743.48097, 123.755219)" fill="none" stroke-linejoin="miter" d="M 24.20703 193.515304 L 217.530019 193.515304 " stroke="#000000" stroke-width="0.5" stroke-opacity="1" stroke-miterlimit="4"/></svg>