<?xml version="1.0" encoding="utf-8" standalone="no"?>
<!DOCTYPE svg PUBLIC "-//W3C//DTD SVG 1.1//EN"
  "http://www.w3.org/Graphics/SVG/1.1/DTD/svg11.dtd">
<svg xmlns:xlink="http://www.w3.org/1999/xlink" width="924.918046pt" height="253.878046pt" viewBox="0 0 924.918046 253.878046" xmlns="http://www.w3.org/2000/svg" version="1.1">
 <metadata>
  <rdf:RDF xmlns:dc="http://purl.org/dc/elements/1.1/" xmlns:cc="http://creativecommons.org/ns#" xmlns:rdf="http://www.w3.org/1999/02/22-rdf-syntax-ns#">
   <cc:Work>
    <dc:type rdf:resource="http://purl.org/dc/dcmitype/StillImage"/>
    <dc:date>2025-01-27T10:32:14.678589</dc:date>
    <dc:format>image/svg+xml</dc:format>
    <dc:creator>
     <cc:Agent>
      <dc:title>Matplotlib v3.9.2, https://matplotlib.org/</dc:title>
     </cc:Agent>
    </dc:creator>
   </cc:Work>
  </rdf:RDF>
 </metadata>
 <defs>
  <style type="text/css">*{stroke-linejoin: round; stroke-linecap: butt}</style>
 </defs>
 <g id="figure_1">
  <g id="patch_1">
   <path d="M 0 253.878046 
L 924.918046 253.878046 
L 924.918046 0 
L 0 0 
z
" style="fill: #ffffff"/>
  </g>
  <g id="axes_1">
   <g id="patch_2">
    <path d="M 27.798046 226.08 
L 250.998046 226.08 
L 250.998046 4.32 
L 27.798046 4.32 
z
" style="fill: #ffffff"/>
   </g>
   <g id="PolyCollection_1">
    <path d="M 109.679038 226.08 
L 109.679038 93.268441 
L 111.728625 82.149293 
L 113.778211 71.287326 
L 115.827798 60.873664 
L 117.877385 51.102441 
L 119.926972 42.164909 
L 121.976559 34.243283 
L 124.026145 27.504595 
L 126.075732 22.094857 
L 128.125319 18.133808 
L 130.174906 15.710505 
L 132.224492 14.88 
L 134.274079 15.661258 
L 136.323666 18.036438 
L 138.373253 21.951569 
L 140.42284 27.318588 
L 142.472426 34.018639 
L 144.522013 41.906437 
L 146.5716 50.81551 
L 148.621187 60.564019 
L 150.670773 70.960896 
L 152.72036 81.812004 
L 154.769947 92.926046 
L 154.769947 226.08 
L 154.769947 226.08 
L 152.72036 226.08 
L 150.670773 226.08 
L 148.621187 226.08 
L 146.5716 226.08 
L 144.522013 226.08 
L 142.472426 226.08 
L 140.42284 226.08 
L 138.373253 226.08 
L 136.323666 226.08 
L 134.274079 226.08 
L 132.224492 226.08 
L 130.174906 226.08 
L 128.125319 226.08 
L 126.075732 226.08 
L 124.026145 226.08 
L 121.976559 226.08 
L 119.926972 226.08 
L 117.877385 226.08 
L 115.827798 226.08 
L 113.778211 226.08 
L 111.728625 226.08 
L 109.679038 226.08 
z
" clip-path="url(#pc2ff875441)" style="fill: #1f77b4; fill-opacity: 0.3"/>
   </g>
   <g id="matplotlib.axis_1">
    <g id="xtick_1">
     <g id="line2d_1"/>
    </g>
    <g id="xtick_2">
     <g id="line2d_2"/>
    </g>
    <g id="xtick_3">
     <g id="line2d_3"/>
    </g>
    <g id="text_1">
     <!-- A -->
     <g transform="translate(132.924322 245.684586) scale(0.18 -0.18)">
      <defs>
       <path id="NimbusRomNo9L-Regu-41" d="M 4518 121 
C 4230 141 4166 205 3942 686 
L 2349 4288 
L 2221 4288 
L 890 1187 
C 480 238 403 134 96 121 
L 96 0 
L 1363 0 
L 1363 121 
C 1056 121 928 205 928 387 
C 928 465 947 556 979 641 
L 1274 1401 
L 2950 1401 
L 3213 777 
C 3290 602 3334 433 3334 342 
C 3334 179 3226 128 2886 121 
L 2886 0 
L 4518 0 
L 4518 121 
z
M 1382 1664 
L 2118 3392 
L 2861 1664 
L 1382 1664 
z
" transform="scale(0.015625)"/>
      </defs>
      <use xlink:href="#NimbusRomNo9L-Regu-41" transform="scale(0.996264)"/>
     </g>
    </g>
   </g>
   <g id="matplotlib.axis_2">
    <g id="ytick_1">
     <g id="line2d_4"/>
    </g>
    <g id="ytick_2">
     <g id="line2d_5"/>
    </g>
    <g id="ytick_3">
     <g id="line2d_6"/>
    </g>
    <g id="ytick_4">
     <g id="line2d_7"/>
    </g>
    <g id="ytick_5">
     <g id="line2d_8"/>
    </g>
    <g id="text_2">
     <!-- $P(\theta\,|\,\text{data})$ -->
     <g transform="translate(16.424586 151.088033) rotate(-90) scale(0.18 -0.18)">
      <defs>
       <path id="CMSSI17-50" d="M 1498 1856 
L 2502 1856 
C 3373 1856 4198 2617 4198 3378 
C 4198 3912 3782 4416 3008 4416 
L 1517 4416 
L 570 0 
L 1107 0 
L 1498 1856 
z
M 1965 4057 
L 2797 4057 
C 3405 4057 3686 3743 3686 3340 
C 3686 2856 3270 2227 2400 2227 
L 1568 2227 
L 1965 4057 
z
" transform="scale(0.015625)"/>
       <path id="NimbusRomNo9L-Regu-28" d="M 1888 4352 
C 1414 4044 1222 3878 986 3583 
C 531 3027 307 2387 307 1638 
C 307 825 544 198 1107 -455 
C 1370 -762 1536 -903 1869 -1108 
L 1946 -1006 
C 1434 -602 1254 -378 1082 102 
C 928 530 858 1017 858 1657 
C 858 2329 941 2854 1114 3251 
C 1293 3647 1485 3878 1946 4249 
L 1888 4352 
z
" transform="scale(0.015625)"/>
       <path id="rtxmi-12" d="M 2899 3030 
C 2899 3155 2886 4102 2125 4102 
C 992 4102 186 2361 186 1131 
C 186 898 224 -128 1037 -128 
C 2310 -128 2899 2067 2899 3030 
z
M 2477 3392 
C 2477 3055 2387 2592 2259 2086 
L 870 2086 
C 1101 2992 1504 3968 2118 3968 
C 2374 3968 2477 3749 2477 3392 
z
M 2195 1856 
C 1997 1099 1773 12 1126 12 
C 774 12 646 323 646 756 
C 646 1073 717 1461 806 1856 
L 2195 1856 
z
" transform="scale(0.015625)"/>
       <path id="txsy-6a" d="M 819 -1024 
L 819 4352 
L 461 4352 
L 461 -1024 
L 819 -1024 
z
" transform="scale(0.015625)"/>
       <path id="NimbusRomNo9L-Regu-64" d="M 2202 -64 
L 3142 268 
L 3142 371 
C 3027 364 3014 364 2995 364 
C 2765 364 2714 435 2714 729 
L 2714 4358 
L 2682 4371 
C 2374 4262 2150 4198 1741 4089 
L 1741 3987 
C 1792 3993 1830 3993 1882 3993 
C 2118 3993 2176 3929 2176 3667 
L 2176 2668 
C 1933 2873 1760 2944 1504 2944 
C 768 2944 173 2220 173 1312 
C 173 492 653 -64 1357 -64 
C 1715 -64 1958 64 2176 364 
L 2176 -45 
L 2202 -64 
z
M 2176 652 
C 2176 608 2131 531 2067 460 
C 1952 332 1792 268 1606 268 
C 1075 268 723 780 723 1568 
C 723 2291 1037 2764 1523 2764 
C 1862 2764 2176 2464 2176 2124 
L 2176 652 
z
" transform="scale(0.015625)"/>
       <path id="NimbusRomNo9L-Regu-61" d="M 2829 422 
C 2720 332 2643 300 2547 300 
C 2400 300 2355 390 2355 672 
L 2355 1920 
C 2355 2252 2323 2438 2227 2592 
C 2086 2822 1811 2944 1434 2944 
C 832 2944 358 2630 358 2227 
C 358 2080 486 1952 634 1952 
C 787 1952 922 2080 922 2220 
C 922 2246 915 2278 909 2323 
C 896 2380 890 2432 890 2476 
C 890 2649 1094 2790 1350 2790 
C 1664 2790 1837 2604 1837 2259 
L 1837 1868 
C 851 1472 742 1420 467 1177 
C 326 1049 237 832 237 620 
C 237 217 518 -64 909 -64 
C 1190 -64 1453 70 1843 403 
C 1875 70 1990 -64 2253 -64 
C 2470 -64 2605 12 2829 256 
L 2829 422 
z
M 1837 787 
C 1837 588 1805 531 1670 454 
C 1517 364 1338 307 1203 307 
C 979 307 800 524 800 800 
L 800 825 
C 800 1203 1062 1433 1837 1715 
L 1837 787 
z
" transform="scale(0.015625)"/>
       <path id="NimbusRomNo9L-Regu-74" d="M 1632 2880 
L 986 2880 
L 986 3622 
C 986 3686 979 3705 941 3705 
C 896 3648 858 3590 813 3526 
C 570 3174 294 2867 192 2841 
C 122 2796 83 2751 83 2719 
C 83 2700 90 2687 109 2675 
L 448 2675 
L 448 748 
C 448 211 640 -64 1018 -64 
C 1331 -64 1574 89 1786 422 
L 1702 492 
C 1568 332 1459 268 1318 268 
C 1082 268 986 441 986 844 
L 986 2675 
L 1632 2675 
L 1632 2880 
z
" transform="scale(0.015625)"/>
       <path id="NimbusRomNo9L-Regu-29" d="M 243 -1108 
C 717 -801 909 -634 1146 -340 
C 1600 217 1824 857 1824 1606 
C 1824 2425 1587 3046 1024 3699 
C 762 4006 595 4147 262 4352 
L 186 4249 
C 698 3846 870 3622 1050 3142 
C 1203 2713 1274 2227 1274 1587 
C 1274 921 1190 390 1018 -1 
C 838 -404 646 -634 186 -1006 
L 243 -1108 
z
" transform="scale(0.015625)"/>
      </defs>
      <use xlink:href="#CMSSI17-50" transform="scale(0.996264)"/>
      <use xlink:href="#NimbusRomNo9L-Regu-28" transform="translate(68.162406 0) scale(0.996264)"/>
      <use xlink:href="#rtxmi-12" transform="translate(101.338015 0) scale(0.996264)"/>
      <use xlink:href="#txsy-6a" transform="translate(163.073138 0) scale(0.996264)"/>
      <use xlink:href="#NimbusRomNo9L-Regu-64" transform="translate(199.602747 0) scale(0.996264)"/>
      <use xlink:href="#NimbusRomNo9L-Regu-61" transform="translate(249.415948 0) scale(0.996264)"/>
      <use xlink:href="#NimbusRomNo9L-Regu-74" transform="translate(293.650094 0) scale(0.996264)"/>
      <use xlink:href="#NimbusRomNo9L-Regu-61" transform="translate(321.346221 0) scale(0.996264)"/>
      <use xlink:href="#NimbusRomNo9L-Regu-29" transform="translate(365.580368 0) scale(0.996264)"/>
     </g>
    </g>
   </g>
   <g id="line2d_9">
    <path d="M 37.943501 226.015566 
L 39.993088 225.988745 
L 42.042674 225.951745 
L 44.092261 225.901115 
L 46.141848 225.8324 
L 48.191435 225.739898 
L 50.241021 225.616397 
L 52.290608 225.452863 
L 54.340195 225.238105 
L 56.389782 224.958414 
L 58.439369 224.597185 
L 60.488955 224.134547 
L 62.538542 223.547008 
L 64.588129 222.80715 
L 66.637716 221.883397 
L 68.687302 220.739905 
L 70.736889 219.336592 
L 72.786476 217.629367 
L 74.836063 215.570588 
L 76.885649 213.109791 
L 78.935236 210.194721 
L 80.984823 206.772676 
L 83.03441 202.792188 
L 85.083997 198.205015 
L 87.133583 192.968417 
L 89.18317 187.047658 
L 91.232757 180.418662 
L 93.282344 173.070706 
L 95.33193 165.009039 
L 97.381517 156.257267 
L 99.431104 146.85937 
L 101.480691 136.881183 
L 103.530278 126.411194 
L 105.579864 115.560536 
L 107.629451 104.462059 
L 109.679038 93.268441 
L 111.728625 82.149293 
L 113.778211 71.287326 
L 115.827798 60.873664 
L 117.877385 51.102441 
L 119.926972 42.164909 
L 121.976559 34.243283 
L 124.026145 27.504595 
L 126.075732 22.094857 
L 128.125319 18.133808 
L 130.174906 15.710505 
L 132.224492 14.88 
L 134.274079 15.661258 
L 136.323666 18.036438 
L 138.373253 21.951569 
L 140.42284 27.318588 
L 142.472426 34.018639 
L 144.522013 41.906437 
L 146.5716 50.81551 
L 148.621187 60.564019 
L 150.670773 70.960896 
L 152.72036 81.812004 
L 154.769947 92.926046 
L 156.819534 104.119978 
L 158.869121 115.223727 
L 160.918707 126.08405 
L 162.968294 136.567455 
L 165.017881 146.562127 
L 167.067468 155.978879 
L 169.117054 164.751192 
L 171.166641 172.834435 
L 173.216228 180.204404 
L 175.265815 186.855325 
L 177.315402 192.797469 
L 179.364988 198.054544 
L 181.414575 202.660998 
L 183.464162 206.659364 
L 185.513749 210.097752 
L 187.563335 213.027562 
L 189.612922 215.501484 
L 191.662509 217.571809 
L 193.712096 219.289073 
L 195.761683 220.701016 
L 197.811269 221.851846 
L 199.860856 222.781772 
L 201.910443 223.52677 
L 203.96003 224.118544 
L 206.009616 224.584637 
L 208.059203 224.948658 
L 210.10879 225.230584 
L 212.158377 225.447112 
L 214.207964 225.612036 
L 216.25755 225.736619 
L 218.307137 225.829953 
L 220.356724 225.899306 
L 222.406311 225.950417 
L 224.455897 225.987779 
L 226.505484 226.014869 
L 228.555071 226.034351 
L 230.604658 226.048249 
L 232.654245 226.058084 
L 234.703831 226.064988 
L 236.753418 226.069796 
L 238.803005 226.073116 
L 240.852592 226.075392 
" clip-path="url(#pc2ff875441)" style="fill: none; stroke: #1f77b4; stroke-width: 1.5; stroke-linecap: square"/>
   </g>
   <g id="line2d_10">
    <path d="M 138.692595 226.08 
L 138.692595 4.32 
" clip-path="url(#pc2ff875441)" style="fill: none; stroke-dasharray: 5.55,2.4; stroke-dashoffset: 0; stroke: #000000; stroke-width: 1.5"/>
   </g>
   <g id="patch_3">
    <path d="M 27.798046 226.08 
L 27.798046 4.32 
" style="fill: none; stroke: #000000; stroke-width: 0.8; stroke-linejoin: miter; stroke-linecap: square"/>
   </g>
   <g id="patch_4">
    <path d="M 250.998046 226.08 
L 250.998046 4.32 
" style="fill: none; stroke: #000000; stroke-width: 0.8; stroke-linejoin: miter; stroke-linecap: square"/>
   </g>
   <g id="patch_5">
    <path d="M 27.798046 226.08 
L 250.998046 226.08 
" style="fill: none; stroke: #000000; stroke-width: 0.8; stroke-linejoin: miter; stroke-linecap: square"/>
   </g>
   <g id="patch_6">
    <path d="M 27.798046 4.32 
L 250.998046 4.32 
" style="fill: none; stroke: #000000; stroke-width: 0.8; stroke-linejoin: miter; stroke-linecap: square"/>
   </g>
   <g id="legend_1">
    <g id="patch_7">
     <path d="M 153.736772 39.763082 
L 239.798046 39.763082 
Q 242.998046 39.763082 242.998046 36.563082 
L 242.998046 15.52 
Q 242.998046 12.32 239.798046 12.32 
L 153.736772 12.32 
Q 150.536772 12.32 150.536772 15.52 
L 150.536772 36.563082 
Q 150.536772 39.763082 153.736772 39.763082 
z
" style="fill: #ffffff; opacity: 0.8; stroke: #cccccc; stroke-linejoin: miter"/>
    </g>
    <g id="line2d_11">
     <path d="M 156.936772 24.32 
L 172.936772 24.32 
L 188.936772 24.32 
" style="fill: none; stroke-dasharray: 5.55,2.4; stroke-dashoffset: 0; stroke: #000000; stroke-width: 1.5"/>
    </g>
    <g id="text_3">
     <!-- Truth -->
     <g transform="translate(201.736772 29.92) scale(0.16 -0.16)">
      <defs>
       <path id="NimbusRomNo9L-Regu-54" d="M 1626 3955 
L 1626 765 
C 1626 223 1555 153 1024 121 
L 1024 0 
L 2893 0 
L 2893 121 
C 2368 147 2278 230 2278 695 
L 2278 3955 
L 2624 3955 
C 3354 3955 3494 3840 3642 3138 
L 3795 3138 
L 3757 4224 
L 147 4224 
L 109 3138 
L 262 3138 
C 416 3834 563 3955 1280 3955 
L 1626 3955 
z
" transform="scale(0.015625)"/>
       <path id="NimbusRomNo9L-Regu-72" d="M 45 2496 
C 134 2515 192 2521 269 2521 
C 429 2521 486 2419 486 2137 
L 486 537 
C 486 217 442 172 32 96 
L 32 0 
L 1568 0 
L 1568 96 
C 1133 115 1024 211 1024 576 
L 1024 2016 
C 1024 2220 1299 2540 1472 2540 
C 1510 2540 1568 2508 1638 2444 
C 1741 2355 1811 2316 1894 2316 
C 2048 2316 2144 2425 2144 2604 
C 2144 2815 2010 2944 1792 2944 
C 1523 2944 1338 2796 1024 2342 
L 1024 2931 
L 992 2944 
C 653 2803 422 2720 45 2598 
L 45 2496 
z
" transform="scale(0.015625)"/>
       <path id="NimbusRomNo9L-Regu-75" d="M 3066 319 
L 3034 319 
C 2739 319 2669 390 2669 684 
L 2669 2880 
L 1658 2880 
L 1658 2771 
C 2054 2752 2131 2688 2131 2368 
L 2131 864 
C 2131 684 2099 595 2010 524 
C 1837 384 1638 307 1446 307 
C 1197 307 992 524 992 793 
L 992 2880 
L 58 2880 
L 58 2790 
C 365 2771 454 2675 454 2380 
L 454 768 
C 454 262 762 -64 1229 -64 
C 1466 -64 1715 38 1888 211 
L 2163 486 
L 2163 -45 
L 2189 -64 
C 2509 64 2739 134 3066 224 
L 3066 319 
z
" transform="scale(0.015625)"/>
       <path id="NimbusRomNo9L-Regu-68" d="M 1005 2195 
C 1274 2489 1466 2598 1715 2598 
C 2035 2598 2195 2368 2195 1920 
L 2195 652 
C 2195 217 2131 134 1760 96 
L 1760 0 
L 3117 0 
L 3117 96 
C 2771 160 2733 211 2733 652 
L 2733 1926 
C 2733 2598 2464 2944 1946 2944 
C 1568 2944 1299 2790 1005 2406 
L 1005 4352 
L 973 4371 
C 755 4294 595 4243 237 4140 
L 64 4089 
L 64 3987 
C 90 3993 109 3993 141 3993 
C 416 3993 467 3942 467 3667 
L 467 652 
C 467 204 429 147 58 96 
L 58 0 
L 1440 0 
L 1440 96 
C 1069 134 1005 211 1005 652 
L 1005 2195 
z
" transform="scale(0.015625)"/>
      </defs>
      <use xlink:href="#NimbusRomNo9L-Regu-54" transform="scale(0.996264)"/>
      <use xlink:href="#NimbusRomNo9L-Regu-72" transform="translate(57.384828 0) scale(0.996264)"/>
      <use xlink:href="#NimbusRomNo9L-Regu-75" transform="translate(90.560438 0) scale(0.996264)"/>
      <use xlink:href="#NimbusRomNo9L-Regu-74" transform="translate(140.373639 0) scale(0.996264)"/>
      <use xlink:href="#NimbusRomNo9L-Regu-68" transform="translate(168.069766 0) scale(0.996264)"/>
     </g>
    </g>
   </g>
  </g>
  <g id="axes_2">
   <g id="patch_8">
    <path d="M 250.998046 226.08 
L 474.198046 226.08 
L 474.198046 4.32 
L 250.998046 4.32 
z
" style="fill: #ffffff"/>
   </g>
   <g id="PolyCollection_2">
    <path d="M 336.978211 226.08 
L 336.978211 93.487926 
L 339.027798 82.784041 
L 341.077385 72.305976 
L 343.126972 62.223123 
L 345.176559 52.707973 
L 347.226145 43.931316 
L 349.275732 36.057204 
L 351.325319 29.237881 
L 353.374906 23.608913 
L 355.424492 19.284703 
L 357.474079 16.354636 
L 359.523666 14.88 
L 361.573253 14.891858 
L 363.62284 16.38996 
L 365.672426 19.342751 
L 367.722013 23.688475 
L 369.7716 29.337326 
L 371.821187 36.17453 
L 373.870773 44.064222 
L 375.92036 52.853928 
L 377.969947 62.379451 
L 380.019534 72.469935 
L 382.069121 82.952902 
L 384.118707 93.659044 
L 384.118707 226.08 
L 384.118707 226.08 
L 382.069121 226.08 
L 380.019534 226.08 
L 377.969947 226.08 
L 375.92036 226.08 
L 373.870773 226.08 
L 371.821187 226.08 
L 369.7716 226.08 
L 367.722013 226.08 
L 365.672426 226.08 
L 363.62284 226.08 
L 361.573253 226.08 
L 359.523666 226.08 
L 357.474079 226.08 
L 355.424492 226.08 
L 353.374906 226.08 
L 351.325319 226.08 
L 349.275732 226.08 
L 347.226145 226.08 
L 345.176559 226.08 
L 343.126972 226.08 
L 341.077385 226.08 
L 339.027798 226.08 
L 336.978211 226.08 
z
" clip-path="url(#p9545bb818e)" style="fill: #1f77b4; fill-opacity: 0.3"/>
   </g>
   <g id="matplotlib.axis_3">
    <g id="xtick_4">
     <g id="line2d_12"/>
    </g>
    <g id="xtick_5">
     <g id="line2d_13"/>
    </g>
    <g id="text_4">
     <!-- f -->
     <g transform="translate(359.612241 245.684586) scale(0.18 -0.18)">
      <defs>
       <path id="NimbusRomNo9L-Regu-66" d="M 1978 2880 
L 1190 2880 
L 1190 3611 
C 1190 3977 1312 4172 1555 4172 
C 1690 4172 1779 4109 1894 3926 
C 1997 3762 2074 3699 2182 3699 
C 2330 3699 2451 3813 2451 3958 
C 2451 4185 2170 4352 1786 4352 
C 1389 4352 1050 4179 883 3889 
C 717 3611 666 3384 659 2880 
L 134 2880 
L 134 2675 
L 659 2675 
L 659 665 
C 659 198 589 121 128 96 
L 128 0 
L 1792 0 
L 1792 96 
C 1267 115 1197 185 1197 665 
L 1197 2675 
L 1978 2675 
L 1978 2880 
z
" transform="scale(0.015625)"/>
      </defs>
      <use xlink:href="#NimbusRomNo9L-Regu-66" transform="scale(0.996264)"/>
     </g>
    </g>
   </g>
   <g id="matplotlib.axis_4">
    <g id="ytick_6">
     <g id="line2d_14"/>
    </g>
    <g id="ytick_7">
     <g id="line2d_15"/>
    </g>
    <g id="ytick_8">
     <g id="line2d_16"/>
    </g>
    <g id="ytick_9">
     <g id="line2d_17"/>
    </g>
   </g>
   <g id="line2d_18">
    <path d="M 261.143501 226.02768 
L 263.193088 226.006569 
L 265.242674 225.977666 
L 267.292261 225.938391 
L 269.341848 225.88542 
L 271.391435 225.814517 
L 273.441021 225.720327 
L 275.490608 225.596148 
L 277.540195 225.433678 
L 279.589782 225.222729 
L 281.639369 224.950932 
L 283.688955 224.603428 
L 285.738542 224.162559 
L 287.788129 223.607582 
L 289.837716 222.914412 
L 291.887302 222.055428 
L 293.936889 220.99937 
L 295.986476 219.711339 
L 298.036063 218.152954 
L 300.085649 216.282681 
L 302.135236 214.056365 
L 304.184823 211.427998 
L 306.23441 208.350731 
L 308.283997 204.778149 
L 310.333583 200.665796 
L 312.38317 195.972941 
L 314.432757 190.664546 
L 316.482344 184.713387 
L 318.53193 178.102263 
L 320.581517 170.826192 
L 322.631104 162.894514 
L 324.680691 154.332775 
L 326.730278 145.184281 
L 328.779864 135.511197 
L 330.829451 125.395093 
L 332.879038 114.93683 
L 334.928625 104.255723 
L 336.978211 93.487926 
L 339.027798 82.784041 
L 341.077385 72.305976 
L 343.126972 62.223123 
L 345.176559 52.707973 
L 347.226145 43.931316 
L 349.275732 36.057204 
L 351.325319 29.237881 
L 353.374906 23.608913 
L 355.424492 19.284703 
L 357.474079 16.354636 
L 359.523666 14.88 
L 361.573253 14.891858 
L 363.62284 16.38996 
L 365.672426 19.342751 
L 367.722013 23.688475 
L 369.7716 29.337326 
L 371.821187 36.17453 
L 373.870773 44.064222 
L 375.92036 52.853928 
L 377.969947 62.379451 
L 380.019534 72.469935 
L 382.069121 82.952902 
L 384.118707 93.659044 
L 386.168294 104.426606 
L 388.217881 115.105193 
L 390.267468 125.558902 
L 392.317054 135.668702 
L 394.366641 145.334032 
L 396.416228 154.473632 
L 398.465815 163.025643 
L 400.515402 170.947051 
L 402.564988 178.212583 
L 404.614575 184.81314 
L 406.664162 190.753915 
L 408.713749 196.052287 
L 410.763335 200.73562 
L 412.812922 204.83906 
L 414.862509 208.403412 
L 416.912096 211.473175 
L 418.961683 214.094784 
L 421.011269 216.315083 
L 423.060856 218.180058 
L 425.110443 219.733827 
L 427.16003 221.017878 
L 429.209616 222.07054 
L 431.259203 222.926652 
L 433.30879 223.617419 
L 435.358377 224.170403 
L 437.407964 224.609633 
L 439.45755 224.955803 
L 441.507137 225.226523 
L 443.556724 225.436611 
L 445.606311 225.598398 
L 447.655897 225.722039 
L 449.705484 225.815811 
L 451.755071 225.88639 
L 453.804658 225.939112 
L 455.854245 225.978199 
L 457.903831 226.00696 
L 459.953418 226.027964 
L 462.003005 226.043189 
L 464.052592 226.054142 
" clip-path="url(#p9545bb818e)" style="fill: none; stroke: #1f77b4; stroke-width: 1.5; stroke-linecap: square"/>
   </g>
   <g id="line2d_19">
    <path d="M 342.898819 226.08 
L 342.898819 4.32 
" clip-path="url(#p9545bb818e)" style="fill: none; stroke-dasharray: 5.55,2.4; stroke-dashoffset: 0; stroke: #000000; stroke-width: 1.5"/>
   </g>
   <g id="patch_9">
    <path d="M 250.998046 226.08 
L 250.998046 4.32 
" style="fill: none; stroke: #000000; stroke-width: 0.8; stroke-linejoin: miter; stroke-linecap: square"/>
   </g>
   <g id="patch_10">
    <path d="M 474.198046 226.08 
L 474.198046 4.32 
" style="fill: none; stroke: #000000; stroke-width: 0.8; stroke-linejoin: miter; stroke-linecap: square"/>
   </g>
   <g id="patch_11">
    <path d="M 250.998046 226.08 
L 474.198046 226.08 
" style="fill: none; stroke: #000000; stroke-width: 0.8; stroke-linejoin: miter; stroke-linecap: square"/>
   </g>
   <g id="patch_12">
    <path d="M 250.998046 4.32 
L 474.198046 4.32 
" style="fill: none; stroke: #000000; stroke-width: 0.8; stroke-linejoin: miter; stroke-linecap: square"/>
   </g>
  </g>
  <g id="axes_3">
   <g id="patch_13">
    <path d="M 474.198046 226.08 
L 697.398046 226.08 
L 697.398046 4.32 
L 474.198046 4.32 
z
" style="fill: #ffffff"/>
   </g>
   <g id="PolyCollection_3">
    <path d="M 572.475732 226.08 
L 572.475732 89.640067 
L 574.525319 78.94691 
L 576.574906 68.545569 
L 578.624492 58.610049 
L 580.674079 49.315696 
L 582.723666 40.834138 
L 584.773253 33.32807 
L 586.82284 26.946087 
L 588.872426 21.817806 
L 590.922013 18.049493 
L 592.9716 15.720401 
L 595.021187 14.88 
L 597.070773 15.546231 
L 599.12036 17.704868 
L 601.169947 21.310022 
L 603.219534 26.285766 
L 605.269121 32.528791 
L 607.318707 39.911971 
L 609.368294 48.288669 
L 611.417881 57.497559 
L 613.467468 67.367781 
L 615.517054 77.724155 
L 617.566641 88.392273 
L 617.566641 226.08 
L 617.566641 226.08 
L 615.517054 226.08 
L 613.467468 226.08 
L 611.417881 226.08 
L 609.368294 226.08 
L 607.318707 226.08 
L 605.269121 226.08 
L 603.219534 226.08 
L 601.169947 226.08 
L 599.12036 226.08 
L 597.070773 226.08 
L 595.021187 226.08 
L 592.9716 226.08 
L 590.922013 226.08 
L 588.872426 226.08 
L 586.82284 226.08 
L 584.773253 226.08 
L 582.723666 226.08 
L 580.674079 226.08 
L 578.624492 226.08 
L 576.574906 226.08 
L 574.525319 226.08 
L 572.475732 226.08 
z
" clip-path="url(#p42acfbaccc)" style="fill: #1f77b4; fill-opacity: 0.3"/>
   </g>
   <g id="matplotlib.axis_5">
    <g id="xtick_6">
     <g id="line2d_20"/>
    </g>
    <g id="xtick_7">
     <g id="line2d_21"/>
    </g>
    <g id="xtick_8">
     <g id="line2d_22"/>
    </g>
    <g id="text_5">
     <!-- $\phi$ -->
     <g transform="translate(580.866542 245.684586) scale(0.18 -0.18)">
      <defs>
       <path id="rtxmi-1e" d="M 3360 1843 
C 3360 2310 3021 2707 2381 2790 
L 2758 4013 
L 2227 3929 
L 1939 2784 
C 934 2681 154 1849 154 902 
C 154 428 410 -45 1229 -90 
L 928 -1344 
L 1088 -1344 
L 1485 -84 
C 2534 0 3360 896 3360 1843 
z
M 2848 1894 
C 2848 806 2170 147 1542 89 
L 2317 2592 
C 2758 2432 2848 2054 2848 1894 
z
M 1894 2611 
L 1274 102 
C 845 224 691 614 691 883 
C 691 1868 1229 2521 1894 2611 
z
" transform="scale(0.015625)"/>
      </defs>
      <use xlink:href="#rtxmi-1e" transform="scale(0.996264)"/>
     </g>
    </g>
   </g>
   <g id="matplotlib.axis_6">
    <g id="ytick_10">
     <g id="line2d_23"/>
    </g>
    <g id="ytick_11">
     <g id="line2d_24"/>
    </g>
    <g id="ytick_12">
     <g id="line2d_25"/>
    </g>
    <g id="ytick_13">
     <g id="line2d_26"/>
    </g>
    <g id="ytick_14">
     <g id="line2d_27"/>
    </g>
   </g>
   <g id="line2d_28">
    <path d="M 484.343501 226.073838 
L 486.393088 226.070964 
L 488.442674 226.066844 
L 490.492261 226.060984 
L 492.541848 226.052707 
L 494.591435 226.041108 
L 496.641021 226.024973 
L 498.690608 226.0027 
L 500.740195 225.972184 
L 502.789782 225.930692 
L 504.839369 225.874705 
L 506.888955 225.799735 
L 508.938542 225.70011 
L 510.988129 225.56874 
L 513.037716 225.396839 
L 515.087302 225.173642 
L 517.136889 224.886086 
L 519.186476 224.518498 
L 521.236063 224.052278 
L 523.285649 223.46561 
L 525.335236 222.733208 
L 527.384823 221.826138 
L 529.43441 220.711731 
L 531.483997 219.35362 
L 533.533583 217.711939 
L 535.58317 215.743714 
L 537.632757 213.403468 
L 539.682344 210.644073 
L 541.73193 207.41787 
L 543.781517 203.678041 
L 545.831104 199.380259 
L 547.880691 194.484562 
L 549.930278 188.957435 
L 551.979864 182.774022 
L 554.029451 175.920409 
L 556.079038 168.395863 
L 558.128625 160.214941 
L 560.178211 151.409331 
L 562.227798 142.029312 
L 564.277385 132.144711 
L 566.326972 121.845246 
L 568.376559 111.240157 
L 570.426145 100.457073 
L 572.475732 89.640067 
L 574.525319 78.94691 
L 576.574906 68.545569 
L 578.624492 58.610049 
L 580.674079 49.315696 
L 582.723666 40.834138 
L 584.773253 33.32807 
L 586.82284 26.946087 
L 588.872426 21.817806 
L 590.922013 18.049493 
L 592.9716 15.720401 
L 595.021187 14.88 
L 597.070773 15.546231 
L 599.12036 17.704868 
L 601.169947 21.310022 
L 603.219534 26.285766 
L 605.269121 32.528791 
L 607.318707 39.911971 
L 609.368294 48.288669 
L 611.417881 57.497559 
L 613.467468 67.367781 
L 615.517054 77.724155 
L 617.566641 88.392273 
L 619.616228 99.203242 
L 621.665815 109.997918 
L 623.715402 120.630488 
L 625.764988 130.971303 
L 627.814575 140.908919 
L 629.864162 150.351324 
L 631.913749 159.226394 
L 633.963335 167.481624 
L 636.012922 175.083238 
L 638.062509 182.014785 
L 640.112096 188.27533 
L 642.161683 193.877374 
L 644.211269 198.844623 
L 646.260856 203.209705 
L 648.310443 207.011944 
L 650.36003 210.295264 
L 652.409616 213.10628 
L 654.459203 215.492632 
L 656.50879 217.501572 
L 658.558377 219.178814 
L 660.607964 220.56766 
L 662.65755 221.708358 
L 664.707137 222.637695 
L 666.756724 223.388772 
L 668.806311 223.990955 
L 670.855897 224.469942 
L 672.905484 224.847941 
L 674.955071 225.14391 
L 677.004658 225.373845 
L 679.054245 225.551094 
L 681.103831 225.686673 
L 683.153418 225.789581 
L 685.203005 225.867092 
L 687.252592 225.925027 
" clip-path="url(#p42acfbaccc)" style="fill: none; stroke: #1f77b4; stroke-width: 1.5; stroke-linecap: square"/>
   </g>
   <g id="line2d_29">
    <path d="M 604.724474 226.08 
L 604.724474 4.32 
" clip-path="url(#p42acfbaccc)" style="fill: none; stroke-dasharray: 5.55,2.4; stroke-dashoffset: 0; stroke: #000000; stroke-width: 1.5"/>
   </g>
   <g id="patch_14">
    <path d="M 474.198046 226.08 
L 474.198046 4.32 
" style="fill: none; stroke: #000000; stroke-width: 0.8; stroke-linejoin: miter; stroke-linecap: square"/>
   </g>
   <g id="patch_15">
    <path d="M 697.398046 226.08 
L 697.398046 4.32 
" style="fill: none; stroke: #000000; stroke-width: 0.8; stroke-linejoin: miter; stroke-linecap: square"/>
   </g>
   <g id="patch_16">
    <path d="M 474.198046 226.08 
L 697.398046 226.08 
" style="fill: none; stroke: #000000; stroke-width: 0.8; stroke-linejoin: miter; stroke-linecap: square"/>
   </g>
   <g id="patch_17">
    <path d="M 474.198046 4.32 
L 697.398046 4.32 
" style="fill: none; stroke: #000000; stroke-width: 0.8; stroke-linejoin: miter; stroke-linecap: square"/>
   </g>
  </g>
  <g id="axes_4">
   <g id="patch_18">
    <path d="M 697.398046 226.08 
L 920.598046 226.08 
L 920.598046 4.32 
L 697.398046 4.32 
z
" style="fill: #ffffff"/>
   </g>
   <g id="PolyCollection_4">
    <path d="M 789.526972 226.08 
L 789.526972 94.601892 
L 791.576559 82.957713 
L 793.626145 71.578437 
L 795.675732 60.681991 
L 797.725319 50.490126 
L 799.774906 41.221065 
L 801.824492 33.081819 
L 803.874079 26.260542 
L 805.923666 20.919322 
L 807.973253 17.18778 
L 810.02284 15.157848 
L 812.072426 14.88 
L 814.122013 16.361171 
L 816.1716 19.564467 
L 818.221187 24.41069 
L 820.270773 30.781598 
L 822.32036 38.524692 
L 824.369947 47.459287 
L 826.419534 57.383502 
L 828.469121 68.081812 
L 830.518707 79.332763 
L 832.568294 90.916462 
L 832.568294 226.08 
L 832.568294 226.08 
L 830.518707 226.08 
L 828.469121 226.08 
L 826.419534 226.08 
L 824.369947 226.08 
L 822.32036 226.08 
L 820.270773 226.08 
L 818.221187 226.08 
L 816.1716 226.08 
L 814.122013 226.08 
L 812.072426 226.08 
L 810.02284 226.08 
L 807.973253 226.08 
L 805.923666 226.08 
L 803.874079 226.08 
L 801.824492 226.08 
L 799.774906 226.08 
L 797.725319 226.08 
L 795.675732 226.08 
L 793.626145 226.08 
L 791.576559 226.08 
L 789.526972 226.08 
z
" clip-path="url(#p7784091062)" style="fill: #1f77b4; fill-opacity: 0.3"/>
   </g>
   <g id="matplotlib.axis_7">
    <g id="xtick_9">
     <g id="line2d_30"/>
    </g>
    <g id="xtick_10">
     <g id="line2d_31"/>
    </g>
    <g id="xtick_11">
     <g id="line2d_32"/>
    </g>
    <g id="text_6">
     <!-- B -->
     <g transform="translate(803.017475 245.684586) scale(0.18 -0.18)">
      <defs>
       <path id="NimbusRomNo9L-Regu-42" d="M 109 4224 
L 109 4102 
C 646 4070 723 4000 723 3528 
L 723 695 
C 723 223 640 140 109 121 
L 109 0 
L 2246 0 
C 2746 0 3200 134 3437 351 
C 3667 555 3795 842 3795 1148 
C 3795 1429 3680 1684 3482 1869 
C 3290 2041 3117 2118 2701 2220 
C 3034 2303 3168 2367 3322 2500 
C 3482 2641 3578 2877 3578 3138 
C 3578 3853 3008 4224 1901 4224 
L 109 4224 
z
M 1376 2080 
C 1997 2080 2291 2048 2522 1952 
C 2886 1799 3059 1544 3059 1142 
C 3059 798 2925 549 2669 402 
C 2464 287 2202 236 1779 236 
C 1466 236 1376 294 1376 498 
L 1376 2080 
z
M 1376 2335 
L 1376 3795 
C 1376 3929 1421 3987 1517 3987 
L 1798 3987 
C 2534 3987 2925 3680 2925 3113 
C 2925 2615 2586 2335 1984 2335 
L 1376 2335 
z
" transform="scale(0.015625)"/>
      </defs>
      <use xlink:href="#NimbusRomNo9L-Regu-42" transform="scale(0.996264)"/>
     </g>
    </g>
   </g>
   <g id="matplotlib.axis_8">
    <g id="ytick_15">
     <g id="line2d_33"/>
    </g>
    <g id="ytick_16">
     <g id="line2d_34"/>
    </g>
    <g id="ytick_17">
     <g id="line2d_35"/>
    </g>
    <g id="ytick_18">
     <g id="line2d_36"/>
    </g>
   </g>
   <g id="line2d_37">
    <path d="M 707.543501 226.075327 
L 709.593088 226.072895 
L 711.642674 226.069287 
L 713.692261 226.063981 
L 715.741848 226.056246 
L 717.791435 226.04507 
L 719.841021 226.029062 
L 721.890608 226.006337 
L 723.940195 225.974358 
L 725.989782 225.929757 
L 728.039369 225.868105 
L 730.088955 225.783639 
L 732.138542 225.668951 
L 734.188129 225.514625 
L 736.237716 225.308826 
L 738.287302 225.036867 
L 740.336889 224.680739 
L 742.386476 224.218643 
L 744.436063 223.624543 
L 746.485649 222.86777 
L 748.535236 221.912718 
L 750.584823 220.71869 
L 752.63441 219.239927 
L 754.683997 217.425891 
L 756.733583 215.221852 
L 758.78317 212.569826 
L 760.832757 209.409912 
L 762.882344 205.682043 
L 764.93193 201.328175 
L 766.981517 196.294866 
L 769.031104 190.536214 
L 771.080691 184.017061 
L 773.130278 176.716343 
L 775.179864 168.630425 
L 777.229451 159.776247 
L 779.279038 150.194082 
L 781.328625 139.949679 
L 783.378211 129.1356 
L 785.427798 117.87155 
L 787.477385 106.303556 
L 789.526972 94.601892 
L 791.576559 82.957713 
L 793.626145 71.578437 
L 795.675732 60.681991 
L 797.725319 50.490126 
L 799.774906 41.221065 
L 801.824492 33.081819 
L 803.874079 26.260542 
L 805.923666 20.919322 
L 807.973253 17.18778 
L 810.02284 15.157848 
L 812.072426 14.88 
L 814.122013 16.361171 
L 816.1716 19.564467 
L 818.221187 24.41069 
L 820.270773 30.781598 
L 822.32036 38.524692 
L 824.369947 47.459287 
L 826.419534 57.383502 
L 828.469121 68.081812 
L 830.518707 79.332763 
L 832.568294 90.916462 
L 834.617881 102.62151 
L 836.667468 114.251073 
L 838.717054 125.627871 
L 840.766641 136.59795 
L 842.816228 147.033164 
L 844.865815 156.83238 
L 846.915402 165.9215 
L 848.964988 174.252419 
L 851.014575 181.801116 
L 853.064162 188.565066 
L 855.113749 194.560197 
L 857.163335 199.817589 
L 859.212922 204.380113 
L 861.262509 208.299165 
L 863.312096 211.631638 
L 865.361683 214.437215 
L 867.411269 216.77606 
L 869.460856 218.706923 
L 871.510443 220.285681 
L 873.56003 221.564272 
L 875.609616 222.590003 
L 877.659203 223.405183 
L 879.70879 224.047012 
L 881.758377 224.547687 
L 883.807964 224.934667 
L 885.85755 225.231039 
L 887.907137 225.455955 
L 889.956724 225.6251 
L 892.006311 225.751158 
L 894.055897 225.844262 
L 896.105484 225.912411 
L 898.155071 225.96185 
L 900.204658 225.997398 
L 902.254245 226.022731 
L 904.303831 226.040625 
L 906.353418 226.053153 
L 908.403005 226.061847 
L 910.452592 226.067828 
" clip-path="url(#p7784091062)" style="fill: none; stroke: #1f77b4; stroke-width: 1.5; stroke-linecap: square"/>
   </g>
   <g id="line2d_38">
    <path d="M 807.635606 226.08 
L 807.635606 4.32 
" clip-path="url(#p7784091062)" style="fill: none; stroke-dasharray: 5.55,2.4; stroke-dashoffset: 0; stroke: #000000; stroke-width: 1.5"/>
   </g>
   <g id="patch_19">
    <path d="M 697.398046 226.08 
L 697.398046 4.32 
" style="fill: none; stroke: #000000; stroke-width: 0.8; stroke-linejoin: miter; stroke-linecap: square"/>
   </g>
   <g id="patch_20">
    <path d="M 920.598046 226.08 
L 920.598046 4.32 
" style="fill: none; stroke: #000000; stroke-width: 0.8; stroke-linejoin: miter; stroke-linecap: square"/>
   </g>
   <g id="patch_21">
    <path d="M 697.398046 226.08 
L 920.598046 226.08 
" style="fill: none; stroke: #000000; stroke-width: 0.8; stroke-linejoin: miter; stroke-linecap: square"/>
   </g>
   <g id="patch_22">
    <path d="M 697.398046 4.32 
L 920.598046 4.32 
" style="fill: none; stroke: #000000; stroke-width: 0.8; stroke-linejoin: miter; stroke-linecap: square"/>
   </g>
  </g>
 </g>
 <defs>
  <clipPath id="pc2ff875441">
   <rect x="27.798046" y="4.32" width="223.2" height="221.76"/>
  </clipPath>
  <clipPath id="p9545bb818e">
   <rect x="250.998046" y="4.32" width="223.2" height="221.76"/>
  </clipPath>
  <clipPath id="p42acfbaccc">
   <rect x="474.198046" y="4.32" width="223.2" height="221.76"/>
  </clipPath>
  <clipPath id="p7784091062">
   <rect x="697.398046" y="4.32" width="223.2" height="221.76"/>
  </clipPath>
 </defs>
</svg>
