<?xml version="1.0" encoding="utf-8" standalone="no"?>
<!DOCTYPE svg PUBLIC "-//W3C//DTD SVG 1.1//EN"
  "http://www.w3.org/Graphics/SVG/1.1/DTD/svg11.dtd">
<svg xmlns:xlink="http://www.w3.org/1999/xlink" width="919.158046pt" height="248.118046pt" viewBox="0 0 919.158046 248.118046" xmlns="http://www.w3.org/2000/svg" version="1.1">
 <metadata>
  <rdf:RDF xmlns:dc="http://purl.org/dc/elements/1.1/" xmlns:cc="http://creativecommons.org/ns#" xmlns:rdf="http://www.w3.org/1999/02/22-rdf-syntax-ns#">
   <cc:Work>
    <dc:type rdf:resource="http://purl.org/dc/dcmitype/StillImage"/>
    <dc:date>2025-01-22T22:04:57.327777</dc:date>
    <dc:format>image/svg+xml</dc:format>
    <dc:creator>
     <cc:Agent>
      <dc:title>Matplotlib v3.9.2, https://matplotlib.org/</dc:title>
     </cc:Agent>
    </dc:creator>
   </cc:Work>
  </rdf:RDF>
 </metadata>
 <defs>
  <style type="text/css">*{stroke-linejoin: round; stroke-linecap: butt}</style>
 </defs>
 <g id="figure_1">
  <g id="patch_1">
   <path d="M 0 248.118046 
L 919.158046 248.118046 
L 919.158046 0 
L 0 0 
z
" style="fill: #ffffff"/>
  </g>
  <g id="axes_1">
   <g id="patch_2">
    <path d="M 24.918046 223.2 
L 248.118046 223.2 
L 248.118046 1.44 
L 24.918046 1.44 
z
" style="fill: #ffffff"/>
   </g>
   <g id="PolyCollection_1">
    <path d="M 106.799038 223.2 
L 106.799038 90.388441 
L 108.848625 79.269293 
L 110.898211 68.407326 
L 112.947798 57.993664 
L 114.997385 48.222441 
L 117.046972 39.284909 
L 119.096559 31.363283 
L 121.146145 24.624595 
L 123.195732 19.214857 
L 125.245319 15.253808 
L 127.294906 12.830505 
L 129.344492 12 
L 131.394079 12.781258 
L 133.443666 15.156438 
L 135.493253 19.071569 
L 137.54284 24.438588 
L 139.592426 31.138639 
L 141.642013 39.026437 
L 143.6916 47.93551 
L 145.741187 57.684019 
L 147.790773 68.080896 
L 149.84036 78.932004 
L 151.889947 90.046046 
L 151.889947 223.2 
L 151.889947 223.2 
L 149.84036 223.2 
L 147.790773 223.2 
L 145.741187 223.2 
L 143.6916 223.2 
L 141.642013 223.2 
L 139.592426 223.2 
L 137.54284 223.2 
L 135.493253 223.2 
L 133.443666 223.2 
L 131.394079 223.2 
L 129.344492 223.2 
L 127.294906 223.2 
L 125.245319 223.2 
L 123.195732 223.2 
L 121.146145 223.2 
L 119.096559 223.2 
L 117.046972 223.2 
L 114.997385 223.2 
L 112.947798 223.2 
L 110.898211 223.2 
L 108.848625 223.2 
L 106.799038 223.2 
z
" clip-path="url(#pe5a3b71a42)" style="fill: #1f77b4; fill-opacity: 0.3"/>
   </g>
   <g id="matplotlib.axis_1">
    <g id="xtick_1">
     <g id="line2d_1"/>
    </g>
    <g id="xtick_2">
     <g id="line2d_2"/>
    </g>
    <g id="xtick_3">
     <g id="line2d_3"/>
    </g>
    <g id="text_1">
     <!-- A -->
     <g transform="translate(130.044322 242.804586) scale(0.18 -0.18)">
      <defs>
       <path id="NimbusRomNo9L-Regu-41" d="M 4518 121 
C 4230 141 4166 205 3942 686 
L 2349 4288 
L 2221 4288 
L 890 1187 
C 480 238 403 134 96 121 
L 96 0 
L 1363 0 
L 1363 121 
C 1056 121 928 205 928 387 
C 928 465 947 556 979 641 
L 1274 1401 
L 2950 1401 
L 3213 777 
C 3290 602 3334 433 3334 342 
C 3334 179 3226 128 2886 121 
L 2886 0 
L 4518 0 
L 4518 121 
z
M 1382 1664 
L 2118 3392 
L 2861 1664 
L 1382 1664 
z
" transform="scale(0.015625)"/>
      </defs>
      <use xlink:href="#NimbusRomNo9L-Regu-41" transform="scale(0.996264)"/>
     </g>
    </g>
   </g>
   <g id="matplotlib.axis_2">
    <g id="ytick_1">
     <g id="line2d_4"/>
    </g>
    <g id="ytick_2">
     <g id="line2d_5"/>
    </g>
    <g id="ytick_3">
     <g id="line2d_6"/>
    </g>
    <g id="ytick_4">
     <g id="line2d_7"/>
    </g>
    <g id="ytick_5">
     <g id="line2d_8"/>
    </g>
    <g id="text_2">
     <!-- $P(\theta\,|\,\text{data})$ -->
     <g transform="translate(13.544586 148.208033) rotate(-90) scale(0.18 -0.18)">
      <defs>
       <path id="CMSSI17-50" d="M 1498 1856 
L 2502 1856 
C 3373 1856 4198 2617 4198 3378 
C 4198 3912 3782 4416 3008 4416 
L 1517 4416 
L 570 0 
L 1107 0 
L 1498 1856 
z
M 1965 4057 
L 2797 4057 
C 3405 4057 3686 3743 3686 3340 
C 3686 2856 3270 2227 2400 2227 
L 1568 2227 
L 1965 4057 
z
" transform="scale(0.015625)"/>
       <path id="NimbusRomNo9L-Regu-28" d="M 1888 4352 
C 1414 4044 1222 3878 986 3583 
C 531 3027 307 2387 307 1638 
C 307 825 544 198 1107 -455 
C 1370 -762 1536 -903 1869 -1108 
L 1946 -1006 
C 1434 -602 1254 -378 1082 102 
C 928 530 858 1017 858 1657 
C 858 2329 941 2854 1114 3251 
C 1293 3647 1485 3878 1946 4249 
L 1888 4352 
z
" transform="scale(0.015625)"/>
       <path id="rtxmi-12" d="M 2899 3030 
C 2899 3155 2886 4102 2125 4102 
C 992 4102 186 2361 186 1131 
C 186 898 224 -128 1037 -128 
C 2310 -128 2899 2067 2899 3030 
z
M 2477 3392 
C 2477 3055 2387 2592 2259 2086 
L 870 2086 
C 1101 2992 1504 3968 2118 3968 
C 2374 3968 2477 3749 2477 3392 
z
M 2195 1856 
C 1997 1099 1773 12 1126 12 
C 774 12 646 323 646 756 
C 646 1073 717 1461 806 1856 
L 2195 1856 
z
" transform="scale(0.015625)"/>
       <path id="txsy-6a" d="M 819 -1024 
L 819 4352 
L 461 4352 
L 461 -1024 
L 819 -1024 
z
" transform="scale(0.015625)"/>
       <path id="NimbusRomNo9L-Regu-64" d="M 2202 -64 
L 3142 268 
L 3142 371 
C 3027 364 3014 364 2995 364 
C 2765 364 2714 435 2714 729 
L 2714 4358 
L 2682 4371 
C 2374 4262 2150 4198 1741 4089 
L 1741 3987 
C 1792 3993 1830 3993 1882 3993 
C 2118 3993 2176 3929 2176 3667 
L 2176 2668 
C 1933 2873 1760 2944 1504 2944 
C 768 2944 173 2220 173 1312 
C 173 492 653 -64 1357 -64 
C 1715 -64 1958 64 2176 364 
L 2176 -45 
L 2202 -64 
z
M 2176 652 
C 2176 608 2131 531 2067 460 
C 1952 332 1792 268 1606 268 
C 1075 268 723 780 723 1568 
C 723 2291 1037 2764 1523 2764 
C 1862 2764 2176 2464 2176 2124 
L 2176 652 
z
" transform="scale(0.015625)"/>
       <path id="NimbusRomNo9L-Regu-61" d="M 2829 422 
C 2720 332 2643 300 2547 300 
C 2400 300 2355 390 2355 672 
L 2355 1920 
C 2355 2252 2323 2438 2227 2592 
C 2086 2822 1811 2944 1434 2944 
C 832 2944 358 2630 358 2227 
C 358 2080 486 1952 634 1952 
C 787 1952 922 2080 922 2220 
C 922 2246 915 2278 909 2323 
C 896 2380 890 2432 890 2476 
C 890 2649 1094 2790 1350 2790 
C 1664 2790 1837 2604 1837 2259 
L 1837 1868 
C 851 1472 742 1420 467 1177 
C 326 1049 237 832 237 620 
C 237 217 518 -64 909 -64 
C 1190 -64 1453 70 1843 403 
C 1875 70 1990 -64 2253 -64 
C 2470 -64 2605 12 2829 256 
L 2829 422 
z
M 1837 787 
C 1837 588 1805 531 1670 454 
C 1517 364 1338 307 1203 307 
C 979 307 800 524 800 800 
L 800 825 
C 800 1203 1062 1433 1837 1715 
L 1837 787 
z
" transform="scale(0.015625)"/>
       <path id="NimbusRomNo9L-Regu-74" d="M 1632 2880 
L 986 2880 
L 986 3622 
C 986 3686 979 3705 941 3705 
C 896 3648 858 3590 813 3526 
C 570 3174 294 2867 192 2841 
C 122 2796 83 2751 83 2719 
C 83 2700 90 2687 109 2675 
L 448 2675 
L 448 748 
C 448 211 640 -64 1018 -64 
C 1331 -64 1574 89 1786 422 
L 1702 492 
C 1568 332 1459 268 1318 268 
C 1082 268 986 441 986 844 
L 986 2675 
L 1632 2675 
L 1632 2880 
z
" transform="scale(0.015625)"/>
       <path id="NimbusRomNo9L-Regu-29" d="M 243 -1108 
C 717 -801 909 -634 1146 -340 
C 1600 217 1824 857 1824 1606 
C 1824 2425 1587 3046 1024 3699 
C 762 4006 595 4147 262 4352 
L 186 4249 
C 698 3846 870 3622 1050 3142 
C 1203 2713 1274 2227 1274 1587 
C 1274 921 1190 390 1018 -1 
C 838 -404 646 -634 186 -1006 
L 243 -1108 
z
" transform="scale(0.015625)"/>
      </defs>
      <use xlink:href="#CMSSI17-50" transform="scale(0.996264)"/>
      <use xlink:href="#NimbusRomNo9L-Regu-28" transform="translate(68.162406 0) scale(0.996264)"/>
      <use xlink:href="#rtxmi-12" transform="translate(101.338015 0) scale(0.996264)"/>
      <use xlink:href="#txsy-6a" transform="translate(163.073138 0) scale(0.996264)"/>
      <use xlink:href="#NimbusRomNo9L-Regu-64" transform="translate(199.602747 0) scale(0.996264)"/>
      <use xlink:href="#NimbusRomNo9L-Regu-61" transform="translate(249.415948 0) scale(0.996264)"/>
      <use xlink:href="#NimbusRomNo9L-Regu-74" transform="translate(293.650094 0) scale(0.996264)"/>
      <use xlink:href="#NimbusRomNo9L-Regu-61" transform="translate(321.346221 0) scale(0.996264)"/>
      <use xlink:href="#NimbusRomNo9L-Regu-29" transform="translate(365.580368 0) scale(0.996264)"/>
     </g>
    </g>
   </g>
   <g id="line2d_9">
    <path d="M 35.063501 223.135566 
L 37.113088 223.108745 
L 39.162674 223.071745 
L 41.212261 223.021115 
L 43.261848 222.9524 
L 45.311435 222.859898 
L 47.361021 222.736397 
L 49.410608 222.572863 
L 51.460195 222.358105 
L 53.509782 222.078414 
L 55.559369 221.717185 
L 57.608955 221.254547 
L 59.658542 220.667008 
L 61.708129 219.92715 
L 63.757716 219.003397 
L 65.807302 217.859905 
L 67.856889 216.456592 
L 69.906476 214.749367 
L 71.956063 212.690588 
L 74.005649 210.229791 
L 76.055236 207.314721 
L 78.104823 203.892676 
L 80.15441 199.912188 
L 82.203997 195.325015 
L 84.253583 190.088417 
L 86.30317 184.167658 
L 88.352757 177.538662 
L 90.402344 170.190706 
L 92.45193 162.129039 
L 94.501517 153.377267 
L 96.551104 143.97937 
L 98.600691 134.001183 
L 100.650278 123.531194 
L 102.699864 112.680536 
L 104.749451 101.582059 
L 106.799038 90.388441 
L 108.848625 79.269293 
L 110.898211 68.407326 
L 112.947798 57.993664 
L 114.997385 48.222441 
L 117.046972 39.284909 
L 119.096559 31.363283 
L 121.146145 24.624595 
L 123.195732 19.214857 
L 125.245319 15.253808 
L 127.294906 12.830505 
L 129.344492 12 
L 131.394079 12.781258 
L 133.443666 15.156438 
L 135.493253 19.071569 
L 137.54284 24.438588 
L 139.592426 31.138639 
L 141.642013 39.026437 
L 143.6916 47.93551 
L 145.741187 57.684019 
L 147.790773 68.080896 
L 149.84036 78.932004 
L 151.889947 90.046046 
L 153.939534 101.239978 
L 155.989121 112.343727 
L 158.038707 123.20405 
L 160.088294 133.687455 
L 162.137881 143.682127 
L 164.187468 153.098879 
L 166.237054 161.871192 
L 168.286641 169.954435 
L 170.336228 177.324404 
L 172.385815 183.975325 
L 174.435402 189.917469 
L 176.484988 195.174544 
L 178.534575 199.780998 
L 180.584162 203.779364 
L 182.633749 207.217752 
L 184.683335 210.147562 
L 186.732922 212.621484 
L 188.782509 214.691809 
L 190.832096 216.409073 
L 192.881683 217.821016 
L 194.931269 218.971846 
L 196.980856 219.901772 
L 199.030443 220.64677 
L 201.08003 221.238544 
L 203.129616 221.704637 
L 205.179203 222.068658 
L 207.22879 222.350584 
L 209.278377 222.567112 
L 211.327964 222.732036 
L 213.37755 222.856619 
L 215.427137 222.949953 
L 217.476724 223.019306 
L 219.526311 223.070417 
L 221.575897 223.107779 
L 223.625484 223.134869 
L 225.675071 223.154351 
L 227.724658 223.168249 
L 229.774245 223.178084 
L 231.823831 223.184988 
L 233.873418 223.189796 
L 235.923005 223.193116 
L 237.972592 223.195392 
" clip-path="url(#pe5a3b71a42)" style="fill: none; stroke: #1f77b4; stroke-width: 1.5; stroke-linecap: square"/>
   </g>
   <g id="line2d_10">
    <path d="M 135.812595 223.2 
L 135.812595 1.44 
" clip-path="url(#pe5a3b71a42)" style="fill: none; stroke-dasharray: 5.55,2.4; stroke-dashoffset: 0; stroke: #000000; stroke-width: 1.5"/>
   </g>
   <g id="patch_3">
    <path d="M 24.918046 223.2 
L 24.918046 1.44 
" style="fill: none; stroke: #000000; stroke-width: 0.8; stroke-linejoin: miter; stroke-linecap: square"/>
   </g>
   <g id="patch_4">
    <path d="M 248.118046 223.2 
L 248.118046 1.44 
" style="fill: none; stroke: #000000; stroke-width: 0.8; stroke-linejoin: miter; stroke-linecap: square"/>
   </g>
   <g id="patch_5">
    <path d="M 24.918046 223.2 
L 248.118046 223.2 
" style="fill: none; stroke: #000000; stroke-width: 0.8; stroke-linejoin: miter; stroke-linecap: square"/>
   </g>
   <g id="patch_6">
    <path d="M 24.918046 1.44 
L 248.118046 1.44 
" style="fill: none; stroke: #000000; stroke-width: 0.8; stroke-linejoin: miter; stroke-linecap: square"/>
   </g>
   <g id="legend_1">
    <g id="patch_7">
     <path d="M 150.856772 36.883082 
L 236.918046 36.883082 
Q 240.118046 36.883082 240.118046 33.683082 
L 240.118046 12.64 
Q 240.118046 9.44 236.918046 9.44 
L 150.856772 9.44 
Q 147.656772 9.44 147.656772 12.64 
L 147.656772 33.683082 
Q 147.656772 36.883082 150.856772 36.883082 
z
" style="fill: #ffffff; opacity: 0.8; stroke: #cccccc; stroke-linejoin: miter"/>
    </g>
    <g id="line2d_11">
     <path d="M 154.056772 21.44 
L 170.056772 21.44 
L 186.056772 21.44 
" style="fill: none; stroke-dasharray: 5.55,2.4; stroke-dashoffset: 0; stroke: #000000; stroke-width: 1.5"/>
    </g>
    <g id="text_3">
     <!-- Truth -->
     <g transform="translate(198.856772 27.04) scale(0.16 -0.16)">
      <defs>
       <path id="NimbusRomNo9L-Regu-54" d="M 1626 3955 
L 1626 765 
C 1626 223 1555 153 1024 121 
L 1024 0 
L 2893 0 
L 2893 121 
C 2368 147 2278 230 2278 695 
L 2278 3955 
L 2624 3955 
C 3354 3955 3494 3840 3642 3138 
L 3795 3138 
L 3757 4224 
L 147 4224 
L 109 3138 
L 262 3138 
C 416 3834 563 3955 1280 3955 
L 1626 3955 
z
" transform="scale(0.015625)"/>
       <path id="NimbusRomNo9L-Regu-72" d="M 45 2496 
C 134 2515 192 2521 269 2521 
C 429 2521 486 2419 486 2137 
L 486 537 
C 486 217 442 172 32 96 
L 32 0 
L 1568 0 
L 1568 96 
C 1133 115 1024 211 1024 576 
L 1024 2016 
C 1024 2220 1299 2540 1472 2540 
C 1510 2540 1568 2508 1638 2444 
C 1741 2355 1811 2316 1894 2316 
C 2048 2316 2144 2425 2144 2604 
C 2144 2815 2010 2944 1792 2944 
C 1523 2944 1338 2796 1024 2342 
L 1024 2931 
L 992 2944 
C 653 2803 422 2720 45 2598 
L 45 2496 
z
" transform="scale(0.015625)"/>
       <path id="NimbusRomNo9L-Regu-75" d="M 3066 319 
L 3034 319 
C 2739 319 2669 390 2669 684 
L 2669 2880 
L 1658 2880 
L 1658 2771 
C 2054 2752 2131 2688 2131 2368 
L 2131 864 
C 2131 684 2099 595 2010 524 
C 1837 384 1638 307 1446 307 
C 1197 307 992 524 992 793 
L 992 2880 
L 58 2880 
L 58 2790 
C 365 2771 454 2675 454 2380 
L 454 768 
C 454 262 762 -64 1229 -64 
C 1466 -64 1715 38 1888 211 
L 2163 486 
L 2163 -45 
L 2189 -64 
C 2509 64 2739 134 3066 224 
L 3066 319 
z
" transform="scale(0.015625)"/>
       <path id="NimbusRomNo9L-Regu-68" d="M 1005 2195 
C 1274 2489 1466 2598 1715 2598 
C 2035 2598 2195 2368 2195 1920 
L 2195 652 
C 2195 217 2131 134 1760 96 
L 1760 0 
L 3117 0 
L 3117 96 
C 2771 160 2733 211 2733 652 
L 2733 1926 
C 2733 2598 2464 2944 1946 2944 
C 1568 2944 1299 2790 1005 2406 
L 1005 4352 
L 973 4371 
C 755 4294 595 4243 237 4140 
L 64 4089 
L 64 3987 
C 90 3993 109 3993 141 3993 
C 416 3993 467 3942 467 3667 
L 467 652 
C 467 204 429 147 58 96 
L 58 0 
L 1440 0 
L 1440 96 
C 1069 134 1005 211 1005 652 
L 1005 2195 
z
" transform="scale(0.015625)"/>
      </defs>
      <use xlink:href="#NimbusRomNo9L-Regu-54" transform="scale(0.996264)"/>
      <use xlink:href="#NimbusRomNo9L-Regu-72" transform="translate(57.384828 0) scale(0.996264)"/>
      <use xlink:href="#NimbusRomNo9L-Regu-75" transform="translate(90.560438 0) scale(0.996264)"/>
      <use xlink:href="#NimbusRomNo9L-Regu-74" transform="translate(140.373639 0) scale(0.996264)"/>
      <use xlink:href="#NimbusRomNo9L-Regu-68" transform="translate(168.069766 0) scale(0.996264)"/>
     </g>
    </g>
   </g>
  </g>
  <g id="axes_2">
   <g id="patch_8">
    <path d="M 248.118046 223.2 
L 471.318046 223.2 
L 471.318046 1.44 
L 248.118046 1.44 
z
" style="fill: #ffffff"/>
   </g>
   <g id="PolyCollection_2">
    <path d="M 334.098211 223.2 
L 334.098211 90.607926 
L 336.147798 79.904041 
L 338.197385 69.425976 
L 340.246972 59.343123 
L 342.296559 49.827973 
L 344.346145 41.051316 
L 346.395732 33.177204 
L 348.445319 26.357881 
L 350.494906 20.728913 
L 352.544492 16.404703 
L 354.594079 13.474636 
L 356.643666 12 
L 358.693253 12.011858 
L 360.74284 13.50996 
L 362.792426 16.462751 
L 364.842013 20.808475 
L 366.8916 26.457326 
L 368.941187 33.29453 
L 370.990773 41.184222 
L 373.04036 49.973928 
L 375.089947 59.499451 
L 377.139534 69.589935 
L 379.189121 80.072902 
L 381.238707 90.779044 
L 381.238707 223.2 
L 381.238707 223.2 
L 379.189121 223.2 
L 377.139534 223.2 
L 375.089947 223.2 
L 373.04036 223.2 
L 370.990773 223.2 
L 368.941187 223.2 
L 366.8916 223.2 
L 364.842013 223.2 
L 362.792426 223.2 
L 360.74284 223.2 
L 358.693253 223.2 
L 356.643666 223.2 
L 354.594079 223.2 
L 352.544492 223.2 
L 350.494906 223.2 
L 348.445319 223.2 
L 346.395732 223.2 
L 344.346145 223.2 
L 342.296559 223.2 
L 340.246972 223.2 
L 338.197385 223.2 
L 336.147798 223.2 
L 334.098211 223.2 
z
" clip-path="url(#pdac8906cda)" style="fill: #1f77b4; fill-opacity: 0.3"/>
   </g>
   <g id="matplotlib.axis_3">
    <g id="xtick_4">
     <g id="line2d_12"/>
    </g>
    <g id="xtick_5">
     <g id="line2d_13"/>
    </g>
    <g id="text_4">
     <!-- f -->
     <g transform="translate(356.732241 242.804586) scale(0.18 -0.18)">
      <defs>
       <path id="NimbusRomNo9L-Regu-66" d="M 1978 2880 
L 1190 2880 
L 1190 3611 
C 1190 3977 1312 4172 1555 4172 
C 1690 4172 1779 4109 1894 3926 
C 1997 3762 2074 3699 2182 3699 
C 2330 3699 2451 3813 2451 3958 
C 2451 4185 2170 4352 1786 4352 
C 1389 4352 1050 4179 883 3889 
C 717 3611 666 3384 659 2880 
L 134 2880 
L 134 2675 
L 659 2675 
L 659 665 
C 659 198 589 121 128 96 
L 128 0 
L 1792 0 
L 1792 96 
C 1267 115 1197 185 1197 665 
L 1197 2675 
L 1978 2675 
L 1978 2880 
z
" transform="scale(0.015625)"/>
      </defs>
      <use xlink:href="#NimbusRomNo9L-Regu-66" transform="scale(0.996264)"/>
     </g>
    </g>
   </g>
   <g id="matplotlib.axis_4">
    <g id="ytick_6">
     <g id="line2d_14"/>
    </g>
    <g id="ytick_7">
     <g id="line2d_15"/>
    </g>
    <g id="ytick_8">
     <g id="line2d_16"/>
    </g>
    <g id="ytick_9">
     <g id="line2d_17"/>
    </g>
   </g>
   <g id="line2d_18">
    <path d="M 258.263501 223.14768 
L 260.313088 223.126569 
L 262.362674 223.097666 
L 264.412261 223.058391 
L 266.461848 223.00542 
L 268.511435 222.934517 
L 270.561021 222.840327 
L 272.610608 222.716148 
L 274.660195 222.553678 
L 276.709782 222.342729 
L 278.759369 222.070932 
L 280.808955 221.723428 
L 282.858542 221.282559 
L 284.908129 220.727582 
L 286.957716 220.034412 
L 289.007302 219.175428 
L 291.056889 218.11937 
L 293.106476 216.831339 
L 295.156063 215.272954 
L 297.205649 213.402681 
L 299.255236 211.176365 
L 301.304823 208.547998 
L 303.35441 205.470731 
L 305.403997 201.898149 
L 307.453583 197.785796 
L 309.50317 193.092941 
L 311.552757 187.784546 
L 313.602344 181.833387 
L 315.65193 175.222263 
L 317.701517 167.946192 
L 319.751104 160.014514 
L 321.800691 151.452775 
L 323.850278 142.304281 
L 325.899864 132.631197 
L 327.949451 122.515093 
L 329.999038 112.05683 
L 332.048625 101.375723 
L 334.098211 90.607926 
L 336.147798 79.904041 
L 338.197385 69.425976 
L 340.246972 59.343123 
L 342.296559 49.827973 
L 344.346145 41.051316 
L 346.395732 33.177204 
L 348.445319 26.357881 
L 350.494906 20.728913 
L 352.544492 16.404703 
L 354.594079 13.474636 
L 356.643666 12 
L 358.693253 12.011858 
L 360.74284 13.50996 
L 362.792426 16.462751 
L 364.842013 20.808475 
L 366.8916 26.457326 
L 368.941187 33.29453 
L 370.990773 41.184222 
L 373.04036 49.973928 
L 375.089947 59.499451 
L 377.139534 69.589935 
L 379.189121 80.072902 
L 381.238707 90.779044 
L 383.288294 101.546606 
L 385.337881 112.225193 
L 387.387468 122.678902 
L 389.437054 132.788702 
L 391.486641 142.454032 
L 393.536228 151.593632 
L 395.585815 160.145643 
L 397.635402 168.067051 
L 399.684988 175.332583 
L 401.734575 181.93314 
L 403.784162 187.873915 
L 405.833749 193.172287 
L 407.883335 197.85562 
L 409.932922 201.95906 
L 411.982509 205.523412 
L 414.032096 208.593175 
L 416.081683 211.214784 
L 418.131269 213.435083 
L 420.180856 215.300058 
L 422.230443 216.853827 
L 424.28003 218.137878 
L 426.329616 219.19054 
L 428.379203 220.046652 
L 430.42879 220.737419 
L 432.478377 221.290403 
L 434.527964 221.729633 
L 436.57755 222.075803 
L 438.627137 222.346523 
L 440.676724 222.556611 
L 442.726311 222.718398 
L 444.775897 222.842039 
L 446.825484 222.935811 
L 448.875071 223.00639 
L 450.924658 223.059112 
L 452.974245 223.098199 
L 455.023831 223.12696 
L 457.073418 223.147964 
L 459.123005 223.163189 
L 461.172592 223.174142 
" clip-path="url(#pdac8906cda)" style="fill: none; stroke: #1f77b4; stroke-width: 1.5; stroke-linecap: square"/>
   </g>
   <g id="line2d_19">
    <path d="M 340.018819 223.2 
L 340.018819 1.44 
" clip-path="url(#pdac8906cda)" style="fill: none; stroke-dasharray: 5.55,2.4; stroke-dashoffset: 0; stroke: #000000; stroke-width: 1.5"/>
   </g>
   <g id="patch_9">
    <path d="M 248.118046 223.2 
L 248.118046 1.44 
" style="fill: none; stroke: #000000; stroke-width: 0.8; stroke-linejoin: miter; stroke-linecap: square"/>
   </g>
   <g id="patch_10">
    <path d="M 471.318046 223.2 
L 471.318046 1.44 
" style="fill: none; stroke: #000000; stroke-width: 0.8; stroke-linejoin: miter; stroke-linecap: square"/>
   </g>
   <g id="patch_11">
    <path d="M 248.118046 223.2 
L 471.318046 223.2 
" style="fill: none; stroke: #000000; stroke-width: 0.8; stroke-linejoin: miter; stroke-linecap: square"/>
   </g>
   <g id="patch_12">
    <path d="M 248.118046 1.44 
L 471.318046 1.44 
" style="fill: none; stroke: #000000; stroke-width: 0.8; stroke-linejoin: miter; stroke-linecap: square"/>
   </g>
  </g>
  <g id="axes_3">
   <g id="patch_13">
    <path d="M 471.318046 223.2 
L 694.518046 223.2 
L 694.518046 1.44 
L 471.318046 1.44 
z
" style="fill: #ffffff"/>
   </g>
   <g id="PolyCollection_3">
    <path d="M 569.595732 223.2 
L 569.595732 86.760067 
L 571.645319 76.06691 
L 573.694906 65.665569 
L 575.744492 55.730049 
L 577.794079 46.435696 
L 579.843666 37.954138 
L 581.893253 30.44807 
L 583.94284 24.066087 
L 585.992426 18.937806 
L 588.042013 15.169493 
L 590.0916 12.840401 
L 592.141187 12 
L 594.190773 12.666231 
L 596.24036 14.824868 
L 598.289947 18.430022 
L 600.339534 23.405766 
L 602.389121 29.648791 
L 604.438707 37.031971 
L 606.488294 45.408669 
L 608.537881 54.617559 
L 610.587468 64.487781 
L 612.637054 74.844155 
L 614.686641 85.512273 
L 614.686641 223.2 
L 614.686641 223.2 
L 612.637054 223.2 
L 610.587468 223.2 
L 608.537881 223.2 
L 606.488294 223.2 
L 604.438707 223.2 
L 602.389121 223.2 
L 600.339534 223.2 
L 598.289947 223.2 
L 596.24036 223.2 
L 594.190773 223.2 
L 592.141187 223.2 
L 590.0916 223.2 
L 588.042013 223.2 
L 585.992426 223.2 
L 583.94284 223.2 
L 581.893253 223.2 
L 579.843666 223.2 
L 577.794079 223.2 
L 575.744492 223.2 
L 573.694906 223.2 
L 571.645319 223.2 
L 569.595732 223.2 
z
" clip-path="url(#p08cc6da5dc)" style="fill: #1f77b4; fill-opacity: 0.3"/>
   </g>
   <g id="matplotlib.axis_5">
    <g id="xtick_6">
     <g id="line2d_20"/>
    </g>
    <g id="xtick_7">
     <g id="line2d_21"/>
    </g>
    <g id="xtick_8">
     <g id="line2d_22"/>
    </g>
    <g id="text_5">
     <!-- $\phi$ -->
     <g transform="translate(577.986542 242.804586) scale(0.18 -0.18)">
      <defs>
       <path id="rtxmi-1e" d="M 3360 1843 
C 3360 2310 3021 2707 2381 2790 
L 2758 4013 
L 2227 3929 
L 1939 2784 
C 934 2681 154 1849 154 902 
C 154 428 410 -45 1229 -90 
L 928 -1344 
L 1088 -1344 
L 1485 -84 
C 2534 0 3360 896 3360 1843 
z
M 2848 1894 
C 2848 806 2170 147 1542 89 
L 2317 2592 
C 2758 2432 2848 2054 2848 1894 
z
M 1894 2611 
L 1274 102 
C 845 224 691 614 691 883 
C 691 1868 1229 2521 1894 2611 
z
" transform="scale(0.015625)"/>
      </defs>
      <use xlink:href="#rtxmi-1e" transform="scale(0.996264)"/>
     </g>
    </g>
   </g>
   <g id="matplotlib.axis_6">
    <g id="ytick_10">
     <g id="line2d_23"/>
    </g>
    <g id="ytick_11">
     <g id="line2d_24"/>
    </g>
    <g id="ytick_12">
     <g id="line2d_25"/>
    </g>
    <g id="ytick_13">
     <g id="line2d_26"/>
    </g>
    <g id="ytick_14">
     <g id="line2d_27"/>
    </g>
   </g>
   <g id="line2d_28">
    <path d="M 481.463501 223.193838 
L 483.513088 223.190964 
L 485.562674 223.186844 
L 487.612261 223.180984 
L 489.661848 223.172707 
L 491.711435 223.161108 
L 493.761021 223.144973 
L 495.810608 223.1227 
L 497.860195 223.092184 
L 499.909782 223.050692 
L 501.959369 222.994705 
L 504.008955 222.919735 
L 506.058542 222.82011 
L 508.108129 222.68874 
L 510.157716 222.516839 
L 512.207302 222.293642 
L 514.256889 222.006086 
L 516.306476 221.638498 
L 518.356063 221.172278 
L 520.405649 220.58561 
L 522.455236 219.853208 
L 524.504823 218.946138 
L 526.55441 217.831731 
L 528.603997 216.47362 
L 530.653583 214.831939 
L 532.70317 212.863714 
L 534.752757 210.523468 
L 536.802344 207.764073 
L 538.85193 204.53787 
L 540.901517 200.798041 
L 542.951104 196.500259 
L 545.000691 191.604562 
L 547.050278 186.077435 
L 549.099864 179.894022 
L 551.149451 173.040409 
L 553.199038 165.515863 
L 555.248625 157.334941 
L 557.298211 148.529331 
L 559.347798 139.149312 
L 561.397385 129.264711 
L 563.446972 118.965246 
L 565.496559 108.360157 
L 567.546145 97.577073 
L 569.595732 86.760067 
L 571.645319 76.06691 
L 573.694906 65.665569 
L 575.744492 55.730049 
L 577.794079 46.435696 
L 579.843666 37.954138 
L 581.893253 30.44807 
L 583.94284 24.066087 
L 585.992426 18.937806 
L 588.042013 15.169493 
L 590.0916 12.840401 
L 592.141187 12 
L 594.190773 12.666231 
L 596.24036 14.824868 
L 598.289947 18.430022 
L 600.339534 23.405766 
L 602.389121 29.648791 
L 604.438707 37.031971 
L 606.488294 45.408669 
L 608.537881 54.617559 
L 610.587468 64.487781 
L 612.637054 74.844155 
L 614.686641 85.512273 
L 616.736228 96.323242 
L 618.785815 107.117918 
L 620.835402 117.750488 
L 622.884988 128.091303 
L 624.934575 138.028919 
L 626.984162 147.471324 
L 629.033749 156.346394 
L 631.083335 164.601624 
L 633.132922 172.203238 
L 635.182509 179.134785 
L 637.232096 185.39533 
L 639.281683 190.997374 
L 641.331269 195.964623 
L 643.380856 200.329705 
L 645.430443 204.131944 
L 647.48003 207.415264 
L 649.529616 210.22628 
L 651.579203 212.612632 
L 653.62879 214.621572 
L 655.678377 216.298814 
L 657.727964 217.68766 
L 659.77755 218.828358 
L 661.827137 219.757695 
L 663.876724 220.508772 
L 665.926311 221.110955 
L 667.975897 221.589942 
L 670.025484 221.967941 
L 672.075071 222.26391 
L 674.124658 222.493845 
L 676.174245 222.671094 
L 678.223831 222.806673 
L 680.273418 222.909581 
L 682.323005 222.987092 
L 684.372592 223.045027 
" clip-path="url(#p08cc6da5dc)" style="fill: none; stroke: #1f77b4; stroke-width: 1.5; stroke-linecap: square"/>
   </g>
   <g id="line2d_29">
    <path d="M 601.844474 223.2 
L 601.844474 1.44 
" clip-path="url(#p08cc6da5dc)" style="fill: none; stroke-dasharray: 5.55,2.4; stroke-dashoffset: 0; stroke: #000000; stroke-width: 1.5"/>
   </g>
   <g id="patch_14">
    <path d="M 471.318046 223.2 
L 471.318046 1.44 
" style="fill: none; stroke: #000000; stroke-width: 0.8; stroke-linejoin: miter; stroke-linecap: square"/>
   </g>
   <g id="patch_15">
    <path d="M 694.518046 223.2 
L 694.518046 1.44 
" style="fill: none; stroke: #000000; stroke-width: 0.8; stroke-linejoin: miter; stroke-linecap: square"/>
   </g>
   <g id="patch_16">
    <path d="M 471.318046 223.2 
L 694.518046 223.2 
" style="fill: none; stroke: #000000; stroke-width: 0.8; stroke-linejoin: miter; stroke-linecap: square"/>
   </g>
   <g id="patch_17">
    <path d="M 471.318046 1.44 
L 694.518046 1.44 
" style="fill: none; stroke: #000000; stroke-width: 0.8; stroke-linejoin: miter; stroke-linecap: square"/>
   </g>
  </g>
  <g id="axes_4">
   <g id="patch_18">
    <path d="M 694.518046 223.2 
L 917.718046 223.2 
L 917.718046 1.44 
L 694.518046 1.44 
z
" style="fill: #ffffff"/>
   </g>
   <g id="PolyCollection_4">
    <path d="M 786.646972 223.2 
L 786.646972 91.721892 
L 788.696559 80.077713 
L 790.746145 68.698437 
L 792.795732 57.801991 
L 794.845319 47.610126 
L 796.894906 38.341065 
L 798.944492 30.201819 
L 800.994079 23.380542 
L 803.043666 18.039322 
L 805.093253 14.30778 
L 807.14284 12.277848 
L 809.192426 12 
L 811.242013 13.481171 
L 813.2916 16.684467 
L 815.341187 21.53069 
L 817.390773 27.901598 
L 819.44036 35.644692 
L 821.489947 44.579287 
L 823.539534 54.503502 
L 825.589121 65.201812 
L 827.638707 76.452763 
L 829.688294 88.036462 
L 829.688294 223.2 
L 829.688294 223.2 
L 827.638707 223.2 
L 825.589121 223.2 
L 823.539534 223.2 
L 821.489947 223.2 
L 819.44036 223.2 
L 817.390773 223.2 
L 815.341187 223.2 
L 813.2916 223.2 
L 811.242013 223.2 
L 809.192426 223.2 
L 807.14284 223.2 
L 805.093253 223.2 
L 803.043666 223.2 
L 800.994079 223.2 
L 798.944492 223.2 
L 796.894906 223.2 
L 794.845319 223.2 
L 792.795732 223.2 
L 790.746145 223.2 
L 788.696559 223.2 
L 786.646972 223.2 
z
" clip-path="url(#p91e17310fe)" style="fill: #1f77b4; fill-opacity: 0.3"/>
   </g>
   <g id="matplotlib.axis_7">
    <g id="xtick_9">
     <g id="line2d_30"/>
    </g>
    <g id="xtick_10">
     <g id="line2d_31"/>
    </g>
    <g id="xtick_11">
     <g id="line2d_32"/>
    </g>
    <g id="text_6">
     <!-- B -->
     <g transform="translate(800.137475 242.804586) scale(0.18 -0.18)">
      <defs>
       <path id="NimbusRomNo9L-Regu-42" d="M 109 4224 
L 109 4102 
C 646 4070 723 4000 723 3528 
L 723 695 
C 723 223 640 140 109 121 
L 109 0 
L 2246 0 
C 2746 0 3200 134 3437 351 
C 3667 555 3795 842 3795 1148 
C 3795 1429 3680 1684 3482 1869 
C 3290 2041 3117 2118 2701 2220 
C 3034 2303 3168 2367 3322 2500 
C 3482 2641 3578 2877 3578 3138 
C 3578 3853 3008 4224 1901 4224 
L 109 4224 
z
M 1376 2080 
C 1997 2080 2291 2048 2522 1952 
C 2886 1799 3059 1544 3059 1142 
C 3059 798 2925 549 2669 402 
C 2464 287 2202 236 1779 236 
C 1466 236 1376 294 1376 498 
L 1376 2080 
z
M 1376 2335 
L 1376 3795 
C 1376 3929 1421 3987 1517 3987 
L 1798 3987 
C 2534 3987 2925 3680 2925 3113 
C 2925 2615 2586 2335 1984 2335 
L 1376 2335 
z
" transform="scale(0.015625)"/>
      </defs>
      <use xlink:href="#NimbusRomNo9L-Regu-42" transform="scale(0.996264)"/>
     </g>
    </g>
   </g>
   <g id="matplotlib.axis_8">
    <g id="ytick_15">
     <g id="line2d_33"/>
    </g>
    <g id="ytick_16">
     <g id="line2d_34"/>
    </g>
    <g id="ytick_17">
     <g id="line2d_35"/>
    </g>
    <g id="ytick_18">
     <g id="line2d_36"/>
    </g>
   </g>
   <g id="line2d_37">
    <path d="M 704.663501 223.195327 
L 706.713088 223.192895 
L 708.762674 223.189287 
L 710.812261 223.183981 
L 712.861848 223.176246 
L 714.911435 223.16507 
L 716.961021 223.149062 
L 719.010608 223.126337 
L 721.060195 223.094358 
L 723.109782 223.049757 
L 725.159369 222.988105 
L 727.208955 222.903639 
L 729.258542 222.788951 
L 731.308129 222.634625 
L 733.357716 222.428826 
L 735.407302 222.156867 
L 737.456889 221.800739 
L 739.506476 221.338643 
L 741.556063 220.744543 
L 743.605649 219.98777 
L 745.655236 219.032718 
L 747.704823 217.83869 
L 749.75441 216.359927 
L 751.803997 214.545891 
L 753.853583 212.341852 
L 755.90317 209.689826 
L 757.952757 206.529912 
L 760.002344 202.802043 
L 762.05193 198.448175 
L 764.101517 193.414866 
L 766.151104 187.656214 
L 768.200691 181.137061 
L 770.250278 173.836343 
L 772.299864 165.750425 
L 774.349451 156.896247 
L 776.399038 147.314082 
L 778.448625 137.069679 
L 780.498211 126.2556 
L 782.547798 114.99155 
L 784.597385 103.423556 
L 786.646972 91.721892 
L 788.696559 80.077713 
L 790.746145 68.698437 
L 792.795732 57.801991 
L 794.845319 47.610126 
L 796.894906 38.341065 
L 798.944492 30.201819 
L 800.994079 23.380542 
L 803.043666 18.039322 
L 805.093253 14.30778 
L 807.14284 12.277848 
L 809.192426 12 
L 811.242013 13.481171 
L 813.2916 16.684467 
L 815.341187 21.53069 
L 817.390773 27.901598 
L 819.44036 35.644692 
L 821.489947 44.579287 
L 823.539534 54.503502 
L 825.589121 65.201812 
L 827.638707 76.452763 
L 829.688294 88.036462 
L 831.737881 99.74151 
L 833.787468 111.371073 
L 835.837054 122.747871 
L 837.886641 133.71795 
L 839.936228 144.153164 
L 841.985815 153.95238 
L 844.035402 163.0415 
L 846.084988 171.372419 
L 848.134575 178.921116 
L 850.184162 185.685066 
L 852.233749 191.680197 
L 854.283335 196.937589 
L 856.332922 201.500113 
L 858.382509 205.419165 
L 860.432096 208.751638 
L 862.481683 211.557215 
L 864.531269 213.89606 
L 866.580856 215.826923 
L 868.630443 217.405681 
L 870.68003 218.684272 
L 872.729616 219.710003 
L 874.779203 220.525183 
L 876.82879 221.167012 
L 878.878377 221.667687 
L 880.927964 222.054667 
L 882.97755 222.351039 
L 885.027137 222.575955 
L 887.076724 222.7451 
L 889.126311 222.871158 
L 891.175897 222.964262 
L 893.225484 223.032411 
L 895.275071 223.08185 
L 897.324658 223.117398 
L 899.374245 223.142731 
L 901.423831 223.160625 
L 903.473418 223.173153 
L 905.523005 223.181847 
L 907.572592 223.187828 
" clip-path="url(#p91e17310fe)" style="fill: none; stroke: #1f77b4; stroke-width: 1.5; stroke-linecap: square"/>
   </g>
   <g id="line2d_38">
    <path d="M 804.755606 223.2 
L 804.755606 1.44 
" clip-path="url(#p91e17310fe)" style="fill: none; stroke-dasharray: 5.55,2.4; stroke-dashoffset: 0; stroke: #000000; stroke-width: 1.5"/>
   </g>
   <g id="patch_19">
    <path d="M 694.518046 223.2 
L 694.518046 1.44 
" style="fill: none; stroke: #000000; stroke-width: 0.8; stroke-linejoin: miter; stroke-linecap: square"/>
   </g>
   <g id="patch_20">
    <path d="M 917.718046 223.2 
L 917.718046 1.44 
" style="fill: none; stroke: #000000; stroke-width: 0.8; stroke-linejoin: miter; stroke-linecap: square"/>
   </g>
   <g id="patch_21">
    <path d="M 694.518046 223.2 
L 917.718046 223.2 
" style="fill: none; stroke: #000000; stroke-width: 0.8; stroke-linejoin: miter; stroke-linecap: square"/>
   </g>
   <g id="patch_22">
    <path d="M 694.518046 1.44 
L 917.718046 1.44 
" style="fill: none; stroke: #000000; stroke-width: 0.8; stroke-linejoin: miter; stroke-linecap: square"/>
   </g>
  </g>
 </g>
 <defs>
  <clipPath id="pe5a3b71a42">
   <rect x="24.918046" y="1.44" width="223.2" height="221.76"/>
  </clipPath>
  <clipPath id="pdac8906cda">
   <rect x="248.118046" y="1.44" width="223.2" height="221.76"/>
  </clipPath>
  <clipPath id="p08cc6da5dc">
   <rect x="471.318046" y="1.44" width="223.2" height="221.76"/>
  </clipPath>
  <clipPath id="p91e17310fe">
   <rect x="694.518046" y="1.44" width="223.2" height="221.76"/>
  </clipPath>
 </defs>
</svg>
