<?xml version="1.0" encoding="utf-8" standalone="no"?>
<!DOCTYPE svg PUBLIC "-//W3C//DTD SVG 1.1//EN"
  "http://www.w3.org/Graphics/SVG/1.1/DTD/svg11.dtd">
<svg xmlns:xlink="http://www.w3.org/1999/xlink" width="339.170445pt" height="332.797566pt" viewBox="0 0 339.170445 332.797566" xmlns="http://www.w3.org/2000/svg" version="1.1">
 <metadata>
  <rdf:RDF xmlns:dc="http://purl.org/dc/elements/1.1/" xmlns:cc="http://creativecommons.org/ns#" xmlns:rdf="http://www.w3.org/1999/02/22-rdf-syntax-ns#">
   <cc:Work>
    <dc:type rdf:resource="http://purl.org/dc/dcmitype/StillImage"/>
    <dc:date>2025-01-25T12:58:16.939711</dc:date>
    <dc:format>image/svg+xml</dc:format>
    <dc:creator>
     <cc:Agent>
      <dc:title>Matplotlib v3.9.2, https://matplotlib.org/</dc:title>
     </cc:Agent>
    </dc:creator>
   </cc:Work>
  </rdf:RDF>
 </metadata>
 <defs>
  <style type="text/css">*{stroke-linejoin: round; stroke-linecap: butt}</style>
 </defs>
 <g id="figure_1">
  <g id="patch_1">
   <path d="M 0 332.797566 
L 339.170445 332.797566 
L 339.170445 0 
L 0 0 
z
" style="fill: #ffffff"/>
  </g>
  <g id="axes_1">
   <g id="patch_2">
    <path d="M 55.850445 281.52 
L 334.850445 281.52 
L 334.850445 4.32 
L 55.850445 4.32 
z
" style="fill: #ffffff"/>
   </g>
   <g id="matplotlib.axis_1">
    <g id="xtick_1">
     <g id="line2d_1">
      <defs>
       <path id="m4ca950071c" d="M 0 0 
L 0 3.5 
" style="stroke: #000000; stroke-width: 0.8"/>
      </defs>
      <g>
       <use xlink:href="#m4ca950071c" x="99.929282" y="281.52" style="stroke: #000000; stroke-width: 0.8"/>
      </g>
     </g>
     <g id="text_1">
      <!-- $\mathdefault{10^{-2}}$ -->
      <g transform="translate(90.986819 295.244767) scale(0.1 -0.1)">
       <defs>
        <path id="NimbusRomNo9L-Regu-31" d="M 1862 4352 
L 710 3776 
L 710 3686 
C 787 3718 858 3743 883 3756 
C 998 3801 1107 3826 1171 3826 
C 1306 3826 1363 3731 1363 3525 
L 1363 599 
C 1363 386 1312 238 1210 179 
C 1114 121 1024 102 755 96 
L 755 0 
L 2522 0 
L 2522 96 
C 2016 102 1914 167 1914 477 
L 1914 4339 
L 1862 4352 
z
" transform="scale(0.015625)"/>
        <path id="NimbusRomNo9L-Regu-30" d="M 1626 4352 
C 1274 4352 1005 4243 768 4019 
C 397 3661 154 2924 154 2176 
C 154 1478 365 729 666 371 
C 902 89 1229 -64 1600 -64 
C 1926 -64 2202 44 2432 268 
C 2803 620 3046 1363 3046 2137 
C 3046 3449 2464 4352 1626 4352 
z
M 1606 4185 
C 2144 4185 2432 3462 2432 2124 
C 2432 787 2150 102 1600 102 
C 1050 102 768 787 768 2118 
C 768 3475 1056 4185 1606 4185 
z
" transform="scale(0.015625)"/>
        <path id="txsy-0" d="M 3674 1472 
L 3674 1830 
L 397 1830 
L 397 1472 
L 3674 1472 
z
" transform="scale(0.015625)"/>
        <path id="NimbusRomNo9L-Regu-32" d="M 3040 879 
L 2957 912 
C 2720 544 2637 486 2349 486 
L 819 486 
L 1894 1621 
C 2464 2221 2714 2711 2714 3214 
C 2714 3858 2195 4352 1530 4352 
C 1178 4352 845 4211 608 3955 
C 403 3736 307 3530 198 3072 
L 333 3039 
C 589 3671 819 3878 1261 3878 
C 1798 3878 2163 3510 2163 2969 
C 2163 2466 1869 1866 1331 1292 
L 192 76 
L 192 0 
L 2688 0 
L 3040 879 
z
" transform="scale(0.015625)"/>
       </defs>
       <use xlink:href="#NimbusRomNo9L-Regu-31" transform="scale(0.996264)"/>
       <use xlink:href="#NimbusRomNo9L-Regu-30" transform="translate(49.8132 0) scale(0.996264)"/>
       <use xlink:href="#txsy-0" transform="translate(99.626401 36.164371) scale(0.697382)"/>
       <use xlink:href="#NimbusRomNo9L-Regu-32" transform="translate(143.979851 36.164371) scale(0.697382)"/>
      </g>
     </g>
    </g>
    <g id="xtick_2">
     <g id="line2d_2">
      <g>
       <use xlink:href="#m4ca950071c" x="246.356011" y="281.52" style="stroke: #000000; stroke-width: 0.8"/>
      </g>
     </g>
     <g id="text_2">
      <!-- $\mathdefault{10^{-1}}$ -->
      <g transform="translate(237.413547 295.244767) scale(0.1 -0.1)">
       <use xlink:href="#NimbusRomNo9L-Regu-31" transform="scale(0.996264)"/>
       <use xlink:href="#NimbusRomNo9L-Regu-30" transform="translate(49.8132 0) scale(0.996264)"/>
       <use xlink:href="#txsy-0" transform="translate(99.626401 36.164371) scale(0.697382)"/>
       <use xlink:href="#NimbusRomNo9L-Regu-31" transform="translate(143.979851 36.164371) scale(0.697382)"/>
      </g>
     </g>
    </g>
    <g id="xtick_3">
     <g id="line2d_3">
      <defs>
       <path id="m40ef7f7437" d="M 0 0 
L 0 2 
" style="stroke: #000000; stroke-width: 0.6"/>
      </defs>
      <g>
       <use xlink:href="#m40ef7f7437" x="55.850445" y="281.52" style="stroke: #000000; stroke-width: 0.6"/>
      </g>
     </g>
    </g>
    <g id="xtick_4">
     <g id="line2d_4">
      <g>
       <use xlink:href="#m40ef7f7437" x="67.444696" y="281.52" style="stroke: #000000; stroke-width: 0.6"/>
      </g>
     </g>
    </g>
    <g id="xtick_5">
     <g id="line2d_5">
      <g>
       <use xlink:href="#m40ef7f7437" x="77.247495" y="281.52" style="stroke: #000000; stroke-width: 0.6"/>
      </g>
     </g>
    </g>
    <g id="xtick_6">
     <g id="line2d_6">
      <g>
       <use xlink:href="#m40ef7f7437" x="85.739066" y="281.52" style="stroke: #000000; stroke-width: 0.6"/>
      </g>
     </g>
    </g>
    <g id="xtick_7">
     <g id="line2d_7">
      <g>
       <use xlink:href="#m40ef7f7437" x="93.229163" y="281.52" style="stroke: #000000; stroke-width: 0.6"/>
      </g>
     </g>
    </g>
    <g id="xtick_8">
     <g id="line2d_8">
      <g>
       <use xlink:href="#m40ef7f7437" x="144.00812" y="281.52" style="stroke: #000000; stroke-width: 0.6"/>
      </g>
     </g>
    </g>
    <g id="xtick_9">
     <g id="line2d_9">
      <g>
       <use xlink:href="#m40ef7f7437" x="169.792587" y="281.52" style="stroke: #000000; stroke-width: 0.6"/>
      </g>
     </g>
    </g>
    <g id="xtick_10">
     <g id="line2d_10">
      <g>
       <use xlink:href="#m40ef7f7437" x="188.086957" y="281.52" style="stroke: #000000; stroke-width: 0.6"/>
      </g>
     </g>
    </g>
    <g id="xtick_11">
     <g id="line2d_11">
      <g>
       <use xlink:href="#m40ef7f7437" x="202.277173" y="281.52" style="stroke: #000000; stroke-width: 0.6"/>
      </g>
     </g>
    </g>
    <g id="xtick_12">
     <g id="line2d_12">
      <g>
       <use xlink:href="#m40ef7f7437" x="213.871424" y="281.52" style="stroke: #000000; stroke-width: 0.6"/>
      </g>
     </g>
    </g>
    <g id="xtick_13">
     <g id="line2d_13">
      <g>
       <use xlink:href="#m40ef7f7437" x="223.674223" y="281.52" style="stroke: #000000; stroke-width: 0.6"/>
      </g>
     </g>
    </g>
    <g id="xtick_14">
     <g id="line2d_14">
      <g>
       <use xlink:href="#m40ef7f7437" x="232.165794" y="281.52" style="stroke: #000000; stroke-width: 0.6"/>
      </g>
     </g>
    </g>
    <g id="xtick_15">
     <g id="line2d_15">
      <g>
       <use xlink:href="#m40ef7f7437" x="239.655891" y="281.52" style="stroke: #000000; stroke-width: 0.6"/>
      </g>
     </g>
    </g>
    <g id="xtick_16">
     <g id="line2d_16">
      <g>
       <use xlink:href="#m40ef7f7437" x="290.434848" y="281.52" style="stroke: #000000; stroke-width: 0.6"/>
      </g>
     </g>
    </g>
    <g id="xtick_17">
     <g id="line2d_17">
      <g>
       <use xlink:href="#m40ef7f7437" x="316.219315" y="281.52" style="stroke: #000000; stroke-width: 0.6"/>
      </g>
     </g>
    </g>
    <g id="xtick_18">
     <g id="line2d_18">
      <g>
       <use xlink:href="#m40ef7f7437" x="334.513685" y="281.52" style="stroke: #000000; stroke-width: 0.6"/>
      </g>
     </g>
    </g>
    <g id="text_3">
     <!-- $k$ [$h \ \mathrm{Mpc}^{-1}$] -->
     <g transform="translate(134.847245 323.097762) scale(0.25 -0.25)">
      <defs>
       <path id="CMSSI17-6b" d="M 2054 1686 
L 3270 2735 
L 2656 2735 
L 1286 1552 
L 1901 4416 
L 1427 4416 
L 480 0 
L 947 0 
L 1139 891 
L 1664 1342 
L 2278 0 
L 2822 0 
L 2054 1686 
z
" transform="scale(0.015625)"/>
       <path id="NimbusRomNo9L-Regu-5b" d="M 1914 -832 
L 1363 -832 
C 1152 -832 1050 -724 1050 -501 
L 1050 3783 
C 1050 3981 1133 4063 1338 4063 
L 1914 4063 
L 1914 4224 
L 563 4224 
L 563 -993 
L 1914 -993 
L 1914 -832 
z
" transform="scale(0.015625)"/>
       <path id="CMSSI17-68" d="M 3021 1891 
C 3046 2000 3053 2058 3053 2219 
C 3053 2623 2829 2816 2387 2816 
C 1850 2816 1478 2425 1459 2406 
L 1453 2406 
L 1894 4416 
L 1421 4416 
L 474 0 
L 960 0 
L 1254 1389 
C 1312 1666 1478 2425 2061 2425 
C 2400 2425 2547 2290 2547 2039 
C 2547 1949 2541 1923 2534 1891 
L 2131 0 
L 2618 0 
L 3021 1891 
z
" transform="scale(0.015625)"/>
       <path id="NimbusRomNo9L-Regu-4d" d="M 4314 3656 
L 4314 765 
C 4314 236 4237 153 3731 121 
L 3731 0 
L 5523 0 
L 5523 121 
C 5056 153 4966 242 4966 695 
L 4966 3528 
C 4966 3981 5050 4064 5523 4102 
L 5523 4224 
L 4250 4224 
L 2835 1002 
L 1357 4224 
L 90 4224 
L 90 4102 
C 614 4070 698 3994 698 3528 
L 698 938 
C 698 281 608 159 77 121 
L 77 0 
L 1581 0 
L 1581 121 
C 1088 147 979 293 979 938 
L 979 3509 
L 2586 0 
L 2675 0 
L 4314 3656 
z
" transform="scale(0.015625)"/>
       <path id="NimbusRomNo9L-Regu-70" d="M 58 2515 
C 115 2521 160 2521 218 2521 
C 435 2521 480 2457 480 2157 
L 480 -839 
C 480 -1172 410 -1242 32 -1280 
L 32 -1389 
L 1581 -1389 
L 1581 -1280 
C 1101 -1274 1018 -1203 1018 -798 
L 1018 211 
C 1242 0 1395 -64 1664 -64 
C 2419 -64 3008 652 3008 1580 
C 3008 2374 2560 2944 1939 2944 
C 1581 2944 1299 2783 1018 2438 
L 1018 2931 
L 979 2944 
C 634 2809 410 2726 58 2617 
L 58 2515 
z
M 1018 2137 
C 1018 2329 1376 2559 1670 2559 
C 2144 2559 2458 2073 2458 1331 
C 2458 620 2144 140 1683 140 
C 1382 140 1018 371 1018 563 
L 1018 2137 
z
" transform="scale(0.015625)"/>
       <path id="NimbusRomNo9L-Regu-63" d="M 2547 998 
C 2240 550 2010 396 1645 396 
C 1062 396 653 908 653 1644 
C 653 2303 1005 2758 1523 2758 
C 1754 2758 1837 2687 1901 2451 
L 1939 2310 
C 1990 2131 2106 2015 2240 2015 
C 2406 2015 2547 2137 2547 2284 
C 2547 2643 2099 2944 1562 2944 
C 1248 2944 922 2815 659 2585 
C 339 2303 160 1868 160 1363 
C 160 531 666 -64 1376 -64 
C 1664 -64 1920 38 2150 236 
C 2323 390 2445 563 2637 940 
L 2547 998 
z
" transform="scale(0.015625)"/>
       <path id="NimbusRomNo9L-Regu-5d" d="M 218 -832 
L 218 -993 
L 1568 -993 
L 1568 4224 
L 218 4224 
L 218 4063 
L 768 4063 
C 979 4063 1082 3955 1082 3732 
L 1082 -552 
C 1082 -750 992 -832 794 -832 
L 218 -832 
z
" transform="scale(0.015625)"/>
      </defs>
      <use xlink:href="#CMSSI17-6b" transform="scale(0.996264)"/>
      <use xlink:href="#NimbusRomNo9L-Regu-5b" transform="translate(78.584276 0) scale(0.996264)"/>
      <use xlink:href="#CMSSI17-68" transform="translate(111.759886 0) scale(0.996264)"/>
      <use xlink:href="#NimbusRomNo9L-Regu-4d" transform="translate(187.019913 0) scale(0.996264)"/>
      <use xlink:href="#NimbusRomNo9L-Regu-70" transform="translate(275.587777 0) scale(0.996264)"/>
      <use xlink:href="#NimbusRomNo9L-Regu-63" transform="translate(325.400977 0) scale(0.996264)"/>
      <use xlink:href="#txsy-0" transform="translate(369.635124 39.73112) scale(0.697382)"/>
      <use xlink:href="#NimbusRomNo9L-Regu-31" transform="translate(413.988574 39.73112) scale(0.697382)"/>
      <use xlink:href="#NimbusRomNo9L-Regu-5d" transform="translate(449.355794 0) scale(0.996264)"/>
     </g>
    </g>
   </g>
   <g id="matplotlib.axis_2">
    <g id="ytick_1">
     <g id="line2d_19">
      <defs>
       <path id="m395e279b12" d="M 0 0 
L -3.5 0 
" style="stroke: #000000; stroke-width: 0.8"/>
      </defs>
      <g>
       <use xlink:href="#m395e279b12" x="55.850445" y="195.910673" style="stroke: #000000; stroke-width: 0.8"/>
      </g>
     </g>
     <g id="text_4">
      <!-- $\mathdefault{10^{3}}$ -->
      <g transform="translate(35.400881 199.273057) scale(0.1 -0.1)">
       <defs>
        <path id="NimbusRomNo9L-Regu-33" d="M 979 2137 
C 1357 2137 1504 2124 1658 2067 
C 2054 1926 2304 1561 2304 1120 
C 2304 582 1939 166 1466 166 
C 1293 166 1165 211 928 364 
C 736 480 627 524 518 524 
C 371 524 275 435 275 300 
C 275 76 550 -64 998 -64 
C 1491 -64 1997 102 2298 364 
C 2598 627 2765 998 2765 1427 
C 2765 1753 2662 2054 2477 2252 
C 2349 2393 2227 2470 1946 2592 
C 2387 2892 2547 3129 2547 3475 
C 2547 3993 2138 4352 1549 4352 
C 1229 4352 947 4243 717 4038 
C 525 3865 429 3699 288 3315 
L 384 3289 
C 646 3757 934 3967 1338 3967 
C 1754 3967 2042 3686 2042 3283 
C 2042 3052 1946 2822 1786 2662 
C 1594 2470 1414 2374 979 2220 
L 979 2137 
z
" transform="scale(0.015625)"/>
       </defs>
       <use xlink:href="#NimbusRomNo9L-Regu-31" transform="scale(0.996264)"/>
       <use xlink:href="#NimbusRomNo9L-Regu-30" transform="translate(49.8132 0) scale(0.996264)"/>
       <use xlink:href="#NimbusRomNo9L-Regu-33" transform="translate(99.626401 36.164371) scale(0.697382)"/>
      </g>
     </g>
    </g>
    <g id="ytick_2">
     <g id="line2d_20">
      <g>
       <use xlink:href="#m395e279b12" x="55.850445" y="76.320474" style="stroke: #000000; stroke-width: 0.8"/>
      </g>
     </g>
     <g id="text_5">
      <!-- $\mathdefault{10^{4}}$ -->
      <g transform="translate(35.400881 79.682858) scale(0.1 -0.1)">
       <defs>
        <path id="NimbusRomNo9L-Regu-34" d="M 3021 1497 
L 2368 1497 
L 2368 4352 
L 2086 4352 
L 77 1497 
L 77 1088 
L 1875 1088 
L 1875 0 
L 2368 0 
L 2368 1088 
L 3021 1088 
L 3021 1497 
z
M 1869 1497 
L 333 1497 
L 1869 3697 
L 1869 1497 
z
" transform="scale(0.015625)"/>
       </defs>
       <use xlink:href="#NimbusRomNo9L-Regu-31" transform="scale(0.996264)"/>
       <use xlink:href="#NimbusRomNo9L-Regu-30" transform="translate(49.8132 0) scale(0.996264)"/>
       <use xlink:href="#NimbusRomNo9L-Regu-34" transform="translate(99.626401 36.164371) scale(0.697382)"/>
      </g>
     </g>
    </g>
    <g id="ytick_3">
     <g id="line2d_21">
      <defs>
       <path id="ma89908d1ab" d="M 0 0 
L -2 0 
" style="stroke: #000000; stroke-width: 0.6"/>
      </defs>
      <g>
       <use xlink:href="#ma89908d1ab" x="55.850445" y="279.500635" style="stroke: #000000; stroke-width: 0.6"/>
      </g>
     </g>
    </g>
    <g id="ytick_4">
     <g id="line2d_22">
      <g>
       <use xlink:href="#ma89908d1ab" x="55.850445" y="258.441846" style="stroke: #000000; stroke-width: 0.6"/>
      </g>
     </g>
    </g>
    <g id="ytick_5">
     <g id="line2d_23">
      <g>
       <use xlink:href="#ma89908d1ab" x="55.850445" y="243.500398" style="stroke: #000000; stroke-width: 0.6"/>
      </g>
     </g>
    </g>
    <g id="ytick_6">
     <g id="line2d_24">
      <g>
       <use xlink:href="#ma89908d1ab" x="55.850445" y="231.91091" style="stroke: #000000; stroke-width: 0.6"/>
      </g>
     </g>
    </g>
    <g id="ytick_7">
     <g id="line2d_25">
      <g>
       <use xlink:href="#ma89908d1ab" x="55.850445" y="222.441609" style="stroke: #000000; stroke-width: 0.6"/>
      </g>
     </g>
    </g>
    <g id="ytick_8">
     <g id="line2d_26">
      <g>
       <use xlink:href="#ma89908d1ab" x="55.850445" y="214.435429" style="stroke: #000000; stroke-width: 0.6"/>
      </g>
     </g>
    </g>
    <g id="ytick_9">
     <g id="line2d_27">
      <g>
       <use xlink:href="#ma89908d1ab" x="55.850445" y="207.500161" style="stroke: #000000; stroke-width: 0.6"/>
      </g>
     </g>
    </g>
    <g id="ytick_10">
     <g id="line2d_28">
      <g>
       <use xlink:href="#ma89908d1ab" x="55.850445" y="201.382821" style="stroke: #000000; stroke-width: 0.6"/>
      </g>
     </g>
    </g>
    <g id="ytick_11">
     <g id="line2d_29">
      <g>
       <use xlink:href="#ma89908d1ab" x="55.850445" y="159.910436" style="stroke: #000000; stroke-width: 0.6"/>
      </g>
     </g>
    </g>
    <g id="ytick_12">
     <g id="line2d_30">
      <g>
       <use xlink:href="#ma89908d1ab" x="55.850445" y="138.851647" style="stroke: #000000; stroke-width: 0.6"/>
      </g>
     </g>
    </g>
    <g id="ytick_13">
     <g id="line2d_31">
      <g>
       <use xlink:href="#ma89908d1ab" x="55.850445" y="123.910199" style="stroke: #000000; stroke-width: 0.6"/>
      </g>
     </g>
    </g>
    <g id="ytick_14">
     <g id="line2d_32">
      <g>
       <use xlink:href="#ma89908d1ab" x="55.850445" y="112.320711" style="stroke: #000000; stroke-width: 0.6"/>
      </g>
     </g>
    </g>
    <g id="ytick_15">
     <g id="line2d_33">
      <g>
       <use xlink:href="#ma89908d1ab" x="55.850445" y="102.85141" style="stroke: #000000; stroke-width: 0.6"/>
      </g>
     </g>
    </g>
    <g id="ytick_16">
     <g id="line2d_34">
      <g>
       <use xlink:href="#ma89908d1ab" x="55.850445" y="94.84523" style="stroke: #000000; stroke-width: 0.6"/>
      </g>
     </g>
    </g>
    <g id="ytick_17">
     <g id="line2d_35">
      <g>
       <use xlink:href="#ma89908d1ab" x="55.850445" y="87.909962" style="stroke: #000000; stroke-width: 0.6"/>
      </g>
     </g>
    </g>
    <g id="ytick_18">
     <g id="line2d_36">
      <g>
       <use xlink:href="#ma89908d1ab" x="55.850445" y="81.792622" style="stroke: #000000; stroke-width: 0.6"/>
      </g>
     </g>
    </g>
    <g id="ytick_19">
     <g id="line2d_37">
      <g>
       <use xlink:href="#ma89908d1ab" x="55.850445" y="40.320237" style="stroke: #000000; stroke-width: 0.6"/>
      </g>
     </g>
    </g>
    <g id="ytick_20">
     <g id="line2d_38">
      <g>
       <use xlink:href="#ma89908d1ab" x="55.850445" y="19.261448" style="stroke: #000000; stroke-width: 0.6"/>
      </g>
     </g>
    </g>
    <g id="ytick_21">
     <g id="line2d_39">
      <g>
       <use xlink:href="#ma89908d1ab" x="55.850445" y="4.32" style="stroke: #000000; stroke-width: 0.6"/>
      </g>
     </g>
    </g>
    <g id="text_6">
     <!-- $P(k)$ [$h^{-3}\mathrm{Mpc}^3$] -->
     <g transform="translate(26.021076 221.731763) rotate(-90) scale(0.25 -0.25)">
      <defs>
       <path id="CMSSI17-50" d="M 1498 1856 
L 2502 1856 
C 3373 1856 4198 2617 4198 3378 
C 4198 3912 3782 4416 3008 4416 
L 1517 4416 
L 570 0 
L 1107 0 
L 1498 1856 
z
M 1965 4057 
L 2797 4057 
C 3405 4057 3686 3743 3686 3340 
C 3686 2856 3270 2227 2400 2227 
L 1568 2227 
L 1965 4057 
z
" transform="scale(0.015625)"/>
       <path id="NimbusRomNo9L-Regu-28" d="M 1888 4352 
C 1414 4044 1222 3878 986 3583 
C 531 3027 307 2387 307 1638 
C 307 825 544 198 1107 -455 
C 1370 -762 1536 -903 1869 -1108 
L 1946 -1006 
C 1434 -602 1254 -378 1082 102 
C 928 530 858 1017 858 1657 
C 858 2329 941 2854 1114 3251 
C 1293 3647 1485 3878 1946 4249 
L 1888 4352 
z
" transform="scale(0.015625)"/>
       <path id="NimbusRomNo9L-Regu-29" d="M 243 -1108 
C 717 -801 909 -634 1146 -340 
C 1600 217 1824 857 1824 1606 
C 1824 2425 1587 3046 1024 3699 
C 762 4006 595 4147 262 4352 
L 186 4249 
C 698 3846 870 3622 1050 3142 
C 1203 2713 1274 2227 1274 1587 
C 1274 921 1190 390 1018 -1 
C 838 -404 646 -634 186 -1006 
L 243 -1108 
z
" transform="scale(0.015625)"/>
      </defs>
      <use xlink:href="#CMSSI17-50" transform="scale(0.996264)"/>
      <use xlink:href="#NimbusRomNo9L-Regu-28" transform="translate(68.162406 0) scale(0.996264)"/>
      <use xlink:href="#CMSSI17-6b" transform="translate(101.338015 0) scale(0.996264)"/>
      <use xlink:href="#NimbusRomNo9L-Regu-29" transform="translate(155.015691 0) scale(0.996264)"/>
      <use xlink:href="#NimbusRomNo9L-Regu-5b" transform="translate(213.097901 0) scale(0.996264)"/>
      <use xlink:href="#CMSSI17-68" transform="translate(246.273511 0) scale(0.996264)"/>
      <use xlink:href="#txsy-0" transform="translate(296.626937 36.164371) scale(0.697382)"/>
      <use xlink:href="#NimbusRomNo9L-Regu-33" transform="translate(340.980387 36.164371) scale(0.697382)"/>
      <use xlink:href="#NimbusRomNo9L-Regu-4d" transform="translate(376.347608 0) scale(0.996264)"/>
      <use xlink:href="#NimbusRomNo9L-Regu-70" transform="translate(464.915472 0) scale(0.996264)"/>
      <use xlink:href="#NimbusRomNo9L-Regu-63" transform="translate(514.728673 0) scale(0.996264)"/>
      <use xlink:href="#NimbusRomNo9L-Regu-33" transform="translate(558.962819 39.73112) scale(0.697382)"/>
      <use xlink:href="#NimbusRomNo9L-Regu-5d" transform="translate(594.330039 0) scale(0.996264)"/>
     </g>
    </g>
   </g>
   <g id="line2d_40">
    <path d="M 57.424406 50.234018 
L 126.455115 31.729174 
L 158.771866 29.63444 
L 180.096851 47.458084 
L 196.038447 60.106041 
L 208.774049 70.13158 
L 219.379736 76.208649 
L 228.466891 84.257042 
L 236.416393 94.656713 
L 243.481662 106.494661 
L 249.839865 115.96109 
L 255.619736 120.973114 
L 260.917768 125.683331 
L 265.808152 132.684818 
L 270.349164 139.357945 
L 274.58741 147.511891 
L 278.560752 153.446036 
L 282.300366 160.179494 
L 285.832228 164.645414 
L 289.178212 170.271624 
L 292.356909 175.384035 
L 295.384252 181.359939 
L 298.274003 187.529148 
L 301.038126 192.111404 
L 303.687091 197.736285 
L 306.23011 202.65925 
L 308.675334 208.267594 
L 311.030007 213.866098 
L 313.300596 218.208671 
L 315.492899 223.628537 
L 317.612137 228.906823 
L 319.663021 233.525685 
L 321.649825 238.839807 
L 323.576432 243.745413 
L 325.446382 248.143144 
L 327.262912 252.72476 
L 329.028991 256.921614 
L 330.747345 261.683245 
L 332.420485 265.815974 
L 334.050731 269.52545 
" clip-path="url(#p6cc26eaf9b)" style="fill: none; stroke: #1f77b4; stroke-width: 2.5; stroke-linecap: square"/>
   </g>
   <g id="patch_3">
    <path d="M 55.850445 281.52 
L 55.850445 4.32 
" style="fill: none; stroke: #000000; stroke-width: 0.5; stroke-linejoin: miter; stroke-linecap: square"/>
   </g>
   <g id="patch_4">
    <path d="M 334.850445 281.52 
L 334.850445 4.32 
" style="fill: none; stroke: #000000; stroke-width: 0.5; stroke-linejoin: miter; stroke-linecap: square"/>
   </g>
   <g id="patch_5">
    <path d="M 55.850445 281.52 
L 334.850445 281.52 
" style="fill: none; stroke: #000000; stroke-width: 0.5; stroke-linejoin: miter; stroke-linecap: square"/>
   </g>
   <g id="patch_6">
    <path d="M 55.850445 4.32 
L 334.850445 4.32 
" style="fill: none; stroke: #000000; stroke-width: 0.5; stroke-linejoin: miter; stroke-linecap: square"/>
   </g>
   <g id="legend_1">
    <g id="patch_7">
     <path d="M 73.350445 269.02 
L 181.848405 269.02 
Q 186.848405 269.02 186.848405 264.02 
L 186.848405 231.140196 
Q 186.848405 226.140196 181.848405 226.140196 
L 73.350445 226.140196 
Q 68.350445 226.140196 68.350445 231.140196 
L 68.350445 264.02 
Q 68.350445 269.02 73.350445 269.02 
z
" style="fill: #ffffff; opacity: 0.8; stroke: #cccccc; stroke-linejoin: miter"/>
    </g>
    <g id="line2d_41">
     <path d="M 78.350445 244.890196 
L 103.350445 244.890196 
L 128.350445 244.890196 
" style="fill: none; stroke: #1f77b4; stroke-width: 2.5; stroke-linecap: square"/>
    </g>
    <g id="text_7">
     <!-- $P_{\rm m}$ -->
     <g transform="translate(148.350445 253.640196) scale(0.25 -0.25)">
      <defs>
       <path id="NimbusRomNo9L-Regu-6d" d="M 122 2547 
C 205 2566 256 2572 326 2572 
C 493 2572 550 2470 550 2163 
L 550 544 
C 550 198 461 102 102 96 
L 102 0 
L 1523 0 
L 1523 96 
C 1184 108 1088 179 1088 428 
L 1088 2233 
C 1088 2246 1139 2310 1184 2355 
C 1344 2502 1619 2611 1843 2611 
C 2125 2611 2266 2387 2266 1939 
L 2266 550 
C 2266 192 2195 121 1830 96 
L 1830 0 
L 3264 0 
L 3264 96 
C 2899 102 2803 211 2803 608 
L 2803 2220 
C 2995 2496 3206 2611 3501 2611 
C 3866 2611 3981 2438 3981 1907 
L 3981 556 
C 3981 192 3930 140 3558 96 
L 3558 0 
L 4960 0 
L 4960 96 
L 4794 108 
C 4602 121 4518 236 4518 486 
L 4518 1804 
C 4518 2560 4269 2944 3776 2944 
C 3405 2944 3078 2777 2733 2406 
C 2618 2771 2400 2944 2054 2944 
C 1773 2944 1594 2854 1062 2451 
L 1062 2931 
L 1018 2944 
C 691 2822 474 2751 122 2655 
L 122 2547 
z
" transform="scale(0.015625)"/>
      </defs>
      <use xlink:href="#CMSSI17-50" transform="scale(0.996264)"/>
      <use xlink:href="#NimbusRomNo9L-Regu-6d" transform="translate(59.735586 -14.943915) scale(0.697382)"/>
     </g>
    </g>
   </g>
  </g>
 </g>
 <defs>
  <clipPath id="p6cc26eaf9b">
   <rect x="55.850445" y="4.32" width="279" height="277.2"/>
  </clipPath>
 </defs>
</svg>
