<?xml version="1.0" encoding="UTF-8" standalone="no"?>
<!-- Created with Inkscape (http://www.inkscape.org/) -->

<svg
   version="1.1"
   id="svg2"
   xml:space="preserve"
   width="619.20001"
   height="337.06134"
   viewBox="0 0 619.20001 337.06134"
   xmlns="http://www.w3.org/2000/svg"
   xmlns:svg="http://www.w3.org/2000/svg"><defs
     id="defs6"><clipPath
       clipPathUnits="userSpaceOnUse"
       id="clipPath222"><path
         d="M 45.364279,62.105035 H 249.06951 V 235.63647 H 45.364279 Z"
         id="path220" /></clipPath><clipPath
       clipPathUnits="userSpaceOnUse"
       id="clipPath232"><path
         d="M 45.364279,62.105035 H 249.06951 V 235.63647 H 45.364279 Z"
         id="path230" /></clipPath><clipPath
       clipPathUnits="userSpaceOnUse"
       id="clipPath242"><path
         d="M 45.364279,62.105035 H 249.06951 V 235.63647 H 45.364279 Z"
         id="path240" /></clipPath><clipPath
       clipPathUnits="userSpaceOnUse"
       id="clipPath252"><path
         d="M 45.364279,62.105035 H 249.06951 V 235.63647 H 45.364279 Z"
         id="path250" /></clipPath><clipPath
       clipPathUnits="userSpaceOnUse"
       id="clipPath262"><path
         d="M 45.364279,62.105035 H 249.06951 V 235.63647 H 45.364279 Z"
         id="path260" /></clipPath><clipPath
       clipPathUnits="userSpaceOnUse"
       id="clipPath272"><path
         d="M 45.364279,62.105035 H 249.06951 V 235.63647 H 45.364279 Z"
         id="path270" /></clipPath><clipPath
       clipPathUnits="userSpaceOnUse"
       id="clipPath282"><path
         d="M 45.364279,62.105035 H 249.06951 V 235.63647 H 45.364279 Z"
         id="path280" /></clipPath><clipPath
       clipPathUnits="userSpaceOnUse"
       id="clipPath292"><path
         d="M 45.364279,62.105035 H 249.06951 V 235.63647 H 45.364279 Z"
         id="path290" /></clipPath><clipPath
       clipPathUnits="userSpaceOnUse"
       id="clipPath302"><path
         d="M 45.364279,62.105035 H 249.06951 V 235.63647 H 45.364279 Z"
         id="path300" /></clipPath><clipPath
       clipPathUnits="userSpaceOnUse"
       id="clipPath312"><path
         d="M 45.364279,62.105035 H 249.06951 V 235.63647 H 45.364279 Z"
         id="path310" /></clipPath><clipPath
       clipPathUnits="userSpaceOnUse"
       id="clipPath322"><path
         d="M 45.364279,62.105035 H 249.06951 V 235.63647 H 45.364279 Z"
         id="path320" /></clipPath><clipPath
       clipPathUnits="userSpaceOnUse"
       id="clipPath430"><path
         d="M 259.25477,62.105035 H 462.96 V 235.63647 H 259.25477 Z"
         id="path428" /></clipPath><clipPath
       clipPathUnits="userSpaceOnUse"
       id="clipPath440"><path
         d="M 259.25477,62.105035 H 462.96 V 235.63647 H 259.25477 Z"
         id="path438" /></clipPath><clipPath
       clipPathUnits="userSpaceOnUse"
       id="clipPath450"><path
         d="M 259.25477,62.105035 H 462.96 V 235.63647 H 259.25477 Z"
         id="path448" /></clipPath><clipPath
       clipPathUnits="userSpaceOnUse"
       id="clipPath460"><path
         d="M 259.25477,62.105035 H 462.96 V 235.63647 H 259.25477 Z"
         id="path458" /></clipPath><clipPath
       clipPathUnits="userSpaceOnUse"
       id="clipPath470"><path
         d="M 259.25477,62.105035 H 462.96 V 235.63647 H 259.25477 Z"
         id="path468" /></clipPath><clipPath
       clipPathUnits="userSpaceOnUse"
       id="clipPath480"><path
         d="M 259.25477,62.105035 H 462.96 V 235.63647 H 259.25477 Z"
         id="path478" /></clipPath><clipPath
       clipPathUnits="userSpaceOnUse"
       id="clipPath490"><path
         d="M 259.25477,62.105035 H 462.96 V 235.63647 H 259.25477 Z"
         id="path488" /></clipPath><clipPath
       clipPathUnits="userSpaceOnUse"
       id="clipPath500"><path
         d="M 259.25477,62.105035 H 462.96 V 235.63647 H 259.25477 Z"
         id="path498" /></clipPath><clipPath
       clipPathUnits="userSpaceOnUse"
       id="clipPath510"><path
         d="M 259.25477,62.105035 H 462.96 V 235.63647 H 259.25477 Z"
         id="path508" /></clipPath><clipPath
       clipPathUnits="userSpaceOnUse"
       id="clipPath520"><path
         d="M 259.25477,62.105035 H 462.96 V 235.63647 H 259.25477 Z"
         id="path518" /></clipPath><clipPath
       clipPathUnits="userSpaceOnUse"
       id="clipPath530"><path
         d="M 259.25477,62.105035 H 462.96 V 235.63647 H 259.25477 Z"
         id="path528" /></clipPath></defs><g
     id="g8"
     transform="matrix(1.3333333,0,0,-1.3333333,0,337.06133)"><path
       d="M 0,0 H 464.4 V 252.796 H 0 Z"
       style="fill:#ffffff;fill-opacity:1;fill-rule:nonzero;stroke:none"
       id="path10" /><path
       d="M 45.364279,62.105035 H 249.06951 V 235.63647 H 45.364279 Z"
       style="fill:#ffffff;fill-opacity:1;fill-rule:nonzero;stroke:none"
       id="path12" /><path
       d="m 170.17486,62.105035 v -3.5"
       style="fill:#000000;fill-opacity:1;fill-rule:nonzero;stroke:#000000;stroke-width:0.8;stroke-linecap:butt;stroke-linejoin:round;stroke-miterlimit:10;stroke-dasharray:none;stroke-opacity:1"
       id="path14" /><text
       transform="matrix(1,0,0,-1,161.2324,48.380268)"
       style="font-variant:normal;font-size:9.96264px;font-family:'Nimbus Roman No9 L';-inkscape-font-specification:NimbusRomNo9L-Regu;writing-mode:lr-tb;fill:#000000;fill-opacity:1;fill-rule:nonzero;stroke:none"
       id="text18"><tspan
         x="0 4.9813199"
         y="0"
         id="tspan16">10</tspan></text><text
       transform="matrix(1,0,0,-1,171.19504,51.996696)"
       style="font-variant:normal;font-weight:normal;font-size:6.97385px;font-family:txsy;-inkscape-font-specification:txsy;writing-mode:lr-tb;fill:#000000;fill-opacity:1;fill-rule:nonzero;stroke:none"
       id="text22"><tspan
         x="0"
         y="0"
         id="tspan20">−</tspan></text><text
       transform="matrix(1,0,0,-1,175.6304,51.996696)"
       style="font-variant:normal;font-size:6.97385px;font-family:'Nimbus Roman No9 L';-inkscape-font-specification:NimbusRomNo9L-Regu;writing-mode:lr-tb;fill:#000000;fill-opacity:1;fill-rule:nonzero;stroke:none"
       id="text26"><tspan
         x="0"
         y="0"
         id="tspan24">1</tspan></text><path
       d="m 75.434335,62.105035 v -2"
       style="fill:#000000;fill-opacity:1;fill-rule:nonzero;stroke:#000000;stroke-width:0.6;stroke-linecap:butt;stroke-linejoin:round;stroke-miterlimit:10;stroke-dasharray:none;stroke-opacity:1"
       id="path28" /><path
       d="m 99.302282,62.105035 v -2"
       style="fill:#000000;fill-opacity:1;fill-rule:nonzero;stroke:#000000;stroke-width:0.6;stroke-linecap:butt;stroke-linejoin:round;stroke-miterlimit:10;stroke-dasharray:none;stroke-opacity:1"
       id="path30" /><path
       d="m 116.23686,62.105035 v -2"
       style="fill:#000000;fill-opacity:1;fill-rule:nonzero;stroke:#000000;stroke-width:0.6;stroke-linecap:butt;stroke-linejoin:round;stroke-miterlimit:10;stroke-dasharray:none;stroke-opacity:1"
       id="path32" /><path
       d="m 129.37234,62.105035 v -2"
       style="fill:#000000;fill-opacity:1;fill-rule:nonzero;stroke:#000000;stroke-width:0.6;stroke-linecap:butt;stroke-linejoin:round;stroke-miterlimit:10;stroke-dasharray:none;stroke-opacity:1"
       id="path34" /><path
       d="m 140.10481,62.105035 v -2"
       style="fill:#000000;fill-opacity:1;fill-rule:nonzero;stroke:#000000;stroke-width:0.6;stroke-linecap:butt;stroke-linejoin:round;stroke-miterlimit:10;stroke-dasharray:none;stroke-opacity:1"
       id="path36" /><path
       d="m 149.17898,62.105035 v -2"
       style="fill:#000000;fill-opacity:1;fill-rule:nonzero;stroke:#000000;stroke-width:0.6;stroke-linecap:butt;stroke-linejoin:round;stroke-miterlimit:10;stroke-dasharray:none;stroke-opacity:1"
       id="path38" /><path
       d="m 157.03938,62.105035 v -2"
       style="fill:#000000;fill-opacity:1;fill-rule:nonzero;stroke:#000000;stroke-width:0.6;stroke-linecap:butt;stroke-linejoin:round;stroke-miterlimit:10;stroke-dasharray:none;stroke-opacity:1"
       id="path40" /><path
       d="m 163.97275,62.105035 v -2"
       style="fill:#000000;fill-opacity:1;fill-rule:nonzero;stroke:#000000;stroke-width:0.6;stroke-linecap:butt;stroke-linejoin:round;stroke-miterlimit:10;stroke-dasharray:none;stroke-opacity:1"
       id="path42" /><path
       d="m 210.97739,62.105035 v -2"
       style="fill:#000000;fill-opacity:1;fill-rule:nonzero;stroke:#000000;stroke-width:0.6;stroke-linecap:butt;stroke-linejoin:round;stroke-miterlimit:10;stroke-dasharray:none;stroke-opacity:1"
       id="path44" /><path
       d="m 234.84533,62.105035 v -2"
       style="fill:#000000;fill-opacity:1;fill-rule:nonzero;stroke:#000000;stroke-width:0.6;stroke-linecap:butt;stroke-linejoin:round;stroke-miterlimit:10;stroke-dasharray:none;stroke-opacity:1"
       id="path46" /><text
       transform="matrix(1,0,0,-1,122.55491,33.547919)"
       style="font-style:italic;font-variant:normal;font-weight:normal;font-size:9.96264px;font-family:'Computer Modern';-inkscape-font-specification:CMSSI10;writing-mode:lr-tb;fill:#000000;fill-opacity:1;fill-rule:nonzero;stroke:none"
       id="text50"><tspan
         x="0"
         y="0"
         id="tspan48">k</tspan></text><text
       transform="matrix(1,0,0,-1,130.74667,33.547919)"
       style="font-variant:normal;font-size:9.96264px;font-family:'Nimbus Roman No9 L';-inkscape-font-specification:NimbusRomNo9L-Regu;writing-mode:lr-tb;fill:#000000;fill-opacity:1;fill-rule:nonzero;stroke:none"
       id="text54"><tspan
         x="0"
         y="0"
         id="tspan52">[</tspan></text><text
       transform="matrix(1,0,0,-1,134.06423,33.547919)"
       style="font-style:italic;font-variant:normal;font-weight:normal;font-size:9.96264px;font-family:'Computer Modern';-inkscape-font-specification:CMSSI10;writing-mode:lr-tb;fill:#000000;fill-opacity:1;fill-rule:nonzero;stroke:none"
       id="text58"><tspan
         x="0"
         y="0"
         id="tspan56">h</tspan></text><text
       transform="matrix(1,0,0,-1,141.87937,33.547919)"
       style="font-variant:normal;font-size:9.96264px;font-family:'Nimbus Roman No9 L';-inkscape-font-specification:NimbusRomNo9L-Regu;writing-mode:lr-tb;fill:#000000;fill-opacity:1;fill-rule:nonzero;stroke:none"
       id="text62"><tspan
         x="0 8.8468246 13.828144"
         y="0"
         id="tspan60">Mpc</tspan></text><text
       transform="matrix(1,0,0,-1,160.14089,37.521011)"
       style="font-variant:normal;font-weight:normal;font-size:6.97385px;font-family:txsy;-inkscape-font-specification:txsy;writing-mode:lr-tb;fill:#000000;fill-opacity:1;fill-rule:nonzero;stroke:none"
       id="text66"><tspan
         x="0"
         y="0"
         id="tspan64">−</tspan></text><text
       transform="matrix(1,0,0,-1,164.57626,37.521011)"
       style="font-variant:normal;font-size:6.97385px;font-family:'Nimbus Roman No9 L';-inkscape-font-specification:NimbusRomNo9L-Regu;writing-mode:lr-tb;fill:#000000;fill-opacity:1;fill-rule:nonzero;stroke:none"
       id="text70"><tspan
         x="0"
         y="0"
         id="tspan68">1</tspan></text><text
       transform="matrix(1,0,0,-1,168.56131,33.547919)"
       style="font-variant:normal;font-size:9.96264px;font-family:'Nimbus Roman No9 L';-inkscape-font-specification:NimbusRomNo9L-Regu;writing-mode:lr-tb;fill:#000000;fill-opacity:1;fill-rule:nonzero;stroke:none"
       id="text74"><tspan
         x="0"
         y="0"
         id="tspan72">]</tspan></text><path
       d="m 45.364279,70.114178 h -3.5"
       style="fill:#000000;fill-opacity:1;fill-rule:nonzero;stroke:#000000;stroke-width:0.8;stroke-linecap:butt;stroke-linejoin:round;stroke-miterlimit:10;stroke-dasharray:none;stroke-opacity:1"
       id="path76" /><text
       transform="matrix(1,0,0,-1,14.316686,66.751794)"
       style="font-variant:normal;font-weight:normal;font-size:9.96264px;font-family:txsy;-inkscape-font-specification:txsy;writing-mode:lr-tb;fill:#000000;fill-opacity:1;fill-rule:nonzero;stroke:none"
       id="text80"><tspan
         x="0"
         y="0"
         id="tspan78">−</tspan></text><text
       transform="matrix(1,0,0,-1,20.65291,66.751794)"
       style="font-variant:normal;font-size:9.96264px;font-family:'Nimbus Roman No9 L';-inkscape-font-specification:NimbusRomNo9L-Regu;writing-mode:lr-tb;fill:#000000;fill-opacity:1;fill-rule:nonzero;stroke:none"
       id="text84"><tspan
         x="0"
         y="0"
         id="tspan82">0</tspan></text><text
       transform="matrix(1,0,0,-1,25.63423,66.751794)"
       style="font-variant:normal;font-weight:normal;font-size:9.96264px;font-family:'Computer Modern';-inkscape-font-specification:CMSS10;writing-mode:lr-tb;fill:#000000;fill-opacity:1;fill-rule:nonzero;stroke:none"
       id="text88"><tspan
         x="0"
         y="0"
         id="tspan86">.</tspan></text><text
       transform="matrix(1,0,0,-1,28.401639,66.751794)"
       style="font-variant:normal;font-size:9.96264px;font-family:'Nimbus Roman No9 L';-inkscape-font-specification:NimbusRomNo9L-Regu;writing-mode:lr-tb;fill:#000000;fill-opacity:1;fill-rule:nonzero;stroke:none"
       id="text92"><tspan
         x="0 4.9813199"
         y="0"
         id="tspan90">75</tspan></text><path
       d="m 45.364279,92.361797 h -3.5"
       style="fill:#000000;fill-opacity:1;fill-rule:nonzero;stroke:#000000;stroke-width:0.8;stroke-linecap:butt;stroke-linejoin:round;stroke-miterlimit:10;stroke-dasharray:none;stroke-opacity:1"
       id="path94" /><text
       transform="matrix(1,0,0,-1,14.316686,88.999414)"
       style="font-variant:normal;font-weight:normal;font-size:9.96264px;font-family:txsy;-inkscape-font-specification:txsy;writing-mode:lr-tb;fill:#000000;fill-opacity:1;fill-rule:nonzero;stroke:none"
       id="text98"><tspan
         x="0"
         y="0"
         id="tspan96">−</tspan></text><text
       transform="matrix(1,0,0,-1,20.65291,88.999414)"
       style="font-variant:normal;font-size:9.96264px;font-family:'Nimbus Roman No9 L';-inkscape-font-specification:NimbusRomNo9L-Regu;writing-mode:lr-tb;fill:#000000;fill-opacity:1;fill-rule:nonzero;stroke:none"
       id="text102"><tspan
         x="0"
         y="0"
         id="tspan100">0</tspan></text><text
       transform="matrix(1,0,0,-1,25.63423,88.999414)"
       style="font-variant:normal;font-weight:normal;font-size:9.96264px;font-family:'Computer Modern';-inkscape-font-specification:CMSS10;writing-mode:lr-tb;fill:#000000;fill-opacity:1;fill-rule:nonzero;stroke:none"
       id="text106"><tspan
         x="0"
         y="0"
         id="tspan104">.</tspan></text><text
       transform="matrix(1,0,0,-1,28.401639,88.999414)"
       style="font-variant:normal;font-size:9.96264px;font-family:'Nimbus Roman No9 L';-inkscape-font-specification:NimbusRomNo9L-Regu;writing-mode:lr-tb;fill:#000000;fill-opacity:1;fill-rule:nonzero;stroke:none"
       id="text110"><tspan
         x="0 4.9813199"
         y="0"
         id="tspan108">50</tspan></text><path
       d="m 45.364279,114.60942 h -3.5"
       style="fill:#000000;fill-opacity:1;fill-rule:nonzero;stroke:#000000;stroke-width:0.8;stroke-linecap:butt;stroke-linejoin:round;stroke-miterlimit:10;stroke-dasharray:none;stroke-opacity:1"
       id="path112" /><text
       transform="matrix(1,0,0,-1,14.316686,111.24703)"
       style="font-variant:normal;font-weight:normal;font-size:9.96264px;font-family:txsy;-inkscape-font-specification:txsy;writing-mode:lr-tb;fill:#000000;fill-opacity:1;fill-rule:nonzero;stroke:none"
       id="text116"><tspan
         x="0"
         y="0"
         id="tspan114">−</tspan></text><text
       transform="matrix(1,0,0,-1,20.65291,111.24703)"
       style="font-variant:normal;font-size:9.96264px;font-family:'Nimbus Roman No9 L';-inkscape-font-specification:NimbusRomNo9L-Regu;writing-mode:lr-tb;fill:#000000;fill-opacity:1;fill-rule:nonzero;stroke:none"
       id="text120"><tspan
         x="0"
         y="0"
         id="tspan118">0</tspan></text><text
       transform="matrix(1,0,0,-1,25.63423,111.24703)"
       style="font-variant:normal;font-weight:normal;font-size:9.96264px;font-family:'Computer Modern';-inkscape-font-specification:CMSS10;writing-mode:lr-tb;fill:#000000;fill-opacity:1;fill-rule:nonzero;stroke:none"
       id="text124"><tspan
         x="0"
         y="0"
         id="tspan122">.</tspan></text><text
       transform="matrix(1,0,0,-1,28.401639,111.24703)"
       style="font-variant:normal;font-size:9.96264px;font-family:'Nimbus Roman No9 L';-inkscape-font-specification:NimbusRomNo9L-Regu;writing-mode:lr-tb;fill:#000000;fill-opacity:1;fill-rule:nonzero;stroke:none"
       id="text128"><tspan
         x="0 4.9813199"
         y="0"
         id="tspan126">25</tspan></text><path
       d="m 45.364279,136.85704 h -3.5"
       style="fill:#000000;fill-opacity:1;fill-rule:nonzero;stroke:#000000;stroke-width:0.8;stroke-linecap:butt;stroke-linejoin:round;stroke-miterlimit:10;stroke-dasharray:none;stroke-opacity:1"
       id="path130" /><text
       transform="matrix(1,0,0,-1,20.65291,133.49465)"
       style="font-variant:normal;font-size:9.96264px;font-family:'Nimbus Roman No9 L';-inkscape-font-specification:NimbusRomNo9L-Regu;writing-mode:lr-tb;fill:#000000;fill-opacity:1;fill-rule:nonzero;stroke:none"
       id="text134"><tspan
         x="0"
         y="0"
         id="tspan132">0</tspan></text><text
       transform="matrix(1,0,0,-1,25.63423,133.49465)"
       style="font-variant:normal;font-weight:normal;font-size:9.96264px;font-family:'Computer Modern';-inkscape-font-specification:CMSS10;writing-mode:lr-tb;fill:#000000;fill-opacity:1;fill-rule:nonzero;stroke:none"
       id="text138"><tspan
         x="0"
         y="0"
         id="tspan136">.</tspan></text><text
       transform="matrix(1,0,0,-1,28.401639,133.49465)"
       style="font-variant:normal;font-size:9.96264px;font-family:'Nimbus Roman No9 L';-inkscape-font-specification:NimbusRomNo9L-Regu;writing-mode:lr-tb;fill:#000000;fill-opacity:1;fill-rule:nonzero;stroke:none"
       id="text142"><tspan
         x="0 4.9813199"
         y="0"
         id="tspan140">00</tspan></text><path
       d="m 45.364279,159.10466 h -3.5"
       style="fill:#000000;fill-opacity:1;fill-rule:nonzero;stroke:#000000;stroke-width:0.8;stroke-linecap:butt;stroke-linejoin:round;stroke-miterlimit:10;stroke-dasharray:none;stroke-opacity:1"
       id="path144" /><text
       transform="matrix(1,0,0,-1,20.65291,155.74227)"
       style="font-variant:normal;font-size:9.96264px;font-family:'Nimbus Roman No9 L';-inkscape-font-specification:NimbusRomNo9L-Regu;writing-mode:lr-tb;fill:#000000;fill-opacity:1;fill-rule:nonzero;stroke:none"
       id="text148"><tspan
         x="0"
         y="0"
         id="tspan146">0</tspan></text><text
       transform="matrix(1,0,0,-1,25.63423,155.74227)"
       style="font-variant:normal;font-weight:normal;font-size:9.96264px;font-family:'Computer Modern';-inkscape-font-specification:CMSS10;writing-mode:lr-tb;fill:#000000;fill-opacity:1;fill-rule:nonzero;stroke:none"
       id="text152"><tspan
         x="0"
         y="0"
         id="tspan150">.</tspan></text><text
       transform="matrix(1,0,0,-1,28.401639,155.74227)"
       style="font-variant:normal;font-size:9.96264px;font-family:'Nimbus Roman No9 L';-inkscape-font-specification:NimbusRomNo9L-Regu;writing-mode:lr-tb;fill:#000000;fill-opacity:1;fill-rule:nonzero;stroke:none"
       id="text156"><tspan
         x="0 4.9813199"
         y="0"
         id="tspan154">25</tspan></text><path
       d="m 45.364279,181.35228 h -3.5"
       style="fill:#000000;fill-opacity:1;fill-rule:nonzero;stroke:#000000;stroke-width:0.8;stroke-linecap:butt;stroke-linejoin:round;stroke-miterlimit:10;stroke-dasharray:none;stroke-opacity:1"
       id="path158" /><text
       transform="matrix(1,0,0,-1,20.65291,177.98989)"
       style="font-variant:normal;font-size:9.96264px;font-family:'Nimbus Roman No9 L';-inkscape-font-specification:NimbusRomNo9L-Regu;writing-mode:lr-tb;fill:#000000;fill-opacity:1;fill-rule:nonzero;stroke:none"
       id="text162"><tspan
         x="0"
         y="0"
         id="tspan160">0</tspan></text><text
       transform="matrix(1,0,0,-1,25.63423,177.98989)"
       style="font-variant:normal;font-weight:normal;font-size:9.96264px;font-family:'Computer Modern';-inkscape-font-specification:CMSS10;writing-mode:lr-tb;fill:#000000;fill-opacity:1;fill-rule:nonzero;stroke:none"
       id="text166"><tspan
         x="0"
         y="0"
         id="tspan164">.</tspan></text><text
       transform="matrix(1,0,0,-1,28.401639,177.98989)"
       style="font-variant:normal;font-size:9.96264px;font-family:'Nimbus Roman No9 L';-inkscape-font-specification:NimbusRomNo9L-Regu;writing-mode:lr-tb;fill:#000000;fill-opacity:1;fill-rule:nonzero;stroke:none"
       id="text170"><tspan
         x="0 4.9813199"
         y="0"
         id="tspan168">50</tspan></text><path
       d="m 45.364279,203.59989 h -3.5"
       style="fill:#000000;fill-opacity:1;fill-rule:nonzero;stroke:#000000;stroke-width:0.8;stroke-linecap:butt;stroke-linejoin:round;stroke-miterlimit:10;stroke-dasharray:none;stroke-opacity:1"
       id="path172" /><text
       transform="matrix(1,0,0,-1,20.65291,200.23751)"
       style="font-variant:normal;font-size:9.96264px;font-family:'Nimbus Roman No9 L';-inkscape-font-specification:NimbusRomNo9L-Regu;writing-mode:lr-tb;fill:#000000;fill-opacity:1;fill-rule:nonzero;stroke:none"
       id="text176"><tspan
         x="0"
         y="0"
         id="tspan174">0</tspan></text><text
       transform="matrix(1,0,0,-1,25.63423,200.23751)"
       style="font-variant:normal;font-weight:normal;font-size:9.96264px;font-family:'Computer Modern';-inkscape-font-specification:CMSS10;writing-mode:lr-tb;fill:#000000;fill-opacity:1;fill-rule:nonzero;stroke:none"
       id="text180"><tspan
         x="0"
         y="0"
         id="tspan178">.</tspan></text><text
       transform="matrix(1,0,0,-1,28.401639,200.23751)"
       style="font-variant:normal;font-size:9.96264px;font-family:'Nimbus Roman No9 L';-inkscape-font-specification:NimbusRomNo9L-Regu;writing-mode:lr-tb;fill:#000000;fill-opacity:1;fill-rule:nonzero;stroke:none"
       id="text184"><tspan
         x="0 4.9813199"
         y="0"
         id="tspan182">75</tspan></text><path
       d="m 45.364279,225.84751 h -3.5"
       style="fill:#000000;fill-opacity:1;fill-rule:nonzero;stroke:#000000;stroke-width:0.8;stroke-linecap:butt;stroke-linejoin:round;stroke-miterlimit:10;stroke-dasharray:none;stroke-opacity:1"
       id="path186" /><text
       transform="matrix(1,0,0,-1,20.65291,222.48513)"
       style="font-variant:normal;font-size:9.96264px;font-family:'Nimbus Roman No9 L';-inkscape-font-specification:NimbusRomNo9L-Regu;writing-mode:lr-tb;fill:#000000;fill-opacity:1;fill-rule:nonzero;stroke:none"
       id="text190"><tspan
         x="0"
         y="0"
         id="tspan188">1</tspan></text><text
       transform="matrix(1,0,0,-1,25.63423,222.48513)"
       style="font-variant:normal;font-weight:normal;font-size:9.96264px;font-family:'Computer Modern';-inkscape-font-specification:CMSS10;writing-mode:lr-tb;fill:#000000;fill-opacity:1;fill-rule:nonzero;stroke:none"
       id="text194"><tspan
         x="0"
         y="0"
         id="tspan192">.</tspan></text><text
       transform="matrix(1,0,0,-1,28.401639,222.48513)"
       style="font-variant:normal;font-size:9.96264px;font-family:'Nimbus Roman No9 L';-inkscape-font-specification:NimbusRomNo9L-Regu;writing-mode:lr-tb;fill:#000000;fill-opacity:1;fill-rule:nonzero;stroke:none"
       id="text198"><tspan
         x="0 4.9813199"
         y="0"
         id="tspan196">00</tspan></text><text
       transform="matrix(0,1,1,0,8.1647669,140.46092)"
       style="font-style:italic;font-variant:normal;font-weight:normal;font-size:9.96264px;font-family:'Computer Modern';-inkscape-font-specification:CMSSI10;writing-mode:lr-tb;fill:#000000;fill-opacity:1;fill-rule:nonzero;stroke:none"
       id="text202"><tspan
         x="0"
         y="0"
         id="tspan200">r</tspan></text><text
       transform="matrix(0,1,1,0,8.1647669,144.94437)"
       style="font-variant:normal;font-size:9.96264px;font-family:'Nimbus Roman No9 L';-inkscape-font-specification:NimbusRomNo9L-Regu;writing-mode:lr-tb;fill:#000000;fill-opacity:1;fill-rule:nonzero;stroke:none"
       id="text206"><tspan
         x="0"
         y="0"
         id="tspan204">(</tspan></text><text
       transform="matrix(0,1,1,0,8.1647669,148.26193)"
       style="font-style:italic;font-variant:normal;font-weight:normal;font-size:9.96264px;font-family:'Computer Modern';-inkscape-font-specification:CMSSI10;writing-mode:lr-tb;fill:#000000;fill-opacity:1;fill-rule:nonzero;stroke:none"
       id="text210"><tspan
         x="0"
         y="0"
         id="tspan208">k</tspan></text><text
       transform="matrix(0,1,1,0,8.1647669,153.96302)"
       style="font-variant:normal;font-size:9.96264px;font-family:'Nimbus Roman No9 L';-inkscape-font-specification:NimbusRomNo9L-Regu;writing-mode:lr-tb;fill:#000000;fill-opacity:1;fill-rule:nonzero;stroke:none"
       id="text214"><tspan
         x="0"
         y="0"
         id="tspan212">)</tspan></text><g
       id="g216"><g
         id="g218"
         clip-path="url(#clipPath222)"><path
           d="M 27.769605,107.09954 58.809447,84.233633 79.54872,70.948662 l 15.347743,3.572816 12.378207,-5.423059 9.66273,4.686238 8.50027,-2.899676 7.45599,2.054892 6.67265,0.694487 5.93655,0.199289 5.30688,6.761045 4.94918,1.559278 4.64381,0.966484 4.20013,5.713887 3.90503,6.874883 3.67856,2.015434 3.46907,4.93124 3.28373,3.49541 3.11789,3.7486 2.96198,0.62616 2.79981,1.34107 2.66288,3.49998 2.57697,2.02454 2.45155,4.86707 2.35577,2.37368 2.28425,0.61126 2.19451,2.45128 2.09475,0.61709 2.02337,1.8891 1.95196,0.35397 1.90806,0.50359 1.84713,0.64181 1.78964,1.48028 1.73598,-0.75238 1.68151,2.56923 1.63811,-1.30248 1.58381,0.73895 1.54834,0.73579 1.51286,0.75521 1.46776,-0.83319 1.43671,1.77601 1.40428,-0.73162 1.37678,0.34424 1.34406,-0.28688 1.3085,-0.13693 1.27347,0.73924 1.24775,0.46236 1.22879,0.10638 1.20299,-0.33187 1.17874,-0.66462 1.15798,1.25968 1.13495,-0.48243 1.11396,0.304 1.08495,-0.96235 1.0696,0.42752 1.05309,-0.33023 1.0276,0.43798 1.0155,0.13058 0.99875,0.45049 0.98404,-0.81438 0.96603,0.59963 0.94614,-0.59968 0.93891,0.0922 0.91933,0.64001 0.90532,-0.2616 0.89261,-1.03047 0.87516,0.88542 0.86865,-0.0497 0.85361,0.0619 0.8376,-0.89274 0.82837,0.96377 0.81853,-0.74412 0.80891,0.16107 0.79684,0.0909 0.7874,0.41877 0.77396,-0.74291 0.7594,-0.26343 0.75539,0.88374 0.74757,-0.48888 0.73201,0.69087 0.72294,-0.99972 0.721,0.61757 0.71168,0.0205 0.70185,0.62496 0.68905,-0.93223 0.68055,-0.26349 0.67828,-0.48726 0.67024,1.46265 0.65559,0.99985 0.65796,-1.46474 0.64833,-1.57673 0.63359,3.00253 0.63134,-0.40009 0.63658,-1.46786 0.62656,0.62924 0.59596,1.71453 0.60713,-3.54705 0.61688,1.25419 0.58503,0.82727 0.5708,-0.54111 0.59688,0.60501 0.61842,-0.15333 0.5696,-1.21038 0.48774,3.65205 0.56894,-3.6601 0.62183,7.07264 0.58901,-5.55489 0.4274,0.39668 0.50109,-14.19249 0.59307,-40.114509"
           style="fill:none;stroke:#1c5a62;stroke-width:1;stroke-linecap:square;stroke-linejoin:round;stroke-miterlimit:10;stroke-dasharray:none;stroke-opacity:0.4"
           id="path224" /></g></g><g
       id="g226"><g
         id="g228"
         clip-path="url(#clipPath232)"><path
           d="m 27.769605,225.77748 31.039842,-0.15877 20.739273,-0.0857 15.347743,-0.60832 12.378207,-0.10086 9.66273,-0.70657 8.50027,-0.42582 7.45599,-0.67818 6.67265,-0.68653 5.93655,0.10939 5.30688,-1.45798 4.94918,-0.23473 4.64381,-0.56899 4.20013,-1.4961 3.90503,-1.15037 3.67856,-1.73309 3.46907,-0.75873 3.28373,-0.82214 3.11789,-1.02339 2.96198,-0.64737 2.79981,-1.03061 2.66288,-1.78599 2.57697,-1.63605 2.45155,-1.66619 2.35577,-2.17983 2.28425,-2.68535 2.19451,-1.2599 2.09475,-2.00415 2.02337,-0.48477 1.95196,-2.60665 1.90806,-1.79086 1.84713,-2.305 1.78964,-1.2065 1.73598,-3.13629 1.68151,-3.44288 1.63811,-1.94947 1.58381,-2.36173 1.54834,-0.98964 1.51286,-2.44673 1.46776,-2.55147 1.43671,-0.86022 1.40428,-3.05773 1.37678,-2.19151 1.34406,-0.90811 1.3085,-2.23047 1.27347,-1.94148 1.24775,-2.36931 1.22879,-0.68239 1.20299,-1.19299 1.17874,-1.48272 1.15798,-1.87949 1.13495,-1.09459 1.11396,-1.31445 1.08495,-0.0702 1.0696,-1.8043 1.05309,-1.0252 1.0276,-1.22966 1.0155,-0.0881 0.99875,-0.86966 0.98404,-1.37753 0.96603,0.1273 0.94614,-0.60682 0.93891,-1.34975 0.91933,-0.43154 0.90532,-0.42338 0.89261,-0.9804 0.87516,0.17174 0.86865,-1.16761 0.85361,0.49522 0.8376,-1.22546 0.82837,-0.0964 0.81853,0.77212 0.80891,-1.08974 0.79684,-0.6822 0.7874,0.13916 0.77396,-0.0783 0.7594,0.71326 0.75539,-0.8953 0.74757,-0.27455 0.73201,0.91271 0.72294,0.78038 0.721,-2.31862 0.71168,-0.0393 0.70185,0.41123 0.68905,-0.52961 0.68055,-0.0863 0.67828,-0.17078 0.67024,0.16424 0.65559,-0.31565 0.65796,-0.32244 0.64833,0.19648 0.63359,2.40971 0.63134,-2.94149 0.63658,0.97156 0.62656,0.0559 0.59596,-1.17866 0.60713,1.24935 0.61688,2.10008 0.58503,-3.41622 0.5708,4.05206 0.59688,-0.35186 0.61842,-3.15619 0.5696,-0.88387 0.48774,5.58376 0.56894,-2.42222 0.62183,-2.36306 0.58901,13.73175 0.4274,-15.08979 0.50109,14.345 0.59307,48.79583"
           style="fill:none;stroke:#f9ac92;stroke-width:1;stroke-linecap:butt;stroke-linejoin:round;stroke-miterlimit:10;stroke-dasharray:3.7, 1.6;stroke-dashoffset:0;stroke-opacity:0.8"
           id="path234" /></g></g><g
       id="g236"><g
         id="g238"
         clip-path="url(#clipPath242)"><path
           d="M 27.769605,106.93562 58.809447,84.450785 79.54872,70.955913 l 15.347743,3.551424 12.378207,-5.36196 9.66273,4.659132 8.50027,-2.89916 7.45599,2.05719 6.67265,0.689664 5.93655,0.16179 5.30688,6.831953 4.94918,1.532216 4.64381,0.958616 4.20013,5.686088 3.90503,6.882454 3.67856,1.964786 3.46907,4.971754 3.28373,3.497 3.11789,3.72331 2.96198,0.66094 2.79981,1.38302 2.66288,3.46239 2.57697,1.97312 2.45155,4.91811 2.35577,2.35215 2.28425,0.62181 2.19451,2.46742 2.09475,0.59222 2.02337,1.88518 1.95196,0.39072 1.90806,0.50567 1.84713,0.6196 1.78964,1.50622 1.73598,-0.74425 1.68151,2.54363 1.63811,-1.32641 1.58381,0.75423 1.54834,0.73191 1.51286,0.76486 1.46776,-0.83043 1.43671,1.77759 1.40428,-0.75476 1.37678,0.35954 1.34406,-0.27049 1.3085,-0.16436 1.27347,0.76206 1.24775,0.46452 1.22879,0.0891 1.20299,-0.33234 1.17874,-0.65352 1.15798,1.25061 1.13495,-0.50041 1.11396,0.33041 1.08495,-0.95732 1.0696,0.42381 1.05309,-0.34149 1.0276,0.45036 1.0155,0.11172 0.99875,0.46871 0.98404,-0.81532 0.96603,0.60134 0.94614,-0.592 0.93891,0.0854 0.91933,0.61254 0.90532,-0.2393 0.89261,-1.02648 0.87516,0.87581 0.86865,-0.0488 0.85361,0.074 0.8376,-0.89441 0.82837,0.94753 0.81853,-0.74173 0.80891,0.16888 0.79684,0.0801 0.7874,0.42838 0.77396,-0.72428 0.7594,-0.27722 0.75539,0.88439 0.74757,-0.48379 0.73201,0.69909 0.72294,-1.02844 0.721,0.6119 0.71168,0.0313 0.70185,0.63751 0.68905,-0.93587 0.68055,-0.26786 0.67828,-0.50127 0.67024,1.47977 0.65559,0.98922 0.65796,-1.44944 0.64833,-1.56382 0.63359,3.0361 0.63134,-0.44489 0.63658,-1.47251 0.62656,0.62877 0.59596,1.68084 0.60713,-3.51813 0.61688,1.27473 0.58503,0.8495 0.5708,-0.63375 0.59688,0.68326 0.61842,-0.16864 0.5696,-1.20717 0.48774,3.63728 0.56894,-3.61927 0.62183,7.05311 0.58901,-5.78576 0.4274,0.61681 0.50109,-13.79159 0.59307,-40.342509"
           style="fill:none;stroke:#1c5a62;stroke-width:1;stroke-linecap:square;stroke-linejoin:round;stroke-miterlimit:10;stroke-dasharray:none;stroke-opacity:0.4"
           id="path244" /></g></g><g
       id="g246"><g
         id="g248"
         clip-path="url(#clipPath252)"><path
           d="m 27.769605,225.79546 31.039842,-0.16487 20.739273,-0.092 15.347743,-0.61572 12.378207,-0.22131 9.66273,-0.68613 8.50027,-0.36362 7.45599,-0.53556 6.67265,-0.76436 5.93655,0.0869 5.30688,-1.32461 4.94918,-0.38306 4.64381,-0.60973 4.20013,-1.31933 3.90503,-1.08033 3.67856,-1.68436 3.46907,-1.0618 3.28373,-0.83203 3.11789,-0.9262 2.96198,-0.82916 2.79981,-0.86788 2.66288,-1.58359 2.57697,-1.69702 2.45155,-1.98085 2.35577,-1.57074 2.28425,-3.32937 2.19451,-0.7078 2.09475,-2.40716 2.02337,-0.53205 1.95196,-2.48781 1.90806,-1.95737 1.84713,-1.59767 1.78964,-1.84469 1.73598,-3.14237 1.68151,-3.10093 1.63811,-2.19005 1.58381,-2.41463 1.54834,-0.59544 1.51286,-2.40101 1.46776,-3.03277 1.43671,-0.51364 1.40428,-3.19354 1.37678,-2.01744 1.34406,-0.72185 1.3085,-2.85946 1.27347,-1.63731 1.24775,-1.91884 1.22879,-0.98095 1.20299,-1.93516 1.17874,-0.95653 1.15798,-2.03836 1.13495,-1.52184 1.11396,-0.42464 1.08495,-0.32105 1.0696,-2.24274 1.05309,-0.59358 1.0276,-1.51361 1.0155,-0.0339 0.99875,-1.02422 0.98404,-1.17926 0.96603,0.36472 0.94614,-0.83774 0.93891,-1.39571 0.91933,-0.094 0.90532,-0.86362 0.89261,-0.67937 0.87516,0.14666 0.86865,-1.52283 0.85361,0.59616 0.8376,-0.80576 0.82837,-0.27681 0.81853,0.84538 0.80891,-0.82846 0.79684,-0.83028 0.7874,-0.54728 0.77396,0.50839 0.7594,0.18007 0.75539,-0.79798 0.74757,0.0739 0.73201,0.464 0.72294,1.11762 0.721,-2.16932 0.71168,-0.25154 0.70185,0.33037 0.68905,-0.44822 0.68055,0.1827 0.67828,-0.0487 0.67024,0.49753 0.65559,-0.97309 0.65796,-0.0191 0.64833,0.20044 0.63359,2.10362 0.63134,-1.94753 0.63658,-0.88513 0.62656,0.68239 0.59596,-1.83916 0.60713,1.14902 0.61688,0.87936 0.58503,-1.01284 0.5708,4.49819 0.59688,-2.16357 0.61842,-3.42061 0.5696,-0.0314 0.48774,5.80985 0.56894,-2.46068 0.62183,1.55471 0.58901,4.58808 0.4274,-8.76317 0.50109,2.62735 0.59307,82.06026"
           style="fill:none;stroke:#f9ac92;stroke-width:1;stroke-linecap:butt;stroke-linejoin:round;stroke-miterlimit:10;stroke-dasharray:3.7, 1.6;stroke-dashoffset:0;stroke-opacity:0.8"
           id="path254" /></g></g><g
       id="g256"><g
         id="g258"
         clip-path="url(#clipPath262)"><path
           d="M 27.769605,107.28206 58.809447,84.54133 79.54872,71.054285 l 15.347743,3.371545 12.378207,-5.334137 9.66273,4.71003 8.50027,-2.968605 7.45599,2.175595 6.67265,0.666012 5.93655,0.136399 5.30688,6.801996 4.94918,1.524319 4.64381,0.98744 4.20013,5.713431 3.90503,6.872255 3.67856,1.939956 3.46907,5.030009 3.28373,3.44245 3.11789,3.76062 2.96198,0.63561 2.79981,1.35425 2.66288,3.47 2.57697,1.9774 2.45155,4.90668 2.35577,2.40426 2.28425,0.60837 2.19451,2.47042 2.09475,0.57166 2.02337,1.86211 1.95196,0.4397 1.90806,0.47418 1.84713,0.63871 1.78964,1.50189 1.73598,-0.72692 1.68151,2.53032 1.63811,-1.32271 1.58381,0.7326 1.54834,0.76474 1.51286,0.75223 1.46776,-0.83699 1.43671,1.77802 1.40428,-0.74476 1.37678,0.35371 1.34406,-0.26886 1.3085,-0.16759 1.27347,0.75633 1.24775,0.47147 1.22879,0.0746 1.20299,-0.3175 1.17874,-0.65888 1.15798,1.24495 1.13495,-0.50724 1.11396,0.35801 1.08495,-0.97652 1.0696,0.43411 1.05309,-0.35346 1.0276,0.46216 1.0155,0.11272 0.99875,0.47186 0.98404,-0.80926 0.96603,0.59103 0.94614,-0.59247 0.93891,0.0823 0.91933,0.6226 0.90532,-0.25466 0.89261,-1.03631 0.87516,0.89849 0.86865,-0.0578 0.85361,0.0782 0.8376,-0.89427 0.82837,0.95087 0.81853,-0.73757 0.80891,0.16624 0.79684,0.0674 0.7874,0.43547 0.77396,-0.73259 0.7594,-0.28044 0.75539,0.91269 0.74757,-0.51138 0.73201,0.69087 0.72294,-1.00574 0.721,0.59945 0.71168,0.0298 0.70185,0.65006 0.68905,-0.92906 0.68055,-0.26552 0.67828,-0.50959 0.67024,1.46961 0.65559,0.99504 0.65796,-1.4459 0.64833,-1.5524 0.63359,3.01353 0.63134,-0.42975 0.63658,-1.47926 0.62656,0.62525 0.59596,1.67822 0.60713,-3.49085 0.61688,1.25197 0.58503,0.84347 0.5708,-0.68137 0.59688,0.77148 0.61842,-0.14187 0.5696,-1.23334 0.48774,3.5455 0.56894,-3.56044 0.62183,7.0988 0.58901,-5.8719 0.4274,0.59588 0.50109,-13.62053 0.59307,-39.534262"
           style="fill:none;stroke:#1c5a62;stroke-width:1;stroke-linecap:square;stroke-linejoin:round;stroke-miterlimit:10;stroke-dasharray:none;stroke-opacity:0.4"
           id="path264" /></g></g><g
       id="g266"><g
         id="g268"
         clip-path="url(#clipPath272)"><path
           d="m 27.769605,225.79116 31.039842,-0.15723 20.739273,-0.0793 15.347743,-0.64832 12.378207,-0.20126 9.66273,-0.62213 8.50027,-0.35088 7.45599,-0.7148 6.67265,-0.58453 5.93655,-0.009 5.30688,-1.34232 4.94918,-0.2448 4.64381,-0.70331 4.20013,-1.17715 3.90503,-1.36236 3.67856,-1.44062 3.46907,-0.99111 3.28373,-1.0561 3.11789,-0.74977 2.96198,-0.90092 2.79981,-0.95966 2.66288,-1.69472 2.57697,-1.46232 2.45155,-1.95649 2.35577,-1.66767 2.28425,-3.64605 2.19451,-0.51021 2.09475,-2.40334 2.02337,-0.48433 1.95196,-2.42179 1.90806,-2.14505 1.84713,-1.24341 1.78964,-2.02762 1.73598,-2.97402 1.68151,-3.30545 1.63811,-2.20442 1.58381,-2.46795 1.54834,-0.7692 1.51286,-2.29879 1.46776,-2.70434 1.43671,-0.37831 1.40428,-3.40774 1.37678,-1.8847 1.34406,-1.05458 1.3085,-2.693 1.27347,-1.43989 1.24775,-1.96833 1.22879,-1.24144 1.20299,-2.08878 1.17874,-0.90203 1.15798,-2.05302 1.13495,-1.34087 1.11396,-0.57218 1.08495,-0.0396 1.0696,-2.49148 1.05309,-0.46501 1.0276,-1.48984 1.0155,-0.0439 0.99875,-0.94381 0.98404,-1.09675 0.96603,-0.19767 0.94614,-0.51454 0.93891,-1.42932 0.91933,-0.21207 0.90532,-0.48614 0.89261,-0.98959 0.87516,0.19881 0.86865,-1.35245 0.85361,0.37236 0.8376,-0.42002 0.82837,-0.47372 0.81853,0.85092 0.80891,-0.78343 0.79684,-1.22724 0.7874,-0.28315 0.77396,0.84905 0.7594,0.0855 0.75539,-0.94666 0.74757,0.24298 0.73201,0.43145 0.72294,0.79603 0.721,-2.00268 0.71168,-0.0773 0.70185,0.38546 0.68905,-0.91715 0.68055,0.32699 0.67828,-0.65891 0.67024,1.40416 0.65559,-1.19688 0.65796,-0.42355 0.64833,0.89712 0.63359,1.51194 0.63134,-1.76618 0.63658,-0.43899 0.62656,0.35072 0.59596,-2.13282 0.60713,1.12936 0.61688,1.41793 0.58503,-2.03766 0.5708,4.95964 0.59688,-2.50017 0.61842,-2.86206 0.5696,0.30104 0.48774,4.84895 0.56894,-2.13696 0.62183,2.24814 0.58901,5.87879 0.4274,-6.19311 0.50109,-1.70309 0.59307,74.82536"
           style="fill:none;stroke:#f9ac92;stroke-width:1;stroke-linecap:butt;stroke-linejoin:round;stroke-miterlimit:10;stroke-dasharray:3.7, 1.6;stroke-dashoffset:0;stroke-opacity:0.8"
           id="path274" /></g></g><g
       id="g276"><g
         id="g278"
         clip-path="url(#clipPath282)"><path
           d="M 27.769605,106.50293 58.809447,84.483533 79.54872,71.154689 l 15.347743,3.269943 12.378207,-5.323165 9.66273,4.70877 8.50027,-2.961238 7.45599,2.164598 6.67265,0.638633 5.93655,0.139028 5.30688,6.823195 4.94918,1.537879 4.64381,0.963094 4.20013,5.717128 3.90503,6.907875 3.67856,1.863835 3.46907,5.065546 3.28373,3.49402 3.11789,3.70079 2.96198,0.64668 2.79981,1.3669 2.66288,3.43295 2.57697,1.97506 2.45155,4.89864 2.35577,2.43682 2.28425,0.6458 2.19451,2.43393 2.09475,0.59679 2.02337,1.8665 1.95196,0.39508 1.90806,0.50012 1.84713,0.62303 1.78964,1.51643 1.73598,-0.72362 1.68151,2.51683 1.63811,-1.30817 1.58381,0.71885 1.54834,0.763 1.51286,0.76457 1.46776,-0.8223 1.43671,1.76778 1.40428,-0.72311 1.37678,0.32993 1.34406,-0.26882 1.3085,-0.18629 1.27347,0.78292 1.24775,0.45192 1.22879,0.0713 1.20299,-0.30456 1.17874,-0.65036 1.15798,1.22778 1.13495,-0.48855 1.11396,0.35141 1.08495,-1.00185 1.0696,0.46641 1.05309,-0.36932 1.0276,0.47612 1.0155,0.10492 0.99875,0.4554 0.98404,-0.78925 0.96603,0.58023 0.94614,-0.57375 0.93891,0.0704 0.91933,0.61947 0.90532,-0.24567 0.89261,-1.05174 0.87516,0.91616 0.86865,-0.0658 0.85361,0.072 0.8376,-0.88774 0.82837,0.94233 0.81853,-0.71928 0.80891,0.1547 0.79684,0.077 0.7874,0.42336 0.77396,-0.73945 0.7594,-0.26322 0.75539,0.8934 0.74757,-0.50278 0.73201,0.70673 0.72294,-1.01446 0.721,0.59011 0.71168,0.0592 0.70185,0.63613 0.68905,-0.92938 0.68055,-0.28776 0.67828,-0.48424 0.67024,1.4475 0.65559,1.01813 0.65796,-1.45764 0.64833,-1.57281 0.63359,3.01596 0.63134,-0.39342 0.63658,-1.49323 0.62656,0.64898 0.59596,1.6539 0.60713,-3.5166 0.61688,1.26335 0.58503,0.88385 0.5708,-0.71264 0.59688,0.77524 0.61842,-0.13299 0.5696,-1.27061 0.48774,3.53 0.56894,-3.5109 0.62183,7.08273 0.58901,-5.78655 0.4274,0.22104 0.50109,-13.57705 0.59307,-39.002128"
           style="fill:none;stroke:#1c5a62;stroke-width:1;stroke-linecap:square;stroke-linejoin:round;stroke-miterlimit:10;stroke-dasharray:none;stroke-opacity:0.4"
           id="path284" /></g></g><g
       id="g286"><g
         id="g288"
         clip-path="url(#clipPath292)"><path
           d="m 27.769605,225.7888 31.039842,-0.14767 20.739273,-0.0929 15.347743,-0.64017 12.378207,-0.14692 9.66273,-0.71195 8.50027,-0.39679 7.45599,-0.51368 6.67265,-0.64154 5.93655,-0.10563 5.30688,-1.18683 4.94918,-0.24582 4.64381,-0.65339 4.20013,-1.25 3.90503,-1.31417 3.67856,-1.38313 3.46907,-1.12364 3.28373,-1.12665 3.11789,-0.71564 2.96198,-0.78502 2.79981,-1.2768 2.66288,-1.21817 2.57697,-1.53778 2.45155,-2.75967 2.35577,-1.24209 2.28425,-2.9851 2.19451,-0.63089 2.09475,-2.55551 2.02337,-0.5061 1.95196,-2.81334 1.90806,-1.92363 1.84713,-1.4909 1.78964,-2.1193 1.73598,-2.05943 1.68151,-3.93872 1.63811,-2.36985 1.58381,-2.23006 1.54834,-1.15124 1.51286,-2.14638 1.46776,-3.0523 1.43671,0.18553 1.40428,-3.32202 1.37678,-2.23129 1.34406,-1.08795 1.3085,-2.34399 1.27347,-1.88607 1.24775,-1.80393 1.22879,-1.38617 1.20299,-1.77089 1.17874,-0.92498 1.15798,-2.10051 1.13495,-1.66705 1.11396,0.10194 1.08495,-0.28833 1.0696,-2.18434 1.05309,-0.59164 1.0276,-1.44646 1.0155,-0.50675 0.99875,-0.82014 0.98404,-0.8056 0.96603,-0.36913 0.94614,-0.63513 0.93891,-1.40558 0.91933,-0.4229 0.90532,-0.22371 0.89261,-1.40352 0.87516,0.8657 0.86865,-1.28443 0.85361,0.29418 0.8376,-0.46945 0.82837,-0.54185 0.81853,0.48926 0.80891,-0.4796 0.79684,-1.24648 0.7874,0.0855 0.77396,0.41514 0.7594,-0.0948 0.75539,-0.70625 0.74757,0.37099 0.73201,0.0425 0.72294,0.90166 0.721,-1.94552 0.71168,-0.26585 0.70185,0.84958 0.68905,-0.91304 0.68055,0.15582 0.67828,-0.99296 0.67024,1.59799 0.65559,-1.06972 0.65796,-0.31851 0.64833,0.64208 0.63359,1.53408 0.63134,-1.72388 0.63658,-0.50008 0.62656,0.44164 0.59596,-1.37771 0.60713,0.40796 0.61688,1.10895 0.58503,-0.96571 0.5708,4.36035 0.59688,-2.83816 0.61842,-2.90608 0.5696,0.3897 0.48774,4.46854 0.56894,-1.01268 0.62183,0.38518 0.58901,8.34825 0.4274,-6.14695 0.50109,0.37848 0.59307,78.30415"
           style="fill:none;stroke:#f9ac92;stroke-width:1;stroke-linecap:butt;stroke-linejoin:round;stroke-miterlimit:10;stroke-dasharray:3.7, 1.6;stroke-dashoffset:0;stroke-opacity:0.8"
           id="path294" /></g></g><g
       id="g296"><g
         id="g298"
         clip-path="url(#clipPath302)"><path
           d="M 27.769605,107.4256 58.809447,84.092719 79.54872,71.202035 l 15.347743,3.23723 12.378207,-5.440665 9.66273,4.84411 8.50027,-2.982185 7.45599,2.136411 6.67265,0.645043 5.93655,0.145269 5.30688,6.834689 4.94918,1.503924 4.64381,0.972837 4.20013,5.745927 3.90503,6.927836 3.67856,1.872808 3.46907,5.015611 3.28373,3.54285 3.11789,3.66373 2.96198,0.64723 2.79981,1.38465 2.66288,3.4458 2.57697,1.95835 2.45155,4.90177 2.35577,2.43828 2.28425,0.58303 2.19451,2.43707 2.09475,0.61923 2.02337,1.88528 1.95196,0.41292 1.90806,0.4626 1.84713,0.64288 1.78964,1.52939 1.73598,-0.76842 1.68151,2.55453 1.63811,-1.32733 1.58381,0.74681 1.54834,0.7037 1.51286,0.77754 1.46776,-0.79672 1.43671,1.75232 1.40428,-0.72751 1.37678,0.34434 1.34406,-0.2478 1.3085,-0.19718 1.27347,0.78904 1.24775,0.44108 1.22879,0.0885 1.20299,-0.33758 1.17874,-0.6372 1.15798,1.22324 1.13495,-0.47549 1.11396,0.3567 1.08495,-0.99265 1.0696,0.45718 1.05309,-0.37221 1.0276,0.47505 1.0155,0.10126 0.99875,0.43391 0.98404,-0.77947 0.96603,0.59349 0.94614,-0.57097 0.93891,0.048 0.91933,0.62773 0.90532,-0.22731 0.89261,-1.06948 0.87516,0.91855 0.86865,-0.0624 0.85361,0.068 0.8376,-0.87939 0.82837,0.93238 0.81853,-0.70999 0.80891,0.15054 0.79684,0.0911 0.7874,0.42944 0.77396,-0.75049 0.7594,-0.26744 0.75539,0.87747 0.74757,-0.46883 0.73201,0.69374 0.72294,-1.03464 0.721,0.5977 0.71168,0.0714 0.70185,0.66173 0.68905,-0.94811 0.68055,-0.29407 0.67828,-0.47176 0.67024,1.45534 0.65559,0.97053 0.65796,-1.41249 0.64833,-1.58045 0.63359,3.02147 0.63134,-0.41448 0.63658,-1.51936 0.62656,0.67849 0.59596,1.64482 0.60713,-3.49599 0.61688,1.15138 0.58503,0.88553 0.5708,-0.66689 0.59688,0.76361 0.61842,-0.0997 0.5696,-1.16018 0.48774,3.38717 0.56894,-3.40181 0.62183,6.86528 0.58901,-5.6783 0.4274,0.36 0.50109,-13.29892 0.59307,-40.974316"
           style="fill:none;stroke:#1c5a62;stroke-width:1;stroke-linecap:square;stroke-linejoin:round;stroke-miterlimit:10;stroke-dasharray:none;stroke-opacity:0.4"
           id="path304" /></g></g><g
       id="g306"><g
         id="g308"
         clip-path="url(#clipPath312)"><path
           d="m 27.769605,225.79035 31.039842,-0.14729 20.739273,-0.11079 15.347743,-0.63406 12.378207,-0.15907 9.66273,-0.79781 8.50027,-0.23887 7.45599,-0.67581 6.67265,-0.54696 5.93655,0.0249 5.30688,-1.41378 4.94918,-0.32154 4.64381,-0.537 4.20013,-1.3008 3.90503,-1.28637 3.67856,-1.41243 3.46907,-1.02246 3.28373,-1.00509 3.11789,-0.87084 2.96198,-0.6615 2.79981,-1.6256 2.66288,-1.11793 2.57697,-1.46239 2.45155,-2.66829 2.35577,-1.51608 2.28425,-2.28057 2.19451,-1.03467 2.09475,-2.44575 2.02337,-0.80064 1.95196,-2.58682 1.90806,-1.85208 1.84713,-1.57954 1.78964,-2.15655 1.73598,-2.43272 1.68151,-3.45263 1.63811,-2.45371 1.58381,-2.16784 1.54834,-1.37066 1.51286,-2.27737 1.46776,-2.75697 1.43671,-0.0621 1.40428,-2.95316 1.37678,-1.96844 1.34406,-1.45052 1.3085,-2.36855 1.27347,-1.84431 1.24775,-1.90841 1.22879,-1.3957 1.20299,-1.78997 1.17874,-0.80812 1.15798,-1.64271 1.13495,-2.10313 1.11396,0.0316 1.08495,-0.0794 1.0696,-2.26333 1.05309,-0.8641 1.0276,-1.2928 1.0155,-0.4991 0.99875,-0.91411 0.98404,-0.76571 0.96603,-0.34093 0.94614,-0.81203 0.93891,-0.9436 0.91933,-0.58982 0.90532,-0.39669 0.89261,-1.28658 0.87516,0.91451 0.86865,-1.35453 0.85361,0.46431 0.8376,-0.92833 0.82837,-0.26519 0.81853,0.41901 0.80891,-0.48265 0.79684,-1.02435 0.7874,0.14987 0.77396,0.24799 0.7594,-0.0795 0.75539,-0.66489 0.74757,-0.15707 0.73201,0.28644 0.72294,0.86732 0.721,-1.66901 0.71168,-0.2939 0.70185,0.9074 0.68905,-0.88612 0.68055,-0.51302 0.67828,-0.45427 0.67024,1.93998 0.65559,-1.01055 0.65796,-0.59933 0.64833,0.44182 0.63359,1.67088 0.63134,-1.9631 0.63658,0.22765 0.62656,-0.29996 0.59596,-1.6361 0.60713,0.76477 0.61688,1.64209 0.58503,-1.33363 0.5708,4.39994 0.59688,-3.84963 0.61842,-1.29373 0.5696,-0.68807 0.48774,4.69664 0.56894,-1.61925 0.62183,2.74491 0.58901,4.40556 0.4274,1.832 0.50109,-3.51227 0.59307,67.59492"
           style="fill:none;stroke:#f9ac92;stroke-width:1;stroke-linecap:butt;stroke-linejoin:round;stroke-miterlimit:10;stroke-dasharray:3.7, 1.6;stroke-dashoffset:0;stroke-opacity:0.8"
           id="path314" /></g></g><g
       id="g316"><g
         id="g318"
         clip-path="url(#clipPath322)"><path
           d="M 45.364279,136.85704 H 249.06951"
           style="fill:none;stroke:#000000;stroke-width:0.5;stroke-linecap:square;stroke-linejoin:round;stroke-miterlimit:10;stroke-dasharray:none;stroke-opacity:1"
           id="path324" /></g></g><g
       id="g326"><path
         d="M 45.364279,62.105035 V 235.63647"
         style="fill:none;stroke:#000000;stroke-width:0.5;stroke-linecap:square;stroke-linejoin:miter;stroke-miterlimit:10;stroke-dasharray:none;stroke-opacity:1"
         id="path328" /><path
         d="M 249.06951,62.105035 V 235.63647"
         style="fill:none;stroke:#000000;stroke-width:0.5;stroke-linecap:square;stroke-linejoin:miter;stroke-miterlimit:10;stroke-dasharray:none;stroke-opacity:1"
         id="path330" /><path
         d="M 45.364279,62.105035 H 249.06951"
         style="fill:none;stroke:#000000;stroke-width:0.5;stroke-linecap:square;stroke-linejoin:miter;stroke-miterlimit:10;stroke-dasharray:none;stroke-opacity:1"
         id="path332" /><path
         d="M 45.364279,235.63647 H 249.06951"
         style="fill:none;stroke:#000000;stroke-width:0.5;stroke-linecap:square;stroke-linejoin:miter;stroke-miterlimit:10;stroke-dasharray:none;stroke-opacity:1"
         id="path334" /><text
         transform="matrix(1,0,0,-1,142.65365,241.63647)"
         style="font-variant:normal;font-weight:normal;font-size:11.9552px;font-family:rtxmi;-inkscape-font-specification:rtxmi;writing-mode:lr-tb;fill:#000000;fill-opacity:1;fill-rule:nonzero;stroke:none"
         id="text338"><tspan
           x="0"
           y="0"
           id="tspan336">ξ</tspan></text><text
         transform="matrix(1,0,0,-1,147.87806,239.8432)"
         style="font-style:italic;font-variant:normal;font-weight:normal;font-size:7.97011px;font-family:'Computer Modern';-inkscape-font-specification:CMSSI8;writing-mode:lr-tb;fill:#000000;fill-opacity:1;fill-rule:nonzero;stroke:none"
         id="text342"><tspan
           x="0"
           y="0"
           id="tspan340">x</tspan></text><path
         d="M 259.25477,62.105035 H 462.96 V 235.63647 H 259.25477 Z"
         style="fill:#ffffff;fill-opacity:1;fill-rule:nonzero;stroke:none"
         id="path344" /><path
         d="m 384.06535,62.105035 v -3.5"
         style="fill:#000000;fill-opacity:1;fill-rule:nonzero;stroke:#000000;stroke-width:0.8;stroke-linecap:butt;stroke-linejoin:round;stroke-miterlimit:10;stroke-dasharray:none;stroke-opacity:1"
         id="path346" /><text
         transform="matrix(1,0,0,-1,375.12289,48.380268)"
         style="font-variant:normal;font-size:9.96264px;font-family:'Nimbus Roman No9 L';-inkscape-font-specification:NimbusRomNo9L-Regu;writing-mode:lr-tb;fill:#000000;fill-opacity:1;fill-rule:nonzero;stroke:none"
         id="text350"><tspan
           x="0 4.9813199"
           y="0"
           id="tspan348">10</tspan></text><text
         transform="matrix(1,0,0,-1,385.08553,51.996696)"
         style="font-variant:normal;font-weight:normal;font-size:6.97385px;font-family:txsy;-inkscape-font-specification:txsy;writing-mode:lr-tb;fill:#000000;fill-opacity:1;fill-rule:nonzero;stroke:none"
         id="text354"><tspan
           x="0"
           y="0"
           id="tspan352">−</tspan></text><text
         transform="matrix(1,0,0,-1,389.52089,51.996696)"
         style="font-variant:normal;font-size:6.97385px;font-family:'Nimbus Roman No9 L';-inkscape-font-specification:NimbusRomNo9L-Regu;writing-mode:lr-tb;fill:#000000;fill-opacity:1;fill-rule:nonzero;stroke:none"
         id="text358"><tspan
           x="0"
           y="0"
           id="tspan356">1</tspan></text><path
         d="m 289.32483,62.105035 v -2"
         style="fill:#000000;fill-opacity:1;fill-rule:nonzero;stroke:#000000;stroke-width:0.6;stroke-linecap:butt;stroke-linejoin:round;stroke-miterlimit:10;stroke-dasharray:none;stroke-opacity:1"
         id="path360" /><path
         d="m 313.19277,62.105035 v -2"
         style="fill:#000000;fill-opacity:1;fill-rule:nonzero;stroke:#000000;stroke-width:0.6;stroke-linecap:butt;stroke-linejoin:round;stroke-miterlimit:10;stroke-dasharray:none;stroke-opacity:1"
         id="path362" /><path
         d="m 330.12735,62.105035 v -2"
         style="fill:#000000;fill-opacity:1;fill-rule:nonzero;stroke:#000000;stroke-width:0.6;stroke-linecap:butt;stroke-linejoin:round;stroke-miterlimit:10;stroke-dasharray:none;stroke-opacity:1"
         id="path364" /><path
         d="m 343.26283,62.105035 v -2"
         style="fill:#000000;fill-opacity:1;fill-rule:nonzero;stroke:#000000;stroke-width:0.6;stroke-linecap:butt;stroke-linejoin:round;stroke-miterlimit:10;stroke-dasharray:none;stroke-opacity:1"
         id="path366" /><path
         d="m 353.9953,62.105035 v -2"
         style="fill:#000000;fill-opacity:1;fill-rule:nonzero;stroke:#000000;stroke-width:0.6;stroke-linecap:butt;stroke-linejoin:round;stroke-miterlimit:10;stroke-dasharray:none;stroke-opacity:1"
         id="path368" /><path
         d="m 363.06947,62.105035 v -2"
         style="fill:#000000;fill-opacity:1;fill-rule:nonzero;stroke:#000000;stroke-width:0.6;stroke-linecap:butt;stroke-linejoin:round;stroke-miterlimit:10;stroke-dasharray:none;stroke-opacity:1"
         id="path370" /><path
         d="m 370.92988,62.105035 v -2"
         style="fill:#000000;fill-opacity:1;fill-rule:nonzero;stroke:#000000;stroke-width:0.6;stroke-linecap:butt;stroke-linejoin:round;stroke-miterlimit:10;stroke-dasharray:none;stroke-opacity:1"
         id="path372" /><path
         d="m 377.86324,62.105035 v -2"
         style="fill:#000000;fill-opacity:1;fill-rule:nonzero;stroke:#000000;stroke-width:0.6;stroke-linecap:butt;stroke-linejoin:round;stroke-miterlimit:10;stroke-dasharray:none;stroke-opacity:1"
         id="path374" /><path
         d="m 424.86788,62.105035 v -2"
         style="fill:#000000;fill-opacity:1;fill-rule:nonzero;stroke:#000000;stroke-width:0.6;stroke-linecap:butt;stroke-linejoin:round;stroke-miterlimit:10;stroke-dasharray:none;stroke-opacity:1"
         id="path376" /><path
         d="m 448.73583,62.105035 v -2"
         style="fill:#000000;fill-opacity:1;fill-rule:nonzero;stroke:#000000;stroke-width:0.6;stroke-linecap:butt;stroke-linejoin:round;stroke-miterlimit:10;stroke-dasharray:none;stroke-opacity:1"
         id="path378" /><text
         transform="matrix(1,0,0,-1,336.4454,33.547919)"
         style="font-style:italic;font-variant:normal;font-weight:normal;font-size:9.96264px;font-family:'Computer Modern';-inkscape-font-specification:CMSSI10;writing-mode:lr-tb;fill:#000000;fill-opacity:1;fill-rule:nonzero;stroke:none"
         id="text382"><tspan
           x="0"
           y="0"
           id="tspan380">k</tspan></text><text
         transform="matrix(1,0,0,-1,344.63716,33.547919)"
         style="font-variant:normal;font-size:9.96264px;font-family:'Nimbus Roman No9 L';-inkscape-font-specification:NimbusRomNo9L-Regu;writing-mode:lr-tb;fill:#000000;fill-opacity:1;fill-rule:nonzero;stroke:none"
         id="text386"><tspan
           x="0"
           y="0"
           id="tspan384">[</tspan></text><text
         transform="matrix(1,0,0,-1,347.95472,33.547919)"
         style="font-style:italic;font-variant:normal;font-weight:normal;font-size:9.96264px;font-family:'Computer Modern';-inkscape-font-specification:CMSSI10;writing-mode:lr-tb;fill:#000000;fill-opacity:1;fill-rule:nonzero;stroke:none"
         id="text390"><tspan
           x="0"
           y="0"
           id="tspan388">h</tspan></text><text
         transform="matrix(1,0,0,-1,355.76986,33.547919)"
         style="font-variant:normal;font-size:9.96264px;font-family:'Nimbus Roman No9 L';-inkscape-font-specification:NimbusRomNo9L-Regu;writing-mode:lr-tb;fill:#000000;fill-opacity:1;fill-rule:nonzero;stroke:none"
         id="text394"><tspan
           x="0 8.8468246 13.828144"
           y="0"
           id="tspan392">Mpc</tspan></text><text
         transform="matrix(1,0,0,-1,374.03139,37.521011)"
         style="font-variant:normal;font-weight:normal;font-size:6.97385px;font-family:txsy;-inkscape-font-specification:txsy;writing-mode:lr-tb;fill:#000000;fill-opacity:1;fill-rule:nonzero;stroke:none"
         id="text398"><tspan
           x="0"
           y="0"
           id="tspan396">−</tspan></text><text
         transform="matrix(1,0,0,-1,378.46675,37.521011)"
         style="font-variant:normal;font-size:6.97385px;font-family:'Nimbus Roman No9 L';-inkscape-font-specification:NimbusRomNo9L-Regu;writing-mode:lr-tb;fill:#000000;fill-opacity:1;fill-rule:nonzero;stroke:none"
         id="text402"><tspan
           x="0"
           y="0"
           id="tspan400">1</tspan></text><text
         transform="matrix(1,0,0,-1,382.4518,33.547919)"
         style="font-variant:normal;font-size:9.96264px;font-family:'Nimbus Roman No9 L';-inkscape-font-specification:NimbusRomNo9L-Regu;writing-mode:lr-tb;fill:#000000;fill-opacity:1;fill-rule:nonzero;stroke:none"
         id="text406"><tspan
           x="0"
           y="0"
           id="tspan404">]</tspan></text><path
         d="m 259.25477,70.114178 h -3.5"
         style="fill:#000000;fill-opacity:1;fill-rule:nonzero;stroke:#000000;stroke-width:0.8;stroke-linecap:butt;stroke-linejoin:round;stroke-miterlimit:10;stroke-dasharray:none;stroke-opacity:1"
         id="path408" /><path
         d="m 259.25477,92.361797 h -3.5"
         style="fill:#000000;fill-opacity:1;fill-rule:nonzero;stroke:#000000;stroke-width:0.8;stroke-linecap:butt;stroke-linejoin:round;stroke-miterlimit:10;stroke-dasharray:none;stroke-opacity:1"
         id="path410" /><path
         d="m 259.25477,114.60942 h -3.5"
         style="fill:#000000;fill-opacity:1;fill-rule:nonzero;stroke:#000000;stroke-width:0.8;stroke-linecap:butt;stroke-linejoin:round;stroke-miterlimit:10;stroke-dasharray:none;stroke-opacity:1"
         id="path412" /><path
         d="m 259.25477,136.85704 h -3.5"
         style="fill:#000000;fill-opacity:1;fill-rule:nonzero;stroke:#000000;stroke-width:0.8;stroke-linecap:butt;stroke-linejoin:round;stroke-miterlimit:10;stroke-dasharray:none;stroke-opacity:1"
         id="path414" /><path
         d="m 259.25477,159.10466 h -3.5"
         style="fill:#000000;fill-opacity:1;fill-rule:nonzero;stroke:#000000;stroke-width:0.8;stroke-linecap:butt;stroke-linejoin:round;stroke-miterlimit:10;stroke-dasharray:none;stroke-opacity:1"
         id="path416" /><path
         d="m 259.25477,181.35228 h -3.5"
         style="fill:#000000;fill-opacity:1;fill-rule:nonzero;stroke:#000000;stroke-width:0.8;stroke-linecap:butt;stroke-linejoin:round;stroke-miterlimit:10;stroke-dasharray:none;stroke-opacity:1"
         id="path418" /><path
         d="m 259.25477,203.59989 h -3.5"
         style="fill:#000000;fill-opacity:1;fill-rule:nonzero;stroke:#000000;stroke-width:0.8;stroke-linecap:butt;stroke-linejoin:round;stroke-miterlimit:10;stroke-dasharray:none;stroke-opacity:1"
         id="path420" /><path
         d="m 259.25477,225.84751 h -3.5"
         style="fill:#000000;fill-opacity:1;fill-rule:nonzero;stroke:#000000;stroke-width:0.8;stroke-linecap:butt;stroke-linejoin:round;stroke-miterlimit:10;stroke-dasharray:none;stroke-opacity:1"
         id="path422" /></g><g
       id="g424"><g
         id="g426"
         clip-path="url(#clipPath430)"><path
           d="m 241.6601,182.12692 31.03984,15.44336 20.73927,7.24131 15.34774,-1.73902 12.37821,5.16787 9.66273,-2.12653 8.50027,0.90908 7.45599,-1.58005 6.67265,0.12428 5.93655,1.33483 5.30688,-5.40731 4.94919,-1.06315 4.6438,-0.22604 4.20013,-4.59366 3.90504,-4.04043 3.67855,-3.74457 3.46907,-4.60571 3.28373,-1.96391 3.11789,-3.11976 2.96198,-0.88196 2.79981,-2.26897 2.66288,-3.33755 2.57697,-1.32838 2.45155,-2.92945 2.35577,-3.59794 2.28425,-2.74858 2.19451,-1.66348 2.09475,-0.71259 2.02337,-1.50415 1.95196,-0.93551 1.90806,-1.40178 1.84714,-2.31291 1.78963,-2.19362 1.73598,-0.15315 1.68151,-0.4518 1.63811,-1.57054 1.58382,-0.66982 1.54833,-1.3263 1.51286,0.24066 1.46776,-0.12973 1.43672,-1.64122 1.40427,-1.17223 1.37678,0.92094 1.34406,-0.23701 1.3085,0.28458 1.27347,-2.01316 1.24775,0.98353 1.2288,-0.23021 1.20298,-0.50995 1.17874,-0.0591 1.15799,0.25007 1.13494,-1.19616 1.11396,0.36508 1.08495,-1.06014 1.0696,0.31978 1.05309,-0.65371 1.0276,0.13029 1.0155,-0.24941 0.99876,0.18634 0.98403,-0.52339 0.96603,0.70431 0.94614,-0.14514 0.82671,-0.18417"
           style="fill:none;stroke:#1c5a62;stroke-width:1;stroke-linecap:square;stroke-linejoin:round;stroke-miterlimit:10;stroke-dasharray:none;stroke-opacity:0.4"
           id="path432" /></g></g><g
       id="g434"><g
         id="g436"
         clip-path="url(#clipPath440)"><path
           d="m 241.6601,225.71608 31.03984,-0.14316 20.73927,-0.0755 15.34774,-0.51283 12.37821,-0.13386 9.66273,-0.70404 8.50027,-0.1321 7.45599,-0.58395 6.67265,-0.52187 5.93655,0.0113 5.30688,-1.23123 4.94919,-0.14151 4.6438,-0.56031 4.20013,-1.1997 3.90504,-0.83495 3.67855,-1.72815 3.46907,-0.21642 3.28373,-0.98642 3.11789,-0.96224 2.96198,-0.59387 2.79981,-0.58108 2.66288,-1.42068 2.57697,-1.49138 2.45155,-1.48228 2.35577,-1.5209 2.28425,-0.89977 2.19451,-1.6862 2.09475,-1.10961 2.02337,-0.88586 1.95196,-1.38394 1.90806,-1.65097 1.84714,-1.44676 1.78963,-2.18385 1.73598,-1.68295 1.68151,-1.08824 1.63811,-1.34289 1.58382,-2.19925 1.54833,-1.31344 1.51286,-1.10487 1.46776,-2.0385 1.43672,-1.0436 1.40427,-2.95333 1.37678,-4.1e-4 1.34406,-2.21981 1.3085,-1.18722 1.27347,-1.53277 1.24775,0.0377 1.2288,-2.07242 1.20298,-1.95492 1.17874,-0.39879 1.15799,-1.50636 1.13494,-1.284 1.11396,-0.52247 1.08495,-0.86253 1.0696,-2.30638 1.05309,0.95794 1.0276,-1.61479 1.0155,-1.3308 0.99876,-0.13017 0.98403,-0.31272 0.96603,-0.37885 0.94614,-1.77212 0.82671,-0.27826"
           style="fill:none;stroke:#f9ac92;stroke-width:1;stroke-linecap:butt;stroke-linejoin:round;stroke-miterlimit:10;stroke-dasharray:3.7, 1.6;stroke-dashoffset:0;stroke-opacity:0.8"
           id="path442" /></g></g><g
       id="g444"><g
         id="g446"
         clip-path="url(#clipPath450)"><path
           d="m 241.6601,182.15115 31.03984,15.20491 20.73927,7.40127 15.34774,-1.69768 12.37821,5.14906 9.66273,-2.15052 8.50027,0.99901 7.45599,-1.61637 6.67265,0.12141 5.93655,1.35963 5.30688,-5.442 4.94919,-1.04853 4.6438,-0.23029 4.20013,-4.563 3.90504,-4.04392 3.67855,-3.71802 3.46907,-4.65097 3.28373,-1.94316 3.11789,-3.07753 2.96198,-0.93542 2.79981,-2.29692 2.66288,-3.30846 2.57697,-1.30606 2.45155,-3.01141 2.35577,-3.55208 2.28425,-2.73442 2.19451,-1.66709 2.09475,-0.71446 2.02337,-1.48014 1.95196,-0.96673 1.90806,-1.43516 1.84714,-2.26402 1.78963,-2.22521 1.73598,-0.13431 1.68151,-0.47865 1.63811,-1.5491 1.58382,-0.64628 1.54833,-1.35119 1.51286,0.22834 1.46776,-0.0971 1.43672,-1.65345 1.40427,-1.1975 1.37678,0.94716 1.34406,-0.27615 1.3085,0.30531 1.27347,-1.97689 1.24775,0.96004 1.2288,-0.22537 1.20298,-0.51322 1.17874,-0.0724 1.15799,0.23116 1.13494,-1.14672 1.11396,0.36882 1.08495,-1.08838 1.0696,0.31446 1.05309,-0.61344 1.0276,0.102 1.0155,-0.24209 0.99876,0.16876 0.98403,-0.50568 0.96603,0.6972 0.94614,-0.18515 0.82671,-0.12928"
           style="fill:none;stroke:#1c5a62;stroke-width:1;stroke-linecap:square;stroke-linejoin:round;stroke-miterlimit:10;stroke-dasharray:none;stroke-opacity:0.4"
           id="path452" /></g></g><g
       id="g454"><g
         id="g456"
         clip-path="url(#clipPath460)"><path
           d="m 241.6601,225.74022 31.03984,-0.18463 20.73927,-0.0567 15.34774,-0.57464 12.37821,-0.10332 9.66273,-0.72955 8.50027,-0.0929 7.45599,-0.59756 6.67265,-0.53013 5.93655,0.0479 5.30688,-1.07284 4.94919,-0.26314 4.6438,-0.74334 4.20013,-0.97568 3.90504,-0.79736 3.67855,-1.53887 3.46907,-0.59655 3.28373,-0.97607 3.11789,-0.6821 2.96198,-0.7834 2.79981,-0.58779 2.66288,-1.31626 2.57697,-1.49874 2.45155,-1.43974 2.35577,-1.1214 2.28425,-1.72228 2.19451,-1.02432 2.09475,-1.88657 2.02337,-0.47978 1.95196,-1.20753 1.90806,-2.05499 1.84714,-0.86105 1.78963,-2.01547 1.73598,-2.35308 1.68151,-0.82243 1.63811,-1.67424 1.58382,-2.07355 1.54833,-1.37824 1.51286,-0.81412 1.46776,-2.39962 1.43672,-1.09628 1.40427,-2.77892 1.37678,-0.11645 1.34406,-2.07505 1.3085,-0.96446 1.27347,-1.83217 1.24775,-0.28545 1.2288,-1.75405 1.20298,-1.83589 1.17874,-0.46132 1.15799,-1.02163 1.13494,-1.12254 1.11396,-0.7398 1.08495,-0.68219 1.0696,-2.26043 1.05309,0.41577 1.0276,-1.2535 1.0155,-1.43011 0.99876,-0.44467 0.98403,-0.7524 0.96603,0.0929 0.94614,-2.14276 0.82671,0.39167"
           style="fill:none;stroke:#f9ac92;stroke-width:1;stroke-linecap:butt;stroke-linejoin:round;stroke-miterlimit:10;stroke-dasharray:3.7, 1.6;stroke-dashoffset:0;stroke-opacity:0.8"
           id="path462" /></g></g><g
       id="g464"><g
         id="g466"
         clip-path="url(#clipPath470)"><path
           d="m 241.6601,181.95719 31.03984,15.37906 20.73927,7.37152 15.34774,-1.61002 12.37821,5.16511 9.66273,-2.17309 8.50027,1.02936 7.45599,-1.69036 6.67265,0.14006 5.93655,1.36531 5.30688,-5.42016 4.94919,-1.05179 4.6438,-0.26616 4.20013,-4.58341 3.90504,-4.02866 3.67855,-3.72152 3.46907,-4.62778 3.28373,-1.94576 3.11789,-3.114 2.96198,-0.90937 2.79981,-2.26088 2.66288,-3.32539 2.57697,-1.32824 2.45155,-2.95811 2.35577,-3.61427 2.28425,-2.73792 2.19451,-1.64943 2.09475,-0.68274 2.02337,-1.49915 1.95196,-0.99627 1.90806,-1.40263 1.84714,-2.24424 1.78963,-2.25573 1.73598,-0.12361 1.68151,-0.48652 1.63811,-1.54613 1.58382,-0.64878 1.54833,-1.34556 1.51286,0.24404 1.46776,-0.1485 1.43672,-1.62968 1.40427,-1.17039 1.37678,0.89874 1.34406,-0.23313 1.3085,0.29756 1.27347,-1.97527 1.24775,0.94038 1.2288,-0.21358 1.20298,-0.52518 1.17874,-0.0605 1.15799,0.23546 1.13494,-1.14307 1.11396,0.34506 1.08495,-1.07164 1.0696,0.29485 1.05309,-0.61225 1.0276,0.10641 1.0155,-0.25384 0.99876,0.26008 0.98403,-0.55005 0.96603,0.69167 0.94614,-0.18656 0.82671,-0.14846"
           style="fill:none;stroke:#1c5a62;stroke-width:1;stroke-linecap:square;stroke-linejoin:round;stroke-miterlimit:10;stroke-dasharray:none;stroke-opacity:0.4"
           id="path472" /></g></g><g
       id="g474"><g
         id="g476"
         clip-path="url(#clipPath480)"><path
           d="m 241.6601,225.75912 31.03984,-0.18068 20.73927,-0.057 15.34774,-0.6174 12.37821,-0.13566 9.66273,-0.61391 8.50027,-0.10406 7.45599,-0.6949 6.67265,-0.46634 5.93655,-0.006 5.30688,-1.01475 4.94919,-0.2409 4.6438,-0.62691 4.20013,-1.00767 3.90504,-0.8934 3.67855,-1.49521 3.46907,-0.51082 3.28373,-1.19649 3.11789,-0.60026 2.96198,-0.67648 2.79981,-0.83356 2.66288,-1.23942 2.57697,-1.4647 2.45155,-1.48995 2.35577,-1.09349 2.28425,-2.2064 2.19451,-0.56505 2.09475,-1.47988 2.02337,-0.70964 1.95196,-1.53817 1.90806,-1.9236 1.84714,-0.94352 1.78963,-1.92351 1.73598,-2.40451 1.68151,-0.83297 1.63811,-1.47396 1.58382,-2.46495 1.54833,-0.86376 1.51286,-1.34521 1.46776,-2.02512 1.43672,-0.67872 1.40427,-2.81587 1.37678,-0.66093 1.34406,-1.96128 1.3085,-0.60298 1.27347,-2.10261 1.24775,0.21839 1.2288,-2.28126 1.20298,-1.96854 1.17874,-0.60761 1.15799,-0.62565 1.13494,-1.46871 1.11396,-0.58418 1.08495,-0.94133 1.0696,-1.92165 1.05309,0.27574 1.0276,-1.30531 1.0155,-1.1935 0.99876,-0.34726 0.98403,-1.01361 0.96603,0.0301 0.94614,-2.19507 0.82671,0.52784"
           style="fill:none;stroke:#f9ac92;stroke-width:1;stroke-linecap:butt;stroke-linejoin:round;stroke-miterlimit:10;stroke-dasharray:3.7, 1.6;stroke-dashoffset:0;stroke-opacity:0.8"
           id="path482" /></g></g><g
       id="g484"><g
         id="g486"
         clip-path="url(#clipPath490)"><path
           d="m 241.6601,182.79656 31.03984,14.59378 20.73927,7.25575 15.34774,-1.54497 12.37821,5.13093 9.66273,-2.1054 8.50027,0.99572 7.45599,-1.69691 6.67265,0.16121 5.93655,1.36366 5.30688,-5.43648 4.94919,-1.08211 4.6438,-0.23859 4.20013,-4.57925 3.90504,-4.0452 3.67855,-3.63165 3.46907,-4.73019 3.28373,-1.93461 3.11789,-3.10032 2.96198,-0.90392 2.79981,-2.23032 2.66288,-3.33002 2.57697,-1.29962 2.45155,-3.007 2.35577,-3.61093 2.28425,-2.73605 2.19451,-1.60881 2.09475,-0.75793 2.02337,-1.50588 1.95196,-0.97814 1.90806,-1.37129 1.84714,-2.26798 1.78963,-2.23232 1.73598,-0.1253 1.68151,-0.5006 1.63811,-1.51595 1.58382,-0.67 1.54833,-1.37288 1.51286,0.27629 1.46776,-0.14419 1.43672,-1.64951 1.40427,-1.16624 1.37678,0.89275 1.34406,-0.18296 1.3085,0.24804 1.27347,-2.03653 1.24775,1.00957 1.2288,-0.23458 1.20298,-0.51927 1.17874,-0.0615 1.15799,0.28278 1.13494,-1.15552 1.11396,0.3428 1.08495,-1.11418 1.0696,0.28395 1.05309,-0.5701 1.0276,0.0992 1.0155,-0.29149 0.99876,0.28739 0.98403,-0.54648 0.96603,0.6841 0.94614,-0.21354 0.82671,-0.15078"
           style="fill:none;stroke:#1c5a62;stroke-width:1;stroke-linecap:square;stroke-linejoin:round;stroke-miterlimit:10;stroke-dasharray:none;stroke-opacity:0.4"
           id="path492" /></g></g><g
       id="g494"><g
         id="g496"
         clip-path="url(#clipPath500)"><path
           d="m 241.6601,225.73665 31.03984,-0.12399 20.73927,-0.11021 15.34774,-0.57397 12.37821,-0.13189 9.66273,-0.65641 8.50027,-0.15372 7.45599,-0.4709 6.67265,-0.54576 5.93655,-0.14051 5.30688,-0.91045 4.94919,-0.23936 4.6438,-0.46359 4.20013,-1.21472 3.90504,-0.83432 3.67855,-1.4594 3.46907,-0.62431 3.28373,-1.20379 3.11789,-0.78311 2.96198,-0.27441 2.79981,-1.08514 2.66288,-1.10586 2.57697,-1.4768 2.45155,-1.64706 2.35577,-1.14923 2.28425,-1.5655 2.19451,-1.17594 2.09475,-1.06004 2.02337,-0.96422 1.95196,-1.84663 1.90806,-1.74347 1.84714,-1.01474 1.78963,-1.86615 1.73598,-2.45996 1.68151,-0.70264 1.63811,-1.46825 1.58382,-1.93021 1.54833,-1.38013 1.51286,-1.65322 1.46776,-1.60903 1.43672,-1.2274 1.40427,-2.51427 1.37678,-0.55426 1.34406,-1.94765 1.3085,-0.58487 1.27347,-2.2284 1.24775,0.12837 1.2288,-1.83221 1.20298,-2.29885 1.17874,-0.39936 1.15799,-1.17803 1.13494,-0.97273 1.11396,-1.02864 1.08495,-0.65436 1.0696,-1.75088 1.05309,0.35413 1.0276,-1.63324 1.0155,-0.86861 0.99876,-0.18416 0.98403,-1.49183 0.96603,0.18729 0.94614,-1.95883 0.82671,0.35812"
           style="fill:none;stroke:#f9ac92;stroke-width:1;stroke-linecap:butt;stroke-linejoin:round;stroke-miterlimit:10;stroke-dasharray:3.7, 1.6;stroke-dashoffset:0;stroke-opacity:0.8"
           id="path502" /></g></g><g
       id="g504"><g
         id="g506"
         clip-path="url(#clipPath510)"><path
           d="m 241.6601,182.12526 31.03984,15.62596 20.73927,6.84687 15.34774,-1.48743 12.37821,5.18951 9.66273,-2.18982 8.50027,1.02025 7.45599,-1.68755 6.67265,0.17104 5.93655,1.32478 5.30688,-5.41668 4.94919,-1.07933 4.6438,-0.21309 4.20013,-4.62755 3.90504,-4.0431 3.67855,-3.64564 3.46907,-4.65574 3.28373,-2.02506 3.11789,-3.053 2.96198,-0.90893 2.79981,-2.21295 2.66288,-3.33779 2.57697,-1.26557 2.45155,-3.06868 2.35577,-3.58547 2.28425,-2.65485 2.19451,-1.68315 2.09475,-0.78052 2.02337,-1.50773 1.95196,-0.91862 1.90806,-1.43381 1.84714,-2.24799 1.78963,-2.21329 1.73598,-0.13628 1.68151,-0.54118 1.63811,-1.49285 1.58382,-0.66268 1.54833,-1.41292 1.51286,0.28494 1.46776,-0.10164 1.43672,-1.64797 1.40427,-1.19915 1.37678,0.89943 1.34406,-0.19279 1.3085,0.22085 1.27347,-2.00785 1.24775,1.03079 1.2288,-0.24104 1.20298,-0.50141 1.17874,-0.0917 1.15799,0.32214 1.13494,-1.1849 1.11396,0.34033 1.08495,-1.04662 1.0696,0.20832 1.05309,-0.58278 1.0276,0.14314 1.0155,-0.30799 0.99876,0.3375 0.98403,-0.62063 0.96603,0.69935 0.94614,-0.19214 0.82671,-0.18164"
           style="fill:none;stroke:#1c5a62;stroke-width:1;stroke-linecap:square;stroke-linejoin:round;stroke-miterlimit:10;stroke-dasharray:none;stroke-opacity:0.4"
           id="path512" /></g></g><g
       id="g514"><g
         id="g516"
         clip-path="url(#clipPath520)"><path
           d="m 241.6601,225.73055 31.03984,-0.15733 20.73927,-0.0738 15.34774,-0.55126 12.37821,-0.11058 9.66273,-0.78179 8.50027,-0.004 7.45599,-0.61689 6.67265,-0.46332 5.93655,0.0414 5.30688,-1.23818 4.94919,-0.28247 4.6438,-0.50522 4.20013,-1.0938 3.90504,-0.73782 3.67855,-1.73852 3.46907,-0.59279 3.28373,-0.83717 3.11789,-0.93305 2.96198,-0.17526 2.79981,-1.32906 2.66288,-1.00424 2.57697,-1.11026 2.45155,-1.91302 2.35577,-1.23111 2.28425,-1.62819 2.19451,-0.86724 2.09475,-1.31646 2.02337,-1.29682 1.95196,-1.29626 1.90806,-1.95052 1.84714,-1.17499 1.78963,-1.61013 1.73598,-2.35001 1.68151,-0.74169 1.63811,-1.46161 1.58382,-1.91984 1.54833,-1.42537 1.51286,-1.68713 1.46776,-1.50134 1.43672,-1.68701 1.40427,-1.85514 1.37678,-0.62623 1.34406,-2.01739 1.3085,-0.77153 1.27347,-2.22685 1.24775,0.0164 1.2288,-1.75609 1.20298,-2.09852 1.17874,-0.64509 1.15799,-1.68676 1.13494,-0.40448 1.11396,-0.87932 1.08495,-0.66352 1.0696,-1.74625 1.05309,0.0218 1.0276,-1.24044 1.0155,-1.07756 0.99876,-0.27169 0.98403,-1.28451 0.96603,0.13083 0.94614,-2.15376 0.82671,0.64048"
           style="fill:none;stroke:#f9ac92;stroke-width:1;stroke-linecap:butt;stroke-linejoin:round;stroke-miterlimit:10;stroke-dasharray:3.7, 1.6;stroke-dashoffset:0;stroke-opacity:0.8"
           id="path522" /></g></g><g
       id="g524"><g
         id="g526"
         clip-path="url(#clipPath530)"><path
           d="M 259.25477,136.85704 H 462.96"
           style="fill:none;stroke:#000000;stroke-width:0.5;stroke-linecap:square;stroke-linejoin:round;stroke-miterlimit:10;stroke-dasharray:none;stroke-opacity:1"
           id="path532" /></g></g><g
       id="g534"><path
         d="M 259.25477,62.105035 V 235.63647"
         style="fill:none;stroke:#000000;stroke-width:0.5;stroke-linecap:square;stroke-linejoin:miter;stroke-miterlimit:10;stroke-dasharray:none;stroke-opacity:1"
         id="path536" /><path
         d="M 462.96,62.105035 V 235.63647"
         style="fill:none;stroke:#000000;stroke-width:0.5;stroke-linecap:square;stroke-linejoin:miter;stroke-miterlimit:10;stroke-dasharray:none;stroke-opacity:1"
         id="path538" /><path
         d="M 259.25477,62.105035 H 462.96"
         style="fill:none;stroke:#000000;stroke-width:0.5;stroke-linecap:square;stroke-linejoin:miter;stroke-miterlimit:10;stroke-dasharray:none;stroke-opacity:1"
         id="path540" /><path
         d="M 259.25477,235.63647 H 462.96"
         style="fill:none;stroke:#000000;stroke-width:0.5;stroke-linecap:square;stroke-linejoin:miter;stroke-miterlimit:10;stroke-dasharray:none;stroke-opacity:1"
         id="path542" /><text
         transform="matrix(1,0,0,-1,356.33528,241.63647)"
         style="font-variant:normal;font-weight:normal;font-size:11.9552px;font-family:rtxmi;-inkscape-font-specification:rtxmi;writing-mode:lr-tb;fill:#000000;fill-opacity:1;fill-rule:nonzero;stroke:none"
         id="text546"><tspan
           x="0"
           y="0"
           id="tspan544">δ</tspan></text><text
         transform="matrix(1,0,0,-1,361.89443,245.97618)"
         style="font-variant:normal;font-size:7.97011px;font-family:'Nimbus Roman No9 L';-inkscape-font-specification:NimbusRomNo9L-Regu;writing-mode:lr-tb;fill:#000000;fill-opacity:1;fill-rule:nonzero;stroke:none"
         id="text550"><tspan
           x="0"
           y="0"
           id="tspan548">h</tspan></text><text
         transform="matrix(1,0,0,-1,361.89443,238.68355)"
         style="font-style:italic;font-variant:normal;font-weight:normal;font-size:7.97011px;font-family:'Computer Modern';-inkscape-font-specification:CMSSI8;writing-mode:lr-tb;fill:#000000;fill-opacity:1;fill-rule:nonzero;stroke:none"
         id="text554"><tspan
           x="0"
           y="0"
           id="tspan552">x</tspan></text><path
         d="m 142.35987,1.44 h 179.68026 c 1.33333,0 2,0.666667 2,2 v 13.151919 c 0,1.333333 -0.66667,2 -2,2 H 142.35987 c -1.33333,0 -2,-0.666667 -2,-2 V 3.44 c 0,-1.333333 0.66667,-2 2,-2 z"
         style="fill:#ffffff;fill-opacity:0.8;fill-rule:nonzero;stroke:#cccccc;stroke-width:1;stroke-linecap:butt;stroke-linejoin:miter;stroke-miterlimit:10;stroke-dasharray:none;stroke-opacity:0.8"
         id="path556" /><path
         d="m 144.35987,11.091919 h 10 10"
         style="fill:none;stroke:#1c5a62;stroke-width:1;stroke-linecap:square;stroke-linejoin:round;stroke-miterlimit:10;stroke-dasharray:none;stroke-opacity:1"
         id="path558" /><text
         transform="matrix(1,0,0,-1,172.35987,7.5919187)"
         style="font-variant:normal;font-weight:normal;font-size:9.96264px;font-family:txtt;-inkscape-font-specification:txtt;writing-mode:lr-tb;fill:#000000;fill-opacity:1;fill-rule:nonzero;stroke:none"
         id="text562"><tspan
           x="0 5.2204232 10.440846 15.66127"
           y="0"
           id="tspan560">BORG</tspan></text><path
         d="m 213.28135,11.091919 h 10 10"
         style="fill:none;stroke:#f9ac92;stroke-width:1;stroke-linecap:butt;stroke-linejoin:round;stroke-miterlimit:10;stroke-dasharray:3.7, 1.6;stroke-dashoffset:0;stroke-opacity:1"
         id="path564" /><text
         transform="matrix(1,0,0,-1,241.28135,7.5919187)"
         style="font-variant:normal;font-weight:normal;font-size:9.96264px;font-family:txtt;-inkscape-font-specification:txtt;writing-mode:lr-tb;fill:#000000;fill-opacity:1;fill-rule:nonzero;stroke:none"
         id="text568"><tspan
           x="0 5.2204232 10.440846 15.66127"
           y="0"
           id="tspan566">BORG</tspan></text><text
         transform="matrix(1,0,0,-1,264.4167,7.5919187)"
         style="font-variant:normal;font-weight:normal;font-size:9.96264px;font-family:rtxr;-inkscape-font-specification:rtxr;writing-mode:lr-tb;fill:#000000;fill-opacity:1;fill-rule:nonzero;stroke:none"
         id="text572"><tspan
           x="0"
           y="0"
           id="tspan570">+</tspan></text><text
         transform="matrix(1,0,0,-1,272.96679,7.5919187)"
         style="font-variant:normal;font-weight:normal;font-size:9.96264px;font-family:txtt;-inkscape-font-specification:txtt;writing-mode:lr-tb;fill:#000000;fill-opacity:1;fill-rule:nonzero;stroke:none"
         id="text576"><tspan
           x="0 5.2204232 10.440846 15.66127 20.881693 26.102118 31.32254 36.542965 41.763386"
           y="0"
           id="tspan574">Robin-Pip</tspan></text></g></g></svg>
